<svg width="32" height="32" viewBox="0 0 32 32" fill="none" xmlns="http://www.w3.org/2000/svg">
<path d="M30.3502 9.52512C31.4953 10.7139 31.4953 12.5953 30.3502 13.7841L17.8418 26.2925L7.82739 16.2398L20.2974 3.76975C21.4588 2.59366 23.3537 2.58176 24.5299 3.74316C24.5388 3.75198 24.5476 3.76086 24.5564 3.76975L30.3502 9.52512Z" fill="#00ACEA"/>
<path d="M17.8418 26.2925L14.9257 29.2086V29.2853H8.55634L3.83693 24.4892C2.66084 23.3278 2.64895 21.4328 3.81035 20.2568C3.81916 20.2479 3.82805 20.239 3.83693 20.2302L7.82737 16.2398L17.8418 26.2542V26.2925Z" fill="#00EFD1"/>
<path d="M32 11.6355C31.9742 10.6447 31.5771 9.69969 30.8873 8.98797L25.0935 3.19418C23.6146 1.7363 21.2391 1.7363 19.7602 3.19418L3.29979 19.693C1.84852 21.0881 1.80291 23.3956 3.19808 24.847C3.21893 24.8686 3.24008 24.8901 3.26146 24.9113L6.79141 28.3645H0.767388C0.343559 28.3644 0 28.7081 0 29.1318C0 29.5557 0.343559 29.8992 0.767388 29.8992H22.6763C23.1001 29.8992 23.4436 29.5557 23.4436 29.1318C23.4436 28.708 23.1001 28.3644 22.6763 28.3644H16.6906L30.8873 14.2445C31.5917 13.5582 31.9923 12.6188 32 11.6355ZM8.94009 28.3644L4.37409 23.8369C3.51586 23.0173 3.4845 21.6572 4.30403 20.7989C4.3268 20.7751 4.35015 20.7517 4.37409 20.7289L7.8273 17.314L16.7674 26.1774L14.542 28.3645H8.94009V28.3644ZM29.7746 13.247L17.8418 25.1798L8.90168 16.2398L20.8346 4.30689C21.6737 3.43808 23.0582 3.41399 23.927 4.25313C23.9453 4.27076 23.9632 4.28868 23.9808 4.30689L29.7746 10.0623C30.1867 10.4864 30.432 11.045 30.4652 11.6354C30.4566 12.2427 30.2084 12.8219 29.7746 13.247Z" fill="#083863"/>
</svg>
