<svg width="79" height="79" viewBox="0 0 79 79" fill="none" xmlns="http://www.w3.org/2000/svg">
<g clip-path="url(#clip0)">
<path d="M54.568 30.636L23.1919 33.2621C23.1901 33.3022 23.1943 33.3417 23.2053 33.3801C23.1919 33.3928 23.1919 33.3928 23.2053 33.4062C23.1919 33.4573 23.1919 33.5114 23.2053 33.5631C23.2035 33.5771 23.2083 33.5917 23.218 33.602C23.0484 33.4062 22.8787 33.197 22.7218 32.975C21.1016 30.6992 19.9309 28.1358 19.2716 25.4215C15.3514 11.0468 24.4989 8.4335 24.4989 8.4335C23.5969 7.53158 21.4799 7.87155 20.2258 8.17198C19.7162 8.28936 19.3629 8.40734 19.285 8.42012C19.4152 8.26321 19.5331 8.11968 19.6767 7.97615C21.5328 5.74234 24.1133 4.23043 26.9686 3.70253C28.2306 3.48238 29.5211 3.47812 30.7843 3.68976C31.7726 3.8266 32.7365 4.10332 33.6464 4.51323C35.4733 2.91009 37.7156 1.85491 40.1149 1.46812C48.0472 0.25299 56.437 6.81272 58.4755 14.9671C61.0238 25.1472 54.9731 30.4396 54.568 30.636Z" fill="#624421"/>
<path d="M50.6478 30.636L22.7218 32.975C21.1016 30.6992 19.9309 28.1358 19.2716 25.4215C15.3514 11.0468 24.4989 8.4335 24.4989 8.4335C23.5969 7.53158 21.4799 7.87155 20.2258 8.17198C20.0543 8.07772 19.8689 8.01143 19.6767 7.97615C21.5328 5.74234 24.1133 4.23043 26.9686 3.70254C27.9204 3.84546 28.8485 4.11792 29.7261 4.51323C30.0788 4.21218 30.4316 3.9379 30.7843 3.68976C31.7726 3.8266 32.7365 4.10332 33.6464 4.51323C35.4733 2.91009 37.7156 1.85491 40.1149 1.46812C47.1246 2.81522 52.7393 8.06434 54.5553 14.9671C57.1035 25.1472 51.0528 30.4396 50.6478 30.636Z" fill="#825A2C"/>
<path d="M29.7261 54.171L33.6463 77.6932H10.163C9.80847 77.6951 9.46729 77.5527 9.21855 77.2991C8.97041 77.0455 8.83479 76.7025 8.8433 76.3473C9.36633 63.9851 17.1807 54.171 29.7261 54.171Z" fill="#607D8B"/>
<path d="M70.1974 76.3473C70.2132 76.7019 70.0825 77.048 69.835 77.3028C69.5874 77.5576 69.2456 77.6987 68.8905 77.6932H44.1008L47.9688 54.4976L48.0211 54.171C60.5664 54.171 69.5959 63.9851 70.1974 76.3473Z" fill="#37474F"/>
<path d="M66.2772 76.3473C66.293 76.7019 66.1616 77.048 65.9147 77.3028C65.6672 77.5576 65.3254 77.6987 64.9702 77.6932H44.1008L47.9688 54.4976C58.4622 56.2747 65.7414 65.292 66.2772 76.3473Z" fill="#607D8B"/>
<path d="M48.0211 58.0913V77.6932H29.7261V58.0913C29.7261 58.0913 31.137 44.259 34.4698 48.8197C35.5761 50.3596 36.9426 51.6951 38.5075 52.7661C38.7343 52.8969 39.0129 52.8969 39.2397 52.7661C40.8045 51.6951 42.1711 50.3596 43.2774 48.8197C46.6095 44.259 48.0211 58.0913 48.0211 58.0913Z" fill="#545C60"/>
<path d="M48.0211 48.9438V54.171L38.8736 55.478L29.7261 54.171V48.9438C32.3005 50.8778 35.463 50.2507 38.8736 50.2507C41.853 50.2507 44.6628 51.1393 47.0279 49.6365C47.3679 49.4145 47.6945 49.1919 48.0211 48.9438Z" fill="#FFE0B2"/>
<path d="M48.0211 45.8731V48.9438C47.6945 49.1919 47.3679 49.4145 47.0279 49.6365C41.6827 53.0447 34.7812 52.7685 29.7261 48.9438V45.8731C32.3005 47.8071 35.463 47.6368 38.8736 47.6368C41.7843 47.5541 44.6117 46.6479 47.0279 45.0235C47.3679 44.8015 47.6945 46.1212 48.0211 45.8731Z" fill="#DFC49C"/>
<path d="M36.2597 33.2621C36.2584 36.8704 33.3338 39.795 29.7261 39.7963C29.065 39.7975 28.4082 39.6959 27.7787 39.4958C25.3637 38.7405 23.6018 36.6581 23.2576 34.1512C23.2442 34.136 23.2442 34.1135 23.2576 34.0989V34.0855C23.2442 33.9286 23.2314 33.7851 23.218 33.6282C23.2144 33.6245 23.2126 33.6203 23.2126 33.6154C23.2126 33.6099 23.2144 33.6057 23.218 33.602C23.2083 33.5917 23.2034 33.5771 23.2053 33.5631C23.1919 33.5114 23.1919 33.4573 23.2053 33.4062C23.1919 33.3928 23.1919 33.3928 23.2053 33.3801V33.1185C23.1919 33.104 23.1919 33.0814 23.2053 33.0662C23.2843 30.2839 25.1216 27.8585 27.7787 27.0289C28.4082 26.8288 29.065 26.7273 29.7261 26.7285C33.3338 26.7297 36.2584 29.6544 36.2597 33.2621Z" fill="#00838F"/>
<path d="M54.5419 33.0663C54.5553 33.0815 54.5553 33.104 54.5419 33.1186V33.3801C54.5291 33.6154 54.5157 33.8502 54.4896 34.0856V34.0989C54.503 34.1135 54.503 34.136 54.4896 34.1512C54.0481 37.3855 51.2851 39.7963 48.0211 39.7963C47.3521 39.7963 46.6868 39.6953 46.0476 39.4958C43.3321 38.6335 41.4869 36.112 41.4869 33.2621C41.4869 30.4128 43.3321 27.8913 46.0476 27.0289C46.6868 26.8295 47.3521 26.7285 48.0211 26.7285C51.5521 26.7267 54.4434 29.5364 54.5419 33.0663Z" fill="#00838F"/>
<path d="M32.3394 33.2621C32.34 36.112 30.4948 38.6334 27.7787 39.4958C25.3637 38.7405 23.6018 36.6581 23.2576 34.1512C23.2442 34.136 23.2442 34.1135 23.2576 34.0989V34.0855C23.2442 33.9286 23.2314 33.7851 23.218 33.6282C23.2144 33.6245 23.2126 33.6203 23.2126 33.6154C23.2126 33.61 23.2144 33.6057 23.218 33.602C23.2083 33.5917 23.2034 33.5771 23.2053 33.5631C23.1919 33.5114 23.1919 33.4573 23.2053 33.4062C23.1919 33.3928 23.1919 33.3928 23.2053 33.3801V33.1185C23.1919 33.104 23.1919 33.0814 23.2053 33.0662C23.2843 30.2839 25.1216 27.8585 27.7787 27.0289C30.4948 27.8913 32.34 30.4128 32.3394 33.2621Z" fill="#00BCD4"/>
<path d="M50.6216 33.0662C50.635 33.0814 50.635 33.104 50.6216 33.1185V33.3801C50.6082 33.6154 50.5955 33.8502 50.5693 34.0855V34.0989C50.5827 34.1135 50.5827 34.136 50.5693 34.1512C50.2251 36.6581 48.4632 38.7405 46.0476 39.4958C43.3321 38.6334 41.4869 36.112 41.4869 33.2621C41.4869 30.4128 43.3321 27.8913 46.0476 27.0289C48.7047 27.8585 50.542 30.2839 50.6216 33.0662Z" fill="#00BCD4"/>
<path d="M54.4896 34.1512C54.3497 35.6346 54.0158 37.093 53.4964 38.4893C52.42 41.4262 50.5188 43.9902 48.0211 45.8731C47.6945 46.1213 47.3679 46.3432 47.0279 46.5652C44.591 48.1173 41.7624 48.9426 38.8736 48.9438C38.2137 48.9468 37.5538 48.903 36.9001 48.813C34.2953 48.4676 31.8243 47.4544 29.7261 45.8731C29.6342 45.8074 29.543 45.7424 29.4646 45.6767C27.443 44.0894 25.8301 42.0422 24.7604 39.705C24.5773 39.3128 24.4076 38.9077 24.2507 38.4893C23.7313 37.093 23.3974 35.6346 23.2576 34.1512C23.6018 36.6581 25.3637 38.7405 27.7787 39.4958C28.4082 39.6959 29.065 39.7975 29.7261 39.7963C33.3337 39.7951 36.2584 36.8704 36.2597 33.2621C36.3065 32.8686 36.554 32.5274 36.9134 32.3608C37.5198 32.0567 38.1961 31.9168 38.8736 31.9557C41.4869 31.9557 41.4869 33.2621 41.4869 33.2621C41.4869 36.112 43.3321 38.6334 46.0476 39.4958C46.6867 39.6953 47.3521 39.7963 48.0211 39.7963C48.3762 39.7993 48.7302 39.7689 49.0793 39.705C51.9079 39.2447 54.104 36.9908 54.4896 34.1512Z" fill="#DFC49C"/>
<path d="M49.0793 39.705C47.9518 42.1383 46.2416 44.2572 44.1008 45.8731C43.7742 46.1212 43.447 46.3432 43.1077 46.5652C41.2302 47.7651 39.1102 48.5332 36.9001 48.813C34.2953 48.4676 31.8243 47.4544 29.7261 45.8731C29.6342 45.8074 29.543 45.7424 29.4646 45.6767C27.443 44.0893 25.8301 42.0422 24.7604 39.705C25.1052 39.7683 25.4549 39.7987 25.8058 39.7963C26.4748 39.7963 27.1401 39.6953 27.7787 39.4958C28.4082 39.6959 29.065 39.7975 29.7261 39.7963C33.3337 39.7951 36.2584 36.8704 36.2597 33.2621C36.3065 32.8686 36.554 32.5274 36.9134 32.3608C37.2729 32.5274 37.5198 32.8686 37.5666 33.2621C37.5678 36.8704 40.4925 39.7951 44.1008 39.7963C44.7613 39.7975 45.4181 39.6959 46.0476 39.4958C46.6868 39.6953 47.3521 39.7963 48.0211 39.7963C48.3763 39.7993 48.7302 39.7689 49.0793 39.705Z" fill="#FFE0B2"/>
<path d="M23.9235 22.0498C23.7192 22.4968 23.5404 22.9548 23.3883 23.4225C23.2837 23.7326 22.9644 23.9175 22.6433 23.8537C22.7346 21.3967 23.1919 21.3444 23.1919 21.3444C23.2442 21.3967 23.2837 21.449 23.336 21.5013C23.5215 21.6947 23.718 21.8777 23.9235 22.0498Z" fill="#DFC49C"/>
<path d="M27.7787 27.0289C25.1216 27.8585 23.2843 30.2839 23.2053 33.0662C23.1919 33.0814 23.1919 33.1039 23.2053 33.1185C23.1943 33.166 23.1901 33.214 23.1919 33.2621C22.9304 30.923 22.7741 29.0286 22.6956 27.5258C23.6474 26.9997 24.7178 26.7255 25.8058 26.7285C26.4748 26.7285 27.1402 26.8295 27.7787 27.0289Z" fill="#DFC49C"/>
<path d="M36.9134 32.3608C36.554 32.5274 36.3065 32.8686 36.2597 33.2621C36.2603 32.8631 36.2207 32.4648 36.1423 32.0731C36.4141 32.1236 36.675 32.2209 36.9134 32.3608Z" fill="#DFC49C"/>
<path d="M54.5681 30.636L54.5553 30.6488V32.6089C54.5553 32.7658 54.5553 32.9093 54.5419 33.0663C54.4762 30.7187 53.1534 28.5871 51.079 27.4863C51.2797 25.3638 51.1294 23.2224 50.6344 21.1485C50.4836 20.5787 50.2823 20.0234 50.0335 19.4888C50.3893 18.8186 50.6155 18.087 50.7001 17.3329C50.7159 17.1024 50.8533 16.8974 51.0607 16.7952C51.2675 16.6931 51.5132 16.7089 51.706 16.836C53.1595 17.8687 54.1752 19.4067 54.5553 21.1485C55.2078 24.277 55.2121 27.5057 54.5681 30.636Z" fill="#DFC49C"/>
<path d="M51.079 27.4863C50.1375 26.9851 49.0872 26.7248 48.0211 26.7285C47.3521 26.7285 46.6868 26.8295 46.0476 27.0289C43.3321 27.8913 41.4869 30.4128 41.4869 33.2621C41.4869 33.2621 41.4869 31.9557 38.8736 31.9557C38.474 31.9478 38.0745 31.9874 37.6846 32.0731C37.4128 32.1236 37.1519 32.2209 36.9135 32.3608C36.6751 32.2209 36.4142 32.1236 36.1423 32.0731C35.5767 28.9745 32.8758 26.7242 29.7261 26.7285C29.065 26.7273 28.4082 26.8288 27.7787 27.0289C27.1402 26.8295 26.4748 26.7285 25.8058 26.7285C24.7178 26.7255 23.6474 26.9997 22.6956 27.5258C22.6099 26.3034 22.5922 25.0773 22.6433 23.8537C22.9644 23.9175 23.2837 23.7326 23.3883 23.4225C23.5404 22.9548 23.7192 22.4968 23.9235 22.0498C24.6649 22.7419 25.4957 23.3306 26.3939 23.8014C26.5636 23.8865 26.7619 23.8938 26.9376 23.8208C27.1134 23.7485 27.2484 23.6025 27.3086 23.4225C28.2531 20.1457 30.7667 17.5542 34.0125 16.5094C34.3129 16.4176 34.6267 16.3391 34.9533 16.274C39.4356 15.3855 42.075 20.0246 43.2907 23.0168C43.5255 23.6183 43.7219 24.1541 43.8521 24.5719C43.9153 24.769 44.068 24.9247 44.2638 24.9916C44.459 25.0585 44.6749 25.0287 44.8458 24.9119C46.9805 23.5417 48.7588 21.6825 50.0335 19.4888C50.2823 20.0234 50.4836 20.5787 50.6344 21.1485C51.1295 23.2224 51.2797 25.3638 51.079 27.4863Z" fill="#FFE0B2"/>
<path d="M37.6846 32.0731C37.6056 32.4648 37.566 32.8631 37.5666 33.2621C37.5198 32.8686 37.2729 32.5274 36.9135 32.3608C37.1519 32.2209 37.4128 32.1236 37.6846 32.0731Z" fill="#DFC49C"/>
<path d="M48.0211 58.0913V69.9701C46.008 73.5674 42.7574 76.3115 38.8736 77.6932C34.9898 76.3115 31.7391 73.5674 29.7261 69.9701V58.0913C30.7192 61.7366 32.323 65.188 34.4698 68.2976C35.5761 69.8375 36.9426 71.173 38.5075 72.244C38.7343 72.3748 39.0129 72.3748 39.2397 72.244C40.8045 71.173 42.1711 69.8375 43.2774 68.2976C45.4236 65.188 47.0279 61.7366 48.0211 58.0913Z" fill="#9E9E9E"/>
<path d="M48.0211 54.171V58.0913C47.0279 61.7366 45.4236 65.188 43.2773 68.2976L43.2646 68.2842L41.4869 59.3982L42.5062 58.3789C42.5792 58.3108 42.6175 58.2135 42.6096 58.1144C42.6023 58.0153 42.5494 57.9252 42.4673 57.8693L39.0566 55.5953C39.0025 55.5589 38.9387 55.54 38.8736 55.543V55.478L48.0211 54.171Z" fill="#F5F5F5"/>
<path d="M43.2773 68.2976C42.1711 69.8375 40.8045 71.173 39.2397 72.244C39.0129 72.3748 38.7343 72.3748 38.5075 72.244C36.9426 71.173 35.5761 69.8375 34.4698 68.2976L34.4826 68.2842L36.2597 59.3982L38.6382 61.7768C38.7003 61.8394 38.7854 61.8747 38.8736 61.8747C38.9618 61.8747 39.0463 61.8394 39.1089 61.7768L41.4869 59.3982L43.2646 68.2842L43.2773 68.2976Z" fill="#F44335"/>
<path d="M38.8736 55.478V55.543C38.8085 55.54 38.7441 55.5589 38.6905 55.5953L35.2799 57.8693C35.1972 57.9252 35.1449 58.0153 35.1376 58.1144C35.1297 58.2135 35.168 58.3108 35.2404 58.3789L36.2597 59.3982L34.4826 68.2842L34.4698 68.2976C32.323 65.188 30.7192 61.7366 29.7261 58.0913V54.171L38.8736 55.478Z" fill="#F5F5F5"/>
<path d="M42.5062 58.3789L39.1089 61.7768C39.0463 61.8394 38.9618 61.8747 38.8736 61.8747C38.7854 61.8747 38.7003 61.8394 38.6382 61.7768L35.2404 58.3789C35.168 58.3108 35.1297 58.2135 35.1376 58.1144C35.1449 58.0152 35.1972 57.9252 35.2799 57.8693L38.6905 55.5953C38.8024 55.5254 38.9447 55.5254 39.0566 55.5953L42.4673 57.8693C42.5494 57.9252 42.6023 58.0152 42.6096 58.1144C42.6175 58.2135 42.5792 58.3108 42.5062 58.3789Z" fill="#C81E1E"/>
<path d="M68.8966 79.0002H10.1576C9.44115 78.9984 8.75635 78.7058 8.25947 78.1895C7.76929 77.6847 7.50899 76.9993 7.54001 76.2962V76.295C8.12811 62.4993 17.2513 52.864 29.7261 52.864C29.7881 52.864 29.8495 52.8683 29.911 52.8774L38.8736 54.1576L47.8362 52.8774C47.897 52.8683 47.959 52.864 48.0211 52.864C60.9611 52.864 70.8391 62.7164 71.5086 76.2896C71.5451 76.9908 71.2891 77.6762 70.802 78.1822C70.3051 78.7028 69.6166 78.9984 68.8966 79.0002ZM10.1521 76.3802L68.8966 76.3863C68.3024 64.3165 59.5654 55.5248 48.1123 55.478L39.0579 56.7715C38.9356 56.7892 38.8109 56.7892 38.6881 56.7715L29.6343 55.478C18.5163 55.5236 10.6946 63.9109 10.1521 76.3802Z" fill="black"/>
<path d="M48.0211 62.0115C47.2992 62.0115 46.7141 61.4265 46.7141 60.7052V45.8731C46.7141 45.1512 47.2992 44.5662 48.0211 44.5662C48.743 44.5662 49.328 45.1512 49.328 45.8731V60.7052C49.328 61.4265 48.743 62.0115 48.0211 62.0115Z" fill="black"/>
<path d="M29.7261 62.0115C29.0042 62.0115 28.4191 61.4265 28.4191 60.7052V45.8731C28.4191 45.1512 29.0042 44.5662 29.7261 44.5662C30.448 44.5662 31.033 45.1512 31.033 45.8731V60.7052C31.033 61.4265 30.448 62.0115 29.7261 62.0115Z" fill="black"/>
<path d="M29.7261 79.0002C29.0042 79.0002 28.4191 78.4151 28.4191 77.6932V54.171C28.4191 53.4491 29.0042 52.864 29.7261 52.864C30.448 52.864 31.033 53.4491 31.033 54.171V77.6932C31.033 78.4151 30.448 79.0002 29.7261 79.0002Z" fill="black"/>
<path d="M48.0211 79.0002C47.2992 79.0002 46.7141 78.4151 46.7141 77.6932V54.171C46.7141 53.4491 47.2992 52.864 48.0211 52.864C48.743 52.864 49.328 53.4491 49.328 54.171V77.6932C49.328 78.4151 48.743 79.0002 48.0211 79.0002Z" fill="black"/>
<path d="M38.8736 50.2507C35.1662 50.255 31.5664 49.0058 28.6594 46.7057C26.0983 44.689 24.1467 42.0027 23.021 38.9436C22.2687 36.9166 21.8837 34.7716 21.8849 32.6089C21.8849 31.887 22.4706 31.3019 23.1919 31.3019C23.9138 31.3019 24.4989 31.887 24.4989 32.6089C24.4976 34.4614 24.8267 36.2987 25.4713 38.035C26.4292 40.641 28.0907 42.9296 30.271 44.6482C34.9041 48.3113 41.3495 48.6372 46.3292 45.4614C49.0659 43.6995 51.1538 41.0935 52.2746 38.038C52.9199 36.3005 53.2495 34.462 53.2483 32.6089C53.2483 31.887 53.8334 31.3019 54.5553 31.3019C55.2766 31.3019 55.8616 31.887 55.8616 32.6089C55.8628 34.7716 55.4785 36.9166 54.7262 38.9436C53.4052 42.5355 50.9488 45.5982 47.7298 47.6678C45.083 49.3518 42.0111 50.2477 38.8736 50.2507Z" fill="black"/>
<path d="M54.5553 22.481C54.2111 22.4871 53.879 22.3551 53.6339 22.1143C53.3882 21.8735 53.2489 21.5445 53.2483 21.2008V21.1497C53.2483 20.4278 53.8334 19.8428 54.5553 19.8428C55.2766 19.8428 55.8616 20.4278 55.8616 21.1497C55.8641 21.8765 55.2814 22.4695 54.5553 22.481Z" fill="black"/>
<path d="M54.5553 33.9159C53.8334 33.9159 53.2483 33.3308 53.2483 32.6089V30.6488C53.2483 29.9269 53.8334 29.3418 54.5553 29.3418C55.2766 29.3418 55.8616 29.9269 55.8616 30.6488V32.6089C55.8616 33.3308 55.2766 33.9159 54.5553 33.9159Z" fill="black"/>
<path d="M38.8736 73.6531C38.4917 73.6531 38.1182 73.5431 37.7977 73.3351C31.176 69.0219 28.5657 58.8393 28.4587 58.4081C28.306 57.7172 28.7311 57.03 29.4177 56.8585C30.1038 56.6864 30.8026 57.092 30.9929 57.7738C31.0172 57.8681 33.3684 67.0107 38.873 70.9066C44.3769 67.0125 46.7293 57.8681 46.753 57.7738C46.944 57.092 47.6422 56.6864 48.3288 56.8585C49.0148 57.03 49.4399 57.7172 49.2873 58.4081C49.1803 58.8393 46.5706 69.0219 39.95 73.3339C39.6295 73.5418 39.2555 73.6525 38.8736 73.6531Z" fill="black"/>
<path d="M38.8736 79.0002C38.7331 78.9996 38.5932 78.9771 38.46 78.9321C34.2715 77.4579 30.7648 74.5058 28.5979 70.6293C28.362 70.2267 28.3589 69.7286 28.5906 69.3224C28.8217 68.9167 29.2517 68.6655 29.7188 68.6625C30.1852 68.6601 30.6183 68.907 30.8542 69.3096C32.7037 72.6369 35.7014 75.176 39.2871 76.4538C39.8947 76.6569 40.2657 77.2705 40.1629 77.9024C40.0601 78.5349 39.514 78.9996 38.8736 79.0002Z" fill="black"/>
<path d="M38.8736 79.0002C38.2332 78.999 37.6877 78.5349 37.5855 77.9024C37.4827 77.2705 37.8531 76.6575 38.46 76.4544C42.0458 75.1766 45.0435 72.6369 46.8929 69.3102C47.2572 68.6868 48.0582 68.4776 48.6809 68.8419C49.3043 69.2062 49.5135 70.0072 49.1492 70.6299C46.9823 74.5058 43.4756 77.4579 39.2871 78.9327C39.154 78.9771 39.0141 79.0002 38.8736 79.0002Z" fill="black"/>
<path d="M34.4832 69.5912C34.3968 69.5912 34.3105 69.5827 34.2259 69.565C33.518 69.4233 33.0595 68.7349 33.2012 68.027L34.9783 59.141C35.1254 58.4391 35.8108 57.9873 36.5139 58.1278C37.2169 58.2689 37.6749 58.9494 37.5411 59.6543L35.7634 68.5403C35.6418 69.1509 35.106 69.5906 34.4832 69.5912Z" fill="black"/>
<path d="M43.2634 69.5912C42.6412 69.5906 42.1048 69.1515 41.9832 68.5409L40.2055 59.6549C40.1094 59.1951 40.2669 58.7189 40.6184 58.4075C40.9706 58.0961 41.4626 57.9976 41.9071 58.1496C42.3517 58.3017 42.6801 58.68 42.7683 59.1416L44.5454 68.0276C44.6871 68.7355 44.2285 69.4239 43.5206 69.5656C43.4361 69.5827 43.3497 69.5912 43.2634 69.5912Z" fill="black"/>
<path d="M38.8736 63.1817C38.4406 63.1835 38.0246 63.0114 37.7187 62.7049L34.3111 59.2973C33.9638 58.9506 33.7911 58.4665 33.8404 57.9781C33.8896 57.4898 34.1554 57.0495 34.5653 56.7794L37.9674 54.5116C38.5172 54.1418 39.2373 54.143 39.7858 54.5158L43.1867 56.7831C43.5948 57.0543 43.8588 57.494 43.9068 57.9812C43.9549 58.4689 43.7821 58.9518 43.4355 59.2973L40.0285 62.7042C39.7226 63.0114 39.3066 63.1835 38.8736 63.1817ZM37.0047 58.2944L38.8736 60.1639L40.7425 58.2944L38.8736 57.0489L37.0047 58.2944ZM41.7344 58.9555L41.7417 58.9616L41.7344 58.9555ZM36.017 58.953L36.0097 58.9579L36.017 58.953ZM38.3299 56.6864L38.339 56.6925L38.3299 56.6864ZM39.424 56.6827L39.4149 56.6888L39.424 56.6827Z" fill="black"/>
<path d="M23.218 34.9352C22.7686 34.9346 22.3508 34.7041 22.1094 34.3252C20.1547 31.7921 18.7583 28.8741 18.0115 25.7633C15.8494 17.837 17.5523 13.2314 19.3616 10.7634C19.7089 10.2902 20.0945 9.84628 20.5153 9.43759C20.2344 9.5051 19.9552 9.58416 19.6846 9.67356C19.1305 9.85723 18.5218 9.65106 18.1927 9.16878C17.8637 8.6865 17.8947 8.04427 18.2681 7.59544C24.1139 0.582012 31.0701 2.19367 33.4146 3.0153C37.1932 0.0504707 42.2185 -0.793671 46.7579 0.775411C53.1291 2.94536 57.9993 8.14948 59.743 14.6508C62.2407 24.6254 56.9113 30.5277 55.3952 31.648C54.8752 32.0749 54.1162 32.0397 53.6382 31.5665C53.3918 31.3232 53.2532 30.9924 53.252 30.6469C53.2507 30.3015 53.387 29.9694 53.6315 29.725C53.7081 29.6483 53.7926 29.5808 53.8839 29.523C54.1162 29.3321 59.5374 24.5896 57.2087 15.2852C55.6986 9.6541 51.4822 5.14634 45.9643 3.26465C42.0166 1.89809 37.639 2.75318 34.496 5.50455C34.0964 5.84512 33.532 5.91506 33.0613 5.68213C29.8459 4.28699 26.1415 4.62331 23.2296 6.57493C24.0458 6.62662 24.82 6.95625 25.4221 7.50969C25.7499 7.83688 25.8794 8.31308 25.7632 8.7613C25.6471 9.21013 25.3022 9.56348 24.8571 9.69059C24.5445 9.78485 17.0238 12.2169 20.5311 25.0785C21.1898 27.8779 22.4463 30.5016 24.2142 32.7695C24.4155 33.0079 24.525 33.3101 24.5232 33.6221V33.6282C24.5238 34.3495 23.9393 34.9346 23.218 34.9352Z" fill="black"/>
<path d="M54.5589 31.9466C54.1429 31.9466 53.7519 31.7483 53.5056 31.4132C53.2593 31.0781 53.1869 30.6463 53.3109 30.2492C54.0754 26.1653 54.0468 21.0409 51.7857 18.6046C51.2535 20.5112 49.679 23.0849 45.6054 25.9719C45.0952 26.3314 44.4444 26.4268 43.8527 26.2292C43.2603 26.0315 42.7975 25.5639 42.6059 24.9697C41.9759 23.0071 39.5663 16.6718 35.21 17.5555C32.0073 18.2579 29.4494 20.6614 28.548 23.8135C28.3747 24.3603 27.9691 24.8024 27.44 25.0232C26.9109 25.244 26.3112 25.2208 25.8003 24.9599C24.539 24.3001 23.3914 23.4413 22.4031 22.416C22.3867 22.3983 22.2973 22.3028 22.2815 22.2846C21.8059 21.75 21.829 20.9375 22.3338 20.4303C22.5691 20.1931 22.8884 20.0587 23.2223 20.0563C23.5568 20.0544 23.8779 20.1858 24.1157 20.4206C24.1358 20.4406 24.2264 20.5391 24.2458 20.561C24.8704 21.2063 25.5692 21.7756 26.3276 22.2566C27.6565 18.5395 30.8293 15.7863 34.6967 14.9932C38.8967 14.1527 42.6278 17.2575 44.8051 23.3191C48.7077 20.3549 49.3201 18.0834 49.398 17.2124C49.457 16.5216 49.8778 15.9128 50.5036 15.6142C51.1179 15.3101 51.8477 15.3569 52.4182 15.737C57.6569 19.1914 56.3792 28.1553 55.8628 30.8197C55.8093 31.0964 55.681 31.3524 55.4912 31.5598C55.2443 31.8073 54.9086 31.9466 54.5589 31.9466ZM44.0941 23.8403L44.0917 23.8415L44.0941 23.8403ZM26.9875 22.6319L26.9899 22.6331L26.9875 22.6319Z" fill="black"/>
<path d="M29.7261 41.1032C25.3959 41.1032 21.8849 37.5929 21.8849 33.2621C21.8849 28.9319 25.3959 25.4215 29.7261 25.4215C34.0563 25.4215 37.5666 28.9319 37.5666 33.2621C37.5618 37.5904 34.0544 41.0984 29.7261 41.1032ZM29.7261 28.0355C26.8391 28.0355 24.4989 30.3757 24.4989 33.2621C24.4989 36.1491 26.8391 38.4893 29.7261 38.4893C32.6131 38.4893 34.9533 36.1491 34.9533 33.2621C34.9503 30.3769 32.6119 28.0379 29.7261 28.0355Z" fill="black"/>
<path d="M48.0211 41.1032C43.6909 41.1032 40.1805 37.5929 40.1805 33.2621C40.1805 28.9319 43.6909 25.4215 48.0211 25.4215C52.3513 25.4215 55.8616 28.9319 55.8616 33.2621C55.8568 37.5904 52.3494 41.0984 48.0211 41.1032ZM48.0211 28.0355C45.1341 28.0355 42.7939 30.3757 42.7939 33.2621C42.7939 36.1491 45.1341 38.4893 48.0211 38.4893C50.9081 38.4893 53.2483 36.1491 53.2483 33.2621C53.2453 30.3769 50.9069 28.0379 48.0211 28.0355Z" fill="black"/>
<path d="M41.4869 34.569C40.8599 34.569 40.321 34.1233 40.2031 33.5072C39.7919 33.3028 39.3309 33.2177 38.8736 33.2621C38.4162 33.2177 37.9553 33.3028 37.5435 33.5072C37.4176 34.1701 36.8082 34.628 36.1368 34.5642C35.4654 34.5009 34.9527 33.9365 34.9533 33.2621C34.9533 33.155 34.9977 30.6488 38.8736 30.6488C42.7495 30.6488 42.7939 33.155 42.7939 33.2621C42.7939 33.984 42.2088 34.569 41.4869 34.569Z" fill="black"/>
<path d="M23.1907 34.569C22.5253 34.5684 21.9664 34.0679 21.8928 33.4062C20.5555 21.3656 21.7244 20.204 23.0362 20.0459C23.5854 19.9796 24.1163 20.2661 24.3626 20.7605C24.6089 21.2556 24.5177 21.8516 24.134 22.2499C23.9874 22.7261 23.5787 24.9082 24.4916 33.1173C24.5706 33.835 24.0537 34.4809 23.3366 34.5611C23.288 34.566 23.2393 34.569 23.1907 34.569ZM23.5568 22.5984C23.4899 22.6179 23.4218 22.6325 23.3531 22.641C23.4218 22.6331 23.4905 22.6191 23.5568 22.599V22.5984Z" fill="black"/>
<path d="M36.9694 27.5453C36.9189 27.5453 36.8691 27.5422 36.8186 27.5362C36.4744 27.4972 36.1599 27.3221 35.9446 27.0508C35.7287 26.7796 35.6302 26.4335 35.6704 26.0887L35.8796 24.2642L34.0368 23.5624C33.4256 23.3276 33.0126 22.7517 32.9865 22.0973L32.9397 20.7289C32.9269 20.3828 33.0534 20.0459 33.2894 19.7923C33.5259 19.5393 33.8537 19.3903 34.2004 19.3788C34.5489 19.3581 34.8907 19.4809 35.1461 19.7193C35.4015 19.9577 35.5475 20.2904 35.5505 20.6401L35.5767 21.3517L37.5234 22.0936C38.2186 22.3606 38.6461 23.0624 38.5652 23.802L38.2666 26.3879C38.1906 27.0466 37.6329 27.5447 36.9694 27.5453Z" fill="#F44335"/>
</g>
<defs>
<clipPath id="clip0">
<rect width="79" height="79" fill="white"/>
</clipPath>
</defs>
</svg>
