<svg width="71" height="71" viewBox="0 0 71 71" fill="none" xmlns="http://www.w3.org/2000/svg">
<path d="M71 35.5C71 15.9256 55.0759 0 35.5 0C15.9241 0 0 15.9256 0 35.5C0 45.1692 4.20301 52.3461 12.4307 56.8894C14.0651 68.3497 19.0514 71 35.5 71C51.4891 71 56.6566 68.5203 58.4342 57.8556C66.7507 53.5548 71 46.0571 71 35.5Z" fill="#303C42"/>
<path d="M67.771 39.5677C64.2076 36.2309 62.125 31.5509 62.125 26.625C62.125 24.1056 62.6683 21.6273 63.7061 19.3401C66.4485 24.1077 68.0416 29.6162 68.0416 35.5C68.0417 36.9311 67.9347 38.2727 67.771 39.5677Z" fill="#F2F2F2"/>
<path d="M35.5 35.5C43.6692 35.5 50.2917 28.8775 50.2917 20.7083C50.2917 12.539 43.6692 5.91657 35.5 5.91657C27.3307 5.91657 20.7083 12.539 20.7083 20.7083C20.7083 28.8775 27.3307 35.5 35.5 35.5Z" fill="#F2F2F2"/>
<path d="M7.29384 19.3401C8.33166 21.6273 8.87498 24.1056 8.87498 26.625C8.87498 31.5133 6.81653 36.1706 3.29233 39.5032C3.0943 38.2209 2.95827 36.9011 2.95827 35.5C2.95827 29.6162 4.55147 24.1078 7.29384 19.3401Z" fill="#F2F2F2"/>
<path d="M35.5 68.0417C18.1805 68.0417 15.9502 65.2293 14.9968 53.3092C19.2552 48.6984 27.0381 45.8542 35.5 45.8542C43.9619 45.8542 51.7449 48.6984 56.0032 53.3092C55.0498 65.2292 52.8196 68.0417 35.5 68.0417Z" fill="#FEE4D0"/>
<path d="M58.8801 54.2185C58.9206 53.7814 58.9677 53.3668 59.002 52.9076C59.0308 52.5191 58.9038 52.1348 58.6524 51.8372C53.9461 46.3221 45.0741 42.8958 35.5 42.8958C25.926 42.8958 17.0537 46.3221 12.3476 51.8372C12.0962 52.1348 11.9692 52.5191 11.998 52.9076C12.0059 53.013 12.0179 53.1043 12.026 53.2084C8.05434 50.5559 5.40737 47.0421 4.04894 42.7367C8.92714 38.8173 11.8333 32.8913 11.8333 26.625C11.8333 23.0739 10.8705 19.6137 9.12503 16.5143C14.7066 8.78264 23.5817 3.61115 33.6869 3.05036C24.7475 3.9613 17.75 11.5324 17.75 20.7083C17.75 30.4962 25.7121 38.4583 35.5 38.4583C45.2879 38.4583 53.25 30.4962 53.25 20.7083C53.25 11.5322 46.2525 3.9613 37.313 3.05022C47.4182 3.61101 56.2933 8.7825 61.8748 16.5142C60.1294 19.6137 59.1666 23.0738 59.1666 26.6249C59.1666 32.9763 62.1407 38.9621 67.1283 42.8798C65.8305 47.7822 63.106 51.5407 58.8801 54.2185Z" fill="#D32F2F"/>
<path d="M67.771 39.5677C64.2076 36.2309 62.125 31.5509 62.125 26.625C62.125 24.1056 62.6683 21.6273 63.7061 19.3401C66.4485 24.1077 68.0416 29.6162 68.0416 35.5C68.0417 36.9311 67.9347 38.2727 67.771 39.5677Z" fill="#F2F2F2"/>
<path d="M58.8801 54.2185C58.9206 53.7814 58.9677 53.3668 59.002 52.9076C59.0308 52.5191 58.9038 52.1348 58.6524 51.8372C53.9461 46.3221 45.0741 42.8958 35.5 42.8958C25.926 42.8958 17.0537 46.3221 12.3476 51.8372C12.0962 52.1348 11.9692 52.5191 11.998 52.9076C12.0059 53.013 12.0179 53.1043 12.026 53.2084C8.05434 50.5559 5.40737 47.0421 4.04894 42.7367C8.92714 38.8173 11.8333 32.8913 11.8333 26.625C11.8333 23.0739 10.8705 19.6137 9.12503 16.5143C14.7066 8.78264 23.5817 3.61115 33.6869 3.05036C24.7475 3.9613 17.75 11.5324 17.75 20.7083C17.75 30.4962 25.7121 38.4583 35.5 38.4583C45.2879 38.4583 53.25 30.4962 53.25 20.7083C53.25 11.5322 46.2525 3.9613 37.313 3.05022C47.4182 3.61101 56.2933 8.7825 61.8748 16.5142C60.1294 19.6137 59.1666 23.0738 59.1666 26.6249C59.1666 32.9763 62.1407 38.9621 67.1283 42.8798C65.8305 47.7822 63.106 51.5407 58.8801 54.2185Z" fill="#D32F2F"/>
<path d="M35.5 68.0417C52.8196 68.0417 55.0498 65.2293 56.0032 53.3092C51.7449 48.6984 43.9619 45.8542 35.5 45.8542C27.0381 45.8542 19.2552 48.6984 14.9968 53.3092L29.5765 67.8889C31.326 67.994 33.2863 68.0417 35.5 68.0417Z" fill="url(#paint0_linear)"/>
<path d="M27.3645 50.2926C26.2117 50.2926 25.1458 51.0091 25.1458 56.2093C25.1458 61.4095 26.2119 62.126 27.3645 62.126C28.5172 62.126 29.5833 61.4095 29.5833 56.2093C29.5833 51.0091 28.5173 50.2926 27.3645 50.2926Z" fill="#303C42"/>
<path d="M43.6354 62.125C44.7882 62.125 45.8542 61.4085 45.8542 56.2083C45.8542 51.0081 44.7881 50.2916 43.6354 50.2916C42.4828 50.2916 41.4167 51.0081 41.4167 56.2083C41.4167 61.4085 42.4826 62.125 43.6354 62.125Z" fill="#303C42"/>
<path d="M71 35.5C71 15.9256 55.0759 0 35.5 0C15.9241 0 0 15.9256 0 35.5C0 45.1692 4.20301 52.3461 12.4307 56.8894C14.0651 68.3497 19.0514 71 35.5 71C51.4891 71 56.6566 68.5203 58.4342 57.8556C66.7507 53.5548 71 46.0571 71 35.5Z" fill="url(#paint1_linear)"/>
<path opacity="0.1" d="M3.29233 39.5032C3.82621 38.9981 4.31434 38.454 4.77889 37.8921C4.18302 37.6791 3.61404 37.4396 3.03578 37.2094C3.0943 37.9901 3.17695 38.7564 3.29233 39.5032Z" fill="black"/>
<path opacity="0.1" d="M62.2734 28.7863C62.7869 32.9018 64.7342 36.7241 67.771 39.5677C67.9346 38.2726 68.0417 36.9311 68.0417 35.5C68.0417 31.5767 67.2789 27.8457 65.9938 24.3645C64.9587 25.9162 63.707 27.3927 62.2734 28.7863Z" fill="black"/>
<path opacity="0.1" d="M7.75231 38.8424C6.69147 40.2774 5.46478 41.5992 4.04894 42.7367C5.40737 47.0421 8.05434 50.556 12.026 53.2084C12.0179 53.1043 12.0059 53.013 11.998 52.9076C11.9692 52.5191 12.0962 52.1348 12.3476 51.8372C17.0539 46.3221 25.926 42.8958 35.5 42.8958C45.0741 42.8958 53.9463 46.3221 58.6524 51.8372C58.9038 52.1348 59.0308 52.5191 59.002 52.9076C58.9677 53.3668 58.9206 53.7814 58.8801 54.2185C63.106 51.5407 65.8305 47.7822 67.1283 42.8798C63.3272 39.8941 60.7069 35.7043 59.67 31.0698C51.6612 37.3787 39.4942 41.4166 25.8853 41.4166C19.4112 41.4167 13.2832 40.479 7.75231 38.8424Z" fill="black"/>
<defs>
<linearGradient id="paint0_linear" x1="25.244" y1="43.0475" x2="49.6621" y2="67.4653" gradientUnits="userSpaceOnUse">
<stop stop-opacity="0.1"/>
<stop offset="1" stop-opacity="0"/>
</linearGradient>
<linearGradient id="paint1_linear" x1="3.01868" y1="21.1636" x2="66.9893" y2="50.9924" gradientUnits="userSpaceOnUse">
<stop stop-color="white" stop-opacity="0.2"/>
<stop offset="1" stop-color="white" stop-opacity="0"/>
</linearGradient>
</defs>
</svg>
