<svg width="90" height="90" viewBox="0 0 106 106" fill="none" xmlns="http://www.w3.org/2000/svg">
<g filter="url(#filter0_d)">
<rect x="4" width="98" height="98" rx="20" fill="#DBEEFC"/>
</g>
<g clip-path="url(#clip0)">
<path d="M81.4546 14H22.5455C18.9355 14 16 16.9355 16 20.5455V79.4546C16 83.0645 18.9355 86.0002 22.5455 86.0002H81.4546C85.0645 86.0002 88.0002 83.0647 88.0002 79.4546V20.5455C88 16.9355 85.0645 14 81.4546 14Z" fill="#303C42"/>
<path d="M84.7273 79.4546C84.7273 81.2587 83.2588 82.7273 81.4547 82.7273H22.5455C20.7414 82.7273 19.2728 81.2587 19.2728 79.4546V20.5455C19.2728 18.7414 20.7414 17.2728 22.5455 17.2728H81.4547C83.2588 17.2728 84.7273 18.7414 84.7273 20.5455V79.4546Z" fill="#2FF335"/>
<path d="M45.4545 41.8181V32C45.4545 31.0955 44.7226 30.3635 43.8181 30.3635H33.9999C33.0954 30.3635 32.3635 31.0955 32.3635 32V41.8181C32.3635 42.7226 33.0954 43.4546 33.9999 43.4546H43.8181C44.7226 43.4546 45.4545 42.7226 45.4545 41.8181Z" fill="#303C42"/>
<path d="M42.1819 33.6364H35.6364V40.1819H42.1819V33.6364Z" fill="#546E7A"/>
<path d="M70.0001 30.3637H60.1819C59.2774 30.3637 58.5454 31.0956 58.5454 32.0001V41.8183C58.5454 42.7228 59.2774 43.4547 60.1819 43.4547H70.0001C70.9046 43.4547 71.6365 42.7228 71.6365 41.8183V32.0001C71.6365 31.0956 70.9046 30.3637 70.0001 30.3637Z" fill="#303C42"/>
<path d="M68.3638 33.6364H61.8183V40.1819H68.3638V33.6364Z" fill="#546E7A"/>
<path d="M66.7274 50.0001H58.5456V45.091C58.5456 44.1865 57.8137 43.4546 56.9092 43.4546H47.091C46.1865 43.4546 45.4546 44.1865 45.4546 45.091V50.0001H37.2728C36.3683 50.0001 35.6364 50.732 35.6364 51.6365V68C35.6364 68.9045 36.3683 69.6365 37.2728 69.6365H43.8183C44.7228 69.6365 45.4547 68.9045 45.4547 68V63.0909H58.5456V68C58.5456 68.9045 59.2775 69.6365 60.182 69.6365H66.7275C67.632 69.6365 68.3639 68.9045 68.3639 68V51.6363C68.3636 50.732 67.6319 50.0001 66.7274 50.0001Z" fill="#303C42"/>
<path d="M65.0909 66.3636H61.8183V61.4545C61.8183 60.55 61.0863 59.8181 60.1818 59.8181H43.8181C42.9136 59.8181 42.1817 60.55 42.1817 61.4545V66.3636H38.909V53.2728H47.0908C47.9953 53.2728 48.7272 52.5408 48.7272 51.6363V46.7272H55.2727V51.6363C55.2727 52.5408 56.0047 53.2728 56.9092 53.2728H65.0909V66.3636Z" fill="#546E7A"/>
<path d="M32.7492 42.8379L32.7514 42.84C32.7514 42.84 32.7501 42.8382 32.7495 42.8374L32.7492 42.8379ZM64.0976 50.0001L58.1397 44.0421C58.383 44.3278 58.5456 44.686 58.5456 45.091V50.0001H64.0976ZM71.2305 30.9511C71.4738 31.2368 71.6364 31.595 71.6364 32V41.8182C71.6364 42.7227 70.9045 43.4546 70 43.4546H60.1818C59.8861 43.4546 59.6233 43.3549 59.384 43.2179L66.1662 50.0001H66.7274C67.6319 50.0001 68.3638 50.732 68.3638 51.6365V68C68.3638 68.9045 67.6319 69.6365 66.7274 69.6365H60.1818C59.2773 69.6365 58.5454 68.9045 58.5454 68V63.091H45.4546V68C45.4546 68.9045 44.7226 69.6365 43.8181 69.6365H37.2726C36.8204 69.6365 36.4112 69.4534 36.1153 69.1575L49.6854 82.7273H81.4545C83.2586 82.7273 84.7272 81.2587 84.7272 79.4547V44.4479L71.2305 30.9511ZM45.4546 50.0001V45.091C45.4546 44.1865 46.1865 43.4546 47.091 43.4546H56.9092C57.3143 43.4546 57.6724 43.6172 57.958 43.8605L45.0486 30.9511C45.2919 31.2368 45.4546 31.595 45.4546 32V41.8182C45.4546 42.7227 44.7226 43.4546 43.8181 43.4546H34C33.6066 43.4546 33.2601 43.2978 32.9781 43.0669L39.9113 50.0001H45.4546Z" fill="url(#paint0_linear)"/>
<path d="M81.4546 14H22.5455C18.9355 14 16 16.9355 16 20.5455V79.4546C16 83.0645 18.9355 86.0002 22.5455 86.0002H81.4546C85.0645 86.0002 88.0002 83.0647 88.0002 79.4546V20.5455C88 16.9355 85.0645 14 81.4546 14Z" fill="url(#paint1_linear)"/>
</g>
<defs>
<filter id="filter0_d" x="0" y="0" width="106" height="106" filterUnits="userSpaceOnUse" color-interpolation-filters="sRGB">
<feFlood flood-opacity="0" result="BackgroundImageFix"/>
<feColorMatrix in="SourceAlpha" type="matrix" values="0 0 0 0 0 0 0 0 0 0 0 0 0 0 0 0 0 0 127 0"/>
<feOffset dy="4"/>
<feGaussianBlur stdDeviation="2"/>
<feColorMatrix type="matrix" values="0 0 0 0 0 0 0 0 0 0 0 0 0 0 0 0 0 0 0.25 0"/>
<feBlend mode="normal" in2="BackgroundImageFix" result="effect1_dropShadow"/>
<feBlend mode="normal" in="SourceGraphic" in2="effect1_dropShadow" result="shape"/>
</filter>
<linearGradient id="paint0_linear" x1="39.6031" y1="35.9873" x2="84.5772" y2="80.9614" gradientUnits="userSpaceOnUse">
<stop stop-opacity="0.1"/>
<stop offset="1" stop-opacity="0"/>
</linearGradient>
<linearGradient id="paint1_linear" x1="10.5927" y1="30.6936" x2="93.4077" y2="69.3128" gradientUnits="userSpaceOnUse">
<stop stop-color="white" stop-opacity="0.2"/>
<stop offset="1" stop-color="white" stop-opacity="0"/>
</linearGradient>
<clipPath id="clip0">
<rect width="72" height="72" fill="white" transform="translate(16 14)"/>
</clipPath>
</defs>
</svg>
