<svg width="79" height="79" viewBox="0 0 79 79" fill="none" xmlns="http://www.w3.org/2000/svg">
<g clip-path="url(#clip0)">
<path d="M56.0651 3.66432H39.994L31.1377 19.2063H38.334L28.8935 38.3872L53.7028 16.1874H45.6428L56.0651 3.66432Z" fill="#FFD400"/>
<path d="M36.9238 9.05228L31.1377 19.2063H38.334L28.8935 38.3872L47.6812 21.5754H41.419L45.9025 16.1874H45.6428L51.5804 9.05228H36.9238Z" fill="#FFB000"/>
<path d="M28.8928 39.3145C28.6962 39.3145 28.4984 39.2521 28.3327 39.126C27.9791 38.857 27.8647 38.376 28.0613 37.9779L36.844 20.1336H31.1383C30.8082 20.1336 30.5027 19.958 30.3364 19.6724C30.1701 19.3868 30.1689 19.0344 30.3321 18.7475L39.1878 3.20558C39.3535 2.91563 39.6607 2.73695 39.994 2.73695H56.0651C56.4249 2.73695 56.752 2.9453 56.9047 3.2705C57.0574 3.59631 57.0079 3.98085 56.778 4.25783L47.6212 15.26H53.7028C54.0874 15.26 54.4324 15.4974 54.569 15.8566C54.7056 16.2158 54.6079 16.622 54.3211 16.8786L29.5111 39.0784C29.3361 39.2354 29.1148 39.3145 28.8928 39.3145ZM32.7334 18.2789H38.334C38.6549 18.2789 38.9522 18.4446 39.121 18.716C39.2898 18.988 39.3071 19.3281 39.1655 19.6155L31.8344 34.5108L51.2756 17.1148H45.6428C45.283 17.1148 44.956 16.9064 44.8033 16.5812C44.6506 16.2554 44.7 15.8709 44.93 15.5939L54.0861 4.59168H40.5331L32.7334 18.2789Z" fill="#33363A"/>
<path d="M69.923 52.1875C69.923 64.9703 56.3019 75.3351 39.5 75.3351C22.6975 75.3351 9.077 64.9697 9.077 52.1875C9.077 39.4023 22.6975 24.0829 39.5 24.0829C56.3019 24.0829 69.923 39.4029 69.923 52.1875Z" fill="#FFF800"/>
<path d="M69.923 52.1875C69.923 64.9703 56.3019 75.3351 39.5 75.3351C22.6975 75.3351 9.077 64.9697 9.077 52.1875C9.077 39.4023 22.6975 30.5936 39.5 30.5936C56.3019 30.5942 69.923 39.4029 69.923 52.1875Z" fill="#FFD400"/>
<path d="M45.9785 46.13C45.9785 46.9912 43.0784 47.1458 39.5 47.1458C35.9216 47.1458 33.0215 46.9912 33.0215 46.13C33.0215 45.2676 35.9216 43.0159 39.5 43.0159C43.0784 43.0159 45.9785 45.2676 45.9785 46.13Z" fill="#FFF800"/>
<path d="M69.923 52.1875C69.923 64.9703 56.3019 75.3351 39.5 75.3351C22.6975 75.3351 9.077 64.9697 9.077 52.1875C9.077 39.4011 12.9478 63.5261 39.5 63.5261C66.0522 63.5261 69.923 39.4017 69.923 52.1875Z" fill="#FFB000"/>
<path d="M39.5 76.2631C22.2134 76.2631 8.14964 65.463 8.14964 52.1882C8.14964 39.0382 22.1336 23.1562 39.5 23.1562C56.8664 23.1562 70.8504 39.0382 70.8504 52.1875C70.8504 65.463 56.7866 76.2631 39.5 76.2631ZM39.5 25.0103C23.1611 25.0103 10.0044 39.8778 10.0044 52.1875C10.0044 64.4398 23.2359 74.4077 39.5 74.4077C55.764 74.4077 68.9956 64.4404 68.9956 52.1875C68.9956 39.8778 55.8382 25.0103 39.5 25.0103Z" fill="#33363A"/>
<path d="M5.68597 29.2261C9.63343 35.743 15.1642 39.5742 20.5145 40.2376C21.4369 33.589 19.9754 25.8746 16.0273 19.3577C12.0798 12.839 6.54903 9.00778 1.1994 8.34688C0.276363 14.993 1.7385 22.7092 5.68597 29.2261Z" fill="#FFD400"/>
<path d="M1.19938 8.34688C0.276964 14.993 1.73848 22.7086 5.68657 29.2255C9.63403 35.7423 15.1648 39.5736 20.5151 40.237L1.19938 8.34688Z" fill="#FFB000"/>
<path d="M21.3831 31.7133C20.7395 27.1791 19.1617 22.7401 16.8211 18.8761C12.8538 12.3265 7.20126 8.15337 1.31252 7.42632C0.808038 7.36387 0.349922 7.71689 0.280679 8.2189C-0.715306 15.3917 0.965689 23.2236 4.89275 29.7058C7.5753 34.1362 11.051 37.5093 14.9447 39.4604C15.0783 39.5272 15.2192 39.5587 15.3596 39.5587C15.6996 39.5587 16.0266 39.3714 16.1892 39.0468C16.4186 38.5893 16.2338 38.0317 15.7756 37.8023C12.1954 36.0076 8.98118 32.8756 6.47978 28.7445C5.32923 26.8459 4.38703 24.8248 3.65627 22.7395C7.42754 22.1213 11.7905 24.0483 11.2693 14.7104C12.7147 16.1707 14.0532 17.8863 15.2347 19.8369C17.4474 23.4882 18.9379 27.6848 19.5469 31.9736C19.6192 32.4805 20.0903 32.8298 20.5954 32.7612C21.1024 32.6901 21.4548 32.2208 21.3831 31.7133Z" fill="#33363A"/>
<path d="M73.3134 29.2261C69.366 35.743 63.8352 39.5742 58.4849 40.2376C57.5625 33.589 59.0234 25.8746 62.9721 19.3577C66.9202 12.8396 72.451 9.00839 77.8012 8.34811C78.723 14.993 77.2621 22.7092 73.3134 29.2261Z" fill="#FFD400"/>
<path d="M77.8012 8.34688C78.723 14.993 77.2621 22.7086 73.3134 29.2255C69.366 35.7424 63.8352 39.5736 58.4849 40.237L77.8012 8.34688Z" fill="#FFB000"/>
<path d="M78.7193 8.21952C78.6501 7.71689 78.1895 7.36511 77.6875 7.42694C71.7987 8.15399 66.1455 12.3271 62.1783 18.8768C59.837 22.7426 58.2593 27.1822 57.6169 31.7139C57.5452 32.2209 57.8976 32.6907 58.4046 32.7624C58.9189 32.8329 59.3814 32.4811 59.4531 31.9748C60.0602 27.6879 61.552 23.4913 63.7647 19.8381C64.9462 17.8876 66.2846 16.1719 67.7301 14.7117C67.2083 24.0496 71.5718 22.1225 75.3437 22.7408C74.613 24.8261 73.6708 26.8471 72.5202 28.7457C70.0176 32.878 66.8034 36.01 63.2244 37.8036C62.7662 38.0329 62.5814 38.59 62.8108 39.0481C62.9734 39.3727 63.3004 39.56 63.6404 39.56C63.7802 39.56 63.9217 39.5285 64.0553 39.4617C67.9477 37.5111 71.4235 34.138 74.1072 29.7071C78.0337 23.2255 79.7153 15.3936 78.7193 8.21952Z" fill="#33363A"/>
<path d="M20.3337 58.6022C22.7282 58.6022 24.6694 56.661 24.6694 54.2664C24.6694 51.8719 22.7282 49.9307 20.3337 49.9307C17.9391 49.9307 15.998 51.8719 15.998 54.2664C15.998 56.661 17.9391 58.6022 20.3337 58.6022Z" fill="#FF1A1A"/>
<path d="M24.669 54.2661C24.669 56.6593 22.7278 58.6012 20.3333 58.6012C17.9382 58.6012 15.997 56.6593 15.997 54.2661" fill="#D61D1D"/>
<path d="M58.6661 58.6024C61.061 58.6024 63.0024 56.6609 63.0024 54.2661C63.0024 51.8712 61.061 49.9297 58.6661 49.9297C56.2712 49.9297 54.3297 51.8712 54.3297 54.2661C54.3297 56.6609 56.2712 58.6024 58.6661 58.6024Z" fill="#FF1A1A"/>
<path d="M63.0018 54.2661C63.0018 56.6593 61.0599 58.6012 58.6655 58.6012C56.271 58.6012 54.3291 56.6593 54.3291 54.2661" fill="#D61D1D"/>
<path d="M45.458 49.633C44.9461 49.633 44.5306 50.0484 44.5306 50.5603C44.5306 51.4426 43.8122 52.1603 42.9288 52.1603H42.0286C41.1458 52.1603 40.4274 51.4426 40.4274 50.5603V49.6608C40.4274 49.6156 40.4206 49.5724 40.4144 49.5291L42.3371 48.5671C42.7216 48.3742 42.9238 47.9427 42.8249 47.5241C42.726 47.1056 42.3519 46.8101 41.9223 46.8101H37.0771C36.6474 46.8101 36.2734 47.1062 36.1745 47.5241C36.0756 47.9421 36.2777 48.3742 36.6623 48.5671L38.5844 49.5291C38.5782 49.5724 38.5714 49.6156 38.5714 49.6608V50.5603C38.5714 51.4426 37.8536 52.1603 36.9708 52.1603H36.07C35.1865 52.1603 34.4681 51.4426 34.4681 50.5603C34.4681 50.0484 34.0527 49.633 33.5408 49.633C33.0289 49.633 32.6134 50.0484 32.6134 50.5603C32.6134 52.4651 34.164 54.0151 36.07 54.0151H36.9708C37.9698 54.0151 38.8682 53.5866 39.4994 52.9072C40.1306 53.5866 41.0295 54.0151 42.0286 54.0151H42.9288C44.8348 54.0151 46.3853 52.4651 46.3853 50.5603C46.3853 50.0484 45.9705 49.633 45.458 49.633Z" fill="#33363A"/>
<path d="M29.508 43.3659C29.508 46.1164 27.2792 48.3433 24.5293 48.3433C21.7806 48.3433 19.5519 46.1164 19.5519 43.3659C19.5519 40.6166 21.78 38.3872 24.5293 38.3872C27.2786 38.3872 29.508 40.6166 29.508 43.3659Z" fill="#6D5C4D"/>
<path d="M22.0539 43.7764C23.1742 43.7764 24.0823 42.8682 24.0823 41.7479C24.0823 40.6276 23.1742 39.7195 22.0539 39.7195C20.9336 39.7195 20.0254 40.6276 20.0254 41.7479C20.0254 42.8682 20.9336 43.7764 22.0539 43.7764Z" fill="white"/>
<path d="M24.5293 37.4598C22.5231 37.4598 20.75 38.4675 19.6823 40.0014C19.6174 40.0898 19.5605 40.1825 19.5055 40.2777C18.9509 41.1773 18.6245 42.2332 18.6245 43.3659C18.6245 46.6221 21.273 49.2707 24.5293 49.2707C27.7862 49.2707 30.4354 46.6221 30.4354 43.3659C30.4354 40.109 27.7856 37.4598 24.5293 37.4598ZM24.5293 47.4159C22.8471 47.4159 21.4022 46.3847 20.7908 44.9214C21.2118 44.9102 21.725 44.7965 22.2993 44.6778C22.5194 44.6592 22.7315 44.6178 22.9355 44.5535C23.4356 44.4639 23.971 44.3934 24.5287 44.3934C26.0205 44.3934 27.3559 44.8966 28.2684 44.9214C27.6576 46.3847 26.2122 47.4159 24.5293 47.4159Z" fill="#33363A"/>
<path d="M22.0539 42.8478C22.6613 42.8478 23.1537 42.3554 23.1537 41.7479C23.1537 41.1405 22.6613 40.6481 22.0539 40.6481C21.4464 40.6481 20.954 41.1405 20.954 41.7479C20.954 42.3554 21.4464 42.8478 22.0539 42.8478Z" fill="white"/>
<path d="M59.4469 43.3659C59.4469 46.1164 57.2188 48.3433 54.4695 48.3433C51.7201 48.3433 49.4914 46.1164 49.4914 43.3659C49.4914 40.6166 51.7195 38.3872 54.4695 38.3872C57.2188 38.3872 59.4469 40.6166 59.4469 43.3659Z" fill="#6D5C4D"/>
<path d="M51.994 43.7757C53.114 43.7757 54.0218 42.8679 54.0218 41.7479C54.0218 40.628 53.114 39.7201 51.994 39.7201C50.8741 39.7201 49.9662 40.628 49.9662 41.7479C49.9662 42.8679 50.8741 43.7757 51.994 43.7757Z" fill="white"/>
<path d="M54.4701 37.4598C52.4651 37.4598 50.6926 38.4669 49.6249 39.9995C49.5588 40.0892 49.5007 40.1838 49.4444 40.2808C48.8905 41.1798 48.5646 42.2345 48.5646 43.3659C48.5646 46.6221 51.2138 49.2707 54.4701 49.2707C57.7264 49.2707 60.3749 46.6221 60.3749 43.3659C60.3743 40.109 57.7257 37.4598 54.4701 37.4598ZM54.4701 47.4159C52.7878 47.4159 51.3424 46.3847 50.731 44.9214C51.1569 44.9096 51.675 44.7971 52.2586 44.6759C52.4657 44.6574 52.6654 44.6184 52.8583 44.5591C53.3647 44.4676 53.905 44.3934 54.4701 44.3934C55.9619 44.3934 57.2961 44.8966 58.2086 44.9214C57.5971 46.3847 56.1523 47.4159 54.4701 47.4159Z" fill="#33363A"/>
<path d="M51.9946 42.8478C52.6021 42.8478 53.0945 42.3554 53.0945 41.7479C53.0945 41.1405 52.6021 40.6481 51.9946 40.6481C51.3872 40.6481 50.8948 41.1405 50.8948 41.7479C50.8948 42.3554 51.3872 42.8478 51.9946 42.8478Z" fill="white"/>
</g>
<defs>
<clipPath id="clip0">
<rect width="79" height="79" fill="white"/>
</clipPath>
</defs>
</svg>
