<svg id="Capa_1" enable-background="new 0 0 512 512" height="512" viewBox="0 0 512 512" width="512" xmlns="http://www.w3.org/2000/svg"><g><g><path d="m325.107 401.152v51.669l-69.107 25.839-69.107-25.839v-51.669l69.107-28.708z" fill="#f5c956"/><path d="m100.847 372.444-35.606 28.707v81.56c0 12.032 9.754 21.786 21.786 21.786h27.639c12.032 0 21.786-9.754 21.786-21.786v-81.56z" fill="#fc5c70"/><path d="m411.153 372.444 35.606 28.707v81.56c0 12.032-9.754 21.786-21.786 21.786h-27.639c-12.032 0-21.786-9.754-21.786-21.786v-81.56z" fill="#fc5c70"/><path d="m375.547 401.151v30h71.212v-30l-35.606-28.707z" fill="#f8485e"/><path d="m136.453 431.151v-30l-35.606-28.707-35.606 28.707v30z" fill="#f8485e"/><path d="m65.241 141.086v260.065h381.518v-260.065l-190.759-93.607z" fill="#f9d888"/><path d="m85.655 244.239c0-47.539 12.526-92.007 34.292-129.998l-54.706 26.845v260.064h72.476c-32.593-43.119-52.062-97.63-52.062-156.911z" fill="#f5c956"/><path d="m484.393 120.46-197.725-105.303c-19.171-10.21-42.165-10.21-61.335 0l-197.726 105.303c-12.289 6.545-16.946 21.813-10.401 34.102l13.933 26.161c6.545 12.289 21.813 16.946 34.102 10.401l178.908-95.282c7.408-3.945 16.293-3.945 23.701 0l178.908 95.282c12.289 6.545 27.557 1.888 34.102-10.401l13.933-26.161c6.546-12.289 1.889-27.557-10.4-34.102z" fill="#fc5c70"/><path d="m186.893 452.821v30.984c0 11.43 9.266 20.695 20.695 20.695h96.825c11.43 0 20.695-9.266 20.695-20.695v-30.984z" fill="#f9d888"/><path d="m339.336 258.3s50.828 20.671 50.828 67.495-61.554 43.065-61.554 43.065z" fill="#e7886e"/><path d="m256 188.982c-69.345 0-117.729 70.183-85.139 172.554 7.517 23.613 29.508 39.615 54.289 39.615h61.702c24.781 0 46.771-16.002 54.289-39.615 32.588-102.371-15.796-172.554-85.141-172.554z" fill="#ed9b83"/><path d="m230.625 311.437c0-14.014 11.361-43.61 25.375-43.61s25.375 29.596 25.375 43.61-11.361 25.375-25.375 25.375-25.375-11.361-25.375-25.375z" fill="#ff6f7f"/><path d="m286.413 270.152c.13.911.19 1.831.19 2.762 0 13.891-13.7 25.159-30.603 25.159s-30.603-11.269-30.603-25.159c0-.931.06-1.851.19-2.762z" fill="#f5c956"/><path d="m286.413 270.152c-8.717 2.962-19.165 4.684-30.413 4.684s-21.696-1.721-30.413-4.684c1.661-12.59 14.651-22.387 30.413-22.387s28.752 9.798 30.413 22.387z" fill="#f9d888"/><path d="m283.852 166.966c0 15.382-12.47 47.867-27.852 47.867s-27.852-32.485-27.852-47.867 12.47-27.852 27.852-27.852 27.852 12.469 27.852 27.852z" fill="#fc5c70"/><path d="m205.035 25.967-177.428 94.493c-12.289 6.545-16.946 21.813-10.401 34.102l13.933 26.161c6.545 12.29 21.813 16.946 34.102 10.401l29.457-15.688c17.084-63.473 57.223-116.806 110.337-149.469z" fill="#f8485e"/><path d="m181.8 280.294c0-31.242 12.319-59.82 32.704-81.815-23.474 11.694-41.273 33.736-49.314 63.524-14.128 7.819-43.353 28.284-43.353 63.792 0 35.073 34.534 41.766 51.868 42.916 9.334 19.618 29.267 32.44 51.445 32.44h54.858c-56.723-15.141-98.208-63.515-98.208-120.857z" fill="#e7886e"/></g><g><path d="m397.337 511.997h27.639c16.148 0 29.285-13.137 29.285-29.285v-81.557c0-.003 0-.006 0-.01v-140.778c0-4.142-3.358-7.5-7.5-7.5s-7.5 3.358-7.5 7.5v133.287c-20.674 0-90.261 0-110.954 0 5.901-4.942 10.932-10.954 14.778-17.828 30.885-3.264 54.582-18.876 54.582-50.026 0-37.512-29.172-59.715-44.461-68.771-10.698-36.19-35.156-60.676-65.355-70.568 2.29-7.355 3.508-14.398 3.508-19.486 0-19.493-15.858-35.351-35.351-35.351s-35.351 15.858-35.351 35.351c0 5.089 1.217 12.131 3.508 19.487-30.186 9.888-54.648 34.35-65.355 70.568-15.289 9.055-44.461 31.259-44.461 68.771 0 31.169 23.724 46.765 54.583 50.026 3.846 6.873 8.876 12.885 14.778 17.828-20.693 0-90.28 0-110.954 0v-50.93c0-4.142-3.358-7.5-7.5-7.5s-7.5 3.358-7.5 7.5v58.43 81.557c0 16.148 13.137 29.285 29.285 29.285h27.639c16.148 0 29.285-13.137 29.285-29.285v-74.057h35.439v75.152c0 15.546 12.648 28.195 28.194 28.195h96.822c15.546 0 28.194-12.648 28.194-28.195 0-16.093 0-57.543 0-75.152h35.439v74.057c0 16.147 13.137 29.285 29.284 29.285zm41.925-103.343v74.057c0 7.877-6.409 14.286-14.286 14.286h-27.639c-7.877 0-14.285-6.409-14.285-14.286v-74.057zm-81.586-130.377c12.513 10.104 24.991 25.663 24.991 47.524 0 19.999-13.495 29.952-33.103 33.895 7.804-25.778 11.661-54.392 8.112-81.419zm-101.668-131.653c11.222 0 20.351 9.13 20.351 20.351 0 14.483-12.119 40.366-20.351 40.366-2.389 0-5.936-2.762-9.53-8.091-5.809-8.865-10.822-23.049-10.822-32.275 0-11.221 9.13-20.351 20.352-20.351zm-126.66 179.177c0-21.86 12.478-37.419 24.991-47.524-3.535 26.93.241 55.085 8.112 81.419-19.612-3.945-33.103-13.899-33.103-33.895zm48.657 33.422c-27.832-87.51 5.684-144.322 51.783-158.817 14.864 29.246 37.578 29.252 52.442 0 46.265 14.547 79.561 71.536 51.77 158.861-6.433 20.214-25.149 34.377-47.116 34.388h-61.749c-20.745-.011-40.043-12.797-47.13-34.432zm-49.041 123.488c0 7.877-6.409 14.286-14.286 14.286h-27.638c-7.877 0-14.285-6.409-14.285-14.286v-74.057h56.21v74.057zm188.65-37.388h-123.212v-36.668h123.211v36.668zm0 38.482c0 7.276-5.919 13.195-13.195 13.195h-96.822c-7.276 0-13.195-5.919-13.195-13.195v-23.483h123.211v23.483z"/><path d="m203.77 243.81c-4.142 0-7.5 3.358-7.5 7.5v10.038c0 4.142 3.358 7.5 7.5 7.5s7.5-3.358 7.5-7.5v-10.038c-.001-4.142-3.358-7.5-7.5-7.5z"/><path d="m308.247 268.848c4.142 0 7.5-3.358 7.5-7.5v-10.038c0-4.142-3.358-7.5-7.5-7.5s-7.5 3.358-7.5 7.5v10.038c0 4.142 3.358 7.5 7.5 7.5z"/><path d="m24.534 184.258c6.717 12.615 20.29 18.794 33.221 17.052v111.415c0 4.142 3.357 7.5 7.5 7.5 4.141 0 7.5-3.358 7.5-7.5v-117.089c7.189-3.829 157.364-83.808 174.929-93.162 5.213-2.776 11.436-2.776 16.65 0l174.928 93.162v34.732c0 4.142 3.358 7.5 7.5 7.5s7.5-3.358 7.5-7.5v-29.056c12.959 1.745 26.518-4.466 33.221-17.054l13.932-26.16c8.478-15.919 2.425-35.768-13.495-44.246l-197.72-105.3c-21.41-11.403-46.974-11.403-68.385 0l-197.719 105.3c-15.956 8.498-21.993 28.287-13.494 44.246zm6.614-57.167 197.719-105.3c16.995-9.051 37.288-9.051 54.283 0l197.719 105.3c8.619 4.59 11.897 15.337 7.306 23.956l-13.932 26.16c-4.601 8.639-15.316 11.909-23.956 7.306l-178.903-95.278c-4.814-2.563-10.095-3.846-15.376-3.846-5.104 0-10.539 1.27-15.375 3.846-9.364 4.987-169.1 90.058-178.903 95.279h-.001c-8.639 4.601-19.354 1.333-23.955-7.307l-13.933-26.16c-4.601-8.639-1.334-19.355 7.307-23.956z"/><path d="m288.882 311.443c0-5.077-1.172-11.455-3.246-18.019 20.193-21.397 2.08-53.151-29.628-53.151-31.882 0-49.778 31.799-29.628 53.151-2.074 6.564-3.246 12.942-3.246 18.019 0 18.127 14.747 32.874 32.874 32.874s32.874-14.747 32.874-32.874zm-37.55-21.236c-6.279-1-12.905-4.346-16.26-9.822 12.875 2.497 27.944 2.701 41.871 0-3.755 6.13-14.744 11.571-25.611 9.822zm25.345-25.104c-12.77 2.908-27.902 3.059-41.337 0 8.607-13.063 32.716-13.083 41.337 0zm-20.669 64.214c-9.856 0-17.874-8.018-17.874-17.875 0-2.474.469-5.658 1.306-9.096 10.116 4.176 22.462 4.406 33.137 0 .836 3.439 1.306 6.623 1.306 9.096 0 9.857-8.019 17.875-17.875 17.875z"/></g></g></svg>