<svg id="Capa_1" enable-background="new 0 0 512 512" height="512" viewBox="0 0 512 512" width="512" xmlns="http://www.w3.org/2000/svg"><g><g><path d="m404.975 7.5h-297.95c-27.253 0-49.346 22.093-49.346 49.346v328.844c0 27.253 22.093 49.346 49.346 49.346h297.949c27.253 0 49.346-22.093 49.346-49.346v-328.844c.001-27.253-22.092-49.346-49.345-49.346z" fill="#dadada"/><path d="m270.196 353.199v138.991c0 9.193 9.722 15.134 17.902 10.939l32.725-16.779c4.907-2.516 10.725-2.516 15.632 0l32.725 16.779c8.18 4.194 17.902-1.746 17.902-10.939v-138.991z" fill="#fc5c70"/><path d="m270.196 423.316c4.819 1.453 9.866 2.229 15.011 2.229 1.295 0 2.596-.048 3.898-.146 9.863 11.403 24.322 18.091 39.534 18.091s29.671-6.688 39.534-18.09c1.299.097 2.6.146 3.895.146h.004c5.144 0 10.191-.776 15.009-2.229v-70.117h-116.885z" fill="#f8485e"/><path d="m402.928 311.858c-6.867-4.931-10.345-13.328-8.978-21.67l.003-.021c2.461-15.015-10.538-28.014-25.553-25.553l-.021.003c-8.342 1.367-16.739-2.111-21.669-8.978-8.877-12.361-27.265-12.361-36.142 0-4.931 6.867-13.327 10.345-21.67 8.978l-.021-.003c-15.015-2.461-28.015 10.538-25.553 25.553l.004.022c1.367 8.342-2.111 16.739-8.978 21.669-12.361 8.877-12.361 27.265 0 36.142 6.867 4.931 10.345 13.327 8.978 21.67l-.003.021c-2.461 15.015 10.538 28.014 25.553 25.553l.022-.004c8.342-1.367 16.739 2.111 21.669 8.978 8.876 12.361 27.265 12.361 36.142 0 4.931-6.867 13.327-10.345 21.67-8.978l.021.003c15.015 2.461 28.015-10.538 25.553-25.553l-.004-.021c-1.367-8.342 2.111-16.739 8.978-21.669 12.36-8.877 12.36-27.266-.001-36.142z" fill="#f5c956"/><g fill="#64d1e1"><ellipse cx="223.502" cy="61.971" rx="17.933" ry="23.88"/><ellipse cx="165.102" cy="97.191" rx="17.933" ry="23.88"/><ellipse cx="288.498" cy="61.971" rx="17.933" ry="23.88"/><ellipse cx="346.898" cy="97.191" rx="17.933" ry="23.88"/><path d="m310.937 138.096c-26.093 0-24.791-25.591-54.937-25.591s-28.845 25.591-54.937 25.591c-20.319 0-43.092 33.833-24.549 64.629 18.544 30.797 48.473 9.543 79.486 9.543s60.942 21.254 79.486-9.543c18.544-30.796-4.23-64.629-24.549-64.629z"/></g><path d="m85.882 204.593c0-76.273 24.819-145.603 65.31-197.093h-44.166c-27.253 0-49.346 22.093-49.346 49.346v328.845c0 27.253 22.093 49.346 49.346 49.346h75.339c-58.575-52.475-96.483-136.163-96.483-230.444z" fill="#ccccca"/></g><g><path d="m223.503 93.349c14.023 0 25.432-14.076 25.432-31.379 0-17.302-11.409-31.379-25.432-31.379s-25.432 14.076-25.432 31.379c0 17.302 11.409 31.379 25.432 31.379zm0-47.759c5.557 0 10.432 7.654 10.432 16.379s-4.875 16.38-10.432 16.38-10.432-7.654-10.432-16.38 4.875-16.379 10.432-16.379z"/><path d="m190.536 97.188c0-17.302-11.409-31.379-25.432-31.379s-25.432 14.076-25.432 31.379 11.409 31.379 25.432 31.379c14.023.001 25.432-14.076 25.432-31.379zm-35.864 0c0-8.725 4.875-16.379 10.432-16.379s10.432 7.654 10.432 16.379-4.875 16.38-10.432 16.38-10.432-7.654-10.432-16.38z"/><path d="m313.929 61.969c0-17.302-11.409-31.379-25.432-31.379s-25.432 14.076-25.432 31.379 11.408 31.379 25.432 31.379c14.023.001 25.432-14.076 25.432-31.379zm-35.864 0c0-8.725 4.875-16.379 10.432-16.379 5.558 0 10.432 7.654 10.432 16.379s-4.875 16.38-10.432 16.38-10.432-7.654-10.432-16.38z"/><path d="m372.328 97.188c0-17.302-11.409-31.379-25.432-31.379s-25.432 14.076-25.432 31.379 11.409 31.379 25.432 31.379 25.432-14.076 25.432-31.379zm-25.432 16.38c-5.557 0-10.432-7.654-10.432-16.38s4.875-16.379 10.432-16.379 10.432 7.654 10.432 16.379-4.874 16.38-10.432 16.38z"/><path d="m281.974 223.399c8.078 1.689 16.575 3.466 24.867 3.466 12.996 0 25.489-4.366 35.069-20.275 21.341-35.443-4.372-75.996-30.973-75.996-9.565 0-13.958-4.204-20.039-10.022-7.249-6.936-16.271-15.569-34.897-15.569s-27.648 8.633-34.897 15.569c-6.08 5.818-10.474 10.022-20.039 10.022-26.585 0-52.328 40.53-30.973 75.996 15.693 26.061 39.197 21.146 59.936 16.809 23.192-4.851 28.78-4.845 51.946 0zm-99.033-24.547c-15.299-25.407 3.348-53.259 18.123-53.259 15.586 0 23.461-7.536 30.409-14.184 6.661-6.373 11.921-11.407 24.527-11.407s17.867 5.034 24.527 11.407c6.948 6.648 14.823 14.184 30.409 14.184 14.745 0 33.462 27.785 18.123 53.259-9.743 16.183-21.793 14.511-44.015 9.865-25.203-5.27-32.784-5.291-58.088 0-22.222 4.646-34.271 6.318-44.015-9.865z"/><path d="m205.571 254.253h-89.554c-4.142 0-7.5 3.358-7.5 7.5s3.358 7.5 7.5 7.5h89.554c4.142 0 7.5-3.358 7.5-7.5s-3.358-7.5-7.5-7.5z"/><path d="m205.571 289.326h-89.554c-4.142 0-7.5 3.358-7.5 7.5s3.358 7.5 7.5 7.5h89.554c4.142 0 7.5-3.358 7.5-7.5s-3.358-7.5-7.5-7.5z"/><path d="m205.571 382.137h-89.554c-4.142 0-7.5 3.358-7.5 7.5s3.358 7.5 7.5 7.5h89.554c4.142 0 7.5-3.358 7.5-7.5s-3.358-7.5-7.5-7.5z"/><path d="m107.029 442.528h155.667v49.652c0 14.817 15.667 24.358 28.824 17.612l32.724-16.778c2.752-1.411 6.037-1.411 8.788 0l32.724 16.778c13.185 6.761 28.824-2.827 28.824-17.612v-49.652h10.393c31.345 0 56.845-25.5 56.845-56.845v-229.456c0-4.142-3.358-7.5-7.5-7.5s-7.5 3.358-7.5 7.5v229.456c0 23.074-18.772 41.845-41.845 41.845h-10.393v-34.894c5.751-6.674 8.217-15.355 6.77-24.186-.913-5.569 1.368-11.073 5.951-14.364 16.55-11.884 16.545-36.444 0-48.325-4.583-3.291-6.864-8.796-5.947-14.385 3.277-19.993-13.965-37.478-34.189-34.164-5.567.914-11.073-1.368-14.364-5.952-11.867-16.526-36.443-16.543-48.325 0-3.291 4.584-8.794 6.864-14.384 5.948-20.1-3.295-37.462 14.069-34.168 34.167.921 5.374-1.239 11.005-5.948 14.386-16.55 11.884-16.544 36.443 0 48.325 4.584 3.291 6.864 8.796 5.948 14.385-1.444 8.811 1.022 17.491 6.773 24.165v34.894h-155.668c-23.074 0-41.846-18.772-41.846-41.845v-66.324c0-4.142-3.358-7.5-7.5-7.5s-7.5 3.358-7.5 7.5v66.324c0 31.344 25.501 56.845 56.846 56.845zm272.55 49.652c0 3.587-3.792 5.9-6.98 4.265l-32.724-16.778c-7.036-3.608-15.437-3.608-22.476 0l-32.724 16.778c-3.177 1.63-6.98-.668-6.98-4.265 0-6.184 0-76.09 0-90.099 3.871 1.012 8.203 1.241 12.415.552 5.556-.911 11.063 1.356 14.364 5.951 11.84 16.493 36.428 16.573 48.325 0 3.254-4.53 8.737-6.872 14.383-5.948 3.932.56 7.928.616 12.397-.554v32.946zm-120.856-150.28c-8.203-5.892-8.202-18.067 0-23.958 9.245-6.639 13.845-17.741 12.005-28.974-1.67-9.743 6.79-18.624 16.956-16.957 11.233 1.841 22.335-2.758 28.974-12.004 5.893-8.205 18.067-8.202 23.958 0 6.639 9.246 17.741 13.845 28.995 12.001 9.931-1.629 18.578 6.937 16.935 16.959-1.841 11.233 2.758 22.335 12.004 28.975 8.219 5.902 8.185 18.079 0 23.958-9.245 6.639-13.845 17.741-12.001 28.995 1.65 10.06-7.092 18.556-16.959 16.935-11.149-1.827-22.302 2.713-28.975 12.005-5.927 8.254-18.101 8.153-23.957 0-5.762-8.026-15.31-12.979-25.949-12.326-3.231.203-8.495 1.887-14.229-2.406-4.641-3.481-6.628-8.889-5.752-14.228 1.841-11.233-2.758-22.336-12.005-28.975z"/><path d="m57.683 296.859c4.142 0 7.5-3.358 7.5-7.5v-232.514c0-23.074 18.772-41.845 41.846-41.845h297.943c23.074 0 41.845 18.772 41.845 41.845v69.383c0 4.142 3.358 7.5 7.5 7.5s7.5-3.358 7.5-7.5v-69.383c0-31.345-25.501-56.845-56.845-56.845h-297.943c-31.345 0-56.846 25.5-56.846 56.845v232.514c0 4.142 3.358 7.5 7.5 7.5z"/></g></g></svg>