<svg id="Capa_1" enable-background="new 0 0 512 512" height="512" viewBox="0 0 512 512" width="512" xmlns="http://www.w3.org/2000/svg"><g><g><path d="m391.718 351.991h-271.436c-20.367 36.305-34.66 93.271 32.701 140.125 11.707 8.143 25.687 12.384 39.947 12.384h126.14c14.26 0 28.241-4.241 39.947-12.384 67.361-46.854 53.068-103.82 32.701-140.125z" fill="#ffb25a"/><path d="m140.437 416.827c0-23.563 6.92-45.681 19.032-64.835h-39.188c-20.367 36.305-34.66 93.271 32.701 140.125 6.905 4.803 14.605 8.237 22.684 10.256-21.966-23.053-35.229-52.915-35.229-85.546z" fill="#ff9c20"/><path d="m391.718 351.991c-32.226 22.471-81.062 28.322-135.718 28.322s-103.492-5.851-135.718-28.322c12.324-21.969 26.867-36.371 26.867-36.371h217.703s14.542 14.402 26.866 36.371z" fill="#fc5c70"/><path d="m92.271 7.676c-12.567.501-23.406 8.97-27.105 20.991-8.925 29.004-18.342 86.821 19.343 147.509l124.401-130.879s-37.021-40.795-116.639-37.621z" fill="#ff8f00"/><path d="m186.913 71.914s.138.164.428.46c-1.204-1.23-26.888-26.738-82.257-26.738-.012 0-.023 0-.035 0-2.066 0-3.857 1.417-4.366 3.419-6.175 24.31-10.115 66.839 17.681 111.601z" fill="#ffbfc5"/><path d="m419.729 7.676c12.567.501 23.406 8.97 27.105 20.991 8.925 29.004 18.342 86.821-19.343 147.509l-124.401-130.879s37.021-40.795 116.639-37.621z" fill="#ff9c20"/><path d="m325.087 71.914s-.138.164-.428.46c1.204-1.23 26.888-26.738 82.257-26.738h.035c2.066 0 3.857 1.417 4.366 3.419 6.175 24.31 10.115 66.839-17.681 111.601z" fill="#ffbfc5"/><path d="m193.323 315.62h-46.174s-14.542 14.402-26.867 36.371c9.075 6.328 19.468 11.337 30.937 15.27 9.153-20.17 23.723-37.861 42.104-51.641z" fill="#f8485e"/><path d="m426.313 254.179c-19.319 62.756-88.247 75.953-170.313 75.953s-150.993-13.198-170.313-75.953l150.532-214.17c6.493-.733 13.097-1.104 19.781-1.104s13.288.371 19.781 1.104z" fill="#fde9b6"/><path d="m126.074 204.895c0-2.847.081-5.676.221-8.491l-40.608 57.775c12.937 42.022 48.119 61.821 94.593 70.318-33.631-29.758-54.206-70.897-54.206-119.602z" fill="#f9d888"/><path d="m85.687 254.179c-3.533-11.451-5.409-24.568-5.409-39.552 0-90.365 68.205-164.793 155.941-174.618 0 0 30.67 214.17-150.532 214.17z" fill="#ffb25a"/><path d="m431.722 214.627c0 14.984-1.877 28.101-5.409 39.552-181.202 0-150.532-214.171-150.532-214.171 87.736 9.826 155.941 84.254 155.941 174.619z" fill="#ffb25a"/><circle cx="256" cy="380.313" fill="#f9d888" r="24.099"/><path d="m126.074 204.895c0-71.829 44.732-134.111 110.136-164.886-87.732 9.829-155.933 84.255-155.933 174.617 0 14.984 1.877 28.101 5.409 39.552 17.307 0 32.675-1.959 46.328-5.494-3.871-13.762-5.94-28.394-5.94-43.789z" fill="#ff9c20"/></g><g><path d="m263.583 240.982c0-4.142-3.358-7.5-7.5-7.5s-7.5 3.358-7.5 7.5c0 6.699-5.45 12.149-12.149 12.149s-12.149-5.45-12.149-12.149c0-4.142-3.358-7.5-7.5-7.5s-7.5 3.358-7.5 7.5c0 24.439 29.95 36.397 46.798 18.705 16.844 17.687 46.798 5.744 46.798-18.705 0-4.142-3.358-7.5-7.5-7.5s-7.5 3.358-7.5 7.5c0 6.699-5.45 12.149-12.149 12.149s-12.149-5.45-12.149-12.149z"/><path d="m159.256 180.159c-4.142 0-7.5 3.358-7.5 7.5v19.7c0 4.142 3.358 7.5 7.5 7.5s7.5-3.358 7.5-7.5v-19.7c0-4.142-3.358-7.5-7.5-7.5z"/><path d="m352.414 180.159c-4.142 0-7.5 3.358-7.5 7.5v19.7c0 4.142 3.358 7.5 7.5 7.5s7.5-3.358 7.5-7.5v-19.7c0-4.142-3.357-7.5-7.5-7.5z"/><path d="m236.174 213.304c0 6.245 8.855 11.308 19.779 11.308s19.779-5.063 19.779-11.308c0-6.246-8.855-6.308-19.779-6.308s-19.779.062-19.779 6.308z"/><path d="m56.959 83.814c4.147.132 7.603-3.117 7.735-7.257.616-19.363 4.47-35.53 7.594-45.682 2.776-9.02 10.907-15.331 20.235-15.703 43.399-1.73 78.28 10.241 101.234 27.072-7.827 2.832-15.442 6.178-22.909 10.1-13.842-6.873-35.673-14.206-65.847-14.206-5.493.001-10.276 3.732-11.633 9.073-4.744 18.675-8.208 47.48 1.562 79.968-5.268 9.692-9.556 19.692-12.795 29.394-8.114-16.452-13.455-33.676-15.925-51.405-.572-4.102-4.362-6.965-8.463-6.393-4.103.572-6.965 4.361-6.394 8.463 3.421 24.559 11.893 48.187 25.163 70.288-9.46 45.879 1.912 78.525 1.956 78.861 8.757 28.446 27.115 48.84 55.957 62.09-23.19 27.517-41.596 64.058-38.209 100.319 2.851 30.52 20.492 57.26 52.433 79.477 12.91 8.98 28.205 13.728 44.23 13.728h14.596.001.001 96.942.002.003 14.594c16.025 0 31.319-4.747 44.23-13.727 23.283-16.195 39.079-34.965 46.95-55.787 1.464-3.874-.489-8.203-4.364-9.667-3.876-1.464-8.203.489-9.667 4.364-6.779 17.934-20.736 34.345-41.484 48.777-10.275 7.147-22.457 10.954-35.255 11.034 9.794-14.607 18.575-33.748 18.575-55.447 0-4.142-3.358-7.5-7.5-7.5s-7.5 3.358-7.5 7.5c0 22.425-11.566 42.127-22.142 55.454h-37.411v-55.454c0-4.142-3.358-7.5-7.5-7.5s-7.5 3.358-7.5 7.5v55.452h-37.412c-10.576-13.327-22.142-33.029-22.142-55.454 0-4.142-3.358-7.5-7.5-7.5s-7.5 3.358-7.5 7.5c0 21.699 8.781 40.84 18.574 55.447-12.798-.08-24.981-3.887-35.256-11.034-28.145-19.577-43.643-42.643-46.063-68.558-1.605-17.181 2.395-35.548 11.894-54.69 29.475 17.382 67.755 22.659 102.036 24.379 3.102 14.161 15.788 24.823 30.868 24.823 14.949 0 27.742-10.525 30.868-24.823 33.803-1.699 72.977-7.052 102.035-24.379 8.19 16.519 12.3 32.528 12.228 47.683-.02 4.142 3.323 7.516 7.465 7.535 4.111.021 7.516-3.323 7.535-7.465.156-33.441-17.291-66.692-38.608-91.988 47.474-21.81 53.959-58.49 55.956-62.086 7.477-24.243 7.145-53.694 1.961-78.848 37.378-62.224 27.75-121.219 18.561-151.08-4.645-15.093-18.298-25.654-33.974-26.279-69.566-2.773-108.03 26.656-119.126 36.776-28.929-7.293-59.938-7.529-89.802 0-11.096-10.119-49.559-39.549-119.127-36.775-15.676.625-29.329 11.185-33.974 26.279-4.937 16.043-7.712 32.737-8.249 49.616-.132 4.14 3.117 7.603 7.257 7.735zm172.571-35.345c6.403 73.88-12.402 158.463-81.973 187.114-17.808 7.344-37.061 10.498-56.241 11.014-2.381-9.603-3.585-20.329-3.585-31.968 0-84.05 61.706-153.583 141.799-166.16zm-122.174 4.684c20.16.276 35.952 4.116 47.598 8.583-18.793 12.404-35.55 28.574-48.962 47.603-4.238-22.4-1.954-42.122 1.364-56.186zm255.338 271.187c4.106 4.574 11.597 13.512 18.858 25.253-26.943 16.13-63.906 20.914-95.093 22.491-3.72-13.774-16.294-23.37-30.506-23.37-14.098 0-26.762 9.51-30.505 23.371-31.506-1.622-68.014-6.313-95.094-22.491 7.261-11.742 14.752-20.68 18.858-25.253 32.25 11.051 72.846 13.293 106.741 13.293 34.072-.001 74.623-2.282 106.741-13.294zm-106.741 72.573c-9.16 0-16.599-7.504-16.598-16.6l.002-.063c.037-9.158 7.588-16.537 16.596-16.537 8.768 0 16.255 7.019 16.57 16.02.326 9.493-7.274 17.18-16.57 17.18zm26.43-348.443c36.333 5.707 69.901 23.394 95.399 50.168 39.862 41.856 54.11 102.361 42.808 147.959-106.827-2.885-147.313-91.914-138.207-198.127zm74.569 13.267c11.642-4.465 27.429-8.304 47.598-8.583 3.317 14.064 5.601 33.786 1.364 56.186-12.94-18.435-29.226-34.446-48.962-47.603zm-38.803-19.493c22.951-16.832 57.84-28.803 101.234-27.073 9.328.372 17.459 6.682 20.235 15.702 7.794 25.327 15.93 73.453-9.846 125.702-3.183-9.534-7.574-19.782-12.796-29.397 9.769-32.489 6.305-61.293 1.561-79.968-1.356-5.34-6.14-9.071-11.669-9.073-30.142 0-51.97 7.333-65.81 14.206-7.552-3.967-15.464-7.427-22.909-10.099zm-50.718 4.548c-10.428 113.085 35.18 209.366 148.193 214.642-18.452 42.772-67.123 61.2-159.672 61.2s-141.22-18.428-159.672-61.2c27.505-1.284 54.596-7.842 78.164-22.91 60.148-38.423 76.507-121.279 70.018-191.731 7.617-.514 15.352-.514 22.969-.001z"/></g></g></svg>