<svg id="Capa_1" enable-background="new 0 0 512 512" height="512" viewBox="0 0 512 512" width="512" xmlns="http://www.w3.org/2000/svg"><g><g><path d="m433.702 270.574-34.459-6c-13.313 17.064-16.651 35.252-19.417 50.307-4.346 23.696-6.935 41.266-56.595 61.78-14.491 5.979-21.398 22.582-15.409 37.075 5.993 14.517 22.608 21.384 37.085 15.412 91.743-37.896 85.85-90.461 93.871-118.408z" fill="#5c586f"/><path d="m332.873 350.735h-226.018c-18.359 33.062-30.634 83.402 13.924 136.644 9.112 10.887 22.63 17.12 36.828 17.12h124.513c14.197 0 27.716-6.233 36.828-17.12 44.559-53.242 32.283-103.582 13.925-136.644z" fill="#6a647f"/><path d="m416.91 40.047c-1.779-10.492-8.851-19.275-18.723-23.251-41.565-16.742-90.706-11.13-128.089 18.971l100.954 125.375c37.384-30.103 53.348-76.916 45.858-121.095z" fill="#5c586f"/><path d="m344.677 137.499c25.714-20.704 38.077-52.778 33.552-84.677-10.403-3.867-21.258-5.781-32.065-5.781-20.564 0-40.966 6.925-57.821 20.498z" fill="#ffbfc5"/><path d="m22.818 40.047c1.779-10.492 8.851-19.275 18.723-23.251 41.565-16.742 90.706-11.13 128.089 18.971l-100.955 125.374c-37.383-30.102-53.347-76.915-45.857-121.094z" fill="#4f4c5f"/><path d="m95.051 137.499c-25.714-20.704-38.077-52.778-33.552-84.677 10.403-3.867 21.258-5.781 32.065-5.781 20.564 0 40.966 6.925 57.821 20.498z" fill="#ffbfc5"/><path d="m119.438 421.78c0-26.014 7.941-50.333 21.727-71.045h-34.31c-18.359 33.062-30.634 83.401 13.924 136.644 7.303 8.726 17.438 14.452 28.483 16.385-18.73-22.854-29.824-51.235-29.824-81.984z" fill="#5c586f"/><path d="m332.873 350.735c-31.802 18.437-70.83 29.302-113.009 29.302s-81.207-10.865-113.009-29.302c13.457-24.24 30.186-39.191 30.186-39.191h165.646c0 .001 16.729 14.951 30.186 39.191z" fill="#64d1e1"/><path d="m180.409 311.545h-43.368s-16.729 14.951-30.186 39.191c8.417 4.879 17.344 9.222 26.698 12.98 10.66-20.767 26.855-38.686 46.856-52.171z" fill="#00c8de"/><circle cx="219.864" cy="179.221" fill="#6a647f" r="156.094"/><path d="m231.032 163.984h-19.144c-32.184 0-58.275 26.09-58.275 58.275 0 32.184 26.09 58.275 58.275 58.275h19.144c32.184 0 58.275-26.09 58.275-58.275-.001-32.185-26.091-58.275-58.275-58.275z" fill="#fff"/><circle cx="219.864" cy="384.102" fill="#f9d888" r="21.36"/><path d="m489.218 245.656c-5.421-14.714-21.752-22.239-36.459-16.806-26.801 9.898-43.176 22.472-53.515 35.723l39.535 46.167c1.086-3.804 2.43-7.158 4.322-9.949 4.751-7.029 14.345-13.141 29.319-18.664 14.707-5.433 22.232-21.763 16.798-36.471z" fill="#dadada"/><path d="m108.855 182.744c0-58.797 21.78-111.924 56.839-149.957-59.506 22.022-101.924 79.272-101.924 146.434 0 66.615 41.734 123.474 100.479 145.883-34.214-34.91-55.394-84.371-55.394-142.36z" fill="#5c586f"/></g><g><path d="m137.012 182.052c4.142 0 7.5-3.358 7.5-7.5v-16.18c0-4.142-3.358-7.5-7.5-7.5s-7.5 3.358-7.5 7.5v16.18c0 4.142 3.358 7.5 7.5 7.5z"/><path d="m305.418 182.052c4.142 0 7.5-3.358 7.5-7.5v-16.18c0-4.142-3.358-7.5-7.5-7.5s-7.5 3.358-7.5 7.5v16.18c0 4.142 3.358 7.5 7.5 7.5z"/><path d="m211.858 288.03h19.144c36.269 0 65.776-29.507 65.776-65.776s-29.507-65.775-65.776-65.775h-19.144c-36.269 0-65.775 29.507-65.775 65.776s29.507 65.775 65.775 65.775zm0-116.551h19.144c27.998 0 50.776 22.778 50.776 50.776 0 27.997-22.778 50.775-50.776 50.775h-19.144c-27.997 0-50.775-22.778-50.775-50.776 0-27.997 22.778-50.775 50.775-50.775z"/><path d="m205.482 219.328c6.163 0 11.776-2.392 15.968-6.292 4.192 3.899 9.805 6.292 15.968 6.292 12.941 0 23.469-10.528 23.469-23.469 0-4.142-3.358-7.5-7.5-7.5s-7.5 3.358-7.5 7.5c0 4.669-3.799 8.468-8.468 8.468s-8.468-3.799-8.468-8.468c0-4.142-3.358-7.5-7.5-7.5s-7.5 3.358-7.5 7.5c0 4.669-3.799 8.468-8.468 8.468s-8.468-3.799-8.468-8.468c0-4.142-3.358-7.5-7.5-7.5s-7.5 3.358-7.5 7.5c-.002 12.941 10.526 23.469 23.467 23.469z"/><path d="m57.235 161.203c-6.715 61.025 20.922 117.967 68.065 151.461-6.413 6.886-16.346 18.781-25.033 34.428-15.571 28.041-20.848 56.28-15.684 83.93.76 4.072 4.676 6.757 8.75 5.996 4.072-.76 6.756-4.678 5.996-8.75-4.105-21.98-.546-44.57 10.579-67.25 24.188 12.821 51.955 21.436 81.12 24.847.91 14.991 13.396 27.096 28.807 27.096 15.101 0 27.875-11.775 28.807-27.096 28.858-3.367 56.87-11.991 81.118-24.846 19.753 40.326 16.473 82.039-16.591 121.546-7.677 9.174-19.004 14.435-31.077 14.435h-10.842c16.338-25.029 17.315-49.46 17.352-50.653.127-4.132-3.113-7.577-7.245-7.716-4.144-.138-7.597 3.102-7.748 7.233-.01.279-1.223 27.223-20.943 51.136h-25.331v-50.884c0-4.142-3.358-7.5-7.5-7.5s-7.5 3.358-7.5 7.5v50.884h-25.331c-19.671-23.855-20.926-50.725-20.942-51.133-.138-4.132-3.593-7.377-7.728-7.247-4.14.128-7.393 3.587-7.265 7.728.037 1.193 1.014 25.624 17.351 50.653h-10.842c-12.073 0-23.4-5.261-31.077-14.434-7.585-9.063-13.757-18.443-18.344-27.88-1.811-3.725-6.298-5.277-10.025-3.466-3.725 1.811-5.277 6.299-3.466 10.025 5.122 10.535 11.963 20.948 20.332 30.948 10.534 12.587 26.054 19.806 42.579 19.806h124.515c16.525 0 32.045-7.219 42.58-19.807 15.733-18.799 25.771-38.599 30.001-59.091 99.666-44.294 81.359-108.554 94.615-128.113 3.793-5.611 12.44-10.936 25.704-15.828 8.993-3.322 16.155-9.948 20.166-18.656 13.301-28.874-15.095-59.75-45.024-48.694-25.585 9.449-44.174 21.926-56.829 38.144 0 0-.001.001-.002.002-13.551 17.368-17.427 34.774-21.055 54.518-3.216 17.57-5.447 29.712-27.488 43.194-7.749-16.799-18.595-32.339-30.391-45.004 47.144-33.495 74.783-90.441 68.066-151.462 33.755-30.997 49.544-76.994 41.843-122.416-2.23-13.148-10.945-23.972-23.315-28.955-11.005-4.432-22.606-7.406-34.481-8.839-4.118-.497-7.849 2.435-8.345 6.547-.497 4.112 2.435 7.849 6.547 8.345 10.569 1.276 20.89 3.921 30.674 7.861 7.497 3.021 12.78 9.581 14.131 17.549 6.143 36.236-4.464 73.943-30.082 101.762-1.852-8.193-4.492-16.707-7.77-24.856 12.318-19.781 17.286-43.208 13.991-66.436-.387-2.724-2.233-5.018-4.813-5.977-21.742-8.081-45.458-8.344-67.313-.707-7.501-5.247-15.437-9.864-23.728-13.79 14.327-8.333 30.281-13.644 46.808-15.516 4.116-.466 7.075-4.18 6.608-8.296-.466-4.116-4.182-7.075-8.296-6.608-22.339 2.529-43.743 10.648-62.161 23.532-34.172-11.708-71.599-11.717-105.796 0-38.837-27.17-87.238-31.082-128.23-14.572-12.37 4.983-21.086 15.808-23.315 28.955-7.689 45.353 8.04 91.377 41.843 122.417zm18.692-59.838c-6.232-13.356-8.856-28.149-7.551-42.988 14.154-4.424 29.109-5.003 43.269-1.871-13.855 12.221-26.262 27.408-35.718 44.859zm143.908 268.875c7.433 0 13.86 6.42 13.86 13.861 0 7.642-6.217 13.86-13.86 13.86s-13.86-6.218-13.86-13.86c0-.014.002-.027.002-.041.026-7.671 6.29-13.82 13.858-13.82zm235.497-134.358c17.488-6.46 33.923 11.587 26.202 28.347-2.335 5.07-6.504 8.927-11.736 10.86-11.94 4.403-26.076 11.142-33.091 21.73l-27.643-32.281c10.776-11.756 25.981-21.164 46.268-28.656zm-55.457 40.988 30.637 35.776c-6.44 27.323-4.883 69.192-73.646 102.885.657-15.02-1.748-29.803-6.467-43.765 48.136-28.348 27.569-58.066 49.476-94.896zm-98.329 44.092c4.736 4.906 13.076 14.303 20.924 26.923-24.281 12.818-49.918 20.103-76.867 23.224-4.722-9.443-14.565-15.86-25.75-15.869-.006 0-.011 0-.017 0-.007 0-.013 0-.02 0-11.234.009-21.043 6.461-25.747 15.869-26.539-3.074-52.488-10.336-76.868-23.225 7.85-12.622 16.189-22.019 20.923-26.923 23.823 13.758 51.981 21.851 81.712 21.851 28.633.001 56.975-7.565 81.71-21.85zm69.748-262.585c1.305 14.839-1.319 29.632-7.551 42.988-8.916-16.455-21.056-31.914-35.719-44.859 5.928-1.31 29.094-2.56 43.27 1.871zm-2.863 120.839c0 82.201-66.867 148.596-148.597 148.596-103.466 0-174.955-103.332-139.475-199.87 20.928-56.747 75.551-97.322 139.476-97.322 82.379 0 148.596 67.117 148.596 148.596zm-338.25-137.922c1.351-7.968 6.633-14.528 14.131-17.548 33.437-13.469 72.495-11.708 105.584 7.543-8.292 3.927-16.228 8.543-23.73 13.79-21.806-7.62-45.525-7.391-67.312.707-2.579.959-4.426 3.252-4.813 5.977-3.295 23.228 1.673 46.655 13.991 66.436-3.31 8.227-5.949 16.783-7.77 24.856-25.601-27.801-36.228-65.501-30.081-101.761z"/></g></g></svg>