<svg id="Capa_1" enable-background="new 0 0 512 512" height="512" viewBox="0 0 512 512" width="512" xmlns="http://www.w3.org/2000/svg"><g><g><path d="m360.76 326.483s98.316 107.771-8.184 148.932l-20.232-28.661v-120.27h28.416z" fill="#e7886e"/><path d="m151.24 326.483s-98.316 107.771 8.184 148.932l20.232-28.661v-120.27h-28.416z" fill="#e7886e"/><path d="m256 308.792c-57.428 0-103.982 46.554-103.982 103.982s46.555 74.663 103.982 74.663 103.982-17.236 103.982-74.663-46.554-103.982-103.982-103.982z" fill="#ed9b83"/><path d="m318.567 504.5c22.987 0 41.623-19.522 41.623-43.605s-18.635-32.52-41.623-32.52-41.623 8.438-41.623 32.52 18.635 43.605 41.623 43.605z" fill="#f0ac99"/><path d="m193.434 504.5c-22.987 0-41.623-19.522-41.623-43.605s18.635-32.52 41.623-32.52 41.623 8.438 41.623 32.52-18.636 43.605-41.623 43.605z" fill="#f0ac99"/><path d="m149.945 293.197v20.214c0 28.376 17.919 53.847 44.812 62.899 15.257 5.135 35.263 8.833 61.243 8.833 25.407 0 45.1-3.536 60.226-8.495 27.342-8.964 45.83-34.472 45.83-63.246v-20.205z" fill="#a19dae"/><circle cx="81.999" cy="183.036" fill="#f3bdae" r="55.271"/><circle cx="430.001" cy="183.036" fill="#f7cec4" r="55.271"/><path d="m182.494 338.772v31.932c3.831 2.255 7.928 4.146 12.263 5.605 15.257 5.135 35.263 8.833 61.243 8.833 25.407 0 45.1-3.537 60.225-8.496 4.708-1.543 9.146-3.588 13.279-6.044v-31.831c0-20.802-13.104-38.592-31.487-45.575h-84.037c-18.382 6.983-31.486 24.774-31.486 45.576z" fill="#938ea3"/><ellipse cx="256" cy="172.578" fill="#ed9b83" rx="174.001" ry="165.078"/><path d="m367.253 115.792c-16.085-27.122-49.807-37.987-78.327-24.536-3.446 1.625-6.871 3.489-10.233 5.625-13.871 8.812-31.513 8.812-45.384 0-3.787-2.406-7.654-4.467-11.54-6.23-27.671-12.553-60.372-2.113-76.22 23.812-10.492 17.164-16.489 37-16.489 58.115 0 65.076 56.946 118.019 126.942 118.019s126.942-52.943 126.942-118.019c-.002-20.572-5.695-39.93-15.691-56.786z" fill="#f7cec4"/><g fill="#ff8997"><ellipse cx="176.345" cy="188.484" rx="29.391" ry="23.406"/><ellipse cx="335.655" cy="188.484" rx="29.391" ry="23.406"/></g><path d="m280.767 315.033h-49.533c-13.111 0-23.739 10.628-23.739 23.739v39.1c0 13.111 10.628 23.739 23.739 23.739h49.533c13.111 0 23.739-10.628 23.739-23.739v-39.1c0-13.111-10.629-23.739-23.739-23.739z" fill="#c7c5cb"/><path d="m116.058 170.594c0-68.35 40.509-127.862 100.339-158.796-77.016 17.008-134.398 82.535-134.398 160.78 0 74.712 52.321 137.821 124.095 158.175-54.131-35.162-90.036-95.808-90.036-160.159z" fill="#e7886e"/></g><g><path d="m121.559 172.578c0 69.211 60.311 125.519 134.442 125.519s134.442-56.308 134.442-125.519c0-21.188-5.788-42.148-16.739-60.613-18.226-30.733-56.045-42.553-87.977-27.494-3.832 1.808-7.551 3.853-11.055 6.078-11.342 7.205-25.999 7.205-37.341 0-3.929-2.496-8.122-4.76-12.463-6.729-30.964-14.047-67.815-2.556-85.718 26.731-11.509 18.825-17.591 40.274-17.591 62.027zm30.388-54.203c9.955-16.285 27.396-25.523 45.318-25.523 9.844 0 19.818 2.606 32.022 10.36 16.227 10.308 37.198 10.309 53.427 0 2.977-1.891 6.144-3.632 9.411-5.173 24.895-11.741 54.418-2.464 68.677 21.578 9.578 16.15 14.641 34.463 14.641 52.961 0 60.94-53.582 110.519-119.442 110.519s-119.442-49.579-119.442-110.519c0-18.991 5.321-37.734 15.388-54.203z"/><path d="m225.193 200.96c3.402 2.366 8.074 1.526 10.44-1.874 11.043-15.874 29.69-15.876 40.735 0 2.359 3.392 7.031 4.245 10.44 1.874 3.4-2.366 4.239-7.04 1.874-10.44-8.115-11.664-20.026-18.354-32.681-18.354s-24.566 6.69-32.681 18.354c-2.366 3.4-1.527 8.074 1.873 10.44z"/><path d="m214.007 164.873c2.722-3.123 2.396-7.86-.726-10.582-3.123-2.721-7.86-2.396-10.582.726-6.032 6.92-16.764 6.939-22.813 0-2.722-3.123-7.459-3.447-10.582-.726-3.123 2.722-3.448 7.459-.726 10.582 11.998 13.766 33.397 13.805 45.429 0z"/><path d="m320.708 175.217c8.706 0 16.984-3.77 22.714-10.344 2.722-3.123 2.396-7.86-.726-10.582-3.123-2.721-7.86-2.396-10.582.726-2.88 3.305-7.038 5.2-11.406 5.2s-8.526-1.895-11.405-5.199c-2.721-3.123-7.459-3.448-10.582-.727-3.123 2.722-3.448 7.459-.727 10.582 5.729 6.573 14.008 10.344 22.714 10.344z"/><path d="m255.695 371.585c5.694.169 10.364-4.397 10.364-10.054 0-4.254-2.645-7.883-6.377-9.354v-7.543c0-2.033-1.648-3.682-3.682-3.682-2.033 0-3.682 1.648-3.682 3.682v7.543c-3.862 1.522-6.56 5.355-6.367 9.801.226 5.182 4.561 9.454 9.744 9.607z"/><path d="m91.223 245.123c11.526 23.572 28.837 44.969 51.222 62.031v6.257c0 3.667.278 7.283.796 10.831-10.361 12.189-48.656 60.884-39.441 104.74 4.449 21.174 19.069 37.766 43.462 49.36 6.869 19.615 24.972 33.66 46.172 33.66 15.077 0 28.583-7.109 37.601-18.268 15.412 1.576 33.897 1.64 49.931 0 24.55 30.378 70.946 21.25 83.775-15.396 22.489-10.729 47.184-31.111 44.705-68.554-.273-4.133-3.85-7.262-7.979-6.988-4.133.273-7.262 3.846-6.988 7.979 1.385 20.914-7.404 37.031-26.802 48.968-.142-6.373-1.47-12.73-4.545-18.399 7.605-22.55 5.711-54.712-9.368-82.174 4.085-5.2 7.466-10.942 10.038-17.078 7.28 9.622 17.572 24.897 24.236 41.908 1.511 3.857 5.86 5.759 9.719 4.248 3.856-1.511 5.758-5.862 4.248-9.719-9.987-25.495-26.927-46.831-33.25-54.288 1.134-7.732.707-12.541.802-17.087 22.375-17.054 39.69-38.448 51.222-62.031 37.958 5.615 71.995-23.869 71.995-62.087 0-34.864-28.643-63.349-63.794-62.74-23.349-69.68-92.061-120.296-172.98-120.296-35.889 0-70.599 9.953-100.379 28.782-3.501 2.213-4.544 6.846-2.331 10.347 2.214 3.5 6.846 4.545 10.348 2.331 27.377-17.31 59.316-26.46 92.362-26.46 91.386 0 166.501 70.335 166.501 157.578 0 70.389-48.78 129.59-115.07 149.897-5.316-8.732-14.756-14.712-26.665-14.943-52.403.001-53.361-.598-60.209 1.881-6.432 2.305-12.211 6.858-15.988 13.063-30.758-9.375-59.835-28.234-80.824-54.162-51.162-63.2-44.675-153.296 16.846-209.308 3.063-2.789 3.285-7.532.497-10.595s-7.532-3.285-10.595-.497c-22.395 20.389-38.542 45.165-47.582 72.377-34.879-.565-63.682 27.72-63.682 62.744-.001 38.2 34.017 67.705 71.994 62.088zm342.041-109.748c24.825 1.682 44.508 22.416 44.508 47.661 0 27.388-23.156 49.402-50.777 47.675 11.46-30.476 10.252-55.164 10.506-58.133 0-11.854-1.304-23.859-3.866-35.487-.126-.571-.239-1.146-.371-1.716zm-233.207 201.418c-.142 2.209-.012 4.954-.063 33.327-.756-.235-1.806-.571-2.845-.919-.001-.001-.003-.001-.004-.002-9.191-3.093-17.602-8.559-24.252-15.849 0 0 0 0-.001-.001-7.242-7.939-12.186-17.736-14.297-28.333-.009-.044-.026-.085-.035-.13-.466-2.386-.797-4.815-.969-7.281 13.928 8.573 27.142 14.323 42.466 19.188zm29.234-14.133c1.695-.201 51.806-.162 52.998-.051 7.07.659 13.093 5.943 14.432 13.193.499 2.685.189.726.284 42.068-.294 9.703-7.821 16.239-16.239 16.239-52.304-.121-49.42.226-52.164-.233-7.179-1.187-12.862-7.152-13.532-14.516-.105-1.146-.153-40.841.054-42.544.91-7.538 6.865-13.28 14.167-14.156zm-110.808 103.255c-5.828-27.685 12.626-61.24 29.697-83.797 2.567 6.154 5.944 11.908 10.022 17.114-14.892 27.182-17.1 59.08-9.333 82.11-3.055 5.631-4.401 11.958-4.545 18.364-14.309-8.884-22.981-20.211-25.841-33.791zm74.951 71.085c-17.273 0-31.569-13.673-33.801-31.213-2.3-17.703 6.244-29.912 33.801-29.912 24.048 0 38.206 9.534 33.299 32.877-3.411 16.187-17.081 28.248-33.299 28.248zm79.328-17.615c-10.711.737-22.796.738-33.523 0 2.054-5.497 3.318-11.907 3.318-18.489 0-7.948-1.749-14.837-5.105-20.552-13.276-22.613-55.621-24.692-76.445-11.72-3.556-17.943-.855-39.404 8.23-58.069 10.045 8.292 19.861 12.251 31.833 15.493 3.318 12.471 14.092 21.692 27.247 22.922 3.002.27 1.727.08 52.449.141 13.859 0 26.469-9.185 30.163-23.062 12.146-3.294 21.718-7.262 31.79-15.582 9.511 19.486 11.647 41.14 8.274 58.157-3.181-1.981-6.814-3.589-10.455-4.718-23.782-7.483-71.095-4.294-71.095 36.989 0 5.857 1.003 11.997 3.056 17.738.09.25.17.503.263.752zm45.805 17.615c-13.384 0-25.102-8.225-30.686-20.328-4.784-10.375-4.258-22.2-.579-28.523 5.856-10.067 19.6-12.273 31.265-12.273 4.496.312 19.406-.038 27.639 7.882 7.032 6.479 7.644 17.866 5.162 27.062-4.085 15.095-17.238 26.18-32.801 26.18zm35.84-179.393c-1.641 23.282-16.883 44.577-42.401 52.508-.028-15.542.073-31.186-.063-33.322 10.545-3.035 27.81-10.167 42.464-19.186zm-275.713-182.228c-2.875 12.548-4.195 25.071-4.195 37.199.113 19.546 3.13 38.518 10.506 58.133-27.658 1.729-50.777-20.322-50.777-47.675 0-25.23 19.661-45.954 44.466-47.657z"/></g></g></svg>