<svg id="Capa_1" enable-background="new 0 0 512 512" height="512" viewBox="0 0 512 512" width="512" xmlns="http://www.w3.org/2000/svg"><g><g><path d="m75.908 198.319.583-.554c4.71-4.5 5.713-11.85 2.04-17.517-4.155-6.412-12.721-8.242-19.133-4.087-69.679 45.152-69.295 139.722 1.755 189.661l31.079-52.129c-46.91-20.927-56.91-76.543-16.324-115.374z" fill="#ffbfc5"/><circle cx="328.251" cy="226.723" fill="#b2b0bc" r="83.25"/><circle cx="327.275" cy="229.652" fill="#ffbfc5" r="37.305"/><path d="m52.693 269.479c-12.126 17.83-21.515 37.664-27.549 58.896 8.747 13.92 20.742 26.715 36.01 37.447l31.079-52.129c-20.951-9.347-34.532-25.615-39.54-44.214z" fill="#ffa0ab"/><path d="m485.686 353.744c-.303-3.947-.687-6.21-.687-6.21-38.237 0-73.574-19.754-94.211-51.944-33.129-51.678-91.066-85.926-157.008-85.926h-11.824c-96.409 0-174.563 78.155-174.563 174.563 0 47.394 38.421 85.815 85.815 85.815h244.313c62.987.001 112.985-53.496 108.165-116.298z" fill="#c7c5cb"/><ellipse cx="374.495" cy="384.872" fill="#fff" rx="28.653" ry="22.818"/><ellipse cx="484.999" cy="347.535" fill="#423e4f" rx="21.096" ry="17.763" transform="matrix(.707 -.707 .707 .707 -103.691 444.736)"/><path d="m150.851 124.593-66.153-66.153-32.049 32.049 95.976 95.977c6.263 6.263 16.974 3.104 18.836-5.556 4.381-20.375-1.873-41.581-16.61-56.317z" fill="#c7c5cb"/><path d="m209.95 438.425h-14.52c-16.489 0-29.856 13.367-29.856 29.856 0 16.489 13.367 29.856 29.856 29.856h35.196c10.78 0 19.518-8.738 19.518-19.518 0-22.199-17.995-40.194-40.194-40.194z" fill="#ffbfc5"/><path d="m354.947 438.425h-14.52c-16.489 0-29.856 13.367-29.856 29.856 0 16.489 13.367 29.856 29.856 29.856h35.196c10.78 0 19.518-8.738 19.518-19.518 0-22.199-17.995-40.194-40.194-40.194z" fill="#ffbfc5"/><path d="m152.151 125.935c-.426-.453-.859-.9-1.3-1.342l-66.153-66.153-32.049 32.049 67.473 67.474c.088-.087.18-.168.268-.255l31.526-31.525c.081-.082.155-.167.235-.248z" fill="#b2b0bc"/><path d="m130.703 63.341-49.478-49.478-73.153 73.153 49.477 49.478c11.495 11.495 30.133 11.495 41.628 0l31.525-31.525c11.496-11.496 11.496-30.133.001-41.628z" fill="#64d1e1"/><path d="m100.741 371.376c0-69.248 44.301-129.603 109.888-161.335-91.128 5.838-163.237 81.585-163.237 174.187 0 47.394 38.421 85.814 85.815 85.814h.702c-21.003-28.56-33.168-62.391-33.168-98.666z" fill="#b2b0bc"/></g><g><path d="m391.219 370.414c4.142 0 7.5-3.359 7.5-7.5v-14.643c0-4.142-3.358-7.5-7.5-7.5s-7.5 3.358-7.5 7.5v14.643c-.001 4.141 3.357 7.5 7.5 7.5z"/><path d="m52.248 141.789c12.406 12.406 31.66 14.215 46.069 4.963l45.012 45.012c10.453 10.453 28.367 5.166 31.474-9.282 4.938-22.964-2.03-46.591-18.64-63.201l-15.188-15.187c9.178-14.295 7.529-33.578-4.963-46.069l-49.48-49.482c-2.927-2.927-7.679-2.928-10.607 0l-73.157 73.158c-2.929 2.929-2.929 7.678 0 10.607zm107.889 37.538c-.613 2.852-4.135 3.894-6.201 1.829l-44.41-44.409 21.444-21.444 14.585 14.585c12.994 12.993 18.445 31.475 14.582 49.439zm-78.908-154.873 44.177 44.177c8.511 8.511 8.545 22.33.118 30.893l-31.645 31.658.044-.044-.098.093c-8.558 8.502-22.434 8.487-30.971-.048l-44.176-44.179z"/><path d="m8.785 286.555c4.122-.41 7.131-4.084 6.721-8.206-3.794-38.126 14.141-73.976 47.974-95.9 2.932-1.9 6.862-1.06 8.762 1.872 1.653 2.552 1.264 5.923-.914 8.003l-.601.571c-34.773 33.267-35.271 77.963-10.084 106.878-7.223 13.761-12.458 28.143-15.767 42.02-10.058-10.814-17.728-22.987-22.874-36.326-1.49-3.864-5.832-5.789-9.697-4.298s-5.789 5.832-4.298 9.697c6.989 18.117 18.549 34.902 33.555 48.772-1.092 8.048-1.668 16.257-1.668 24.6 0 51.457 41.863 93.321 93.32 93.321h26.033c4.131 16.134 18.791 28.096 36.195 28.096h35.198c14.499 0 27.361-11.665 26.992-28.096h46.622c4.131 16.134 18.792 28.096 36.195 28.096h35.198c14.899 0 27.02-12.121 27.02-27.02 0-1.271-.065-2.526-.163-3.772 49.307-10.77 86.242-52.516 90.599-102.774 3.514-1.522 6.859-3.75 9.792-6.682 11.15-11.15 12.208-28.236 2.357-38.086-9.85-9.85-26.935-8.793-38.086 2.357-2.293 2.293-4.197 4.869-5.663 7.624-26.312-6.181-49.536-22.607-64.375-45.755-.712-1.111-1.452-2.198-2.184-3.292 15.374-16.684 24.085-38.762 24.085-61.532 0-7.994-1.06-15.97-3.149-23.709-1.08-3.999-5.198-6.366-9.196-5.285-3.999 1.08-6.366 5.197-5.286 9.196 1.746 6.464 2.63 13.125 2.63 19.798 0 18.287-6.371 35.444-18.095 49.122-6.353-8.054-13.274-15.529-20.69-22.385 18.579-29.571-2.631-68.616-37.947-68.616-17.318 0-32.621 9.695-40.091 24.761-10.193-2.907-21.184-5.031-31.043-6.156 9.952-30.859 39.046-52.482 72.111-52.482 24.38 0 47.424 11.87 61.644 31.753 2.41 3.369 7.095 4.148 10.464 1.737 3.369-2.41 4.147-7.095 1.738-10.464-17.03-23.811-44.636-38.027-73.846-38.027-40.826 0-76.583 27.537-87.405 66.335-6.271-.224-8.3-.103-18.897-.138-64.208 0-120.757 33.409-153.183 83.755-7.072-9.721-10.852-21.25-10.76-33.29.221-29.267 23.33-49.007 23.65-49.443 7.395-7.065 8.721-18.429 3.153-27.02-6.398-9.873-19.633-12.7-29.508-6.303-38.64 25.036-59.105 66.148-54.744 109.972.41 4.122 4.08 7.131 8.206 6.721zm221.855 204.097h-35.198c-11.881 0-21.624-9.317-22.314-21.027 0-.002 0-.004 0-.006-.759-13.011 9.632-23.682 22.314-23.682 15.837.051 15.964-.188 20.164.498 15.219 2.704 27.053 15.999 27.053 32.199 0 6.626-5.392 12.018-12.019 12.018zm145.007 0h-35.198c-19.774 0-29.89-24.071-15.802-38.159 4.049-4.049 9.638-6.556 15.802-6.556 11.993.166 15.883-.43 21.144.675 14.971 3.092 26.073 16.364 26.073 32.021 0 6.627-5.392 12.019-12.019 12.019zm118.997-152.726c3.934 3.934 2.854 11.66-2.357 16.872-4.552 4.552-12.397 6.764-16.831 2.393-.013-.013-.029-.023-.042-.036-3.463-3.468-3.444-11.072 2.357-16.872 4.613-4.612 12.548-6.683 16.873-2.357zm-167.349-138.084c22.46 0 36.791 23.998 26.354 43.729-15.711-12.381-33.221-22.221-51.936-29.196 5.305-8.808 15.018-14.533 25.582-14.533zm-105.326 17.32h11.825c62.391 0 118.491 32.224 150.704 82.479 16.94 26.424 43.472 45.19 73.553 52.263.231 6.234 2.655 11.753 6.754 15.855l.003.003c3.505 3.505 8.225 5.731 12.993 6.457-5.142 42.281-36.861 77.023-78.796 86.053-5.766-13.886-17.734-24.139-32.129-27.832-.001 0-.001 0-.002 0-7.857-2.012-13.201-1.485-26.425-1.504-18.456 0-34.123 13.567-36.918 31.621h-48.664c-4.755-13.669-16.67-25.621-32.277-29.911 7.986-43.445-25.536-82.955-69.024-82.955-4.142 0-7.5 3.358-7.5 7.5s3.358 7.5 7.5 7.5c34.714 0 61.056 31.879 54.075 66.245h-12.199c-17.692 0-33.056 12.529-36.607 29.892-.116.572-.221 1.147-.311 1.728h-25.309c-43.186 0-78.32-35.134-78.32-78.32 0-91.917 74.74-167.074 167.074-167.074z"/></g></g></svg>