<svg id="Capa_1" enable-background="new 0 0 512 512" height="512" viewBox="0 0 512 512" width="512" xmlns="http://www.w3.org/2000/svg"><g><g><path d="m259.631 160.42-54.245 4.884v-45.415l61.41-38.354c13.891 7.566 24.64 16.984 32.897 26.512z" fill="#ccccca"/><path d="m179.155 128.173c-3.503-16.253-8.687-30.275-13.201-40.603-4.233-9.678 2.302-20.727 12.831-21.618 17.544-1.501 33.067-.771 46.768 1.571z" fill="#ccccca"/><path d="m266.797 81.535c-16.383 17.154-40.023 45.367-61.41 83.769l-22.108 1.992c.17-13.861-1.521-27.102-4.123-39.122 16.814-28.443 34.769-48.89 46.398-60.65 16.133 2.752 29.764 7.756 41.243 14.011z" fill="#dadada"/><path d="m325.065 154.535-65.434 5.885c14.352-23.379 29.224-40.974 40.063-52.373 19.906 22.918 25.371 46.488 25.371 46.488z" fill="#dadada"/><path d="m70.03 254.049c-12.841-12.841-29.676-18.812-45.285-17.606-9.124.705-16.389 7.97-17.094 17.094-1.206 15.609 4.765 32.443 17.606 45.285 3.727 3.727 7.792 6.872 12.064 9.434-4.272 2.562-8.337 5.707-12.064 9.434-12.841 12.841-18.812 29.676-17.606 45.285.705 9.124 7.97 16.389 17.094 17.094 15.609 1.206 32.443-4.765 45.285-17.606 15.337-15.337 20.868-36.369 16.081-54.206 4.787-17.839-.743-38.871-16.081-54.208z" fill="#a19dae"/><path d="m501.53 380c-11.439-11.105-30.481-30.746-34.732-42.309l-44.358 35.508s21.862 55.307 77.306 22.203c5.515-3.293 6.393-10.928 1.784-15.402z" fill="#b2b0bc"/><path d="m476.4 308.255c0 87.588-89.966 138.575-200.945 138.575s-200.945-50.987-200.945-138.575 89.966-158.592 200.945-158.592 200.945 71.005 200.945 158.592z" fill="#c7c5cb"/><g fill="#fff"><ellipse cx="251.461" cy="314.217" rx="32.413" ry="25.812"/><ellipse cx="427.153" cy="314.217" rx="32.413" ry="25.812"/></g><path d="m108.924 292.766c0-48.956 28.093-93.224 73.39-125.061-64.079 26.505-107.804 79.494-107.804 140.55 0 75.076 66.101 123.257 154.875 135.492-72.121-30.599-120.461-86.757-120.461-150.981z" fill="#b2b0bc"/></g><g><path d="m277.852 289.327v-13.25c0-4.142-3.358-7.5-7.5-7.5s-7.5 3.358-7.5 7.5v13.25c0 4.143 3.358 7.5 7.5 7.5s7.5-3.358 7.5-7.5z"/><path d="m415.76 289.327v-13.25c0-4.142-3.358-7.5-7.5-7.5s-7.5 3.358-7.5 7.5v13.25c0 4.143 3.358 7.5 7.5 7.5s7.5-3.358 7.5-7.5z"/><path d="m315.472 292.281c-2.721 3.122-2.396 7.86.727 10.581s7.86 2.396 10.582-.727c6.634-7.612 18.423-7.605 25.05 0 2.722 3.123 7.459 3.448 10.582.727 3.122-2.721 3.448-7.459.727-10.581-12.612-14.471-35.067-14.459-47.668 0z"/><path d="m184.707 401.801c16.304 9.733 34.702 15.19 52.82 9.023 24.557-8.359 34.87-33.831 35.298-34.912 1.519-3.843-.362-8.18-4.2-9.712-3.838-1.531-8.197.342-9.741 4.176-.081.202-8.325 20.23-26.291 26.282-11.554 3.892-25.079 1.29-40.198-7.736-1.279-.764-1.44-2.487-.45-3.536 5.474-5.792 12.792-14.856 16.571-25.134 1.429-3.888-.564-8.198-4.452-9.627-3.89-1.429-8.198.564-9.627 4.452-2.901 7.891-8.885 15.236-13.394 20.008-7.596 8.039-5.835 21.046 3.664 26.716z"/><path d="m142.894 290.238c-3.111-2.733-7.85-2.428-10.584.684-7.384 8.401-7.441 22.572 0 31.04 1.482 1.687 3.554 2.549 5.637 2.549 6.366 0 9.92-7.569 5.631-12.45-2.425-2.761-2.426-8.478 0-11.238 2.734-3.112 2.428-7.851-.684-10.585z"/><path d="m200.402 282.96c-3.111-2.734-7.85-2.428-10.584.683-10.781 12.268-10.779 33.33 0 45.596 1.482 1.687 3.554 2.549 5.637 2.549 6.357 0 9.928-7.561 5.631-12.45-5.82-6.624-5.808-19.184 0-25.794 2.734-3.111 2.427-7.85-.684-10.584z"/><path d="m171.648 286.599c-3.113-2.734-7.85-2.428-10.585.684-9.088 10.342-9.087 27.975 0 38.318 2.73 3.107 7.468 3.421 10.585.684 3.111-2.734 3.417-7.473.684-10.585-4.12-4.688-4.125-13.822 0-18.516 2.734-3.112 2.428-7.851-.684-10.585z"/><path d="m.18 363.509c.997 12.906 11.087 22.996 23.993 23.993 21.27 1.645 41.815-8.104 55.512-24.56 8.051 16.103 19.859 30.652 35.232 43.206 1.393 1.137 3.072 1.691 4.74 1.691 7.011 0 10.216-8.843 4.748-13.309-38.676-31.584-50.818-77.015-36.992-121.791 20.154-65.168 101.657-124.242 209.938-114.633 37.594 3.361 73.371 15.309 102.531 34.487 3.46 2.275 8.111 1.315 10.387-2.145 2.276-3.461 1.316-8.111-2.145-10.388-22.665-14.906-49.016-25.722-77.083-31.905-9.632-30.102-31.707-57.475-60.654-73.243 0 0-.001 0-.001-.001-28.005-15.258-60.209-19.209-92.231-16.469-15.92 1.346-25.248 17.972-19.07 32.094 9.842 22.519 16.172 47.441 16.671 71.72-17.044 7.407-32.877 16.759-47.033 27.932-22.636 17.865-39.478 39.135-49.801 62.381-13.675-15.877-33.863-25.256-54.748-23.643-12.906.997-22.997 11.087-23.993 23.993-1.636 21.167 8.033 41.637 24.283 55.295-16.19 13.616-25.926 34.046-24.284 55.295zm280.755-221.328c6.264-8.491 12.141-15.69 18.385-22.692 7.079 9.473 11.687 18.643 14.527 25.449-11.089-1.643-22.223-2.537-32.912-2.757zm-18.6.276c-12.761.654-24.869 2.084-37.268 4.522 13.5-21 28.436-40.179 43.127-56.013 7.769 4.77 14.898 10.468 21.294 17.019-9.377 10.386-18.312 21.605-27.153 34.472zm-89.04-65.219c2.239-3.76 6.031-3.818 6.131-3.852 10.111-.865 20.396-1.026 30.556-.254-9.628 10.811-19.22 23.158-27.944 36.298-2.546-8.37-5.625-16.699-9.211-24.904-1.041-2.382-.871-5.039.468-7.288zm13.806 52.249c11.471-19.013 25.293-37.481 41.035-53.898 9.3 1.853 18.104 4.597 26.303 8.194-18.09 20.071-34.656 42.295-50.073 68.204-4.671 1.345-9.278 2.823-13.813 4.433-.469-8.819-1.623-17.832-3.452-26.933zm-145.917 172.294c-16.368-9.816-27.548-28.312-26.049-47.708.417-5.395 4.799-9.777 10.194-10.194 19.149-1.474 37.466 9.403 47.376 25.509-7.539 25.271-7.698 52.715.261 77.222-9.824 16.312-28.296 27.433-47.636 25.937-5.395-.417-9.777-4.799-10.194-10.193-1.496-19.364 9.655-37.876 26.049-47.709 2.26-1.355 3.643-3.797 3.643-6.432-.001-2.635-1.384-5.077-3.644-6.432z"/><path d="m432.948 199.351c-3.052-2.801-7.796-2.598-10.597.454s-2.598 7.796.454 10.596c29.723 27.283 46.091 62.02 46.091 97.812 0 41.379-21.464 73.701-55.449 95.848-69.713 45.425-192.292 46.336-264.758 6.694-3.633-1.988-8.191-.654-10.179 2.98s-.654 8.191 2.98 10.18c81.689 44.688 223.936 41.837 296.644-19.527 20.604 14.431 43.853 10.305 65.452-2.59 9.758-5.826 11.313-19.311 3.163-27.223-12.408-12.044-22.143-22.831-27.858-30.828 3.317-11.246 5.004-23.12 5.004-35.534.001-40.043-18.093-78.704-50.947-108.862zm63.354 185.986c0 .001 0 .001 0 0 1.076 1.044.874 2.818-.404 3.581-17.938 10.71-33.529 12.337-46.47 4.885 9.802-10.235 17.57-21.486 23.232-33.619 7.344 8.884 16.363 18.087 23.642 25.153z"/></g></g></svg>