<svg id="Capa_1" enable-background="new 0 0 512 512" height="512" viewBox="0 0 512 512" width="512" xmlns="http://www.w3.org/2000/svg"><g><g><path d="m383.422 162.905-4.972-44.373c-6.987-62.351-59.709-109.495-122.45-109.495-62.741 0-115.463 47.145-122.45 109.495l-4.972 44.373c-8.516 75.992 50.954 142.498 127.422 142.498 76.468 0 135.938-66.506 127.422-142.498z" fill="#b08bd7"/><path d="m248.843 341.634 4.972-44.373c6.987-62.351 59.709-109.495 122.45-109.495 62.741 0 115.463 47.145 122.45 109.495l4.972 44.373c8.515 75.993-50.954 142.498-127.422 142.498-76.468-.001-135.938-66.506-127.422-142.498z" fill="#80dfb5"/><path d="m168.523 147.238c0-50.048 18.765-96.062 50.167-132.434-45.273 14.38-79.598 54.267-85.141 103.728l-4.972 44.373c-8.075 72.063 44.988 135.584 115.704 141.962-46.544-38.989-75.758-95.171-75.758-157.629z" fill="#a47cd1"/><path d="m285.666 331.156c0-50.184 15.28-96.351 40.887-132.937-39.041 17.234-67.715 54.207-72.739 99.042l-4.972 44.373c-6.996 62.438 31.907 118.461 88.42 136.463-31.996-38.445-51.596-90.114-51.596-146.941z" fill="#36d39a"/><path d="m263.157 341.634-4.972-44.373c-6.987-62.351-59.709-109.495-122.45-109.495-62.741 0-115.463 47.145-122.45 109.495l-4.972 44.373c-8.515 75.993 50.954 142.498 127.422 142.498 76.468-.001 135.938-66.506 127.422-142.498z" fill="#64d1e1"/><path d="m99.515 332.765c-.157-1.144-.241-2.309-.241-3.495 0-16.866 16.32-30.541 36.461-30.541s36.461 13.675 36.461 30.541c0 1.186-.084 2.351-.241 3.495z" fill="#f9d888"/><path d="m40.921 336.733c0-58.168 27.242-110.452 70.573-146.568-51.622 10.321-92.145 52.977-98.21 107.096l-4.972 44.373c-7.502 66.949 37.766 126.523 100.933 139.758-42.019-36.038-68.324-87.506-68.324-144.659z" fill="#00c8de"/><g fill="#f9d888"><path d="m118.448 476.877-1.498-6.905c-3.113-14.35-15.809-24.588-30.493-24.588-14.684 0-27.38 10.238-30.493 24.588l-1.498 6.905c-2.909 13.413 7.31 26.086 21.035 26.086h21.911c13.727 0 23.945-12.673 21.036-26.086z"/><path d="m153.02 476.877 1.498-6.905c3.113-14.35 15.809-24.588 30.493-24.588 14.684 0 27.38 10.238 30.493 24.588l1.498 6.905c2.909 13.413-7.31 26.086-21.035 26.086h-21.911c-13.726 0-23.945-12.673-21.036-26.086z"/><path d="m219.78 154.037c-.157-1.144-.241-2.309-.241-3.495 0-16.866 16.32-30.541 36.461-30.541s36.461 13.675 36.461 30.541c0 1.186-.084 2.351-.241 3.495z"/><path d="m412.485 332.765c.157-1.144.241-2.309.241-3.495 0-16.866-16.32-30.541-36.461-30.541s-36.461 13.675-36.461 30.541c0 1.186.084 2.351.241 3.495z"/><path d="m393.552 476.877 1.498-6.905c3.113-14.35 15.809-24.588 30.493-24.588 14.684 0 27.38 10.238 30.493 24.588l1.498 6.905c2.909 13.413-7.31 26.086-21.035 26.086h-21.911c-13.727 0-23.945-12.673-21.036-26.086z"/><path d="m358.98 476.877-1.498-6.905c-3.113-14.35-15.809-24.588-30.493-24.588-14.684 0-27.38 10.238-30.493 24.588l-1.498 6.905c-2.909 13.413 7.31 26.086 21.035 26.086h21.911c13.726 0 23.945-12.673 21.036-26.086z"/></g><path d="m171.954 332.765c-2.057 15.229-17.485 27.057-36.219 27.057s-34.162-11.828-36.219-27.057c10.674-1.217 23.037-1.91 36.219-1.91s25.545.693 36.219 1.91z" fill="#f5c956"/><path d="m292.218 154.037c-2.057 15.229-17.485 27.057-36.219 27.057s-34.162-11.828-36.219-27.057c10.674-1.217 23.037-1.91 36.219-1.91s25.546.692 36.219 1.91z" fill="#f5c956"/><path d="m340.046 332.765c2.057 15.229 17.485 27.057 36.219 27.057s34.162-11.828 36.219-27.057c-10.674-1.217-23.037-1.91-36.219-1.91s-25.545.693-36.219 1.91z" fill="#f5c956"/><path d="m74.208 464.052c0-6.147 1.097-11.99 3.062-17.286-10.547 3.25-18.866 11.966-21.304 23.206l-1.498 6.904c-2.909 13.413 7.31 26.086 21.035 26.086h19.394c-12.249-7.022-20.689-21.805-20.689-38.91z" fill="#f5c956"/><path d="m313.159 464.052c0-5.905 1.009-11.532 2.83-16.66-9.68 3.65-17.196 11.993-19.492 22.581l-1.498 6.904c-2.909 13.413 7.31 26.086 21.035 26.086h17.813c-12.248-7.023-20.688-21.806-20.688-38.911z" fill="#f5c956"/></g><g><path d="m70.172 317.445c4.142 0 7.5-3.358 7.5-7.5v-12.595c0-4.142-3.358-7.5-7.5-7.5s-7.5 3.358-7.5 7.5v12.595c0 4.141 3.358 7.5 7.5 7.5z"/><path d="m201.259 317.445c4.142 0 7.5-3.358 7.5-7.5v-12.595c0-4.142-3.358-7.5-7.5-7.5s-7.5 3.358-7.5 7.5v12.595c0 4.141 3.358 7.5 7.5 7.5z"/><path d="m197.941 131.211v-12.595c0-4.142-3.358-7.5-7.5-7.5s-7.5 3.358-7.5 7.5v12.595c0 4.142 3.358 7.5 7.5 7.5s7.5-3.358 7.5-7.5z"/><path d="m329.027 131.211v-12.595c0-4.142-3.358-7.5-7.5-7.5s-7.5 3.358-7.5 7.5v12.595c0 4.142 3.358 7.5 7.5 7.5s7.5-3.358 7.5-7.5z"/><path d="m434.296 297.349v12.595c0 4.142 3.358 7.5 7.5 7.5s7.5-3.358 7.5-7.5v-12.595c0-4.142-3.358-7.5-7.5-7.5s-7.5 3.358-7.5 7.5z"/><path d="m303.21 297.349v12.595c0 4.142 3.358 7.5 7.5 7.5s7.5-3.358 7.5-7.5v-12.595c0-4.142-3.358-7.5-7.5-7.5s-7.5 3.358-7.5 7.5z"/><path d="m50.726 461.713c-2.058 4.906-2.298 8.053-3.608 13.579-3.927 18.106 9.876 35.177 28.365 35.177h21.912c12.546 0 23.307-7.948 27.356-19.291 7.467.598 14.143.624 21.931 0 4.045 11.331 14.796 19.291 27.356 19.291h21.912c18.527 0 32.283-17.108 28.365-35.177l-1.498-6.904c-.502-2.315-1.216-4.544-2.11-6.674 14.765-11.892 26.683-26.579 35.24-42.965 8.655 16.552 20.631 31.141 35.322 42.953-2.064 4.91-2.304 8.067-3.613 13.591-3.927 18.106 9.876 35.177 28.365 35.177h21.912c12.591 0 23.328-7.994 27.358-19.299 7.453.604 14.08.637 21.928.008 4.039 11.318 14.784 19.291 27.356 19.291h21.912c18.527 0 32.284-17.108 28.364-35.177-1.313-5.541-1.55-8.674-3.605-13.573 10.395-8.366 19.495-18.19 27.089-29.29 2.339-3.419 1.463-8.086-1.955-10.425s-8.086-1.463-10.425 1.955c-6.509 9.514-14.251 17.981-23.073 25.243-21.411-21.447-58.666-10.763-65.174 19.185-1.518 7.023-1.533 7.009-1.688 7.856-6.495.521-12.951.527-19.535-.008-.15-.818-1.708-7.948-1.686-7.847-6.369-29.363-43.328-41.054-65.166-19.193-15.859-13.036-28.081-29.751-35.647-48.803 6.707-19.266 8.872-39.38 6.609-59.591-5.05-45.049-5.16-48.102-6.912-56.538 12.785-54.012 62.725-92.224 119.641-88.776h.022c55.817 3.379 101.601 46.354 107.905 102.611l4.972 44.374c2.119 18.915-.119 37.473-6.652 55.161-1.436 3.885.551 8.199 4.437 9.634s8.199-.551 9.634-4.437c7.351-19.9 9.87-40.77 7.487-62.029l-4.972-44.374c-6.841-61.049-54.837-108.259-114.502-115.264.177-6.362-.083-12.758-.793-19.095l-4.972-44.374c-7.42-66.225-63.267-116.164-129.906-116.164-24.972 0-49.275 7.089-70.28 20.5-3.492 2.229-4.515 6.866-2.286 10.357s6.865 4.515 10.357 2.286c18.591-11.868 40.103-18.142 62.209-18.142 58.992 0 108.43 44.209 114.999 102.833l4.972 44.374c.615 5.486.857 11.02.726 16.526-.144 0-.287 0-.43 0-50.741 0-98.85 29.661-120.246 79.479-19.979-47-66.375-79.478-120.719-79.478-.131-5.505.111-11.039.726-16.527l4.972-44.373c2.825-25.211 13.532-48.262 30.964-66.662 2.849-3.007 2.72-7.755-.287-10.603-3.008-2.849-7.754-2.72-10.603.287-19.694 20.788-31.79 46.83-34.981 75.308l-4.973 44.374c-.71 6.339-.97 12.734-.793 19.095-59.664 7.002-107.66 54.212-114.501 115.262l-4.972 44.374c-5.173 46.165 13.858 91.891 49.888 120.912zm385.761 33.756h-21.912c-8.259 0-15.484-7.258-13.705-16.996l1.498-6.904c2.468-11.376 13.216-19.727 25.448-18.558 10.39 1.024 18.75 8.74 20.879 18.557l1.498 6.905c1.896 8.745-4.771 16.996-13.706 16.996zm-98.555 0h-21.912c-8.953 0-15.599-8.266-13.705-16.996l1.498-6.904c2.162-9.965 10.653-17.558 20.88-18.558 12.301-1.178 22.996 7.254 25.448 18.558.066.303 1.593 7.342 1.498 6.906 1.859 8.581-4.945 16.994-13.707 16.994zm-240.538 0h-21.911c-8.953 0-15.599-8.266-13.705-16.996l1.498-6.905c2.054-9.469 9.767-16.665 19.082-18.318.004-.001.008-.001.013-.002 12.625-2.232 24.602 6.195 27.233 18.32.038.176 1.556 7.175 1.497 6.905 1.777 9.769-5.472 16.996-13.707 16.996zm98.555 0h-21.912c-8.961 0-15.596-8.279-13.706-16.996.084-.389 1.594-7.35 1.498-6.905 2.655-12.241 14.7-20.539 27.231-18.321.005.001.01.001.015.002 9.314 1.653 17.027 8.85 19.081 18.318l1.498 6.905c1.898 8.75-4.771 16.997-13.705 16.997zm-180.204-152.998 4.971-44.374c6.304-56.257 52.088-99.232 107.905-102.611h.024c61.023-3.698 113.515 40.415 121.694 99.613.327 2.347 5.478 48.166 5.719 51.241 3.117 39.295-13.323 77.827-43.713 102.862-21.308-21.343-57.973-10.91-64.984 18.397-.21.878-1.74 7.892-1.877 8.645-6.515.522-13.018.522-19.534 0-.127-.693-.13-.67-1.687-7.856-6.471-29.828-43.69-40.704-65.173-19.186-31.388-25.857-47.896-66.11-43.345-106.731z"/><path d="m255.983 188.592c23.53 0 43.961-16.362 43.961-38.053 0-20.977-19.721-38.042-43.961-38.042s-43.961 17.065-43.961 38.042c0 20.942 19.547 38.053 43.961 38.053zm-26.072-27.986c16.365-1.278 35.049-1.335 52.146 0-10.477 17.254-41.629 17.324-52.146 0zm26.072-33.108c13.898 0 25.541 7.829 28.327 18.235-17.875-1.452-38.34-1.487-56.655 0 2.787-10.406 14.431-18.235 28.328-18.235z"/><path d="m92.063 333.772c0 .004.002.009.002.014 1.924 17.32 19.788 33.54 43.651 33.54 23.856 0 43.961-16.627 43.961-38.053 0-20.977-19.721-38.042-43.961-38.042-25.994 0-46.76 19.655-43.657 42.499.002.013.002.027.004.042zm43.653 18.553c-11.409 0-21.366-5.233-26.073-12.986 17.226-1.342 35.884-1.266 52.146 0-4.707 7.753-14.664 12.986-26.073 12.986zm0-46.095c13.898 0 25.541 7.829 28.327 18.235-18.418-1.494-38.809-1.453-56.655 0 2.787-10.406 14.43-18.235 28.328-18.235z"/><path d="m332.603 333.792c.001.005.002.01.003.015 2.602 19.111 21.359 33.519 43.647 33.519 22.289 0 41.045-14.408 43.647-33.519.001-.006.002-.011.003-.017 3.047-24.375-19.08-42.559-43.65-42.559-24.741-.001-46.852 18.539-43.65 42.561zm17.577 5.547c17.046-1.328 35.678-1.282 52.146 0-10.47 17.245-41.623 17.334-52.146 0zm54.4-14.874c-18.758-1.521-39.16-1.424-56.655 0 2.787-10.406 14.43-18.235 28.328-18.235s25.541 7.829 28.327 18.235z"/></g></g></svg>