<svg id="Capa_1" enable-background="new 0 0 512 512" height="512" viewBox="0 0 512 512" width="512" xmlns="http://www.w3.org/2000/svg"><g><g><path d="m486.628 448.719c-.101-.149-.202-.296-.301-.441-3.515-5.115-5.468-11.147-5.498-17.353-.845-174.316-23.039-221.014-23.039-221.014h-403.579s-22.194 46.698-23.039 221.014c-.03 6.206-1.983 12.238-5.498 17.353-.1.145-.2.292-.301.441-16.226 23.921 6.17 55.163 34.012 47.396 6.907-1.927 13.365-4.066 18.915-6.067 5.814-2.096 12.116-2.4 18.104-.874 35.271 8.992 86.3 15.325 159.596 15.325s124.325-6.334 159.596-15.325c5.989-1.527 12.29-1.222 18.104.874 5.551 2.001 12.008 4.14 18.915 6.067 27.842 7.767 50.238-23.475 34.013-47.396z" fill="#ed9b83"/><path d="m476.657 132.235c-3.102-25.297-21.554-46.837-47.318-53.045l-3.266-.787-2.631-6.704c-10.92-27.822-40.034-43.994-69.424-38.564l-7.238 1.337-6.032-6.614c-19.638-21.535-51.567-26.609-76.913-12.223l-7.835 4.448-7.837-4.448c-25.346-14.386-57.274-9.312-76.912 12.223l-6.032 6.615-7.234-1.337c-29.391-5.43-58.505 10.742-69.426 38.564l-2.631 6.703-3.265.787c-25.765 6.208-44.217 27.748-47.319 53.046l220.656 52.816z" fill="#f9d888"/><path d="m79.371 305.051c0-33.243 5.153-65.225 14.643-95.141h-39.803s-22.194 46.699-23.039 221.014c-.03 6.207-1.983 12.238-5.498 17.353-.1.145-.2.292-.301.441-16.226 23.92 6.17 55.163 34.012 47.396 6.907-1.927 13.365-4.066 18.915-6.067 5.814-2.096 12.116-2.4 18.104-.874 14.015 3.573 30.528 6.723 49.927 9.226-41.802-52.396-66.96-119.798-66.96-193.348z" fill="#e7886e"/><path d="m151.661 32.309c-27.156-2.207-52.967 13.567-63.102 39.391l-2.631 6.703-3.265.787c-25.765 6.208-44.217 27.748-47.319 53.045l52.669 12.607c10.407-43.76 33.428-85.576 63.648-112.533z" fill="#f5c956"/><path d="m476.657 132.235h-441.314c-13.32 0-24.118 10.798-24.118 24.118v28.791c0 29.119 23.606 52.725 52.725 52.725h384.1c29.119 0 52.725-23.606 52.725-52.725v-28.791c0-13.32-10.798-24.118-24.118-24.118z" fill="#f0ac99"/><path d="m188.874 439.494c6.184 13.16 19.318 22.241 34.521 22.241 11.091 0 21.081-4.833 28.074-12.558 4.969-5.488 4.969-13.88 0-19.368-6.994-7.724-16.983-12.558-28.074-12.558-5.616 0-10.947 1.246-15.752 3.473z" fill="#f5c956"/><path d="m198.558 376.899c-5.488-4.969-13.88-4.969-19.368 0-7.724 6.994-12.558 16.983-12.558 28.074 0 15.203 9.081 28.336 22.241 34.521 13.16-6.184 22.242-19.318 22.242-34.521 0-11.09-4.833-21.08-12.557-28.074z" fill="#f9d888"/><path d="m239.96 388.408c6.184 13.16 19.318 22.242 34.521 22.241 11.091 0 21.081-4.833 28.074-12.558 4.969-5.488 4.969-13.88 0-19.368-6.994-7.724-16.983-12.558-28.074-12.558-5.616 0-10.947 1.246-15.752 3.473z" fill="#f5c956"/><path d="m249.644 325.813c-5.488-4.969-13.88-4.969-19.368 0-7.724 6.994-12.558 16.983-12.558 28.074 0 15.203 9.081 28.336 22.241 34.521 13.16-6.184 22.242-19.318 22.242-34.521 0-11.09-4.833-21.08-12.557-28.074z" fill="#f9d888"/><path d="m291.046 337.322c6.184 13.16 19.318 22.241 34.521 22.241 11.091 0 21.081-4.833 28.074-12.558 4.969-5.488 4.969-13.88 0-19.368-6.994-7.724-16.983-12.558-28.074-12.558-5.616 0-10.947 1.246-15.752 3.473z" fill="#f5c956"/><path d="m300.73 274.727c-5.488-4.969-13.88-4.969-19.368 0-7.724 6.994-12.558 16.983-12.558 28.074 0 15.203 9.081 28.336 22.241 34.521 13.16-6.184 22.242-19.318 22.242-34.521 0-11.09-4.833-21.08-12.557-28.074z" fill="#f9d888"/><path d="m81.901 195.025c0-20.716 3.36-42.115 9.473-62.791h-56.031c-13.32 0-24.118 10.798-24.118 24.119v28.791c0 29.119 23.606 52.725 52.725 52.725h22.898c-3.219-13.654-4.947-28.015-4.947-42.844z" fill="#ed9b83"/></g><g><path d="m157.174 162.409c-4.142 0-7.5 3.357-7.5 7.5v18.99c0 4.142 3.358 7.5 7.5 7.5s7.5-3.358 7.5-7.5v-18.99c0-4.143-3.358-7.5-7.5-7.5z"/><path d="m354.827 162.409c-4.142 0-7.5 3.357-7.5 7.5v18.99c0 4.142 3.358 7.5 7.5 7.5s7.5-3.358 7.5-7.5v-18.99c0-4.143-3.358-7.5-7.5-7.5z"/><path d="m286.982 182.679c-3.123-2.721-7.86-2.396-10.581.727-10.782 12.373-29.989 12.408-40.801 0-2.721-3.123-7.459-3.448-10.581-.727-3.123 2.722-3.448 7.459-.727 10.582 16.782 19.257 46.655 19.236 63.418 0 2.721-3.123 2.395-7.86-.728-10.582z"/><path d="m359.2 352.042c7.597-8.391 7.597-21.045 0-29.435-9.609-10.613-23.881-16.405-38.707-14.736 1.674-14.513-3.933-28.925-14.729-38.7-8.391-7.597-21.046-7.597-29.435 0-21.065 19.073-19.78 51.986 2.732 69.533l-9.71 9.71c-1.328-10.719-6.503-20.763-14.672-28.158-8.39-7.597-21.045-7.597-29.435 0-21.064 19.073-19.779 51.986 2.732 69.533l-9.71 9.71c-1.328-10.719-6.503-20.763-14.672-28.158-8.389-7.597-21.045-7.598-29.435 0-21.062 19.07-19.783 51.983 2.731 69.533l-9.525 9.525c-2.929 2.929-2.929 7.678 0 10.607 2.928 2.928 7.677 2.928 10.606 0l9.525-9.525c17.572 22.541 50.491 23.764 69.533 2.732 7.598-8.391 7.598-21.045 0-29.435-7.396-8.169-17.439-13.344-28.158-14.672l9.71-9.71c17.542 22.503 50.453 23.806 69.534 2.731 7.597-8.391 7.597-21.045 0-29.435-7.396-8.168-17.439-13.343-28.158-14.672l9.71-9.71c17.543 22.505 50.454 23.804 69.533 2.732zm-11.119-19.368c2.4 2.651 2.4 6.649 0 9.3-13.111 14.481-35.32 13.023-46.725-2.008 5.439-3.846 10.406-9.17 13.9-15.555 10.968-4.034 23.998-1.486 32.825 8.263zm-61.686-52.385c2.652-2.4 6.649-2.4 9.301 0 15.242 13.802 12.868 37.694-4.68 48.51-17.455-10.712-19.881-34.691-4.621-48.51zm-51.085 51.086c2.652-2.4 6.649-2.399 9.3 0 15.179 13.743 12.942 37.648-4.68 48.509-17.454-10.712-19.88-34.691-4.62-48.509zm-51.085 51.085c2.651-2.4 6.649-2.401 9.3 0 15.173 13.737 12.95 37.644-4.68 48.509-17.453-10.71-19.881-34.69-4.62-48.509zm61.684 52.385c.001 0 .001 0 0 0 2.401 2.651 2.401 6.649 0 9.3-13.044 14.408-35.09 13.082-46.702-2.024 5.55-3.931 10.439-9.255 13.878-15.539 10.949-4.028 23.979-1.508 32.824 8.263zm51.086-51.085c2.4 2.651 2.4 6.649 0 9.3-13.046 14.41-35.092 13.08-46.703-2.023 5.564-3.936 10.453-9.281 13.878-15.539 10.992-4.044 24.015-1.469 32.825 8.262z"/><path d="m431.626 72.034-1.205-3.071c-12.207-31.101-44.914-49.268-77.768-43.199l-3.141.58c-1.649-1.339-15.553-20.965-43.904-25.47-28.337-4.503-47.634 9.831-49.609 10.59-1.984-.762-21.256-15.096-49.61-10.59-28.439 4.519-42.3 24.168-43.904 25.471l-3.137-.58c-32.859-6.071-65.563 12.098-77.769 43.198l-1.205 3.07c-25.958 6.474-45.977 27.479-51.473 53.368-14.354 2.984-25.174 15.73-25.174 30.956v28.791c0 24.018 14.137 44.789 34.522 54.451-6.666 32.711-14.09 91.381-14.575 191.29-.038 7.833-4.394 13.396-4.507 13.621-20.126 29.67 7.67 68.472 42.233 58.829 6.29-1.755 12.832-3.852 19.444-6.235 4.417-1.593 9.158-1.822 13.707-.662 40.495 10.324 94.814 15.558 161.449 15.558s120.954-5.234 161.447-15.558c4.549-1.16 9.29-.931 13.709.662 6.609 2.382 13.151 4.48 19.443 6.235 34.538 9.635 62.371-29.142 42.238-58.822-.185-.37-4.473-5.537-4.512-13.629-.092-18.824-.441-37.088-1.038-54.283-.144-4.14-3.639-7.374-7.756-7.235-4.14.144-7.379 3.616-7.235 7.756.592 17.046.938 35.159 1.029 53.835.063 12.897 6.925 21.627 7.093 21.968 12.31 18.149-4.687 41.848-25.79 35.961-5.937-1.656-12.123-3.641-18.387-5.898-7.251-2.614-15.032-2.989-22.501-1.086-79.478 20.263-235.876 20.295-315.484 0-7.469-1.904-15.25-1.528-22.499 1.086-6.265 2.258-12.452 4.242-18.387 5.898-21.082 5.883-38.11-17.799-25.794-35.955.181-.366 7.034-9.061 7.097-21.974.471-97.061 7.5-154.377 13.93-186.668 3.822.737 7.776 1.078 11.348 1.078 403.088-.41 384.808.959 395.44-1.077 4.006 20.201 8.778 53.059 11.564 102.989.23 4.136 3.771 7.301 7.906 7.071 4.136-.23 7.302-3.77 7.071-7.906-2.912-52.191-8.001-86.252-12.185-106.85 20.387-9.661 34.525-30.433 34.525-54.452v-28.791c0-15.226-10.819-27.972-25.174-30.956-5.495-25.886-25.514-46.891-51.472-53.365zm61.646 84.324v28.791c0 23.484-18.012 42.88-41.029 45.023-1.862.171-389.407.742-396.485-.556-21.186-3.91-37.03-22.464-37.03-44.467v-28.791c0-9.163 7.455-16.618 16.618-16.618h67.762c4.142 0 7.5-3.358 7.5-7.5 0-3.882-2.95-7.077-6.733-7.461-.727-.073 3.092-.025-59.368-.039 5.396-18.723 20.597-33.6 39.915-38.254 1.55-.624 6.569-.449 8.489-5.337l2.631-6.704c9.588-24.427 35.274-38.696 61.081-33.929l7.233 1.337c2.55.471 5.159-.407 6.905-2.321l6.032-6.615c17.393-19.073 45.219-23.495 67.668-10.754l7.837 4.448c2.295 1.303 5.108 1.304 7.404 0l7.835-4.447c22.448-12.742 50.274-8.32 67.668 10.753l6.032 6.614c1.746 1.915 4.358 2.792 6.905 2.322l7.237-1.337c25.804-4.766 51.492 9.503 61.08 33.929l2.631 6.705c1.915 4.88 6.962 4.722 8.49 5.338 19.315 4.654 34.516 19.532 39.913 38.253-356.248.334-334.791-.816-337.959.905-6.796 3.683-4.195 14.095 3.575 14.095h343.546c9.162-.002 16.617 7.453 16.617 16.617z"/></g></g></svg>