<svg id="Capa_1" enable-background="new 0 0 512 512" height="512" viewBox="0 0 512 512" width="512" xmlns="http://www.w3.org/2000/svg"><g><g><path d="m295.395 159.224-71.697-71.697-40.707 40.707 71.697 71.697c11.241 11.241 29.466 11.241 40.707 0 11.241-11.241 11.241-29.466 0-40.707z" fill="#ffcabd"/><path d="m122.638 242.966c0 15.897-12.887 28.784-28.784 28.784-15.897 0-28.784-12.887-28.784-28.784 0 15.897-12.887 28.784-28.784 28.784-15.897 0-28.784-12.887-28.784-28.784v-233.124h230.275v233.124c0 15.897-12.887 28.784-28.784 28.784-15.897 0-28.784-12.887-28.784-28.784 0 15.897-12.887 28.784-28.784 28.784-15.9 0-28.787-12.887-28.787-28.784z" fill="#ffdcce"/><path d="m389.362 269.034c0-15.897-12.887-28.784-28.784-28.784-15.897 0-28.784 12.887-28.784 28.784 0-15.897-12.887-28.784-28.784-28.784-15.897 0-28.784 12.887-28.784 28.784v233.124h230.274v-233.124c0-15.897-12.887-28.784-28.784-28.784-15.897 0-28.784 12.887-28.784 28.784 0-15.897-12.887-28.784-28.784-28.784-15.898 0-28.786 12.887-28.786 28.784z" fill="#b2b0bc"/><g fill="#ffbfc5"><path d="m438.32 376.41c-23.253 0-22.093-22.806-48.958-22.806s-25.705 22.806-48.958 22.806c-18.108 0-38.402 27.244-21.877 54.689s43.197 8.504 70.835 8.504 54.31 18.941 70.835-8.504c16.526-27.445-3.769-54.689-21.877-54.689z"/><ellipse cx="361.523" cy="312.903" rx="14.735" ry="18.689"/><ellipse cx="315.534" cy="337.806" rx="14.735" ry="18.689" transform="matrix(.971 -.241 .241 .971 -71.995 85.822)"/><ellipse cx="417.201" cy="312.903" rx="14.735" ry="18.689"/><ellipse cx="463.191" cy="337.806" rx="18.689" ry="14.735" transform="matrix(.241 -.971 .971 .241 23.883 706.135)"/></g><path d="m28.984 176.433c0-69.822 33.58-131.214 84.336-166.591h-105.82v233.124c0 15.897 12.887 28.784 28.784 28.784 4.945 0 9.599-1.249 13.664-3.445-13.384-27.471-20.964-58.719-20.964-91.872z" fill="#ffcabd"/><path d="m290.538 345.246c0-35.349 11.53-69.609 31.094-98.152-5.021-4.266-11.519-6.844-18.623-6.844-15.897 0-28.784 12.887-28.784 28.784v233.124h79.666c-44.203-37.82-63.353-99.984-63.353-156.912z" fill="#a19dae"/></g><g><path d="m446.932 246.966c-6.639-8.639-17.073-14.217-28.785-14.217s-22.146 5.578-28.784 14.217c-6.639-8.639-17.073-14.217-28.785-14.217s-22.146 5.578-28.784 14.217c-6.639-8.639-17.073-14.217-28.785-14.217-20.007 0-36.284 16.277-36.284 36.285v233.124c0 4.142 3.358 7.5 7.5 7.5h230.275c4.142 0 7.5-3.358 7.5-7.5v-56.86c0-4.142-3.358-7.5-7.5-7.5s-7.5 3.358-7.5 7.5v49.36h-215.275v-225.624c0-11.736 9.548-21.285 21.284-21.285s21.285 9.548 21.285 21.285c0 4.142 3.358 7.5 7.5 7.5s7.5-3.358 7.5-7.5c0-11.736 9.548-21.285 21.284-21.285s21.285 9.548 21.285 21.285c0 4.142 3.358 7.5 7.5 7.5s7.5-3.358 7.5-7.5c0-11.736 9.548-21.285 21.284-21.285s21.285 9.548 21.285 21.285c0 4.142 3.358 7.5 7.5 7.5s7.5-3.358 7.5-7.5c0-11.736 9.548-21.285 21.284-21.285s21.284 9.549 21.284 21.285v146.264c0 4.142 3.358 7.5 7.5 7.5s7.5-3.358 7.5-7.5v-146.264c0-20.007-16.277-36.285-36.284-36.285-11.712 0-22.146 5.578-28.784 14.217z"/><path d="m389.363 447.102c25.73 0 57.649 20.434 77.26-12.135 19.26-31.987-3.854-66.058-28.302-66.058-8.197 0-11.816-3.463-17.294-8.705-6.566-6.282-14.737-14.101-31.664-14.101s-25.098 7.819-31.664 14.101c-5.478 5.242-9.097 8.705-17.294 8.705-24.117 0-47.758 33.746-28.302 66.058 19.601 32.553 51.283 12.135 77.26 12.135zm-65.675-51.21c4.051-7.167 10.768-11.982 16.716-11.982 14.217 0 21.673-7.135 27.665-12.867 5.803-5.553 10.387-9.939 21.293-9.939s15.49 4.386 21.293 9.939c5.991 5.732 13.447 12.867 27.665 12.867 12.806 0 28.667 21.374 15.452 43.32-8.397 13.947-18.929 12.476-38.359 8.413-22.573-4.721-29.44-4.739-52.102 0-19.431 4.063-29.961 5.534-38.359-8.413-6.22-10.331-6.68-21.753-1.264-31.338z"/><path d="m361.524 339.092c12.26 0 22.234-11.748 22.234-26.188s-9.974-26.188-22.234-26.188-22.235 11.748-22.235 26.188 9.975 26.188 22.235 26.188zm0-37.377c3.422 0 7.234 4.595 7.234 11.188s-3.813 11.188-7.234 11.188-7.235-4.595-7.235-11.188 3.813-11.188 7.235-11.188z"/><path d="m335.66 351.217c8.671-19.173-7.467-43.53-26.426-38.831-11.9 2.949-18.755 16.751-15.282 30.768 3.029 12.221 12.924 20.631 23.298 20.631 7.874 0 14.906-4.821 18.41-12.568zm-27.148-11.671c-1.586-6.4 1.01-11.778 4.331-12.601 6.124-1.522 12.852 9.903 9.15 18.09-.513 1.134-1.685 3.114-3.767 3.63-3.326.824-8.128-2.72-9.714-9.119z"/><path d="m439.437 312.903c0-14.44-9.975-26.188-22.235-26.188s-22.234 11.748-22.234 26.188 9.974 26.188 22.234 26.188 22.235-11.747 22.235-26.188zm-29.47 0c0-6.594 3.813-11.188 7.234-11.188s7.235 4.595 7.235 11.188-3.813 11.188-7.235 11.188-7.234-4.594-7.234-11.188z"/><path d="m483.317 324.394c-2.778-6.143-7.817-10.52-13.826-12.008-11.901-2.95-24.408 6.055-27.882 20.071-4.121 16.625 5.976 31.328 19.866 31.328 17.547 0 29.581-22.279 21.842-39.391zm-13.103 15.152c-2.004 8.085-10.054 13.063-13.481 5.49-3.724-8.236 3.057-19.604 9.15-18.09 2.083.516 3.254 2.496 3.767 3.63 1.144 2.53 1.35 5.799.564 8.97z"/><path d="m36.285 279.25c11.712 0 22.146-5.578 28.785-14.217 6.639 8.639 17.072 14.217 28.784 14.217s22.146-5.578 28.784-14.217c6.639 8.639 17.073 14.217 28.785 14.217s22.146-5.578 28.784-14.217c6.639 8.639 17.073 14.217 28.785 14.217 20.007 0 36.284-16.277 36.284-36.285v-41.84l4.109 4.108c14.148 14.147 37.166 14.147 51.314 0 14.147-14.147 14.147-37.167 0-51.314l-55.423-55.422v-88.655c0-4.142-3.358-7.5-7.5-7.5h-230.276c-4.142 0-7.5 3.358-7.5 7.5v72.784c0 4.142 3.358 7.5 7.5 7.5s7.5-3.358 7.5-7.5v-65.284h215.275v225.624c0 11.736-9.548 21.285-21.284 21.285-11.735 0-21.282-9.545-21.284-21.28 0-.001 0-.003 0-.005v-38.281c0-4.143-3.358-7.5-7.5-7.5s-7.5 3.357-7.5 7.5v38.271.01c0 11.736-9.548 21.285-21.284 21.285-11.735 0-21.282-9.545-21.284-21.28 0-.001 0-.003 0-.005v-38.281c0-4.143-3.358-7.5-7.5-7.5s-7.5 3.357-7.5 7.5v38.271.01c0 11.736-9.548 21.285-21.284 21.285s-21.284-9.548-21.284-21.285v-38.281c0-4.143-3.358-7.5-7.5-7.5s-7.5 3.357-7.5 7.5v38.281c0 11.736-9.548 21.285-21.285 21.285s-21.286-9.549-21.286-21.285v-130.34c0-4.142-3.358-7.5-7.5-7.5s-7.5 3.358-7.5 7.5v130.339c0 20.008 16.277 36.285 36.285 36.285zm253.807-114.723c8.298 8.299 8.298 21.802 0 30.101-8.298 8.298-21.801 8.299-30.101 0l-14.715-14.715v-60.202z"/></g></g></svg>