<svg id="Capa_1" enable-background="new 0 0 512.059 512.059" height="512" viewBox="0 0 512.059 512.059" width="512" xmlns="http://www.w3.org/2000/svg"><g><g><path d="m146.014 231.032c0-80.527 74.405-145.807 166.187-145.807s166.187 65.28 166.187 145.807-74.405 145.807-166.187 145.807v-145.807z" fill="#ff9dd3"/><path d="m40.955 56.727c-10.289-.032-19.353 6.746-22.262 16.616-5.538 18.788-10.463 52.07 7.262 87.631l94.173-74.915c0-.001-24.649-29.162-79.173-29.332z" fill="#ffc8e5"/><path d="m274.116 56.727c10.289-.032 19.353 6.746 22.262 16.616 5.538 18.788 10.463 52.07-7.262 87.631l-94.173-74.915c.001-.001 24.649-29.162 79.173-29.332z" fill="#ffc8e5"/><path d="m200.513 87.657c-13.24-4.088-27.589-6.529-42.978-6.529s-29.738 2.441-42.978 6.529c-63.975 19.754-107.028 79.709-107.028 146.665v15.279c0 18.236 4.342 36.211 12.666 52.436 19.665 38.331 59.125 62.436 102.207 62.436h70.267c43.081 0 82.541-24.105 102.207-62.436 8.324-16.226 12.666-34.2 12.666-52.436v-15.279c0-66.956-43.052-126.911-107.029-146.665z" fill="#ffb3dd"/><path d="m186.421 203.988c-18.319-8.521-39.452-8.521-57.77 0-29.823 13.872-38.165 43.512-22.707 64.092l.687.915c9.017 12.005 24.358 16.542 38.362 11.861 7.631-2.551 17.284-2.608 25.086 0 14.253 4.765 29.872-.558 39.049-12.776 15.437-20.551 7.157-50.2-22.707-64.092z" fill="#ff9dd3"/><path d="m478.105 212.044c8.134-.025 15.299 5.333 17.599 13.135 4.378 14.853 8.272 41.163-5.741 69.276l-74.448-59.224c0 .001 19.486-23.052 62.59-23.187z" fill="#ffc8e5"/><path d="m419.919 236.496c-10.467-3.232-21.81-5.161-33.976-5.161s-23.509 1.929-33.976 5.161c-50.576 15.616-84.611 63.013-84.611 115.945v12.079c0 14.417 3.432 28.626 10.013 41.453 15.546 30.302 46.741 49.359 80.799 49.359h55.549c34.058 0 65.252-19.056 80.799-49.359 6.581-12.827 10.013-27.037 10.013-41.453v-12.079c0-52.932-34.034-100.328-84.61-115.945z" fill="#ffdcef"/><path d="m408.778 314.64c-14.482-6.736-31.188-6.736-45.67 0-23.576 10.967-30.171 34.398-17.951 50.667l.543.723c7.128 9.49 19.256 13.078 30.327 9.377 6.033-2.017 13.664-2.062 19.832 0 11.268 3.767 23.615-.441 30.87-10.1 12.203-16.246 5.658-39.686-17.951-50.667z" fill="#ffc8e5"/><path d="m291.842 343.906c0-46.127 25.582-86.434 63.693-108.264l.835-.411s-19.486-23.053-62.589-23.188c-8.134-.025-15.299 5.333-17.599 13.135-4.378 14.853-8.272 41.164 5.741 69.276l.049-.042c-9.381 17.449-14.615 37.309-14.615 58.028v12.079c0 14.417 3.432 28.626 10.013 41.453 14.098 27.479 41.063 45.708 71.363 48.868-34.325-25.498-56.891-67.604-56.891-110.934z" fill="#ffc8e5"/><path d="m50.128 221.152c0-56.821 27.985-106.724 70.167-135.137-1.934.514-3.848 1.06-5.737 1.643-63.976 19.753-107.029 79.707-107.029 146.664v15.279c0 18.236 4.342 36.21 12.666 52.436 15.691 30.584 43.99 52.096 76.67 59.548-32.971-27.341-46.737-73.824-46.737-140.433z" fill="#ff9dd3"/></g><g><path d="m147.385 287.968c6.175-2.064 14.155-2.064 20.331 0 31.572 10.554 63.685-19.407 55.157-53.428-8.47-33.792-55.607-56.778-97.371-37.352-34.696 16.138-43.574 51.389-25.541 75.396l.687.915c10.742 14.3 29.487 20.235 46.737 14.469zm-40.608-49.774c2.84-11.333 11.971-21.321 25.051-27.405 32.441-15.092 70.125 1.988 76.495 27.398 5.604 22.358-15.313 42.421-35.851 35.555-9.204-3.077-20.639-3.077-29.842 0-11.187 3.74-22.957.108-29.988-9.252-.238-.507-9.748-10.804-5.865-26.296z"/><path d="m87.588 211.631v-14.885c0-4.142-3.358-7.5-7.5-7.5s-7.5 3.358-7.5 7.5v14.885c0 4.142 3.358 7.5 7.5 7.5s7.5-3.358 7.5-7.5z"/><path d="m242.511 211.631v-14.885c0-4.142-3.358-7.5-7.5-7.5s-7.5 3.358-7.5 7.5v14.885c0 4.142 3.358 7.5 7.5 7.5s7.5-3.358 7.5-7.5z"/><path d="m130.389 254.272c5.041 2.099 11.763-2.53 15.014-10.339s1.8-15.841-3.242-17.939c-5.041-2.099-11.763 2.53-15.014 10.339-3.251 7.808-1.8 15.84 3.242 17.939z"/><path d="m184.711 254.272c5.041-2.099 6.493-10.131 3.242-17.939-3.251-7.809-9.973-12.438-15.014-10.339s-6.493 10.13-3.242 17.939c3.25 7.809 9.972 12.438 15.014 10.339z"/><path d="m359.959 307.839c-28.292 13.16-35.668 42.157-20.785 61.971l.543.724c8.904 11.854 24.432 16.756 38.702 11.985 4.579-1.531 10.497-1.531 15.076 0 26.199 8.757 52.658-16.054 45.626-44.108-6.957-27.758-45.313-46.317-79.162-30.572zm38.292 60.453c-7.699-2.573-16.89-2.573-24.588 0-16.217 5.422-30.215-10.693-26.321-26.23 3.854-15.375 21.99-24.984 38.615-24.984 16.711 0 34.781 9.687 38.614 24.979 1.655 6.602-11.335 31.246-26.32 26.235z"/><path d="m332.22 308.915c0-4.142-3.358-7.5-7.5-7.5s-7.5 3.358-7.5 7.5v11.767c0 4.142 3.358 7.5 7.5 7.5s7.5-3.358 7.5-7.5z"/><path d="m447.194 301.415c-4.142 0-7.5 3.358-7.5 7.5v11.767c0 4.142 3.358 7.5 7.5 7.5s7.5-3.358 7.5-7.5v-11.767c0-4.143-3.358-7.5-7.5-7.5z"/><path d="m373.792 332.035c-3.985-1.659-9.3 2-11.87 8.174s-1.423 12.522 2.563 14.182 9.3-2 11.87-8.173c2.569-6.174 1.422-12.524-2.563-14.183z"/><path d="m398.122 332.035c-3.985 1.659-5.133 8.009-2.563 14.182s7.884 9.833 11.869 8.173 5.133-8.008 2.563-14.182c-2.569-6.172-7.884-9.832-11.869-8.173z"/><path d="m502.912 223.059c-2.711-9.198-10.362-16.013-19.501-17.943-7.961-41.234-34.837-77.972-74.508-101.47-3.563-2.11-8.164-.933-10.275 2.631s-.933 8.165 2.631 10.275c34.992 20.726 58.979 52.624 66.828 88.437-19.611 1.569-40.405 8.826-54.852 21.95-16.742-3.927-35.948-4.274-54.555 0-6.285-5.713-21.288-16.834-46.089-20.875-2.772-15.77-7.829-30.945-15.074-45.233 10.225-22.344 13.255-45.461 10.519-68.06 22.823-.517 44.91 3.113 65.671 10.732 3.89 1.428 8.198-.568 9.625-4.457s-.568-8.198-4.457-9.625c-23.528-8.635-48.383-12.439-73.533-11.577-.572-2.407-1.167-4.63-1.755-6.625-3.821-12.962-15.896-21.995-29.385-21.995-35.135 0-64.5 12.437-81.596 28.526-23.08-5.435-47.031-5.435-70.112 0-8.818-8.282-34.999-28.381-81.501-28.526-.032 0-.063 0-.095 0-13.488 0-25.564 9.033-29.384 21.995-5.202 17.647-11.12 52.304 6.056 89.573-22.03 43.286-16.758 80.334-17.527 88.809 0 32.946 13.403 65.759 39.007 89.582 3.033 2.822 7.779 2.649 10.6-.383s2.65-7.778-.382-10.6c-22.466-20.901-34.225-49.691-34.225-78.599.816-8.705-6.116-54.819 28.091-101.904 36.194-49.829 100.493-72.151 160.318-51.169 45.245 15.904 82.204 54.963 93.586 108.07-4.561-.135-10.271-.331-17.039 3.954-7.871 4.98-10.368 11.357-12.341 19.549-5.299 22.1-3.578 45.248 5.901 66.197-5.964 11.894-10.044 24.589-12.108 37.759-19.294 16.089-43.603 24.918-68.768 24.918h-70.267c-17.311 0-34.564-4.254-49.896-12.302-3.667-1.925-8.201-.513-10.126 3.155-1.925 3.667-.513 8.201 3.155 10.126 17.473 9.173 37.138 14.021 56.867 14.021h70.267c24.011 0 47.337-7.055 67.198-20.11-.088 17.287-.75 34.965 10.829 57.533 16.91 32.96 50.427 53.435 87.472 53.435 1.146.002 14.926 0 55.549 0 54.948 0 98.312-44.578 98.312-98.312-.634-7.059 3.497-35.957-13.694-70.232 13.406-29.666 8.706-57.172 4.563-71.23zm-477.011-147.596c1.952-6.622 8.114-11.236 14.996-11.236h.048c32.427.101 53.302 10.836 64.23 18.67-32.002 11.586-59.161 33.003-78.063 61.558-9.519-27.23-6.209-52.039-1.211-68.992zm462.623 151.837c3.699 12.548 6.209 30.632.045 50.6-14.09-20.193-33.999-36.293-57.803-45.566 13.9-8.987 30.891-12.734 47.376-12.79 4.802-.045 9.031 3.175 10.382 7.756zm-214.322-163.073c6.882 0 13.045 4.615 14.997 11.236 6.614 22.436 6.52 46.585-1.236 68.975-18.888-28.525-46.017-49.962-78.039-61.541 18.354-13.158 41.883-18.67 64.278-18.67zm19.569 155.317c16.55.053 33.522 3.856 47.37 12.792-22.75 8.849-43.073 24.473-57.791 45.555-5.121-16.525-4.85-33.996.039-50.591 1.348-4.57 5.616-7.771 10.382-7.756zm203.272 144.976c0 45.446-36.647 83.312-83.312 83.312h-4.638c3.438-14.235 12.601-24.975 20.31-31.842 3.093-2.755 3.366-7.496.611-10.589-2.756-3.093-7.497-3.366-10.589-.611-13.988 12.462-22.76 27.225-25.661 43.042h-15.614c-2.901-15.818-11.673-30.58-25.66-43.042-3.093-2.755-7.833-2.482-10.589.611-2.755 3.093-2.482 7.833.611 10.589 7.709 6.868 16.871 17.607 20.31 31.842h-4.638c-31.393 0-59.796-17.351-74.126-45.282-11.983-23.357-8.603-43.063-9.186-50.108 0-109.073 138.637-157.082 201.954-65.136 25.064 36.572 19.461 70.74 20.217 77.214z"/></g></g></svg>