<svg id="Capa_1" enable-background="new 0 0 512 512" height="512" viewBox="0 0 512 512" width="512" xmlns="http://www.w3.org/2000/svg"><g><g><path d="m91.315 292.339c-9.996-10.166-14.413-21.307-16.069-31.155-1.587-9.44-13.23-13.091-19.999-6.322-8.482 8.483-13.247 19.987-13.247 31.982v27.242c0 16.081 13.036 29.118 29.117 29.118 16.081 0 29.118-13.036 29.118-29.118 0-8.139-3.213-15.944-8.92-21.747z" fill="#e7886e"/><path d="m137.312 344.258-125.93 125.93c-5.176 5.176-5.176 13.568 0 18.744l11.686 11.686c5.176 5.176 13.568 5.176 18.744 0l125.93-125.93z" fill="#f7cec4"/><path d="m137.312 344.258-38.257 38.257c3.007 6.598 7.192 12.678 12.473 17.958 5.28 5.28 11.36 9.465 17.958 12.472l38.257-38.257z" fill="#f3bdae"/><path d="m141.203 351.791c0-17.307-14.03-31.337-31.338-31.337h-15.172c-17.307 0-31.337 14.03-31.337 31.337 0 17.307 14.03 31.337 31.337 31.337h15.172c17.307 0 31.338-14.03 31.338-31.337z" fill="#ed9b83"/><path d="m187.786 324.214c-12.238-12.238-32.08-12.238-44.317 0l-10.729 10.728c-12.238 12.238-12.238 32.08 0 44.317 12.238 12.238 32.08 12.238 44.318 0l10.728-10.728c12.238-12.237 12.238-32.079 0-44.317z" fill="#e7886e"/><path d="m491.383 7.814-6.882 1.688c-10.776 2.643-20.622 8.189-28.468 16.035l-135.302 135.302 30.43 30.43 135.302-135.302c7.846-7.846 13.391-17.692 16.035-28.468l1.688-6.882c1.894-7.721-5.082-14.697-12.803-12.803z" fill="#f7cec4"/><path d="m302.881 31.543c-5.002-2.783-10.522-4.836-16.444-5.99-30.133-5.85-59.315 13.83-65.166 43.963-5.859 30.144 13.82 59.317 43.964 65.176 2.174.42 4.34.717 6.497.87 24.714-13.651 28.783-32.61 28.655-44.049-.058-5.186-4.667-9.092-9.808-8.402-4.696.63-8.637.767-11.873.64-6.542-.257-10.334-7.507-6.927-13.098 7.213-11.837 18.564-19.105 30.126-23.562 6.805-2.625 7.349-12.001.976-15.548z" fill="#ed9b83"/><path d="m486.447 225.563c-1.154-5.923-3.206-11.442-5.99-16.444-3.547-6.374-12.923-5.83-15.547.976-4.457 11.562-11.725 22.913-23.562 30.126-5.591 3.407-12.84-.385-13.098-6.927-.127-3.236.01-7.177.64-11.874.69-5.14-3.216-9.749-8.402-9.808-11.439-.128-30.398 3.941-44.049 28.655.154 2.156.45 4.323.87 6.497 5.859 30.144 35.031 49.823 65.175 43.964 30.133-5.85 49.813-35.032 43.963-65.165z" fill="#e7886e"/><g fill="#ed9b83"><path d="m185.053 139.021c-13.215 13.215-13.215 34.64 0 47.855l23.058 23.057 23.927-23.928z"/><path d="m138.694 220.192c0 18.689 15.15 33.839 33.838 33.839h32.608v-33.839z"/><path d="m325.994 279.962-23.927 23.928 23.057 23.057c13.215 13.215 34.64 13.215 47.855 0z"/><path d="m257.969 306.859v32.608c0 18.689 15.15 33.839 33.839 33.839v-66.447z"/><path d="m237.209 274.791c-12.238-12.238-32.08-12.238-44.318 0l-10.729 10.728c-12.238 12.238-12.238 32.08 0 44.317 12.238 12.238 32.08 12.238 44.318 0l10.729-10.728c12.238-12.237 12.238-32.079 0-44.317z"/></g><path d="m313.187 198.813-84.315-49.698c-31.51 35.627-56.779 119.32-21.043 155.055s119.428 10.467 155.055-21.043z" fill="#4f4c5f"/><path d="m388.425 123.575c-5.128-5.128-10.705-9.724-16.655-13.774l-51.038 51.039 30.43 30.43 51.054-51.054c-4.051-5.936-8.655-11.504-13.791-16.641z" fill="#f3bdae"/><path d="m210.927 244.593c0-32.875 13.737-62.732 36.106-84.772l-18.162-10.705c-31.51 35.627-56.779 119.32-21.043 155.055 8.043 8.043 18.52 12.987 30.327 15.474-17.067-20.754-27.228-46.785-27.228-75.052z" fill="#423e4f"/><path d="m367.211 144.788c-37.076-37.077-101.676-32.583-134.781.522-1.196 1.196-2.385 2.457-3.559 3.806l134.013 134.013c1.348-1.174 2.61-2.363 3.806-3.559 33.104-33.105 37.598-97.705.521-134.782z" fill="#ed9b83"/><path d="m328.424 122.41c-33.895-9.502-72.724-.369-95.993 22.9-1.196 1.196-2.385 2.458-3.559 3.806l14.488 14.488c21.23-22.736 51.246-38.034 85.064-41.194z" fill="#e7886e"/></g><g><path d="m299.414 139.054-7.645 7.645c-2.929 2.929-2.929 7.678 0 10.607s7.677 2.929 10.606 0l7.645-7.645c2.929-2.929 2.929-7.678 0-10.607-2.929-2.928-7.677-2.928-10.606 0z"/><path d="m372.938 201.972c-2.929-2.929-7.678-2.929-10.606 0l-7.645 7.645c-2.929 2.929-2.929 7.678 0 10.607 2.928 2.928 7.677 2.929 10.606 0l7.645-7.645c2.929-2.929 2.929-7.678 0-10.607z"/><path d="m491.752 61.276c16.801-16.8 18.464-35.443 19.704-38.866 3.239-13.205-8.695-25.107-21.874-21.873-3.429 1.242-22.061 2.898-38.865 19.704l-27.12 27.12c-2.929 2.929-2.929 7.678 0 10.606 2.929 2.929 7.678 2.929 10.606 0l27.12-27.12c13.409-13.408 28.24-14.466 31.832-15.742 2.257-.553 4.288 1.471 3.733 3.732-1.28 3.603-2.344 18.436-15.742 31.833l-99.489 99.488c-5.41-7.356-11.984-14.059-19.823-19.822l51.157-51.157c2.929-2.929 2.929-7.678 0-10.606-2.929-2.929-7.678-2.929-10.606 0l-53.676 53.676c-13.332-6.786-28.442-10.559-44.471-10.997 2.96-7.519 3.698-14.528 3.639-19.817-.108-9.664-8.683-17.04-18.304-15.751-3.805.51-7.368.705-10.581.579-.806-.033-1.266-.967-.817-1.701 5.434-8.917 14.322-15.803 26.418-20.466 5.858-2.259 9.77-7.555 10.209-13.821.443-6.333-2.731-12.186-8.284-15.277-37.488-20.86-84.47 1.141-92.616 43.095-4.71 24.231 5.035 48.383 24.192 62.618-10.033 7.221-17.612 15.781-24.605 26.153l-23.139-23.139c-2.929-2.929-7.678-2.929-10.606 0-16.154 16.153-16.157 42.304 0 58.46l11.53 11.531c-.947 2.976-1.824 5.973-2.627 8.982h-49.958c-4.142 0-7.5 3.358-7.5 7.5 0 22.793 18.544 41.337 41.337 41.337h10.602c.258 3.821.706 7.513 1.343 11.067l-7.618 7.617c-7.54 7.54-11.323 17.435-11.353 27.339-19.428.072-28.943 13.425-30.563 14.577-12.295-10.458-26.464-9.055-27.234-9.18-.281-9.732-4.172-18.883-11.045-25.872-7.57-7.698-12.286-16.828-14.02-27.139-2.594-15.427-21.62-21.459-32.698-10.381-9.959 9.958-15.444 23.2-15.444 37.284v27.242c0 14.496 8.749 27.548 21.603 33.377-2.067 18.546 9.25 35.429 26.253 41.142l-76.277 76.274c-8.09 8.092-8.09 21.258 0 29.35l11.686 11.684c8.108 8.109 21.239 8.114 29.35 0l41.608-41.608c2.929-2.929 2.929-7.678 0-10.606-2.929-2.929-7.678-2.929-10.606 0l-41.609 41.609c-2.247 2.247-5.887 2.249-8.137-.001l-11.686-11.684c-2.244-2.244-2.244-5.895 0-8.138l84.862-84.861c4.918-.391 15.377 1.692 27.138-4.868 2.879 2.661 6.598 5.146 10.506 6.87l-39.861 39.861c-2.929 2.929-2.929 7.678 0 10.606 2.929 2.929 7.678 2.929 10.606 0l47.253-47.252c9.168-.538 18.18-4.293 25.169-11.282l10.728-10.728c7.341-7.341 11.317-17.22 11.355-27.34 9.905-.031 19.8-3.814 27.339-11.354l7.627-7.627c3.553.637 7.237 1.093 11.057 1.351v10.604c0 22.794 18.544 41.338 41.338 41.338 4.142 0 7.5-3.358 7.5-7.5v-49.958c3.009-.802 6.006-1.68 8.982-2.627l11.53 11.531c16.117 16.116 42.342 16.117 58.461 0 2.927-2.927 2.929-7.679 0-10.607l-23.139-23.139c12.194-8.223 19.895-15.91 26.155-24.608 26.043 35.049 78.736 33.336 102.877-2.45 13.885-20.583 13.905-46.075 2.833-65.973-6.647-11.944-24.192-10.798-29.098 1.926-4.663 12.096-11.549 20.984-20.466 26.418-.735.447-1.669-.011-1.702-.815-.125-3.219.069-6.78.579-10.583 1.291-9.612-6.08-18.195-15.751-18.304-5.283-.059-12.294.68-19.817 3.641-.438-16.034-4.21-31.143-10.997-44.474zm-263.127 9.674c6.228-32.076 42.122-48.695 70.598-32.848.166.092.667.371.615 1.122-.045.644-.448.799-.642.874-15.254 5.881-26.637 14.849-33.832 26.657-6.398 10.501.802 24.013 13.038 24.494 4.076.16 8.506-.076 13.165-.7.688-.092 1.303.38 1.311 1.052.059 5.225-.954 12.794-5.788 20.453-12.284 1.498-24.039 4.948-34.638 10.104-18.111-10.03-27.836-30.581-23.827-51.208zm-2.376 236.939c-47.317-22.122-27.646-106.618 3.182-147.596l122.268 122.268c-30.664 23.071-90.157 41.702-125.45 25.328zm-35.9-126.313c-8.652-8.652-9.822-21.474-4.541-31.182l19.691 19.69c-3.106 5.733-5.979 11.801-8.564 18.078zm-43.074 46.118h38.022c-1.115 6.224-1.894 12.636-2.232 18.838h-10.539c-11.919 0-22.014-7.956-25.251-18.838zm-97.779 86.392v-27.242c0-10.077 3.924-19.552 11.051-26.678 2.484-2.484 6.727-1.149 7.3 2.262 2.253 13.403 8.348 25.236 18.117 35.17 4.109 4.178 6.48 9.613 6.744 15.404-12.552.502-25.257 7.649-32.034 19.999-6.721-3.741-11.178-10.961-11.178-18.915zm45.192 61.54c-13.144 0-23.837-10.693-23.837-23.836 0-11.231 7.872-20.842 18.615-23.253 2.97-.661 3.792-.638 20.393-.583 5.397 0 10.49 1.775 14.619 4.998-9.371 11.793-10.782 27.659-4.792 40.546-5.938 2.684-8.934 2.128-24.998 2.128zm87.788-12.399-10.728 10.728c-9.698 9.699-25.982 9.325-35.11-1.549-4.696-5.613-6.793-13.46-4.793-21.267 2.129-8.298 6.668-11.135 16.921-21.622 5.279-5.28 12.62-7.666 19.743-6.801 1.954 4.647 4.827 8.907 8.344 12.424 3.617 3.617 7.925 6.458 12.424 8.345.874 7.212-1.583 14.523-6.801 19.742zm40.404-40.405c-.859.612-6.715 8.693-18.566 8.693-20.975 0-31.924-25.623-16.856-40.692l1.711-1.711c5.731 13.978 15.234 24.168 27.297 30.667 0 0 .001.001.002.001 2.054 1.107 4.185 2.129 6.412 3.042zm61.418 41.895c-10.882-3.237-18.838-13.332-18.838-25.251v-10.533c6.358-.346 12.592-1.14 18.838-2.238zm77.294-38.539c-9.984 5.404-22.749 3.892-31.176-4.534l-6.585-6.586c6.277-2.585 12.344-5.458 18.077-8.564zm1.378-53.558c-3.488-3.488-120.116-120.116-123.597-123.597 34.291-32.166 102.024-32.646 132.381 13.179 22.588 34.214 16.663 83.292-8.784 110.418zm58.474-52.194c-.624 4.656-.86 9.085-.701 13.166.482 12.239 13.996 19.432 24.495 13.036 11.808-7.195 20.776-18.577 26.657-33.832.075-.193.23-.596.874-.641.748-.054 1.03.45 1.122.614 8.434 15.158 8.429 34.591-2.162 50.291-20.007 29.658-64.512 27.87-81.894-3.518 5.157-10.599 8.607-22.354 10.105-34.638 7.659-4.834 15.236-5.849 20.452-5.788.678.005 1.144.629 1.052 1.31z"/></g></g></svg>