<svg id="Capa_1" enable-background="new 0 0 512 512" height="512" viewBox="0 0 512 512" width="512" xmlns="http://www.w3.org/2000/svg"><g><g><path d="m179.662 434.731-47.162-10.74s1.113 18.701-8.711 37.672c-6.411 12.382-2.977 27.597 7.892 36.33 9.816 7.886 23.524 8.662 34.214 2.008 11.821-7.359 27.627-20.161 43.943-42.019z" fill="#00c67f"/><path d="m332.339 434.731 47.162-10.739s-1.113 18.701 8.711 37.672c6.411 12.382 2.977 27.597-7.892 36.33-9.816 7.886-23.524 8.662-34.214 2.008-11.821-7.359-27.627-20.161-43.943-42.019z" fill="#36d39a"/><circle cx="420.894" cy="172.394" fill="#ffcabd" r="39.489"/><circle cx="256" cy="172.394" fill="#ffdcce" r="164.894"/><path d="m124.699 167.498c0-72.913 47.744-135.087 114.787-159.178-70.157 6.977-127.37 57.925-143.692 124.893-1.487-.196-3.042-.308-4.688-.308-21.809 0-39.489 17.68-39.489 39.489s17.68 39.489 39.489 39.489c1.648 0 3.206-.113 4.696-.309 17.586 72.153 82.631 125.715 160.198 125.715 7.362 0 14.609-.49 21.716-1.425-86.377-11.065-153.017-82.222-153.017-168.366z" fill="#ffcabd"/><path d="m374.302 366.908c-15.049-52.861-63.341-89.323-118.302-89.323-54.961 0-103.253 36.462-118.302 89.323l-15.024 52.772h266.652z" fill="#f0ac99"/><g><g><g><ellipse cx="162.105" cy="202.665" fill="#ff8997" rx="34.646" ry="27.59"/></g><g><ellipse cx="349.895" cy="202.665" fill="#ff8997" rx="34.646" ry="27.59"/></g></g></g><path d="m347.017 408.639-1.447-9.994c-6.443-44.512-44.595-77.539-89.571-77.539-44.976 0-83.128 33.027-89.571 77.539l-1.447 9.994c-4.466 30.854 19.463 58.496 50.638 58.496h80.758c31.177 0 55.107-27.642 50.64-58.496z" fill="#80dfb5"/><path d="m184.049 407.421c0-37.787 23.44-70.364 58.674-85.327-39.017 5.758-70.495 36.498-76.293 76.552l-1.447 9.994c-3.997 27.613 14.755 52.636 41.084 57.593-13.882-16.11-22.018-36.557-22.018-58.812z" fill="#36d39a"/><g fill="#ffdcce"><path d="m153.09 392.076h-19.719c-14.353 0-25.988 11.635-25.988 25.988 0 14.353 11.635 25.988 25.988 25.988h19.719c14.353 0 25.988-11.635 25.988-25.988 0-14.352-11.635-25.988-25.988-25.988z"/><path d="m358.91 392.076h19.719c14.353 0 25.988 11.635 25.988 25.988 0 14.353-11.635 25.988-25.988 25.988h-19.719c-14.353 0-25.988-11.635-25.988-25.988 0-14.352 11.635-25.988 25.988-25.988z"/></g></g><g><path d="m205.627 394.7c-4.142 0-7.5 3.358-7.5 7.5v9.679c0 4.143 3.358 7.5 7.5 7.5s7.5-3.358 7.5-7.5v-9.679c.001-4.142-3.357-7.5-7.5-7.5z"/><path d="m313.873 411.879v-9.679c0-4.142-3.358-7.5-7.5-7.5s-7.5 3.358-7.5 7.5v9.679c0 4.143 3.358 7.5 7.5 7.5s7.5-3.357 7.5-7.5z"/><path d="m237.065 412.714c-2.721 3.123-2.396 7.861.727 10.582 3.122 2.721 7.86 2.397 10.582-.727 4.033-4.629 11.209-4.64 15.252 0 2.721 3.123 7.459 3.449 10.582.727 3.123-2.721 3.448-7.459.727-10.582-10.02-11.498-27.861-11.485-37.87 0z"/><path d="m174.794 175.146c0 4.142 3.358 7.5 7.5 7.5s7.5-3.358 7.5-7.5v-12.195l4.512 1.209c4.002 1.073 8.114-1.305 9.186-5.303 1.072-4.001-1.302-8.113-5.303-9.186l-28.403-7.611c-4-1.072-8.113 1.302-9.186 5.303-1.072 4.001 1.302 8.114 5.303 9.186l9.88 2.648c-1.659 2.903-.716 4.776-.989 15.949z"/><path d="m281.087 190.73c2.721-3.123 2.396-7.861-.727-10.582-3.122-2.721-7.861-2.396-10.582.727-7.298 8.374-20.266 8.364-27.555 0-2.721-3.123-7.459-3.448-10.582-.727-3.123 2.722-3.448 7.459-.727 10.582 13.275 15.234 36.912 15.218 50.173 0z"/><path d="m351.4 147.364c-1.072-4.002-5.187-6.375-9.186-5.303l-28.403 7.611c-4.001 1.072-6.376 5.185-5.304 9.186 1.073 4.003 5.188 6.376 9.186 5.303l4.512-1.209v12.195c0 4.142 3.358 7.5 7.5 7.5s7.5-3.358 7.5-7.5c-.272-11.123.671-13.045-.99-15.949l9.88-2.648c4.002-1.072 6.377-5.185 5.305-9.186z"/><path d="m421.871 219.365c25.462-.521 46.018-21.381 46.018-46.966 0-25.576-20.543-46.43-45.993-46.965-20.499-72.309-87.11-125.434-165.896-125.434-28.848 0-57.401 7.272-82.57 21.03-3.635 1.987-4.971 6.544-2.984 10.178s6.545 4.971 10.178 2.984c22.97-12.555 49.034-19.192 75.376-19.192 101.155 0 176.341 94.496 153.244 193.337-9.388 40.15-33.762 73.591-66.092 95.14-12.464-11.199-26.734-19.667-41.895-25.28-4.454-1.649-9.298 1.204-10.02 5.902-.533 3.45 1.411 6.913 4.812 8.172 5.591 2.067 11.452 4.767 17.206 8.058l-20.437 20.437c-23.59-9.539-50.12-9.515-73.637 0l-20.473-20.473c21.042-12.072 45.378-17.196 69.999-14.479 3.619.398 6.895-1.849 7.96-5.15 1.471-4.541-1.604-9.255-6.311-9.774-36.719-4.052-73.335 7.368-101.526 32.576-88.316-58.883-94.223-186.048-12.4-252.966 3.207-2.622 3.68-7.348 1.058-10.554-2.623-3.207-7.347-3.68-10.554-1.058-27.776 22.716-47.372 52.933-56.853 86.546-25.439.547-45.969 21.396-45.969 46.964 0 25.585 20.556 46.445 46.018 46.966 11.192 39.629 35.745 72.628 67.946 94.907-25.96 29.346-28.952 58.811-33.549 71.509-14.187 3.889-24.646 16.89-24.646 32.295 0 14.089 8.75 26.165 21.097 31.102-1.087 3.158-2.37 6.187-3.852 9.05-7.99 15.431-3.845 34.619 9.856 45.626 12.142 9.756 29.367 10.938 42.876 2.529 12.847-7.998 25.21-18.895 36.8-32.413 2.932.444 5.925.679 8.964.679 84.101-.228 81.821.517 89.725-.679 11.589 13.518 23.951 24.414 36.8 32.413 6.043 3.762 12.868 5.619 19.665 5.618 27.765 0 45.624-29.522 33.066-53.773-1.481-2.861-2.765-5.89-3.851-9.049 12.347-4.937 21.097-17.014 21.097-31.102 0-15.405-10.459-28.406-24.647-32.296-4.654-12.772-7.371-41.684-33.638-71.448 32.388-22.381 56.875-55.464 68.032-94.967zm3.613-78.628c15.475 2.231 27.405 15.579 27.405 31.662 0 16.085-11.931 29.435-27.409 31.663 3.741-20.117 4.006-41.788.004-63.325zm-338.963 63.324c-15.478-2.228-27.409-15.578-27.409-31.663 0-16.082 11.93-29.431 27.405-31.662-3.732 20.124-4.026 41.665.004 63.325zm263.972 181.598c-1.801-6.596-4.252-12.781-7.047-18.322h23.154c.894 2.971 1.969 6.861 4.938 17.249-10.277.201-14.676-.582-21.045 1.073zm-16.417-33.322c-7.45-9.822-16.543-18.04-27.134-24.481l19.066-19.066c14.938 11.416 26.982 26.374 34.91 43.547zm-156.152 0h-26.875c7.974-17.431 20.036-32.232 34.914-43.577l19.096 19.096c-10.629 6.475-19.701 14.682-27.135 24.481zm-37.462 32.249c2.543-8.881 3.652-12.937 4.946-17.249h23.146c-2.853 5.655-5.265 11.796-7.047 18.322-6.452-1.676-10.973-.857-21.045-1.073zm-25.582 33.489c0-9.559 7.336-17.562 16.823-18.404 1.776-.159.783-.05 21.385-.084 12.425 0 21.406 12.12 17.625 24.065-2.456 7.745-9.654 12.913-17.625 12.913-20.566-.035-19.853.089-21.793-.124-9.221-1.036-16.415-8.873-16.415-18.366zm47.048 75.572c-7.988 4.972-18.256 4.375-25.553-1.488-8.155-6.551-10.649-17.921-5.93-27.034 2.208-4.265 4.063-8.807 5.539-13.56 18.047-.03 16.966.054 19.01-.058 4.136-.234 8.149-1.238 11.85-2.903 6.043 9.081 14.349 16.143 23.98 20.609-9.263 10.047-18.95 18.242-28.896 24.434zm43.435-35.214c-10.989-2.635-20.423-9.362-26.535-18.931 11.517-13.801 10.095-34.598-3.662-46.609 19.757-85.846 142.069-85.037 161.667 0-13.729 11.989-15.199 32.785-3.662 46.609-7.976 12.489-21.694 20.146-36.791 20.146 0-.001-82.054.919-91.017-1.215zm170.261 33.726c-7.297 5.862-17.565 6.461-25.552 1.488-9.946-6.192-19.634-14.388-28.896-24.434 9.631-4.466 17.937-11.528 23.98-20.609 9.984 4.493 16.923 2.429 30.86 2.961 1.477 4.755 3.331 9.296 5.539 13.56 4.719 9.113 2.225 20.483-5.931 27.034zm21.497-74.084c0 9.493-7.194 17.329-16.414 18.365-1.573.177-1.233.124-21.794.124-11.609 0-20.485-10.659-18.096-22.273 1.8-8.609 9.442-14.704 18.096-14.704 21.578-.005 20.287-.044 21.714.112 9.259.998 16.494 8.856 16.494 18.376z"/></g></g></svg>