<svg id="Capa_1" enable-background="new 0 0 512 512" height="512" viewBox="0 0 512 512" width="512" xmlns="http://www.w3.org/2000/svg"><g><g><path d="m389.521 7.5h-267.042c-25.965 0-47.015 21.049-47.015 47.014v162.243h361.071v-162.243c0-25.965-21.049-47.014-47.014-47.014z" fill="#dadada"/><path d="m226.487 7.5h-104.008c-25.965 0-47.015 21.049-47.015 47.014v162.243h1.453c25.452-86.454 78.262-164.087 149.57-209.257z" fill="#ccccca"/><path d="m136.625 504.5h-61.164c-28.227 0-51.112-22.885-51.112-51.112v-215.645c0-28.227 22.885-51.112 51.112-51.112h361.079c28.227 0 51.112 22.885 51.112 51.112v215.645c0 28.227-22.885 51.112-51.112 51.112h-61.164l-119.376-28.376z" fill="#64d1e1"/><path d="m294.772 77.853h-19.559v-19.559c0-10.611-8.602-19.213-19.213-19.213-10.611 0-19.213 8.602-19.213 19.213v19.559h-19.559c-10.611 0-19.213 8.602-19.213 19.213 0 10.611 8.602 19.213 19.213 19.213h19.559v19.559c0 10.611 8.602 19.213 19.213 19.213 10.611 0 19.213-8.602 19.213-19.213v-19.558h19.559c10.611 0 19.213-8.602 19.213-19.213.001-10.612-8.601-19.214-19.213-19.214z" fill="#fc5c70"/><path d="m199.129 278.371s-110.536-26.765-111.984 102.67c-.014 1.256-.039 2.516-.076 3.772-.221 7.416 1.077 46.965 53.948 46.965z" fill="#5c586f"/><path d="m312.871 278.371s110.536-26.765 111.984 102.67c.014 1.256.039 2.516.076 3.772.221 7.416-1.077 46.965-53.948 46.965z" fill="#6a647f"/><path d="m375.375 504.5h-238.75l8.284-137.179c3.555-58.744 52.237-104.574 111.091-104.574 29.422 0 56.314 11.458 76.287 30.256s33.027 44.947 34.805 74.318z" fill="#ed9b83"/><path d="m167.191 384.311c0-44.22 16.571-84.012 42.996-111.713-36.542 16.53-62.708 52.248-65.278 94.722l-8.284 137.18h82.392c-31.511-27.702-51.826-71.229-51.826-120.189z" fill="#e7886e"/><path d="m59.96 332.513c0-49.511 9.522-99.465 27.067-145.882h-11.566c-28.227 0-51.112 22.885-51.112 51.112v215.645c0 28.227 22.885 51.112 51.112 51.112h33.491c-31.044-49.936-48.992-108.862-48.992-171.987z" fill="#00c8de"/></g><g><path d="m217.228 123.779h12.059v12.059c0 14.73 11.984 26.713 26.714 26.713s26.713-11.983 26.713-26.713v-12.059h12.059c14.73 0 26.713-11.983 26.713-26.713s-11.984-26.713-26.713-26.713h-12.059v-12.059c0-14.73-11.984-26.714-26.714-26.714s-26.713 11.983-26.713 26.714v12.059h-12.059c-14.73 0-26.714 11.983-26.714 26.714 0 14.729 11.984 26.712 26.714 26.712zm0-38.426h19.559c4.142 0 7.5-3.358 7.5-7.5v-19.559c0-6.459 5.255-11.714 11.714-11.714s11.713 5.255 11.713 11.714v19.559c0 4.142 3.358 7.5 7.5 7.5h19.559c6.459 0 11.713 5.255 11.713 11.714 0 6.458-5.255 11.713-11.713 11.713h-19.559c-4.142 0-7.5 3.358-7.5 7.5v19.559c0 6.458-5.255 11.713-11.714 11.713s-11.713-5.255-11.713-11.713v-19.559c0-4.142-3.358-7.5-7.5-7.5h-19.559c-6.459 0-11.714-5.254-11.714-11.713 0-6.46 5.255-11.714 11.714-11.714z"/><path d="m196.094 350.061c-11.526 0-20.903 9.377-20.903 20.903 0 4.142 3.358 7.5 7.5 7.5s7.5-3.358 7.5-7.5c0-3.255 2.648-5.903 5.903-5.903s5.903 2.648 5.903 5.903c0 4.142 3.358 7.5 7.5 7.5s7.5-3.358 7.5-7.5c.001-11.526-9.376-20.903-20.903-20.903z"/><path d="m302.503 378.464c4.142 0 7.5-3.358 7.5-7.5 0-3.255 2.648-5.903 5.903-5.903s5.903 2.648 5.903 5.903c0 4.142 3.358 7.5 7.5 7.5s7.5-3.358 7.5-7.5c0-11.526-9.377-20.903-20.903-20.903s-20.903 9.377-20.903 20.903c0 4.142 3.358 7.5 7.5 7.5z"/><path d="m263.5 396.527c0-4.142-3.358-7.5-7.5-7.5s-7.5 3.358-7.5 7.5c0 3.625-2.95 6.576-6.576 6.576s-6.576-2.95-6.576-6.576c0-4.142-3.358-7.5-7.5-7.5s-7.5 3.358-7.5 7.5c0 18.418 21.726 28.347 35.651 16.316 13.931 12.037 35.651 2.09 35.651-16.316 0-4.142-3.358-7.5-7.5-7.5s-7.5 3.358-7.5 7.5c0 3.625-2.95 6.576-6.576 6.576s-6.574-2.951-6.574-6.576z"/><path d="m241.512 374.791c0 4.575 6.487 8.283 14.488 8.283 8.002 0 14.488-3.708 14.488-8.283s-6.487-4.621-14.488-4.621-14.488.046-14.488 4.621z"/><path d="m16.849 453.388c0 32.319 26.294 58.612 58.612 58.612h361.079c32.319 0 58.612-26.293 58.612-58.612v-215.645c0-29.778-22.326-54.422-51.116-58.117v-125.112c0-30.059-24.455-54.514-54.515-54.514h-267.041c-30.06 0-54.515 24.455-54.515 54.514v125.112c-28.789 3.694-51.116 28.339-51.116 58.117zm117.123-29.379c-12.932-1.032-22.835-5.017-29.499-11.882-9.648-9.94-10.023-23.248-9.908-27.092.038-1.302.064-2.607.079-3.91.432-38.619 10.917-66.213 31.162-82.016 16.154-12.608 35.866-15.489 50.508-15.489.888 0 1.759.011 2.607.03-24.804 21.15-39.568 51.329-41.499 83.218-.763 12.643-2.698 44.688-3.45 57.141zm225.633-56.237c1.062 17.589 7.093 117.449 7.804 129.228h-222.818c.01-.159 7.803-130.627 8.343-135.184 6.212-52.342 50.782-91.57 103.066-91.57 54.88 0 100.287 42.696 103.605 97.526zm-327.756-130.029c0-24.048 19.564-43.612 43.612-43.612h.004 58.659c4.142 0 7.5-3.358 7.5-7.5s-3.358-7.5-7.5-7.5h-51.159v-124.617c0-21.788 17.726-39.514 39.515-39.514h267.041c21.789 0 39.515 17.726 39.515 39.514v124.616h-264.912c-4.142 0-7.5 3.358-7.5 7.5s3.358 7.5 7.5 7.5h272.412.004c24.047 0 43.612 19.564 43.612 43.612v215.645c0 24.048-19.564 43.612-43.612 43.612h-54.103l-3.504-58.024c16.806-1.29 30.025-6.787 39.357-16.401 13.748-14.164 14.298-32.655 14.139-37.986-.427-14.292-.56-31.269-6.85-51.512-1.229-3.955-5.431-6.165-9.387-4.937-3.956 1.229-6.166 5.432-4.937 9.388 5.743 18.485 5.814 35.285 6.181 47.509.115 3.842-.261 17.151-9.909 27.091-6.663 6.865-16.566 10.849-29.498 11.881l-3.451-57.142c-3.091-51.092-37.231-79.434-37.159-79.334-1.429-1.345-2.887-2.648-4.37-3.914 26.526-.654 50.839 7.68 66.291 29.262 2.411 3.368 7.095 4.144 10.464 1.732 3.368-2.411 4.143-7.097 1.732-10.464-30.659-42.821-83.935-36.176-97.355-33.702-17.609-9.909-37.556-15.201-58.18-15.201-21.032 0-40.865 5.523-58.085 15.216-11.11-2.067-50.487-7.171-81.228 16.737-24.092 18.738-36.555 50.282-37.041 93.757-.014 1.21-.038 2.425-.073 3.633-.16 5.33.389 23.819 14.137 37.984 9.333 9.616 22.552 15.112 39.359 16.402l-3.506 58.026h-54.103c-24.048 0-43.612-19.564-43.612-43.612z"/></g></g></svg>