<svg id="Capa_1" enable-background="new 0 0 512 512" height="512" viewBox="0 0 512 512" width="512" xmlns="http://www.w3.org/2000/svg"><g><g><path d="m319.812 137.941c-6.908-11.986-19.745-20.108-34.508-20.38l-24.664 18.279 24.664 21.732z" fill="#f7cec4"/><path d="m186.806 387.896c3.183-10.787 6.502-24.773 8.666-41.18l-42.359-39.54c-.16 1.083-.246 2.19-.246 3.318 0 36.357-8.698 64.484-13.127 76.449z" fill="#e27858"/><path d="m154.618 254.248c-27.915-12.11-43.327-25.417-51.558-35.008-1.335-1.556-2.565-3.12-3.704-4.686l-29.303 30.628 29.303 23.943c14.213 10.044 31.158 18.917 50.319 26.302z" fill="#e27858"/><path d="m226.696 348.946c-3.554.579-7.197.893-10.915.893-37.204 0-67.364-30.16-67.364-67.364 0-21.352 9.945-40.369 25.443-52.711l30.897-17.656 21.938 18.373 29.361 44.981z" fill="#ed9b83"/><path d="m471.251 210.475v-163.338h-58.607v98.361z" fill="#a19dae"/><path d="m412.644 356.72v106.199h58.607v-106.629z" fill="#a19dae"/><path d="m99.356 169.114c10.05-9.244 27.453-14.705 49.062-14.705 11.046 0 20-8.954 20-20s-8.954-20-20-20c-18.334 0-34.928 3.063-49.062 8.687l-29.304 23.145z" fill="#e27858"/><path d="m226.696 47.137h58.607v416.974h-58.607z" fill="#a19dae"/><path d="m40.749 47.137h58.607v417.727h-58.607z" fill="#a19dae"/><g fill="#938ea3"><path d="m40.749 47.137h58.607v69.218h-58.607z"/><path d="m226.696 47.137h58.607v69.218h-58.607z"/><path d="m412.644 47.137h58.607v69.218h-58.607z"/></g><path d="m481.251 7.919h-450.502c-12.84 0-23.249 10.408-23.249 23.248v31.938c0 12.84 10.409 23.249 23.249 23.249h450.503c12.84 0 23.249-10.409 23.249-23.249v-31.938c-.001-12.84-10.41-23.248-23.25-23.248z" fill="#b2b0bc"/><path d="m152.583 382.656h18.13c15.105 0 27.351 12.245 27.351 27.351 0 8.637-7.002 15.639-15.639 15.639l-14.819 37.273-15.023-37.273c-11.871 0-21.495-9.624-21.495-21.495 0-11.872 9.624-21.495 21.495-21.495z" fill="#f3bdae"/><path d="m412.644 395.645h58.607v67.273h-58.607z" fill="#938ea3"/><path d="m226.696 395.645h58.607v68.465h-58.607z" fill="#938ea3"/><path d="m40.749 395.645h58.607v69.218h-58.607z" fill="#938ea3"/><path d="m481.251 425.646h-450.502c-12.84 0-23.249 10.409-23.249 23.249v31.938c0 12.84 10.409 23.249 23.249 23.249h450.503c12.84 0 23.249-10.409 23.249-23.249v-31.938c-.001-12.841-10.41-23.249-23.25-23.249z" fill="#b2b0bc"/><path d="m412.304 356.381c7.41 7.764 17.851 12.61 29.431 12.61 22.47 0 40.686-18.216 40.686-40.686 0-11.286-4.597-21.497-12.019-28.867z" fill="#f7cec4"/><path d="m339.714 361.028c38.098 9.774 79.228.503 107.961-28.23 44.293-44.293 42.352-118.047-4.335-164.734-44.407-44.407-113.298-48.328-158.037-10.492v117.937z" fill="#ed9b83"/><path d="m346.451 329.339c27.764 7.574 57.708 1.25 78.362-19.403 9.995-9.995 16.634-22.165 19.966-35.211 5.362-20.991-5.742-42.653-26.133-49.974-2.463-.885-5.033-1.643-7.705-2.239-11.02-2.458-19.591-11.029-22.049-22.049-.671-3.009-1.549-5.889-2.58-8.634-7.345-19.542-28.304-30.357-48.599-25.461-13.437 3.242-25.987 9.964-36.245 20.223-7.063 7.063-12.438 15.217-16.165 23.994v63.956z" fill="#f7cec4"/><path d="m181.469 299.891c0-29.793 15.902-56.303 40.614-73.275l-17.325-14.509-30.897 17.656c-15.498 12.342-25.443 31.36-25.443 52.711 0 30.287 19.989 55.901 47.493 64.381-9.175-13.775-14.442-29.825-14.442-46.964z" fill="#e7886e"/><path d="m206.53 175.09 20.166 29.536-20.166 25.854h-26.42c-15.299 0-27.69-12.4-27.69-27.7 0-15.29 12.4-27.69 27.69-27.69z" fill="#e27858"/><path d="m340.69 320.926-18.675-18.675-32.979 4.925-6.187 34.241 18.675 18.675c10.819 10.819 28.355 10.819 39.174 0 5.402-5.402 8.11-12.495 8.11-19.58s-2.708-14.177-8.118-19.586z" fill="#e7886e"/><path d="m303.334 283.569c-10.812-10.812-28.348-10.812-39.16 0-10.819 10.819-10.825 28.349-.007 39.167l18.682 18.682 39.167-39.167z" fill="#f3bdae"/><path d="m260.64 202.78c0 15.3-12.4 27.7-27.7 27.7h-26.41v-55.39h26.41c7.65 0 14.58 3.1 19.59 8.11s8.11 11.94 8.11 19.58z" fill="#f3bdae"/></g><g><path d="m323.612 199.323-7.481 7.481c-4.739 4.738-1.318 12.803 5.303 12.803 1.919 0 3.839-.732 5.303-2.197l7.481-7.481c2.929-2.929 2.929-7.677 0-10.606-2.928-2.929-7.677-2.929-10.606 0z"/><path d="m404.6 295.272 7.481-7.481c2.929-2.929 2.929-7.678 0-10.606-2.929-2.929-7.678-2.929-10.606 0l-7.481 7.481c-2.929 2.929-2.929 7.677 0 10.606 2.928 2.929 7.677 2.929 10.606 0z"/><path d="m373.659 266.269c.531-7.724-2.3-15.29-7.767-20.757s-13.032-8.297-20.757-7.767c-4.132.284-7.252 3.864-6.969 7.996s3.874 7.252 7.996 6.969c3.401-.232 6.723 1.009 9.123 3.409 2.399 2.4 3.642 5.725 3.409 9.123-.296 4.309 3.11 8.014 7.49 8.014 3.908-.001 7.203-3.029 7.475-6.987z"/><path d="m481.251 93.854c16.955 0 30.749-13.793 30.749-30.749v-31.938c0-16.955-13.794-30.749-30.749-30.749h-74.235c-4.142 0-7.5 3.358-7.5 7.5s3.358 7.5 7.5 7.5h74.235c8.684 0 15.749 7.065 15.749 15.749v31.938c0 8.684-7.065 15.749-15.749 15.749-25.271 0-429.81 0-450.502 0-8.684 0-15.749-7.065-15.749-15.748v-31.939c0-8.684 7.065-15.749 15.749-15.749h346.268c4.142 0 7.5-3.358 7.5-7.5s-3.358-7.5-7.5-7.5h-346.268c-16.955.001-30.749 13.794-30.749 30.749v31.938c0 16.955 13.794 30.749 30.749 30.749h2.5v324.291h-2.5c-16.955 0-30.749 13.794-30.749 30.749v31.938c0 16.955 13.794 30.749 30.749 30.749h96.036c4.142 0 7.5-3.358 7.5-7.5s-3.358-7.5-7.5-7.5h-96.036c-8.684 0-15.749-7.064-15.749-15.749v-31.938c0-8.684 7.065-15.749 15.749-15.749h450.502c8.684 0 15.749 7.065 15.749 15.749v31.938c0 8.684-7.065 15.749-15.749 15.749h-324.466c-4.142 0-7.5 3.358-7.5 7.5s3.358 7.5 7.5 7.5h324.467c16.955 0 30.749-13.794 30.749-30.749v-31.938c0-16.955-13.794-30.749-30.749-30.749h-2.5v-59.032c14.799-17.752 14.876-43.447.359-61.216 10.801-28.042 10.624-59.774-.359-88.72v-115.323zm-16.977 119.371c30.656 77.892-30.772 155.207-111.558 142.817 2.646-5.359 3.793-11.287 3.556-17.025 4.452.641 8.886.967 13.273.967 40.661-.002 73.188-26.945 82.501-63.404 6.377-24.965-6.893-50.281-30.866-58.889-2.831-1.017-5.727-1.857-8.606-2.5-8.126-1.813-14.549-8.234-16.362-16.361-.72-3.227-1.688-6.47-2.879-9.64-8.635-22.976-33.302-35.921-57.378-30.113-16.168 3.901-31.341 12.511-43.151 25.8v-23.723c19.306-15.272 44.398-23.394 71.167-21.693 44.072 2.8 83.786 31.854 100.303 73.764zm-166.244 75.647 13.379 13.378c-3.574 3.574-21.302 21.301-28.561 28.56l-13.378-13.378c-7.208-7.208-7.904-18.796-1.528-26.824 7.583-9.576 21.713-10.111 30.088-1.736zm-5.226-146.134v-16.661c5.718 1.447 10.902 4.384 15.075 8.53-5.564 2.508-10.39 5.148-15.075 8.131zm29.212 170.12c14.649 14.649 15.5 15 17.447 19.254 3.411 7.423 2.111 16.499-4.069 22.677-7.876 7.876-20.691 7.875-28.567 0l-13.372-13.372c3.574-3.573 21.302-21.3 28.561-28.559zm-13.411-34.622c-4.229-4.218-9.742-7.487-15.801-9.092v-56.992c8.921-19.827 26.285-33.575 46.668-38.492 16.725-4.034 33.844 4.91 39.819 20.808.946 2.517 1.713 5.083 2.281 7.629 3.073 13.776 13.96 24.663 27.737 27.736 2.27.506 4.559 1.171 6.802 1.977h.001c16.652 5.979 25.853 23.63 21.401 41.059-3.089 12.091-9.314 23.075-18.003 31.764-17.41 17.41-42.6 24.125-67.92 18.268-4.46-7.687-11.85-12.806-42.985-44.665zm12.505 97.453c7.167 0 14.329-2.177 20.414-6.514 9.379 2.122 18.773 3.167 28.031 3.167 12.219 0 24.196-1.821 35.589-5.356v51.16h-112.34v-56.166c1.694 1.203 10.417 13.709 28.306 13.709zm43.812-251.198c-14.463-.918-28.653.672-42.026 4.585-7.359-9.636-18.181-16.181-30.092-18.278v-16.944h112.34v39.908c-12.782-5.223-26.347-8.389-40.222-9.271zm-111.782 78.289c0 11.138-9.062 20.2-20.2 20.2-4.258 0-14.929 0-18.91 0v-40.39h18.91c11.372 0 20.2 9.248 20.2 20.19zm-100.599 172.376c-.366 0-.731.007-1.095.021 3.184-11.181 6.418-25.953 7.972-43.383 7.53 8.627 16.992 15.448 27.768 19.886-1.33 8.628-3.058 17.107-5.167 25.349-7.605-2.61-13.177-1.873-29.478-1.873zm-28.953 28.995c0 5.072 1.313 9.842 3.612 13.995h-20.344v-135.165c10.98 6.648 23.154 12.665 36.374 17.969.626 2.457 1.369 4.867 2.232 7.22-.303 3.905.922 37.615-12.068 74.27-6.008 5.317-9.806 13.076-9.806 21.711zm-16.732-275.833c12.443-4.254 26.398-6.409 41.562-6.409 6.893 0 12.5 5.607 12.5 12.5s-5.607 12.5-12.5 12.5c-16.196 0-30.451 2.884-41.562 8.281zm92.174 94.662h-18.92c-11.066 0-20.19-9.017-20.19-20.2 0-11.133 9.057-20.189 20.19-20.189h18.92zm20.166 15v104.259c-42.761 2.483-76.938-40.858-57.711-84.993 3.415-7.34 8.319-13.984 14.539-19.506 2.51.313 43.063.24 43.172.24zm-78.268 45.739c-12.561-5.514-23.974-11.72-34.072-18.53v-31.484c8.477 7.529 20.714 16.171 38.112 24.404-2.834 8.257-4.191 17.016-4.04 25.61zm54.396 101.636c2.615-9.511 4.737-19.345 6.355-29.367 6.102 1.168 11.873 1.527 17.518 1.264v60.894h-15.115c.955-2.534 1.482-5.276 1.482-8.139-.001-9.62-3.918-18.34-10.24-24.652zm23.872-217.765c-21.954 0-17.32 0-39.086 0-19.404 0-35.19 15.786-35.19 35.189 0 12.157 6.193 22.892 15.589 29.219-3.535 3.857-6.637 8.038-9.262 12.484-16.032-7.596-33.533-18.578-44.39-32.448v-39.384c9.144-6.851 24.034-10.742 41.562-10.742 15.164 0 27.5-12.336 27.5-27.5s-12.336-27.5-27.5-27.5c-14.905 0-28.833 1.913-41.562 5.68v-18.734h112.34v73.736zm-170.947 250.555v-324.291h43.607v324.291zm104.334 0c-7.717 0-13.995-6.278-13.995-13.995 0-7.815 6.43-13.977 13.97-13.994.009 0 .017-.001.025-.001h18.129c.007 0 .014.001.021.001 10.94.009 19.83 8.955 19.83 19.85 0 4.488-3.651 8.139-8.139 8.139zm81.613 0v-69.2-110.988c18.733-.588 33.944-16.219 33.944-35.177 0-19.387-15.483-34.549-33.944-35.168v-73.758h43.607v174.62c-28.193 4.781-39.013 39.492-18.94 59.565 1.98 1.98-5.722-5.722 18.94 18.939v71.167zm185.948 0v-46.742c13.863 6.973 30.361 6.626 43.607-.204v46.945h-43.607zm51.444-104.371c13.852 28.383-16.568 58.604-44.935 44.088 18.888-10.365 34.488-25.828 44.935-44.088zm-7.837-133.024c-11.479-16.426-25.871-29.489-43.607-39.71v-47.186h43.607z"/></g></g></svg>