<svg id="Capa_1" enable-background="new 0 0 512 512" height="512" viewBox="0 0 512 512" width="512" xmlns="http://www.w3.org/2000/svg"><g><g><path d="m408.905 118.891-152.905-77.111-152.905 77.11-38.112 54.536v297.794c0 18.38 14.9 33.28 33.28 33.28h41.613l116.124-29.095 116.124 29.095h41.613c18.38 0 33.28-14.9 33.28-33.28v-297.794z" fill="#fc5c70"/><path d="m95.181 328.431c0-125.347 70.334-233.207 171.299-281.365l-10.48-5.286-152.905 77.11-38.112 54.536v297.794c0 18.38 14.9 33.28 33.28 33.28h38.934c-27.254-49.915-42.016-110.602-42.016-176.069z" fill="#f8485e"/><path d="m496.743 202.344-49.98-91.795c-3.216-5.907-8.099-10.736-14.042-13.886l-160.677-85.173c-10.036-5.32-22.054-5.32-32.088 0l-160.677 85.172c-5.943 3.15-10.826 7.979-14.042 13.886l-49.98 91.795c-5.769 10.596-1.856 23.863 8.74 29.633l21.799 11.869c10.596 5.769 23.864 1.856 29.633-8.74l45.049-82.739 135.522-71.837 135.522 71.838 45.049 82.739c5.769 10.596 19.037 14.509 29.633 8.74l21.799-11.869c10.597-5.77 14.51-19.037 8.74-29.633z" fill="#dadada"/><path d="m139.876 339.81h232.249v164.69h-232.249z" fill="#4f4c5f"/><path d="m175.732 402.394c0-22.035 3.295-43.124 9.298-62.583h-45.154v164.689h62.295c-16.652-28.855-26.439-64.079-26.439-102.106z" fill="#423e4f"/><path d="m372.124 310.553h-232.248c-10.483 0-18.981 8.498-18.981 18.981v20.553c0 10.483 8.498 18.981 18.981 18.981h232.249c10.483 0 18.981-8.498 18.981-18.981v-20.553c-.001-10.483-8.499-18.981-18.982-18.981z" fill="#dadada"/><path d="m256 172.004c-50.13-48.992-133.169 36.07-2.462 106.096 1.537.823 3.388.823 4.925 0 130.706-70.026 47.667-155.088-2.463-106.096z" fill="#ff8997"/><path d="m196.667 310.553h-56.792c-10.483 0-18.981 8.498-18.981 18.981v20.553c0 10.483 8.498 18.981 18.981 18.981h38.423c3.276-21.065 9.586-40.811 18.369-58.515z" fill="#ccccca"/></g><g><path d="m249.997 284.714c3.752 2.01 8.239 2.017 12.008 0 98.175-52.597 82.862-116.689 44.25-131.545-16.755-6.447-35.111-3.103-50.254 8.86-58.245-46.01-143.54 49.002-6.004 122.685zm.761-107.342c2.915 2.848 7.569 2.848 10.484 0 24.836-24.271 57.992-9.819 59.691 17.409.746 11.959-4.126 43.217-64.933 76.129-117.689-63.7-47.761-135.094-5.242-93.538z"/><path d="m454.515 253.976c5.574.242 10.709-1.055 15.273-3.54l21.799-11.869c14.244-7.756 19.497-25.559 11.74-39.806l-49.979-91.794c-3.932-7.222-9.85-13.075-17.116-16.926l-160.676-85.173c-12.246-6.492-26.868-6.491-39.113 0l-160.674 85.172c-7.266 3.852-13.184 9.704-17.117 16.926l-49.979 91.794c-7.755 14.244-2.507 32.048 11.74 39.806l21.799 11.869c4.849 2.64 10.122 3.764 15.273 3.537v133.599c0 4.142 3.358 7.5 7.5 7.5s7.5-3.358 7.5-7.5v-138.474c3.051-1.989 5.773-4.705 7.785-7.59 2.223-3.172 1.429-2.532 45.717-83.567l130.013-68.919 130.013 68.918c46.594 85.577 44.533 82.255 47.046 85.33 1.855 2.272 4.026 4.241 6.456 5.85v55.2c0 4.142 3.358 7.5 7.5 7.5s7.5-3.358 7.5-7.5zm-202.028-180.069c-142.023 75.789-136.549 71.119-138.595 74.877-48.641 89.268-45.41 84.612-48.942 87.266-4.464 3.382-10.537 3.95-15.566 1.212l-21.799-11.87c-6.963-3.792-9.531-12.494-5.739-19.459l49.979-91.794c2.52-4.627 6.312-8.378 10.968-10.846l160.676-85.171c7.846-4.16 17.215-4.159 25.062 0l160.675 85.171c4.655 2.468 8.448 6.218 10.967 10.846l49.979 91.794c3.791 6.963 1.225 15.667-5.739 19.459l-21.799 11.87c-5.379 2.928-11.87 2.111-16.396-1.895-2.625-2.345-.61.661-48.112-86.583-2.045-3.757 3.438.917-138.595-74.877-2.183-1.158-4.811-1.172-7.024 0z"/><path d="m64.984 410.071c-4.142 0-7.5 3.358-7.5 7.5v53.65c0 22.486 18.294 40.779 40.779 40.779h315.472c22.486 0 40.779-18.294 40.779-40.779v-136.903c0-4.142-3.358-7.5-7.5-7.5s-7.5 3.358-7.5 7.5v136.903c0 14.215-11.565 25.78-25.78 25.78h-34.113v-121.519c10.959-3.243 18.981-13.396 18.981-25.392v-20.553c0-14.601-11.879-26.481-26.481-26.481h-232.244c-14.601 0-26.481 11.879-26.481 26.481v20.553c0 11.996 8.022 22.149 18.981 25.392v121.518h-34.113c-14.215 0-25.779-11.564-25.779-25.78v-53.65c-.001-4.141-3.358-7.499-7.501-7.499zm63.412-59.982v-20.553c0-6.331 5.15-11.481 11.481-11.481h232.246c6.33 0 11.481 5.15 11.481 11.481v20.553c0 6.33-5.15 11.48-11.481 11.48h-232.246c-6.331 0-11.481-5.15-11.481-11.48zm18.981 26.48h217.247v120.431h-217.247z"/></g></g></svg>