<svg id="Capa_1" enable-background="new 0 0 512 512" height="512" viewBox="0 0 512 512" width="512" xmlns="http://www.w3.org/2000/svg"><g><g><path d="m122.942 377.487 26.024 45.458-26.024 45.458h-51.175c0-69.603 51.175-90.916 51.175-90.916z" fill="#ffd3bc"/><path d="m217.96 93.146c0 27.366-22.184 40.307-49.55 40.307s-49.55-12.942-49.55-40.307 22.184-49.55 49.55-49.55 49.55 22.184 49.55 49.55z" fill="#ff9c20"/><path d="m255.738 348.142h126.76v41.689h-126.76z" fill="#ed9b83" transform="matrix(.516 -.857 .857 .516 -161.603 452.027)"/><path d="m323.739 263.263c0-85.649-69.68-155.329-155.329-155.329s-155.329 69.68-155.329 155.329z" fill="#ffb25a"/><path d="m69.916 251.883c0-54.707 15.995-103.766 52.849-137.102-63.443 19.543-109.684 78.712-109.684 148.482h57.22c-.245-3.765-.385-7.556-.385-11.38z" fill="#ff9c20"/><path d="m325.499 409.781c-5.482-14.299-21.525-21.444-35.815-15.963-47.865 18.35-70.327.396-71.261-.376l-.99 59.799c30.034 8.301 62.481 3.712 92.102-7.645 14.299-5.482 21.446-21.517 15.964-35.815z" fill="#ffd3bc"/><path d="m245.727 468.404h-122.785v-90.917h89.17s33.615 21.313 33.615 90.917z" fill="#b08bd7"/><path d="m266.367 188.909c-7.398-9.73-20.81-12.814-31.566-7.006-17.419 9.405-40.749 15.156-66.391 15.156-25.643 0-48.973-5.751-66.391-15.156-10.764-5.812-24.179-2.712-31.582 7.027-15.567 20.482-24.86 45.993-25.006 73.671-.356 67.551 54.547 123.167 122.098 123.64 68.325.479 123.862-54.764 123.862-122.978 0-27.943-9.323-53.705-25.024-74.354z" fill="#ffd3bc"/><g><g><g><ellipse cx="168.41" cy="268.861" fill="#423e4f" rx="16.121" ry="18.039"/></g></g></g><path d="m301.581 322.234h66.275v41.689h-66.275z" fill="#e7886e" transform="matrix(.516 -.857 .857 .516 -131.855 452.844)"/><path d="m488.89 212.836-111.18-66.947c-15.25-9.183-35.056-4.264-44.239 10.986l-66.947 111.179c-9.183 15.25-4.264 35.057 10.986 44.239l111.18 66.947c15.25 9.183 35.056 4.264 44.239-10.985l66.947-111.18c9.182-15.25 4.264-35.056-10.986-44.239z" fill="#dadada"/><path d="m418.457 204.013c-32.361-19.484-74.32-9.071-93.808 23.295-19.44 32.285-8.991 74.367 23.294 93.808 15.393 9.269 33.737 12.249 51.729 7.781 17.718-4.399 32.662-15.436 42.079-31.075 19.487-32.361 9.07-74.32-23.294-93.809zm-62.775 104.253c-37.89-22.815-32.745-78.966 7.51-95.155l25.459 102.523c-11.453 1.2-22.932-1.324-32.969-7.368zm73.219-18.183c-6.044 10.038-15.009 17.638-25.692 21.935l-25.456-102.511c42.867-4.495 74.159 42.362 51.148 80.576z" fill="#fc5c70"/><path d="m123.088 377.542c-32.938-32.651-53.172-76.914-53.172-125.658 0-25.127 3.374-49.063 10.592-70.833-3.874 1.676-7.374 4.331-10.071 7.879-8.361 11.001-14.89 23.463-19.186 36.922-1.769-.335-3.699-.518-5.821-.518-20.948 0-37.929 16.981-37.929 37.929s16.982 37.929 37.929 37.929c2.142 0 4.086-.187 5.868-.528 11.26 34.989 37.837 63.308 71.79 76.878z" fill="#ffbe9c"/></g><g><path d="m91.205 238.98c-4.142 0-7.5 3.358-7.5 7.5v11.779c0 4.142 3.358 7.5 7.5 7.5s7.5-3.358 7.5-7.5v-11.779c0-4.142-3.358-7.5-7.5-7.5z"/><path d="m168.432 294.399c13.024 0 23.62-11.456 23.62-25.539 0-14.082-10.596-25.538-23.62-25.538s-23.62 11.456-23.62 25.538c0 14.083 10.596 25.539 23.62 25.539zm0-36.077c4.753 0 8.62 4.728 8.62 10.538 0 5.811-3.867 10.539-8.62 10.539s-8.62-4.728-8.62-10.539c-.001-5.81 3.866-10.538 8.62-10.538z"/><path d="m245.658 265.759c4.142 0 7.5-3.358 7.5-7.5v-11.779c0-4.142-3.358-7.5-7.5-7.5s-7.5 3.358-7.5 7.5v11.779c.001 4.142 3.358 7.5 7.5 7.5z"/><path d="m492.773 206.412-111.177-66.945c-18.812-11.327-43.203-5.272-54.532 13.542l-17.533 29.117c-19.315-33.502-49.988-59.292-86.804-72.347 1.828-5.09 2.753-10.651 2.753-16.629 0-31.457-25.592-57.048-57.049-57.048s-57.048 25.592-57.048 57.048c0 5.981.926 11.545 2.756 16.637-9.813 3.477-19.307 7.888-28.326 13.22-3.565 2.108-4.746 6.708-2.639 10.273 2.109 3.565 6.708 4.747 10.273 2.639 34.009-20.11 76.306-26.364 116.674-14.488h.001c38.76 11.409 71.836 38.629 90.437 75.595l-10.846 18.013c-4.091-10.312-9.922-20.894-17.356-30.668-9.606-12.633-27.275-16.53-41.098-9.066-35.199 19.005-90.422 19.023-125.654 0-13.468-7.271-29.907-4.058-39.853 7.537-5.976 6.965-14.364 20.695-19.678 34.994-6.492-.08-13.231 1.205-19.575 4.121 7.783-26.642 23.053-50.804 44.176-69.471 3.104-2.743 3.396-7.482.654-10.586-2.743-3.104-7.483-3.397-10.586-.654-28.57 25.247-47.41 59.648-53.198 97.027-19.96 30.176 2.023 70.962 38.585 70.406 11.149 29.898 32.966 54.67 60.819 69.626-25.66 18.478-42.656 49.587-42.656 90.095 0 4.142 3.358 7.5 7.5 7.5h173.955c4.142 0 7.5-3.358 7.5-7.5 0-1.17-.011-2.325-.03-3.47 18.967-.44 38.783-4.575 59.021-12.335 18.179-6.969 27.253-27.321 20.282-45.502-.409-1.066-.867-2.104-1.369-3.115l22.38-37.167 31.307 18.852c18.799 11.32 43.192 5.292 54.531-13.542l17.07-28.347c2.137-3.549.992-8.157-2.556-10.294-3.551-2.138-8.158-.992-10.294 2.556l-17.069 28.347c-7.034 11.683-22.263 15.464-33.944 8.43-1.294-.779-104.153-62.716-111.177-66.945-11.648-7.019-15.472-22.258-8.429-33.945 4.78-7.939 66.945-111.177 66.945-111.177 7.034-11.682 22.262-15.464 33.945-8.429l111.177 66.946c11.682 7.034 15.464 22.262 8.429 33.945l-34.464 57.234c-2.137 3.549-.992 8.157 2.557 10.294 3.548 2.138 8.157.992 10.294-2.556l34.464-57.235c11.298-18.77 5.223-43.232-13.545-54.533zm-364.26-101.014c-1.416-3.65-2.13-7.75-2.13-12.248 0-23.186 18.863-42.049 42.049-42.049s42.049 18.863 42.049 42.049c0 4.498-.715 8.599-2.13 12.249-24.752-6.261-51.479-6.77-77.801-.482-.679.162-1.361.31-2.037.481zm-113.488 157.865c0-15.37 11.49-28.2 26.436-30.164-4.523 19.176-4.815 39.975.031 60.335-14.913-1.948-26.467-14.736-26.467-30.171zm55.893-61.877c1.342-2.113 4.75-7.141 6.423-9.006 5.428-6.05 14.292-7.572 21.138-3.877 39.617 21.391 100.223 21.426 139.906 0 7.44-4.022 16.94-1.75 22.031 4.946 9.054 11.907 15.386 24.967 19.169 38.408l-19.466 32.327c-10.824 17.977-5.681 40.792 10.656 52.623-20.429 38.988-61.771 63.579-106.997 61.834-88.447-3.529-140.593-102.246-92.86-177.255zm234.049 136.182-32.461 53.908c-16.702 4.285-28.958 3.447-37.237 1.368-3.149-5.234-6.318-9.388-9.143-12.597 24.117-11.903 44.392-31.148 57.436-55.568zm-189.502 53.092v70.239h-35.961c1.84-32 15.905-55.678 35.961-70.239zm15 70.239v-72.804c26.601 8.112 55.138 7.391 80.884-1.58 3.025 2.835 7.789 8.083 12.429 16.385v.001c9.708 17.381 13.602 38.258 14.331 57.998zm176.404-22.31c-18.786 7.203-37.063 11.013-54.438 11.359-1.327-14.07-4.08-27.769-9.122-40.67 16.497 1.317 33.691-2.558 49.079-8.46 5.655-2.167 11.947-1.701 17.267 1.32h.001c4.133 2.349 7.25 6.132 8.858 10.326 4.002 10.435-1.205 22.123-11.645 26.125zm14.165-46.887c-8.031-6.16-17.977-8.28-27.074-6.776l23.857-39.62c7.996 4.815 14.867 8.952 22.864 13.767z"/></g></g></svg>