<svg id="Capa_1" enable-background="new 0 0 512 512" height="512" viewBox="0 0 512 512" width="512" xmlns="http://www.w3.org/2000/svg"><g><g><path d="m273.384 329.591h-85.698l-56.826-226.271c31.734-32.054 69.701-38.357 99.674-38.357s67.94 6.303 99.674 38.357z" fill="#dadada"/><path d="m447.652 98.748c-9.854-17.358-31.424-26.312-51.693-19.029l-65.749 23.601 25.912 77.955z" fill="#5c586f"/><path d="m356.121 181.275 11.695 35.176c77.004-19.639 89.12-65.399 85.068-101.525-.66-5.923-2.491-11.375-5.232-16.177-29.824 13.175-73.683 39.086-91.531 82.526z" fill="#ffc8e5"/><path d="m13.418 98.748c9.854-17.358 31.424-26.312 51.693-19.029l65.749 23.601-25.912 77.955z" fill="#4f4c5f"/><path d="m104.949 181.275-11.695 35.175c-77.004-19.639-89.12-65.399-85.068-101.525.66-5.923 2.491-11.375 5.232-16.177 29.823 13.176 73.683 39.087 91.531 82.527z" fill="#ffb3dd"/><path d="m187.686 329.591h-120.054c.77-124.195 28.213-190.905 63.228-226.271 32.434 21.69 58.776 61.567 68.891 110.539 8.834 42.789 3.552 84.118-12.065 115.732z" fill="#6a647f"/><path d="m393.438 329.591h-120.054c-15.617-31.614-20.899-72.943-12.065-115.732 10.114-48.972 36.456-88.85 68.891-110.539 35.015 35.366 62.457 102.075 63.228 226.271z" fill="#6a647f"/><path d="m102.113 243.369c0-51.426 9.598-99.269 27.963-139.244-34.64 35.568-61.68 102.2-62.444 225.465h42.444c-5.435-27.303-7.963-56.384-7.963-86.221z" fill="#5c586f"/><path d="m393.457 335.003c0 75.504-72.942 136.711-162.923 136.711s-162.922-61.207-162.922-136.711c0-1.811.01-3.622.02-5.412 44.27-26.262 101.025-42.039 162.903-42.039s118.633 15.777 162.903 42.039c.01 1.791.019 3.601.019 5.412z" fill="#ffc8e5"/><ellipse cx="169.23" cy="364.605" fill="#6a647f" rx="25.345" ry="35.014"/><ellipse cx="291.84" cy="364.605" fill="#6a647f" rx="25.345" ry="35.014"/><path d="m158.459 82.264c2.804-13.799 7.285-25.68 11.531-34.806 4.448-9.563 17.962-9.563 22.411 0 4.245 9.126 8.726 21.006 11.531 34.806 2.903 14.282-8.162 27.604-22.736 27.604-14.575-.001-25.64-13.322-22.737-27.604z" fill="#f0ac99"/><path d="m302.611 82.264c-2.804-13.799-7.285-25.68-11.531-34.806-4.448-9.563-17.962-9.563-22.411 0-4.245 9.126-8.726 21.006-11.531 34.806-2.903 14.282 8.162 27.604 22.736 27.604 14.575-.001 25.64-13.322 22.737-27.604z" fill="#f0ac99"/><path d="m432.426 261.529c-3.108-3.023-8.049-3.023-11.157 0-111.202 108.145-81.285 204.731 5.579 204.731 86.863-.001 116.779-96.587 5.578-204.731z" fill="#64d1e1"/><path d="m394.06 372.44c0-44.265 18.455-82.888 45.845-103.416-2.426-2.493-4.902-4.99-7.479-7.496-3.108-3.023-8.049-3.023-11.157 0-111.202 108.145-81.285 204.73 5.579 204.73 3.203 0 6.318-.147 9.362-.405-25.342-18.19-42.15-51.169-42.15-93.413z" fill="#00c8de"/><path d="m106.779 310.444c-13.887 5.521-26.99 11.936-39.147 19.147-.01 1.791-.02 3.602-.02 5.413 0 61.797 48.868 114.008 115.943 130.931-43.405-35.695-67.416-91.585-76.776-155.491z" fill="#ffb3dd"/></g><g><path d="m202.072 364.597c0-23.838-14.427-42.511-32.843-42.511s-32.843 18.673-32.843 42.511 14.426 42.51 32.843 42.51 32.843-18.673 32.843-42.51zm-50.687 0c0-14.913 8.171-27.513 17.844-27.513s17.844 12.599 17.844 27.513c0 14.913-8.172 27.512-17.844 27.512-9.673-.001-17.844-12.599-17.844-27.512z"/><path d="m324.672 364.597c0-23.838-14.427-42.511-32.843-42.511s-32.843 18.673-32.843 42.511 14.426 42.51 32.843 42.51 32.843-18.673 32.843-42.51zm-50.687 0c0-14.913 8.171-27.513 17.844-27.513s17.844 12.599 17.844 27.513c0 14.913-8.172 27.512-17.844 27.512s-17.844-12.599-17.844-27.512z"/><path d="m136.195 243.422c-4.142 0-7.499 3.357-7.499 7.499v18.127c0 4.142 3.358 7.499 7.499 7.499s7.499-3.357 7.499-7.499v-18.127c0-4.142-3.358-7.499-7.499-7.499z"/><path d="m324.863 243.422c-4.142 0-7.499 3.357-7.499 7.499v18.127c0 4.142 3.358 7.499 7.499 7.499 4.142 0 7.499-3.357 7.499-7.499v-18.127c0-4.142-3.357-7.499-7.499-7.499z"/><path d="m254.727 406.492c2.721-3.122 2.396-7.86-.726-10.581-3.123-2.721-7.86-2.397-10.581.726-6.815 7.82-18.95 7.841-25.783 0-2.721-3.122-7.459-3.447-10.581-.726s-3.447 7.458-.726 10.581c12.781 14.665 35.579 14.708 48.397 0z"/><path d="m437.633 256.152c-6.059-5.893-15.553-5.893-21.614 0-6.186 6.016-11.997 12.046-17.438 18.083-1.682-20.445-4.28-39.486-7.781-57.107 20.376-7.632 36.573-17.977 48.179-30.821 2.777-3.074 2.536-7.816-.537-10.592-3.074-2.777-7.816-2.536-10.592.537-9.598 10.623-23.103 19.365-40.218 26.046-3.436-14.388-7.564-27.817-12.319-40.063 16.918-23.521 42.254-40.854 68.576-53.505 3.096 9.462 3.404 28.88-2.184 44.504-1.395 3.899.635 8.192 4.535 9.587 3.902 1.395 8.193-.636 9.587-4.536 4.77-13.333 6.279-28.199 4.487-44.179-.757-6.795-2.831-13.203-6.161-19.043-.001-.001-.001-.003-.002-.005 0 0-.001-.001-.002-.002-.002-.004.006.009-.019-.033-12.087-21.251-37.619-30.649-60.723-22.347l-61.334 22.014c-7.07-6.663-14.743-12.471-22.878-17.348-2.542-11.21-6.336-22.306-11.325-33.031-7.143-15.355-28.876-15.333-36.008 0-2.263 4.865-4.268 9.81-6.038 14.803-15.664-2.13-34.099-2.243-50.588 0-1.769-4.994-3.775-9.938-6.038-14.803-7.143-15.355-28.876-15.333-36.008 0-4.989 10.726-8.783 21.822-11.325 33.031-8.135 4.878-15.808 10.685-22.879 17.348l-61.332-22.015c-23.106-8.303-48.638 1.096-60.726 22.346-.004.007-.009.013-.013.021-.002.004-.004.008-.007.012-.001.001-.001.002-.002.002-.626 1.418-4.915 7.852-6.163 19.043-5.665 50.508 21.357 85.016 69.53 103.041-5.698 28.701-10.155 68.777-10.155 117.856 0 45.024 24.155 86.638 66.273 114.172 3.467 2.266 8.115 1.294 10.381-2.173s1.293-8.114-2.173-10.381c-35.849-23.436-59.539-59.465-59.48-102.706 81.073-46.533 197.281-52.36 288.116-11.516-16.956 29.929-28.11 66.472-17.371 99.148-29.501 27.162-71.239 42.655-115.335 42.655-24.367 0-47.708-4.57-69.377-13.584-3.821-1.59-8.213.219-9.804 4.044-1.591 3.824.22 8.213 4.044 9.804 23.503 9.777 48.783 14.734 75.137 14.734 46.017 0 89.781-15.679 121.755-43.303 14.027 24.187 40.607 37.849 74.543 37.849 91.549.004 129.228-102.421 10.806-217.587zm-66.508 53.339c-32.893-15.046-69.161-24.258-104.597-27.665-9.586-63.944 16.546-133.969 62.68-168.593 39.86 44.512 52.033 117.633 55.498 177.441-4.938 6.273-9.466 12.548-13.581 18.817zm27.351-222.7c13.559-4.871 28.298-1.078 37.722 8.993-24.896 11.963-49.931 29.057-67.662 50.67-6.679-14.089-15.27-28.1-25.214-39.866zm-114.206-36.154c5.005 10.757 8.699 21.905 10.981 33.134 1.94 9.555-5.48 18.608-15.386 18.608-9.871 0-17.334-9.016-15.385-18.608 2.199-10.813 5.888-22.184 10.981-33.134 1.19-2.559 7.04-3.802 8.809 0zm-107.482 0c1.755-3.772 7.041-3.802 8.809 0 5.979 12.852 10.138 27.308 11.107 34.001.616 4.26-.557 8.573-3.322 11.956-6.306 7.716-18.082 7.707-24.38 0-4.993-6.109-3.194-12.939-3.191-12.839 2.282-11.223 5.975-22.365 10.977-33.118zm-25.073 44.712c6.979 23.81 37.771 29.716 53.283 10.736 9.807-12.001 6.278-25.416 6.275-25.316-.457-2.248-1.164-5.302-1.62-7.108 13.153-1.576 28.498-1.589 41.753 0-.116.459-1.059 4.342-1.623 7.123-3.847 18.926 10.763 36.595 30.084 36.595 13.854 0 25.717-9.19 29.477-22.03 3.126 2.239 6.16 4.645 9.092 7.209-50.986 39.34-75.685 113.456-67.23 178.077-10.369-.676-26.621-.831-41.35 0 2.971-22.692 1.775-46.316-2.762-68.29-8.678-42.026-30.237-83.37-64.468-109.787 2.928-2.564 5.963-4.97 9.089-7.209zm-76.396 221.334c1.476-66.791 11.762-153.542 56.53-203.45 31.874 23.905 52.557 63.437 60.553 102.146 4.441 21.501 5.444 44.293 2.128 66.446-41.088 4.066-82.461 15.401-119.211 34.858zm-12.735-229.891 55.152 19.797c-9.986 11.822-18.451 25.603-25.214 39.866-17.77-21.661-42.536-38.533-67.663-50.671 9.425-10.072 24.164-13.866 37.725-8.992zm-46.934 28.974c.27-2.426.779-4.777 1.518-7.037 26.237 12.609 51.477 29.815 68.576 53.505-4.755 12.249-8.885 25.68-12.32 40.067-42.913-16.71-62.344-45.789-57.774-86.535zm411.176 342.978c-82.297 0-104.077-90.962-.35-191.84.098-.095.224-.143.35-.143s.251.048.35.143c104.701 101.823 80.885 191.84-.35 191.84z"/></g></g></svg>