<svg id="Capa_1" enable-background="new 0 0 512 512" height="512" viewBox="0 0 512 512" width="512" xmlns="http://www.w3.org/2000/svg"><g><g><path d="m403.665 50.662h-270.084c-20.555 0-37.218 16.663-37.218 37.218v379.403c0 20.555 16.663 37.218 37.218 37.218h270.083c30.449 0 55.134-24.684 55.134-55.134v-343.57c0-30.451-24.684-55.135-55.133-55.135z" fill="#36d39a"/><path d="m96.364 366.67v100.612c0 20.555 16.663 37.218 37.218 37.218h81.955c-52.912-33.292-94.76-81.259-119.173-137.83z" fill="#00c67f"/><path d="m360.503 7.5h-270.084c-20.555 0-37.218 16.663-37.218 37.218v379.402c0 20.555 16.663 37.218 37.218 37.218h270.083c30.45 0 55.134-24.684 55.134-55.134v-343.57c0-30.45-24.684-55.134-55.133-55.134z" fill="#80dfb5"/><g fill="#fff"><ellipse cx="197.303" cy="86.57" rx="20.481" ry="27.273"/><ellipse cx="130.603" cy="126.795" rx="20.481" ry="27.273"/><ellipse cx="271.535" cy="86.57" rx="20.481" ry="27.273"/><ellipse cx="338.235" cy="126.795" rx="20.481" ry="27.273"/><path d="m297.164 173.514c-29.801 0-28.315-29.228-62.745-29.228s-32.944 29.228-62.745 29.228c-23.207 0-49.217 38.641-28.038 73.814s55.362 10.899 90.783 10.899 69.603 24.275 90.783-10.899c21.179-35.173-4.831-73.814-28.038-73.814z"/></g><path d="m72.564 251.478c0-118.1 33.129-196.552 94.908-243.978h-77.053c-20.555 0-37.218 16.663-37.218 37.217v379.403c0 20.555 16.663 37.218 37.218 37.218h70.745c-54.866-54.446-88.6-128.394-88.6-209.86z" fill="#36d39a"/></g><g><path d="m197.303 121.344c15.429 0 27.981-15.599 27.981-34.773s-12.552-34.773-27.981-34.773-27.981 15.6-27.981 34.773c0 19.174 12.552 34.773 27.981 34.773zm0-54.547c7.036 0 12.981 9.056 12.981 19.773 0 10.719-5.945 19.773-12.981 19.773-7.037 0-12.981-9.055-12.981-19.773 0-10.717 5.944-19.773 12.981-19.773z"/><path d="m130.603 92.022c-15.429 0-27.981 15.599-27.981 34.773s12.552 34.773 27.981 34.773 27.981-15.599 27.981-34.773c0-19.173-12.552-34.773-27.981-34.773zm0 54.547c-7.036 0-12.981-9.055-12.981-19.773 0-10.719 5.945-19.773 12.981-19.773 7.037 0 12.981 9.055 12.981 19.773s-5.945 19.773-12.981 19.773z"/><path d="m299.516 86.57c0-19.174-12.552-34.773-27.981-34.773s-27.981 15.6-27.981 34.773c0 19.174 12.552 34.773 27.981 34.773 15.429.001 27.981-15.598 27.981-34.773zm-40.962 0c0-10.718 5.945-19.773 12.981-19.773s12.981 9.056 12.981 19.773c0 10.719-5.945 19.773-12.981 19.773-7.036.001-12.981-9.054-12.981-19.773z"/><path d="m366.216 126.796c0-19.174-12.552-34.773-27.981-34.773s-27.981 15.599-27.981 34.773 12.552 34.773 27.981 34.773 27.981-15.599 27.981-34.773zm-40.962 0c0-10.719 5.945-19.773 12.981-19.773s12.981 9.055 12.981 19.773-5.944 19.773-12.981 19.773-12.981-9.055-12.981-19.773z"/><path d="m137.211 251.197c24.193 40.179 64.071 14.53 97.208 14.53 33.516 0 73.043 25.602 97.208-14.53 23.89-39.676-4.829-85.184-34.463-85.184-11.353 0-16.5-4.925-23.624-11.742-8.142-7.791-18.274-17.486-39.121-17.486s-30.979 9.696-39.121 17.486c-7.124 6.817-12.272 11.742-23.624 11.742-29.584.001-58.389 45.449-34.463 85.184zm34.463-70.183c17.373 0 26.204-8.449 33.995-15.904 7.472-7.149 13.924-13.324 28.75-13.324s21.279 6.175 28.75 13.324c7.791 7.455 16.622 15.904 33.995 15.904 17.747 0 39.507 32.727 21.613 62.446-11.479 19.063-26.262 17.017-51.403 11.76-28.695-6.001-37.21-6.002-65.908 0-25.141 5.257-39.925 7.303-51.403-11.76-17.915-29.752 3.916-62.446 21.611-62.446z"/><path d="m333.03 325.49h-197.222c-4.142 0-7.5 3.358-7.5 7.5 0 4.143 3.358 7.5 7.5 7.5h197.222c4.142 0 7.5-3.357 7.5-7.5 0-4.141-3.358-7.5-7.5-7.5z"/><path d="m333.03 379.042h-197.222c-4.142 0-7.5 3.358-7.5 7.5s3.358 7.5 7.5 7.5h197.222c4.142 0 7.5-3.358 7.5-7.5s-3.358-7.5-7.5-7.5z"/><path d="m53.202 203.585c-4.143 0-7.5 3.358-7.5 7.5v213.036c0 24.149 19.244 43.875 43.2 44.679.804 23.956 20.531 43.2 44.679 43.2h270.083c34.536 0 62.634-28.097 62.634-62.633v-343.571c0-28.112-18.889-52.713-45.553-60.257-7.461-26.25-31.633-45.539-60.243-45.539h-270.083c-24.657 0-44.717 20.061-44.717 44.718v136.367c0 4.142 3.357 7.5 7.5 7.5 4.142 0 7.5-3.358 7.5-7.5v-136.367c0-16.387 13.331-29.718 29.717-29.718h270.083c24.738 0 45.444 19.071 47.461 43.74.391 4.796.036-6.735.172 219.227 0 4.142 3.358 7.5 7.5 7.5s7.5-3.358 7.5-7.5c-.001-224.771.001-215.206-.001-215.653 16.791 7.536 28.163 24.455 28.163 43.482v343.571c0 26.265-21.369 47.633-47.634 47.633h-270.081c-15.864 0-28.865-12.496-29.677-28.162h256.598c34.537 0 62.634-28.097 62.634-62.634v-98.238c0-4.142-3.358-7.5-7.5-7.5s-7.5 3.358-7.5 7.5c-.329 103.043.74 99.494-.969 107.826-4.449 21.686-23.682 38.046-46.664 38.046-14.677 0-255.098 0-270.083 0-16.386 0-29.718-13.332-29.718-29.718v-213.035c-.001-4.142-3.359-7.5-7.501-7.5z"/></g></g></svg>