<svg id="Capa_1" enable-background="new 0 0 512 512" height="512" viewBox="0 0 512 512" width="512" xmlns="http://www.w3.org/2000/svg"><g><g><path d="m482.271 366.117-4.684-5.153c-5.124-5.637-13.989-5.637-19.113 0l-17.356 19.094c-5.124 5.637-13.989 5.637-19.113 0l-17.356-19.094c-5.124-5.637-13.989-5.637-19.113 0l-17.356 19.094c-5.124 5.637-13.989 5.637-19.113 0l-17.356-19.094c-5.124-5.637-13.989-5.637-19.113 0l-17.356 19.094c-5.124 5.637-13.989 5.637-19.113 0l-17.356-19.094c-5.124-5.637-13.989-5.637-19.113 0l-23.069 25.38c-2.448 2.693-5.918 4.228-9.557 4.228h-78.542l-33.954 67.046h375.964c18.777 0 33.998-15.221 33.998-33.998 0-21.266-7.926-41.767-22.229-57.503z" fill="#a19dae"/><path d="m379.14 117.136.332 6.956c.363 7.609-5.906 13.878-13.515 13.515l-25.774-1.229c-7.609-.363-13.878 5.906-13.515 13.515l1.229 25.774c.363 7.609-5.906 13.878-13.515 13.515l-25.774-1.229c-7.609-.363-13.878 5.906-13.515 13.515l1.229 25.774c.363 7.609-5.906 13.878-13.515 13.515l-25.774-1.229c-7.609-.363-13.878 5.906-13.515 13.515l1.229 25.774c.363 7.609-5.906 13.878-13.515 13.515l-34.259-1.634c-3.635-.173-7.174 1.195-9.747 3.768l-55.538 55.538-71.418-23.4 265.847-265.847c13.277-13.277 34.803-13.277 48.08 0 15.037 15.037 23.93 35.138 24.943 56.379z" fill="#a19dae"/><path d="m188.548 390.572h-60.056l-33.954 67.045h65.695c16.574-17.747 27.114-41.195 28.315-67.045z" fill="#938ea3"/><path d="m111.688 350.004 42.434-42.434c-17.921-16.327-41.468-26.573-67.35-27.467l-46.502 46.501z" fill="#938ea3"/><circle cx="83.084" cy="385.616" fill="#b2b0bc" r="75.584"/><circle cx="83.084" cy="385.616" fill="#c7c5cb" r="29.764"/></g><g><path d="m120.348 385.606c0-20.547-16.717-37.264-37.264-37.264-20.548 0-37.265 16.717-37.265 37.264 0 20.548 16.717 37.265 37.265 37.265 20.547 0 37.264-16.717 37.264-37.265zm-59.529 0c0-12.276 9.988-22.264 22.265-22.264 12.276 0 22.264 9.988 22.264 22.264 0 12.277-9.988 22.265-22.264 22.265-12.277 0-22.265-9.988-22.265-22.265z"/><path d="m452.924 355.91-17.356 19.094c-2.147 2.362-5.863 2.367-8.014 0l-17.355-19.094c-8.079-8.889-22.106-8.92-30.213 0l-17.356 19.094c-2.147 2.362-5.863 2.367-8.014 0l-17.356-19.094c-8.079-8.889-22.106-8.92-30.212 0l-17.356 19.094c-2.147 2.362-5.863 2.367-8.014 0l-17.356-19.094c-8.079-8.889-22.105-8.92-30.212 0l-23.07 25.38c-1.024 1.126-2.484 1.772-4.007 1.772h-40.93c-.636-20.988-9.084-40.036-22.542-54.336l28.967-28.967c1.077-1.076 2.57-1.651 4.086-1.58l34.259 1.634c11.979.568 21.939-9.299 21.364-21.363l-1.229-25.774c-.153-3.189 2.474-5.821 5.666-5.666l25.774 1.229c12.059.57 21.935-9.379 21.364-21.364l-1.229-25.773c-.153-3.208 2.491-5.817 5.666-5.667l25.774 1.229c11.984.566 21.939-9.302 21.364-21.364l-1.229-25.773c-.153-3.192 2.478-5.82 5.666-5.667l25.774 1.229c11.993.572 21.937-9.323 21.364-21.364-.645-3.025 2.336-38.482-27.463-68.28-16.18-16.18-42.507-16.18-58.687 0l-147.456 147.457c-2.929 2.929-2.929 7.677 0 10.606s7.678 2.929 10.606 0l147.458-147.457c10.332-10.332 27.142-10.332 37.474 0 25.491 25.491 22.419 55.198 23.086 58.388.152 3.187-2.472 5.818-5.666 5.667l-25.774-1.229c-12.014-.577-21.936 9.344-21.364 21.363l1.229 25.774c.152 3.176-2.456 5.815-5.666 5.666l-25.773-1.229c-12.002-.571-21.938 9.323-21.365 21.364l1.229 25.774c.153 3.203-2.492 5.821-5.666 5.666l-25.775-1.229c-12.01-.577-21.937 9.342-21.363 21.364l1.229 25.774c.153 3.201-2.484 5.815-5.666 5.666l-34.259-1.634c-5.732-.271-11.35 1.897-15.408 5.956l-29.572 29.572c-16.005-11.805-36.573-17.932-57.833-15.771l68.232-68.232c2.929-2.929 2.929-7.678 0-10.606-2.929-2.929-7.678-2.929-10.606 0l-88.26 88.26c-26.096 14.026-43.883 41.587-43.883 73.231 0 45.813 37.271 83.084 83.084 83.084 8.387 0 16.482-1.261 24.121-3.583h274.894c4.142 0 7.5-3.358 7.5-7.5s-3.358-7.5-7.5-7.5h-246.64c16.05-13.063 26.694-31.652 29.774-52.046h41.802c5.74 0 11.246-2.436 15.106-6.683l23.07-25.381c2.147-2.362 5.862-2.366 8.013 0l17.356 19.095c8.08 8.889 22.106 8.919 30.213 0l17.356-19.095c2.147-2.362 5.862-2.366 8.013 0l17.356 19.095c8.08 8.889 22.106 8.919 30.213 0l17.356-19.095c2.147-2.361 5.863-2.366 8.014 0l17.355 19.095c8.08 8.889 22.106 8.919 30.213 0l17.356-19.095c2.147-2.362 5.862-2.366 8.013 0 1.735 2.657 24.962 21.618 24.962 57.613 0 14.611-11.887 26.498-26.498 26.498h-58.404c-4.142 0-7.5 3.358-7.5 7.5s3.358 7.5 7.5 7.5h58.404c22.882 0 41.498-18.616 41.498-41.498 0-42.225-27.188-65.119-28.862-67.701-8.096-8.904-22.122-8.902-30.214.001zm-437.924 29.696c0-36.951 29.96-68.083 68.062-68.083h.021c.032 0 .064.002.096.002 37.333.034 67.989 30.432 67.989 68.081 0 37.199-30.307 68.084-68.084 68.084-37.542 0-68.084-30.542-68.084-68.084z"/></g></g></svg>