<svg id="Capa_1" enable-background="new 0 0 512 512" height="512" viewBox="0 0 512 512" width="512" xmlns="http://www.w3.org/2000/svg"><g><g><path d="m53.109 206.89c-108.828 43.134 2.362 168.751 71.78 160.281z" fill="#423e4f"/><path d="m364.266 206.89c108.828 43.134-2.362 168.751-71.78 160.281z" fill="#423e4f"/><path d="m307.094 81.348c17.063 12.507 30.794 29.574 40.023 50.405 36.703 82.838 17.28 187.021-54.632 245.065-23.732 19.155-52.939 32.117-83.798 32.117s-60.066-12.961-83.798-32.117c-71.912-58.044-91.334-162.227-54.632-245.065 18.459-41.662 54.922-68.268 100.043-73.451 21.548-2.475 44.436-1.037 65.369 4.916z" fill="#4f4c5f"/><path d="m259.652 115.491c16.766 8.098 30.911 19.606 38.953 37.756 13.556 30.596 17.115 65.872 10.02 99.33-7.098 33.474-24.665 62.934-49.467 82.952-16.253 13.12-34.178 20.345-50.471 20.345-16.293 0-34.218-7.225-50.471-20.345-24.802-20.018-42.369-49.478-49.467-82.952-4.623-21.804-4.722-44.38-.479-65.93 5.575-28.308 21.897-53.565 46.254-69.032 23.659-15.024 58.879-24.463 105.128-2.124z" fill="#fff"/><path d="m379.106 174.76-49.272-26.671-62.462 38.566c-.043.132-.086.264-.13.396-7.121 21.642 8.085 44.17 30.839 45.326 18.645.947 42.745 1.656 73.105 1.656 8.355 0 16.005-.502 23.009-1.428z" fill="#ff9c20"/><path d="m379.106 174.76c-.029.897-.039 1.794-.039 2.692 0 19.661 5.402 38.329 15.127 55.153 19.574-2.547 34.103-8.306 44.889-15.272 14.645-9.454 22.382-21.128 26.414-29.984l-.01-.01-23.685-31.311h-36.28z" fill="#4f4c5f"/><path d="m379.106 174.76c-2.595-.048-5.229-.068-7.92-.068-51.15 0-83.565 5.653-103.814 11.963 22.507-69.152-31.701-123.437-31.701-123.437s114.455-21.668 194.614 18.6z" fill="#ffb25a"/><path d="m485.525 196.052c-5.335-2.942-11.924-5.933-20.028-8.702l-.01-.01c-19.198-6.57-46.857-11.953-86.382-12.58.907-36.351 20.317-69.171 51.179-92.942 36.389 18.291 65.698 49.336 74.043 100.978 1.698 10.516-9.473 18.388-18.802 13.256z" fill="#423e4f"/><ellipse cx="201.007" cy="172.15" fill="#ff8997" rx="28.319" ry="22.552"/><path d="m192.868 420.819-1.445-6.661c-3.003-13.844-15.251-23.72-29.417-23.72-14.166 0-26.414 9.877-29.417 23.72l-1.445 6.661c-2.807 12.94 7.052 25.166 20.293 25.166h21.139c13.241 0 23.099-12.226 20.292-25.166z" fill="#ffb25a"/><path d="m224.507 420.819 1.445-6.661c3.003-13.844 15.251-23.72 29.417-23.72 14.166 0 26.414 9.877 29.417 23.72l1.445 6.661c2.807 12.94-7.052 25.166-20.293 25.166h-21.139c-13.241 0-23.099-12.226-20.292-25.166z" fill="#ffb25a"/><circle cx="395.477" cy="361.923" fill="#80dfb5" r="92.931"/><path d="m326.604 352.067c0-29.352 12.201-55.969 32.002-75.467-32.981 14.272-56.06 47.1-56.06 85.323 0 51.324 41.607 92.931 92.931 92.931 2.572 0 5.118-.109 7.638-.314-44.502-14.535-76.511-54.922-76.511-102.473z" fill="#36d39a"/><path d="m148.876 417.417c0-10.103 3.932-19.411 10.54-26.868-13.047 1.119-24.009 10.617-26.827 23.609l-1.445 6.661c-2.807 12.94 7.052 25.166 20.293 25.166h9.564c-7.561-7.718-12.125-17.682-12.125-28.568z" fill="#ff9c20"/><path d="m242.238 417.417c0-10.103 3.932-19.411 10.54-26.868-13.047 1.119-24.009 10.617-26.827 23.609l-1.445 6.661c-2.807 12.94 7.052 25.166 20.293 25.166h9.564c-7.561-7.718-12.125-17.682-12.125-28.568z" fill="#ff9c20"/><path d="m139.876 196.867c0-30.959 8.871-59.923 24.29-84.682-3.401 1.683-6.617 3.51-9.641 5.431-24.356 15.467-40.679 40.724-46.254 69.032-4.244 21.549-4.145 44.125.479 65.93 7.098 33.474 24.665 62.934 49.467 82.953 16.253 13.12 34.178 20.345 50.471 20.345s0 0 0 0c10.39 0 21.443-2.95 32.303-8.481-59.619-25.873-101.115-83.539-101.115-150.528z" fill="#fde9b6"/></g><g><path d="m236.759 138.996c-3.123-2.721-7.861-2.397-10.582.727-5.704 6.543-15.851 6.561-21.569 0-2.721-3.123-7.459-3.448-10.582-.727s-3.448 7.459-.727 10.582c11.691 13.416 32.507 13.401 44.186 0 2.722-3.123 2.396-7.86-.726-10.582z"/><path d="m394.85 432.289c4.142 0 7.5-3.359 7.5-7.5v-7.572c30.659-6.438 38.913-51.191 5.735-62.919-1.885-.667-3.812-1.363-5.735-2.087v-31.605c4.569 1.252 7.284 3.538 7.542 3.764 3.047 2.755 7.752 2.547 10.543-.479 2.808-3.045 2.617-7.79-.428-10.598-.395-.364-6.938-6.254-17.657-8.013v-6.203c0-4.142-3.358-7.5-7.5-7.5s-7.5 3.358-7.5 7.5v6.761c-24.664 5.723-29.656 36.116-14.106 48.312 3.598 2.822 8.05 5.408 14.106 8.125v40.523c-5.139-.452-8.546-1.805-14.237-5.528-3.467-2.267-8.116-1.296-10.383 2.171-2.268 3.466-1.296 8.115 2.171 10.383 8.761 5.731 14.805 7.524 22.449 8.016v6.95c0 4.141 3.358 7.499 7.5 7.499zm-12.348-89.942c-5.451-4.275-3.711-16.9 4.848-20.816v23.988c-1.808-1.021-3.452-2.078-4.848-3.172zm20.585 26.095c17.304 6.116 12.971 27.515-.736 33.103v-33.366c.248.088.484.173.736.263z"/><path d="m433.648 75.111c-.001 0-.001 0-.001 0-42.752-21.477-94.745-25.558-130.816-25.2-33.952.337-60.011 4.44-66.846 5.622-20.844-5.672-43.809-7.303-66.561-4.689-25.363 2.913-48.82 12.495-67.835 27.709-3.235 2.588-3.759 7.308-1.171 10.542s7.308 3.759 10.543 1.17c16.81-13.449 37.618-21.927 60.175-24.518 20.714-2.38 41.58-.95 60.487 4.132 9.735 11.033 17.273 22.93 22.83 35.075-46.695-19.385-82.079-7.577-103.972 6.326-25.45 16.162-43.526 43.104-49.595 73.918-19.383 98.42 49.878 178.187 107.782 178.187 43.061 0 99.753-47.045 109.543-122.663 11.68.367 23.109.638 38.244.757-1.226 11.12-3.096 20.74-5.67 30.483-33.348 16.589-56.837 51.893-55.712 92.775-8.451 7.632-17.496 14.383-27.684 20.185-15.705-5.324-34.145.236-43.767 15.445-10.015 1.435-19.893 1.435-29.907 0-9.721-15.365-28.255-20.704-43.768-15.445-7.023-4-13.863-8.676-20.371-13.93-82.289-66.429-87.804-194.917-38.22-260.536 2.498-3.305 1.843-8.009-1.462-10.506s-8.01-1.842-10.506 1.462c-20.521 27.156-31.797 66.509-34.274 100.703-45.161 20.183-47.188 53.183-44.221 71.415 7.683 47.225 62.828 96.603 110.06 101.199 7.665 7.039 15.702 13.348 24.692 19.074-10.552 10.356-10.625 21.719-11.854 25.438-3.824 17.634 9.618 34.258 27.624 34.258h21.14c18.042 0 31.441-16.661 27.624-34.258l-.686-3.16c6.274.488 12.072.488 18.352 0-.028 1.253-5.09 14.463 4.934 26.895 5.393 6.687 13.413 10.523 22.004 10.523h21.14c18.042 0 31.441-16.659 27.624-34.258-1.229-3.718-1.301-15.08-11.854-25.438 8.238-5.248 13.081-9.304 15.496-11.144 9.578 45.469 50.004 79.709 98.281 79.709 24.034 0 47.292-8.626 65.489-24.289 3.139-2.703 3.493-7.438.791-10.578s-7.438-3.494-10.578-.792c-15.476 13.322-35.258 20.658-55.702 20.658-45.443 0-82.701-35.666-85.281-80.473-2.825-49.063 36.308-90.398 85.281-90.398 66.145 0 107.135 72.384 73.505 128.997-2.115 3.561-.943 8.163 2.618 10.279 3.564 2.116 8.164.943 10.279-2.618 34.678-58.378 2.168-134.404-64.561-149.26.2-9.593-1.718-18.7-5.689-26.953 23.889-6.014 45.027-18.686 57.487-40.271 13.522 5.329 14.632 8.487 22.588 8.487 12.116 0 22.084-10.866 20.034-23.559-7.847-48.561-34.118-84.388-78.083-106.487zm-389.113 144.008c.18 49.553 16.774 98.414 47.594 135.783-54.226-20.41-114.351-99.548-47.594-135.783zm128.021 219.381h-21.14c-8.467 0-14.755-7.819-12.964-16.077l1.445-6.662c2.525-11.64 13.999-19.61 26.022-17.46 8.864 1.589 16.2 8.444 18.156 17.46l1.445 6.662c1.794 8.275-4.514 16.077-12.964 16.077zm93.368 0h-21.14c-8.467 0-14.755-7.819-12.964-16.077l1.445-6.662c2.305-10.63 12.3-18.736 24.149-17.712 9.688.9 17.937 8.069 20.029 17.712l1.445 6.662c1.794 8.275-4.514 16.077-12.964 16.077zm150.403-354.851c-24.662 22.053-41.376 50.859-44.305 83.543-29.679-.104-65.317 1.945-94.091 8.81 7.861-38.112-4.521-76.694-27.879-107.374 30.033-3.887 106.205-10.186 166.275 15.021zm-33.918 142.55c-16.18.99-63.964-.297-83.961-1.31-16.629-.845-28.126-16.297-24.953-32.226 30.062-8.505 66.923-10.47 98.16-10.47.596 14.547 4.024 29.505 10.754 44.006zm-173.74 122.185c-48.097 0-110.654-70.97-93.063-160.288 11.871-60.285 75.575-102.263 146.059-63.112 5.526 20.899 4.598 40.107-1.44 59.346-.127.567-2.98 7.734-2.104 17.44 1.806 20.098 18.021 37.007 39.566 38.1 1.608.082 3.902.19 5.488.264-9.337 67.646-59.634 108.25-94.506 108.25zm159.131-83.034c1.524-7.151 2.957-16.073 3.753-23.814 8.848-.015 17.461-.638 24.644-1.63 3.978 6.556 6.035 13.861 6.148 21.825-12.062-.811-23.923.575-34.545 3.619zm30.457-40.94c-6.992-13.452-10.822-27.324-11.559-41.955 22.209.73 46.565 3.251 67.831 9.327-12.392 19.136-33.514 28.823-56.272 32.628zm90.889-34.925c-28.815-15.894-69.049-20.936-102.066-22.034 3.104-30.637 20.059-57.049 44.062-76.73 36.881 19.955 59.001 51.311 65.781 93.271.705 4.368-3.933 7.602-7.777 5.493z"/></g></g></svg>