<svg id="Capa_1" enable-background="new 0 0 512 512" height="512" viewBox="0 0 512 512" width="512" xmlns="http://www.w3.org/2000/svg"><g><g><path d="m133.731 275.816c-49.143 18.823-96.677-14.222-95.405-71.754l.021-.824c.152-6.672-4.446-12.723-11.212-14.168-7.655-1.635-15.186 3.245-16.821 10.9-17.768 83.186 51.018 151.417 138.666 136.124z" fill="#ffbfc5"/><path d="m491.704 27.917-6.713 1.647c-10.512 2.578-20.117 7.988-27.771 15.642l-89.562 89.562 29.685 29.685 89.562-89.562c7.654-7.654 13.063-17.258 15.642-27.77l1.647-6.713c1.847-7.534-4.958-14.339-12.49-12.491z" fill="#f7cec4"/><path d="m161.811 340.615-110.042 110.042c-5.397 5.397-5.397 14.147 0 19.544l10.14 10.14c5.397 5.397 14.147 5.397 19.544 0l110.042-110.042z" fill="#f7cec4"/><circle cx="226.152" cy="117.031" fill="#e7886e" r="63.669"/><circle cx="226.152" cy="115.547" fill="#ffbfc5" r="26.778"/><path d="m161.811 340.615-44.151 44.151c5.496 7.719 11.657 15.028 18.478 21.849l.379.378c3.109 3.09 6.464 5.845 10.003 8.281l44.975-44.975z" fill="#f3bdae"/><path d="m431.463 115.077c-4.156-.832-7.277-4.27-7.717-8.485-.744-7.13-2.207-14.943-4.767-23.144l-51.319 51.319 29.685 29.685 45.467-45.467c-3.542-1.778-7.348-3.107-11.349-3.908z" fill="#f3bdae"/><path d="m133.731 275.816c-16.843 6.451-33.496 6.808-48.061 2.176-.44 19.571 2.104 38.542 7.438 56.419 17.133 4.312 36.016 5.146 55.872 1.682z" fill="#ffa0ab"/><path d="m425.571 144.493-23.286-4.664c-5.343-1.07-8.998-6.033-8.399-11.45 1.558-14.093.849-41.874-21.738-68.659-7.173-8.507-20.885-6.364-25.057 3.952-4.539 11.223-11.545 25.211-21.722 37.592-5.124 6.233-13.075 9.394-21.104 8.591-47.54-4.753-98.574 12.438-137.007 50.871-64.779 64.779-69.21 165.373-9.907 224.675.104.104.209.208.313.312 16.516 16.414 43.298 16.129 59.763-.336l174.49-174.49 41.26-41.26c8.41-8.41 4.056-22.799-7.606-25.134z" fill="#ed9b83"/><path d="m274.793 335.77c-15.026-15.026-39.387-15.026-54.413 0l-9.828 9.828c-11.161 11.161-11.161 29.257 0 40.418 11.161 11.161 29.257 11.161 40.418 0l23.823-23.823c7.296-7.296 7.297-19.126 0-26.423z" fill="#ffbfc5"/><path d="m392.823 217.74c-15.026-15.026-39.387-15.026-54.413 0l-9.828 9.828c-11.161 11.161-11.161 29.257 0 40.418 11.161 11.161 29.257 11.161 40.418 0l23.823-23.823c7.297-7.296 7.297-19.126 0-26.423z" fill="#ffbfc5"/><path d="m137.463 256.382c0-37.186 12.511-71.552 33.688-99.43-1.311 1.236-2.61 2.491-3.893 3.774-64.779 64.779-69.21 165.373-9.907 224.676.104.104.209.208.313.312 13.834 13.749 34.868 15.773 51.011 6.396-43.192-30.708-71.212-80.065-71.212-135.728z" fill="#e7886e"/></g><g><path d="m327.225 157.52h-14.686v-14.686c0-4.142-3.358-7.5-7.5-7.5s-7.5 3.358-7.5 7.5v14.686h-14.686c-4.142 0-7.5 3.358-7.5 7.5s3.358 7.5 7.5 7.5h14.686v14.686c0 4.142 3.358 7.5 7.5 7.5s7.5-3.358 7.5-7.5v-14.686h14.686c4.142 0 7.5-3.357 7.5-7.5 0-4.141-3.358-7.5-7.5-7.5z"/><path d="m489.916 20.639c-3.361 1.218-21.561 2.831-38 19.27l-53.488 53.488c-3.322-12.094-9.512-25.418-20.548-38.505-10.807-12.815-31.448-9.588-37.743 5.975-5.535 13.686-12.646 26.01-20.563 35.641-3.495 4.251-8.936 6.455-14.564 5.891-3.106-.311-6.23-.53-9.366-.66-11.753-54.067-79.751-75.092-119.817-35.026-23.141 23.142-27.415 58.403-11.198 86.111-34.968 33.672-53.963 77.27-56.194 120.743-34.012 1.287-63.584-25.271-62.611-69.307l.021-.844c.396-17.324-18.862-28.124-33.456-18.667-4.858 3.148-8.2 8-9.409 13.661-9.943 46.551 5.336 91.366 40.871 119.882 3.23 2.592 7.952 2.075 10.543-1.156 2.592-3.23 2.075-7.951-1.156-10.543-31.019-24.891-44.324-64.162-35.59-105.05.373-1.743 1.401-3.237 2.897-4.206 4.503-2.92 10.424.438 10.304 5.717l-.021.85c-1.163 52.615 35.338 85.918 77.424 84.691.552 14.423 2.976 28.429 7.236 41.832-13.721-.976-26.782-4.204-38.948-9.637-3.783-1.688-8.218.009-9.906 3.791-1.689 3.782.008 8.217 3.79 9.906 15.81 7.059 32.903 10.821 50.882 11.217 2.465 5.608 5.269 11.082 8.434 16.383l-83.275 83.273c-8.312 8.312-8.312 21.838 0 30.151l10.14 10.14c8.312 8.312 21.838 8.313 30.151 0l83.333-83.333c14.468 5.322 30.632 3.673 43.803-4.609 13.573 7.168 30.882 5.116 42.38-6.383l23.823-23.823c9.73-9.73 10.179-25.27 1.364-35.546l51.675-51.675c13.559 6.517 30.137 4.046 41.169-6.986l23.823-23.823c9.729-9.729 10.179-25.27 1.364-35.546l38.99-38.99c10.683-10.683 7.913-28.621-5.378-35.631l21.52-21.52c2.929-2.929 2.929-7.678 0-10.606-2.929-2.929-7.678-2.929-10.606 0l-27.798 27.798c-12.925-2.729-13.238-2.204-14.315-3.665-1.667-2.254.911-4.324-.312-19.864l60.932-60.932c13.04-13.04 27.446-14.058 30.967-15.308 2.065-.507 3.927 1.346 3.419 3.419-1.247 3.511-2.263 17.923-15.308 30.967l-17.002 17.002c-2.929 2.929-2.929 7.677 0 10.606s7.678 2.929 10.606 0l17.002-17.003c16.435-16.435 18.058-34.658 19.27-38 1.498-6.106-.262-12.406-4.708-16.852s-10.744-6.207-16.853-4.709zm-282.046 101.018c-4.13-12.421 5.059-25.382 18.282-25.382 7.933 0 14.583 4.736 17.566 11.347-12.343 3.342-24.359 8.046-35.848 14.035zm18.281-60.762c25.595 0 47.459 17.158 54.072 40.918-7.292.363-14.539 1.199-21.707 2.483-4.711-13.531-17.437-23.02-32.364-23.02-24.796 0-41.177 25.435-31.431 47.928-6.438 4.056-12.641 8.528-18.598 13.406-19.247-37.353 8.178-81.715 50.028-81.715zm-69.656 333.804-80.345 80.345c-2.464 2.464-6.474 2.464-8.938 0l-10.14-10.14c-2.465-2.466-2.474-6.463 0-8.938l81.18-81.18c4.484 5.977 12.449 15.321 18.243 19.913zm112.994-37.803-23.823 23.823c-7.772 7.773-20.12 8.178-28.423 1.255-9.629-8.069-10.007-22.448-1.389-31.066l9.828-9.828c11.856-11.864 31.578-12.229 43.807 0 4.361 4.36 4.361 11.455 0 15.816zm118.03-118.03-23.823 23.823c-7.832 7.832-20.192 8.106-28.37 1.302-8.31-6.91-9.999-18.91-4.146-27.798 3.357-4.138-2.101 1.56 12.532-13.144 11.798-11.814 31.54-12.266 43.807 0 4.361 4.361 4.361 11.457 0 15.817zm40.354-74.536-40.255 40.255c-17.565-9.661-40.012-6.642-54.512 7.857-10.132 10.155-9.982 9.932-11.1 11.167-12.177 13.53-12.346 33.744-.822 47.41l-51.597 51.596c-7.781-4.28-17.476-6.41-27.342-5.266-16.145-26.12-52.421-30.219-74.004-8.636-2.929 2.929-2.929 7.678 0 10.606 2.928 2.929 7.677 2.929 10.606 0 13.49-13.49 35.941-12.591 48.228 2.527-9.863 4.907-14.06 11.179-21.827 18.454-12.98 12.972-13.76 33.178-3.502 46.962-12.183 5.527-26.53 3.642-36.797-5.029-3.791-3.217-12.184-12.286-19.026-22.6-68.647-103.576 26.159-255.456 157.597-242.31 10.628 1.062 20.959-3.159 27.644-11.292 8.997-10.945 16.695-24.249 22.88-39.542 2.055-5.081 8.838-6.117 12.371-1.929 18.88 22.39 19.943 45.082 19.916 44.964 1.847 15.755-1.604 19.067 1.119 26.354 2.111 5.652 7.016 10.038 13.362 11.309l23.287 4.664c5.792 1.162 7.956 8.297 3.774 12.479z"/></g></g></svg>