<svg id="Capa_1" enable-background="new 0 0 512 512" height="512" viewBox="0 0 512 512" width="512" xmlns="http://www.w3.org/2000/svg"><g><g><path d="m392.767 434.713-23.72-74.432h-226.093l-23.72 74.432c-8.538 26.792 11.455 54.147 39.575 54.147h194.384c28.118 0 48.112-27.356 39.574-54.147z" fill="#b08bd7"/><path d="m159.131 54.671s-67.487-65.77-131.35 45.551 39.841 151.747 80.854 96.673z" fill="#e7886e"/><path d="m352.869 54.671s67.487-65.77 131.35 45.551-39.841 151.747-80.854 96.673z" fill="#ed9b83"/><circle cx="256" cy="187.708" fill="#dadada" r="164.568"/><path d="m125.542 154.235c0-35.612 11.323-68.983 31.076-97.696-39.603 30.052-65.185 77.62-65.185 131.169 0 90.888 73.68 164.567 164.568 164.567 17.641 0 34.628-2.787 50.559-7.925-103.495-19.005-181.018-96.898-181.018-190.115z" fill="#ccccca"/><path d="m160.813 389.66c0-10.432.488-20.208 1.402-29.38h-19.262l-23.72 74.432c-8.538 26.792 11.455 54.147 39.574 54.147h40.43c-23.969-26.791-38.424-61.4-38.424-99.199z" fill="#a47cd1"/><path d="m387.248 303.005c-7.747-9.1-18.129-14.322-28.91-15.699.049-1.066.081-2.137.081-3.216 0-37.687-30.551-68.239-68.239-68.239-24.505 0-45.982 12.924-58.017 32.32-16.687-9.333-38.176-6.918-52.363 7.269-9.357 9.357-13.586 21.891-12.712 34.129-4.819-1.037-9.925-1.302-15.2-.584-20.783 2.829-36.861 20.381-37.834 41.332-1.168 25.155 18.88 45.916 43.777 45.916h197.649c11.562 0 22.78-4.584 30.598-13.102.404-.441.802-.891 1.194-1.352 14.302-16.835 14.295-41.955-.024-58.774z" fill="#ed9b83"/><circle cx="300.177" cy="284.313" fill="#f7cec4" r="17.619"/><circle cx="226.904" cy="316.668" fill="#f7cec4" r="24.279"/><ellipse cx="157.201" cy="184.857" fill="#ff8997" rx="36.455" ry="29.031"/><ellipse cx="354.798" cy="184.857" fill="#ff8997" rx="36.455" ry="29.031"/><path d="m225.54 245.165c-15.449-5.513-33.368-2.096-45.738 10.274-9.357 9.356-13.586 21.891-12.712 34.128-4.819-1.037-9.925-1.302-15.199-.584-20.783 2.828-36.861 20.38-37.834 41.332-1.168 25.154 18.88 45.916 43.777 45.916h3.265c3.096-73.405 31.656-111.829 64.441-131.066z" fill="#e7886e"/></g><g><path d="m300.166 309.453c13.854 0 25.126-11.271 25.126-25.126 0-13.854-11.272-25.125-25.126-25.125s-25.126 11.271-25.126 25.125c0 13.855 11.271 25.126 25.126 25.126zm0-35.247c5.581 0 10.122 4.54 10.122 10.121s-4.541 10.122-10.122 10.122-10.122-4.541-10.122-10.122 4.54-10.121 10.122-10.121z"/><path d="m195.085 316.691c0 17.528 14.26 31.788 31.788 31.788s31.788-14.26 31.788-31.788-14.26-31.788-31.788-31.788-31.788 14.26-31.788 31.788zm48.571 0c0 9.254-7.529 16.784-16.784 16.784-9.254 0-16.784-7.529-16.784-16.784s7.529-16.784 16.784-16.784 16.784 7.529 16.784 16.784z"/><path d="m190.433 406.448c-4.143 0-7.502 3.359-7.502 7.502v12.595c0 4.143 3.359 7.502 7.502 7.502s7.502-3.359 7.502-7.502v-12.595c0-4.143-3.359-7.502-7.502-7.502z"/><path d="m321.52 406.448c-4.143 0-7.502 3.359-7.502 7.502v12.595c0 4.143 3.359 7.502 7.502 7.502s7.502-3.359 7.502-7.502v-12.595c0-4.143-3.358-7.502-7.502-7.502z"/><path d="m278.186 420.514c-3.124-2.721-7.863-2.397-10.584.727-6.146 7.052-17.087 7.073-23.249 0-2.722-3.123-7.461-3.449-10.584-.727-3.124 2.722-3.449 7.461-.727 10.585 12.137 13.928 33.747 13.912 45.872 0 2.721-3.123 2.395-7.862-.728-10.585z"/><path d="m228.121 168.756c0-4.143-3.359-7.502-7.502-7.502s-7.502 3.359-7.502 7.502c0 22.332 27.034 33.532 42.859 17.91 4.55 4.491 10.795 7.271 17.679 7.271 13.885 0 25.181-11.296 25.181-25.181 0-4.143-3.359-7.502-7.502-7.502s-7.502 3.359-7.502 7.502c0 5.611-4.565 10.177-10.177 10.177-5.611 0-10.177-4.565-10.177-10.177 0-4.143-3.359-7.502-7.502-7.502s-7.502 3.359-7.502 7.502c0 5.611-4.565 10.177-10.177 10.177-5.61-.001-10.176-4.566-10.176-10.177z"/><path d="m156.401 144.608c0 4.143 3.359 7.502 7.502 7.502s7.502-3.359 7.502-7.502c0-5.145 4.186-9.332 9.332-9.332s9.332 4.187 9.332 9.332c0 4.143 3.359 7.502 7.502 7.502s7.502-3.359 7.502-7.502c0-13.419-10.917-24.336-24.336-24.336s-24.336 10.917-24.336 24.336z"/><path d="m306.88 144.608c0 4.143 3.359 7.502 7.502 7.502s7.502-3.359 7.502-7.502c0-5.145 4.186-9.332 9.332-9.332s9.333 4.187 9.333 9.332c0 4.143 3.359 7.502 7.502 7.502s7.502-3.359 7.502-7.502c0-13.419-10.917-24.336-24.337-24.336-13.419 0-24.336 10.917-24.336 24.336z"/><path d="m273.655 143.488c0-5.582-7.915-5.638-17.679-5.638s-17.679.056-17.679 5.638 7.915 10.107 17.679 10.107 17.679-4.525 17.679-10.107z"/><path d="m52.549 76.801c2.613-3.215 2.125-7.94-1.091-10.553-3.215-2.613-7.94-2.125-10.553 1.091-6.798 8.364-13.431 18.161-19.715 29.116-56.854 99.104 12.872 150.344 66.362 126.693 5.556 26.424 17.278 51.286 34.393 72.513-23.339 22.745-20.09 61.865 8.179 80.039l-18.098 56.789c-10.092 31.669 13.493 63.942 46.733 63.942h194.436c33.238 0 56.825-32.271 46.733-63.942l-17.929-56.261c25.659-16.102 31.645-53.786 10.974-78.067-.854-1.003-1.743-1.968-2.66-2.899 6.456-8.056 12.205-16.686 17.116-25.757 1.972-3.644.618-8.197-3.026-10.169-3.645-1.973-8.197-.617-10.169 3.025-4.542 8.39-9.857 16.375-15.844 23.812-3.837-2.133-8.115-3.887-12.52-5.027-1.364-35.358-27.076-64.577-60.804-71.33-4.818-.965-9.8-1.471-14.898-1.471-24.058 0-46.318 11.188-60.622 30.324-30.732-12.054-66.26 7.938-69.841 42.46-8.602-.324-17.468 1.521-25.58 5.729-18.194-22.337-29.807-49.14-33.748-77.483-13.059-94.563 60.469-178.788 155.6-178.788 107.68 0 183.547 106.442 148.626 208.136-1.346 3.919.74 8.187 4.658 9.532 3.918 1.346 8.186-.74 9.532-4.658 2.302-6.705 4.18-13.527 5.631-20.438 53.141 23.475 123.419-27.207 66.34-126.704-23.614-41.162-50.733-64.049-80.605-68.023-27.209-3.621-48.587 9.717-57.742 16.778-58.106-39.455-134.583-39.589-192.888.004-27.989-21.528-63.803-24.639-95.987-.207-3.3 2.505-3.944 7.211-1.439 10.512 2.506 3.3 7.211 3.943 10.511 1.439 32.668-24.799 61.549-11.155 74.325-2.417-46.963 38.55-68.469 96.663-61.917 153.166-18.332 9.889-41.036 7.663-55.516-5.924-32.259-30.269-4.809-90.708 23.043-124.982zm333.083 360.244c7.006 21.982-9.366 44.382-32.437 44.382h-194.437c-23.071 0-39.443-22.4-32.437-44.382l17.581-55.168c11.224 3.125 1.926 1.714 211.581 1.895 4.179 0 8.759-.594 12.661-1.602zm-147.123-184.915c11.302-18.213 30.74-28.781 51.657-28.781 33.501 0 60.755 27.254 60.755 60.755 0 2.917-.243 3.454.131 4.994.541 2.218 2.13 4.198 4.413 5.147 1.832.76 5.538.591 11.589 3.09 37.53 15.495 27.226 71.433-11.571 71.433-210.558-.02-198.569.118-201.623-.211-18.405-1.911-33.294-17.994-32.372-37.867 1.002-21.552 21.523-38.592 43.977-33.773 4.921 1.059 9.412-2.934 9.061-7.868-1.794-24.693 21.173-43.956 45.313-37.773 6.45 1.653 8.242 3.687 10.679 4.226 3.032.671 6.273-.602 7.991-3.372zm170.185-208.755c24.804 3.54 48.038 23.91 69.055 60.545 50.408 87.866-9.644 125.999-50.819 103.788 6.563-56.393-14.91-114.542-61.85-153.113 8.652-5.831 24.592-13.935 43.614-11.22z"/></g></g></svg>