<svg id="Capa_1" enable-background="new 0 0 512 512" height="512" viewBox="0 0 512 512" width="512" xmlns="http://www.w3.org/2000/svg"><g><g><path d="m467.203 358.687-209.268-37.297-209.267 37.297s-5.835 37.033 11.647 84.644c13.317 36.269 47.878 60.361 86.515 60.361h222.212c38.636 0 73.197-24.093 86.515-60.361 17.481-47.611 11.646-84.644 11.646-84.644z" fill="#b08bd7"/><g><path d="m133.564 246.048c-9.935 11.835-27.56 13.338-39.364 3.434-74.787-62.81-53.637-110.362-52.855-138.959l16.699-36.166 34.104 4.613c7.416 19.962 5.14 38.013 3.261 52.956-2.966 23.517-5.76 40.766 34.722 74.767 11.814 9.916 13.358 27.541 3.433 39.355z" fill="#ffb25a"/></g><path d="m94.2 249.482c11.804 9.905 29.429 8.401 39.364-3.434 9.925-11.814 8.381-29.439-3.434-39.354-32.701-27.466-37.162-44-36.106-61.738-6.015 3.229-11.973 7-17.775 11.415-11.873 9.033-22.032 19.987-30.394 32.699 7.634 18.146 22.058 38.335 48.345 60.412z" fill="#ff9c20"/><path d="m188.183 158.305s-140.45-24.302-140.45 140.811l210.203 22.274v-75.16z" fill="#ffb25a"/><path d="m214.872 8.379c-16.593-1.065-31.562 9.992-35.395 26.171-5.972 25.212-7.386 65.691 25.579 105.856l109.68-67.941c-22.765-50.717-70.133-62.178-99.864-64.086z" fill="#ff8f00"/><path d="m287.949 86.977c-10.151-22.614-27.598-36.689-53.338-43.03-2.412-.594-4.793-1.09-7.118-1.503-9.63-1.707-18.734 5.212-19.559 14.958-.005.064-.011.128-.016.192-1.942 23.55 5.363 45.591 21.711 65.51z" fill="#fde9b6"/><path d="m448.764 8.379c16.593-1.065 31.562 9.992 35.395 26.171 5.972 25.212 7.386 65.691-25.579 105.856l-109.68-67.941c22.765-50.717 70.133-62.178 99.864-64.086z" fill="#ff9c20"/><path d="m375.687 86.977c10.151-22.614 27.598-36.689 53.338-43.03 2.412-.594 4.793-1.09 7.118-1.503 9.63-1.707 18.734 5.212 19.559 14.958.005.064.011.128.016.192 1.942 23.55-5.362 45.591-21.711 65.51z" fill="#fde9b6"/><circle cx="331.818" cy="188.138" fill="#ffb25a" r="146.674"/><path d="m230.852 190.865c0-57.379 25.791-109.086 67.055-145.454-64.655 15.304-112.763 73.394-112.763 142.726 0 81.006 65.668 146.674 146.674 146.674 7.385 0 14.641-.552 21.733-1.605-82.877-15.496-122.699-58.244-122.699-142.341z" fill="#ff9c20"/><g fill="#fff"><ellipse cx="244.126" cy="203.821" rx="26.176" ry="32.87" transform="matrix(.002 -1 1 .002 39.771 447.5)"/><ellipse cx="422.295" cy="204.211" rx="26.176" ry="32.871" transform="matrix(.002 -1 1 .002 217.161 626.058)"/></g><path d="m41.345 110.523c.112-3.891-.152-7.436-1.097-10.616-2.367-8.005-9.549-16.589-21.953-26.219-12.18-9.468-14.385-27.022-4.917-39.202 9.458-12.19 27.012-14.395 39.192-4.927 22.196 17.25 33.818 33.91 39.578 49.411z" fill="#fde9b6"/><path d="m96.63 360.715c0-3.575.144-7.123.402-10.648l-48.365 8.62s-5.835 37.033 11.647 84.644c13.317 36.269 47.878 60.361 86.515 60.361h36.538c-53.02-34.223-86.737-85.568-86.737-142.977z" fill="#a47cd1"/><path d="m467.203 284.092h-418.535c-20.599 0-37.297 16.699-37.297 37.297 0 20.599 16.699 37.297 37.297 37.297h418.535c20.599 0 37.297-16.699 37.297-37.297 0-20.599-16.699-37.297-37.297-37.297z" fill="#dadada"/><path d="m117.964 284.092h-69.296c-20.599 0-37.297 16.698-37.297 37.297 0 20.599 16.699 37.297 37.297 37.297h47.996c.368-26.563 7.936-51.799 21.3-74.594z" fill="#ccccca"/></g><g><path d="m256.092 170.963v13.359c0 4.142 3.358 7.5 7.5 7.5s7.5-3.359 7.5-7.5v-13.359c0-4.142-3.358-7.5-7.5-7.5s-7.5 3.359-7.5 7.5z"/><path d="m395.127 170.963v13.359c0 4.142 3.358 7.5 7.5 7.5s7.5-3.359 7.5-7.5v-13.359c0-4.142-3.358-7.5-7.5-7.5s-7.5 3.359-7.5 7.5z"/><path d="m357.996 192.287c0 4.737-3.854 8.592-8.592 8.592-4.737 0-8.592-3.854-8.592-8.592 0-4.142-3.358-7.5-7.5-7.5s-7.5 3.358-7.5 7.5c0 4.737-3.854 8.592-8.592 8.592-4.737 0-8.592-3.854-8.592-8.592 0-4.142-3.358-7.5-7.5-7.5s-7.5 3.358-7.5 7.5c0 20.553 24.666 31.266 39.684 17.229 15.018 14.036 39.684 3.325 39.684-17.229 0-4.142-3.358-7.5-7.5-7.5s-7.5 3.358-7.5 7.5z"/><path d="m53.261 445.922c14.336 39.045 51.934 65.278 93.557 65.278h222.219c41.623 0 79.221-26.233 93.558-65.278 13.368-36.405 13.626-66.726 12.784-80.493 20.809-3.856 36.621-22.129 36.621-44.037 0-24.702-20.097-44.799-44.799-44.799h-9.131c6.446-9.185 11.891-19.024 16.206-29.428 1.587-3.826-.228-8.214-4.054-9.802-3.825-1.586-8.215.228-9.802 4.054-5.277 12.724-12.385 24.542-21.151 35.175h-214.909c-74.529-90.389-10.036-227.634 107.453-227.634 86.489 0 153.094 78.839 136.74 165.229-.771 4.07 1.904 7.994 5.974 8.764 4.072.771 7.994-1.904 8.764-5.974 5.357-28.305 2.85-58.354-8.412-86.296 23.883-37.472 22.291-73.742 16.576-97.866-4.692-19.805-22.85-33.237-43.175-31.927-24.672 1.583-58.974 9.254-84.82 36.342-20.83-4.363-42.457-4.365-63.296 0-25.846-27.088-60.148-34.759-84.821-36.342-20.324-1.304-38.483 12.122-43.174 31.928-5.715 24.124-7.306 60.394 16.577 97.866-2.526 6.267-4.655 12.734-6.349 19.374-14.165-1.252-47.165-1.813-78.064 14.894-4.407-10.831-2.975-20.322-1.493-32.113 1.95-15.507 4.377-34.806-3.674-56.481-2.258-3.934-7.414-25.841-42.007-52.724-15.456-12.016-37.709-9.231-49.717 6.245-11.991 15.426-9.194 37.734 6.238 49.73 10.965 8.513 17.479 16.057 19.364 22.432.984 3.312.755 6.931.79 8.269 0 .001 0 .003-.001.005-.592 21.696-14.89 60.72 20.994 109.104-7.352 16.554-11.942 35.865-13.738 57.826-21.111 3.607-37.235 22.024-37.235 44.148 0 21.908 15.812 40.181 36.621 44.037-.84 13.768-.582 44.088 12.786 80.494zm392.741-361.357c-9.523-10.475-20.497-19.662-32.461-27.173 7.412-3.657 15.705-6.113 23.908-7.569 5.271-.934 10.319 2.807 10.781 8.256l.01.126c.744 9.006-.009 17.831-2.238 26.36zm-65.628-42.784c21.717-18.937 48.825-24.637 68.869-25.924 12.994-.835 24.617 7.751 27.618 20.416 4.611 19.466 6.177 47.905-9.73 77.942-2.99-5.454-6.303-10.7-9.904-15.719 8.506-21.951 5.886-39.58 5.947-41.732-1.198-14.174-14.417-24.181-28.343-21.711-12.883 2.285-25.611 6.667-36.701 13.908-5.657-2.705-11.731-5.176-17.756-7.18zm68.14 398.971c-12.178 33.165-44.117 55.448-79.476 55.448h-222.22c-35.36 0-67.299-22.283-79.476-55.448-11.361-30.94-12.913-59.405-11.933-74.561h404.977c.736 12.144.622 40.533-11.872 74.561zm-233.125-382.592.011-.13c.417-4.925 4.634-8.351 9.135-8.351 2.715 0 15.432 2.722 25.55 7.715-11.964 7.511-22.937 16.697-32.46 27.173-2.23-8.536-2.982-17.37-2.236-26.407zm-28.623-21.887c2.989-12.617 14.555-21.247 27.617-20.416 20.044 1.286 47.152 6.987 68.869 25.924-6.063 2.016-12.19 4.516-17.755 7.182-11.091-7.242-23.816-11.623-36.703-13.909-6.687-1.186-13.616.512-19.009 4.659-9.125 7.015-9.305 17.113-9.35 17.26-1.182 14.33.831 28.276 5.965 41.524-3.601 5.019-6.914 10.265-9.904 15.719-15.907-30.038-14.341-58.477-9.73-77.943zm-163.882 31.489c-8.899-6.918-10.513-19.783-3.594-28.684 6.872-8.856 19.684-10.583 28.665-3.602 16.748 13.015 28.187 26.312 34.8 40.487-8.607 5.346-27.034 16.791-35.296 21.922-3.593-12.083-14.657-22.423-24.575-30.123zm25.725 47.066 39.174-24.33c7.415 32.041-9.023 55.024 3.708 82.567-11.247 8.435-20.587 18.019-28.831 31.427-25.049-37.751-15.817-66.52-14.051-89.664zm-29.753 206.564c0-16.211 13.033-29.531 29.375-29.786l67.974-.012c4.142 0 7.5-3.358 7.5-7.5s-3.358-7.5-7.5-7.5h-60.013c3.294-36.509 15.566-71.255 45.516-92.382 22.092-15.537 51.013-21.139 77.67-19.303-5.893 39.169 3.37 79.231 26.148 111.685h-59.321c-4.142 0-7.5 3.358-7.5 7.5s3.358 7.5 7.5 7.5h320.996c16.431 0 29.798 13.368 29.798 29.799 0 16.43-13.366 29.796-29.795 29.798-5.832.001-419.374 0-418.554 0-16.429-.003-29.794-13.369-29.794-29.799z"/></g></g></svg>