<svg id="Capa_1" enable-background="new 0 0 512 512" height="512" viewBox="0 0 512 512" width="512" xmlns="http://www.w3.org/2000/svg"><g><g><path d="m499.987 149.184c10.303-25.604-1.532-54.76-26.774-65.922-24.214-10.707-52.893-3.198-68.102 18.473-10.252 14.608-25.016 23.944-38.26 29.81-14.702 6.512-31.897-1.034-36.744-16.365-8.772-27.744-29.241-68.095-74.107-68.095s-65.335 40.35-74.106 68.095c-4.847 15.332-22.042 22.877-36.745 16.365-13.244-5.866-28.008-15.202-38.259-29.809-15.21-21.671-43.888-29.181-68.103-18.474-25.241 11.162-37.076 40.318-26.774 65.922 10.19 25.325 27.875 59.728 58.483 100.93 36.657 55.576-6.189 82.145-27.02 193.911-3.996 21.438 6.126 43.046 25.099 53.797 23.836 13.507 54.215 5.928 68.609-17.383 20.873-33.804 55.975-66.891 99.727-17.183 10.158 11.541 28.02 11.541 38.178 0 43.752-49.709 78.854-16.621 99.727 17.183 14.395 23.311 44.773 30.891 68.609 17.383 18.973-10.751 29.094-32.359 25.099-53.797-20.831-111.767-63.676-138.335-27.02-193.911 30.608-41.202 48.292-75.605 58.483-100.93z" fill="#ed9b83"/><path d="m281.875 33.375c0 14.29-11.585 35.689-25.875 35.689s-25.875-21.399-25.875-35.689 11.585-25.875 25.875-25.875 25.875 11.585 25.875 25.875z" fill="#423e4f"/><path d="m108.282 282.964c0-55.039 17.774-106.251 48.307-149.079-3.812.057-7.706-.687-11.439-2.34-13.244-5.866-28.008-15.202-38.259-29.81-15.21-21.671-43.888-29.181-68.103-18.474-25.242 11.162-37.077 40.317-26.774 65.922 10.19 25.325 27.875 59.728 58.483 100.93 36.656 55.576-6.189 82.145-27.02 193.912-3.996 21.438 6.126 43.046 25.099 53.797 23.836 13.507 54.215 5.928 68.609-17.383 8.071-13.07 18.27-26.029 30.273-34.141-37.155-45.499-59.176-102.05-59.176-163.334z" fill="#e7886e"/></g><g><path d="m235.418 135.338c-2.928-2.929-7.677-2.928-10.605 0l-7.508 7.508-7.508-7.508c-2.928-2.929-7.677-2.929-10.605 0-2.929 2.928-2.929 7.677 0 10.605l7.508 7.508-7.508 7.508c-2.929 2.928-2.929 7.677 0 10.605 2.927 2.928 7.676 2.929 10.605 0l7.508-7.508 7.508 7.508c2.927 2.928 7.677 2.929 10.605 0 2.929-2.928 2.929-7.677 0-10.605l-7.508-7.508 7.508-7.508c2.929-2.929 2.929-7.677 0-10.605z"/><path d="m281.885 173.759c1.919 0 3.838-.732 5.302-2.196l7.508-7.508 7.508 7.508c2.927 2.928 7.677 2.929 10.605 0 2.929-2.928 2.929-7.677 0-10.605l-7.508-7.508 7.508-7.508c2.929-2.928 2.929-7.677 0-10.605-2.928-2.929-7.677-2.928-10.605 0l-7.508 7.508-7.508-7.508c-2.928-2.929-7.677-2.929-10.605 0-2.929 2.928-2.929 7.677 0 10.605l7.508 7.508-7.508 7.508c-4.738 4.737-1.317 12.801 5.303 12.801z"/><path d="m72.136 189.45 20.73 20.73c1.464 1.464 3.383 2.196 5.302 2.196 6.621 0 10.04-8.064 5.302-12.801l-20.73-20.73c-2.928-2.929-7.676-2.929-10.605 0-2.928 2.928-2.928 7.676.001 10.605z"/><path d="m91.109 160.28c6.621 0 10.04-8.064 5.302-12.801l-11.013-11.013c-2.928-2.929-7.676-2.928-10.605 0-2.929 2.929-2.929 7.677 0 10.605l11.013 11.013c1.465 1.464 3.384 2.196 5.303 2.196z"/><path d="m413.832 212.377c1.919 0 3.838-.732 5.302-2.196l20.73-20.73c2.929-2.928 2.929-7.677 0-10.605-2.928-2.929-7.676-2.929-10.605 0l-20.73 20.73c-4.738 4.737-1.317 12.801 5.303 12.801z"/><path d="m426.194 158.083 11.013-11.013c2.929-2.929 2.929-7.677 0-10.605-2.928-2.928-7.677-2.929-10.605 0l-11.013 11.013c-2.929 2.928-2.929 7.677 0 10.605 2.927 2.928 7.676 2.93 10.605 0z"/><path d="m97.704 456.591c3.528 2.21 8.15 1.118 10.336-2.372l15.568-24.842c2.199-3.509 1.138-8.137-2.372-10.336-3.511-2.2-8.138-1.138-10.336 2.372l-15.568 24.842c-2.199 3.509-1.137 8.137 2.372 10.336z"/><path d="m96.906 405.381c2.497 0 4.938-1.246 6.361-3.518l8.271-13.198c2.199-3.509 1.138-8.137-2.372-10.336-3.511-2.199-8.138-1.137-10.336 2.372l-8.271 13.197c-3.157 5.039.544 11.483 6.347 11.483z"/><path d="m390.764 419.041c-3.509 2.199-4.571 6.827-2.372 10.336l15.568 24.842c2.192 3.498 6.817 4.577 10.336 2.372 3.509-2.199 4.571-6.827 2.372-10.336l-15.568-24.842c-2.199-3.51-6.827-4.572-10.336-2.372z"/><path d="m421.441 393.899-8.271-13.197c-2.199-3.509-6.827-4.572-10.336-2.372s-4.571 6.827-2.372 10.336l8.271 13.198c1.424 2.272 3.864 3.518 6.361 3.518 5.806-.001 9.503-6.447 6.347-11.483z"/><path d="m263.499 223.7c0-4.142-3.357-7.499-7.499-7.499s-7.499 3.357-7.499 7.499v29.317c0 4.142 3.357 7.499 7.499 7.499s7.499-3.357 7.499-7.499z"/><path d="m150.688 223.7c0-4.142-3.357-7.499-7.499-7.499s-7.499 3.357-7.499 7.499v29.317c0 4.142 3.357 7.499 7.499 7.499s7.499-3.357 7.499-7.499z"/><path d="m256 302.019c-4.142 0-7.499 3.358-7.499 7.499v29.317c0 4.142 3.357 7.499 7.499 7.499s7.499-3.357 7.499-7.499v-29.317c0-4.141-3.357-7.499-7.499-7.499z"/><path d="m143.189 302.019c-4.142 0-7.499 3.358-7.499 7.499v29.317c0 4.142 3.357 7.499 7.499 7.499s7.499-3.357 7.499-7.499v-29.317c0-4.141-3.358-7.499-7.499-7.499z"/><path d="m207.093 261.108c0-4.142-3.357-7.499-7.499-7.499s-7.499 3.357-7.499 7.499v29.317c0 4.142 3.357 7.499 7.499 7.499s7.499-3.357 7.499-7.499z"/><path d="m199.595 339.428c-4.142 0-7.499 3.357-7.499 7.499v29.317c0 4.142 3.357 7.499 7.499 7.499s7.499-3.357 7.499-7.499v-29.317c-.001-4.142-3.358-7.499-7.499-7.499z"/><path d="m376.311 223.7c0-4.142-3.357-7.499-7.499-7.499s-7.499 3.357-7.499 7.499v29.317c0 4.142 3.357 7.499 7.499 7.499s7.499-3.357 7.499-7.499z"/><path d="m368.812 302.019c-4.142 0-7.499 3.358-7.499 7.499v29.317c0 4.142 3.357 7.499 7.499 7.499s7.499-3.357 7.499-7.499v-29.317c0-4.141-3.357-7.499-7.499-7.499z"/><path d="m319.905 261.108c0-4.142-3.357-7.499-7.499-7.499s-7.499 3.357-7.499 7.499v29.317c0 4.142 3.357 7.499 7.499 7.499s7.499-3.357 7.499-7.499z"/><path d="m312.406 383.742c4.142 0 7.499-3.357 7.499-7.499v-29.317c0-4.142-3.357-7.499-7.499-7.499s-7.499 3.357-7.499 7.499v29.317c0 4.142 3.357 7.499 7.499 7.499z"/><path d="m5.091 151.963c5.64 14.017 12.688 28.648 20.947 43.488 2.014 3.619 6.58 4.92 10.199 2.906s4.92-6.581 2.905-10.2c-7.955-14.294-14.73-28.354-20.137-41.792-8.841-21.971 1.194-46.681 22.846-56.255 21.114-9.335 45.895-2.641 58.922 15.92 9.486 13.516 23.4 24.402 41.356 32.354 18.789 8.322 40.74-1.394 46.927-20.959 7.253-22.946 20.281-46.904 41.97-57.353 13.762 21.788 35.966 22.14 49.95 0 21.685 10.447 34.715 34.402 41.97 57.353 6.194 19.593 28.161 29.271 46.926 20.959 17.956-7.953 31.871-18.839 41.357-32.354 13.026-18.562 37.806-25.257 58.921-15.92 21.652 9.573 31.687 34.284 22.846 56.255-20.623 51.254-52.281 91.22-57.777 99.586-25.058 37.992-15.652 64.549-.545 106.411 1.401 3.883 5.69 5.918 9.599 4.509 3.895-1.406 5.914-5.703 4.508-9.599l-.224-.62c-14.524-40.246-21.828-60.48-.932-92.272 26.189-35.279 46.134-69.734 59.284-102.417 11.876-29.514-1.607-62.709-30.694-75.57-27.643-12.223-60.137-3.383-77.264 21.021-7.897 11.253-19.725 20.424-35.154 27.257-10.369 4.591-22.975-.449-26.552-11.767-7.432-23.509-22.057-53.2-50.047-66.472 1.406-4.521 2.172-9.019 2.172-13.061.001-18.401-14.97-33.371-33.37-33.371s-33.37 14.97-33.37 33.37c0 4.042.766 8.54 2.172 13.061-27.99 13.271-42.615 42.963-50.047 66.472-3.567 11.281-16.142 16.378-26.553 11.767-15.428-6.833-27.255-16.004-35.152-27.256-17.128-24.404-49.622-33.245-77.264-21.022-29.088 12.862-42.571 46.056-30.695 75.571zm250.909-136.965c10.13 0 18.372 8.242 18.372 18.372 0 10.713-9.939 30.322-20.264 27.922-8.626-2.32-16.48-18.016-16.48-27.922 0-10.13 8.242-18.372 18.372-18.372z"/><path d="m64.903 504.278c27.484 15.574 62.073 6.924 78.677-19.965 10.379-16.809 26.846-37.191 46.357-38.84 13.214-1.115 27.122 6.513 41.347 22.674 10.561 12 24.815 11.221 24.715 11.199 9.442 0 18.451-4.082 24.715-11.199 14.224-16.162 28.138-23.794 41.346-22.675 19.51 1.649 35.978 22.031 46.358 38.84 16.619 26.914 51.212 35.529 78.677 19.965 21.784-12.345 33.346-37.135 28.77-61.688-4.249-22.8-9.714-44.065-17.197-66.923-1.288-3.936-5.525-6.082-9.46-4.793-3.936 1.288-6.082 5.524-4.794 9.46 7.273 22.215 12.581 42.871 16.707 65.006 3.403 18.26-5.205 36.702-21.42 45.891-20.514 11.626-46.22 5.125-58.522-14.796-31.658-51.269-72.082-63.233-111.723-18.195-7.123 8.094-19.68 8.22-26.914 0-39.646-45.042-80.07-33.067-111.723 18.195-12.302 19.922-38.009 26.421-58.522 14.796-16.215-9.188-24.823-27.631-21.42-45.891 7.588-40.71 18.171-70.038 26.675-93.603 14.694-40.718 24.402-67.618-.771-105.785-.507-.772-10.912-14.409-22.58-32.639-2.234-3.488-6.871-4.506-10.359-2.273s-4.506 6.871-2.273 10.359c6.976 10.897 14.647 21.992 22.806 32.983 20.896 31.791 13.592 52.023-.93 92.263-8.688 24.076-19.501 54.038-27.312 95.946-4.575 24.553 6.987 49.343 28.77 61.688z"/></g></g></svg>