<svg id="Capa_1" enable-background="new 0 0 512 512" height="512" viewBox="0 0 512 512" width="512" xmlns="http://www.w3.org/2000/svg"><g><g><path d="m303.4 209.519 96.705 97.678-96.705 97.678-136.069 49.812-152.142-49.812v-157.01c0-13.997 4.887-27.559 13.811-38.347l167.389-40.623z" fill="#dadada"/><path d="m341.595 7.5h-171.187c-28.499 0-51.603 23.103-51.603 51.603v72.978h274.393v-72.979c0-28.499-23.103-51.602-51.603-51.602z" fill="#dadada"/><path d="m56.082 315.808c0-42.528 9.225-82.869 25.734-119.107l-52.816 12.818c-8.924 10.787-13.811 24.35-13.811 38.346v157.01l62.464 20.451c-13.889-33.714-21.571-70.706-21.571-109.518z" fill="#ccccca"/><path d="m152.705 101.022s4.747-58.424 35.144-93.522h-17.442c-28.499 0-51.603 23.103-51.603 51.603v61.4z" fill="#ccccca"/><path d="m393.2 101.022-.002 54.248-89.798 54.249h-274.4l89.81-108.497z" fill="#80dfb5"/><path d="m496.81 247.865v157.01l-96.705 49.812-96.705-49.812v-195.356l96.705-29.513 82.895 29.513c8.924 10.787 13.81 24.349 13.81 38.346z" fill="#ccccca"/><path d="m303.4 404.875 89.8 49.812-89.8 49.813h-228.061c-33.222 0-60.15-26.928-60.15-60.15v-39.475z" fill="#80dfb5"/><path d="m483 209.519h-179.6l89.8-108.497z" fill="#36d39a"/><path d="m496.81 404.875v39.475c0 33.222-26.928 60.15-60.15 60.15h-133.26v-99.625z" fill="#36d39a"/><path d="m124.197 364.052c42.503 28.74 95.862-6.288 96.74-104.764z" fill="#ed9b83"/><path d="m103.993 343.848 104.771-96.748c-98.483.886-133.511 54.245-104.771 96.748z" fill="#ed9b83"/><path d="m220.916 252.839c-.044-3.133-2.577-5.666-5.717-5.717-2.16-.037-4.297-.037-6.413-.029-.015 0-.022.007-.022.007-27.774 15.066-74.171 45.987-104.771 96.748 2.548 3.777 5.608 7.467 9.173 11.032s7.255 6.625 11.032 9.173c50.753-30.592 81.675-76.99 96.74-104.764.015-2.124.007-4.268-.022-6.45z" fill="#f3bdae"/><g fill="#36d39a"><path d="m70.136 404.875h-54.947v39.475c0 33.222 26.927 60.149 60.15 60.149h51.39c-25.062-28.646-44.507-62.44-56.593-99.624z"/><path d="m152.705 101.022h-33.895l-89.81 108.497h47.351c16.737-42.081 43.105-79.184 76.354-108.497z"/></g></g><g><path d="m504.31 247.865c0-15.704-5.516-31.021-15.532-43.127l-88.08-106.419v-39.216c0-32.59-26.514-59.103-59.103-59.103h-171.188c-32.589 0-59.103 26.513-59.103 59.103v39.224l-88.082 106.409v.001c-.412.728-15.533 16.971-15.533 43.128v75.83c0 4.142 3.358 7.5 7.5 7.5s7.5-3.358 7.5-7.5v-75.83c0-11.074 3.525-21.901 9.986-30.847h263.225v48.092c0 4.142 3.358 7.5 7.5 7.5s7.5-3.358 7.5-7.5v-48.092h168.424c6.461 8.946 9.986 19.773 9.986 30.847v149.51h-178.41v-102.264c0-4.142-3.358-7.5-7.5-7.5s-7.5 3.358-7.5 7.5v102.265h-273.211v-43.68c0-4.142-3.358-7.5-7.5-7.5s-7.5 3.358-7.5 7.5v51.18 39.475c0 37.301 30.348 67.649 67.65 67.649h361.322c37.302 0 67.65-30.347 67.65-67.649-.001-24.351-.001-171.897-.001-196.486zm-333.903-232.865h171.188c24.318 0 44.103 19.785 44.103 44.103v34.419h-259.393v-34.419c0-24.318 19.784-44.103 44.102-44.103zm-125.463 187.019 77.394-93.497h254.918l-77.385 93.497zm274.399 0c7.674-9.272 65.618-79.28 73.856-89.234l73.856 89.234zm-296.654 242.331v-31.975h273.211v84.625h-220.561c-29.031 0-52.65-23.619-52.65-52.65zm413.971 52.65h-125.76v-84.624h178.41v31.975c0 29.03-23.618 52.649-52.65 52.649z"/><path d="m134.069 136.486c-4.142 0-7.5 3.358-7.5 7.5v14.147c0 4.142 3.358 7.5 7.5 7.5s7.5-3.358 7.5-7.5v-14.147c0-4.142-3.358-7.5-7.5-7.5z"/><path d="m281.311 136.486c-4.142 0-7.5 3.358-7.5 7.5v14.147c0 4.142 3.358 7.5 7.5 7.5s7.5-3.358 7.5-7.5v-14.147c0-4.142-3.358-7.5-7.5-7.5z"/><path d="m232.028 152.058c-3.123-2.722-7.86-2.397-10.582.726-7.272 8.343-20.218 8.369-27.512 0-2.722-3.123-7.459-3.448-10.582-.727s-3.448 7.459-.727 10.582c13.238 15.191 36.85 15.236 50.128 0 2.722-3.122 2.397-7.859-.725-10.581z"/><path d="m215.325 239.623c-27.01-.451-56.665 2.968-81.533 14.07-53.159 23.734-60.346 72.073-25.931 106.49 47.644 47.644 119.543 14.943 120.575-100.828.015-1.713-.023-6.724-.022-6.622-.1-7.233-5.852-12.992-13.089-13.11zm-90.781 115.388c-4.157-3.301-8.22-7.366-11.511-11.511 23.906-37.43 58.949-67.529 97.674-88.912.891.001 1.813.003 2.727.011.008.923.011 1.84.011 2.752-20.898 37.986-52.221 74.507-88.901 97.66zm-18.117-59.263c10.486-19.965 36.522-33.753 72.003-38.909-4.12 3.32-43.401 27.624-73.82 72.176-4.287-11.223-3.717-22.73 1.817-33.267zm65.872 65.869c-10.539 5.536-22.044 6.105-33.268 1.817 28.639-19.555 53.051-45.705 72.171-73.816-5.153 35.478-18.939 61.513-38.903 71.999z"/></g></g></svg>