<svg id="Capa_1" enable-background="new 0 0 512 512" height="512" viewBox="0 0 512 512" width="512" xmlns="http://www.w3.org/2000/svg"><g><g><path d="m19.222 383.179c0 67.004 62.738 121.321 140.13 121.321 26.439 0 51.168-6.339 72.269-17.358 38.728-20.224 81.524-31.432 125.215-31.432h5.721c53.53 0 96.925-43.395 96.925-96.925v-57.865l-440.26 24.395v57.864z" fill="#dadada"/><path d="m76.337 322.149-57.115 3.165v57.865c0 67.003 62.738 121.32 140.13 121.32 14.786 0 29.036-1.986 42.417-5.661-70.351-34.729-119.509-100.298-125.432-176.689z" fill="#ccccca"/><path d="m362.556 203.994h-203.204c-77.392 0-140.13 54.317-140.13 121.321s62.738 121.321 140.13 121.321c26.439 0 51.168-6.339 72.269-17.358 38.728-20.224 81.524-31.432 125.215-31.432h5.721c53.53 0 96.925-43.395 96.925-96.925 0-53.533-43.395-96.927-96.926-96.927z" fill="#fc5c70"/><ellipse cx="160.511" cy="310.563" fill="#fff" rx="58.72" ry="42.874"/><path d="m314.992 153.654-67.992 67.992c-8.735 8.735-8.735 22.897 0 31.632 8.735 8.735 22.897 8.735 31.632 0l67.992-67.992z" fill="#c7c5cb"/><path d="m278.145 222.134c5.425 5.425 11.484 9.979 17.993 13.639l50.486-50.486-31.632-31.632-50.486 50.486c3.659 6.509 8.213 12.568 13.639 17.993z" fill="#b2b0bc"/><path d="m387.101 39.032-87.744 87.744c-20.475 20.475-20.475 53.67 0 74.145 20.475 20.475 53.67 20.475 74.145 0l87.744-87.744z" fill="#b08bd7"/><path d="m368.434 46.764h65.303v104.857h-65.303z" fill="#a47cd1" transform="matrix(.707 -.707 .707 .707 47.336 312.663)"/><path d="m486.21 88.213-74.145-74.145c-8.758-8.758-22.957-8.758-31.714 0l-18.213 18.212c-8.758 8.758-8.758 22.957 0 31.714l74.145 74.145c8.758 8.758 22.957 8.758 31.714 0l18.212-18.212c8.758-8.757 8.758-22.956.001-31.714z" fill="#64d1e1"/><path d="m75.722 306.583c0-32.055 7.603-62.499 21.262-89.931-46.09 19.868-77.762 61.06-77.762 108.662 0 58.002 47.017 106.488 109.852 118.472-33.364-37.525-53.352-85.243-53.352-137.203z" fill="#f8485e"/></g><g><path d="m206.451 346.933c26.959-19.684 27.166-52.914 0-72.75-25.576-18.674-66.302-18.684-91.89 0-26.959 19.684-27.166 52.914 0 72.75 25.575 18.673 66.301 18.682 91.89 0zm-45.946-71.751c28.243 0 51.221 15.87 51.221 35.376 0 19.505-22.978 35.375-51.221 35.375s-51.221-15.87-51.221-35.375c0-19.507 22.978-35.376 51.221-35.376z"/><path d="m159.346 512c26.737 0 52.929-6.297 75.743-18.21 66.658-34.808 123.665-30.13 127.467-30.581 57.582 0 104.428-46.847 104.428-104.428v-57.867c0-49.094-34.117-91.08-81.078-101.798l51.048-51.048c11.227 6.637 26.302 5.414 36.349-4.634l18.213-18.212c11.695-11.694 11.697-30.626 0-42.322l-74.147-74.149c-11.668-11.668-30.654-11.667-42.322 0l-18.213 18.213c-9.837 9.837-11.38 24.876-4.63 36.345l-58.152 58.152c-15.679 15.679-20.82 37.952-15.458 57.972l-17.051 17.051h-102.197c-35.262 0-69.393 11.013-96.107 31.012-3.316 2.482-3.992 7.183-1.509 10.499 2.482 3.316 7.182 3.992 10.499 1.509 24.136-18.068 55.075-28.019 87.117-28.019h87.195l-4.849 4.849c-7.278 7.279-10.007 17.41-8.188 26.828 3.879 20.052 26.185 30.128 43.774 20.417 5.75-3.184 3.946-2.59 43.532-41.883 17.141 4.594 36.288 1.426 51.294-9.706 44.972 4.771 79.879 42.819 79.879 88.922 0 49.311-40.117 89.428-89.427 89.428-3.583.057-13.986-.294-29.077 1.043-5.323.471-8.443 6.195-6.001 10.912.833 1.613 2.276 2.936 4.095 3.601 3.394 1.246 5.3-.555 25.261-.555 31.694-.126 54.872-6.683 78.426-29.544 6.732-6.543 12.03-13.337 16.723-21.004v3.987c0 49.311-40.117 89.428-89.427 89.428-3.873.46-64.143-4.408-134.411 32.285-20.68 10.798-44.47 16.507-68.799 16.507-73.134 0-132.634-51.061-132.634-113.824v-1.313c37.588 66.938 133.521 93.149 208.376 54.06 22.577-11.79 46.32-20.306 70.568-25.312 4.322-.892 6.978-5.325 5.636-9.605-1.163-3.696-4.95-5.848-8.669-5.086-24.644 5.087-49.786 13.812-74.479 26.705-20.68 10.799-44.47 16.507-68.799 16.507-73.134 0-132.634-51.061-132.634-113.824 0-23.997 8.621-46.957 24.93-66.398 2.663-3.173 2.248-7.904-.925-10.567-3.173-2.662-7.904-2.248-10.566.926-18.605 22.176-28.439 48.47-28.439 76.039v57.867c.001 71.034 66.229 128.825 147.635 128.825zm208.095-474.43 18.213-18.212c5.818-5.818 15.288-5.821 21.108 0l74.147 74.148c5.833 5.833 5.833 15.275 0 21.108l-18.213 18.213c-5.833 5.833-15.274 5.833-21.108 0-11.199-11.199-63.239-63.239-74.148-74.148-5.818-5.821-5.818-15.289.001-21.109zm-62.783 94.498 57.479-57.479c7.684 7.684 55.806 55.805 63.54 63.54-55.686 55.147-56.795 57.691-62.972 62.149 0 0 0 0-.001 0-23.221 16.741-57.279 7.746-68.112-20.086-6.27-16.111-2.922-35.135 10.066-48.124zm1.22 83.347c-34.719 34.68-32.956 33.184-34.881 34.454-4.502 3.08-11.138 3.432-16.341.018-7.799-5.069-9.064-16.238-2.358-22.944 26.268-26.268 19.797-19.797 32.553-32.553 5.304 8.955 13.054 16.31 21.027 21.025z"/></g></g></svg>