<svg id="Capa_1" enable-background="new 0 0 512 512" height="512" viewBox="0 0 512 512" width="512" xmlns="http://www.w3.org/2000/svg"><g><g><path d="m368.235 412.98v47.319h72.07c14.552 0 26.349-11.797 26.349-26.349v-62.757z" fill="#f9d888"/><path d="m368.235 460.3h36.123c4.14-6.574 6.547-14.344 6.547-22.67 0-1.16.941-2.101 2.101-2.101h19.139c12.703 0 24.535-3.697 34.51-10.051v-54.284l-98.419 41.787v47.319z" fill="#f5c956"/><path d="m435.599 344.021-52.491 27.172c-20.735 0-37.544 16.809-37.544 37.544v28.893c0 12.52 10.149 22.669 22.669 22.669 12.52 0 22.669-10.149 22.669-22.669v-22.101h41.24c24.486 0 44.335-19.85 44.335-44.335z" fill="#fc5c70"/><path d="m383.109 302.314v68.879h93.371s5.253-53.871-20.426-83.838z" fill="#64d1e1"/><path d="m504.5 231.4v-57.146c0-32.708-26.515-59.223-59.223-59.223h-68.452c-11.658 0-21.108 9.451-21.108 21.108 0 21.05 17.064 38.114 38.114 38.114z" fill="#4f4c5f"/><path d="m495.362 193.907c-6.343-12.192-19.142-19.654-32.886-19.654h-68.645c-7.924 0-15.283-2.42-21.38-6.559-18.621 14.823-30.611 37.62-30.756 63.236-.249 44.128 35.327 80.813 79.443 81.849 45.853 1.077 83.361-35.771 83.361-81.38.001-13.522-3.3-26.272-9.137-37.492z" fill="#ffd3bc"/><path d="m313.443 281.768c0-74.969-65.827-135.743-147.029-135.743s-147.028 60.774-147.028 135.743c0 26.985 8.534 52.127 23.241 73.26 6.159 8.85 9.394 19.406 9.394 30.189v58.936c0 8.918 7.229 16.147 16.147 16.147h35.731c8.917 0 16.147-7.229 16.147-16.147v-33.539c14.578 4.47 30.166 6.896 46.369 6.896s31.791-2.427 46.369-6.896v33.539c0 8.918 7.229 16.147 16.147 16.147h35.731c8.917 0 16.147-7.229 16.147-16.147v-58.936c0-10.783 3.235-21.339 9.394-30.189 14.706-21.133 23.24-46.275 23.24-73.26z" fill="#e27858"/><path d="m39.245 94.501c-16.101-5.055-32.295 7.346-31.731 24.213.682 20.408 10.69 46.523 49.861 65.925l32.938-74.104z" fill="#e27858"/><path d="m293.583 94.501c16.101-5.055 32.295 7.346 31.731 24.213-.682 20.408-10.69 46.523-49.861 65.925l-32.938-74.104z" fill="#e7886e"/><path d="m50.035 283.104c-5.177-15.109-7.47-31.51-6.248-48.522l3.575-49.944c2.233-31.23 16.351-58.935 37.728-78.831 21.377-19.905 50.014-32.001 81.324-32.001 62.61 0 114.587 48.382 119.052 110.832l3.575 49.944c1.222 17.002-1.071 33.403-6.248 48.512z" fill="#ed9b83"/><path d="m65.317 221.362c0-56.138 26.588-109.507 67.366-142.713-17.961 5.287-34.201 14.69-47.593 27.159-21.377 19.896-35.495 47.601-37.728 78.831l-3.574 49.944c-1.222 17.012 1.071 33.413 6.248 48.522l26.597-.001c-7.299-19.102-11.316-39.933-11.316-61.742z" fill="#e7886e"/><path d="m282.793 283.095c-6.088 17.843-16.201 33.893-29.267 47.03-22.198 22.289-52.938 36.176-87.111 36.176-54.299 0-99.928-35.065-116.379-83.196 27.315-30.439 69.299-49.924 116.379-49.924s89.053 19.485 116.378 49.914z" fill="#ffc8e5"/><ellipse cx="120.045" cy="298.382" fill="#4f4c5f" rx="19.708" ry="24.256"/><ellipse cx="212.784" cy="298.382" fill="#4f4c5f" rx="19.708" ry="24.256"/><path d="m148.482 93.732c-2.808-13.817-7.295-25.712-11.546-34.851-4.454-9.575-17.985-9.575-22.439 0-4.251 9.138-8.738 21.033-11.546 34.851-2.906 14.3 8.173 27.639 22.765 27.639 14.593 0 25.672-13.339 22.766-27.639z" fill="#f7cec4"/><path d="m184.347 93.732c2.808-13.817 7.295-25.712 11.546-34.851 4.454-9.575 17.985-9.575 22.439 0 4.251 9.138 8.738 21.033 11.546 34.851 2.906 14.3-8.173 27.639-22.765 27.639-14.593 0-25.672-13.339-22.766-27.639z" fill="#f7cec4"/><path d="m435.599 344.021c-5.684-9.237-17.78-12.117-27.016-6.433-20.47 12.597-39.557 5.307-41.1 5.215-10.551-2.513-21.14 4.003-23.653 14.553-2.513 10.551 4.003 21.14 14.554 23.653l3.442.819c23.154 5.515 47.069 1.682 67.34-10.792 9.238-5.683 12.117-17.778 6.433-27.015z" fill="#ffd3bc"/><path d="m70.668 264.273c-7.549 5.656-14.468 11.961-20.632 18.831 13.909 40.695 48.679 72.045 91.91 80.762-34.656-22.163-60.603-57.641-71.278-99.593z" fill="#ffb3dd"/><path d="m363.717 239.016c0-24.37 7.536-47.047 20.482-66.017-4.246-1.107-8.214-2.906-11.748-5.305-18.621 14.823-30.611 37.62-30.756 63.236-.173 30.714 17.018 57.807 42.356 71.798-13.073-16.068-20.334-37.331-20.334-63.712z" fill="#ffbe9c"/><path d="m384.186 173.019c18.895-27.697 49.335-47.479 84.763-53.055-7.251-3.166-15.253-4.934-23.671-4.934h-68.452c-11.658 0-21.109 9.45-21.109 21.108 0 17.718 12.09 32.609 28.469 36.881z" fill="#423e4f"/></g><g><path d="m120.044 266.626c-15.002 0-27.208 14.246-27.208 31.756s12.206 31.756 27.208 31.756 27.208-14.246 27.208-31.756-12.205-31.756-27.208-31.756zm0 48.512c-6.617 0-12.208-7.673-12.208-16.756s5.591-16.756 12.208-16.756 12.208 7.673 12.208 16.756-5.59 16.756-12.208 16.756z"/><path d="m212.784 266.626c-15.002 0-27.208 14.246-27.208 31.756s12.206 31.756 27.208 31.756 27.208-14.246 27.208-31.756-12.206-31.756-27.208-31.756zm0 48.512c-6.617 0-12.208-7.673-12.208-16.756s5.591-16.756 12.208-16.756 12.208 7.673 12.208 16.756-5.591 16.756-12.208 16.756z"/><path d="m82.466 207.793v14.69c0 4.142 3.358 7.5 7.5 7.5s7.5-3.358 7.5-7.5v-14.69c0-4.142-3.358-7.5-7.5-7.5s-7.5 3.359-7.5 7.5z"/><path d="m242.862 229.984c4.142 0 7.5-3.358 7.5-7.5v-14.69c0-4.142-3.358-7.5-7.5-7.5s-7.5 3.358-7.5 7.5v14.69c0 4.142 3.358 7.5 7.5 7.5z"/><path d="m379.81 217.265c-4.142 0-7.5 3.358-7.5 7.5v8.318c0 4.143 3.358 7.5 7.5 7.5s7.5-3.357 7.5-7.5v-8.318c0-4.142-3.358-7.5-7.5-7.5z"/><path d="m466.385 217.265c-4.142 0-7.5 3.358-7.5 7.5v8.318c0 4.143 3.358 7.5 7.5 7.5s7.5-3.357 7.5-7.5v-8.318c0-4.142-3.358-7.5-7.5-7.5z"/><path d="m439.438 227.182c-3.123-2.722-7.86-2.396-10.582.727-3.053 3.503-8.468 3.498-11.517 0-2.721-3.123-7.459-3.448-10.582-.727-3.123 2.722-3.448 7.459-.727 10.582 9.033 10.364 25.112 10.351 34.134 0 2.722-3.123 2.396-7.86-.726-10.582z"/><path d="m332.81 118.964c.727-21.755-20.176-38.306-41.473-31.619l-39.237 12.319c-4.958-4.557-10.3-8.74-15.995-12.492-2.539-10.673-6.216-21.232-10.972-31.455-7.149-15.368-28.901-15.346-36.04 0-1.813 3.898-3.454 7.848-4.952 11.831-11.717-1.635-23.738-1.635-35.453 0-1.497-3.983-3.139-7.933-4.952-11.831-7.144-15.355-28.895-15.358-36.04 0-4.755 10.221-8.432 20.778-10.971 31.45-5.669 3.733-11.04 7.926-16.019 12.489l-39.215-12.31c-9.999-3.14-20.515-1.305-28.853 5.034-8.25 6.271-12.967 16.209-12.621 26.585.607 18.167 8.156 43.751 39.926 64.382-.197 2.54-.912 12.65-1.284 17.823-23.014 31.278-31.002 68.47-24.696 104.003.724 4.079 4.616 6.797 8.695 6.074 4.078-.724 6.798-4.617 6.074-8.695-4.033-22.718-1.419-45.832 7.472-66.971-7.164 118.981 135.549 183.163 220.304 102.121 26.461-25.307 42.532-61.986 40.115-102.122 15.607 37.108 11.77 80.178-12.577 115.164-7.025 10.095-10.738 22.015-10.738 34.473v58.936c0 4.768-3.879 8.647-8.646 8.647h-35.732c-4.768 0-8.646-3.879-8.646-8.647v-33.539c0-5.037-4.878-8.647-9.699-7.17-28.051 8.601-59.267 8.914-88.341 0-4.811-1.474-9.699 2.122-9.699 7.17v33.539c0 4.768-3.879 8.647-8.646 8.647h-35.732c-4.768 0-8.646-3.879-8.646-8.647v-58.936c0-12.458-3.713-24.378-10.738-34.473-4.648-6.679-8.655-13.849-11.912-21.312-1.657-3.796-6.077-5.532-9.874-3.875-3.796 1.657-5.531 6.077-3.875 9.874 3.648 8.362 8.139 16.397 13.347 23.88 5.267 7.568 8.05 16.525 8.05 25.905v58.936c0 13.039 10.608 23.647 23.647 23.647h35.731c13.039 0 23.647-10.608 23.647-23.647v-23.719c25.377 6.1 52.323 6.109 77.739 0v23.719c0 13.039 10.608 23.647 23.647 23.647h35.731c13.039 0 23.647-10.608 23.647-23.647v-58.936c0-9.379 2.784-18.337 8.051-25.905 33.331-47.897 32.969-110.359-2.189-158.143-.364-5.041-1.039-14.642-1.287-17.821 31.771-20.63 39.32-46.216 39.927-64.383zm-86.665 207.893c-59.525 56.916-158.219 34.616-187.493-42.003 56.48-58.866 159.013-58.895 215.516-.015-4.962 12.854-15.959 30.48-28.023 42.018zm-34.614-264.812c5.212 11.203 8.894 22.672 10.996 33.181 1.971 9.699-5.672 18.646-15.416 18.646-9.905 0-17.366-9.047-15.416-18.646 2.263-11.132 6.004-22.449 10.997-33.181 1.761-3.785 7.066-3.815 8.839 0zm-90.234-.001c1.76-3.785 7.064-3.814 8.838 0 4.976 10.695 8.727 22.018 10.996 33.181.924 4.546-.243 9.229-3.201 12.849-10.326 12.638-30.895 2.963-27.623-12.881 2.286-11.233 5.983-22.385 10.99-33.149zm-25.257 44.183c6.502 23.939 37.612 30.789 53.505 11.339 5.819-7.12 8.11-16.352 6.286-25.327-.667-3.281-1.688-7.47-2.429-10.179 8.626-1.001 17.397-1.001 26.023 0-.757 2.77-1.775 6.962-2.428 10.179-5.649 27.797 26.888 47.634 49.048 30.125 5.371-4.202 9.088-10.026 10.741-16.131 24.157 19.612 39.014 48.381 41.2 78.942 3.793 52.998 5.767 62.714 1.106 83.457-61.503-57.345-164.001-57.181-225.356.006-5.429-24.073-1.283-40.225-.271-64.211 1.219-16.623 1.331-21.578 2.481-28.822.347-1.054 4.196-40.331 40.094-69.378zm-81.031 12.236c-.187-5.605 2.257-10.76 6.707-14.142 4.346-3.303 10.077-4.298 15.282-2.665l32.135 10.089c-13.332 15.895-22.511 34.736-26.804 55.005-17.508-13.127-26.686-29.33-27.32-48.287zm275.48 48.295c-4.203-19.712-13.285-38.844-26.801-55.01l32.141-10.092c11.151-3.501 22.381 5.061 21.989 16.807-.633 18.96-9.816 35.167-27.329 48.295z"/><path d="m512 174.254c0-11.936-3.204-23.663-9.265-33.913-2.108-3.564-6.706-4.747-10.273-2.638-3.565 2.108-4.746 6.708-2.638 10.273 9.39 15.878 6.706 29.774 7.176 34.878-.428-.484-.83-1.05-2.454-2.714-7.943-8.149-18.43-12.615-29.191-13.29-3.008-.186.55-.058-71.524-.097-16.865 0-30.614-13.681-30.614-30.614 0-7.503 6.105-13.608 13.608-13.608h68.452c9.241 0 18.318 2.476 26.251 7.162 3.566 2.106 8.166.923 10.272-2.644 2.106-3.566.922-8.166-2.644-10.272-10.241-6.048-21.957-9.246-33.879-9.246h-68.452c-15.775 0-28.608 12.834-28.608 28.608 0 11.941 4.675 23.235 12.8 31.656-40.681 39.612-34.466 107.299 14.592 138.62v30.448c-3.685-.58-5.492-1.224-6.741-1.438-14.438-3.238-28.893 5.755-32.332 20.193-2.534 10.64 1.572 21.234 9.517 27.549-5.141 7.46-7.987 16.373-7.987 25.569v28.893c0 16.636 13.534 30.169 30.169 30.169h72.071c18.665 0 33.849-15.185 33.849-33.849v-32.445c6.085-8.409 9.711-18.703 9.813-29.829.32-3.55 3.039-38.094-9.35-67.815 39.586-28.287 37.257-71.97 37.383-72.462v-57.144zm-146.253 175.846c17.142 4.092 31.812 3.08 46.768-6.124 2.761-1.698 6.018-2.221 9.171-1.47 8.368 1.992 12.107 11.89 7.048 18.895-1.483 2.062-2.933 2.808-3.746 3.393-18.877 11.528-40.752 14.666-61.423 9.74-3.821-.929-7.988-1.424-10.968-6.266-5.643-9.172 2.675-20.667 13.15-18.168zm-12.682 87.53v-28.893c0-7.198 2.604-14.144 7.245-19.56 24.669 5.683 49.254 1.97 70.651-10.484h37.251c-2.698 12.995-12.383 23.759-25.252 27.71-8.838 2.715-12.002 1.189-52.056 1.625-4.142 0-7.5 3.358-7.5 7.5v22.101c0 8.364-6.805 15.169-15.169 15.169-8.365.002-15.17-6.803-15.17-15.168zm106.089-3.679c0 10.394-8.456 18.849-18.849 18.849h-46c2.687-4.588 4.098-9.907 4.098-15.169v-14.601c36.13-.079 35.927.29 41.841-.637 6.74-1.057 13.153-3.417 18.909-6.939v18.497zm10.202-70.257h-25.013c8.88-24.337-17.847-45.767-39.749-32.459-4.252 2.607-9.043 4.537-13.986 5.481v-22.608c23.673 9.365 49.551 7.77 70.948-2.52 7.495 19.326 8.071 41.28 7.8 52.106zm-79.585-66.411c-46.253-23.644-54.569-85.698-16.514-120.424 2.81 1.438 6.13 2.705 9.666 3.573 8.335 2.068 10.267 1.118 79.555 1.322 11.17 0 21.222 5.983 26.232 15.615 5.497 10.561 8.291 22.076 8.291 34.032-.001 55.168-58.32 90.748-107.23 65.882z"/></g></g></svg>