<svg id="Capa_1" enable-background="new 0 0 512 512" height="512" viewBox="0 0 512 512" width="512" xmlns="http://www.w3.org/2000/svg"><g><g><path d="m46.904 33.873c-16.787.319-31.193 12.118-34.848 28.505-6.266 28.098-9.945 74.823 15.872 122.316l81.798-86.186 49.47-23.446c-.001 0-29.227-42.767-112.292-41.189z" fill="#ffb3dd"/><path d="m58.132 73.796c-.021 0-.041 0-.062 0-3.725.001-6.913 2.658-7.635 6.313-.866 4.383-1.633 9.248-2.168 14.497-2.971 29.146 2.274 56.344 15.591 80.84l75.021-74.19c-.98-1.268-21.971-27.46-80.747-27.46z" fill="#ff9dd3"/><path d="m348.721 33.873c16.787.319 31.193 12.118 34.848 28.505 6.267 28.098 9.946 74.823-15.871 122.316l-131.268-109.632s29.226-42.767 112.291-41.189z" fill="#ffc8e5"/><path d="m337.493 73.796h.062c3.725.001 6.913 2.658 7.635 6.313.866 4.383 1.633 9.248 2.168 14.497 2.971 29.146-2.274 56.344-15.591 80.84l-75.021-74.19c.98-1.268 21.971-27.46 80.747-27.46z" fill="#ffb3dd"/><path d="m157.467 375.334c26.74-4.183 53.951-4.183 80.691 0 76.05 11.897 143.138-12.991 143.138-108.53 0-112.22-65.53-194.951-183.483-194.951s-183.484 82.732-183.484 194.951c0 95.539 67.088 120.427 143.138 108.53z" fill="#ffdcef"/><path d="m237.931 193.026c-25.443-11.471-54.793-11.471-80.236 0-41.42 18.675-53.006 58.576-31.537 86.28l.954 1.231c12.524 16.16 33.831 22.269 53.28 15.967 10.599-3.434 24.005-3.511 34.842 0 19.796 6.414 41.488-.751 54.234-17.199 21.439-27.664 9.94-67.578-31.537-86.279z" fill="#ffb3dd"/><ellipse cx="164.963" cy="244.877" fill="#423e4f" rx="21.869" ry="16.62" transform="matrix(.5 -.866 .866 .5 -129.588 265.302)"/><ellipse cx="230.662" cy="244.877" fill="#423e4f" rx="16.62" ry="21.869" transform="matrix(.866 -.5 .5 .866 -91.535 148.137)"/><path d="m487.199 311.641c-42.604-4.861-68.798-21.135-82.723-33.049-7.355-6.293-18.135-6.293-25.49 0-13.925 11.914-40.119 28.188-82.723 33.049-10.741 1.226-18.478 10.94-17.153 21.668 4.359 35.286 22.419 107.309 96.818 141.41 10.038 4.601 21.569 4.601 31.606 0 74.4-34.101 92.46-106.124 96.818-141.41 1.325-10.728-6.412-20.442-17.153-21.668z" fill="#6a647f"/><path d="m456.591 438.56c-61.27 0-110.939-55.088-110.939-123.042 0-5.776.367-11.457 1.062-17.021-13.345 5.847-30.003 10.812-50.451 13.145-10.741 1.226-18.479 10.94-17.153 21.668 4.359 35.286 22.419 107.309 96.818 141.41 10.038 4.601 21.569 4.601 31.606 0 20.959-9.606 37.446-22.222 50.416-36.179-.453.006-.905.019-1.359.019z" fill="#5c586f"/><path d="m391.73 437.78c-28.964-13.608-49.893-36.389-62.322-67.889-3-7.604-5.219-15.01-6.861-21.82 30.297-6.316 52.958-17.566 69.183-28.705 16.224 11.138 38.885 22.389 69.183 28.705-1.642 6.81-3.861 14.216-6.861 21.82-12.428 31.5-33.357 54.28-62.322 67.889z" fill="#80dfb5"/><path d="m49.195 259.955c0-79.123 44.23-148.162 109.873-184.859-93.463 16.276-144.739 92.45-144.739 191.708 0 61.455 27.762 93.672 67.81 105.675-20.871-32.649-32.944-71.208-32.944-112.524z" fill="#ffb3dd"/><path d="m348.057 341.089c-7.825 2.687-16.31 5.064-25.51 6.982 1.642 6.81 3.861 14.216 6.861 21.82 12.428 31.5 33.357 54.281 62.322 67.889 6.504-3.055 12.579-6.599 18.267-10.575-31.26-16.069-54.637-47.8-61.94-86.116z" fill="#36d39a"/></g><g><path d="m154.644 186.194c-47.392 21.368-57.956 67.281-34.379 97.703l.953 1.23c14.141 18.248 38.807 25.864 61.515 18.506 9.178-2.974 21.038-2.973 30.215 0 22.552 7.308 47.657-.624 62.469-19.737 11-14.195 14.704-31.469 10.429-48.642-11.07-44.473-74.974-74.41-131.202-49.06zm62.927 103.171c-12.17-3.944-27.291-3.943-39.462 0-32.355 10.486-61.321-19.953-53.721-50.479 4.027-16.177 17.302-30.399 36.42-39.019 47.648-21.484 101.671 3.609 110.483 39.01 7.942 31.903-23.112 60.406-53.72 50.488z"/><path d="m159.646 218.695c-21.449 9.002-27.686 41.017-9.335 51.613 18.137 10.47 43-10.492 40.03-33.891-1.971-15.524-16.219-23.797-30.695-17.722zm13.246 30.741c-4.234 7.333-11.346 10.041-15.081 7.883-3.736-2.157-4.948-9.67-.714-17.002 2.075-3.594 5.12-6.434 8.354-7.791 2.154-.904 4.696-1.265 6.727-.091 2.384 1.376 3.081 4.27 3.285 5.872.441 3.478-.496 7.535-2.571 11.129z"/><path d="m216.004 219.445c-5.836 3.369-9.722 9.555-10.664 16.972-2.937 23.137 21.745 44.446 40.031 33.891 11.517-6.65 14.3-23.468 6.204-37.491-8.534-14.778-24.499-19.764-35.571-13.372zm21.867 37.874c-3.735 2.156-10.848-.55-15.081-7.883-2.075-3.594-3.012-7.651-2.571-11.13.203-1.602.901-4.496 3.285-5.872 2.036-1.176 4.578-.81 6.727.091 3.234 1.357 6.278 4.197 8.354 7.791 4.233 7.333 3.021 14.846-.714 17.003z"/><path d="m106.601 176.999c-4.142 0-7.499 3.358-7.499 7.499v17.533c0 4.142 3.358 7.499 7.499 7.499s7.499-3.358 7.499-7.499v-17.533c.001-4.142-3.357-7.499-7.499-7.499z"/><path d="m296.579 202.03v-17.533c0-4.142-3.358-7.499-7.499-7.499-4.142 0-7.499 3.358-7.499 7.499v17.533c0 4.142 3.358 7.499 7.499 7.499 4.141.001 7.499-3.357 7.499-7.499z"/><path d="m387.496 313.176c-19 13.043-41.36 22.31-66.463 27.543-4.14.863-6.752 4.983-5.76 9.099 10.246 42.508 34.018 76.286 73.277 94.731 2.019.949 4.358.95 6.378 0 15.21-7.145 28.502-16.82 39.508-28.754 2.807-3.045 2.615-7.789-.429-10.597-3.045-2.809-7.79-2.616-10.597.429-8.911 9.663-19.554 17.656-31.671 23.791-31.207-15.798-50.319-42.712-59.932-75.762 22.161-5.422 42.269-13.907 59.932-25.291 17.664 11.384 37.772 19.869 59.932 25.291-2.866 9.855-6.647 19.419-11.695 28.684-1.982 3.637-.64 8.192 2.998 10.173 3.636 1.982 8.192.64 10.173-2.998 6.839-12.551 11.735-25.911 15.059-39.697.991-4.111-1.615-8.235-5.76-9.1-25.102-5.232-47.463-14.499-66.463-27.543-2.556-1.754-5.931-1.754-8.487.001z"/><path d="m388.804 266.52c-.028-29.505-4.409-56.833-12.897-81.299 24.651-47.492 21.842-93.747 14.993-124.459-4.428-19.849-21.707-33.982-42.022-34.368-72.233-1.363-105.821 29.491-115.543 40.599-22.65-3.452-47.703-3.549-70.989 0-9.725-11.109-43.322-41.965-115.542-40.599-20.314.385-37.594 14.518-42.022 34.368-6.85 30.712-9.658 76.966 14.993 124.457-8.515 24.545-12.9 51.969-12.9 81.583 0 27.557 5.457 50.885 16.217 69.336 2.086 3.578 6.679 4.787 10.256 2.7 3.578-2.086 4.787-6.678 2.7-10.256-9.405-16.127-14.174-36.913-14.174-61.78 0-28.856 4.383-55.421 12.889-78.967.087-.188.183-.37.255-.566 24.736-67.825 82.31-107.9 162.823-107.9 76.531 0 136.816 36.597 162.823 107.899 9.92 27.221 14.032 58.202 13.027 85.986-21.519 18.203-49.919 27.695-78.259 30.93-14.898 1.698-25.582 15.165-23.744 30.037 1.517 12.286 4.194 24.91 7.569 36.199-12.414.539-25.798-.299-39.914-2.507-27.538-4.308-55.464-4.308-83.002 0-55.511 8.683-86.39-5.219-102.521-18.411-3.207-2.622-7.931-2.149-10.553 1.057s-2.148 7.931 1.058 10.553c30.929 25.294 74.752 27.811 114.334 21.619 26-4.067 52.366-4.067 78.365 0 16.745 2.619 32.604 3.428 47.246 2.424 16.642 43.674 46.226 76.965 88.545 96.361 12.028 5.513 25.824 5.513 37.853 0 59.72-27.372 93.196-83.09 101.127-147.295 1.833-14.844-8.817-28.334-23.744-30.037-40.166-4.583-64.962-19.547-78.69-31.293-5.906-5.053-13.352-7.164-20.557-6.371zm-369.383-202.493c2.916-13.074 14.294-22.383 27.668-22.638 34.243-.648 71.871 6.82 97.456 29.098-8.811 2.145-17.316 4.896-24.935 7.916-17.037-8.022-37.686-12.09-61.501-12.09-7.271.002-13.575 5.2-14.99 12.358-3.859 19.534-4.324 40.368-.253 60.622-5.836 8.432-10.982 17.446-15.427 26.989-16.428-39.214-13.738-76.607-8.018-102.255zm36.189 58.981c-1.302-13.777-.447-27.907 2.224-41.431.03-.152.151-.267.34-.267 15.92 0 30.183 1.959 42.608 5.841-17.175 9.295-32.288 21.292-45.172 35.857zm195.527-52.521c25.596-22.29 63.244-29.743 97.456-29.098 13.374.254 24.751 9.563 27.667 22.637 5.72 25.648 8.41 63.04-8.018 102.255-4.445-9.543-9.591-18.557-15.427-26.988 4.059-20.196 3.618-41.033-.254-60.622-1.413-7.159-7.718-12.356-15.054-12.359-23.755 0-44.4 4.068-61.436 12.09-8.211-3.255-16.739-5.92-24.934-7.915zm88.934 52.521c-12.884-14.565-27.997-26.562-45.171-35.857 12.429-3.881 26.705-5.841 42.667-5.841.129 0 .25.114.28.267 2.671 13.508 3.525 27.658 2.224 41.431zm156.838 209.374c-7.35 59.499-37.949 110.5-92.492 135.499-8.056 3.692-17.297 3.692-25.354 0-53.12-24.347-83.407-73.176-91.85-130.815-.768-5.237-1.645-9.074 1.817-13.469 2.002-2.542 4.878-4.144 8.1-4.512 31.361-3.578 62.699-14.228 86.741-34.799 4.402-3.766 11.039-4.02 15.737 0 15.32 13.108 42.805 29.785 86.741 34.799 6.625.756 11.372 6.72 10.56 13.297z"/></g></g></svg>