<svg id="Capa_1" enable-background="new 0 0 512 512" height="512" viewBox="0 0 512 512" width="512" xmlns="http://www.w3.org/2000/svg"><g><g><path d="m211.783 403.772h88.434v100.728h-88.434z" fill="#ed9b83"/><path d="m211.783 403.772h88.434v63.005h-88.434z" fill="#e7886e"/><path d="m439.233 7.5h-366.466c-28.728 0-52.017 23.289-52.017 52.018v325.241c0 28.729 23.289 52.018 52.018 52.018h366.466c28.728 0 52.018-23.289 52.018-52.018v-325.241c-.002-28.729-23.291-52.018-52.019-52.018z" fill="#dadada"/><path d="m240.727 293.401c18.158 18.158 22.196 45.082 12.124 67.145l-50.264-27.317-29.01-51.957c22.068-10.067 48.992-6.029 67.15 12.129z" fill="#36d39a"/><path d="m173.577 281.273 79.274 79.274c-22.063 10.073-48.987 6.035-67.145-12.124-18.159-18.158-22.197-45.082-12.129-67.15z" fill="#00c67f"/><path d="m257.805 302.375c-23.949 23.949-29.275 59.46-15.99 88.559l66.294-36.028 38.262-68.527c-29.106-13.279-64.617-7.953-88.566 15.996z" fill="#80dfb5"/><path d="m346.371 286.379-104.556 104.555c29.099 13.285 64.61 7.959 88.559-15.99 23.95-23.949 29.275-59.46 15.997-88.565z" fill="#36d39a"/><path d="m61.195 209.501c0-101.651 14.823-163.902 43.813-202.001h-32.241c-28.728 0-52.017 23.289-52.017 52.018v325.241c0 28.729 23.289 52.018 52.018 52.018h120.175c-78.72-45.152-131.748-130.02-131.748-227.276z" fill="#ccccca"/></g><g><path d="m150.867 169.294c4.142 0 7.5-3.358 7.5-7.5s-3.358-7.5-7.5-7.5h-33.69c-4.142 0-7.5 3.358-7.5 7.5v83.123c0 4.142 3.358 7.5 7.5 7.5s7.5-3.358 7.5-7.5v-34.848h23.514c4.142 0 7.5-3.358 7.5-7.5s-3.358-7.5-7.5-7.5h-23.514v-25.774h26.19z"/><path d="m321.229 169.446c4.142 0 7.5-3.358 7.5-7.5s-3.358-7.5-7.5-7.5h-34.961c-4.142 0-7.5 3.358-7.5 7.5v82.971c0 4.142 3.358 7.5 7.5 7.5h34.961c4.142 0 7.5-3.358 7.5-7.5s-3.358-7.5-7.5-7.5h-27.461v-26.485h24.883c4.142 0 7.5-3.358 7.5-7.5s-3.358-7.5-7.5-7.5h-24.883v-26.486z"/><path d="m406.093 169.446c4.142 0 7.5-3.358 7.5-7.5s-3.358-7.5-7.5-7.5h-34.96c-4.142 0-7.5 3.358-7.5 7.5v82.971c0 4.142 3.358 7.5 7.5 7.5h34.96c4.142 0 7.5-3.358 7.5-7.5s-3.358-7.5-7.5-7.5h-27.46v-26.485h24.883c4.142 0 7.5-3.358 7.5-7.5s-3.358-7.5-7.5-7.5h-24.883v-26.486z"/><path d="m196.25 153.681c-4.142 0-7.5 3.358-7.5 7.5v83.736c0 4.142 3.358 7.5 7.5 7.5s7.5-3.358 7.5-7.5v-31.565l32.142 36.52c2.74 3.113 7.48 3.408 10.585.675 3.109-2.736 3.412-7.476.675-10.585l-24.655-28.013c14.945-1.874 26.525-14.163 26.525-29.006 0-16.135-13.679-29.262-30.494-29.262h-22.251c-.003 0 .009 0-.027 0zm22.278 15c8.398 0 15.494 6.531 15.494 14.262 0 7.73-7.095 14.262-15.494 14.262-3.355 0-9.626.029-14.64.055-.08-14.622-.034-10.243-.088-28.579z"/><path d="m296.146 41.639c-.852-4.177-4.42-7.263-8.677-7.503-4.428-.254-8.366 2.64-9.544 6.739l-17.848 62.61-18.496-62.69c-1.204-4.058-5.141-6.947-9.618-6.648-4.256.285-7.791 3.41-8.613 7.683l-14.744 81.689c-.736 4.076 1.973 7.977 6.049 8.713 4.072.734 7.977-1.972 8.713-6.049l10.539-58.392c17.923 60.743 17.267 58.541 17.356 58.812 2.946 8.77 15.422 8.372 17.921-.35l16.679-58.51 11.183 58.516c.777 4.069 4.706 6.737 8.774 5.959 4.069-.777 6.736-4.706 5.959-8.774z"/><path d="m183.604 83.564c0-4.142-3.358-7.5-7.5-7.5h-25.094c-4.142 0-7.5 3.358-7.5 7.5s3.358 7.5 7.5 7.5h17.099c-5.878 42.297-62.655 30.956-62.655-7.5 0-27.766 31.155-43.791 53.695-28.564 3.433 2.318 8.095 1.416 10.413-2.016 2.319-3.432 1.416-8.094-2.017-10.413-32.348-21.853-77.091 1.112-77.091 40.994 0 27.263 22.18 49.443 49.442 49.443 25.734-.001 43.708-20.333 43.708-49.444z"/><path d="m432.816 83.564c0-27.263-22.18-49.442-49.442-49.442s-49.443 22.18-49.443 49.442 22.18 49.443 49.443 49.443 49.442-22.18 49.442-49.443zm-49.442 34.443c-18.992 0-34.443-15.451-34.443-34.443s15.451-34.442 34.443-34.442 34.442 15.451 34.442 34.442-15.451 34.443-34.442 34.443z"/><path d="m228.594 373.428c1.488 8.404 4.438 16.817 6.572 20.945.813 1.568 2.13 2.744 3.576 3.401 1.702.557 15.269 7.719 35.662 7.719 63.37 0 104.589-65.202 78.792-122.228-1.27-2.781-3.877-3.801-3.777-3.739-32.36-14.73-70.921-7.909-96.283 16.938-18.894-26.313-53.783-35.159-82.612-22.04-.103.076-2.602 1.072-3.797 3.803-20.137 44.262 12.261 95.711 61.867 95.201zm-51.741-78.274 51.171 51.171c-.554 4.018-.825 8.063-.813 12.106-32.897-.435-57.203-30.963-50.358-63.277zm148.219 74.487c-18.304 18.304-45.173 25.06-69.646 18.291l87.941-87.941c6.765 24.477.007 51.347-18.295 69.65zm7.688-80.257-87.941 87.941c-10.041-36.295 12.027-62.518 11.983-62.418 17.882-23.55 48.349-33.154 75.958-25.523zm-89.738 18.939c-4.553 6.444-8.206 13.508-10.844 20.943l-44.718-44.719c21.467-4.545 43.871 4.747 55.562 23.776z"/><path d="m498.75 304.217c0-4.142-3.358-7.5-7.5-7.5s-7.5 3.358-7.5 7.5v80.542c0 24.547-19.971 44.518-44.518 44.518-16.147 0-350.284 0-366.466 0-24.547 0-44.518-19.971-44.518-44.518v-230.491c0-4.142-3.358-7.5-7.5-7.5s-7.5 3.358-7.5 7.5v230.491c0 32.818 26.7 59.518 59.518 59.518h131.516v60.223c0 4.142 3.358 7.5 7.5 7.5h88.434c4.142 0 7.5-3.358 7.5-7.5v-60.224h131.516c32.818 0 59.518-26.7 59.518-59.518zm-206.033 192.783h-73.434v-52.724h73.434z"/><path d="m491.25 281.717c4.142 0 7.5-3.358 7.5-7.5v-214.7c0-32.818-26.699-59.517-59.517-59.517h-366.466c-32.818 0-59.517 26.699-59.517 59.517v64.75c0 4.142 3.358 7.5 7.5 7.5s7.5-3.358 7.5-7.5v-64.75c0-24.547 19.97-44.517 44.517-44.517h366.466c24.547 0 44.518 19.97 44.518 44.517v214.699c-.001 4.143 3.357 7.501 7.499 7.501z"/></g></g></svg>