<svg id="Capa_1" enable-background="new 0 0 512 512" height="512" viewBox="0 0 512 512" width="512" xmlns="http://www.w3.org/2000/svg"><g><g><path d="m454.5 180.613c0-136.367-74.206-188.942-171.937-169.045-17.537 3.57-35.589 3.57-53.126 0-97.731-19.897-171.937 32.678-171.937 169.045z" fill="#4f4c5f"/><path d="m404.267 212.062-55.361 87.263 25.836 14.498c25.527 14.324 58.029 3.387 69.298-23.628 10.04-24.069 15.587-50.463 15.587-78.129z" fill="#4f4c5f"/><path d="m107.733 212.062 55.361 87.263-25.836 14.498c-25.527 14.324-58.029 3.387-69.298-23.628-10.04-24.069-15.587-50.463-15.587-78.129z" fill="#423e4f"/><path d="m337.097 504.5h-162.194l-50.48-60.2c21.089-61.919 69.126-90.697 69.126-90.697h124.902s48.037 28.778 69.126 90.697z" fill="#b08bd7"/><path d="m236.556 12.812c-2.38-.352-4.755-.763-7.119-1.244-97.731-19.897-171.937 32.678-171.937 169.045h74.465c12.409-65.836 50.625-131.328 104.591-167.801z" fill="#423e4f"/><circle cx="422.438" cy="212.062" fill="#c7856a" r="44.919"/><path d="m95.846 167.547c19.782-66.985 83.992-109.865 160.154-109.865s140.372 42.881 160.154 109.865z" fill="#f9d888"/><path d="m175.05 75.759c-38.143 18.606-67.054 50.648-79.203 91.788h38.91c7.755-32.271 21.585-64.001 40.293-91.788z" fill="#f5c956"/><path d="m422.436 212.066c0 91.913-74.513 166.436-166.436 166.436s-166.436-74.523-166.436-166.436c0-15.761 2.191-30.658 6.282-44.519 41.302-26.356 97.823-41.514 160.154-41.514s118.851 15.158 160.154 41.514c4.091 13.861 6.282 28.758 6.282 44.519z" fill="#da9d81"/><path d="m181.793 361.07c-33.679-35.845-54.184-83.288-54.184-135.326 0-26.394 4.721-53.838 13.46-80.366-16.487 6.095-31.678 13.525-45.223 22.168-.007.023-.012.046-.019.069-1.976-.307-4.06-.473-6.265-.473-24.808 0-44.919 20.111-44.919 44.919s20.111 44.919 44.919 44.919c2.122 0 4.128-.158 6.038-.442 12.677 45.808 44.43 83.692 86.193 104.532z" fill="#c7856a"/><g><g><g><ellipse cx="154.917" cy="240.979" fill="#fff" rx="37.297" ry="29.702"/></g><g><ellipse cx="357.083" cy="240.979" fill="#fff" rx="37.298" ry="29.702"/></g></g></g><path d="m397.307 504.5h-60.21v-60.2h50.48c5.93 17.41 9.73 37.443 9.73 60.2z" fill="#da9d81"/><path d="m153.798 455.63c0-34.256 9.8-66.04 26.531-92.283-15.794 13.108-41.841 39.658-55.905 80.953l30.501 36.374c-.759-8.164-1.127-16.527-1.127-25.044z" fill="#a47cd1"/><path d="m174.903 444.3v60.2h-60.21c0-22.757 3.8-42.79 9.73-60.2z" fill="#da9d81"/><path d="m296.824 416.852c-1.416-4.341-4.821-7.746-9.162-9.162-13.633-4.447-29.212-1.258-40.046 9.577-12.581 12.581-14.853 31.561-6.83 46.461 14.9 8.023 33.88 5.751 46.461-6.83 10.835-10.834 14.024-26.413 9.577-40.046z" fill="#80dfb5"/><path d="m153.798 455.63c0-3.81.131-7.586.369-11.33h-29.744c-5.93 17.41-9.73 37.443-9.73 60.2h43.696c-3.122-15.429-4.591-31.844-4.591-48.87z" fill="#c7856a"/></g><g><path d="m176.656 189.644c-4.142 0-7.5 3.358-7.5 7.5v15.247c0 4.142 3.358 7.5 7.5 7.5s7.5-3.358 7.5-7.5v-15.247c0-4.142-3.358-7.5-7.5-7.5z"/><path d="m335.345 189.644c-4.142 0-7.5 3.358-7.5 7.5v15.247c0 4.142 3.358 7.5 7.5 7.5s7.5-3.358 7.5-7.5v-15.247c0-4.142-3.358-7.5-7.5-7.5z"/><path d="m281.847 206.283c-3.123-2.721-7.86-2.396-10.582.727-8.069 9.26-22.439 9.284-30.529 0-2.722-3.123-7.459-3.447-10.582-.727-3.123 2.722-3.448 7.459-.727 10.582 14.064 16.136 39.097 16.119 53.146 0 2.721-3.123 2.396-7.86-.726-10.582z"/><path d="m242.314 411.965c-13.156 13.156-17.132 33.081-10.515 50.145l-10.53 10.531c-2.929 2.929-2.929 7.678 0 10.606 2.929 2.929 7.678 2.929 10.606 0l10.533-10.533c5.445 2.111 11.179 3.147 16.894 3.147 32.122 0 54.528-31.056 44.652-61.334-2.151-6.594-7.372-11.815-13.966-13.966-16.87-5.501-35.138-1.132-47.674 11.404zm47.38 7.214c7.348 22.526-11.48 44.852-35.081 41.331l16.338-16.339c2.929-2.929 2.929-7.678 0-10.606-2.929-2.929-7.678-2.929-10.606 0l-16.338 16.338c-3.525-23.624 18.827-42.423 41.331-35.082 2.056.672 3.685 2.301 4.356 4.358z"/><path d="m65.328 165.56c2.531-57.529 19.806-100.827 50.343-125.773 28.025-22.895 66.847-30.108 112.27-20.861 18.619 3.791 37.501 3.791 56.118 0 42.005-8.552 78.68-2.955 106.062 16.185 3.393 2.373 8.07 1.545 10.444-1.85 2.373-3.395 1.545-8.071-1.85-10.444-30.835-21.554-71.518-27.982-117.648-18.59-16.634 3.386-33.5 3.386-50.133 0-49.982-10.175-93.122-1.896-124.753 23.943-36.236 29.602-55.615 81.277-56.152 149.536-16.095 18.496-17.178 45.432-2.882 65.103 2.537 17.302 7.192 34.209 13.894 50.276 10.465 25.088 37.462 38.982 63.974 33.292 12.652 14.48 27.656 26.855 44.416 36.513-40.207 36.552-62.235 86.344-62.235 141.61 0 4.142 3.358 7.5 7.5 7.5h282.609c4.142 0 7.5-3.358 7.5-7.5 0-55.205-21.988-105.02-62.236-141.61 16.76-9.658 31.764-22.032 44.416-36.512 3.916.841 7.892 1.268 11.865 1.268 22.295 0 43.164-13.115 52.109-34.56 6.702-16.066 11.357-32.973 13.894-50.276 14.27-19.635 13.241-46.57-2.877-65.098-.435-57.492-13.782-102.317-39.705-133.246-2.661-3.174-7.391-3.591-10.566-.93-3.174 2.661-3.591 7.391-.93 10.566 21.805 26.015 33.859 63.465 35.908 111.463-7.903-4.137-16.766-6.054-25.168-5.901-34.779-102.894-165.636-137.356-257.564-86.58-3.626 2.003-4.942 6.566-2.939 10.191 2.002 3.625 6.564 4.941 10.191 2.939 77.407-42.756 191.388-20.314 230.624 64.507-83.082-42.535-207.042-43.374-291.622-.016 8.541-18.383 21.106-34.763 36.994-48.077 3.175-2.66 3.592-7.391.932-10.566s-7.391-3.592-10.565-.931c-21.876 18.331-38.058 41.93-47.075 68.533-8.633-.157-17.452 1.861-25.163 5.896zm20.876 9.243c-5.251 22.957-5.692 49.05-.129 74.507-9.793-.9-19.057-5.714-25.507-13.632-18.974-23.257-3.946-58.339 25.636-60.875zm373.65 37.263c0 19.322-14.821 35.489-33.928 37.244 5.417-24.798 5.282-50.821-.129-74.507 18.873 1.618 34.057 17.634 34.057 37.263zm-384.969 75.245c-3.872-9.285-7.017-18.871-9.408-28.662 7.404 3.836 15.946 5.905 24.636 5.833 5.444 17.281 13.483 33.426 23.99 48.189-16.747.464-32.49-9.23-39.218-25.36zm54.999 164.49h37.521v45.199h-45.063c.611-15.64 3.139-30.793 7.542-45.199zm214.712 45.199v-45.199h37.521c4.404 14.408 6.932 29.558 7.542 45.199zm-16.306-126.697c13.852 11.766 34.933 33.662 48.458 66.498h-39.652c-4.142 0-7.5 3.358-7.5 7.5v52.699h-147.192v-52.698c0-4.142-3.358-7.5-7.5-7.5h-39.652c13.526-32.837 34.606-54.732 48.458-66.498 44.462 20.38 97.596 21.535 144.58-.001zm-56.259-.104c-111.779 11.271-198.092-94.2-169.729-197.829 83.81-51.802 223.497-51.852 307.397 0 25.287 92.585-41.223 188.538-137.668 197.829zm165.085-82.888c-6.728 16.131-22.462 25.828-39.219 25.36 10.508-14.764 18.547-30.908 23.99-48.189 8.756.072 17.281-2.021 24.637-5.833-2.391 9.791-5.536 19.377-9.408 28.662z"/></g></g></svg>