<svg id="Capa_1" enable-background="new 0 0 512 512" height="512" viewBox="0 0 512 512" width="512" xmlns="http://www.w3.org/2000/svg"><g><g><circle cx="68.69" cy="128.977" fill="#ffa0ab" r="61.19"/><circle cx="375.914" cy="128.977" fill="#ffa0ab" r="61.19"/><path d="m413.954 295.348.084-.104c20.518-25.484 20.518-61.818 0-87.302l-.084-.104c7.471-31.919-8.342-64.724-37.966-78.761l-.008-.004-.021-.096c-7.109-31.958-35.53-54.642-68.269-54.488h-.092l-.005-.007c-20.299-25.737-55.804-33.824-85.246-19.416l-.022.011-.022-.011c-29.442-14.408-64.948-6.321-85.246 19.416l-.005.006h-.092c-32.739-.154-61.16 22.53-68.269 54.488l-.021.096-.008.004c-29.623 14.038-45.437 46.843-37.966 78.761v.001l-.084.104c-20.518 25.484-20.518 61.818 0 87.302l.084.104c-7.471 31.918 8.342 64.724 37.966 78.761l.008.004.021.096c7.109 31.958 35.53 54.642 68.269 54.488h.092l.005.007c20.299 25.737 55.804 33.824 85.246 19.416l.022-.011.022.011c29.442 14.408 64.948 6.321 85.246-19.416l.005-.006h.092c32.739.154 61.16-22.53 68.269-54.488l.021-.096.008-.004c29.624-14.038 45.437-46.842 37.966-78.762z" fill="#dadada"/><path d="m347.745 181.049c-7.665-13.596-24.141-19.374-38.663-13.657-24.119 9.494-54.172 15.128-86.757 15.128-32.586 0-62.638-5.633-86.758-15.128-14.441-5.685-30.906-.05-38.549 13.457-11.821 20.89-18.571 45.028-18.571 70.743-.001 79.392 65.476 144.41 144.866 143.876 79.007-.531 142.89-64.743 142.89-143.875-.001-25.634-6.707-49.7-18.458-70.544z" fill="#ffbfc5"/><path d="m389.439 294.669c-79.556-77.75-211.337 57.243-3.908 168.373 2.438 1.306 5.377 1.306 7.816 0 207.429-111.13 75.648-246.123-3.908-168.373z" fill="#fc5c70"/><path d="m60.446 268.629c0-94.701 59.885-176.974 147.864-218.641-26.051-6.408-54.089 2.731-71.254 24.495l-.005.006h-.092c-32.739-.154-61.16 22.53-68.269 54.488l-.021.096-.008.004c-29.623 14.038-45.437 46.843-37.966 78.761v.001l-.084.104c-20.518 25.484-20.518 61.818 0 87.302l.084.104c-7.471 31.918 8.342 64.724 37.966 78.761l.008.004.021.096c6.283 28.242 29.212 49.228 57.053 53.624-40.743-43.051-65.297-98.578-65.297-159.205z" fill="#ccccca"/><path d="m311.034 297.648c0-7.169.449-14.215 1.3-21.11-51.489 21.476-70.185 109.688 73.196 186.504 2.438 1.306 5.377 1.306 7.816 0 11.522-6.173 21.992-12.42 31.488-18.699-63.934-7.655-113.8-70.41-113.8-146.695z" fill="#f8485e"/></g><g><path d="m145.491 255.614c4.142 0 7.5-3.358 7.5-7.5v-14.749c0-4.142-3.358-7.5-7.5-7.5s-7.5 3.358-7.5 7.5v14.749c-.001 4.142 3.358 7.5 7.5 7.5z"/><path d="m299 255.614c4.142 0 7.5-3.358 7.5-7.5v-14.749c0-4.142-3.358-7.5-7.5-7.5s-7.5 3.358-7.5 7.5v14.749c-.001 4.142 3.358 7.5 7.5 7.5z"/><path d="m222.469 274.853c15.914 15.758 43.035 4.386 43.035-17.945 0-4.142-3.358-7.5-7.5-7.5s-7.5 3.358-7.5 7.5c0 5.661-4.606 10.267-10.267 10.267s-10.267-4.606-10.267-10.267c0-4.142-3.358-7.5-7.5-7.5s-7.5 3.358-7.5 7.5c0 5.661-4.606 10.267-10.267 10.267s-10.267-4.606-10.267-10.267c0-4.142-3.358-7.5-7.5-7.5s-7.5 3.358-7.5 7.5c-.002 22.322 27.114 33.708 43.033 17.945z"/><path d="m497.469 303.801c-3.86 1.504-5.769 5.852-4.264 9.712 13.645 35.009-6.345 90.938-103.376 142.922-.225.121-.506.121-.732 0-196.465-105.255-76.609-226.513-4.877-156.408 2.915 2.849 7.57 2.849 10.485 0 26.635-26.031 60.813-26.549 82.924-8.139 3.184 2.65 7.913 2.218 10.563-.965 2.651-3.183 2.218-7.913-.965-10.563-13.925-11.594-32.113-17.553-51.344-15.963 3.484-20.467-1.408-41.464-13.858-58.414 1.609-8.728 1.674-17.658.265-26.361 14.246-13.014 22.341-31.224 22.341-50.661 0-55.432-62.527-87.869-107.859-56.403-8.107-3.252-16.758-5.147-25.574-5.52-22.28-25.656-58.32-33.448-88.862-20.237-30.826-13.318-66.769-5.194-88.856 20.233-8.811.366-17.479 2.266-25.609 5.533-45.185-31.379-107.871.815-107.871 56.394 0 19.457 8.109 37.68 22.38 50.696-1.403 8.694-1.337 17.613.271 26.33-19.942 27.221-19.842 64.117 0 91.197-6.09 33.017 9.858 66.229 39.566 82.074 8.814 32.465 37.598 55.462 71.262 56.876 22.054 25.393 57.98 33.571 88.858 20.234 30.861 13.336 66.797 5.164 88.857-20.23 5.301-.216 10.55-.985 15.684-2.28 15.565 12.5 33.978 24.466 55.135 35.8 4.665 2.499 10.235 2.501 14.901 0 105.673-56.614 126.248-120.594 110.268-161.592-1.505-3.861-5.854-5.77-9.713-4.265zm-145.336-222.988c35.019-17.434 77.498 7.96 77.498 48.148 0 12.513-4.289 24.384-12.029 33.867-6.679-16.474-18.968-30.313-35.14-38.916-4.88-18.086-15.89-33.085-30.329-43.099zm-325.074 82.05c-7.758-9.488-12.058-21.372-12.058-33.902 0-40.106 42.4-65.646 77.525-48.135-14.78 10.255-25.522 25.407-30.307 43.081-16.656 8.85-28.688 22.96-35.16 38.956zm285.079 258.2c-1.485.098-2.982.143-4.481.136-2.359-.04-4.537 1.087-5.934 2.862-17.986 22.806-49.976 30.094-76.149 17.285-2.068-.989-4.496-.967-6.555.04-26.089 12.767-58.079 5.481-76.065-17.324-1.447-1.833-3.578-2.862-6.021-2.862-14.105.091-27.992-4.751-39.035-13.565-18.643-14.88-21.948-35.265-21.907-35.165-.521-2.318-2.101-4.194-4.115-5.139-26.249-12.439-40.496-41.996-33.876-70.279.525-2.245-.011-4.607-1.454-6.405l-.09-.112c-18.292-22.719-18.306-55.164.018-77.921.057-.119 2.403-2.751 1.527-6.496-6.567-28.056 7.406-57.734 33.867-70.274 3.597-1.693 4.101-5.153 4.15-5.254 3.09-13.9 11.077-26.864 23.09-35.977 18.549-14.003 38.036-12.654 37.934-12.642 2.214.012 4.415-.978 5.914-2.862 17.986-22.806 49.976-30.091 76.09-17.313 2.079 1.017 4.534 1.005 6.614-.012 26.087-12.768 58.078-5.481 76.062 17.32 1.43 1.82 3.721 2.856 6.025 2.866 26.387-.153 50.696 16.657 59.285 42.737 1.111 3.402 1.666 6.039 1.656 5.993.505 2.252 2.028 4.15 4.114 5.139 26.163 12.399 40.515 41.918 33.877 70.279-.525 2.245.011 4.607 1.454 6.405 12.962 16.13 16.685 36.404 11.744 54.976-11.142 3.432-21.491 9.422-30.416 17.016-5.478-4.654-11.26-8.528-17.235-11.618 4.777-33.903-2.072-67.428-17.924-95.544-9.423-16.715-30.037-24.005-47.947-16.954-49.484 19.48-118.436 19.523-168.031 0-17.881-7.04-38.442.159-47.826 16.743-32.035 56.603-24.603 128.448 21.412 177.626 2.83 3.026 7.577 3.183 10.601.353 3.025-2.83 3.183-7.577.353-10.601-42.316-45.226-47.534-110.122-19.313-159.99 5.725-10.116 18.31-14.489 29.276-10.173 52.53 20.679 125.449 21.088 179.02 0 10.984-4.325 23.616.131 29.385 10.363 13.688 24.279 19.934 53.085 16.614 82.383-57.683-16.948-115.248 39.47-80.362 109.26-41.617 18.474-92.287 15.541-133.092-13.121-3.391-2.381-8.067-1.564-10.449 1.826-2.381 3.39-1.563 8.068 1.826 10.449 45.505 31.964 102.471 35.252 149.252 13.888 7.641 11.631 17.096 22.242 27.117 31.658z"/></g></g></svg>