<svg id="Capa_1" enable-background="new 0 0 512 512" height="512" viewBox="0 0 512 512" width="512" xmlns="http://www.w3.org/2000/svg"><g><g><path d="m410.496 222.126s77.381 16.355 20.988 91.404v76.237h-81.21v-138.533z" fill="#f5c956"/><path d="m302.643 74.804c2.112-1.347 3.991-2.809 5.508-4.326 9.136-9.136 9.136-23.947 0-33.083s-23.947-9.136-33.083 0c-1.841 1.841-3.602 4.213-5.171 6.892.259-1.802.397-3.568.397-5.266 0-17.409-14.112-31.521-31.521-31.521s-31.521 14.112-31.521 31.521c0 10.684 5.321 23.98 13.451 32.665-68.316 15.966-119.199 77.259-119.199 150.441 0 85.326 69.17 195.51 154.496 195.51s154.496-110.185 154.496-195.51c0-69.069-45.326-127.545-107.853-147.323z" fill="#f9d888"/><path d="m284.531 395.579 52.277 52.277 29.682-29.682-52.277-52.277c-8.196-8.196-21.485-8.196-29.682 0-8.197 8.196-8.197 21.485 0 29.682z" fill="#c7856a"/><path d="m127.776 215.562c0-47.443 18.043-91.084 48.276-125.658-44.685 27.075-74.548 76.16-74.548 132.223s-77.38 16.354-20.988 91.404v76.237h81.21l-12.351-34.381c27.727 36.378 65.279 62.25 106.625 62.25 10.984 0 21.698-1.838 32.033-5.202-95.288-22.354-160.257-102.018-160.257-196.873z" fill="#f5c956"/><path d="m227.469 395.579-52.277 52.277-29.682-29.682 52.277-52.277c8.196-8.196 21.485-8.196 29.682 0 8.196 8.196 8.196 21.485 0 29.682z" fill="#c7856a"/><path d="m410.496 334.518c0-11.591 9.397-20.988 20.988-20.988 11.591 0 20.988 9.397 20.988 20.988 0-11.591 9.397-20.988 20.988-20.988 11.591 0 20.988 9.397 20.988 20.988v169.982h-167.904v-169.982c0-11.591 9.397-20.988 20.988-20.988 11.591 0 20.988 9.397 20.988 20.988 0-11.591 9.397-20.988 20.988-20.988 11.591 0 20.988 9.397 20.988 20.988z" fill="#da9d81"/><path d="m101.504 334.518c0-11.591-9.397-20.988-20.988-20.988-11.591 0-20.988 9.397-20.988 20.988 0-11.591-9.397-20.988-20.988-20.988-11.591 0-20.988 9.397-20.988 20.988v169.982h167.905v-169.982c0-11.591-9.397-20.988-20.988-20.988-11.591 0-20.988 9.397-20.988 20.988 0-11.591-9.397-20.988-20.988-20.988-11.592 0-20.989 9.397-20.989 20.988z" fill="#da9d81"/><path d="m293.339 192.5c.16 1.118.233 2.248.233 3.391 0 17.054-16.82 30.888-37.572 30.888s-37.572-13.835-37.572-30.888c0-1.143.074-2.273.233-3.391z" fill="#ff9c20"/><path d="m293.339 192.5c-10.702 3.637-23.529 5.75-37.339 5.75s-26.637-2.113-37.339-5.75c2.04-15.456 17.988-27.485 37.339-27.485s35.299 12.029 37.339 27.485z" fill="#ffb25a"/><g><g><g><ellipse cx="166.597" cy="195.426" fill="#ff8997" rx="32.988" ry="26.27"/></g><g><ellipse cx="345.403" cy="195.426" fill="#ff8997" rx="32.988" ry="26.27"/></g></g></g><path d="m40.854 368.791c0-18.324 2.897-35.944 8.239-52.394-3.103-1.811-6.701-2.867-10.553-2.867-11.591 0-20.988 9.396-20.988 20.988v169.982h92.667c-41.854-29.433-69.365-79.231-69.365-135.709z" fill="#c7856a"/></g><g><path d="m193.322 170.138v-13.485c0-4.142-3.358-7.5-7.5-7.5s-7.5 3.358-7.5 7.5v13.485c0 4.142 3.358 7.5 7.5 7.5s7.5-3.358 7.5-7.5z"/><path d="m326.178 177.638c4.142 0 7.5-3.358 7.5-7.5v-13.485c0-4.142-3.358-7.5-7.5-7.5s-7.5 3.358-7.5 7.5v13.485c0 4.142 3.358 7.5 7.5 7.5z"/><path d="m256 234.28c24.853 0 45.072-17.221 45.072-38.388 0-21.132-19.986-38.376-45.072-38.376-25.983 0-45.072 18.021-45.072 38.376 0 21.167 20.219 38.388 45.072 38.388zm0-15c-13.554 0-25.042-7.009-28.786-16.612 18.407 4.129 39.456 4.065 57.571 0-3.743 9.602-15.231 16.612-28.785 16.612zm0-46.765c12.478 0 23.556 6.193 27.995 14.905-17.638 4.451-38.45 4.417-55.989 0 4.438-8.711 15.516-14.905 27.994-14.905z"/><path d="m494.448 431.791c4.142 0 7.5-3.358 7.5-7.5v-89.772c0-15.708-12.78-28.488-28.488-28.488-8.297 0-15.776 3.565-20.988 9.244-2.416-2.633-5.325-4.804-8.571-6.383 14.987-22.955 19.26-43.13 12.678-60.073-7.762-19.981-28.396-29.018-38.687-32.384-2.238-65.442-43.415-121.256-101.145-144.529 14.56-20.279.015-48.862-25.139-48.862-5.581 0-10.937 1.47-15.624 4.227-4.996-15.792-19.789-27.271-37.212-27.271-28.461 0-52.2 30.944-30.604 67.317-23.303 7.201-44.828 19.675-62.782 36.461-3.026 2.829-3.185 7.575-.356 10.601s7.574 3.185 10.601.356c18.789-17.566 41.88-29.927 66.778-35.746 5.602-1.309 7.715-8.213 3.768-12.429-6.728-7.186-11.426-18.51-11.426-27.539 0-13.245 10.776-24.021 24.021-24.021 13.78 0 26.041 11.915 23.7 28.223-.509 3.549 1.566 6.962 4.951 8.145 3.386 1.184 7.133-.196 8.945-3.29 3.391-5.79 7.949-10.034 15.241-10.034 14.994 0 23.284 20.051 7.001 30.437-5.353 3.413-4.293 11.556 1.771 13.474 72.496 22.932 136.132 107.945 82.554 224.85-5.632 1.335-10.626 4.339-14.416 8.47-2.959-3.225-6.81-5.903-11.293-7.536-18.696-6.784-38.184 7.225-38.184 26.78v25.614c-10.681-10.206-27.508-10.586-38.622-.661-12.272 10.951-12.702 29.904-1.194 41.411l4.92 4.92c-18.699 5.761-37.595 5.761-56.295 0l4.92-4.92c18.031-18.031 4.908-48.632-20.144-48.632-7.144 0-13.976 2.619-19.337 7.576-.111.103-.226.201-.335.306v-25.614c0-25.763-31.863-38.429-49.476-19.244-3.791-4.131-8.784-7.135-14.417-8.47-26.165-57.056-29.528-119.085 7.677-170.617 2.425-3.358 1.668-8.046-1.69-10.471s-8.046-1.667-10.471 1.691c-18.89 26.163-29.364 56.829-30.472 89.015-10.298 3.355-31.214 12.478-38.863 32.857-6.324 16.851-1.993 36.871 12.854 59.612-3.247 1.58-6.155 3.75-8.571 6.383-5.211-5.679-12.691-9.244-20.988-9.244-15.708 0-28.488 12.78-28.488 28.488v169.981c0 4.142 3.358 7.5 7.5 7.5h167.905c4.142 0 7.5-3.358 7.5-7.5v-63.802l23.104-23.104c26.029 9.894 53.01 10.214 79.878 0l23.104 23.104v63.802c0 4.142 3.358 7.5 7.5 7.5h167.905c4.142 0 7.5-3.358 7.5-7.5v-50.209c0-4.142-3.358-7.5-7.5-7.5s-7.5 3.358-7.5 7.5v42.709h-152.903c0-48.681 0-108.768 0-162.481 0-7.438 6.051-13.488 13.488-13.488s13.488 6.051 13.488 13.488v27.913c0 4.142 3.358 7.5 7.5 7.5s7.5-3.358 7.5-7.5c.025-29.581-.521-30.093 1.498-34.063 2.362-4.564 7.076-7.339 11.99-7.339 7.438 0 13.488 6.051 13.488 13.488v27.913c0 4.142 3.358 7.5 7.5 7.5s7.5-3.358 7.5-7.5v-27.913c0-7.438 6.051-13.488 13.488-13.488 7.438 0 13.488 6.051 13.488 13.488v27.913c0 4.142 3.358 7.5 7.5 7.5s7.5-3.358 7.5-7.5v-27.913c0-7.438 6.051-13.488 13.488-13.488 7.438 0 13.488 6.051 13.488 13.488v89.772c.001 4.143 3.359 7.501 7.501 7.501zm-425.183-177.179c4.498-12.07 16.619-18.887 25.049-22.295 1.529 25.403 8.56 51.801 18.695 75.335-4.502 1.59-8.482 4.327-11.505 7.622-4.629-5.046-10.789-8.101-16.992-8.965-15.104-20.935-20.233-38.316-15.247-51.697zm-44.213 242.388v-162.482c0-7.438 6.051-13.488 13.488-13.488s13.488 6.051 13.488 13.488v27.913c0 4.142 3.358 7.5 7.5 7.5s7.5-3.358 7.5-7.5v-27.913c0-7.438 6.051-13.488 13.488-13.488s13.488 6.051 13.488 13.488v27.913c0 4.142 3.358 7.5 7.5 7.5s7.5-3.358 7.5-7.5v-27.913c0-7.845 6.72-13.966 14.191-13.449l.238.017c6.88.473 12.407 6.159 12.534 13.188.021 1.089.009 20.384.012 28.157 0 4.142 3.358 7.5 7.5 7.5s7.5-3.358 7.5-7.5v-27.913c0-7.438 6.051-13.488 13.488-13.488s13.488 6.051 13.488 13.488v162.481h-152.903zm167.904-115.665c10.649-10.616 10.206-10.282 11.149-11.051 6.036-4.94 15.308-3.758 19.785 3.029.005.008.01.017.015.025 3.428 5.221 2.861 12.336-1.739 16.938l-29.209 29.209v-38.15zm95.154 6.828c-.005-.008-.01-.017-.015-.025-3.428-5.221-2.861-12.336 1.739-16.938 5.247-5.247 13.811-5.267 19.075 0l10.134 10.134v38.15c-31.224-31.258-29.794-29.594-30.933-31.321zm139.378-81.854c-6.39.89-12.499 4.068-16.992 8.965-2.89-3.15-6.858-5.973-11.505-7.622 10.1-23.472 17.165-49.848 18.696-75.335 28.209 11.405 38.422 34.321 9.801 73.992z"/></g></g></svg>