<svg id="Capa_1" enable-background="new 0 0 512 512" height="512" viewBox="0 0 512 512" width="512" xmlns="http://www.w3.org/2000/svg"><g><g><path d="m173.684 378.607 25.673 62.947-25.673 62.946h-62.276c.001-98.401 62.276-125.893 62.276-125.893z" fill="#64d1e1"/><path d="m362.694 504.5h-62.276l-26.408-62.947 26.408-62.947c.001.001 62.276 27.493 62.276 125.894z" fill="#64d1e1"/><path d="m173.684 378.607h126.735v125.893h-126.735z" fill="#dadada"/><path d="m201.348 386.995c5.489 19.074 19.399 39.611 35.704 39.611s30.215-20.537 35.704-39.611z" fill="#ffcabd"/><path d="m481.068 100.547c-2.762-1.248-5.641-2.796-8.603-4.709-13.764-8.891-22.242-23.764-24.436-40.002-3.395-25.137-23.782-45.888-50.804-48.145-27.497-2.296-52.921 16.366-58.97 43.287-7.169 31.903 14.211 62.661 45.98 67.533 38.655 42.111 75.91 29.32 99.812 11.961 10.743-7.803 9.121-24.458-2.979-29.925z" fill="#e7886e"/><path d="m441.079 219.793h-408.055c0-23.442 3.921-46.28 11.471-67.766l192.556-25.768 192.556 25.768c7.55 21.486 11.472 44.323 11.472 67.766z" fill="#ed9b83"/><path d="m402.622 100.493-165.571 25.765-165.57-25.765c6.368-8.797 13.483-17.149 21.307-24.973 38.532-38.532 89.763-59.754 144.264-59.754s105.731 21.222 144.263 59.754c7.824 7.823 14.939 16.176 21.307 24.973z" fill="#ed9b83"/><path d="m100.603 217.285c0-26.196 4.667-51.302 13.209-74.535l-69.317 9.276c-7.55 21.486-11.471 44.324-11.471 67.766h67.611c-.01-.836-.032-1.669-.032-2.507z" fill="#e7886e"/><circle cx="408.004" cy="229.237" fill="#ffcabd" r="45.31"/><g><path d="m80.067 152.026c-8.981 20.778-13.968 43.686-13.968 67.762 0 94.414 76.538 170.952 170.952 170.952s170.952-76.538 170.952-170.952c0-24.076-4.987-46.984-13.968-67.762l-156.985-25.768z" fill="#ffdcce"/></g><path d="m238.701 15.786c-.55-.004-1.098-.02-1.649-.02-54.5 0-105.732 21.222-144.264 59.754-7.824 7.824-14.938 16.176-21.307 24.973l57.9 9.01c24.51-42.48 63.066-75.827 109.32-93.717z" fill="#e7886e"/><path d="m429.608 152.026h-385.113c6.435-18.321 15.496-35.66 26.986-51.534h331.141c11.49 15.875 20.551 33.213 26.986 51.534z" fill="#b2b0bc"/><circle cx="237.052" cy="126.258" fill="#c7c5cb" r="60.082"/><circle cx="237.052" cy="126.258" fill="#fff" r="27.666"/><path d="m172.403 378.08c-44.069-39.542-71.8-96.927-71.8-160.796 0-24.713 4.162-48.452 11.804-70.567l-32.341 5.309c-4.415 10.214-7.859 20.946-10.225 32.075-1.207-.107-2.447-.174-3.743-.174-25.024 0-45.31 20.286-45.31 45.31s20.286 45.309 45.31 45.309c3.143 0 6.021-.321 8.653-.93 15.732 47.446 51.687 85.672 97.652 104.464z" fill="#ffcabd"/><path d="m134.879 100.493h-63.398c-11.49 15.874-20.551 33.212-26.986 51.534h66.153c5.813-18.362 14.008-35.662 24.231-51.534z" fill="#a19dae"/><g><g><g><ellipse cx="136.624" cy="254.189" fill="#ff8997" rx="37.056" ry="29.51"/></g><g><ellipse cx="337.479" cy="254.189" fill="#ff8997" rx="37.056" ry="29.51"/></g></g></g><path d="m143.76 462.055c0-32.341 11.051-61.643 28.949-82.977-7.884 3.977-61.3 34.282-61.3 125.422h39.035c-4.313-13.174-6.684-27.483-6.684-42.445z" fill="#00c8de"/></g><g><path d="m158.218 203.133c-4.142 0-7.5 3.358-7.5 7.5v15.148c0 4.142 3.358 7.5 7.5 7.5s7.5-3.358 7.5-7.5v-15.148c0-4.142-3.358-7.5-7.5-7.5z"/><path d="m315.882 203.133c-4.142 0-7.5 3.358-7.5 7.5v15.148c0 4.142 3.358 7.5 7.5 7.5s7.5-3.358 7.5-7.5v-15.148c0-4.142-3.358-7.5-7.5-7.5z"/><path d="m262.761 219.676c-3.123-2.721-7.86-2.396-10.582.727-7.997 9.176-22.239 9.203-30.259 0-2.721-3.123-7.459-3.448-10.582-.727s-3.448 7.459-.727 10.582c13.991 16.055 38.899 16.039 52.876 0 2.722-3.123 2.397-7.86-.726-10.582z"/><path d="m237.05 161.423c19.39 0 35.166-15.775 35.166-35.166s-15.776-35.165-35.166-35.165-35.166 15.775-35.166 35.166 15.775 35.165 35.166 35.165zm0-55.331c11.119 0 20.166 9.046 20.166 20.166s-9.046 20.166-20.166 20.166-20.166-9.046-20.166-20.166 9.046-20.166 20.166-20.166z"/><path d="m69.755 281.903c15.886 42.647 47.637 77.627 88.04 97.74-30.054 22.204-53.889 63.857-53.889 124.857 0 4.142 3.358 7.5 7.5 7.5h251.287c4.142 0 7.5-3.358 7.5-7.5 0-26.421-4.389-50.36-13.046-71.151-1.593-3.824-5.984-5.632-9.807-4.041-3.824 1.592-5.633 5.983-4.041 9.807 7.076 16.995 11.025 36.437 11.766 57.886h-47.148v-104.884c6.148 4.618 14.169 11.872 21.798 22.476 2.419 3.362 7.106 4.128 10.468 1.708 3.362-2.419 4.127-7.105 1.708-10.468-8.912-12.388-18.308-20.815-25.585-26.193 40.402-20.114 72.151-55.092 88.037-97.738 30.734 2.151 56.468-22.345 56.468-52.666 0-13.713-5.257-26.219-13.857-35.617-1.646-13.419-4.559-26.631-8.696-39.378 18.196.247 35.295-6.882 50.194-17.703 15.408-11.19 13.047-34.991-4.299-42.828-17.051-7.704-26.424-22.081-28.693-38.88-4.006-29.658-27.697-52.117-57.612-54.615-25.158-2.095-49.053 11.211-60.864 33.035-55.876-30.028-122.21-32.691-179.2-9.678-3.841 1.551-5.697 5.922-4.146 9.763s5.923 5.698 9.763 4.146c75.874-30.64 166.773-11.787 223.807 55.51h-91.327c-25.795-45.463-91.658-45.83-117.662 0h-91.335c14.081-16.615 30.769-30.833 49.247-41.932 3.551-2.132 4.701-6.74 2.568-10.291-2.133-3.55-6.741-4.701-10.291-2.567-39.799 23.904-73.842 62.513-90.989 111.336v.001c-4.985 14.187-8.424 29.006-10.273 44.081-8.6 9.398-13.857 21.904-13.857 35.617-.002 30.341 25.751 54.816 56.466 52.667zm-25.446-100.795c1.45-7.313 3.313-14.525 5.576-21.582h19.16c-1.842 5.121-3.66 11.005-5.145 16.946-6.544.258-13.431 1.842-19.591 4.636zm216.737 215.53c-5.954 12.3-15.063 22.468-23.996 22.468s-18.042-10.168-23.996-22.468c15.315 2.057 31.637 2.197 47.992 0zm-94.864 100.362h-47.144c1.811-51.301 21.991-86.011 47.144-104.89zm15.001-107.686c4.721 1.557 9.498 2.907 14.32 4.059 7.021 20.363 22.325 40.732 41.547 40.732s34.526-20.369 41.547-40.732c4.822-1.152 9.599-2.502 14.32-4.059v107.686h-111.734zm22.552-9.491c-99.369-20.658-155.938-126.285-118.651-220.297h93.137c25.736 45.354 91.59 45.938 117.658 0h93.136c48.095 121.303-58.585 246.539-185.28 220.297zm85.605-259.094c1.735 16.804-4.535 32.497-15.85 43.382-12.617 12.091-27.237 13.922-27.137 13.887-49.235 8.96-81.659-49.96-48.358-86.906 30.378-33.547 86.569-15.737 91.345 29.637zm134.874 38.797c2.263 7.057 4.125 14.269 5.576 21.582-6.264-2.841-13.186-4.384-19.591-4.635-1.403-5.614-3.142-11.359-5.145-16.946h19.16zm-15.042 107.502c6.582-23.998 8.102-50.106 4.148-75.226 19.113 2.73 32.492 19.111 32.492 37.435 0 20.456-16.331 37.17-36.64 37.791zm-12.572-251.864c22.847 1.908 40.939 19.045 43.995 41.675 2.964 21.946 15.613 40.704 37.383 50.543 6.886 3.111 7.725 12.616 1.66 17.021-16 11.62-31.806 16.465-47.046 14.442-17.116-41.345-46.881-75.364-82.658-98.029 8.927-16.919 27.305-27.267 46.666-25.652zm2.116 92.828c7.887 11.354 14.428 23.176 19.967 36.534-11.473 0-104.648 0-116.548 0 3.316-11.793 3.317-24.731.001-36.534zm-323.361 0h96.608c-3.372 12.004-3.257 24.945.001 36.534-11.913 0-105.049 0-116.575 0 5.319-12.837 12.008-25.077 19.966-36.534zm-14.576 83.81c-3.989 25.344-2.411 51.254 4.147 75.226-20.308-.621-36.64-17.335-36.64-37.792.001-18.501 13.531-34.681 32.493-37.434z"/></g></g></svg>