<svg id="Capa_1" enable-background="new 0 0 512 512" height="512" viewBox="0 0 512 512" width="512" xmlns="http://www.w3.org/2000/svg"><g><g><path d="m321.278 76.011c-.314-.344-.638-.683-.971-1.015-9.676-9.676-24.205-11.533-35.749-5.58-.259-18.42-15.263-33.274-33.744-33.274s-33.485 14.854-33.744 33.274c-11.544-5.953-26.073-4.096-35.749 5.58-.333.333-.656.671-.971 1.015-14.805 16.202-2.698 42.371 19.25 42.371h102.429c21.947-.001 34.054-26.169 19.249-42.371z" fill="#fc5c70"/><path d="m75.844 272.87s-64.501-1.863-68.185 66.22c-2.293 42.373 20.474 82.267 57.748 102.548 22.983 12.506 55.303 22.577 99.789 22.577z" fill="#e27858"/><path d="m421.177 321.399c-5.438-121.64-36.712-213.917-174.639-213.917s-169.201 92.276-174.639 213.917c-1.414 31.625 7.515 62.857 25.382 88.988 27.254 39.859 72.427 63.695 120.712 63.695h57.088c48.286 0 93.459-23.836 120.712-63.695 17.869-26.132 26.797-57.364 25.384-88.988z" fill="#ed9b83"/><path d="m214.871 251.287c-.264-1.781-.405-3.6-.405-5.456 0-20.073 16.275-36.348 36.348-36.348s36.348 16.275 36.348 36.348c0 1.856-.141 3.675-.405 5.456z" fill="#f9d888"/><path d="m239.834 275.462c-9.678-9.316-31.65-2.684-41.17 6.836-9.581 9.581-9.581 25.115 0 34.696 7.493 7.493 18.626 9.125 27.706 4.898 1.027 12.604 11.575 22.515 24.444 22.515s23.417-9.911 24.444-22.515c9.08 4.227 20.213 2.595 27.706-4.898 9.581-9.581 9.581-25.115 0-34.696-9.52-9.52-31.492-16.153-41.17-6.836z" fill="#fc5c70"/><path d="m286.757 251.287c-2.639 17.491-17.726 30.892-35.943 30.892s-33.304-13.401-35.943-30.892c11.205-1.442 23.305-2.224 35.943-2.224s24.738.782 35.943 2.224z" fill="#f5c956"/><g><g><g><ellipse cx="157.799" cy="247.445" fill="#fff" rx="34.321" ry="27.331"/></g><g><ellipse cx="343.829" cy="247.445" fill="#fff" rx="34.321" ry="27.331"/></g></g></g><path d="m426.583 349.852-75.363-27.267-29.392 29.393c-28.336 28.336-28.336 74.279.007 102.622 14.168 14.168 32.745 21.259 51.315 21.259s37.14-7.084 51.308-21.252l29.392-29.392z" fill="#64d1e1"/><path d="m344.474 401.168c0-26.257 11.233-50.587 28.931-70.556l-22.185-8.027-29.392 29.392c-28.336 28.336-28.336 74.279.007 102.622 13.135 13.135 30.061 20.177 47.257 21.135-16.355-20.681-24.618-46.524-24.618-74.566z" fill="#00c8de"/><path d="m483.243 293.192c-28.343-28.343-74.287-28.343-102.63 0l-29.393 29.393 102.63 102.63 29.393-29.393c28.343-28.343 28.343-74.287 0-102.63z" fill="#fc5c70"/><path d="m108.667 288.417c0-70.053 30.698-132.626 78.828-173.902-88.336 23.698-111.04 104.98-115.596 206.884-1.414 31.625 7.515 62.857 25.382 88.989 24.054 35.18 62.071 57.866 103.863 62.71-55.898-40.671-92.477-108.217-92.477-184.681z" fill="#e7886e"/><g fill="#f8485e"><path d="m465.428 280.116c-27.347-14.239-61.855-9.884-84.815 13.076l-29.392 29.393 15.799 15.799c22.935-30.173 60.414-51.998 98.408-58.268z"/><path d="m185.886 114.437c4.492-15.186 11.939-32.116 21.393-48.108-9.205-1.287-18.879 1.587-25.958 8.666-.333.333-.656.671-.971 1.015-11.295 12.361-6.916 30.51 5.536 38.427z"/></g></g><g><path d="m198.618 217.263c2.721-3.123 2.396-7.861-.727-10.583-3.123-2.721-7.861-2.397-10.583.727-5.019 5.761-13.954 5.778-18.988 0-2.723-3.123-7.459-3.448-10.583-.727-3.123 2.722-3.448 7.46-.727 10.583 5.247 6.021 12.83 9.474 20.803 9.474 7.975 0 15.557-3.453 20.805-9.474z"/><path d="m344.655 217.263c2.721-3.123 2.396-7.861-.727-10.583-3.123-2.721-7.861-2.397-10.583.727-5.02 5.761-13.954 5.778-18.988 0-2.723-3.123-7.46-3.448-10.583-.727-3.123 2.722-3.448 7.46-.727 10.583 11.01 12.632 30.61 12.619 41.608 0z"/><path d="m423.762 264.897c-5.396-38.052-14.865-68.248-28.871-92.125-2.096-3.574-6.692-4.77-10.264-2.675-3.574 2.096-4.771 6.691-2.675 10.264 13.096 22.327 21.972 50.975 27.069 87.424-12.426 3.701-24.103 10.521-33.682 20.1-59.838 59.896-60.598 60.312-64.375 64.989-26.091 32.067-23.171 78.749 5.859 107.303-13.476 4.261-27.459 6.415-41.72 6.415h-57.093c-79.368 0-142.116-66.491-138.613-144.86 3.093-69.175 14.65-116.437 36.37-148.735 19.114-28.422 46.121-44.805 78.534-52.473 33.943-8.072 81.272-7.68 115.527 3 21.68 6.786 40.01 17.603 55.069 33.765 2.824 3.031 7.57 3.198 10.601.375 3.03-2.824 3.198-7.57.375-10.601-13.399-14.38-29.436-25.396-48.318-33.153 3.39-4.087 5.827-8.994 7.003-14.359 5.465-24.917-19.035-45.573-43.857-40.25-4.712-17.613-20.883-30.685-39.866-30.685-18.984 0-35.156 13.07-39.866 30.685-30.027-6.442-57.351 24.768-38.733 52.062-29.191 10.442-52 28.108-68.916 53.262-17.073 25.388-28.072 57.606-34.097 101.047-6.859.631-17.989 2.508-29.36 8.023-16.948 8.22-37.592 26.169-39.694 64.989-1.116 20.628 3.348 41.305 12.912 59.796 1.902 3.679 6.427 5.121 10.108 3.217 3.679-1.903 5.12-6.428 3.217-10.108-8.337-16.119-12.229-34.133-11.257-52.094 2.512-46.418 36.189-56.435 52.213-58.569-1.08 9.788-2.245 24.354-2.95 40.135-2.3 51.464 21.812 102.768 66.373 133.418-31.796-4.343-65.863-16.026-88.032-39.742-2.829-3.027-7.575-3.186-10.601-.357s-3.186 7.575-.357 10.601c32.313 34.568 84.871 46.499 131.973 46.725 17.102 6.448 35.442 9.886 54.245 9.886h57.093c19.137 0 37.822-3.502 55.605-10.411 30.731 19.309 72.025 15.799 99.087-11.263l58.79-58.79c31.222-31.221 31.222-82.023 0-113.245-17.699-17.692-41.682-25.347-64.826-22.986zm-237.125-184.618c7.161-7.161 18.017-8.854 27.01-4.218 4.932 2.543 10.859-.98 10.938-6.561.201-14.271 11.975-25.881 26.247-25.881s26.047 11.61 26.247 25.881c.078 5.548 5.976 9.119 10.938 6.561 15.651-8.071 35.424 4.141 31.886 20.277-1.091 4.975-4.253 9.36-8.482 11.943-36.024-10.52-86.358-11.081-123.513-1.676-7.558-6.445-9.343-18.239-1.271-26.326zm232.55 369.034c-26.644 26.644-69.606 24.904-94.304-2.406-23.157-25.617-22.204-65.146 2.274-89.624l24.091-24.091 92.03 92.03zm58.789-58.79-24.091 24.091-92.03-92.03c25.311-25.268 29.453-30.965 42.81-37.15 24.05-11.082 53.521-6.731 73.312 13.059 25.372 25.373 25.372 66.657-.001 92.03z"/><path d="m220.922 331.3c4.654 12.064 16.444 20.61 29.911 20.61 13.466 0 25.255-8.547 29.911-20.61 9.913 1.511 20.235-1.69 27.548-9.003 15.468-15.468 13.638-45.51-18.586-56.252 15.144-28.797-5.823-64.073-38.872-64.073-33.056 0-54.012 35.282-38.872 64.073-31.899 10.634-34.263 40.575-18.586 56.252 7.312 7.313 17.629 10.517 27.546 9.003zm56.173-73.545c-4.927 10.731-16.198 17.78-28.534 16.824-10.512-.843-19.694-7.465-23.99-16.824 16.7-1.563 35.235-1.618 52.524 0zm-26.262-40.781c14.927 0 27.243 11.394 28.705 25.943-18.969-1.849-39.39-1.757-57.41 0 1.462-14.549 13.777-25.943 28.705-25.943zm-46.851 70.624c4.121-4.121 11.336-7.53 18.063-8.692 16.309 14.254 41.004 14.482 57.574 0 6.727 1.162 13.943 4.571 18.064 8.692 6.656 6.656 6.658 17.433 0 24.091-5.043 5.044-12.777 6.411-19.24 3.403-4.728-2.201-10.217.986-10.641 6.19-.714 8.762-8.168 15.626-16.97 15.626s-16.256-6.864-16.971-15.626c-.425-5.216-5.929-8.384-10.641-6.19-11.182 5.204-24.228-2.915-24.228-15.448.001-4.55 1.772-8.828 4.99-12.046z"/></g></g></svg>