<svg id="Capa_1" enable-background="new 0 0 512 512" height="512" viewBox="0 0 512 512" width="512" xmlns="http://www.w3.org/2000/svg"><g><g><path d="m252.455 406.019v76.109c0 12.158-9.856 22.015-22.015 22.015-12.158 0-22.015-9.856-22.015-22.015v-76.109z" fill="#423e4f"/><path d="m164.396 406.019v76.109c0 12.158 9.856 22.015 22.015 22.015 12.158 0 22.015-9.856 22.015-22.015v-76.109z" fill="#4f4c5f"/><g fill="#423e4f"><path d="m106.397 91.904c-15.293-.963-29.076 9.243-32.591 24.158-5.477 23.241-6.736 60.548 23.688 97.528l101.007-62.732c-21.035-46.716-64.702-57.228-92.104-58.954z"/><path d="m310.453 91.904c15.293-.963 29.076 9.243 32.591 24.158 5.477 23.241 6.736 60.548-23.688 97.528l-101.007-62.732c21.036-46.716 64.702-57.228 92.104-58.954z"/><path d="m125.526 319.186s-28.102 6.109-63.029-14.685c-8.059-4.798-18.28-3.783-25.419 2.299-16.492 14.05-39.49 44.848-24.976 101.396 1.495 5.824 8.481 8.265 13.217 4.56 12.93-10.115 36.808-21.537 54.825 11.793 2.498 4.621 8.568 5.847 12.641 2.531 9.541-7.766 26.694-17.424 45.827-7.979l28.769-37.924v-63.595z"/><path d="m291.324 319.186s28.102 6.109 63.029-14.685c8.059-4.798 18.28-3.783 25.419 2.299 16.492 14.05 39.49 44.848 24.976 101.396-1.495 5.824-8.481 8.265-13.217 4.56-12.93-10.115-36.808-21.537-54.825 11.793-2.498 4.621-8.568 5.847-12.641 2.531-9.541-7.766-26.694-17.424-45.827-7.979l-28.769-37.924v-63.595z"/></g><path d="m285.779 385.752c0 42.721-34.632 68.457-77.353 68.457s-77.353-25.736-77.353-68.457 34.632-95.16 77.353-95.16 77.353 52.439 77.353 95.16z" fill="#5c586f"/><g><path d="m378.67 420.971c-9.005-5.523-11.827-17.299-6.304-26.303l45.274-73.817c5.522-9.005 17.298-11.829 26.303-6.304 9.005 5.523 11.827 17.299 6.304 26.303l-45.274 73.817c-5.527 9.012-17.308 11.822-26.303 6.304z" fill="#c7c5cb"/></g><path d="m439.006 359.177c-2.63-.415-5.325-.639-8.075-.639h-36.406l-22.159 36.13c-5.523 9.003-2.7 20.78 6.305 26.303 8.995 5.518 20.776 2.708 26.303-6.304z" fill="#b2b0bc"/><path d="m456.61 408.313c-.458-13.827-11.845-24.775-25.68-24.775h-129.218c-13.835 0-25.222 10.948-25.68 24.775-.552 16.666 1.418 39.436 12.293 60.901 7.897 15.587 24.043 25.268 41.517 25.268h72.959c17.473 0 33.62-9.681 41.517-25.268 10.874-21.466 12.844-44.235 12.292-60.901z" fill="#f9d888"/><circle cx="408.974" cy="103.384" fill="#ff8997" r="95.526"/><path d="m177.233 382.42c0-37.087 21.14-69.538 52.73-87.34-6.837-2.878-14.063-4.488-21.538-4.488-42.721 0-77.353 52.438-77.353 95.16s34.632 68.457 77.353 68.457c.126 0 .25-.007.376-.007-19.509-18.408-31.568-43.773-31.568-71.782z" fill="#4f4c5f"/><circle cx="208.425" cy="239.889" fill="#6a647f" r="114.72"/><path d="m118.762 240.402c0-49.053 26.982-91.622 66.518-112.896-52.263 10.707-91.575 56.954-91.575 112.384 0 54.347 37.792 99.864 88.528 111.713-37.868-21.79-63.471-63.418-63.471-111.201z" fill="#5c586f"/><path d="m318.589 415.371c0-11.22 1.965-21.951 5.542-31.833h-22.419c-13.835 0-25.222 10.948-25.68 24.775-.552 16.666 1.418 39.436 12.293 60.901 7.897 15.587 24.043 25.268 41.517 25.268h34.391c-27.092-14.681-45.644-44.595-45.644-79.111z" fill="#f5c956"/><path d="m470.311 103.383c0-33.822-27.517-61.339-61.339-61.339-33.649 0-61.339 27.347-61.339 61.339 0 33.822 27.517 61.339 61.339 61.339 33.798 0 61.339-27.503 61.339-61.339zm-15 0c0 10.074-3.241 19.399-8.721 27.01l-64.628-64.627c7.611-5.48 16.936-8.721 27.01-8.721 25.552-.001 46.339 20.786 46.339 46.338zm-92.677 0c0-10.074 3.241-19.4 8.722-27.011l64.627 64.628c-7.611 5.48-16.937 8.722-27.011 8.722-25.551 0-46.338-20.788-46.338-46.339z" fill="#fff"/></g><g><path d="m161.428 214.895-19.738-3.48c-4.076-.718-7.969 2.005-8.688 6.084s2.004 7.969 6.084 8.689c21.086 3.678 19.88 3.596 21.049 3.596 3.571 0 6.736-2.561 7.377-6.199.72-4.08-2.004-7.97-6.084-8.69z"/><path d="m275.154 211.415-19.738 3.48c-4.08.72-6.803 4.609-6.084 8.688s4.609 6.803 8.689 6.084l19.738-3.48c4.08-.72 6.803-4.609 6.084-8.689-.719-4.078-4.607-6.803-8.689-6.083z"/><path d="m235.436 241.866c-4.142 0-7.5 3.358-7.5 7.5 0 3.312-2.695 6.007-6.007 6.007s-6.007-2.695-6.007-6.007c0-4.142-3.358-7.5-7.5-7.5s-7.5 3.358-7.5 7.5c0 3.312-2.695 6.007-6.007 6.007s-6.007-2.695-6.007-6.007c0-4.142-3.358-7.5-7.5-7.5s-7.5 3.358-7.5 7.5c0 11.583 9.424 21.007 21.007 21.007 5.142 0 9.852-1.863 13.507-4.941 3.655 3.078 8.365 4.941 13.507 4.941 11.583 0 21.007-9.424 21.007-21.007 0-4.142-3.358-7.5-7.5-7.5z"/><path d="m149.154 231.911c-4.142 0-7.5 3.358-7.5 7.5v11.212c0 4.142 3.358 7.5 7.5 7.5s7.5-3.358 7.5-7.5v-11.212c0-4.142-3.357-7.5-7.5-7.5z"/><path d="m267.69 231.911c-4.142 0-7.5 3.358-7.5 7.5v11.212c0 4.142 3.358 7.5 7.5 7.5s7.5-3.358 7.5-7.5v-11.212c0-4.142-3.358-7.5-7.5-7.5z"/><path d="m408.973 206.41c56.809 0 103.027-46.218 103.027-103.028 0-23.104-7.478-44.942-21.626-63.153-2.542-3.271-7.254-3.863-10.524-1.322-3.271 2.542-3.863 7.253-1.322 10.524 12.085 15.555 18.472 34.211 18.472 53.951 0 48.539-39.489 88.028-88.027 88.028-48.24 0-88.028-39.183-88.028-88.028 0-48.346 39.308-88.028 88.028-88.028 17.708 0 34.782 5.236 49.376 15.143 3.427 2.327 8.091 1.435 10.418-1.993 2.327-3.427 1.435-8.091-1.993-10.418-17.089-11.601-37.076-17.733-57.8-17.733-50.389 0-92.44 36.363-101.302 84.225-23.266 1.814-54.451 9.551-77.741 34.984-6.984-1.245-14.171-1.896-21.507-1.896s-14.523.651-21.506 1.896c-24.07-26.285-56.573-33.668-80.051-35.147-19.023-1.197-35.997 11.388-40.365 29.925-5.926 25.147-6.694 62.707 22.315 100.359-1.711 8.132-2.616 16.557-2.616 25.19 0 27.085 8.862 52.137 23.83 72.419-10.571-.713-26.223-3.845-43.702-14.251-10.759-6.405-24.471-5.186-34.12 3.035-8.149 6.943-19.285 19.044-26.054 37.267-1.442 3.883.536 8.2 4.419 9.643 3.884 1.442 8.2-.536 9.643-4.419 5.645-15.197 14.927-25.285 21.72-31.072 4.761-4.055 11.48-4.683 16.719-1.564 29.425 17.518 54.503 17.203 64.204 16.195 3.928 3.854 8.105 7.438 12.489 10.716-10.528 21.562-15.394 47.204-8.679 70.057-12.86-1.32-26.156 3.2-38.624 13.351-.427.346-1.044.211-1.309-.28-7.812-14.452-17.657-23.008-29.263-25.429-11.538-2.407-24.258 1.498-36.781 11.295-.464.363-1.176.092-1.332-.518-3.251-12.668-4.697-24.727-4.296-35.84.149-4.14-3.085-7.616-7.225-7.766-4.124-.155-7.616 3.084-7.766 7.225-.453 12.552 1.147 26.047 4.757 40.11 2.839 11.065 16.116 15.635 25.103 8.603 6.23-4.874 15.532-10.289 24.475-8.426 7.081 1.478 13.517 7.493 19.131 17.878 4.748 8.785 16.277 11.046 23.974 4.781 8.843-7.198 22.413-14.242 37.131-7.37 5.458 8.571 12.794 16.014 22.246 22.058v34.544c0 16.274 13.241 29.515 29.516 29.515 8.742 0 16.605-3.824 22.015-9.884 5.409 6.06 13.272 9.884 22.015 9.884 16.274 0 29.515-13.24 29.515-29.515v-34.587c3.863-2.474 7.458-5.246 10.747-8.298 1.915 10.735 5.278 22.197 10.934 33.361 9.181 18.122 27.653 29.379 48.208 29.379h72.96c20.555 0 39.026-11.257 48.208-29.379 11.819-23.33 13.647-47.974 13.099-64.539-.525-15.851-11.941-28.663-26.994-31.455l19.528-31.84c7.694-12.543 3.77-28.923-8.776-36.618-12.54-7.694-28.922-3.773-36.618 8.776l-5.927 9.663c-6.42-11.779-14.383-20.134-20.683-25.501-9.648-8.221-23.362-9.44-34.12-3.035-17.484 10.409-33.14 13.54-43.704 14.253 14.969-20.283 23.832-45.335 23.832-72.421 0-8.629-.905-17.05-2.614-25.178 7.38-9.588 13.209-19.724 17.421-30.268 17.511 13.754 39.575 21.966 63.52 21.966zm-314.749-10.111c-18.791-29.81-17.81-58.626-13.122-78.519 2.567-10.893 12.218-18.441 23.282-18.441.509 0 1.022.016 1.537.049 18.775 1.183 44.034 6.552 64.046 24.472-33.892 11.265-62.402 37.606-75.743 72.439zm92.183 300.346c-8.004 0-14.516-6.511-14.516-14.515v-26.964c9.357 3.575 19.194 5.622 29.03 6.293v20.671c.001 8.004-6.51 14.515-14.514 14.515zm58.545-41.479v26.964c0 8.003-6.511 14.515-14.515 14.515s-14.515-6.511-14.515-14.515v-20.671c9.719-.665 19.833-2.736 29.03-6.293zm23.601-36.233c-22.506 32.989-80.018 36.549-110.001 11.331-24.831-20.887-24.254-54.74-10.533-84.108 18.336 10.448 39.193 15.954 60.403 15.954 21.178 0 42.057-5.501 60.403-15.954 5.687 12.175 9.429 25.995 9.448 39.483-9.572 9.498-10.254 19.695-9.72 33.294zm180.561-10.37c.491 14.812-1.104 36.77-11.487 57.263-6.612 13.051-19.957 21.158-34.827 21.158h-72.96c-14.87 0-28.215-8.107-34.827-21.158-8.857-17.483-12.131-37.791-11.487-57.264.342-10.103 8.682-17.523 18.184-17.523h129.22c9.871 0 17.858 7.698 18.184 17.524zm-25.082-83.791c3.359-5.478 10.51-7.193 15.988-3.833s7.193 10.511 3.832 15.989l-23.986 39.11h-27.277zm-65.843-13.826c5.24-3.12 11.959-2.492 16.719 1.564 6.591 5.616 15.373 15.145 21.049 29.346l-20.965 34.183c-75.3.349-74.588-.866-82.122 1.181-1.274-13.657-5.507-27.327-11.375-39.363 4.383-3.278 8.56-6.862 12.489-10.716 9.706 1.009 34.782 1.322 64.205-16.195zm-149.767 36.165c-58.652 0-107.221-47.645-107.221-107.221 0-58.602 47.535-107.221 107.221-107.221 59.308 0 107.221 48.259 107.221 107.221 0 58.528-47.507 107.221-107.221 107.221zm114.196-150.815c-13.056-34.079-41.07-60.911-75.74-72.436 18.313-16.399 41.02-22.288 59.131-24.076-.94 27.718 8.96 53.828 27.49 73.724-2.622 7.83-6.262 15.45-10.881 22.788z"/></g></g></svg>