<svg id="Capa_1" enable-background="new 0 0 512 512" height="512" viewBox="0 0 512 512" width="512" xmlns="http://www.w3.org/2000/svg"><g><g><circle cx="456.772" cy="173.896" fill="#5c586f" r="40.769"/><path d="m72.006 366.203s-45.173 45.225-45.173 125.035h269.557l59.616-52.283 30.87-71.761-113.141-60.012z" fill="#ed9b83"/><path d="m337.123 69.949c-2.2-17.239-21.075-26.832-36.266-18.39l-62.206 34.568 44.664 78.648c52.189-22.521 57.625-64.916 53.808-94.826z" fill="#e27858"/><path d="m8.468 69.949c2.2-17.239 21.075-26.832 36.266-18.39l62.206 34.568-44.664 78.648c-52.188-22.521-57.625-64.916-53.808-94.826z" fill="#e27858"/><path d="m37.77 287.17c-.814-9.689-.579-19.623.785-29.704l13.915-102.497c4.08-30.106 18.976-56.378 40.442-75.128s49.503-29.978 79.884-29.978c60.751 0 112.157 44.904 120.326 105.106l13.915 102.497c1.363 10.081 1.598 20.015.785 29.704z" fill="#ed9b83"/><path d="m57.555 232.485c0-78.164 40.868-145.262 102.304-181.93-25.363 2.698-48.565 13.231-66.947 29.286-21.466 18.75-36.362 45.021-40.442 75.127l-13.915 102.499c-1.363 10.081-1.598 20.015-.784 29.704h27.076c-4.879-18.721-7.292-37.309-7.292-54.686z" fill="#e7886e"/><path d="m273.736 307.182-201.73 59.021s-45.173 45.225-45.173 125.035h45.992c-.156-2.741-.245-5.501-.245-8.282 0-77.156 61.041-139.702 136.339-139.702z" fill="#e7886e"/><path d="m307.821 287.17c-2.697 32.371-16.965 61.849-38.863 83.934-24.399 24.614-58.27 40.05-96.162 40.05-71.891 0-129.318-55.544-135.025-123.983 34.489-31.999 82.257-51.817 135.025-51.817s100.536 19.818 135.025 51.816z" fill="#f7cec4"/><ellipse cx="231.74" cy="315.18" fill="#423e4f" rx="18.741" ry="24.307"/><ellipse cx="113.851" cy="315.18" fill="#423e4f" rx="18.741" ry="24.307"/><path d="m231.917 73.079c-1.294-28.131-24.127-50.963-52.257-52.257-30.909-1.422-56.517 22.723-57.476 53.085-.037 1.176-.076 2.353-.217 3.521-2.712 22.376-15.813 36.462-25.551 44.014-3.654 2.834-2.072 8.702 2.513 9.3 49.877 6.505 74.37-16.477 83.103-27.589 1.216-1.547 3.696-.541 3.488 1.416-.809 7.619-2.792 13.921-4.633 18.413-1.494 3.643 1.626 7.477 5.508 6.812 26.703-4.57 46.824-28.422 45.522-56.715z" fill="#6a647f"/><path d="m288.061 257.153c11.964-47.718 55.142-83.051 106.567-83.051s94.603 35.333 106.567 83.051l-106.567 20.425z" fill="#6a647f"/><path d="m347.904 383.436s-51.514 40.762-51.514 107.802h160.381s1.898-67.349-15.66-118.538z" fill="#ffc8e5"/><path d="m364.334 178.356c-37.468 10.729-66.754 40.832-76.273 78.796l27.32 5.236c7.023-32.994 24.536-62.188 48.953-84.032z" fill="#5c586f"/><path d="m501.195 257.153s-44.243-52.165-98.183-7.646c-4.874 4.023-11.894 4.023-16.769 0-53.94-44.519-98.183 7.646-98.183 7.646-2.232 8.879-3.383 18.189-3.301 27.789.512 59.353 48.794 107.981 108.143 108.891 61.474.942 111.598-48.603 111.598-109.859 0-9.258-1.147-18.241-3.305-26.821z" fill="#fed2a4"/><path d="m311.973 294.831c0-21.566 4.41-42.116 12.383-60.828-22.103 6.426-36.295 23.151-36.295 23.151-2.232 8.879-3.383 18.189-3.301 27.789.328 38.017 20.255 71.634 50.135 91.129-14.547-23.714-22.922-51.513-22.922-81.241z" fill="#ffbd86"/><path d="m339.4 484.41c0-44.254 21.47-83.258 54.101-106.227l-45.597 5.252s-51.514 40.762-51.514 107.802h43.184c-.114-2.26-.174-4.536-.174-6.827z" fill="#ffb3dd"/><g><path d="m381.286 425.767c-41.655-3.976-79.896-25.596-104.92-59.318-9.682-13.047-6.954-31.474 6.095-41.157 13.044-9.68 31.473-6.955 41.157 6.095 15.109 20.361 38.166 33.412 63.259 35.807 16.174 1.544 28.035 15.907 26.491 32.082-1.546 16.196-15.934 28.036-32.082 26.491z" fill="#ffbd86"/></g><path d="m60.859 268.922c-8.215 5.517-15.941 11.616-23.089 18.248 4.84 58.03 46.865 106.782 103.36 120.272-45.136-35.818-71.502-88.9-80.271-138.52z" fill="#f3bdae"/></g><g><path d="m231.778 283.378c-14.471 0-26.244 14.27-26.244 31.811s11.773 31.811 26.244 31.811 26.244-14.27 26.244-31.811-11.773-31.811-26.244-31.811zm0 48.619c-6.094 0-11.242-7.697-11.242-16.809s5.148-16.809 11.242-16.809 11.242 7.697 11.242 16.809-5.148 16.809-11.242 16.809z"/><path d="m113.874 283.378c-14.471 0-26.244 14.27-26.244 31.811s11.773 31.811 26.244 31.811 26.244-14.27 26.244-31.811-11.773-31.811-26.244-31.811zm0 48.619c-6.094 0-11.242-7.697-11.242-16.809s5.148-16.809 11.242-16.809 11.242 7.697 11.242 16.809-5.148 16.809-11.242 16.809z"/><path d="m82.636 194.522v15.889c0 4.143 3.359 7.501 7.501 7.501 4.143 0 7.501-3.358 7.501-7.501v-15.889c0-4.143-3.358-7.501-7.501-7.501-4.142 0-7.501 3.359-7.501 7.501z"/><path d="m255.515 217.912c4.143 0 7.501-3.358 7.501-7.501v-15.889c0-4.143-3.358-7.501-7.501-7.501s-7.501 3.358-7.501 7.501v15.889c0 4.143 3.358 7.501 7.501 7.501z"/><path d="m196.693 340.679c-3.123-2.721-7.861-2.396-10.583.727-7.022 8.058-19.525 8.082-26.568 0-2.722-3.123-7.46-3.448-10.583-.727-3.123 2.722-3.448 7.46-.727 10.583 13.015 14.934 36.184 14.919 49.187 0 2.722-3.123 2.397-7.861-.726-10.583z"/><path d="m340.703 275.197c-10.796 0-19.579 8.783-19.579 19.579 0 4.143 3.358 7.501 7.501 7.501s7.501-3.358 7.501-7.501c0-2.524 2.053-4.577 4.577-4.577s4.577 2.053 4.577 4.577c0 4.143 3.358 7.501 7.501 7.501s7.501-3.358 7.501-7.501c0-10.796-8.783-19.579-19.579-19.579z"/><path d="m448.67 275.197c-10.796 0-19.579 8.783-19.579 19.579 0 4.143 3.358 7.501 7.501 7.501s7.501-3.358 7.501-7.501c0-2.524 2.053-4.577 4.577-4.577s4.578 2.053 4.578 4.577c0 4.143 3.358 7.501 7.501 7.501s7.501-3.358 7.501-7.501c0-10.796-8.784-19.579-19.58-19.579z"/><path d="m412.426 303.238c-3.122-2.722-7.861-2.396-10.583.727-3.778 4.335-10.51 4.365-14.315 0-2.722-3.123-7.46-3.449-10.583-.726-3.123 2.722-3.448 7.46-.726 10.583 9.794 11.238 27.192 11.179 36.934 0 2.722-3.124 2.397-7.862-.727-10.584z"/><path d="m508.541 255.324c-4.106-16.373-11.525-31.196-21.435-43.836 11.279-9.065 18.007-22.794 18.007-37.602 0-26.619-21.657-48.276-48.276-48.276-24.442 0-44.686 18.264-47.836 41.858-15.238-1.853-30.16-.703-44.062 2.929-4.008 1.047-6.409 5.145-5.362 9.153s5.143 6.41 9.153 5.362c45.141-11.792 92.765 8.436 115.421 49.161-27.127-15.428-57.403-13.834-85.855 9.648-2.1 1.734-5.138 1.72-7.222 0-28.419-23.456-58.762-25.03-85.727-9.721 8.954-15.923 22.133-29.425 38.178-38.703 3.586-2.074 4.812-6.662 2.739-10.248-2.074-3.586-6.662-4.813-10.248-2.739-10.693 6.183-20.269 14.011-28.435 23.065l-5.67-41.765c54.83-33.514 42.255-90.886 42.704-94.633-2.873-22.509-27.556-35.002-47.355-24l-44.825 24.91c-4.739-3.733-9.754-7.153-15.03-10.211-6.891-25.66-29.998-45.117-57.369-46.376-28.728-1.322-52.835 16.662-61.651 41.102-8.963 4.179-17.396 9.366-25.177 15.48l-44.816-24.905c-19.837-11.023-44.488 1.531-47.355 24-5.143 40.307 8.792 73.905 42.703 94.633l-12.606 92.852c-5.515 40.782 6.573 79.903 30.936 109.675-6.131 7.383-17.217 22.459-26.592 44.563-1.618 3.814.163 8.217 3.977 9.835s8.217-.163 9.834-3.977c7.974-18.8 17.364-32.122 23.005-39.191 53.752 53.752 144.765 56.791 202.204-1.139 11.123 13.694 24.494 25.426 39.537 34.671-14.45 21.836-23.461 46.72-24.895 72.868h-254.654c.52-13.883 2.483-27.547 5.855-40.715 1.028-4.013-1.392-8.1-5.405-9.128-4.013-1.026-8.1 1.392-9.128 5.405-4.289 16.749-6.464 34.223-6.464 51.938 0 4.143 3.358 7.501 7.501 7.501h429.992c4.061 0 7.384-3.231 7.498-7.29.067-2.381 1.426-56.791-11.385-105.603 11.688-6.692 22.247-15.395 31.115-25.8 41.513-48.705 24.468-104.65 24.476-104.751zm-51.703-114.712c18.347 0 33.274 14.927 33.274 33.274 0 10.471-4.88 20.163-13.027 26.402-14.854-14.618-33.412-25.001-53.32-30.064 1.828-16.631 15.962-29.612 33.073-29.612zm-144.007 190.52c3.131 2.249 4.963 4.939 4.812 4.734 16.238 21.883 41.145 36.191 68.578 38.809 9.379.893 17.063 7.731 19.213 16.638 3.504 14.435-8.028 28.12-22.886 27.031-62.695-4.665-97.943-53.434-97.796-53.316-2.18-2.774-3.912-4.944-5.178-8.263-5.548-14.545 5.5-30.352 21.305-29.725 4.44.171 8.59 1.684 11.952 4.092zm-8.284-273.042c10.574-5.875 23.655.788 25.186 12.786 3 23.513-.236 54.875-30.226 76.356-4.598-24.297-16.443-47.931-35.18-66.792zm-125.2-29.805c31.157 1.433 53.232 33.052 42.387 63.313-5.148 14.361-17.042 25.739-32.24 29.834 2.402-7.111 3.514-14.67 3.57-16.881.227-9.035-11.262-13.222-16.897-6.053-16.661 21.205-44.161 27.585-70.919 25.356 14.315-12.716 23.859-30.707 24.459-49.734.828-26.193 22.894-47.075 49.64-45.835zm-87.507 87.213c-8.903 6.905-5.047 21.206 6.141 22.666 26.474 3.452 53.647-.194 75.442-16.357-1.083 4.295.269 9.018 3.508 12.094 5.026 4.733 11.047 3.272 10.791 3.264 28.899-4.955 50.218-29.53 51.71-58.32 22.871 16.536 39.83 41.874 45.392 71.498.834 4.449 1.192 7.901 1.549 10.324l8.378 61.707c-6.653 10.769-11.571 22.797-14.381 34.86-75.472-44.993-170.648-36.937-235.464 13.995.413-11.228.826-9.254 15.014-115.266 4.667-34.446 24.83-64.917 54.806-82.708-.637 16.978-9.718 32.03-22.886 42.243zm-75.921-44.622c1.519-11.898 14.526-18.708 25.187-12.786l40.213 22.347c-18.375 18.485-30.507 42.078-35.174 66.794-29.992-21.481-33.227-52.842-30.226-76.355zm61.602 290.246c-17.778-19.808-28.936-44.519-31.905-70.92 64.251-57.187 161.715-62.439 232.171-16.892-1.336 14.76.138 29.552 4.195 43.411-1.174.657-2.732 1.66-3.947 2.557-14.088 10.456-18.479 28.891-11.989 44.091-49.572 52.906-135.668 55.414-188.525-2.247zm361.67 31.499c8.912 35.859 10.108 75.215 10.193 91.147h-145.205c1.479-23.926 10.065-46.356 23.048-65.606 17.241 8.457 35.705 13.458 53.403 15.094 20.619 2.009 39.284-13.578 40.383-34.863 5.793-1.329 12.388-3.397 18.178-5.772zm-20.474-9.111c-5.056-13.549-17.405-22.464-31.07-23.769-22.985-2.194-44.109-14.154-57.957-32.815-7.726-10.412-20.456-16.04-33.377-14.732-4.933-17.043-5.234-34.69-1.35-51.441 23.756-25.235 57.237-29.508 86.326-5.653 8.306 6.798 19.218 6.247 26.557.19 23.369-19.286 49.17-22.128 75.328-4.191 4.259 3.004 8.228 6.465 11.249 9.669 12.732 54.84-21.2 109.585-75.706 122.742z"/></g></g></svg>