<svg id="Capa_1" enable-background="new 0 0 512 512" height="512" viewBox="0 0 512 512" width="512" xmlns="http://www.w3.org/2000/svg"><g><g><path d="m364.692 397.555-24.552-99.898c-1.659-6.74-2.489-13.664-2.489-20.608v-222.136c0-26.185-21.228-47.413-47.413-47.413h-201.693c-26.185 0-47.413 21.228-47.413 47.413v222.136c0 6.945-.84 13.869-2.499 20.608l-24.552 99.898c-3.401 13.797-3.329 28.229.195 42.006 4.886 19.103 15.938 35.338 30.698 46.799 2.94 2.284 6.023 4.374 9.229 6.248l41.988-23.24 93.196 23.24 90.122-23.24 45.063 23.24c19.349-11.37 34.067-30.145 39.926-53.047 1.792-7.016 2.694-14.207 2.694-21.397-.001-6.924-.831-13.838-2.5-20.609z" fill="#b2b0bc"/><path d="m56.105 275.259c0-112.602 20.592-211.816 112.905-267.759h-80.465c-26.185 0-47.413 21.228-47.413 47.413v222.136c0 6.945-.84 13.869-2.499 20.608l-24.552 99.898c-3.401 13.797-3.329 28.229.195 42.006 4.886 19.103 15.938 35.338 30.698 46.799 2.94 2.284 6.023 4.374 9.229 6.248l41.988-23.24.396.099c-31.719-53.353-40.482-120.753-40.482-194.208z" fill="#a19dae"/><g><path d="m111.12 353.82h-29.859c-36.564 0-66.311-29.747-66.311-66.311s29.747-66.311 66.311-66.311h29.859c36.564 0 66.31 29.747 66.31 66.311s-29.747 66.311-66.31 66.311zm-29.859-86.53c-11.149 0-20.218 9.069-20.218 20.218s9.07 20.218 20.218 20.218h29.859c11.148 0 20.218-9.069 20.218-20.218s-9.07-20.218-20.218-20.218z" fill="#938ea3"/></g><g><path d="m201.343 287.509c0-36.564 29.747-66.311 66.31-66.311h29.859c36.564 0 66.311 29.747 66.311 66.311s-29.747 66.311-66.311 66.311h-29.859c-36.563 0-66.31-29.747-66.31-66.311zm66.311-20.219c-11.148 0-20.218 9.069-20.218 20.218s9.07 20.218 20.218 20.218h29.859c11.148 0 20.218-9.069 20.218-20.218s-9.07-20.218-20.218-20.218z" fill="#938ea3"/></g><g><path d="m242.315 310.555h-105.856c-12.728 0-23.046-10.318-23.046-23.046s10.318-23.046 23.046-23.046h105.856c12.728 0 23.046 10.318 23.046 23.046s-10.318 23.046-23.046 23.046z" fill="#a19dae"/></g><g><path d="m322.852 310.555h85.37c12.728 0 23.046-10.318 23.046-23.046s-10.318-23.046-23.046-23.046h-85.37c-12.728 0-23.046 10.318-23.046 23.046s10.318 23.046 23.046 23.046z" fill="#a19dae"/></g><path d="m189.387 434.238c-24.886 0-45.061 20.174-45.061 45.061v25.199h90.122v-25.199c0-24.887-20.175-45.061-45.061-45.061z" fill="#ccccca"/><path d="m144.328 479.303v25.197h-46.41c-15.805 0-30.79-4.281-43.716-11.892v-13.305c0-24.89 20.178-45.068 45.058-45.068 24.89 0 45.068 20.178 45.068 45.068z" fill="#dadada"/><path d="m324.571 479.303v13.305c-12.926 7.61-27.912 11.892-43.716 11.892h-46.41v-25.197c0-24.89 20.178-45.068 45.068-45.068 24.879 0 45.058 20.178 45.058 45.068z" fill="#dadada"/><g><path d="m219.475 97.949c-1.088 0-2.193-.238-3.239-.74-8.113-3.893-17.397-5.951-26.85-5.951-9.447 0-18.728 2.056-26.839 5.946-3.735 1.791-8.214.215-10.006-3.52-1.791-3.735-.215-8.214 3.52-10.006 10.123-4.854 21.646-7.42 33.325-7.42 11.685 0 23.213 2.568 33.339 7.427 3.734 1.792 5.309 6.272 3.517 10.006-1.29 2.688-3.972 4.258-6.767 4.258z" fill="#a19dae"/></g><g><path d="m189.386 163.557c-11.679 0-23.203-2.566-33.325-7.42-3.735-1.792-5.311-6.271-3.52-10.006 1.792-3.734 6.271-5.31 10.006-3.52 8.111 3.89 17.392 5.946 26.839 5.946 9.452 0 18.737-2.058 26.85-5.951 3.736-1.791 8.214-.218 10.006 3.517 1.792 3.734.217 8.214-3.517 10.006-10.126 4.859-21.655 7.428-33.339 7.428z" fill="#a19dae"/></g><g><path d="m219.48 127.407h-60.188c-4.142 0-7.5-3.358-7.5-7.5s3.358-7.5 7.5-7.5h60.188c4.142 0 7.5 3.358 7.5 7.5s-3.358 7.5-7.5 7.5z" fill="#a19dae"/></g><circle cx="404.892" cy="103.026" fill="#ff8997" r="95.526"/><path d="m448.343 146.277c11.048-11.099 17.888-26.39 17.888-43.25 0-33.822-27.517-61.339-61.339-61.339-16.86 0-32.151 6.84-43.25 17.888-.034.033-.072.062-.106.096s-.063.071-.096.106c-11.048 11.099-17.888 26.39-17.888 43.25 0 33.822 27.517 61.339 61.339 61.339 16.86 0 32.151-6.84 43.25-17.888.034-.033.072-.062.106-.096s.063-.071.096-.106zm2.888-43.25c0 10.074-3.241 19.4-8.722 27.011l-64.628-64.628c7.611-5.481 16.937-8.722 27.011-8.722 25.551.001 46.339 20.788 46.339 46.339zm-92.678 0c0-10.074 3.241-19.4 8.722-27.01l64.628 64.627c-7.611 5.481-16.937 8.722-27.011 8.722-25.552 0-46.339-20.787-46.339-46.339z" fill="#fff"/><path d="m56.105 275.259c0-16.906.467-33.509 1.568-49.71-24.95 9.53-42.724 33.703-42.724 61.96 0 29.124 18.882 53.905 45.04 62.791-2.795-24.029-3.884-49.159-3.884-75.041z" fill="#827f98"/></g><g><path d="m162.562 97.204c8.111-3.89 17.392-5.946 26.839-5.946 9.453 0 18.737 2.058 26.85 5.951 1.046.502 2.151.74 3.239.74 2.794 0 5.478-1.569 6.767-4.257 1.792-3.734.217-8.214-3.517-10.006-10.125-4.859-21.654-7.427-33.339-7.427-11.679 0-23.203 2.566-33.325 7.42-3.735 1.792-5.311 6.271-3.52 10.006s6.271 5.309 10.006 3.519z"/><path d="m216.25 142.606c-8.113 3.893-17.397 5.951-26.85 5.951-9.447 0-18.728-2.056-26.839-5.946-3.734-1.791-8.215-.214-10.006 3.52-1.791 3.735-.215 8.214 3.52 10.006 10.123 4.854 21.646 7.42 33.325 7.42 11.685 0 23.214-2.568 33.339-7.427 3.734-1.792 5.309-6.272 3.517-10.006-1.791-3.735-6.27-5.309-10.006-3.518z"/><path d="m159.307 127.407h60.188c4.142 0 7.5-3.358 7.5-7.5s-3.358-7.5-7.5-7.5h-60.188c-4.142 0-7.5 3.358-7.5 7.5s3.358 7.5 7.5 7.5z"/><path d="m404.908 206.053c56.809 0 103.026-46.218 103.026-103.027 0-21.377-6.492-41.884-18.774-59.303-2.387-3.386-7.066-4.195-10.451-1.808s-4.195 7.066-1.808 10.451c10.489 14.876 16.033 32.395 16.033 50.66 0 48.538-39.488 88.027-88.026 88.027-48.523 0-88.026-39.47-88.026-88.027 0-48.529 39.501-88.026 88.026-88.026 19.183 0 37.413 6.061 52.72 17.527 3.315 2.483 8.016 1.809 10.499-1.506s1.809-8.016-1.506-10.499c-17.923-13.425-39.263-20.522-61.713-20.522-26.09 0-49.942 9.754-68.113 25.799-9.915-15.766-27.488-25.799-46.542-25.799h-201.693c-30.278 0-54.912 24.634-54.912 54.913v71.07c0 4.142 3.358 7.5 7.5 7.5s7.5-3.358 7.5-7.5v-71.07c0-22.008 17.905-39.913 39.912-39.913h201.692c15.09 0 28.908 8.654 35.632 21.926-15.301 18.266-24.004 41.591-24.004 66.101 0 26.024 9.626 51.269 28.285 70.905v47.367c-10.271-5.099-21.431-7.601-32.638-7.601h-29.858c-28.662 0-55.163 16.987-67.183 43.265h-22.168c-11.776-25.8-38.021-43.265-67.183-43.265-29.107.121-30.955-.282-37.529.399-8.735.898-17.146 3.325-24.958 7.204v-65.317c0-4.142-3.358-7.5-7.5-7.5s-7.5 3.358-7.5 7.5v75.201c-15.999 13.55-26.183 33.766-26.183 56.325 0 16.722 5.598 32.156 15.006 44.546l-15.657 63.704c-14.467 58.693 29.983 116.24 91.119 116.24h182.936c16.718 0 33.146-4.469 47.51-12.922.002-.001.004-.002.006-.003 37.117-21.811 53.18-64.469 43.604-103.31l-15.664-63.734c3.268-4.293 6.091-8.969 8.377-13.977h43.534c16.843 0 30.546-13.703 30.546-30.546s-13.703-30.546-30.546-30.546h-43.534c-4.591-10.055-11.332-18.78-19.537-25.715v-44.33c16.862 12.043 37.489 19.136 59.743 19.136zm-152.568 69.579c3.381 2.854 5.536 7.116 5.536 11.876 0 8.689-7.13 15.546-15.546 15.546-114.612-.031-107.55.495-111.576-1.104-13.075-5.187-13.071-23.703.007-28.886 3.842-1.522 3.283-1.072 42.547-1.102 75.815 0 73.101-1.337 79.032 3.67zm70.527 42.423h24.888c-10.748 17.573-29.964 28.265-50.228 28.265h-29.858c-20.683 0-39.896-11.166-50.226-28.265 23.437-.002 31.224 1.399 40.821-4.49 3.011 1.095 6.195 1.662 9.405 1.662h29.858c3.21 0 6.394-.567 9.406-1.662 1.591.977 3.619 1.973 5.696 2.719.665.237 6.835 1.771 10.238 1.771zm-27.761-17.828h-25.015c1.783-3.875 2.785-8.181 2.785-12.718s-1.002-8.844-2.785-12.719h25.015c-1.783 3.875-2.785 8.181-2.785 12.719s1.002 8.843 2.785 12.718zm-186.394 0h-27.436c-7.013 0-12.719-5.706-12.719-12.718 0-7.013 5.706-12.719 12.719-12.719h27.436c-3.625 7.881-3.801 17.173 0 25.437zm-63.016-59.498c20.162-15.369 38.456-12.008 65.439-12.031 20.82 0 40.403 11.688 50.226 28.265-23.17.024-31.104-1.424-40.82 4.49-7.567-2.752-10.877-1.218-39.264-1.663-15.284 0-27.719 12.435-27.719 27.719s12.435 27.718 27.719 27.718c28.505-.446 31.696 1.089 39.264-1.662 9.78 6.006 17.613 4.465 40.82 4.49-9.594 16.189-28.707 28.265-50.226 28.265h-29.859c-32.479 0-58.811-26.497-58.811-58.811 0-18.415 8.574-35.588 23.231-46.78zm16.021 247.459v-8.885c0-20.715 16.849-37.568 37.558-37.568 20.691 0 37.544 16.833 37.567 37.525 0 .013-.001.026-.001.039v17.701h-38.908c-12.633 0-25.067-3.036-36.216-8.812zm127.685-46.45c20.679 0 37.525 16.821 37.559 37.499 0 .022-.002.043-.002.065v17.695h-75.116v-17.695c0-.017-.001-.033-.001-.05 0-.006 0-.013 0-.019.036-20.676 16.879-37.495 37.56-37.495zm52.561 55.262v-17.701c0-.018-.001-.036-.001-.054.031-20.684 16.883-37.51 37.566-37.51 20.709 0 37.558 16.853 37.558 37.568v8.885c-11.148 5.776-23.583 8.812-36.216 8.812zm115.462-97.649c7.086 28.743-2.593 59.432-25.352 78.777-1.168-52.676-70.604-70.742-97.611-25.856-8.736-14.51-24.246-24.432-42.052-25.442-31.988-1.835-46.818 24.192-48.068 25.441-.002-.004-.005-.008-.007-.012-27.434-45.514-96.454-26.053-97.604 25.847-22.535-19.281-32.51-49.719-25.351-78.761l13.407-54.553c13.134 10.682 29.618 16.527 46.489 16.527h29.858c28.662 0 55.187-16.983 67.183-43.265h22.168c11.88 25.97 38.153 43.265 67.183 43.265h29.858c15.679 0 32.503-5.148 46.489-16.524l13.407 54.55c.002.002.003.004.003.006zm66.359-111.842c0 8.572-6.974 15.546-15.546 15.546h-85.37c-8.442 0-15.546-6.879-15.546-15.546 0-4.759 2.154-9.02 5.533-11.874 5.528-4.664 5.105-3.641 46.848-3.673h48.536c8.571 0 15.545 6.975 15.545 15.547zm-116.85-26.057c-3.012-1.095-6.196-1.662-9.406-1.662h-29.858c-3.21 0-6.394.567-9.406 1.662-4.885-2.992-11.063-4.587-15.934-4.49h-24.886c10.235-16.94 29.519-28.265 50.226-28.265h29.858c20.269 0 39.479 10.69 50.228 28.265-25.798.027-31.507-1.219-40.822 4.49z"/></g></g></svg>