<svg id="Capa_1" enable-background="new 0 0 512 512" height="512" viewBox="0 0 512 512" width="512" xmlns="http://www.w3.org/2000/svg"><g><g><path d="m256 7.5c-22.693 0-41.089 18.396-41.089 41.089v30.4h82.179v-30.4c-.001-22.693-18.397-41.089-41.09-41.089z" fill="#64d1e1"/><path d="m248.777 36.438c0-10.453 3.625-20.278 9.986-28.835-.914-.061-1.833-.103-2.763-.103-22.693 0-41.089 18.396-41.089 41.089v30.4h57.836c-14.801-10.864-23.97-25.915-23.97-42.551z" fill="#00c8de"/><path d="m256 55.237c-91.424 0-165.538 74.114-165.538 165.538v242.857h331.075v-242.857c.001-91.424-74.113-165.538-165.537-165.538z" fill="#b3e8f0"/><path d="m324.899 337.904c-4.108 12.013-10.923 22.776-19.708 31.561-14.891 14.901-35.469 24.115-58.205 24.115-45.473 0-82.33-36.858-82.33-82.32v-87.357c0-45.463 36.858-82.32 82.33-82.32 25.395 0 48.111 11.503 63.202 29.582z" fill="#fc5c70"/><path d="m190.321 260.127c0-46.71 20.054-88.804 52.141-118.417-43.368 2.349-77.807 38.247-77.807 82.192v87.357c0 45.463 36.858 82.32 82.33 82.32 4.387 0 8.691-.351 12.892-1.012-42.09-29.408-69.556-77.766-69.556-132.44z" fill="#f8485e"/><path d="m237.747 283.278c-18.494-18.494-48.48-18.494-66.974 0l-43.901 43.901c-6.372 6.372-6.372 16.702 0 23.074 30.617 30.617 80.258 30.617 110.875 0 18.495-18.495 18.495-48.48 0-66.975z" fill="#80dfb5"/><path d="m377.263 249.683s-.344 34.88-56.189 34.88l-25.94-30.03 47.386-41.685z" fill="#5c586f"/><path d="m310.188 171.164c72.728 0 79.169 29.164 79.717 68.834.092 6.654-6.235 11.481-12.642 9.685-15.06-4.222-43.136-7.877-82.128 4.851z" fill="#6a647f"/><path d="m329.306 223.902v87.357c0 9.324-1.549 18.289-4.407 26.644-30.632-9.774-52.808-38.457-52.808-72.326v-8.655c-11.843 0-22.556-4.797-30.312-12.562-7.765-7.755-12.562-18.469-12.562-30.312 0-23.686 19.198-42.884 42.874-42.884h38.097c11.943 14.281 19.118 32.67 19.118 52.738z" fill="#fde9b6"/><path d="m236.101 399.436 1.339-6.174c2.783-12.832 14.137-21.987 27.268-21.987 13.131 0 24.484 9.155 27.268 21.987l1.339 6.174c2.602 11.994-6.537 23.327-18.81 23.327l-9.797 16.507-9.797-16.507c-12.274 0-21.412-11.333-18.81-23.327z" fill="#ffb25a"/><path d="m111.486 314.777c0-109.544 55.718-205.594 139.39-259.454-89.052 2.708-160.414 75.742-160.414 165.451v242.856h58.401c-23.795-44.038-37.377-94.799-37.377-148.853z" fill="#64d1e1"/><path d="m421.538 422.763h-331.076c-30.511 0-45.25 24.734-45.25 55.244 0 14.631 11.861 26.493 26.492 26.493h368.591c14.631 0 26.492-11.861 26.492-26.493.001-30.51-14.739-55.244-45.249-55.244z" fill="#ed9b83"/><path d="m130.48 422.763h-40.018c-30.511 0-45.25 24.734-45.25 55.244 0 14.631 11.861 26.493 26.492 26.493h103.617c-18.768-24.472-33.978-51.996-44.841-81.737z" fill="#e7886e"/><path d="m190.722 271.376c-7.302 2.171-14.184 6.137-19.949 11.903l-43.901 43.901c-6.372 6.372-6.372 16.702 0 23.073 26.793 26.793 68.155 30.139 98.587 10.039-19.808-24.827-32.411-55.482-34.737-88.916z" fill="#36d39a"/></g><g><path d="m300.063 206.255c-3.123-2.722-7.861-2.397-10.582.726-2.841 3.259-7.888 3.269-10.737 0-2.721-3.123-7.459-3.448-10.582-.726-3.123 2.721-3.448 7.459-.726 10.582 8.826 10.126 24.537 10.114 33.353 0 2.722-3.123 2.397-7.86-.726-10.582z"/><path d="m429.038 415.752v-194.977c0-78.549-52.614-145.032-124.448-166.083v-6.103c-.001-26.792-21.798-48.589-48.59-48.589s-48.589 21.797-48.589 48.589v6.102c-24.71 7.222-47.677 19.925-67.155 37.465-3.078 2.771-3.327 7.514-.555 10.592 2.771 3.077 7.513 3.327 10.592.555 20.809-18.737 45.976-31.442 72.956-37.144 99.183-20.791 190.789 55.171 190.789 154.617v194.488h-29.199c-4.142 0-7.5 3.358-7.5 7.5s3.358 7.5 7.5 7.5h36.699c8.856 0 37.75 3.443 37.75 47.745 0 10.473-8.52 18.993-18.992 18.993h-368.592c-10.472 0-18.992-8.52-18.992-18.993 0-44.302 28.895-47.745 37.75-47.745h264.376c4.142 0 7.5-3.358 7.5-7.5s-3.358-7.5-7.5-7.5h-56.297c5.41-11.023 1.114-20.15.763-23.591-.458-2.112-1.109-4.146-1.923-6.09 23.998-16.267 39.425-43.654 39.425-74.322v-20.204c21.356-2.917 40.972-13.132 46.738-33.867 7.928-1.658 13.978-8.666 13.86-17.295-.267-19.262-1.618-39.309-14.658-54.142-12.827-14.589-34.846-21.633-69.132-22.067-17.029-18.854-41.11-29.604-66.629-29.604-49.533 0-89.83 40.293-89.83 89.82v62.387l-35.586 35.586c-9.308 9.308-9.308 24.372 0 33.68 17.81 17.811 42.255 27.003 68.077 24.832 11.312 9.399 24.581 15.78 38.881 18.757-.924 5.547-.089 11.156 2.346 16.118h-132.911v-194.487c0-35.245 11.357-68.595 32.844-96.444 2.53-3.28 1.923-7.989-1.356-10.52-3.28-2.53-7.989-1.923-10.52 1.356-23.53 30.499-35.968 67.017-35.968 105.607v194.977c-27.734 3.578-45.25 27.206-45.25 62.255 0 18.744 15.249 33.993 33.992 33.993h368.592c18.743 0 33.992-15.249 33.992-33.993 0-35.048-17.517-58.676-45.25-62.254zm-206.627-364.752v-2.412c0-18.52 15.068-33.588 33.589-33.588s33.589 15.068 33.589 33.589v2.411c-22.865-4.494-46.009-4.161-67.178 0zm57.18 214.577v-8.655c0-4.142-3.358-7.5-7.5-7.5-19.544 0-35.375-15.829-35.375-35.375 0-19.511 15.869-35.384 35.375-35.384h34.483c10.101 13.285 15.232 29.448 15.232 45.238 0 98.029.472 93.805-1.873 104.081-24.099-10.754-40.342-34.856-40.342-62.405zm57.216 10.331v-22.28c10.541-.773 21.262-.387 31.63 1.667-2.55 6.64-9.979 17.15-31.63 20.613zm34.674-80.251c8.723 9.922 10.647 24.362 10.924 44.445.015 1.056-.581 1.673-.937 1.947-1.768 1.361-2.236-.263-13.991-2.167-10.02-1.625-20.822-1.98-30.672-1.298-.041-22.298.552-38.013-11.957-59.456 22.931 1.551 38.255 6.999 46.633 16.529zm-239.305 149.292c-3.445-3.445-3.446-9.021 0-12.467l43.901-43.901c7.771-7.77 17.977-11.655 28.184-11.655 43.744 0 60.105 62.243 3.566 84.057-25.127 9.631-54.925 4.693-75.651-16.034zm90.112 25.931c80.685-42.475 13.155-144.344-50.132-98.604v-48.374c0-41.256 33.569-74.82 74.83-74.82 16.176 0 31.661 5.182 44.391 14.582-11.94 0-7.348 0-19.286 0-22.568 0-41.718 14.921-48.105 35.418-9.288 29.803 10.516 60.325 40.605 64.79v1.706c0 32.861 19.236 63.313 50.51 76.675-5.53 12.094-14.41 23.023-26.282 31.028-17.733-16.497-46.551-10.733-56.4 11.363-7.985-1.569-15.592-4.412-22.595-8.429 4.23-1.427 8.277-3.133 12.464-5.335zm21.143 30.145c.755-3.465.589-2.753 1.388-6.352 3.824-16.91 25.693-21.58 36.173-7.746 3.94 5.232 3.762 9.555 4.994 14.098 1.59 7.329-3.997 14.237-11.48 14.237h-19.594c-7.501.001-13.068-6.923-11.481-14.237z"/></g></g></svg>