<svg id="Capa_1" enable-background="new 0 0 512 512" height="512" viewBox="0 0 512 512" width="512" xmlns="http://www.w3.org/2000/svg"><g><g><path d="m104.768 204.081s-44.769 144.715 28.979 226v44.726h244.507v-44.726c73.748-81.285 28.979-226 28.979-226z" fill="#e7886e"/><path d="m324.2 466.653c-114.417 0-207.17-87.203-207.17-194.773 0-23.844 4.566-46.684 12.907-67.799h-25.168s-44.769 144.715 28.979 226v44.726z" fill="#e27858"/><path d="m475.433 446.382c-37.441.117-70.741 21.524-70.741 21.524-.388-12.418 5.438-26.196 11.356-36.863 4.417-7.961-2.457-17.529-11.368-15.666-44.478 9.297-67.458 40.896-67.458 40.896-3.372-18.546-.329-36.405 3.151-48.845 2.236-7.991-5.178-15.334-13.164-13.079-45.966 12.974-71.209 45.638-71.209 45.638s-25.243-32.664-71.208-45.639c-7.986-2.254-15.4 5.088-13.164 13.079 3.481 12.44 6.523 30.299 3.151 48.845 0 0-22.981-31.598-67.458-40.896-8.911-1.863-15.785 7.705-11.368 15.666 5.918 10.667 11.744 24.445 11.356 36.863 0 0-33.3-21.407-70.741-21.524-7.525-.023-12.577 7.676-9.78 14.662 4.098 10.236 8.747 25.621 9.174 43.456h440.079c.427-17.835 5.076-33.221 9.174-43.456 2.795-6.985-2.257-14.685-9.782-14.661z" fill="#80dfb5"/><path d="m46.959 138.527c-.971-14.498 10.517-26.768 25.046-26.715 50.463.19 80.314 23.653 80.314 23.653v96.892z" fill="#e7886e"/><path d="m152.319 232.356c-86.28 0-103.005-58.963-105.36-93.829 0 0 105.36 42.247 105.36 93.829z" fill="#f7cec4"/><path d="m465.041 138.527c.971-14.498-10.517-26.768-25.046-26.715-50.463.19-80.314 23.653-80.314 23.653v96.892z" fill="#e7886e"/><path d="m359.681 232.356c86.28 0 103.005-58.963 105.36-93.829 0 0-105.36 42.247-105.36 93.829z" fill="#f7cec4"/><path d="m256 52.558c-67.049 0-121.403 54.354-121.403 121.403v67.171c0 67.049 54.354 121.403 121.403 121.403 67.049 0 121.403-54.354 121.403-121.403v-67.171c0-67.048-54.354-121.403-121.403-121.403z" fill="#ed9b83"/><ellipse cx="256" cy="360.928" fill="#c7c5cb" rx="25.72" ry="34.713"/><path d="m336.377 12.284c-3.317-6.869-13.237-6.177-15.744 1.026-7.147 20.534-18.589 38.797-28.393 52.077-9.418 12.757-6.481 30.76 6.479 39.896 15.577 10.981 37.444 3.762 43.219-14.4 10.733-33.747 2.593-61.714-5.561-78.599z" fill="#f7cec4"/><path d="m175.623 12.284c3.317-6.869 13.237-6.177 15.744 1.026 7.147 20.534 18.589 38.797 28.393 52.077 9.418 12.757 6.481 30.76-6.479 39.896-15.577 10.981-37.444 3.762-43.219-14.4-10.733-33.747-2.593-61.714 5.561-78.599z" fill="#f7cec4"/><path d="m140.326 443.275c0-5.084.37-10.092 1.085-15.005-9.418-5.33-20.785-10.112-34.091-12.893-8.911-1.863-15.785 7.705-11.368 15.666 5.918 10.667 11.744 24.445 11.356 36.863 0 0-33.3-21.407-70.741-21.524-7.525-.023-12.577 7.676-9.78 14.662 4.098 10.236 8.747 25.621 9.174 43.456h124.008c-12.454-17.813-19.643-38.779-19.643-61.225z" fill="#36d39a"/></g><g><path d="m189.967 235.434c-4.142 0-7.5 3.358-7.5 7.5v12.671c0 4.142 3.358 7.5 7.5 7.5s7.5-3.358 7.5-7.5v-12.671c0-4.142-3.358-7.5-7.5-7.5z"/><path d="m321.852 263.106c4.142 0 7.5-3.358 7.5-7.5v-12.671c0-4.142-3.358-7.5-7.5-7.5s-7.5 3.358-7.5 7.5v12.671c0 4.142 3.358 7.5 7.5 7.5z"/><path d="m225.573 269.388c-4.142 0-7.5 3.358-7.5 7.5 0 19.699 23.48 30.046 38.029 16.874 4.041 3.659 9.396 5.891 15.264 5.891 12.553 0 22.765-10.212 22.765-22.765 0-4.142-3.358-7.5-7.5-7.5s-7.5 3.358-7.5 7.5c0 4.281-3.483 7.764-7.764 7.764s-7.764-3.483-7.764-7.764v-8.305c3.561-1.286 6.783-3.46 9.326-6.383 2.719-3.125 2.389-7.863-.737-10.581-3.124-2.719-7.862-2.389-10.581.737-1.417 1.629-3.462 2.565-5.611 2.566-.002 0-.004 0-.007 0-2.147 0-4.192-.932-5.611-2.556-2.724-3.12-7.462-3.441-10.583-.716-3.12 2.724-3.441 7.463-.716 10.583 2.591 2.968 5.883 5.161 9.519 6.43v8.225c0 4.281-3.483 7.764-7.764 7.764s-7.764-3.483-7.764-7.764c0-4.142-3.358-7.5-7.501-7.5z"/><path d="m28.457 504.679c.098 4.071 3.426 7.321 7.498 7.321h440.09c4.072 0 7.401-3.25 7.498-7.321.405-16.939 4.922-31.563 8.639-40.849 4.747-11.856-3.838-24.95-16.767-24.95-24.749.077-47.494 8.752-61.254 15.364 1.727-5.974 4.565-12.564 8.449-19.565 7.506-13.53-4.17-29.688-19.287-26.677 17.354-30.594 25.691-68.861 24.797-114.108-.082-4.142-3.475-7.421-7.647-7.351-4.141.082-7.432 3.505-7.35 7.647.988 49.992-9.805 90.57-32.089 120.656-14.02 5.793-26.868 14.007-37.768 23.983.073-9.884 1.71-20.017 4.331-29.384 3.814-13.631-8.792-26.17-22.425-22.318-26.99 7.619-51.486 23.109-69.173 41.548-10.324-10.764-33.857-31.58-69.173-41.548-13.284-3.755-25.711 8.089-22.636 21.459.795 3.445 4.429 15.131 4.541 30.244-10.886-9.963-23.718-18.175-37.767-23.982-9.401-12.704-16.845-27.52-22.139-44.07-1.262-3.946-5.485-6.118-9.429-4.859-3.945 1.262-6.12 5.484-4.859 9.429 3.74 11.69 8.48 22.611 14.159 32.659-15.129-3.034-26.817 13.141-19.308 26.673 3.884 7.001 6.721 13.59 8.448 19.564-18.558-8.918-40.388-15.364-61.31-15.364-12.785 0-21.481 13.035-16.711 24.95 3.721 9.285 8.237 23.909 8.642 40.849zm5.614-49.481c.973-1.433 2.568-1.357 2.467-1.318 34.705.108 66.401 20.135 66.711 20.334 4.897 3.147 11.371-.257 11.552-6.075.365-11.669-3.772-25.375-12.294-40.737-1.308-2.357.643-5.236 3.275-4.686 35.787 7.481 56.962 30.714 61.841 36.602.314.379.732.895 1.029 1.286 4.35 5.639 12.381 3.19 13.505-2.99 4.754-26.145-2.723-48.86-3.372-52.54-.381-2.157 1.656-4.162 3.969-3.51 42.856 12.097 67.082 42.712 67.313 43.008 3.019 3.906 8.874 3.847 11.862.011.149-.193 9.669-12.224 27.25-24.173 12.557-8.535 26.071-14.894 40.071-18.846 2.399-.676 4.554 1.516 3.904 3.841-4.718 16.862-6.389 35.258-3.307 52.209.509 2.8 2.624 5.153 5.387 5.899 3.106.838 6.258-.465 8.147-2.949 12.553-16.498 36.686-32.38 62.84-37.848 2.636-.551 4.58 2.335 3.275 4.686-8.523 15.361-12.66 29.067-12.295 40.737.182 5.819 6.656 9.221 11.553 6.075.314-.203 31.862-20.225 66.722-20.334 2.211 0 3.598 2.339 2.783 4.375-3.634 9.078-7.948 22.72-9.309 38.745h-425.896c-1.36-16.025-5.675-29.668-9.309-38.745-.586-1.463.033-2.625.326-3.057z"/><path d="m72.028 104.301c-18.994-.014-33.814 15.968-32.558 34.717v.003c.889 6.583 1.838 34.484 19.389 59.553 8.465 12.091 19.376 21.56 32.622 28.365-5.1 25.079-11.252 68.469-5.022 112.542.58 4.101 4.369 6.956 8.476 6.377 4.102-.58 6.956-4.375 6.377-8.476-5.689-40.237-.475-80.116 4.277-104.499 6.902 2.335 14.211 4.043 21.503 5.147.03 1.959-.148 6.934.479 14.168 4.781 55.137 43.894 99.95 95.467 113.569 1.756 16.261 12.496 30.525 28.632 36.329 2.242.807 4.033 1.471 6.508.719 17.105-5.251 28.893-19.747 30.779-37.048 56.195-14.894 95.947-65.833 95.947-124.642v-3.096c7.182-1.086 14.515-2.782 21.507-5.148 2.069 10.578 3.692 21.327 4.837 32.06.439 4.119 4.14 7.105 8.253 6.662 4.119-.439 7.102-4.134 6.662-8.253-1.301-12.202-3.2-24.422-5.647-36.411 51.359-26.385 51.102-84.436 52.01-87.917-.03-.208 1.537-13.519-8.739-24.466-6.02-6.414-14.568-10.254-23.819-10.254-1.42.219-32.956-1.413-67.226 14.875-5.515-11.731-12.839-22.651-21.819-32.412 8.532-32.931.663-60.242-7.794-77.755-6.211-12.865-24.882-11.68-29.582 1.822-4.463 12.825-11.35 26.384-20.135 39.743-23.935-7.256-50.128-7.49-74.833 0-8.785-13.359-15.672-26.919-20.136-39.743-4.697-13.496-23.366-14.694-29.581-1.822-8.457 17.513-16.326 44.824-7.793 77.754-8.98 9.761-16.305 20.681-21.819 32.413-14.073-6.691-37.236-14.763-67.222-14.876zm-.055 15c27.892.105 49.154 7.737 61.705 13.831-7.887 23.689-6.375 41.413-6.584 43.839-20.224-17.222-48.262-32.829-72.414-43.336 1.416-7.797 8.253-14.334 17.293-14.334zm-16.056 31.383c23.847 11.152 52.924 27.838 71.177 46.819v25.322c-40.119-6.871-64.349-31.46-71.177-72.141zm200.083 183.46c23.985 9.433 24.59 43.933 0 53.561-24.187-9.471-24.321-43.995 0-53.561zm128.907-111.319v-25.322c18.238-18.966 47.225-35.614 71.177-46.82-6.745 40.185-30.514 65.143-71.177 72.142zm55.121-103.524c9.041.001 15.879 6.544 17.293 14.334-24.157 10.509-52.196 26.12-72.414 43.336-.082-13.516-1.004-27.081-6.584-43.839 12.551-6.094 33.813-13.726 61.705-13.831zm-112.309-103.539c.293-.84 1.484-1.105 1.907-.23 10.818 22.403 13.163 47.519 5.297 72.645-4.403 14.299-20.816 18.765-31.88 10.966-9.518-6.71-11.703-19.917-4.767-29.312 12.086-16.37 22.7-34.693 29.443-54.069zm-43.324 47.857c-9.708 15.969-5.474 36.872 10.005 47.784 16.79 11.833 39.476 6.939 50.223-9.014 13.64 16.833 21.854 36.839 24.39 57.256 1.175 9.407.894 9.299.894 81.48 0 51.194-33.986 95.294-81.932 109.324-3.355-13.832-13.302-25.374-27.248-30.548-4.254-1.576-5.159-1.646-9.831.141-13.62 5.186-23.516 16.584-26.869 30.408-48.596-14.22-81.933-58.822-81.933-109.324 0-.151 0-9.831 0-9.688 0-49.812 0-6.498 0-57.484 0-25.95 8.751-51.16 25.284-71.564 4.862 7.112 11.908 11.991 19.953 14.245 31.534 8.822 56.882-25.699 40.275-53.014 18.533-4.764 38.225-4.772 56.789-.002zm-102.02-48.087c.429-.886 1.617-.599 1.907.231 6.743 19.374 17.358 37.7 29.443 54.068 6.915 9.368 4.778 22.583-4.767 29.312-11.479 8.091-27.522 2.76-31.751-10.543-7.923-24.913-5.859-50.232 5.168-73.068z"/></g></g></svg>