<svg id="Capa_1" enable-background="new 0 0 512 512" height="512" viewBox="0 0 512 512" width="512" xmlns="http://www.w3.org/2000/svg"><g><g><ellipse cx="326.539" cy="124.216" fill="#ed9b83" rx="91.017" ry="116.716"/><ellipse cx="185.461" cy="124.216" fill="#f3bdae" rx="91.017" ry="116.716"/><path d="m214.816 13.706c-9.21-4.022-19.084-6.206-29.355-6.206-50.268 0-91.017 52.256-91.017 116.716 0 20.633 4.181 40.011 11.506 56.83 6.459-75.272 49.452-138.566 108.866-167.34z" fill="#f0ac99"/><ellipse cx="135.603" cy="217.394" fill="#f7cec4" rx="91.017" ry="116.716"/><ellipse cx="376.397" cy="217.394" fill="#f3bdae" rx="91.017" ry="116.716"/><ellipse cx="256" cy="217.394" fill="#f0ac99" rx="91.017" ry="116.716"/><path d="m256 288.458-215.501 41.332 21.619 120.958c5.559 31.104 32.613 53.751 64.21 53.751h259.345c31.597 0 58.651-22.647 64.21-53.751l21.619-120.958z" fill="#f0ac99"/><path d="m101.32 318.125-60.821 11.665 21.619 120.958c5.559 31.104 32.613 53.751 64.21 53.751h47.259c-44.239-45.957-72.095-112.416-72.267-186.374z" fill="#ed9b83"/><path d="m105.098 200.789c0-36.239 8.451-70.26 23.249-99.742-46.875 4.742-83.761 55.019-83.761 116.347 0 64.461 40.75 116.716 91.017 116.716 4.388 0 8.702-.407 12.924-1.177-27.075-35.574-43.429-81.715-43.429-132.144z" fill="#f3bdae"/><path d="m471.501 247.125h-431.002c-14.478 0-26.214 11.736-26.214 26.214v30.237c0 14.478 11.736 26.214 26.214 26.214h431.002c14.478 0 26.214-11.737 26.214-26.214v-30.236c0-14.478-11.736-26.215-26.214-26.215z" fill="#80dfb5"/><path d="m313.237 385.868c-.392-13.662-11.383-24.652-25.044-25.044-20.149-.578-40.485 6.821-55.863 22.199-20.889 20.889-27.056 50.923-18.505 77.213 26.291 8.551 56.325 2.384 77.213-18.505 15.378-15.378 22.777-35.714 22.199-55.863z" fill="#b0ebce"/><path d="m101.313 317.438c0-24.406 3.026-47.995 8.65-70.312h-69.464c-14.478 0-26.214 11.737-26.214 26.214v30.236c0 14.478 11.736 26.214 26.214 26.214h61.079c-.173-4.093-.265-8.21-.265-12.352z" fill="#36d39a"/></g><g><path d="m204.035 480.632 11.955-11.955c53.815 14.291 106.345-27.222 104.744-83.024-.506-17.621-14.705-31.82-32.326-32.326-23.193-.651-44.986 7.998-61.381 24.394-21.201 21.201-29.278 51.615-21.645 80.353l-11.952 11.952c-2.929 2.929-2.929 7.678 0 10.606 2.928 2.929 7.676 2.929 10.605 0zm33.598-92.306c13.446-13.447 31.328-20.551 50.344-20.006 9.683.278 17.485 8.08 17.763 17.763 1.227 42.706-36.14 75.124-77.013 69.857l43.235-43.235c2.929-2.929 2.929-7.678 0-10.606-2.929-2.929-7.678-2.929-10.606 0l-43.235 43.235c-2.681-20.801 4.3-41.797 19.512-57.008z"/><path d="m473.322 239.676c7.077-49.379-9.962-103.537-49.05-130.961-2.687-27.157-12.494-52.647-27.849-72.124-2.564-3.253-7.28-3.811-10.533-1.247s-3.811 7.28-1.247 10.533c11.606 14.722 19.654 33.433 23.26 53.725-29.052-12.269-63.977-7.534-91.694 19.381-10.322-10.079-22.021-17.373-34.53-21.582-2.897-16.491-8.336-32.332-16.765-46.793 24.759-35.426 65.333-46.59 99.539-23.666 3.44 2.306 8.099 1.386 10.405-2.055s1.386-8.1-2.055-10.405c-37.14-24.893-85.192-17.962-116.78 22.918-37.271-48.101-98.505-50.123-137.66-4.215-17.015 19.95-27.813 46.702-30.644 75.654-9.037 6.317-17.311 14.424-24.435 24.125-2.452 3.339-1.732 8.033 1.606 10.484 3.339 2.452 8.033 1.733 10.484-1.606 29.851-40.655 77.143-44.412 110.394-11.642-21.409 27.143-32.697 67.718-26.709 109.426h-105.231c-3.716-23.392-1.654-48.893 7.473-72.052 1.519-3.854-.374-8.209-4.228-9.728-3.852-1.519-8.209.374-9.728 4.228-9.745 24.727-12.351 51.91-8.669 77.603-17.746.95-31.892 15.685-31.892 33.664v30.236c0 16.406 11.781 30.105 27.326 33.1l20.624 115.393c6.208 34.725 36.317 59.93 71.594 59.93h259.345c35.277 0 65.387-25.205 71.593-59.932l20.624-115.393c15.545-2.994 27.326-16.693 27.326-33.099v-30.236c-.001-17.98-14.147-32.715-31.894-33.664zm-15.151-.051h-105.231c5.445-37.99-3.034-78.987-26.709-109.426 25.81-25.444 59.412-28.53 86.848-10.889 36.849 23.725 52.257 75.206 45.092 120.315zm-283.933 0c-12.452-78.198 41.057-144.888 98.798-129.155h.001c13.805 3.762 26.787 12.184 37.541 24.356 22.51 25.476 33.485 65.298 27.184 104.798h-163.524zm-70.164-139.949c3.835-21.77 12.741-41.562 25.702-56.758 46.139-54.095 118.833-25.602 135.889 50.845-23.997-2.907-49.102 4.937-69.874 25.22-26.769-26.024-61.305-32.168-91.717-19.307zm338.425 349.753c-4.926 27.564-28.825 47.571-56.827 47.571h-259.344c-28.001 0-51.9-20.006-56.827-47.571l-20.043-112.139h413.083zm47.716-145.853c0 10.319-8.395 18.714-18.714 18.714h-431.002c-10.319 0-18.714-8.395-18.714-18.714v-30.236c0-10.319 8.395-18.714 18.714-18.714h431.002c10.319 0 18.714 8.395 18.714 18.714z"/></g></g></svg>