<svg id="Capa_1" enable-background="new 0 0 512 512" height="512" viewBox="0 0 512 512" width="512" xmlns="http://www.w3.org/2000/svg"><g><g><path d="m82.061 207.929c44.169-76.525 115.151-104.985 115.151-104.985h117.574s70.983 28.46 115.151 104.985l-39.137 45.128h-259.012z" fill="#b3e8f0"/><path d="m325.956 12.07c-8.332-6.094-19.65-6.094-27.982 0s-19.65 6.094-27.982 0c-8.332-6.094-19.65-6.094-27.982 0-8.332 6.094-19.65 6.094-27.982 0s-19.65-6.094-27.982 0c-9.865 7.214-14.681 19.48-12.319 31.471 2.791 14.172 9.752 33.298 26.736 50.524h111.077c16.984-17.226 23.945-36.352 26.736-50.524 2.36-11.99-2.456-24.257-12.32-31.471z" fill="#b3e8f0"/><path d="m312.781 102.944h-115.568s-70.983 28.46-115.151 104.985l29.337 26.624c37.525-69.04 112.216-119.549 201.382-131.609z" fill="#64d1e1"/><path d="m464.395 342.888c0 100.917-92.163 161.612-208.395 161.612s-208.395-60.695-208.395-161.612c0-56.001 14.487-100.381 34.457-134.959 181.914 76.828 234.563-53.113 347.877 0h.01c19.959 34.578 34.446 78.958 34.446 134.959z" fill="#64d1e1"/><path d="m145.886 328.107c-8.634-8.634-19.953-12.649-30.448-11.838-6.127.474-11.019 5.365-11.492 11.492-.811 10.495 3.203 21.814 11.838 30.448.025.025.05.05.075.075 3.501 3.484 3.501 9.052 0 12.536-.025.025-.05.05-.075.075-8.634 8.634-12.649 19.953-11.838 30.448.473 6.127 5.365 11.019 11.492 11.492 10.495.811 21.814-3.204 30.448-11.838 10.312-10.312 14.03-24.452 10.812-36.446 3.219-11.991-.5-26.132-10.812-36.444z" fill="#f9d888"/><path d="m355.378 364.553c0 39.741-44.015 71.957-98.311 71.957s-109.607-32.216-109.607-71.957 55.311-71.957 109.607-71.957 98.311 32.216 98.311 71.957z" fill="#ffb25a"/><circle cx="402.406" cy="314.872" fill="#b3e8f0" r="25.687"/><circle cx="343.897" cy="256.363" fill="#b3e8f0" r="18.223"/><path d="m210.572 48.375c0-12.026 2.345-23.578 6.649-34.338-1.102-.565-2.172-1.219-3.195-1.967-8.332-6.094-19.65-6.094-27.982 0-9.865 7.214-14.681 19.48-12.319 31.471 2.792 14.172 9.752 33.298 26.736 50.524h22.182c-7.732-13.813-12.071-29.313-12.071-45.69z" fill="#64d1e1"/><path d="m302.451 66.591h-92.903c-15.174 0-27.475 12.301-27.475 27.474 0 15.174 12.301 27.475 27.475 27.475h92.903c15.174 0 27.475-12.301 27.475-27.475 0-15.174-12.301-27.474-27.475-27.474z" fill="#f9d888"/><path d="m212.398 66.591h-2.849c-15.174 0-27.475 12.301-27.475 27.474 0 15.174 12.301 27.475 27.475 27.475h35.37c-16.612-14.779-28.237-33.77-32.521-54.949z" fill="#f5c956"/><path d="m85.378 335.823c0-41.539 12.271-80.56 33.784-114.449-11.753-3.521-24.095-7.953-37.101-13.446-19.969 34.578-34.457 78.958-34.457 134.959 0 64.703 37.887 112.87 95.713 139.109-36.273-40.17-57.939-90.95-57.939-146.173z" fill="#00c8de"/></g><g><path d="m229.567 391.265c4.14 0 7.497-3.357 7.497-7.497s-3.357-7.497-7.497-7.497c-7.218 0-14.063-2.751-19.275-7.745-2.328-2.231-2.337-5.944 0-8.184 5.211-4.995 12.056-7.745 19.275-7.745 4.14 0 7.497-3.357 7.497-7.497s-3.357-7.497-7.497-7.497c-11.104 0-21.633 4.231-29.65 11.914-8.482 8.129-8.513 21.675 0 29.833 8.016 7.684 18.546 11.915 29.65 11.915z"/><path d="m288.847 362.301c6.785-.006 13.234-2.95 17.694-8.077 2.718-3.124 2.388-7.859-.736-10.577-3.124-2.717-7.859-2.388-10.577.736-3.382 3.887-9.398 3.905-12.795.012-2.723-3.118-7.459-3.44-10.578-.717s-3.44 7.459-.717 10.578c7.539 8.636 17.809 8.067 17.709 8.045z"/><path d="m402.348 347.947c18.292 0 33.174-14.881 33.174-33.173s-14.882-33.174-33.174-33.174-33.173 14.882-33.173 33.174 14.881 33.173 33.173 33.173zm0-51.353c10.024 0 18.18 8.155 18.18 18.18 0 10.024-8.155 18.179-18.18 18.179-10.024 0-18.179-8.155-18.179-18.179-.001-10.025 8.155-18.18 18.179-18.18z"/><path d="m343.862 230.574c-14.178 0-25.713 11.535-25.713 25.713s11.535 25.712 25.713 25.712 25.713-11.534 25.713-25.712c-.001-14.178-11.535-25.713-25.713-25.713zm0 36.432c-5.91 0-10.719-4.808-10.719-10.718s4.808-10.719 10.719-10.719 10.719 4.809 10.719 10.719c-.001 5.91-4.809 10.718-10.719 10.718z"/><path d="m436.299 204.019c-31.703-54.866-77.262-85.833-100.668-99.026 2.94-8.899 2.221-18.745-2.296-27.263 5.852-10.12 9.974-21.107 12.263-32.731 2.909-14.767-3.075-30.059-15.244-38.959-11.012-8.052-25.81-8.053-36.822 0-5.718 4.181-13.402 4.181-19.12 0-11.012-8.053-25.81-8.053-36.822 0-5.718 4.181-13.402 4.181-19.12 0-11.012-8.052-25.81-8.053-36.822 0-12.169 8.899-18.153 24.192-15.244 38.959 2.29 11.624 6.411 22.611 12.262 32.731-4.507 8.497-5.244 18.342-2.296 27.263-69.849 39.373-99.838 98.139-100.73 99.131-23.522 40.728-35.448 87.379-35.448 138.655 0 164.259 224.115 205.463 345.949 138.675 3.631-1.99 4.961-6.547 2.971-10.178-1.989-3.63-6.547-4.961-10.178-2.971-111.983 61.386-323.749 26.175-323.749-125.527 0-46.216 10.167-88.376 30.237-125.435 25.653 10.356 52.202 18.027 79.458 21.274 4.112.488 7.841-2.446 8.331-6.557s-2.446-7.841-6.557-8.331c-25.342-3.021-49.87-10.061-73.591-19.489 29.747-47.481 69.986-74.577 90.923-86.334 6.8 7.337 16.086 11.108 25.581 11.108 98.429-.016 92.96.041 94.671-.046 9.197-.462 17.638-4.439 23.775-11.062 19.183 10.772 54.573 34.423 83.246 74.831-76.846-22.633-127.366 31.671-215.583 32.587-4.14.043-7.462 3.434-7.419 7.574.044 4.252 3.582 7.493 7.574 7.419 97.434-1.011 148.29-62.853 228.748-26.604 21.39 37.934 32.235 81.343 32.235 129.064 0 43.939-18.446 81.75-53.344 109.346-3.248 2.568-3.799 7.283-1.23 10.53 2.572 3.252 7.286 3.796 10.53 1.23 38.623-30.542 59.038-72.42 59.038-121.107 0-51.268-11.923-97.917-35.437-138.653-.021-.036-.05-.067-.072-.104zm-226.681-185.876c11.013 8.054 25.81 8.053 36.822 0 5.718-4.182 13.402-4.182 19.121 0 11.012 8.052 25.81 8.053 36.822 0 14.157-10.349 32.013 6.143 28.504 23.959-1.629 8.273-4.334 16.169-8.067 23.572-5.338-3.828-11.449-6.011-17.871-6.48-1.865-.133-95.71-.192-98.328.033-6.453.542-12.426 2.844-17.44 6.447-3.733-7.403-6.437-15.299-8.066-23.572-3.512-17.825 14.354-34.304 28.503-23.959zm-2.241 95.751c-9.982-1.095-17.777-9.571-17.777-19.84 0-10.121 7.687-18.891 18.063-19.87 1.684-.16 95.294-.131 96.674 0 10.367.979 18.062 9.735 18.062 19.87 0 11.001-8.962 19.967-19.966 19.967-99.097-.04-92.954.101-95.056-.127z"/><path d="m96.532 401.789c.764 9.888 8.497 17.62 18.385 18.384 15.228 1.179 30.164-5.854 39.98-18.118 36.182 42.844 122.591 58.444 176.086 19.29 42.433-31.058 42.589-82.649 0-113.821-19.836-14.519-46.087-22.514-73.917-22.514-44.223 0-83.16 19.294-102.169 41.804-9.721-12.145-24.609-19.306-39.98-18.117-9.889.764-17.621 8.496-18.385 18.384-1.017 13.16 4.088 26.396 14.012 36.321.689.689.6 1.47.121 1.947-.127.195-15.855 14.163-14.133 36.44zm89.403-81.877c20.03-12.652 45.956-19.909 71.131-19.909 48.329 0 87.954 26.947 90.627 60.784-9.647-.817-22.885-.478-36.318 4.463-3.886 1.43-5.877 5.738-4.448 9.624 1.434 3.898 5.749 5.873 9.624 4.448 10.951-4.028 21.883-4.286 29.893-3.599-7.542 30.163-44.75 53.141-89.379 53.141-25.175 0-51.101-7.256-71.131-19.909-16.768-10.592-32.188-27.076-30.849-46.884 1.197-17.982 15.536-32.485 30.85-42.159zm-64.794 32.88c-6.718-6.718-10.329-15.898-9.659-24.557.188-2.429 2.161-4.403 4.591-4.591 11.358-.875 23.462 5.589 29.889 16.544-7.907 15.68-7.956 32.714 0 48.491-6.389 10.888-18.465 17.428-29.89 16.544-2.429-.188-4.403-2.162-4.591-4.59-.669-8.66 2.942-17.84 9.721-24.619 6.289-6.256 6.631-16.563-.061-23.222z"/></g></g></svg>