<svg id="Capa_1" enable-background="new 0 0 512 512" height="512" viewBox="0 0 512 512" width="512" xmlns="http://www.w3.org/2000/svg"><g><g><path d="m84.5 265.288s-38.866 17.429-63.394 51.711c-33.223 46.436-2.051 111.894 55.027 113.378.809.021 1.627.032 2.452.032z" fill="#dadada"/><path d="m236.643 291.35c-43.69-82.196 13.843-85.899 13.843-179.1 0-54.393-42.828-98.487-95.658-98.487s-95.658 44.094-95.658 98.487c0 93.201 57.533 96.903 13.843 179.1 0 0-81.478 159.209 81.815 159.209s81.815-159.209 81.815-159.209z" fill="#dadada"/><path d="m102.135 152.125c-.509-2.076-.773-4.206-.773-6.388 0-20.731 23.941-37.532 53.465-37.532 29.534 0 53.465 16.801 53.465 37.532 0 2.182-.265 4.312-.773 6.388z" fill="#ffb25a"/><path d="m207.518 152.125c-4.322 17.691-26.261 31.144-52.691 31.144-26.42 0-48.369-13.454-52.691-31.144 15.244-3.665 33.316-5.784 52.691-5.784s37.447 2.118 52.691 5.784z" fill="#ff9c20"/><path d="m488.825 426.466c-.24-.24-.488-.469-.732-.704 11.384-22.06 16.407-48.256 16.407-76.702s-5.024-54.642-16.407-76.702c.244-.235.492-.463.732-.704 6.249-6.249 10.638-13.653 13.166-21.525 8.18-25.464-16.184-49.828-41.648-41.648-7.872 2.529-15.276 6.917-21.525 13.166-.327.327-.641.663-.958.997-22.711-11.621-51.937-18.189-88.769-18.189s-66.058 6.568-88.769 18.189c-.317-.334-.631-.669-.958-.997-6.249-6.249-13.653-10.638-21.525-13.166-25.464-8.18-49.828 16.184-41.648 41.648 2.529 7.872 6.917 15.276 13.166 21.525.24.24.488.469.732.704-11.384 22.06-16.407 48.256-16.407 76.702s5.023 54.642 16.407 76.702c-.244.235-.492.463-.732.704-6.249 6.249-10.638 13.653-13.166 21.525-8.18 25.464 16.184 49.828 41.648 41.648 7.872-2.529 15.276-6.917 21.525-13.166.327-.327.641-.663.958-.997 22.711 11.621 51.937 18.189 88.769 18.189 36.831 0 66.058-6.568 88.769-18.189.317.334.631.67.958.997 6.249 6.249 13.653 10.638 21.525 13.166 25.464 8.179 49.828-16.184 41.648-41.648-2.529-7.871-6.917-15.276-13.166-21.525z" fill="#ffb3dd"/><path d="m156.879 472.151-1.498-6.905c-3.113-14.35-15.809-24.588-30.493-24.588-14.684 0-27.38 10.238-30.493 24.588l-1.498 6.905c-2.909 13.413 7.31 26.086 21.035 26.086h21.911c13.726 0 23.945-12.673 21.036-26.086z" fill="#ffb25a"/><g><path d="m86.576 258.325c-2.506 9.555-6.829 20.355-13.563 33.025 0 0-81.478 159.209 81.815 159.209 4.237 0 8.299-.113 12.212-.322-45.025-47.667-75.061-115.531-80.464-191.912z" fill="#ccccca"/></g><path d="m257.953 316.49c0-38.418 11.433-74.315 31.257-104.844-10.614 2.878-20.229 6.568-28.888 10.999-.317-.334-.631-.67-.958-.997-6.249-6.249-13.653-10.638-21.525-13.166-25.464-8.18-49.828 16.184-41.648 41.648 2.529 7.872 6.917 15.277 13.166 21.525.24.24.488.469.732.704-11.384 22.06-16.407 48.256-16.407 76.702s5.023 54.642 16.407 76.702c-.244.235-.492.463-.732.704-6.249 6.249-10.638 13.653-13.166 21.525-8.18 25.464 16.184 49.828 41.648 41.648 7.872-2.529 15.276-6.917 21.525-13.166.327-.327.641-.663.958-.997 22.711 11.621 51.937 18.189 88.769 18.189 6.888 0 13.509-.23 19.872-.68-66.15-34.147-111.01-100.38-111.01-176.496z" fill="#ff9dd3"/></g><g><path d="m112.693 113.061c-12.156 8.533-18.852 20.139-18.852 32.679 0 27.217 30.299 45.031 60.964 45.031 29.534 0 54.757-15.504 59.976-36.864.637-2.608.988-5.352.988-8.168 0-40.203-65.022-59.389-103.076-32.678zm42.112 2.647c23.487 0 43.538 12.22 45.759 27.259-29.63-5.656-63.88-5.321-91.519 0 2.222-15.039 22.273-27.259 45.76-27.259zm0 60.063c-18.455 0-34.983-7.456-42.173-18.218.166-.015 39.897-8.314 84.342-.001.001 0 .002 0 .004.001-7.19 10.761-23.718 18.218-42.173 18.218z"/><path d="m93.787 87.596c-4.142 0-7.5 3.358-7.5 7.5v11.725c0 4.142 3.358 7.5 7.5 7.5s7.5-3.358 7.5-7.5v-11.725c0-4.142-3.358-7.5-7.5-7.5z"/><path d="m223.323 106.821v-11.725c0-4.142-3.358-7.5-7.5-7.5s-7.5 3.358-7.5 7.5v11.725c0 4.142 3.358 7.5 7.5 7.5 4.143 0 7.5-3.358 7.5-7.5z"/><path d="m436.409 213.61c-23.83-11.053-53.18-16.653-87.343-16.653-34.164 0-63.514 5.6-87.343 16.653-7.547-6.616-16.585-11.116-24.266-13.019 9.745-23.019 20.506-46.94 20.506-88.338 0-58.44-46.275-105.985-103.156-105.985-15.724 0-30.824 3.544-44.882 10.533-3.709 1.844-5.221 6.346-3.377 10.054 1.844 3.709 6.347 5.222 10.054 3.377 11.965-5.949 24.818-8.965 38.204-8.965 48.61 0 88.156 40.816 88.156 90.985 0 41.804-11.656 63.576-21.461 87.628-22.807 3.648-39.115 26.346-33.201 49.976 1.916 7.622 6.301 16.447 12.737 23.884-20.284 43.586-19.565 108.592-.002 150.633-3.792 4.369-7.147 9.559-9.685 15.262-13.066 2.764-27.273 3.62-40.683 3.383-11.656-10.405-28.507-12.822-42.604-6.02-14.636-4.543-27.654-12.218-36.402-24.653-28.814-41.45 5.66-112.839 7.9-117.363 1.842-3.702 7.654-14.229 12.02-27.315 20.529-61.46-24.932-75.435-24.932-155.413 0-25.033 9.65-48.364 27.171-65.694 2.945-2.913 2.971-7.661.059-10.606-2.913-2.945-7.661-2.972-10.606-.059-20.392 20.169-31.623 47.287-31.623 76.359 0 40.246 10.537 64.947 19.004 84.796 8.992 21.08 15.639 36.717 7.705 62.865-9.922 4.972-41.769 22.527-63.371 52.719-36.522 51.048-2.501 123.65 61.034 125.238 5.443 3.961 11.595 7.34 18.428 10.143-7.477 9.474-7.601 18.159-8.901 22.542-3.927 18.106 9.876 35.175 28.364 35.175h21.911c18.525 0 32.283-17.104 28.364-35.175-1.343-5.773-1.538-8.26-3.209-12.58 9.33-.236 18.082-1.026 26.205-2.335-2.011 33.742 38.364 60.579 74.539 28.866 23.829 11.053 53.18 16.653 87.344 16.653s63.514-5.6 87.343-16.653c46.022 40.345 100.603-14.006 60.682-60.132 3.607-7.765 6.594-16.167 8.902-25.049 1.042-4.009-1.363-8.103-5.372-9.145-4.007-1.043-8.103 1.364-9.145 5.372-2.515 9.679-5.905 18.684-10.075 26.765-1.52 2.945-.927 6.538 1.459 8.839.171.208 8.082 7.041 11.963 19.124 6.318 19.671-12.511 38.54-32.213 32.213-7.416-2.382-13.98-6.519-19.34-12.188-2.29-2.41-5.894-3.024-8.853-1.511-22.518 11.523-51.234 17.365-85.35 17.365-34.117 0-62.833-5.843-85.351-17.365-2.959-1.514-6.563-.9-8.853 1.511-5.351 5.66-11.912 9.802-19.339 12.188-19.662 6.315-38.544-12.503-32.213-32.213 2.311-7.197 6.609-14.032 11.963-19.124 2.386-2.3 2.979-5.893 1.46-8.839-10.333-20.023-15.572-44.671-15.572-73.261 0-28.589 5.239-53.238 15.572-73.261 1.521-2.948.925-6.545-1.465-8.844-5.326-5.054-9.545-11.609-11.957-19.118-6.408-19.95 12.938-38.405 32.213-32.213 7.464 2.397 14.034 6.569 19.336 12.184 2.29 2.414 5.896 3.029 8.857 1.515 22.519-11.523 51.234-17.366 85.351-17.366 34.116 0 62.832 5.843 85.35 17.366 2.962 1.516 6.567.899 8.857-1.515 5.219-5.523 11.745-9.746 19.337-12.184 19.614-6.3 38.555 12.467 32.213 32.213-2.41 7.503-6.627 14.059-11.957 19.117-2.391 2.299-2.986 5.896-1.465 8.844 14.02 27.168 17.39 61.154 14.805 91.466-.352 4.127 2.709 7.758 6.836 8.11 4.138.346 7.758-2.709 8.11-6.836 2.682-31.493-.713-66.124-14.057-94.797 39.833-46.03-14.572-100.558-60.69-60.129zm-409.222 107.751c12.522-17.502 29.199-30.493 41.851-38.722-2.934 5.885-10.72 19.701-17.905 46.285-8.076 30.538-10.069 64.871 7.476 90.998-38.544-12.266-58.038-61.358-31.422-98.561zm108.636 169.371h-21.911c-8.953 0-15.598-8.266-13.705-16.996l1.498-6.904c2.143-9.88 10.545-17.49 20.774-18.543 12.157-1.23 23.058 7.049 25.551 18.543l1.498 6.904c1.897 8.749-4.772 16.996-13.705 16.996z"/></g></g></svg>