<svg id="Capa_1" enable-background="new 0 0 512 512" height="512" viewBox="0 0 512 512" width="512" xmlns="http://www.w3.org/2000/svg"><g><g><path d="m428.111 448.079v-23.208c0-39.999-32.426-72.425-72.425-72.425-39.999 0-72.425-32.426-72.425-72.425v-148.925c0-43.708-50.021-79.14-111.725-79.14s-111.724 35.433-111.724 79.14v221.35 114.334c0 20.832 16.888 37.72 37.72 37.72h18.498c8.804 0 17.04-4.346 22.009-11.613l11.983-17.525c7.43-10.866 23.46-10.866 30.89 0l11.983 17.525c4.969 7.267 13.205 11.613 22.009 11.613h174.617c21.312 0 38.59-17.277 38.59-38.59v-.826l-3.199-8.875z" fill="#80dfb5"/><path d="m85.976 282.421c0-104.025-1.983-167.954 6.217-207.036-20.015 14.302-32.38 33.983-32.38 55.711v221.35 114.334c0 20.832 16.888 37.72 37.72 37.72h18.498c8.804 0 17.04-4.346 22.009-11.613l11.983-17.525c2.58-3.773 6.197-6.233 10.131-7.385-45.876-47.81-74.178-113.3-74.178-185.556z" fill="#36d39a"/><path d="m373.115 389.38c-8.199-8.199-20.255-9.435-26.93-2.76-6.674 6.674-5.438 18.73 2.761 26.929 8.198 8.198 20.255 9.434 26.929 2.76s5.438-18.731-2.76-26.929z" fill="#423e4f"/><circle cx="356.662" cy="103.026" fill="#ff8997" r="95.526"/><path d="m418 103.027c0-33.822-27.517-61.339-61.339-61.339-33.793 0-61.339 27.498-61.339 61.339 0 33.823 27.517 61.339 61.339 61.339 33.653 0 61.339-27.349 61.339-61.339zm-15 0c0 10.074-3.241 19.4-8.722 27.011l-64.627-64.628c7.611-5.48 16.937-8.722 27.011-8.722 25.551 0 46.338 20.788 46.338 46.339zm-92.678 0c0-10.074 3.241-19.399 8.721-27.01l64.628 64.628c-7.611 5.48-16.936 8.721-27.01 8.721-25.552 0-46.339-20.787-46.339-46.339z" fill="#fff"/><path d="m183.559 7.5h-24.045c-10.927 0-19.784 8.858-19.784 19.784v49.345c0 10.927 8.858 19.784 19.784 19.784h24.045c10.927 0 19.784-8.858 19.784-19.784v-49.345c0-10.926-8.857-19.784-19.784-19.784z" fill="#36d39a"/></g><g><path d="m435.611 424.871c0-44.071-35.854-79.925-79.925-79.925-35.799 0-64.924-29.125-64.924-64.924v-97.866c17.875 14.911 40.856 23.897 65.9 23.897 56.809 0 103.026-46.218 103.026-103.027 0-23.327-7.605-45.33-21.993-63.63-2.561-3.256-7.275-3.819-10.532-1.26-3.256 2.56-3.82 7.275-1.26 10.532 12.289 15.63 18.785 34.427 18.785 54.358 0 48.538-39.488 88.027-88.026 88.027-54.301 0-96.595-49.34-86.566-104.019 7.542-40.929 43.488-72.034 86.566-72.034 17.523 0 34.448 5.136 48.943 14.854 3.441 2.306 8.1 1.387 10.406-2.054s1.387-8.1-2.054-10.406c-16.975-11.379-36.787-17.394-57.295-17.394-45.898 0-84.876 30.172-98.158 71.721-13.125-10.121-29.551-17.87-47.661-22.448v-21.989c0-15.044-12.24-27.284-27.284-27.284h-24.044c-15.045 0-27.285 12.24-27.285 27.284v21.981c-21.766 5.471-40.66 15.282-54.908 28.596-16.362 15.289-25.01 33.698-25.01 53.236v207.393c0 4.142 3.358 7.5 7.5 7.5s7.5-3.358 7.5-7.5v-207.393c0-29.003 26.259-55.392 64.918-66.319v11.852c0 15.044 12.24 27.284 27.284 27.284h24.045c15.044 0 27.284-12.24 27.284-27.284v-11.848c17.267 4.884 32.508 12.964 43.874 23.307-4.058 28.077 3.519 56.517 21.044 78.729v113.204c0 44.07 35.854 79.924 79.925 79.924 35.799 0 64.924 29.125 64.924 64.925v19.202l-17.725-9.467c-2.294-1.225-5.061-1.175-7.308.134l-23.984 13.966-23.983-13.966c-2.333-1.358-5.215-1.358-7.548 0l-23.984 13.966-23.984-13.966c-2.332-1.358-5.215-1.358-7.548 0l-27.758 16.163c-3.58 2.084-4.792 6.676-2.708 10.255 2.078 3.568 6.664 4.798 10.255 2.708l23.985-13.966 23.984 13.966c2.333 1.358 5.215 1.358 7.548 0l23.984-13.966 23.984 13.966c2.333 1.358 5.215 1.358 7.548 0l24.142-14.058 21.101 11.27v4.832c0 17.143-13.947 31.089-31.089 31.089h-174.617c-6.331 0-12.244-3.12-15.818-8.346l-11.983-17.525c-10.384-15.187-32.856-15.233-43.271 0l-11.984 17.526c-3.573 5.226-9.486 8.346-15.817 8.346h-18.5c-16.664 0-30.22-13.557-30.22-30.22v-98.291c0-4.142-3.358-7.5-7.5-7.5s-7.5 3.358-7.5 7.5v98.291c0 24.935 20.286 45.22 45.22 45.22h18.499c11.288 0 21.83-5.563 28.2-14.879l11.984-17.526c4.44-6.494 14.033-6.543 18.507 0l11.983 17.525c6.371 9.317 16.913 14.879 28.2 14.879h174.617c25.414 0 46.089-20.676 46.089-46.089 0-18.863 0-4.641 0-41.039zm-276.097-335.957c-6.773 0-12.284-5.511-12.284-12.284 0-10.173 0-39.176 0-49.345 0-6.773 5.511-12.284 12.284-12.284h24.044c6.773 0 12.284 5.511 12.284 12.284v49.345c0 6.773-5.511 12.284-12.284 12.284z"/><path d="m252.013 357.825c-2.928-2.93-7.677-2.929-10.606 0l-11.17 11.17-11.17-11.17c-2.929-2.929-7.678-2.929-10.606 0-2.929 2.929-2.929 7.678 0 10.606l11.17 11.17-11.17 11.17c-2.929 2.929-2.929 7.678 0 10.606 2.928 2.929 7.677 2.929 10.606 0l11.17-11.17 11.17 11.17c2.929 2.929 7.678 2.929 10.606 0 2.929-2.929 2.929-7.678 0-10.606l-11.17-11.17 11.17-11.17c2.929-2.929 2.929-7.678 0-10.606z"/><path d="m148.966 165.601c11.985 13.611 33.127 13.646 45.143 0 18.268 20.747 52.643 7.799 52.643-19.85 0-4.142-3.358-7.5-7.5-7.5s-7.5 3.358-7.5 7.5c0 8.311-6.761 15.071-15.071 15.071s-15.071-6.761-15.071-15.071c0-4.142-3.358-7.5-7.5-7.5s-7.5 3.358-7.5 7.5c0 8.311-6.761 15.071-15.071 15.071s-15.071-6.761-15.071-15.071c0-4.142-3.358-7.5-7.5-7.5s-7.5 3.358-7.5 7.5c0 8.311-6.761 15.071-15.071 15.071s-15.071-6.761-15.071-15.071c0-4.142-3.358-7.5-7.5-7.5s-7.5 3.358-7.5 7.5c-.003 27.647 34.371 40.597 52.64 19.85z"/><path d="m148.966 239.692c11.985 13.611 33.127 13.646 45.143 0 5.515 6.264 13.589 10.222 22.571 10.222 16.582 0 30.071-13.49 30.071-30.071 0-4.142-3.358-7.5-7.5-7.5s-7.5 3.358-7.5 7.5c0 8.311-6.761 15.071-15.071 15.071s-15.071-6.761-15.071-15.071c0-4.142-3.358-7.5-7.5-7.5s-7.5 3.358-7.5 7.5c0 8.311-6.761 15.071-15.071 15.071s-15.071-6.761-15.071-15.071c0-4.142-3.358-7.5-7.5-7.5s-7.5 3.358-7.5 7.5c0 8.311-6.761 15.071-15.071 15.071s-15.071-6.761-15.071-15.071c0-4.142-3.358-7.5-7.5-7.5s-7.5 3.358-7.5 7.5c-.002 27.647 34.372 40.597 52.641 19.849z"/><path d="m148.966 313.783c11.985 13.611 33.127 13.646 45.143 0 18.268 20.747 52.643 7.799 52.643-19.85 0-4.142-3.358-7.5-7.5-7.5s-7.5 3.358-7.5 7.5c0 8.311-6.761 15.071-15.071 15.071s-15.071-6.761-15.071-15.071c0-4.142-3.358-7.5-7.5-7.5s-7.5 3.358-7.5 7.5c0 8.311-6.761 15.071-15.071 15.071s-15.071-6.761-15.071-15.071c0-4.142-3.358-7.5-7.5-7.5s-7.5 3.358-7.5 7.5c0 8.311-6.761 15.071-15.071 15.071s-15.071-6.761-15.071-15.071c0-4.142-3.358-7.5-7.5-7.5s-7.5 3.358-7.5 7.5c-.003 27.648 34.371 40.598 52.64 19.85z"/><path d="m381.179 421.613c9.587-9.588 8.349-26.426-2.761-37.536-11.109-11.11-27.948-12.348-37.536-2.76-9.587 9.587-8.349 26.426 2.761 37.536 10.655 10.655 27.58 12.714 37.536 2.76zm-29.69-29.69c4.184-4.183 11.966-1.597 16.323 2.76 5.172 5.172 6.436 12.647 2.76 16.322-3.676 3.676-11.151 2.412-16.323-2.76-4.391-4.391-6.922-12.16-2.76-16.322z"/></g></g></svg>