<svg id="Capa_1" enable-background="new 0 0 512 512" height="512" viewBox="0 0 512 512" width="512" xmlns="http://www.w3.org/2000/svg"><g><g><path d="m100.179 372.051c-223.14-236.341 8.05-456.062 155.821-293.702 147.771-162.361 378.961 57.36 155.821 293.701h-311.642z" fill="#b08bd7"/><path d="m353.57 242.47-61.85-69.35 47.69-70.75c11.18-16.58 35.66-16.69 46.8-.08z" fill="#5c586f"/><path d="m158.43 242.47 61.85-69.35-47.69-70.75c-11.18-16.58-35.66-16.69-46.8-.08z" fill="#5c586f"/><path d="m401.871 296.63-48.3-54.16c-9.82-89.47 32.64-140.181 32.64-140.181 21.75 32.441 44.41 93.871 15.66 194.341z" fill="#ffc8e5"/><path d="m66.709 207.34c0-72.578 26.818-138.122 73.224-184.876-117.89 2.528-208.062 171.323-39.754 349.587h31.802c-40.071-48.788-65.272-107.006-65.272-164.711z" fill="#a47cd1"/><path d="m110.129 296.63 48.3-54.16c9.82-89.47-32.64-140.181-32.64-140.181-21.75 32.441-44.41 93.871-15.66 194.341z" fill="#ffc8e5"/><path d="m139.31 409.491c-14.36-12.49-27.38-24.99-39.13-37.44l9.95-75.42c4.83-36.59 22.84-68.57 48.87-91.4 26.04-22.82 60.09-36.5 97-36.5 73.82 0 136.221 54.71 145.871 127.901l9.95 75.42c-11.75 12.45-24.77 24.95-39.13 37.44h-233.381z" fill="#6a647f"/><path d="m105.162 334.279-4.983 37.771c11.75 12.45 24.77 24.95 39.13 37.44h28.383c-24.574-22.268-45.888-47.804-62.53-75.211z" fill="#5c586f"/><path d="m372.69 409.491c-29.99 26.1-65.84 52.16-108.25 77.71-5.27 3.17-11.61 3.17-16.88 0-42.41-25.55-78.26-51.61-108.25-77.71l15.43-116.98c4.55-34.46 38.92-48.14 65.04-35.1 22.36 11.17 50.13 11.15 72.44 0 27.02-13.49 59.73 2.22 64.58 32.03.36 2.149-1.06-8.461 15.89 120.05z" fill="#dadada"/><path d="m142.622 384.379-3.312 25.112c29.99 26.1 65.84 52.16 108.25 77.71 5.27 3.17 11.61 3.17 16.88 0 5.185-3.124 10.268-6.255 15.259-9.393-51.799-18.787-99.8-52.164-137.077-93.429z" fill="#ccccca"/></g><g><path d="m255.974 354.185c10.838 0 19.624-5.023 19.624-11.219s-8.786-6.258-19.624-6.258-19.624.062-19.624 6.258c.001 6.196 8.786 11.219 19.624 11.219z"/><path d="m188.335 323.557c-4.142 0-7.5 3.358-7.5 7.5v12.981c0 4.142 3.358 7.5 7.5 7.5s7.5-3.358 7.5-7.5v-12.981c0-4.142-3.358-7.5-7.5-7.5z"/><path d="m323.44 323.557c-4.142 0-7.5 3.358-7.5 7.5v12.981c0 4.142 3.358 7.5 7.5 7.5s7.5-3.358 7.5-7.5v-12.981c0-4.142-3.358-7.5-7.5-7.5z"/><path d="m287.359 360.276c-4.142 0-7.5 3.358-7.5 7.5 0 4.487-3.65 8.137-8.137 8.137s-8.137-3.65-8.137-8.137c0-4.142-3.358-7.5-7.5-7.5s-7.5 3.358-7.5 7.5c0 4.487-3.65 8.137-8.137 8.137s-8.137-3.65-8.137-8.137c0-4.142-3.358-7.5-7.5-7.5s-7.5 3.358-7.5 7.5c0 20.104 24.025 30.585 38.774 17.035 14.747 13.548 38.774 3.074 38.774-17.035 0-4.142-3.358-7.5-7.5-7.5z"/><path d="m468.797 296.773c-3.545-2.147-8.155-1.013-10.3 2.53-11.378 18.789-25.263 37.502-41.382 55.787l-7.641-57.914c28.478-100.916 6.487-163.92-17.066-199.05-.102-.091-9.588-15.705-29.492-15.729-12.123 0-23.155 6.007-29.754 15.794l-44.814 66.483c-20.958-4.486-42.939-4.668-64.747.001l-44.815-66.485c-14.155-20.994-45.156-21.067-59.242-.067-4.754 10.243-53.606 69.573-17.069 199.054l-7.64 57.911c-44.006-49.95-70.869-102.74-77.944-153.447-6.472-46.385 3.81-89.906 28.952-122.548 2.527-3.282 1.916-7.99-1.365-10.518-3.282-2.528-7.99-1.916-10.518 1.365-27.621 35.859-38.959 83.367-31.926 133.772 13.435 96.293 88.985 168.444 92.676 173.49 42.705 45.248 95.242 84.058 148.958 116.42 7.704 4.635 16.904 4.635 24.615-.002 77.413-46.638 156.042-108.938 203.043-186.547 2.146-3.543 1.014-8.155-2.529-10.3zm-66.88-32.009c-8.473-24.18-22.884-45.966-41.86-63.238 1.945-29.593 10.235-60.158 25.78-85.495 17.023 30.11 30.335 77.858 16.08 148.733zm-98.243-95.992 41.924-62.196c6.644-9.853 17.399-9.204 17.299-9.179 5.219.006 10.014 1.863 13.717 5.215-17.267 24.983-27.318 57.621-30.631 87.539-12.61-9.032-26.841-16.34-42.309-21.379zm-154.596-71.376c7.043 0 13.337 3.345 17.27 9.178l41.926 62.198c-14.778 4.802-29.2 11.991-42.31 21.376-3.371-30.432-13.584-62.864-30.63-87.538 6.3-5.701 13.844-5.232 13.744-5.214zm-22.967 18.636c15.449 25.181 23.832 55.723 25.779 85.483-19.245 17.513-33.523 39.471-41.856 63.258-14.256-70.873-.946-118.631 16.077-148.741zm134.437 364.737c-2.907 1.747-6.241 1.748-9.144.002-39.169-23.598-74.188-48.585-104.151-74.311l14.901-112.964c3.745-28.362 31.81-40.574 54.25-29.371 24.401 12.189 54.727 12.202 79.138 0 22.706-11.336 49.82 1.894 53.831 26.557.837 5.009 13.863 104.716 15.322 115.777-29.963 25.728-64.982 50.715-104.147 74.31zm117.695-86.299c-15.239-115.565-13.759-107.765-16.31-115.062-10.243-29.307-44.679-42.885-73.094-28.701-16.999 8.496-37.595 9.918-55.906 4.006-8.519-2.75-9.293-4.223-15.739-6.529-31.422-11.24-65.244 8.003-69.912 43.35l-13.577 102.936c-9.029-8.243-17.613-16.609-25.64-24.991l9.481-71.864c15.496-117.378 160.041-161.785 239.144-78.445 39.434 41.04 37.603 77.796 47.193 150.309-8.027 8.383-16.611 16.748-25.64 24.991z"/><path d="m255.975 67.434c-64.041-65.538-145.105-66.676-200.171-20.349-3.17 2.667-3.577 7.398-.911 10.567 2.667 3.17 7.397 3.578 10.567.911 49.882-41.966 124.914-41.135 184.967 24.848 2.97 3.262 8.115 3.272 11.093 0 121.693-133.71 300.199 3.589 211.558 188.983-2.395 5.009 1.302 10.736 6.761 10.736 2.798 0 5.484-1.574 6.772-4.266 94.985-198.668-97.598-347.489-230.636-211.43z"/></g></g></svg>