<svg id="Capa_1" enable-background="new 0 0 512 512" height="512" viewBox="0 0 512 512" width="512" xmlns="http://www.w3.org/2000/svg"><g><g><path d="m258.674 260.776s86.247-68.854 126.86 32.899c3.147 7.885 4.817 16.322 4.633 24.809-.337 15.545-6.761 35.984-37.063 40.046z" fill="#e7886e"/><path d="m144.828 260.776s-86.247-68.854-126.86 32.899c-3.147 7.885-4.817 16.322-4.633 24.809.337 15.545 6.761 35.984 37.063 40.046z" fill="#e27858"/><path d="m176.521 251.636c8.228-1.415 16.656-2.152 25.233-2.152 92.354 0 167.235 85.022 167.235 189.887 0 7.999-.438 15.879-1.285 23.619-2.58 23.649-22.682 41.51-46.471 41.51h-32.485l-22.274-32.953-22.284 32.953h-84.883l-22.274-32.953-22.274 32.953h-32.485c-23.798 0-43.891-17.861-46.471-41.51-.847-7.74-1.285-15.62-1.285-23.619 0-16.058 1.753-31.648 5.06-46.54z" fill="#dadada"/><path d="m137.031 438.586c-24.353 0-44.095 19.742-44.095 44.095 0 12.05 9.769 21.819 21.819 21.819h44.553c12.05 0 21.819-9.769 21.819-21.819-.001-24.353-19.743-44.095-44.096-44.095z" fill="#ed9b83"/><path d="m266.471 438.586c24.353 0 44.095 19.742 44.095 44.095 0 12.05-9.769 21.819-21.819 21.819h-44.553c-12.05 0-21.819-9.769-21.819-21.819.001-24.353 19.743-44.095 44.096-44.095z" fill="#ed9b83"/><path d="m69.075 401.422c0-15.834 2.298-31.181 6.588-45.796l-36.084 37.205c-3.307 14.893-5.06 30.482-5.06 46.54 0 7.999.438 15.879 1.285 23.619 2.58 23.649 22.673 41.51 46.471 41.51h8.272c-16.146-29.096-21.472-64.667-21.472-103.078z" fill="#ccccca"/><path d="m183.115 288.703c0 60.138-49.698 108.88-111.012 108.88-11.316 0-22.234-1.664-32.525-4.752 16.277-73.337 70.119-129.719 136.942-141.195 4.264 11.565 6.595 24.047 6.595 37.067z" fill="#ed9b83"/><path d="m313.492 360.027c-.971-.944-2.513-.944-3.484 0-34.725 33.77-25.383 63.931 1.742 63.931 27.125-.001 36.467-30.161 1.742-63.931z" fill="#64d1e1"/><path d="m497.76 140.375c-8.071-16.537-8.071-35.871 0-52.408 2.138-4.38.421-9.666-3.883-11.953l-.013-.007c-16.237-8.63-27.595-24.256-30.793-42.363l-.005-.027c-.847-4.794-5.336-8.058-10.157-7.384l-.079.011c-18.176 2.538-36.51-3.418-49.723-16.154l-.058-.056c-3.503-3.377-9.05-3.377-12.553 0l-.058.055c-13.214 12.737-31.548 18.693-49.724 16.155l-.078-.011c-4.821-.673-9.311 2.59-10.157 7.384l-.005.027c-3.198 18.107-14.557 33.733-30.793 42.363l-.013.007c-4.304 2.287-6.021 7.573-3.883 11.953v.001c8.071 16.537 8.071 35.871 0 52.408-2.138 4.38-.421 9.666 3.883 11.953l.013.007c16.237 8.63 27.595 24.256 30.793 42.364l.005.027c.847 4.794 5.336 8.058 10.157 7.384l.079-.011c18.176-2.538 36.51 3.418 49.723 16.154l.058.056c3.503 3.377 9.05 3.377 12.553 0l.058-.055c13.214-12.737 31.548-18.693 49.724-16.155l.078.011c4.821.673 9.311-2.59 10.158-7.384l.005-.027c3.198-18.107 14.557-33.733 30.794-42.363l.013-.007c4.302-2.288 6.019-7.574 3.881-11.955z" fill="#ffb25a"/><circle cx="396.771" cy="114.171" fill="#f9d888" r="62.54"/><g fill="#e7886e"><path d="m145.776 260.389c-52.225 21.056-92.504 70.748-106.198 132.442 9.385 2.816 19.295 4.432 29.55 4.697 1.326-55.81 31.054-105.294 76.648-137.139z"/><path d="m117.347 465.044c0-9.131 2.871-17.641 7.813-24.828-18.585 5.185-32.224 22.227-32.224 42.465 0 12.05 9.769 21.819 21.819 21.819h26.37c-14.278-8.232-23.778-22.82-23.778-39.456z"/><path d="m246.787 465.044c0-9.131 2.871-17.641 7.813-24.828-18.585 5.185-32.224 22.227-32.224 42.465 0 12.05 9.769 21.819 21.819 21.819h26.37c-14.278-8.232-23.778-22.82-23.778-39.456z"/></g></g><g><path d="m201.77 362.924c9.723 0 17.605-4.506 17.605-10.065s-7.882-5.615-17.605-5.615-17.605.056-17.605 5.615c0 5.558 7.882 10.065 17.605 10.065z"/><path d="m125.924 359.85c4.142 0 7.5-3.358 7.5-7.5v-14.574c0-4.142-3.358-7.5-7.5-7.5s-7.5 3.358-7.5 7.5v14.574c0 4.142 3.358 7.5 7.5 7.5z"/><path d="m285.116 352.35v-14.574c0-4.142-3.358-7.5-7.5-7.5s-7.5 3.358-7.5 7.5v14.574c0 4.142 3.358 7.5 7.5 7.5s7.5-3.358 7.5-7.5z"/><path d="m179.716 381.119c-2.721 3.122-2.396 7.86.727 10.581 3.121 2.721 7.859 2.395 10.581-.727 5.691-6.531 15.806-6.525 21.492 0 2.72 3.122 7.459 3.448 10.581.727 3.123-2.721 3.448-7.459.727-10.581-11.67-13.392-32.45-13.377-44.108 0z"/><path d="m304.793 354.657c-41.746 40.598-24.911 76.804 6.971 76.804 31.876 0 48.697-36.224 6.971-76.804-3.91-3.801-10.033-3.802-13.942 0zm22.57 53.192c-2.256 5.554-7.796 8.613-15.599 8.613s-13.343-3.059-15.599-8.613c-3.145-7.747-.499-21.82 15.599-38.901 16.097 17.081 18.744 31.154 15.599 38.901z"/><path d="m504.505 91.277c3.931-8.054.811-17.658-7.116-21.872-14.296-7.599-24.111-21.101-26.911-36.95-.005-.031-.015-.089-.02-.12-1.556-8.811-9.71-14.742-18.659-13.496-15.997 2.237-31.847-2.914-43.536-14.181-6.438-6.207-16.525-6.207-22.945-.018-.006.006-.069.067-.075.072-11.631 11.212-27.477 16.363-43.444 14.131-.012-.001-.102-.015-.114-.016-8.854-1.24-17.023 4.695-18.585 13.534-2.816 15.944-12.63 29.445-26.926 37.043-.017.009-.036.02-.056.03-7.882 4.218-10.984 13.802-7.06 21.842 7.107 14.562 7.107 31.265 0 45.827-3.931 8.054-.811 17.658 7.116 21.871 14.296 7.599 24.111 21.101 26.911 36.95.005.031.015.089.02.12 1.557 8.812 9.716 14.749 18.659 13.496 15.999-2.23 31.848 2.914 43.538 14.182 3.212 3.096 7.332 4.647 11.46 4.647 4.147 0 8.304-1.565 11.56-4.703 11.631-11.212 27.475-16.361 43.558-14.115 8.859 1.24 17.023-4.695 18.585-13.534 2.816-15.943 12.63-29.444 26.926-37.043.018-.009.038-.02.058-.031 7.881-4.218 10.982-13.801 7.058-21.841-7.109-14.56-7.109-31.263-.002-45.825zm-14.142 54.446c-.017.009-.036.019-.055.03-18.379 9.784-30.995 27.151-34.621 47.684-.146.822-.91 1.372-1.812 1.25-20.597-2.876-40.993 3.75-56.022 18.237-.601.579-1.542.579-2.202-.057-12.668-12.211-29.22-18.834-46.538-18.834-3.148 0-6.323.219-9.503.664-.827.112-1.589-.439-1.719-1.167-.005-.031-.015-.089-.02-.121-3.624-20.521-16.257-37.9-34.671-47.687-.739-.393-1.03-1.289-.663-2.041 9.148-18.743 9.148-40.242 0-58.985-.367-.752-.076-1.648.663-2.04.017-.009.035-.019.054-.029 18.379-9.783 30.995-27.151 34.622-47.685.146-.822.907-1.374 1.698-1.266.012.001.102.015.114.016 20.595 2.878 40.993-3.75 55.947-18.165.006-.006.069-.067.075-.073.601-.579 1.542-.579 2.202.057 14.972 14.431 35.37 21.057 56.041 18.171.823-.12 1.59.438 1.72 1.167.005.031.015.089.02.121 3.624 20.521 16.257 37.899 34.67 47.686.739.393 1.03 1.289.663 2.041-9.147 18.743-9.147 40.242 0 58.985.367.753.076 1.649-.663 2.041z"/><path d="m396.781 44.153c-38.619 0-70.037 31.418-70.037 70.037 0 38.618 31.418 70.037 70.037 70.037 38.618 0 70.037-31.418 70.037-70.037s-31.418-70.037-70.037-70.037zm0 125.075c-30.348 0-55.038-24.69-55.038-55.037 0-30.348 24.69-55.038 55.038-55.038s55.037 24.69 55.037 55.038c.001 30.347-24.689 55.037-55.037 55.037z"/><path d="m311.459 230.905c-15.534 1.537-34.187 7.844-53.957 21.439-37.337-14.192-76.524-13.369-111.563-.062-24.973-17.499-58.405-28.56-87.032-16.904-3.836 1.562-5.679 5.939-4.117 9.775s5.939 5.679 9.774 4.117c21.141-8.609 45.282-1.273 64.969 10.309-37.601 19.286-66.543 52.425-83.648 90.521-16.444-3.841-24.644-14.28-25.024-31.77-.158-7.296 1.222-14.653 4.101-21.865 5.17-12.955 11.378-23.602 18.449-31.646 2.735-3.111 2.43-7.85-.681-10.584-3.111-2.735-7.85-2.43-10.584.681-8.204 9.333-15.308 21.441-21.115 35.989-11.089 27.778-5.974 63.681 29.152 73.219-11.748 32.227-15.424 66.634-11.808 99.683 2.997 27.474 26.179 48.193 53.924 48.193h238.947c27.744 0 50.926-20.719 53.924-48.192 3.639-33.261-.145-67.61-11.848-99.676 28.943-7.842 34.046-31.329 34.353-45.477.202-9.319-1.536-18.656-5.165-27.751-21.587-54.081-55.989-62.481-81.051-59.999zm-262.844 156.544c16.02-61.738 62.015-113.851 122.872-127.175 22.158 74.374-45.978 144.714-122.872 127.175zm66.163 109.552c-7.895 0-14.318-6.423-14.318-14.318 0-20.178 16.416-36.593 36.593-36.593s36.593 16.416 36.593 36.593c0 7.895-6.423 14.318-14.318 14.318zm129.434 0c-7.895 0-14.318-6.423-14.318-14.318 0-20.178 16.416-36.593 36.593-36.593s36.593 16.416 36.593 36.593c0 7.895-6.423 14.318-14.318 14.318zm113.429-146.897c-6.827-15.194-15.623-29.664-25.562-42.226-2.571-3.249-7.287-3.798-10.535-1.227-3.243 2.566-3.806 7.282-1.23 10.538 31.998 40.447 45.572 93.536 39.945 144.991-2.166 19.852-18.938 34.822-39.013 34.822h-6.914c2.382-4.238 3.748-9.12 3.748-14.318 0-28.448-23.144-51.593-51.593-51.593s-51.593 23.144-51.593 51.593c0 5.198 1.366 10.08 3.748 14.318h-33.745c2.382-4.238 3.748-9.12 3.748-14.318 0-28.448-23.144-51.593-51.593-51.593s-51.592 23.143-51.592 51.592c0 5.198 1.366 10.08 3.748 14.318h-6.91c-20.075 0-36.847-14.97-39.013-34.824-2.261-20.667-1.357-41.07 2.099-60.071 88.067 19.95 164.595-60.147 141.034-144.274 39.872-4.349 80.898 7.953 114.912 38.971 3.064 2.793 7.809 2.571 10.603-.493 2.791-3.06 2.572-7.804-.489-10.595-10.999-10.03-23.965-19.202-37.467-26.129 13.124-7.73 36.492-18.28 58.986-12.33 19.271 5.099 34.619 21.655 45.616 49.209 2.879 7.214 4.259 14.57 4.101 21.865-.381 17.495-8.586 27.935-25.039 31.774z"/></g></g></svg>