<svg id="Capa_1" enable-background="new 0 0 512 512" height="512" viewBox="0 0 512 512" width="512" xmlns="http://www.w3.org/2000/svg"><path d="m81.131 283.894c8.278-31.554 19.699-54.751 28.115-69.02l100.456 35.121c-3.902 14.427-7.391 32.726-7.854 52.997l-14.832 18.358-54.293 13.318-42.709-19.288z" fill="#fab659"/><path d="m109.246 214.873c-1.841 3.122-3.83 6.696-5.895 10.666-7.372 14.178-15.753 33.704-22.22 58.355l8.883 31.486 13.639 6.159c1.888-13.625 4.469-26.194 7.478-37.646 6.757-25.755 15.606-45.937 23.208-60.248z" fill="#f59e18"/><path d="m226.405 159.511-5.124 57.964s-6.179 12.535-11.579 32.52c-70.903 14.062-100.456-35.121-100.456-35.121 6.573-11.145 11.313-16.851 11.313-16.851l47.577-38.511h58.269z" fill="#f8e86a"/><path d="m302.615 175.392c-18.585-27.54-50.083-41.222-81.339-38.644-14.085 28.021-13.183 62.35 5.402 89.89 16.702 24.75 43.833 38.307 71.845 38.929 5.881.131 11.232-3.48 13.312-8.983 9.903-26.21 7.483-56.443-9.22-81.192z" fill="#00c071"/><path d="m139.442 214.541c5.691-9.609 13.074-18.104 21.755-25.13l-40.638 8.611s-4.74 5.706-11.313 16.851c0 0 6.131 10.199 19.501 19.98 3.708-7.914 7.318-14.587 10.499-19.98.065-.111.131-.222.196-.332z" fill="#fab659"/><path d="m135.944 107.976c-29.137 6.162-51.853 26.123-62.987 51.753-2.408 5.544-1.051 11.962 3.396 16.056 20.557 18.927 49.411 27.982 78.548 21.819 32.506-6.875 57.02-30.923 66.376-60.857-20.676-23.582-52.828-35.645-85.333-28.771z" fill="#00c071"/><path d="m215.874 46.858c-16.702-24.75-43.833-38.307-71.845-38.929-5.881-.131-11.232 3.48-13.312 8.983-9.904 26.21-7.483 56.442 9.219 81.192 18.585 27.54 50.083 41.222 81.339 38.644 14.086-28.021 13.184-62.35-5.401-89.89z" fill="#36d39a"/><path d="m366.466 97.956c-20.574-19.094-49.551-28.254-78.814-22.065-32.506 6.875-57.02 30.923-66.376 60.857 20.675 23.582 52.827 35.646 85.333 28.771 29.263-6.189 52.05-26.296 63.131-52.086 2.282-5.311.963-11.545-3.274-15.477z" fill="#36d39a"/><path d="m203.7 334.408-12.88 27.582-95.361 38.255-24.597-11.126c-2.119-41.586 2.799-76.795 10.268-105.225 0 0 47.015 42.059 120.717 19.098-.236 10.061.276 20.615 1.853 31.416z" fill="#f8e86a"/><path d="m70.863 389.119h30c-1.746-34.277 1.293-64.211 6.597-89.598-16.943-7.239-26.327-15.626-26.328-15.627-8.446 32.144-12.188 67.56-10.269 105.225z" fill="#fab659"/><path d="m39.979 447.689c0-58.953 96.716-116.745 216.021-116.745s216.021 57.791 216.021 116.745l-216.021 17.097z" fill="#f8e86a"/><path d="m79.979 447.689c0-55.621 86.094-110.197 196.021-116.191-6.587-.359-13.255-.553-20-.553-119.305 0-216.021 57.791-216.021 116.745h40z" fill="#fab659"/><circle cx="222.771" cy="136.692" fill="#de8957" r="35.75"/><path d="m207.465 132.31c-1.877-11.797 2.253-23.156 10.121-30.982-.145.021-.289.035-.433.058-19.499 3.103-32.791 21.425-29.688 40.924s21.425 32.791 40.924 29.688c7.702-1.226 14.429-4.833 19.566-9.942-19.336 2.838-37.411-10.392-40.49-29.746z" fill="#d97c40"/><circle cx="232.02" cy="194.818" fill="#d97c40" r="35.75"/><path d="m216.714 190.436c-1.877-11.796 2.253-23.156 10.121-30.982-.145.021-.289.035-.434.058-19.499 3.103-32.791 21.425-29.688 40.924s21.425 32.791 40.924 29.688c7.702-1.226 14.429-4.833 19.567-9.942-19.335 2.838-37.41-10.392-40.49-29.746z" fill="#c76d33"/><circle cx="176.43" cy="168.55" fill="#de8957" r="35.75"/><path d="m161.125 164.168c-1.877-11.796 2.253-23.156 10.121-30.982-.145.021-.289.035-.434.058-19.499 3.103-32.791 21.425-29.688 40.924s21.425 32.791 40.924 29.688c7.702-1.226 14.429-4.833 19.567-9.942-19.336 2.838-37.411-10.392-40.49-29.746z" fill="#d97c40"/><path d="m7.5 427.883c22.346-11.181 48.654-11.181 71 0 22.346 11.181 48.654 11.181 71 0 22.346-11.181 48.654-11.181 71 0 22.346 11.181 48.654 11.181 71 0 22.346-11.181 48.654-11.181 71 0 22.346 11.181 48.654 11.181 71 0 22.346-11.181 48.654-11.181 71 0v76.192h-497z" fill="#5bd6fd"/><path d="m162.08 373.757v16.606c0 4.143 3.358 7.5 7.5 7.5s7.5-3.357 7.5-7.5v-16.606c0-4.142-3.358-7.5-7.5-7.5s-7.5 3.358-7.5 7.5z"/><path d="m334.92 373.757v16.606c0 4.143 3.358 7.5 7.5 7.5 4.143 0 7.5-3.357 7.5-7.5v-16.606c0-4.142-3.357-7.5-7.5-7.5-4.142 0-7.5 3.358-7.5 7.5z"/><path d="m273.13 384.942c-9.073 10.41-25.197 10.398-34.26 0-2.721-3.123-7.459-3.448-10.582-.727s-3.448 7.459-.727 10.582c15.051 17.27 41.842 17.252 56.877 0 2.721-3.123 2.396-7.86-.727-10.582-3.122-2.721-7.859-2.396-10.581.727z"/><path d="m7.5 511.575h497c4.142 0 7.5-3.358 7.5-7.5v-76.192c0-2.84-1.604-5.437-4.144-6.707-12.094-6.052-25.356-9.092-38.624-9.127-10.374-17.854-28.316-34.626-52.223-48.733-3.567-2.105-8.166-.919-10.271 2.648s-.92 8.166 2.648 10.271c18.913 11.16 33.585 23.923 43.042 37.353-7.913 1.531-15.594 4.243-22.259 7.576-.142.033-30.56 16.901-64.314.012-25.006-12.503-54.078-11.823-77.712 0-20.127 10.071-44.16 10.071-64.288 0-24.308-12.157-53.361-12.184-77.712 0-18.463 9.239-40.75 10.209-60.47 1.771-4.259-1.823-12.586-6.745-26.109-9.36 45.02-64.056 200.235-103.777 324.232-50.279 3.803 1.641 8.217-.112 9.858-3.915s-.112-8.217-3.915-9.857c-54.348-23.448-119.216-30.797-179.488-23.224-2.592-24.991.233-50.484 6.69-74.357 0 0 0 0 0-.001s0 0 0-.001c1.401-5.183 2.973-10.24 4.673-15.135 1.275.316 2.565.574 3.866.771 17.776 21.952 44.147 34.839 72.876 35.477.159.003.317.005.477.005 8.867 0 16.871-5.511 20.018-13.836 10.915-28.885 7.469-61.179-9.162-86.726 29.775-6.814 54.727-27.686 66.942-56.115 3.535-8.226 1.5-17.845-5.063-23.936h.001c-37.969-35.238-96.686-34.547-133.171 1.938-.258-13.711-3.438-27.257-9.361-39.591-1.793-3.734-6.273-5.308-10.008-3.514-3.734 1.793-5.307 6.273-3.514 10.007 4.813 10.023 7.486 21.002 7.865 32.144-18.42-.29-35.659 11.516-41.666 29.653-40.605-17.09-59.318-62.944-43.98-103.533.957-2.534 3.404-4.196 6.129-4.136 21.258.472 41.114 8.871 55.912 23.647 2.931 2.927 7.68 2.923 10.606-.007 2.927-2.931 2.924-7.68-.007-10.607-17.541-17.516-41.044-27.471-66.179-28.029-9.078-.204-17.292 5.357-20.494 13.831-10.915 28.885-7.469 61.179 9.162 86.726-29.626 6.781-54.52 27.518-66.786 55.754-3.671 8.451-1.583 18.321 5.195 24.562 10.713 9.864 23.338 17.027 36.819 21.25-1.58 2.394-3.368 5.225-5.306 8.509v.001c-30.356 51.474-42.165 115.462-39.53 175.638-8.405 7.936-15.325 16.423-20.494 25.348-13.266.036-26.524 3.076-38.617 9.126-2.54 1.272-4.144 3.868-4.144 6.708v76.192c0 4.142 3.357 7.5 7.5 7.5zm82.172-230.525c6.222-22.222 13.956-39.883 20.648-52.67 5.682 6.189 12.003 11.419 18.484 15.62h.001c21.255 13.786 46.252 17.987 70.925 15.147-2.833 12.805-4.569 25.585-5.184 38.165-39.955 11.416-79.303 2.284-104.874-16.262zm118.181-50.365c-1.466 4.146-2.836 8.409-4.102 12.756-32.891 5.398-65.276-3.249-85.526-28.911 2.26-3.622 4.185-6.426 5.59-8.382 10.376 1.42 20.786 1.013 30.06-.697 11.681 7.171 25.453 8.07 37.353 3.749 3.068 8.865 9.119 16.434 16.625 21.485zm29.765-118.002c14.016 8.676 17.806 27.545 7.703 40.977-9.372-3.037-19.374-2.658-28.088.505-3.75-10.728-11.543-19.492-21.811-24.48 4.794-18.376 25.954-27.062 42.196-17.002zm-1.159 110.034c-14.623 2.331-28.455-7.021-31.901-21.313 9.374-8.024 14.874-19.669 15.111-31.987 22.158-10.812 46.421 10.169 39.418 33.485-3.099 10.303-11.819 18.095-22.628 19.815zm-51.608-81.133c.001 0 .001 0 0 0 22.671 7.106 26.941 37.158 7.384 50.382-17.192 11.623-40.483 1.258-43.703-18.977-3.278-20.601 16.259-37.689 36.319-31.405zm119.968 112.348c-.958 2.535-3.416 4.196-6.13 4.137-20.521-.456-39.608-8.285-54.08-21.871 26.55-8.08 38.9-38.991 24.767-63.167 7.809 1.597 15.645 2.191 23.549 1.801 17.638 22.401 21.954 52.476 11.894 79.1zm56.545-150.479c1.925 1.786 2.521 4.607 1.484 7.019-17.119 39.841-61.264 58.84-101.084 44.908 8.347-17.392 4.275-38.81-11.256-51.85 30.935-29.365 79.376-29.293 110.856-.077zm-281.529 59.265c11.247-25.89 35.184-44.597 63.472-48.403 5.043 5.388 10.658 10.133 16.773 14.179-25.049 10.17-34.615 40.781-20.064 63.435-21.299.846-42.478-6.832-58.583-21.66-2.084-1.919-2.726-4.954-1.598-7.551zm5.935 133.824c29.807 19.103 68.556 26.145 108.592 16.318.138 5.251.48 10.451 1.026 15.569-40.464 6.774-84.599 21.799-117.489 46.081-.345-26.981 2.291-53.109 7.871-77.968zm-70.77 136.14c18.496-7.809 39.297-7.312 56.619.266 4.91 2.128 15.354 8.422 33.293 10.293 16.541 1.721 33.222-1.284 47.943-8.65 20.074-10.045 44.123-10.089 64.288 0 24.316 12.158 53.377 12.176 77.712 0 2.403-1.203 4.863-2.257 7.365-3.172 18.447-6.75 39.199-5.696 56.923 3.172 24.316 12.158 53.377 12.176 77.712 0 18.648-9.336 40.832-10.062 60.144-1.909v63.894h-481.999z"/></svg>