<svg id="Capa_1" enable-background="new 0 0 512.114 512.114" height="512" viewBox="0 0 512.114 512.114" width="512" xmlns="http://www.w3.org/2000/svg"><path d="m301.253 137.299s-129.84-181.296-293.696-36.991v142.719l146.552 52.962z" fill="#f8e86a"/><path d="m7.557 124.641c50.393-58.164 118.021-69.911 170.549-74.653-47.88-12.716-106.625-5.975-170.549 50.32v24.333z" fill="#fab659"/><path d="m116.848 277.804c29.549-45.294 168.926-158.27 255.081-158.27s132.627 78.372 132.627 78.372v129.941l-77.984 67.454-188.363 35.686z" fill="#f8e86a"/><path d="m156.848 277.804c27.478-42.119 149.918-142.746 236.227-156.649-6.76-1.041-13.805-1.622-21.146-1.622-86.155 0-225.532 112.977-255.081 158.271z" fill="#fab659"/><path d="m504.557 351.503v116.077h-97.798l19.814-72.279z" fill="#80dfb5"/><path d="m116.848 457.329-17.336 10.251h-91.955v-171.592c38.527 41.809 82.888 98.663 109.291 161.341z" fill="#36d39a"/><path d="m166.005 266.11c51.758 14.522 105.797 38.178 144.412 76.724l-52.68 31.16z" fill="#00c071"/><path d="m189.37 414.434-72.521 42.895-109.292-161.341v-52.962s16.715.01 42.924 2.388l103.627 50.574 24.794 46.788z" fill="#00c071"/><path d="m257.736 373.994-68.367 40.44c-42.556-75.53-105.127-138.18-138.888-169.019 29.791 2.689 71.851 8.435 115.523 20.695 26.88 26.413 61.456 63.931 91.732 107.884z" fill="#36d39a"/><path d="m459.002 323.023c-22.54-.835-52.379-.01-87.072 5.611l-71.566 36.819-62.153 65.536 8.926 36.592h79.811z" fill="#80dfb5"/><path d="m167.325 467.58h-67.813c50.777-47.827 102.215-80.287 150.624-102.128z" fill="#80dfb5"/><path d="m504.557 327.847v23.656c-28.558 25.704-68.92 66.872-97.798 116.077h-79.811c47.458-80.86 125.92-139.995 132.054-144.557h.01c28.684 1.067 45.545 4.824 45.545 4.824z" fill="#36d39a"/><path d="m371.93 328.633c-21.647 17.133-84.441 70.182-124.794 138.946h-79.811c24.112-41.09 56.252-76.569 82.811-102.128h.01c44.03-19.879 85.557-30.964 121.784-36.818z" fill="#36d39a"/><g fill="#ffa0ab"><ellipse cx="55.59" cy="142.285" rx="27.595" ry="21.975"/><ellipse cx="205.165" cy="142.285" rx="27.595" ry="21.975"/><ellipse cx="265.926" cy="250.131" rx="33.383" ry="26.584"/><ellipse cx="446.871" cy="250.131" rx="33.383" ry="26.584"/></g><path d="m71.615 128.634c4.142 0 7.5-3.358 7.5-7.5v-11.28c0-4.142-3.358-7.5-7.5-7.5s-7.5 3.358-7.5 7.5v11.28c0 4.142 3.358 7.5 7.5 7.5z"/><path d="m189.026 128.634c4.142 0 7.5-3.358 7.5-7.5v-11.28c0-4.142-3.358-7.5-7.5-7.5s-7.5 3.358-7.5 7.5v11.28c0 4.142 3.358 7.5 7.5 7.5z"/><path d="m151.452 125.725c2.721-3.123 2.396-7.86-.727-10.582-3.122-2.721-7.86-2.396-10.582.727-5.193 5.96-14.438 5.977-19.646 0-2.722-3.123-7.459-3.448-10.582-.727s-3.448 7.459-.727 10.582c11.184 12.832 31.094 12.818 42.264 0z"/><path d="m285.324 203.396c-4.142 0-7.5 3.358-7.5 7.5v13.646c0 4.142 3.358 7.5 7.5 7.5s7.5-3.358 7.5-7.5v-13.646c0-4.142-3.358-7.5-7.5-7.5z"/><path d="m427.359 232.042c4.142 0 7.5-3.358 7.5-7.5v-13.646c0-4.142-3.358-7.5-7.5-7.5s-7.5 3.358-7.5 7.5v13.646c0 4.142 3.358 7.5 7.5 7.5z"/><path d="m380.719 229.064c2.721-3.123 2.396-7.86-.727-10.582-3.123-2.721-7.86-2.396-10.582.727-6.909 7.928-19.21 7.951-26.138 0-2.723-3.123-7.46-3.447-10.582-.726-3.123 2.721-3.448 7.459-.727 10.582 12.878 14.773 35.843 14.817 48.756-.001z"/><path d="m7.5 475.082h497c4.142 0 7.5-3.358 7.5-7.5 0-289.84.623-270.679-1.049-273.499-.5-.842-12.494-20.855-35.517-41.005-30.68-26.85-66.491-41.042-103.562-41.042-21.646 0-45.375 6.62-68.261 16.09-5.97-7.5-19.014-22.758-37.95-38.758-34.652-29.279-72.759-47.011-110.201-51.278-52.087-5.935-103.537 13.105-152.917 56.592-1.616 1.424-2.543 3.475-2.543 5.629v367.271c0 4.142 3.358 7.5 7.5 7.5zm39.728-222.419c16.865 15.552 33.281 31.918 49.335 49.393 5.974 6.505 16.459-1.441 11.958-8.929-.515-.857-.694-1.019-5.36-6.02-13.494-14.469-22.402-23.097-31.333-31.865 30.772 3.794 61.297 9.578 90.251 17.591 27.474 27.099 54.632 57.786 77.757 89.082-19.191 9.006-38.231 19.532-55.117 30.09-17.035-27.408-37.043-53.965-57.569-78.032-2.35-2.757-6.384-3.474-9.568-1.555-4.036 2.432-4.81 7.811-1.847 11.287 20.429 23.968 39.807 49.754 56.37 76.432-18.037 11.981-36.637 25.95-54.316 40.978-25.04-53.825-62.724-104.257-102.789-148.045v-42.38c9.964.339 20.127.926 32.228 1.973zm221.827 66.426c9.37 6.18 18.378 12.976 26.852 20.473-13.224 4.349-27.965 9.921-42.088 16.047-17.222-23.571-38.577-49.229-61.574-73.411 20.094 7.002 55.292 22.688 76.81 36.891zm168.7 11.197c-23.646 19.672-47.492 42.656-68.237 66.364-3.63 4.148-1.68 10.723 3.689 12.172 2.969.799 5.874-.323 7.6-2.295 24.665-28.187 55.041-56.453 80.515-75.9 11.489.522 24.334 1.607 35.678 3.475v14.075c-35.692 32.519-70.059 71.182-94.563 111.905h-62.149c6.879-10.776 14.327-21.224 21.876-30.96 2.538-3.273 1.941-7.985-1.332-10.522-3.274-2.538-7.984-1.941-10.522 1.332-9.846 12.699-19.478 26.555-27.683 40.151h-62.153c29.23-45.878 71.968-90.446 114.519-124.342 24.879-3.931 41.449-4.778 62.762-5.455zm-194.941 129.796h-62.149c20.399-32.01 46.155-61.711 73.673-88.305 11.323-4.647 41.969-19.251 90.409-30.227-38.229 33.667-75.413 74.557-101.933 118.532zm-79.811 0h-44.189c30.135-26.635 61.72-49.176 94.96-67.848-18.691 20.881-36.302 43.842-50.771 67.848zm-148.003-144.545c35.472 40.347 68.788 86.702 91.002 135.858-2.875 2.57-7.116 6.451-9.512 8.687h-81.49zm405.099 144.545c21.009-32.957 48.452-64.381 76.901-91.412v91.412zm45.091-296.034c17.687 15.395 28.541 31.014 31.81 36.03v118.831c-49.848-7.572-116.349-4.225-184.532 15.5-39.841-37.668-91.91-60.765-144.492-75.517h-.001c-6.767-1.9-14.189-3.815-20.602-5.355 49.14-49.264 155.229-126.5 224.499-126.5 33.707-.001 65.103 12.452 93.318 37.011zm-450.19-60.324c45.246-38.98 91.888-56.047 138.686-50.739 68.434 7.764 119.167 61.657 135.667 81.434-55.457 25.989-120.106 73.941-159.147 115.258-28.831-6.043-50.652-8.836-79.103-11.729-.001 0-.002 0-.003 0-13.532-1.226-25.096-1.906-36.099-2.271v-131.953z"/></svg>