<svg id="Capa_1" enable-background="new 0 0 512 512" height="512" viewBox="0 0 512 512" width="512" xmlns="http://www.w3.org/2000/svg"><path d="m359.203 231.592h43.159v79.335h-43.159z" fill="#de8957"/><path d="m359.203 231.592h43.159v42.705h-43.159z" fill="#c76d33"/><path d="m491.438 239.767c-30.426-23.386-47.828-63.116-47.828-63.116h26.701c4.976 0 7.2-6.189 3.405-9.407-33.857-28.702-49.4-66.454-49.4-66.454h26.673c5.102 0 7.287-6.489 3.211-9.558-25.47-19.177-51.368-46.287-66.363-67.522-3.442-4.874-10.669-4.874-14.111 0-14.995 21.235-40.892 48.345-66.363 67.522-4.076 3.069-1.891 9.558 3.211 9.558h26.673s-15.543 37.751-49.4 66.454c-3.796 3.218-1.571 9.407 3.405 9.407h26.701s-17.401 39.73-47.828 63.116c-4.028 3.096-1.84 9.53 3.24 9.53h214.832c5.081 0 7.269-6.435 3.241-9.53z" fill="#36d39a"/><path d="m387.838 23.711c-3.442-4.874-10.669-4.874-14.111 0-14.995 21.235-40.892 48.345-66.363 67.522-4.076 3.069-1.891 9.558 3.211 9.558h26.673s-15.543 37.751-49.4 66.454c-3.796 3.218-1.571 9.407 3.405 9.407h26.701s-17.401 39.73-47.828 63.116c-4.028 3.096-1.84 9.53 3.24 9.53h68.218c-58.691-65.77 46.254-225.587 46.254-225.587z" fill="#00c071"/><path d="m109.638 231.592h43.159v79.335h-43.159z" fill="#de8957"/><path d="m7.5 355.562v-61.192h497v61.192l-105.692 44.854h-327.145z" fill="#36d39a"/><path d="m7.5 294.37h30v61.192h-30z" fill="#00c071"/><path d="m504.5 423.753v-68.192c-22.346-11.181-48.654-11.181-71 0-22.346 11.181-48.654 11.181-71 0-22.346-11.181-48.654-11.181-71 0-22.346 11.181-48.654 11.181-71 0-22.346-11.181-48.654-11.181-71 0-22.346 11.181-48.654 11.181-71 0-22.346-11.181-48.654-11.181-71 0v68.192l44.591 29.903h398.446z" fill="#a4e6ff"/><path d="m37.5 435.99v-88.615c-10.31.716-20.512 3.44-30 8.187v68.191l44.591 29.903h2.691z" fill="#5bd6fd"/><path d="m7.5 423.753c22.346-11.181 48.654-11.181 71 0 22.346 11.181 48.654 11.181 71 0 22.346-11.181 48.654-11.181 71 0 22.346 11.181 48.654 11.181 71 0 22.346-11.181 48.654-11.181 71 0 22.346 11.181 48.654 11.181 71 0 22.346-11.181 48.654-11.181 71 0v68.192h-497z" fill="#5bd6fd"/><path d="m37.5 415.567c-10.31.716-20.512 3.439-30 8.187v68.192h30z" fill="#00b4fb"/><path d="m109.638 231.592h43.159v42.705h-43.159z" fill="#c76d33"/><path d="m241.874 239.767c-30.426-23.386-47.828-63.116-47.828-63.116h26.701c4.976 0 7.2-6.189 3.405-9.407-33.857-28.702-49.4-66.454-49.4-66.454h26.673c5.102 0 7.287-6.489 3.211-9.558-25.47-19.177-51.368-46.287-66.363-67.522-3.442-4.874-10.669-4.874-14.111 0-14.995 21.236-40.892 48.346-66.362 67.522-4.076 3.069-1.891 9.558 3.211 9.558h26.673s-15.543 37.751-49.4 66.454c-3.796 3.218-1.571 9.407 3.405 9.407h26.701s-17.401 39.73-47.828 63.116c-4.028 3.096-1.84 9.53 3.24 9.53h214.832c5.08 0 7.267-6.435 3.24-9.53z" fill="#36d39a"/><path d="m138.273 23.711c-3.442-4.874-10.669-4.874-14.111 0-14.994 21.234-40.892 48.345-66.362 67.522-4.076 3.069-1.891 9.558 3.211 9.558h26.673s-15.543 37.751-49.4 66.454c-3.796 3.218-1.571 9.407 3.405 9.407h26.701s-17.401 39.73-47.828 63.116c-4.028 3.096-1.84 9.53 3.24 9.53h68.218c-58.691-65.77 46.253-225.587 46.253-225.587z" fill="#00c071"/><path d="m77.02 196.243v8.974c0 4.142 3.358 7.5 7.5 7.5s7.5-3.358 7.5-7.5v-8.974c0-4.142-3.358-7.5-7.5-7.5s-7.5 3.358-7.5 7.5z"/><path d="m185.416 205.217v-8.974c0-4.142-3.358-7.5-7.5-7.5s-7.5 3.358-7.5 7.5v8.974c0 4.142 3.358 7.5 7.5 7.5s7.5-3.358 7.5-7.5z"/><path d="m149.184 209.877c2.721-3.123 2.396-7.86-.727-10.582-3.123-2.721-7.86-2.396-10.582.727-3.528 4.048-9.79 4.045-13.315 0-2.722-3.123-7.459-3.448-10.582-.727-3.123 2.722-3.448 7.459-.727 10.582 9.507 10.909 26.436 10.898 35.933 0z"/><path d="m427.48 188.743c-4.142 0-7.5 3.358-7.5 7.5v8.974c0 4.142 3.358 7.5 7.5 7.5s7.5-3.358 7.5-7.5v-8.974c0-4.142-3.358-7.5-7.5-7.5z"/><path d="m334.084 188.743c-4.142 0-7.5 3.358-7.5 7.5v8.974c0 4.142 3.358 7.5 7.5 7.5s7.5-3.358 7.5-7.5v-8.974c0-4.142-3.358-7.5-7.5-7.5z"/><path d="m398.021 199.296c-3.123-2.721-7.86-2.396-10.582.727-3.528 4.048-9.79 4.045-13.315 0-2.722-3.123-7.459-3.448-10.582-.727-3.123 2.722-3.448 7.459-.727 10.582 9.506 10.909 26.435 10.898 35.932 0 2.722-3.123 2.397-7.861-.726-10.582z"/><path d="m7.5 499.441h397.117c4.142 0 7.5-3.358 7.5-7.5s-3.358-7.5-7.5-7.5h-389.617v-55.888c18.759-7.98 41.095-7.621 60.144 1.904 24.33 12.174 53.382 12.174 77.712 0 20.128-10.07 44.16-10.07 64.288 0 24.33 12.174 53.382 12.174 77.712 0 20.128-10.07 44.16-10.07 64.288 0 22.691 11.36 49.661 12.172 73.097 2.14 3.862-1.652 4.547-2.21 7.975-3.706 17.805-7.761 38.629-8.061 56.784-.338v55.888h-62.383c-4.142 0-7.5 3.358-7.5 7.5s3.358 7.5 7.5 7.5h69.883c4.142 0 7.5-3.358 7.5-7.5v-68.191c0-16.564 0-115.727 0-129.383 0-4.142-3.358-7.5-7.5-7.5h-94.638v-30.073h78.336c12.254 0 17.508-15.522 7.811-22.977-19.182-14.744-33.102-36.754-40.198-49.67h14.501c11.95 0 17.373-14.897 8.254-22.628-21.46-18.193-35.364-40.455-42.229-53.232h14.652c12.331 0 17.528-15.668 7.722-23.049-23.3-17.543-49.319-44.008-64.747-65.857-6.424-9.096-19.94-9.095-26.364 0-15.428 21.848-41.447 48.313-64.747 65.856-9.813 7.388-4.601 23.05 7.722 23.05h14.668c-6.841 12.756-20.711 34.977-42.246 53.233-9.119 7.731-3.693 22.627 8.255 22.627h14.512c-7.078 12.902-20.974 34.885-40.209 49.67-9.715 7.468-4.421 22.977 7.811 22.977h78.337v30.073h-191.406v-30.073h78.336c12.256 0 17.506-15.524 7.811-22.977-19.18-14.742-33.102-36.753-40.198-49.67h14.5c11.949 0 17.373-14.897 8.255-22.628-21.46-18.193-35.364-40.455-42.23-53.232h14.653c12.321 0 17.535-15.661 7.722-23.049-23.299-17.542-49.319-44.007-64.748-65.856-6.423-9.095-19.939-9.097-26.363 0-3.105 4.396-6.723 9.091-10.753 13.953-2.643 3.189-2.201 7.917.988 10.561s7.917 2.201 10.561-.988c4.275-5.158 8.13-10.162 11.457-14.873.451-.639 1.406-.639 1.857 0 15.369 21.764 39.584 46.828 62.883 65.253h-20.277c-5.333 0-8.966 5.423-6.935 10.355.635 1.542 15.306 36.595 47.139 65.505h-20.91c-5.402 0-9.039 5.556-6.87 10.509.704 1.606 16.73 37.701 45.302 62.138-31.312 0-152.809 0-202.521 0 28.572-24.437 44.599-60.532 45.302-62.138 2.167-4.948-1.463-10.509-6.87-10.509h-20.91c31.833-28.909 46.504-63.963 47.139-65.505 2.03-4.931-1.602-10.355-6.935-10.355h-20.276c10.261-8.118 20.881-17.672 31.007-27.913 2.913-2.945 2.886-7.694-.06-10.606-2.946-2.913-7.694-2.886-10.606.06-11.31 11.437-23.225 21.953-34.458 30.41-9.813 7.387-4.601 23.049 7.722 23.049h14.653c-6.867 12.779-20.77 35.04-42.229 53.232-9.118 7.729-3.697 22.628 8.254 22.628h14.512c-7.078 12.902-20.974 34.885-40.209 49.67-4.423 3.399-6.121 9.006-4.326 14.286 1.794 5.28 6.558 8.691 12.136 8.691h78.336v30.073h-94.638c-4.142 0-7.5 3.358-7.5 7.5v129.383 68.191c0 4.141 3.358 7.499 7.5 7.499zm267.197-253.731c.001-.001.004-.003.006-.005-.002.001-.004.003-.006.005zm50.127-66.054c2.167-4.948-1.463-10.509-6.87-10.509h-20.91c31.834-28.909 46.504-63.963 47.139-65.505 2.03-4.931-1.602-10.355-6.935-10.355h-20.278c23.299-18.426 47.516-43.491 62.883-65.253.452-.64 1.408-.639 1.858 0 15.367 21.763 39.583 46.828 62.882 65.254h-20.277c-5.333 0-8.966 5.423-6.935 10.355.635 1.542 15.305 36.596 47.139 65.505h-20.91c-5.402 0-9.039 5.556-6.87 10.509.704 1.606 16.73 37.701 45.302 62.138h-202.521c28.572-24.438 44.599-60.533 45.303-62.139zm41.032 237.387c-24.306-12.168-53.387-12.178-77.712 0-20.128 10.07-44.16 10.07-64.288 0-24.33-12.174-53.382-12.174-77.712 0-20.128 10.07-44.16 10.07-64.288 0-19.984-10.007-44.367-12.185-66.856-4.529v-52.153c20.245-8.462 42.19-7.073 60.144 1.904 24.33 12.174 53.382 12.174 77.712 0 20.128-10.071 44.16-10.071 64.288 0 24.33 12.174 53.382 12.174 77.712 0 20.128-10.071 44.16-10.071 64.288 0 23.821 11.926 52.892 12.419 77.712 0 18.404-9.206 40.355-10.176 60.144-1.904v52.153c-21.88-7.448-46.245-5.787-66.856 4.529-20.128 10.07-44.16 10.07-64.288 0zm.847-160.249h28.159v30.073h-28.159zm-249.565 0h28.159v30.073h-28.159zm-102.138 45.072h482v42.456c-22.768-7.668-46.902-5.456-66.856 4.529-20.128 10.07-44.161 10.07-64.288 0-24.297-12.161-53.377-12.183-77.712 0-20.128 10.07-44.161 10.07-64.288 0-24.33-12.174-53.382-12.174-77.712 0-20.128 10.07-44.161 10.07-64.288 0-20.148-10.087-44.36-12.127-66.856-4.529v-42.456z"/></svg>