<svg id="Capa_1" enable-background="new 0 0 512 512" height="512" viewBox="0 0 512 512" width="512" xmlns="http://www.w3.org/2000/svg"><path d="m414.592 205.502c42.612 0 77.281-34.668 77.281-77.281 0-12.062-9.778-21.841-21.841-21.841s-21.841 9.779-21.841 21.841c0 18.527-15.072 33.599-33.599 33.599-12.063 0-21.841 9.779-21.841 21.841.001 12.063 9.779 21.841 21.841 21.841z" fill="#00c071"/><path d="m175.492 296.77c37.638 0 68.26-30.621 68.26-68.26 0-10.654-8.637-19.291-19.291-19.291s-19.291 8.637-19.291 19.291c0 16.364-13.313 29.677-29.677 29.677-10.655 0-19.291 8.637-19.291 19.291-.002 10.656 8.635 19.292 19.29 19.292z" fill="#00c071"/><path d="m377.88 66.039c-25.774 0-46.667 20.894-46.667 46.667v236.072h93.334v-236.072c0-25.773-20.894-46.667-46.667-46.667z" fill="#36d39a"/><path d="m377.88 66.039c-25.773 0-46.667 20.894-46.667 46.667v105.851c-13.682-4.252-23.645-17.031-23.645-32.094 0-12.062-9.778-21.841-21.841-21.841s-21.841 9.779-21.841 21.841c0 39.238 29.402 71.716 67.327 76.618v85.697h30v-236.072c0-20.524 13.255-37.94 31.667-44.189-4.71-1.598-9.751-2.478-15-2.478z" fill="#00c071"/><path d="m143.064 168.413c22.765 0 41.219 18.455 41.219 41.219v153.413h-82.439v-153.412c.001-22.765 18.456-41.22 41.22-41.22z" fill="#36d39a"/><path d="m143.065 168.413c-22.765 0-41.219 18.455-41.219 41.22v32.344c-12.086-3.757-20.886-15.043-20.886-28.348 0-10.654-8.637-19.292-19.291-19.292-10.655 0-19.291 8.637-19.291 19.292 0 34.658 25.97 63.344 59.467 67.674v81.742h30v-153.412c0-17.471 10.874-32.392 26.219-38.392-4.65-1.819-9.705-2.828-14.999-2.828z" fill="#00c071"/><path d="m256 370.294c72.246-31.483 130.696-66.282 248.5-66.282v116.032l-72.216 32.57h-176.284z" fill="#fab659"/><path d="m7.5 304.013c215.113 0 232.317 116.032 497 116.032v80.359h-497z" fill="#f8e86a"/><ellipse cx="77.64" cy="447.001" fill="#ffa0ab" rx="34.748" ry="27.671"/><ellipse cx="265.983" cy="446.823" fill="#ffa0ab" rx="34.748" ry="27.671"/><ellipse cx="171.799" cy="434.06" fill="#77718c" rx="15.545" ry="17.827"/><circle cx="100.116" cy="77.16" fill="#f8e86a" r="37.345"/><path d="m120.116 94.505c-20.625 0-37.345-16.72-37.345-37.345 0-5.122 1.033-10.002 2.899-14.446-13.451 5.648-22.899 18.943-22.899 34.446 0 20.625 16.72 37.345 37.345 37.345 15.503 0 28.798-9.448 34.446-22.899-4.445 1.866-9.325 2.899-14.446 2.899z" fill="#fab659"/><path d="m114.877 406.512c-3.124-2.718-7.862-2.389-10.581.737-3.394 3.902-9.451 3.947-12.888.012-2.724-3.12-7.462-3.441-10.583-.717-3.12 2.725-3.441 7.462-.716 10.583 4.478 5.128 10.941 8.067 17.737 8.067.154-.034 10.292.493 17.767-8.101 2.72-3.125 2.389-7.862-.736-10.581z"/><path d="m262.718 406.372c-3.125-2.718-7.862-2.389-10.581.737-2.753 3.165-6.549 2.967-6.449 2.945-2.464 0-4.81-1.069-6.438-2.933-2.724-3.12-7.462-3.441-10.583-.716-3.12 2.724-3.441 7.462-.716 10.582 7.561 8.66 17.859 8.09 17.759 8.067 6.805-.006 13.273-2.959 17.745-8.101 2.719-3.125 2.389-7.862-.737-10.581z"/><path d="m171.795 408.733c-.007 0-.014 0-.021 0-20.346.019-30.524 26.942-16.604 42.878 7.353 8.416 16.752 7.799 16.652 7.777 6.352-.006 12.261-2.779 16.638-7.808 13.939-16.018 3.621-42.847-16.665-42.847zm.013 35.655c-.002 0-.003 0-.006 0-3.845-.001-8.042-4.006-8.048-10.32-.005-5.598 3.674-10.331 8.035-10.334h.006c3.845 0 8.043 4.006 8.049 10.32.006 6.348-4.216 10.33-8.036 10.334z"/><path d="m144.96 77.16c0-24.728-20.117-44.845-44.845-44.845s-44.844 20.117-44.844 44.845 20.117 44.845 44.845 44.845 44.844-20.118 44.844-44.845zm-44.845 29.845c-16.457 0-29.845-13.388-29.845-29.845s13.388-29.845 29.845-29.845 29.845 13.388 29.845 29.845-13.388 29.845-29.845 29.845z"/><path d="m100.115 29.431c4.142 0 7.5-3.357 7.5-7.5v-10.334c0-4.142-3.358-7.5-7.5-7.5s-7.5 3.358-7.5 7.5v10.334c0 4.142 3.358 7.5 7.5 7.5z"/><path d="m144.471 43.41 7.307-7.307c2.929-2.929 2.929-7.678 0-10.607s-7.678-2.929-10.606 0l-7.307 7.307c-2.929 2.929-2.929 7.678 0 10.607 2.927 2.929 7.677 2.93 10.606 0z"/><path d="m147.844 77.16c0 4.142 3.358 7.5 7.5 7.5h10.334c4.142 0 7.5-3.358 7.5-7.5s-3.358-7.5-7.5-7.5h-10.334c-4.142 0-7.5 3.358-7.5 7.5z"/><path d="m141.172 128.823c1.464 1.464 3.384 2.197 5.303 2.197 6.622 0 10.042-8.066 5.303-12.803l-7.307-7.308c-2.929-2.929-7.678-2.929-10.606 0-2.929 2.929-2.929 7.678 0 10.606z"/><path d="m92.615 132.389v10.334c0 4.142 3.358 7.5 7.5 7.5s7.5-3.358 7.5-7.5v-10.334c0-4.142-3.358-7.5-7.5-7.5s-7.5 3.358-7.5 7.5z"/><path d="m55.759 110.909-7.308 7.307c-2.929 2.929-2.929 7.678 0 10.607 1.464 1.464 3.384 2.197 5.303 2.197s3.839-.732 5.303-2.197l7.308-7.308c2.929-2.929 2.929-7.677 0-10.606-2.927-2.928-7.677-2.929-10.606 0z"/><path d="m34.552 84.66h10.334c4.142 0 7.5-3.358 7.5-7.5s-3.358-7.5-7.5-7.5h-10.334c-4.142 0-7.5 3.358-7.5 7.5s3.358 7.5 7.5 7.5z"/><path d="m55.759 43.411c1.464 1.464 3.384 2.196 5.303 2.196 6.622 0 10.042-8.066 5.303-12.803l-7.308-7.308c-2.929-2.929-7.678-2.929-10.606 0-2.929 2.929-2.929 7.678 0 10.606z"/><path d="m512 500.403c0-9.829 0-189.761 0-196.39 0-4.142-3.358-7.5-7.5-7.5-26.95 0-50.81 1.784-72.454 4.909v-90.271c38.813-8.148 67.327-42.684 67.327-82.93 0-16.179-13.162-29.341-29.341-29.341s-29.341 13.162-29.341 29.341c0 7.621-3.258 14.579-8.645 19.408v-34.923c0-29.868-24.299-54.167-54.167-54.167s-54.167 24.299-54.167 54.167v16.485c0 4.142 3.358 7.5 7.5 7.5s7.5-3.358 7.5-7.5v-16.485c0-21.597 17.57-39.167 39.167-39.167s39.167 17.57 39.167 39.167v191.154c-29.367 5.317-54.653 13.146-78.334 22.234 0-37.252 0-134.529 0-166.945 0-4.142-3.358-7.5-7.5-7.5s-7.5 3.358-7.5 7.5v46.722c-5.387-4.83-8.645-11.787-8.645-19.408 0-16.179-13.162-29.341-29.341-29.341s-29.341 13.162-29.341 29.341c0 40.246 28.514 74.781 67.327 82.93v62.693c-14.306 5.924-28.203 12.226-42.278 18.609-8.276 3.754-16.811 7.618-25.438 11.408-21.843-9.592-42.523-19.447-64.212-28.559v-31.068c34.329-7.544 59.467-38.241 59.467-73.965 0-14.773-12.019-26.792-26.791-26.792-14.773 0-26.792 12.019-26.792 26.792 0 5.753-2.188 11.061-5.885 15.053v-33.931c0-26.864-21.855-48.72-48.719-48.72s-48.72 21.855-48.72 48.72v18.957c-3.671-4.017-5.885-9.328-5.885-14.96 0-14.772-12.019-26.791-26.791-26.791-14.773 0-26.792 12.019-26.792 26.791 0 35.724 25.139 66.421 59.467 73.966v16.156c-25.37-4.555-53.784-7.238-86.845-7.238-4.142 0-7.5 3.358-7.5 7.5v196.39c0 4.142 3.358 7.5 7.5 7.5h497c4.144-.001 7.502-3.359 7.502-7.501zm-56.309-372.182c0-7.908 6.433-14.341 14.341-14.341s14.341 6.433 14.341 14.341c0 32.051-21.966 59.716-52.327 67.549v-30.331c14.345-6.691 23.645-21.023 23.645-37.218zm-184.305 58.242c0-7.908 6.433-14.341 14.341-14.341s14.341 6.433 14.341 14.341c0 16.195 9.3 30.528 23.645 37.218v30.331c-30.361-7.833-52.327-35.498-52.327-67.549zm-58.718 42.048c0-6.502 5.29-11.792 11.792-11.792 6.501 0 11.791 5.29 11.791 11.792 0 27.521-18.6 51.328-44.467 58.522v-25.096c12.69-6.149 20.884-18.966 20.884-33.426zm-162.791-14.882c0-6.501 5.29-11.791 11.792-11.791 6.501 0 11.791 5.29 11.791 11.791 0 14.459 8.196 27.277 20.885 33.427v25.096c-25.867-7.195-44.468-31.001-44.468-58.523zm59.468-3.996c0-18.593 15.126-33.72 33.72-33.72 18.593 0 33.719 15.126 33.719 33.72v117.817c-20.759-8.125-42.672-15.318-67.439-20.72 0-9.669 0-84.173 0-97.097zm387.655 283.27h-482v-181.342c173.275 2.257 214.641 82.755 380.476 108.245 4.686.724 8.87-3.03 8.639-7.781-.163-3.387-2.498-6.446-6.841-7.122-44.773-6.966-82.549-18.301-122.439-34.759 67.867-30.525 120.973-57.264 222.165-58.582v100.939c-44.277-.413-68.72-3.805-70.805-3.805-4.151 0-7.617 3.4-7.489 7.75.127 3.835 3.081 6.844 6.71 7.222 23.02 2.404 48.067 3.643 71.583 3.845v65.39z"/></svg>