<svg id="Capa_1" enable-background="new 0 0 512 512" height="512" viewBox="0 0 512 512" width="512" xmlns="http://www.w3.org/2000/svg"><path d="m246.157 100.638c-1.499-32.03-27.699-57.871-59.746-58.96-23.017-.782-43.343 10.994-54.663 29.003-2.761 4.393-7.813 6.829-12.935 5.995-2.212-.36-4.503-.484-6.847-.345-15.022.89-27.356 12.84-28.755 27.823-.088.937-.132 1.866-.134 2.784-.014 4.24-3.283 7.704-7.518 7.92-.123.006-.247.013-.37.02-21.766 1.293-39.193 19.275-39.842 41.07-.006.202-.011.403-.014.604-.241 15.156 12.137 27.509 27.295 27.509h113.065l8.559-18.472c35.215 0 63.57-29.37 61.905-64.951z" fill="#e8e8e8"/><path d="m461.583 191.941c-5.178-7.809-12.453-13.998-20.991-17.858l-25.556-11.553c-6.888-3.114-11.964-9.221-13.764-16.563l-4.217-17.194c-1.135-4.628-3.774-8.749-7.503-11.717l-21.109-16.801c-4.131-3.288-9.273-5.044-14.552-4.971l-32.648.453c-5.158.072-10.14-1.872-13.886-5.418l-19.777-18.718c-7.689-7.277-18.612-10.026-28.829-7.255l-13.763 3.732c-6.178 1.676-11.198 6.178-13.533 12.138l-19.518 49.823c-1.647 4.205-4.761 7.671-8.765 9.757l-34.625 18.044c-4.8 2.501-8.813 6.285-11.593 10.929l-34.674 57.933 191.109 200.958 122.966 42.699h68.145v-213.693z" fill="#ca5935"/><path d="m170.278 236.705 16.674-57.934c2.78-4.644 6.793-8.427 11.593-10.929l34.625-18.044c4.005-2.087 7.118-5.553 8.765-9.758l19.518-49.823c2.335-5.96 7.355-10.463 13.533-12.138l13.763-3.732c.459-.125.922-.225 1.383-.328l-2.555-2.417c-7.689-7.277-18.611-10.026-28.829-7.255l-13.763 3.732c-6.178 1.675-11.198 6.178-13.533 12.138l-19.518 49.823c-1.647 4.205-4.761 7.671-8.765 9.758l-34.625 18.044c-4.8 2.501-8.813 6.285-11.593 10.929l-34.674 57.934z" fill="#a24425"/><path d="m398.217 427.5c-1.7-1.911-3.012-4.134-3.864-6.545l-7.139-20.226c-2.381-6.745-7.826-11.957-14.669-14.04l-28.66-8.722c-4.7-1.431-8.745-4.473-11.423-8.593l-27.722-42.649c-5.065-7.792-12.647-13.613-21.484-16.492l-70.198-22.874c-4.346-1.416-8.045-4.332-10.438-8.226l-33.713-54.882c-3.729-6.071-11.115-8.819-17.905-6.664l-45.352 14.398c-4.648 1.475-8.597 4.597-11.106 8.778l-10.8 18.001c-2.328 3.879-6.064 6.71-10.429 7.9l-20.879 5.694c-3.883 1.059-7.458 3.026-10.43 5.739l-34.506 31.495v160.767h428.855z" fill="#e27858"/><path d="m45.225 309.633c4.312-3.936 9.498-6.789 15.13-8.325l30.287-8.26c6.332-1.727 11.751-5.833 15.128-11.46l15.667-26.112c3.639-6.065 9.368-10.593 16.11-12.734l35.751-11.349-4.388-7.144c-3.729-6.071-11.115-8.819-17.905-6.664l-45.352 14.397c-4.648 1.476-8.597 4.597-11.106 8.778l-10.8 18.001c-2.328 3.879-6.064 6.71-10.429 7.9l-20.879 5.694c-3.883 1.059-7.458 3.026-10.43 5.739l-34.509 31.498v34.474z" fill="#ca5935"/><g fill="#ffa0ab"><ellipse cx="233.536" cy="226.803" rx="29.931" ry="23.835"/><ellipse cx="395.77" cy="226.803" rx="29.931" ry="23.835"/><ellipse cx="75.463" cy="393.063" rx="31.424" ry="25.025"/><ellipse cx="245.793" cy="393.063" rx="31.424" ry="25.025"/></g><path d="m243.479 191.904v11.648c0 4.142 3.358 7.5 7.5 7.5s7.5-3.358 7.5-7.5v-11.648c0-4.142-3.358-7.5-7.5-7.5s-7.5 3.357-7.5 7.5z"/><path d="m325.786 198.554c-5.885 6.753-16.363 6.773-22.266 0-2.721-3.124-7.459-3.448-10.582-.727s-3.448 7.458-.727 10.582c11.876 13.627 33.02 13.613 44.883 0 2.721-3.123 2.396-7.86-.727-10.582-3.122-2.721-7.86-2.397-10.581.727z"/><path d="m359.576 203.227c0 4.142 3.358 7.5 7.5 7.5s7.5-3.358 7.5-7.5c0-3.308 2.691-5.999 5.999-5.999s5.999 2.691 5.999 5.999c0 4.142 3.358 7.5 7.5 7.5s7.5-3.358 7.5-7.5c0-11.579-9.42-20.999-20.999-20.999s-20.999 9.42-20.999 20.999z"/><path d="m101.276 368.96v-12.846c0-4.142-3.358-7.5-7.5-7.5s-7.5 3.358-7.5 7.5v12.846c0 4.142 3.358 7.5 7.5 7.5s7.5-3.358 7.5-7.5z"/><path d="m234.978 368.96v-12.846c0-4.142-3.358-7.5-7.5-7.5s-7.5 3.358-7.5 7.5v12.846c0 4.142 3.358 7.5 7.5 7.5s7.5-3.358 7.5-7.5z"/><path d="m183.906 373.506c2.722-3.123 2.396-7.86-.726-10.582-3.123-2.721-7.861-2.396-10.582.726-6.329 7.263-17.596 7.282-23.942 0-2.722-3.123-7.459-3.447-10.582-.726s-3.448 7.459-.726 10.582c12.32 14.135 34.252 14.121 46.558 0z"/><path d="m7.5 477.845h497c4.142 0 7.5-3.358 7.5-7.5v-145.827c0-4.142-3.358-7.5-7.5-7.5s-7.5 3.358-7.5 7.5v138.328h-57.279c-37.631-42.747-36.886-40.411-38.295-44.401l-7.138-20.227c-3.161-8.955-10.472-15.953-19.558-18.718l-28.659-8.722c-3.006-.916-5.606-2.871-7.318-5.505l-27.723-42.649c-5.979-9.199-15.017-16.137-25.448-19.535l-70.199-22.875c-2.649-.863-4.911-2.646-6.37-5.021-35.644-57.97-33.738-55.056-34.814-56.516-5.104-6.92-13.87-10.671-22.926-8.885-1.919.378-1.564.324-12.388 3.76 10.633-17.765 15.631-26.116 24.504-40.941 2.074-3.462 5.054-6.269 8.624-8.129l34.624-18.044c5.613-2.924 9.975-7.78 12.283-13.673 20.803-52.998 19.619-51.855 23.111-54.838 3.611-3.088 6.09-2.602 18.683-6.353 7.641-2.072 15.96.021 21.71 5.463l19.777 18.717c5.195 4.917 12.012 7.569 19.146 7.47l32.649-.453c3.534-.049 7.009 1.137 9.777 3.34l21.109 16.801c2.417 1.923 4.153 4.635 4.889 7.635l4.217 17.194c2.366 9.644 8.911 17.521 17.959 21.61l25.556 11.553c7.261 3.283 13.427 8.528 17.83 15.168l41.667 62.841v35.605c0 4.142 3.358 7.5 7.5 7.5s7.5-3.358 7.5-7.5v-37.866c0-4.135-.267-1.881-44.167-68.869-5.965-8.996-14.317-16.101-24.153-20.547l-25.556-11.553c-4.821-2.18-8.309-6.377-9.569-11.516l-4.217-17.194c-1.523-6.208-5.115-11.818-10.116-15.798l-21.109-16.801c-5.472-4.355-12.352-6.701-19.327-6.602l-32.648.453c-3.208.045-6.286-1.15-8.626-3.366l-19.777-18.717c-9.521-9.011-23.295-12.478-35.947-9.046-12.931 3.572-14.213 3.689-17.025 4.847-29.714-39.612-88.86-35.842-114.364 4.734-1.198 1.907-3.314 2.92-5.378 2.584-23.344-3.801-44.364 14.412-44.443 37.64-.001.602-.671.425-.833.478-25.534 1.517-46.132 22.748-46.894 48.321-.008.244-.013.487-.017.721-.307 19.264 15.337 35.128 34.794 35.128h71.944l-17.271 28.855-13.92 4.419c-6.394 2.03-11.816 6.316-15.267 12.068l-10.801 18c-1.339 2.232-3.46 3.839-5.971 4.523l-20.879 5.694c-5.007 1.366-9.68 3.937-13.513 7.436l-34.506 31.495c-1.557 1.422-2.444 3.432-2.444 5.54v84.98c0 4.142 3.358 7.5 7.5 7.5s7.5-3.358 7.5-7.5v-81.672l32.063-29.265c2.084-1.902 4.625-3.3 7.348-4.043l20.879-5.694c6.261-1.708 11.547-5.713 14.886-11.277l10.801-18.001c1.57-2.616 4.036-4.565 6.944-5.489 48.392-15.351 45.379-14.433 46.013-14.577 3.319-.752 6.775.675 8.584 3.621 35.969 58.28 33.735 55.534 36.533 58.673 3.133 3.515 7.161 6.167 11.685 7.64l70.199 22.874c7.181 2.34 13.402 7.116 17.518 13.448l27.723 42.65c3.634 5.59 9.148 9.738 15.527 11.68l28.659 8.722c4.544 1.383 8.2 4.883 9.781 9.361 6.772 17.818 6.797 22.884 12.472 29.262l27.028 30.374h-404.643v-38.461c0-4.142-3.358-7.5-7.5-7.5s-7.5 3.358-7.5 7.5v45.961c0 4.142 3.358 7.499 7.5 7.499zm35.332-321.197.011-.49c.533-17.896 14.936-32.746 32.792-33.806l.305-.017c8.181-.416 14.611-7.174 14.637-15.386.039-14.061 12.745-25.209 27.032-22.884 8.032 1.308 16.076-2.385 20.489-9.407 20.118-32.006 66.663-34.706 89.845-3.484-3.3 4.473-2.971 5.264-22.991 56.118-.986 2.518-2.85 4.592-5.248 5.842-49.064 25.742-40.758 18.498-56.154 43.413h-80.923c-11.009.001-19.97-8.937-19.795-19.899z"/></svg>