<svg id="Capa_1" enable-background="new 0 0 512 512" height="512" viewBox="0 0 512 512" width="512" xmlns="http://www.w3.org/2000/svg"><path d="m7.5 254.146v-68.425l26.137-53.785 95.773-42.748 126.59-22.392 127.521 18.999 97.279 50.213 23.7 49.713v68.425h-31.164l-48.084-38.07-60.97-33.248-108.282-18.321-110.883 21.214-70.425 39.855-29.52 28.57z" fill="#fab659"/><path d="m504.5 123.926v61.795c-68.9-60.125-156.176-92.955-248.5-92.955s-179.6 32.83-248.5 92.955v-61.795c70.007-50.166 155.807-79.695 248.5-79.695s178.493 29.529 248.5 79.695z" fill="#ff71a7"/><path d="m91.262 306.603c-.398.408-.806.835-1.204 1.243l-32.684 20.531-37.984-9.708 25.781-64.523 29.52-28.57 70.425-39.855 110.884-21.214 108.282 18.321 60.97 33.249 48.084 38.069 17.186 61.348-27.703 18.65-33.606-18.601c-2.737-3.038-5.562-6.028-8.474-8.94l-42.012-6.725-63.152-30.195-55.938-9.5-57.379 12.214-57.14 23.749z" fill="#5bd6fd"/><path d="m362.195 291.973 16.531 7.904 42.012 6.726c2.912 2.912 5.737 5.902 8.474 8.94l33.606 18.601 27.703-18.649-8.516-30.399c-6.06-.207-13.066-.349-20.89-.349-26.22-.001-60.531 1.574-98.92 7.226z" fill="#00b4fb"/><path d="m168.171 286.563c-22.325-5.179-47.436-8.742-74.297-8.742-20.686 0-40.989 2.134-60.699 6.352l-13.783 34.495 37.984 9.708 32.684-20.531c.398-.408.806-.834 1.204-1.242l53.855-10.458z" fill="#00b4fb"/><path d="m90.058 307.845c.398-.408.806-.835 1.204-1.243 44.002-44.002 102.506-68.24 164.738-68.24s120.736 24.238 164.738 68.24c2.912 2.912 5.737 5.902 8.474 8.94l-27.915 22.899-37.015-16.443c-31.286-22.782-68.833-35.101-108.282-35.101-35.217 0-68.91 9.814-97.992 28.121l-39.1 16.524z" fill="#817cd0"/><path d="m503.989 316.45-8.713 10.343-4.754-11.299c-10.26-15.376-22.103-29.849-35.469-43.216-53.166-53.165-123.862-82.441-199.053-82.441s-145.887 29.276-199.052 82.442c-14.279 14.289-26.821 29.83-37.557 46.39v.01l-5.093 10.801-6.798-6.871v-68.464c4.844-5.533 9.882-10.93 15.124-16.182 62.338-62.337 145.217-96.661 233.376-96.661s171.038 34.324 233.376 96.663c5.242 5.251 10.28 10.649 15.124 16.182v62.358" fill="#f8e86a"/><path d="m503.989 316.45.511.053v-30.129c-5.762-.493-19.041-1.437-37.708-1.603 8.658 9.761 16.586 20.017 23.73 30.723l4.754 11.298z" fill="#fab659"/><path d="m364.282 321.998 37.015 16.443 27.915-22.898c-2.737-3.038-5.562-6.028-8.474-8.94-6.826-6.826-14.002-13.174-21.485-19.032-23.614 2.145-49.661 5.747-76.952 11.569 14.867 5.722 28.967 13.381 41.981 22.858z" fill="#635ac5"/><path d="m158.007 315.019c13.167-8.289 27.28-14.829 42.05-19.513-21.625-7.125-47.468-13.451-76.035-16.211-11.605 8.012-22.576 17.123-32.761 27.309-.398.408-.806.834-1.204 1.242l28.849 23.698z" fill="#635ac5"/><path d="m19.391 318.678v-.01c8.5-13.111 18.15-25.571 28.88-37.289-13.874 2.189-27.488 5.386-40.772 9.585v31.645l6.798 6.869z" fill="#fab659"/><path d="m251.32 351.026s-117.284-73.88-243.82-28.417v145.16h78.385z" fill="#80dfb5"/><path d="m85.885 467.768 165.435-116.742s-13.294-8.367-35.736-17.735c-62.283 27.64-113.632 66.402-153.119 115.729l-15.009 18.749h38.429z" fill="#36d39a"/><path d="m504.5 316.502s-274.084-29.276-418.615 151.267h418.615z" fill="#80dfb5"/><ellipse cx="270.392" cy="419.066" fill="#ffa0ab" rx="29.308" ry="23.339"/><ellipse cx="429.251" cy="419.066" fill="#ffa0ab" rx="29.308" ry="23.339"/><path d="m287.473 377.405c-4.142 0-7.5 3.358-7.5 7.5v11.406c0 4.142 3.358 7.5 7.5 7.5s7.5-3.358 7.5-7.5v-11.406c0-4.142-3.358-7.5-7.5-7.5z"/><path d="m371.187 390.587c-3.123-2.721-7.86-2.396-10.582.727-5.701 6.542-15.849 6.561-21.567 0-2.722-3.123-7.459-3.448-10.582-.727-3.123 2.722-3.448 7.459-.727 10.582 11.69 13.415 32.506 13.401 44.184 0 2.722-3.123 2.396-7.86-.726-10.582z"/><path d="m414.372 375.275c-11.424 0-20.718 9.294-20.718 20.718 0 4.142 3.358 7.5 7.5 7.5s7.5-3.358 7.5-7.5c0-3.153 2.565-5.718 5.718-5.718s5.718 2.565 5.718 5.718c0 4.142 3.358 7.5 7.5 7.5s7.5-3.358 7.5-7.5c0-11.424-9.294-20.718-20.718-20.718z"/><path d="m504.5 475.268c4.142 0 7.5-3.358 7.5-7.5v-151.267c0-30.036 0-172.184 0-192.575 0-2.418-1.166-4.688-3.131-6.096-74.039-53.055-161.48-81.099-252.869-81.099s-178.83 28.044-252.869 81.099c-1.965 1.408-3.131 3.678-3.131 6.096v61.795 282.047c0 4.142 3.357 7.5 7.5 7.5zm-7.5-218.269v51.352c-.742-.051-1.528-.104-2.363-.157-24.134-35.159-57.028-66.328-96.759-88.779-3.606-2.038-8.181-.766-10.219 2.84s-.766 8.182 2.84 10.22c32.946 18.608 62.073 44.227 85.075 74.904-11.653-.286-26.308-.285-43.234.469-92.334-99.581-248.606-103.404-345.5-7.425-16.879.426-33.482 2.398-49.598 5.884 77.783-102.76 213.213-135.795 327.083-86.795 3.776 1.628 8.205-.095 9.854-3.925 1.65-3.833-.154-8.232-3.925-9.854-125.096-53.834-275.724-13.571-355.254 105.96v-54.693c127.682-143.526 352.665-145.255 482-.001zm-244.913 85.749c-18.911-10.964-45.941-22.574-73.917-30.398 50.758-24.879 113.608-24.689 165.878 5.44-32.486 5.946-63.253 14.3-91.961 24.958zm-95.458-35.694c-16.121-3.402-32.204-5.521-48.042-6.337 88.431-76.588 220.442-72.402 303.902 8.314-14.355 1.07-29.908 2.701-46.31 5.102-63.158-44.468-146.018-45.648-209.55-7.079zm-141.629 20.9c72.319-24.205 153.151-11.316 218.8 21.99-59.456 24.859-111.31 61.241-151.494 110.324h-67.306zm482 132.314h-395.004c73.244-83.167 181.624-123.024 292.321-134.52 49.099-5.083 87.734-3.37 102.683-2.335zm-482-332.468c143.806-101.098 337.053-101.901 482 0v41.866c-105.875-84.7-243.023-104.33-362.21-65.062-3.206 1.056-5.209 4.062-5.154 7.247.084 5.061 5.057 8.58 9.848 7 121.464-40.032 257.494-15.414 357.516 70.329v45.828c-131.558-134.432-349.315-135.547-482 0v-45.833c29.776-25.518 62.738-45.652 97.371-60.184 6.163-2.588 6.076-11.349-.064-13.858-1.794-.733-3.774-.773-5.779.043-11.222 4.71-23.587 10.604-35.24 16.968-20.228 11.045-39.27 23.872-56.288 37.525z"/></svg>