<svg id="Capa_1" enable-background="new 0 0 512 512" height="512" viewBox="0 0 512 512" width="512" xmlns="http://www.w3.org/2000/svg"><path d="m266.981 231.403h185.703c8.775 0 16.106-7.001 16.156-15.775 0-.058 0-.117 0-.175 0-16.786-13.608-30.393-30.393-30.393-.017 0-.033 0-.05 0-2.482.004-4.485-1.968-4.457-4.45.001-.134.002-.269.002-.404 0-21.174-17.164-38.338-38.338-38.338-1.811 0-3.591.126-5.335.37-4.782.669-9.368-2.37-10.436-7.079-4.91-21.659-24.266-37.83-47.41-37.83-26.857 0-48.629 21.772-48.629 48.629z" fill="#e8e8e8"/><path d="m236.244 413.06c-25.785-73.453-26.156-132.951-26.156-132.951h-67.513s-.371 59.498-26.156 132.951z" fill="#de8957"/><path d="m139.812 314.157c11.242 5.674 23.731 8.7 36.52 8.7 12.788 0 25.278-3.026 36.52-8.7-2.682-21.167-2.763-34.047-2.763-34.047h-67.513c0-.001-.082 12.88-2.764 34.047z" fill="#c76d33"/><path d="m332.184 97.334c-26.746.13-48.389 21.846-48.389 48.623l-16.814 85.445h58.999c4.942-10.87 7.524-22.862 7.271-35.168 15.607-25.749 15.607-58.392 0-84.14.103-4.99-.27-9.927-1.067-14.76z" fill="#c7c5cb"/><path d="m302.277 187.92.049-.056c16.931-19.277 16.931-48.123 0-67.4l-.049-.056c5.042-25.191-9.415-50.207-33.759-58.415l-.01-.004-.004-.011c-8.208-24.344-33.223-38.802-58.414-33.76h-.001l-.056-.049c-19.277-16.931-48.123-16.931-67.4 0l-.056.049c-25.191-5.042-50.207 9.415-58.415 33.759l-.003.01-.011.004c-24.345 8.208-38.802 33.223-33.76 58.414v.001l-.049.056c-16.931 19.277-16.931 48.123 0 67.4l.049.056c-5.042 25.191 9.415 50.207 33.759 58.415l.01.004.004.011c8.208 24.345 33.223 38.802 58.414 33.76h.001l.056.049c19.277 16.931 48.123 16.931 67.4 0l.056-.049c25.191 5.042 50.207-9.415 58.415-33.759l.004-.011.011-.004c24.345-8.208 38.802-33.223 33.76-58.414z" fill="#fab659"/><path d="m242.9 391.098c63.743-21.511 142.676-42.103 261.6-42.103v85.968l-25.735 31.76h-235.865z" fill="#f8e86a"/><path d="m7.5 348.994c268.039 0 290.333 121.592 497 85.968v61.567h-497z" fill="#fab659"/><path d="m87.855 175.194c0-66.733 35.077-125.476 88.241-159.718-11.952.055-23.888 4.283-33.464 12.693l-.056.049c-25.191-5.042-50.207 9.415-58.415 33.759l-.003.011-.011.003c-24.344 8.208-38.802 33.223-33.76 58.414v.001l-.049.056c-16.931 19.277-16.931 48.124 0 67.4l.049.056c-5.042 25.191 9.415 50.207 33.759 58.415l.01.003.004.011c5.645 16.745 19.243 28.812 35.379 33.073-20.034-29.986-31.684-65.779-31.684-104.226z" fill="#f59e18"/><path d="m105.058 142.506c-4.142 0-7.5 3.358-7.5 7.5v13.696c0 4.142 3.358 7.5 7.5 7.5s7.5-3.358 7.5-7.5v-13.696c0-4.142-3.358-7.5-7.5-7.5z"/><path d="m247.606 171.202c4.142 0 7.5-3.358 7.5-7.5v-13.696c0-4.142-3.358-7.5-7.5-7.5s-7.5 3.358-7.5 7.5v13.696c0 4.142 3.358 7.5 7.5 7.5z"/><path d="m200.777 168.222c2.721-3.123 2.396-7.86-.727-10.582-3.122-2.721-7.86-2.396-10.582.727-6.958 7.984-19.323 7.975-26.273 0-2.722-3.123-7.459-3.448-10.582-.727s-3.448 7.459-.727 10.582c12.938 14.845 35.968 14.828 48.891 0z"/><path d="m233.651 379.605c-11.501-41.752-14.775-75.916-15.7-91.074 24.33.89 47.074-13.573 56.385-36.391 7.571-3.089 14.212-7.659 19.683-13.266h33.353c4.142 0 7.5-3.358 7.5-7.5s-3.358-7.5-7.5-7.5h-22.647c5.171-10.399 7.125-22.12 5.515-33.848 16.331-21.049 16.285-50.734-.003-71.778.304-2.237.507-5.144.528-7.288 23.149-14.414 55.308-2.617 61.756 25.827 1.907 8.413 10.165 14.056 18.788 12.849 18.609-2.602 35.135 11.894 35.135 30.54l-.002.322c-.071 6.445 5.044 12.007 12.006 12.032 12.624 0 22.894 10.27 22.894 22.894v.133c-.026 4.586-3.909 8.318-8.656 8.318h-95.313c-4.142 0-7.5 3.358-7.5 7.5s3.358 7.5 7.5 7.5h95.313c12.971 0 23.583-10.422 23.655-23.213l.001-.238c0-19.892-15.405-36.253-34.967-37.777-1.448-26.507-25.361-46.607-52.143-42.865-.955.133-1.888-.454-2.082-1.31-8.062-35.566-46.646-53.324-78.455-38.424-4.697-17.19-17.117-31.859-34.356-38.911-10.054-24.646-35.739-39.494-62.114-35.907-21.019-16.3-50.69-16.315-71.78.001-26.345-3.587-52.008 11.229-62.111 35.897-24.645 10.054-39.496 35.74-35.908 62.114-16.303 21.021-16.317 50.7.001 71.781-3.592 26.386 11.271 52.085 35.901 62.119 9.327 22.851 32.096 37.269 56.386 36.38-.697 11.502-2.741 33.891-8.685 62.165-33.771-5.689-72.567-9.222-118.529-9.222-4.142 0-7.5 3.358-7.5 7.5v147.535c0 4.142 3.358 7.5 7.5 7.5h497c4.142 0 7.5-3.358 7.5-7.5 0-7.647 0-142.202 0-147.535 0-4.142-3.358-7.5-7.5-7.5-120.005 0-199.533 20.9-261.438 41.637-3.1-1.17-6.237-2.337-9.411-3.497zm-142.437-135.833c-.775-2.155-2.502-3.841-4.672-4.573-20.709-6.982-33.091-28.407-28.802-49.835.459-2.292-.226-4.722-1.769-6.478-13.834-15.751-14.999-40.159.097-57.613 1.509-1.751 2.125-4.101 1.672-6.367-4.289-21.429 8.093-42.853 28.836-49.847 2.209-.753 3.945-2.502 4.69-4.713 6.982-20.708 28.405-33.091 49.836-28.801 2.291.458 4.722-.227 6.478-1.769 16.019-14.069 40.629-14.764 57.618.101 1.751 1.505 4.097 2.121 6.363 1.667 21.413-4.286 42.822 8.076 49.82 28.757.737 2.243 2.499 4.015 4.74 4.771 21.146 7.129 33.079 29.057 28.801 49.835-.459 2.292.227 4.722 1.769 6.478 14.351 16.34 14.427 41.072.002 57.5-.062.104-1.818 1.881-1.911 4.765-.05 1.583.692 3.429.931 8.188.906 19.133-10.976 37.087-29.626 43.375-2.153.734-3.925 2.445-4.691 4.713-6.982 20.708-28.408 33.09-49.835 28.801-2.369-.474-4.865.349-6.478 1.769-15.604 13.704-39.843 15.105-57.59-.077-1.698-1.486-4.113-2.146-6.39-1.692-20.043 4.012-41.735-6.357-49.889-28.955zm58.205 49.999c16.767 8.646 36.947 8.663 53.818-.007 1.156 15.929 4.371 44.605 13.302 79.817-22.567-7.626-47.336-14.672-75.741-20.211 5.44-25.933 7.69-46.849 8.621-59.599zm347.581 62.723v72.08c-22.379 3.567-45.927 5.731-68.226 5.359-4.138-.057-7.546 3.275-7.604 7.397-.058 4.502 3.749 8.038 8.219 7.612 21.201.33 46.376-1.834 67.611-5.179v45.237h-482v-132.502c206.521 1.799 262.848 77.515 382.931 90.579 4.076.444 7.815-2.498 8.267-6.645.448-4.118-2.527-7.819-6.645-8.267-49.989-5.44-87.925-22.009-134.405-40.475 56.847-17.902 128.912-34.428 231.852-35.196z"/></svg>