<svg id="Capa_1" enable-background="new 0 0 512 512" height="512" viewBox="0 0 512 512" width="512" xmlns="http://www.w3.org/2000/svg"><path d="m158.38 59.771h195.24l62.14 97.07v153.627h-319.52v-153.627z" fill="#5bd6fd"/><path d="m7.5 242.351v85.53l75.44 38.49 75.44-38.49v-150.53l-31.07-20.51 31.07-20.51v-76.56h-150.88v141.56l31.07 20.51z" fill="#de8957"/><path d="m7.5 59.771h30v268.11h-30z" fill="#c76d33"/><path d="m504.5 242.351v85.53l-75.44 38.49-75.44-38.49v-150.53l31.07-20.51-31.07-20.51v-76.56h150.88v141.56l-31.07 20.51z" fill="#de8957"/><path d="m353.62 59.771h30v268.11h-30z" fill="#c76d33"/><path d="m439.372 366.368c7.106-36.639-13.859-72.915-49.153-85.05l-.015-.005-.005-.016c-12.135-35.293-48.411-56.259-85.049-49.153h-.001l-.082-.071c-28.15-24.427-69.981-24.427-98.131 0l-.082.072c-36.639-7.106-72.915 13.859-85.05 49.153l-.005.015-.016.005c-35.293 12.135-56.259 48.411-49.153 85.049v.001z" fill="#fff"/><ellipse cx="256.692" cy="291.716" fill="#77718c" rx="16.758" ry="18.752"/><path d="m153.342 47.736h-133.806c-6.647 0-12.036 5.388-12.036 12.036 0 13.806 7.58 26.497 19.735 33.044 12.32 6.635 27.149 6.635 39.469 0 12.32-6.635 27.149-6.635 39.469 0 12.32 6.635 27.149 6.635 39.469 0 12.155-6.547 19.735-19.238 19.735-33.044 0-6.647-5.388-12.036-12.035-12.036z" fill="#80dfb5"/><path d="m57.235 92.816c-12.155-6.547-19.735-19.238-19.735-33.044 0-6.647 5.388-12.036 12.036-12.036h-30c-6.647 0-12.036 5.388-12.036 12.036 0 13.806 7.58 26.497 19.735 33.044 10.778 5.805 23.476 6.531 34.735 2.18-1.611-.624-3.193-1.35-4.735-2.18z" fill="#36d39a"/><path d="m158.38 136.331v41.02h-41.63c-11.33 0-20.51-9.18-20.51-20.51s9.18-20.51 20.51-20.51z" fill="#f1c6ad"/><path d="m69.64 221.841c0 11.33-9.18 20.51-20.51 20.51h-41.63v-41.02h41.63c11.33 0 20.51 9.18 20.51 20.51z" fill="#f1c6ad"/><path d="m7.5 201.331h30v41.02h-30z" fill="#de8957"/><path d="m358.659 47.736h133.806c6.647 0 12.036 5.388 12.036 12.036 0 13.806-7.58 26.497-19.735 33.044-12.32 6.635-27.149 6.635-39.469 0-12.32-6.635-27.149-6.635-39.469 0-12.32 6.635-27.149 6.635-39.469 0-12.155-6.547-19.735-19.238-19.735-33.044-.001-6.647 5.388-12.036 12.035-12.036z" fill="#80dfb5"/><path d="m396.358 92.816c-12.155-6.547-19.735-19.238-19.735-33.044 0-6.647 5.388-12.036 12.036-12.036h-30c-6.647 0-12.036 5.388-12.036 12.036 0 13.806 7.58 26.497 19.735 33.044 10.778 5.805 23.476 6.531 34.735 2.18-1.611-.624-3.193-1.35-4.735-2.18z" fill="#36d39a"/><path d="m353.62 136.331v41.02h41.63c11.33 0 20.51-9.18 20.51-20.51s-9.18-20.51-20.51-20.51z" fill="#f1c6ad"/><path d="m353.62 136.331h30v41.02h-30z" fill="#de8957"/><path d="m442.36 221.841c0 11.33 9.18 20.51 20.51 20.51h41.63v-41.02h-41.63c-11.33 0-20.51 9.18-20.51 20.51z" fill="#f1c6ad"/><path d="m504.5 396.073v-68.192c-22.346-11.181-48.654-11.181-71 0-22.346 11.181-48.654 11.181-71 0-22.346-11.181-48.654-11.181-71 0-22.346 11.181-48.654 11.181-71 0-22.346-11.181-48.654-11.181-71 0-22.346 11.181-48.654 11.181-71 0-22.346-11.181-48.654-11.181-71 0v68.192l44.591 29.903h398.446z" fill="#a4e6ff"/><path d="m7.5 396.073c22.346-11.181 48.654-11.181 71 0 22.346 11.181 48.654 11.181 71 0 22.346-11.181 48.654-11.181 71 0 22.346 11.181 48.654 11.181 71 0 22.346-11.181 48.654-11.181 71 0 22.346 11.181 48.654 11.181 71 0 22.346-11.181 48.654-11.181 71 0v68.192h-497z" fill="#5bd6fd"/><path d="m256.692 265.464c-13.376 0-24.258 11.776-24.258 26.252s10.882 26.252 24.258 26.252 24.258-11.776 24.258-26.252-10.882-26.252-24.258-26.252zm0 37.504c-5.105 0-9.258-5.047-9.258-11.252 0-6.204 4.153-11.252 9.258-11.252s9.258 5.048 9.258 11.252-4.153 11.252-9.258 11.252z"/><path d="m184.238 255.335c-12.989 0-23.556 10.567-23.556 23.556 0 4.143 3.358 7.5 7.5 7.5s7.5-3.357 7.5-7.5c0-4.718 3.838-8.556 8.556-8.556s8.556 3.838 8.556 8.556c0 4.143 3.358 7.5 7.5 7.5s7.5-3.357 7.5-7.5c0-12.989-10.567-23.556-23.556-23.556z"/><path d="m327.762 255.335c-12.989 0-23.556 10.567-23.556 23.556 0 4.143 3.358 7.5 7.5 7.5s7.5-3.357 7.5-7.5c0-4.718 3.838-8.556 8.556-8.556s8.556 3.838 8.556 8.556c0 4.143 3.358 7.5 7.5 7.5s7.5-3.357 7.5-7.5c0-12.989-10.567-23.556-23.556-23.556z"/><path d="m316.854 176.499c4.142 0 7.5-3.358 7.5-7.5v-61.262c0-4.143-3.358-7.5-7.5-7.5s-7.5 3.357-7.5 7.5v61.262c0 4.142 3.357 7.5 7.5 7.5z"/><path d="m235.716 123.499c4.142 0 7.5-3.358 7.5-7.5v-31.262c0-4.143-3.358-7.5-7.5-7.5s-7.5 3.357-7.5 7.5v31.262c0 4.142 3.358 7.5 7.5 7.5z"/><path d="m235.716 192.971c4.142 0 7.5-3.358 7.5-7.5v-41.261c0-4.143-3.358-7.5-7.5-7.5s-7.5 3.357-7.5 7.5v41.262c0 4.142 3.358 7.499 7.5 7.499z"/><path d="m195.147 153.499c4.142 0 7.5-3.358 7.5-7.5v-51.262c0-4.143-3.358-7.5-7.5-7.5s-7.5 3.357-7.5 7.5v51.262c0 4.142 3.358 7.5 7.5 7.5z"/><path d="m195.147 204.499c4.142 0 7.5-3.358 7.5-7.5v-17.158c0-4.142-3.358-7.5-7.5-7.5s-7.5 3.358-7.5 7.5v17.158c0 4.142 3.358 7.5 7.5 7.5z"/><path d="m276.285 184.499c4.142 0 7.5-3.358 7.5-7.5v-17.158c0-4.142-3.358-7.5-7.5-7.5s-7.5 3.358-7.5 7.5v17.158c0 4.142 3.358 7.5 7.5 7.5z"/><path d="m276.285 141.848c4.142 0 7.5-3.358 7.5-7.5v-39.611c0-4.143-3.358-7.5-7.5-7.5s-7.5 3.357-7.5 7.5v39.611c0 4.142 3.358 7.5 7.5 7.5z"/><path d="m492.464 40.236h-133.805c-8.115 0-15.086 4.975-18.033 12.034h-169.251c-2.948-7.059-9.918-12.034-18.033-12.034h-133.806c-10.772 0-19.536 8.763-19.536 19.535v67.945c0 4.142 3.358 7.5 7.5 7.5s7.5-3.358 7.5-7.5v-34.382c14.382 12.827 36.695 16.082 55.26 6.084 10.088-5.434 22.187-5.478 32.356 0 15.642 8.423 34.033 7.531 48.264-.954v30.366h-34.13c-15.445 0-28.01 12.565-28.01 28.01s12.565 28.01 28.01 28.01h34.13v49.777c-15.489 9.105-27.977 23.16-34.924 40.844-18.888 7.391-35.123 21.972-44.267 41.401-17.927-6.304-37.896-6.682-56.689-.25v-66.772h34.13c15.445 0 28.01-12.565 28.01-28.01s-12.565-28.01-28.01-28.01h-34.13v-36.115c0-4.142-3.358-7.5-7.5-7.5s-7.5 3.358-7.5 7.5v306.548c0 4.142 3.358 7.5 7.5 7.5h497c4.142 0 7.5-3.358 7.5-7.5 0-7.447 0-158.127 0-164.15 0-4.142-3.358-7.5-7.5-7.5s-7.5 3.358-7.5 7.5v16.508c-18.988-6.497-38.946-5.984-56.689.251-9.224-19.534-25.422-34.014-44.267-41.403-6.764-17.218-19.017-31.508-34.923-40.842v-49.777h34.129c15.445 0 28.01-12.565 28.01-28.01s-12.565-28.01-28.01-28.01h-34.129v-30.365c13.781 8.224 32.167 9.622 48.263.954 10.289-5.542 22.425-5.35 32.356 0 18.256 9.831 40.582 7.058 55.261-6.085v100.497h-34.13c-15.445 0-28.01 12.565-28.01 28.01s12.565 28.01 28.01 28.01h34.129v20.264c0 4.142 3.358 7.5 7.5 7.5s7.5-3.358 7.5-7.5c-.011-163.906.022-210.511-.04-211.116-.41-10.413-8.985-18.763-19.496-18.763zm4.536 194.614h-34.13c-7.174 0-13.01-5.836-13.01-13.01s5.836-13.01 13.01-13.01h34.13zm-138.341-179.614h133.806c2.501 0 4.536 2.034 4.536 4.535 0 24.295-27.014 37.824-48.147 26.441-14.584-7.855-31.998-7.855-46.582 0-18.429 9.927-42.105 1.133-47.224-19.098-.991-3.925-.923-7.414-.923-7.347 0-2.498 2.034-4.531 4.534-4.531zm25.192 230.059c.92 1.463 2.319 2.568 3.964 3.128 16.626 5.727 30.701 17.777 38.711 34.433-13.628 5.87-28.556 7.236-42.329 4.539-10.68-2.07-17.507-5.875-20.634-7.327-23.952-11.105-51.953-10.635-75.417 1.106-20.128 10.071-44.16 10.071-64.288 0-24.078-12.062-53.162-12.284-77.712 0-18.355 9.182-40.527 10.267-60.669 1.682 13.302-27.67 38.193-33.85 40.306-35.191 3.077-1.929 2.809-3.933 5.409-9.713 12.707-28.123 43.597-44.395 74.234-38.445 3.879.752 6.326-1.717 6.426-1.77 16.272-14.12 38.247-19.554 59.109-14.802 18.014 4.104 27.815 13.97 30.031 15.451 3.072 2.046 5.515 1.05 8.923.567 29.6-4.2 58.681 11.95 70.905 39.021 2.064 4.568 2.141 5.907 3.031 7.321zm113.149 47.392v52.149c-18.347-6.26-39.55-6.358-59.201 1.164-8.242 3.163-11.213 5.855-21.343 8.528-16.767 4.425-34.875 2.704-50.6-5.164-6.382-3.193-13.091-5.54-19.952-7.058-20.11-4.447-40.515-1.57-57.76 7.058-4.403 2.203-8.993 3.924-13.688 5.164-16.767 4.425-34.875 2.704-50.6-5.164-24.381-12.197-53.43-12.149-77.712 0-34.067 17.047-64.406-.031-64.306-.008-21.02-10.512-45.29-11.8-66.838-4.52v-52.149c32.432-13.756 59.666 1.809 60.146 1.901l-.002-.001c24.33 12.174 53.382 12.174 77.712 0 20.175-10.087 44.186-10.055 64.288 0 24.33 12.174 53.382 12.174 77.712 0 20.212-10.106 44.235-10.034 64.288 0 13.559 6.785 28.719 9.853 43.858 8.988 21.194-1.209 33.067-9.087 40.582-11.916 17.452-6.63 36.984-5.96 53.416 1.028zm-324.746-265.417 167.493.001c.957 5.701 3.099 11.39 6.374 16.584v93.495.01 50.383c-12.764-4.335-25.589-5.453-38.832-3.573-29.977-23.857-72.523-23.915-102.577 0-13.013-1.847-25.997-.834-38.832 3.574 0-15.745 0-129.307 0-143.888 2.967-4.615 5.348-10.484 6.374-16.586zm-152.718-12.034h133.806c2.4 0 4.551 1.907 4.532 4.642-.084 24.217-26.979 37.733-48.144 26.334-14.584-7.855-31.998-7.855-46.582 0-10.13 5.457-22.226 5.456-32.356 0-16.551-8.914-15.865-26.701-15.792-26.444.002-2.499 2.036-4.532 4.536-4.532zm97.214 114.614c-7.174 0-13.01-5.836-13.01-13.01s5.836-13.01 13.01-13.01h34.13v26.02zm-67.62 38.981c7.174 0 13.01 5.836 13.01 13.01s-5.836 13.01-13.01 13.01h-34.13v-26.02zm-34.13 247.933v-55.889c20.154-8.454 42.187-7.088 60.144 1.904 24.331 12.173 53.382 12.173 77.712 0 15.725-7.868 33.833-9.589 50.6-5.164 4.695 1.239 9.285 2.96 13.688 5.164 12.165 6.086 25.511 9.13 38.856 9.13s26.691-3.043 38.856-9.13c20.127-10.07 44.16-10.072 64.288 0 16.727 8.369 35.686 10.984 53.808 7.846 20.551-3.56 22.709-9.364 38.817-13.314 14.64-3.591 30.41-2.621 45.231 3.563v55.889h-482zm380.25-312.934c7.174 0 13.01 5.836 13.01 13.01s-5.836 13.01-13.01 13.01h-34.129v-26.02z"/></svg>