<svg id="Capa_1" enable-background="new 0 0 512 512" height="512" viewBox="0 0 512 512" width="512" xmlns="http://www.w3.org/2000/svg"><path d="m340.398 301.499h46.392v121.337h-46.392z" fill="#de8957"/><path d="m149.323 320.62h46.392v92.215h-46.392z" fill="#de8957"/><path d="m340.398 365.632c7.277 3.213 15.157 4.891 23.196 4.891s15.919-1.678 23.196-4.892v-64.133h-46.392z" fill="#c76d33"/><path d="m464.419 228.102s7.79 52.553 36.372 86.815c5.511 6.607 3.868 16.582-3.368 21.237-9.057 5.827-20.683 5.827-29.74 0-9.057-5.827-20.683-5.827-29.74 0-9.057 5.827-20.683 5.827-29.74 0-9.057-5.827-20.683-5.827-29.74 0-9.057 5.827-20.683 5.827-29.74 0-9.057-5.827-20.683-5.827-29.74 0-9.057 5.827-20.683 5.827-29.74 0-9.057-5.827-20.683-5.827-29.74 0-9.057 5.827-20.683 5.827-29.74 0v-39.075l40.065-59.269 107.708-71.156z" fill="#36d39a"/><path d="m253.6 263.038c18.44 11.865 42.146 12.149 60.841.85 18.234 11.021 41.242 11.022 59.479 0 18.236 11.021 41.243 11.022 59.479 0 9.12 5.512 19.429 8.267 29.74 8.267 4.338 0 8.676-.497 12.926-1.473-8.747-23.028-11.646-42.581-11.646-42.581l-34.66-24.515c-9.085.573-18.056 3.281-26.099 8.143-18.236-11.022-41.245-11.022-59.479 0-7.12-4.303-14.967-6.918-22.973-7.862l-51.376 33.94-16.805 24.86z" fill="#00c071"/><path d="m437.943 139.464c10.426 29.568 31.178 58.956 43.978 75.403 5.691 7.313 3.88 17.927-3.913 22.941-9.057 5.827-20.683 5.827-29.74 0-9.057-5.827-20.683-5.827-29.74 0-9.057 5.827-20.683 5.827-29.74 0-9.057-5.827-20.683-5.827-29.74 0-9.057 5.827-20.683 5.827-29.74 0-9.057-5.827-20.683-5.827-29.74 0-9.057 5.827-20.683 5.827-29.74 0l19.414-98.344 74.349-48.337z" fill="#36d39a"/><path d="m289.245 139.464-6.009 30.439c6.621 2.584 13.686 3.931 20.879 3.931 10.517 0 20.763-2.861 29.739-8.291 8.976 5.429 19.224 8.291 29.739 8.291s20.763-2.861 29.739-8.291c8.977 5.429 19.225 8.291 29.74 8.291 9.551 0 18.877-2.365 27.234-6.866-4.766-8.884-9.078-18.185-12.365-27.504l-74.349-48.337z" fill="#00c071"/><path d="m287.762 119.422c24.837-21.523 47.115-52.017 60.996-73.026 7.025-10.633 22.647-10.633 29.672 0 13.881 21.009 36.159 51.504 60.996 73.026 6.323 5.479 5.553 15.516-1.483 20.042-9.057 5.827-20.683 5.827-29.74 0-9.057-5.827-20.683-5.827-29.74 0-9.057 5.827-20.683 5.827-29.74 0-9.057-5.827-20.683-5.827-29.74 0-9.057 5.827-20.683 5.827-29.74 0-7.034-4.526-7.804-14.563-1.481-20.042z" fill="#36d39a"/><path d="m149.323 376.828c7.343 2.789 15.196 4.274 23.195 4.274 8 0 15.854-1.485 23.197-4.274v-56.208h-46.392z" fill="#c76d33"/><path d="m294.828 217.766c-1.294-2.453-.868-5.459 1.057-7.456l.277-.287c13.221-13.712 13.222-35.429.001-49.141l-.278-.288c-1.925-1.996-2.351-5.002-1.057-7.455 8.965-16.995 2.736-38.039-14.036-47.415l-.921-.515c-1.856-1.038-2.857-3.133-2.497-5.229 3.322-19.36-9.755-37.722-29.136-40.915l-2.017-.332c-.84-.138-1.512-.771-1.701-1.601-4.545-19.929-24.976-31.878-44.574-26.069l-1.207.358c-14.049-15.486-38.388-15.486-52.437 0l-1.206-.357c-19.598-5.809-40.029 6.14-44.574 26.069-.189.829-.861 1.462-1.701 1.6l-2.018.332c-19.381 3.192-32.458 21.554-29.137 40.914.36 2.098-.642 4.194-2.499 5.233l-.92.514c-16.771 9.377-23 30.42-14.035 47.415 1.294 2.453.868 5.459-1.057 7.456l-.277.287c-13.221 13.712-13.222 35.429-.001 49.141l.278.288c1.925 1.996 2.351 5.002 1.057 7.455-8.965 16.995-2.736 38.039 14.036 47.415l.921.515c1.856 1.038 2.857 3.133 2.497 5.229-3.322 19.36 9.755 37.722 29.136 40.915l2.017.332c.84.138 1.512.771 1.701 1.601 4.545 19.929 24.976 31.878 44.574 26.069l1.207-.358c14.049 15.486 38.388 15.486 52.437 0l1.206.357c19.598 5.809 40.029-6.14 44.574-26.069.189-.829.861-1.462 1.701-1.6l2.018-.332c19.381-3.192 32.458-21.554 29.137-40.914-.36-2.098.642-4.194 2.499-5.233l.92-.514c16.771-9.376 23-30.42 14.035-47.415z" fill="#80dfb5"/><ellipse cx="100.217" cy="206.563" fill="#ffa0ab" rx="26.678" ry="21.245"/><ellipse cx="244.822" cy="206.563" fill="#ffa0ab" rx="26.678" ry="21.245"/><g fill="#423e4f"><path d="m115.765 193.35c-4.143 0-7.5-3.358-7.5-7.5v-10.383c0-4.142 3.357-7.5 7.5-7.5s7.5 3.358 7.5 7.5v10.383c0 4.143-3.358 7.5-7.5 7.5z"/><path d="m172.52 200.104c-7.903 0-15.418-3.422-20.617-9.39-2.722-3.123-2.396-7.86.728-10.582 3.122-2.72 7.861-2.396 10.581.728 2.351 2.697 5.743 4.244 9.309 4.244s6.958-1.547 9.309-4.245c2.722-3.123 7.459-3.448 10.582-.726 3.123 2.721 3.447 7.459.727 10.582-5.203 5.967-12.717 9.389-20.619 9.389z"/><path d="m243.311 193.061c-4.143 0-7.5-3.358-7.5-7.5 0-2.499-2.033-4.532-4.532-4.532s-4.532 2.033-4.532 4.532c0 4.142-3.357 7.5-7.5 7.5s-7.5-3.358-7.5-7.5c0-10.77 8.762-19.532 19.532-19.532s19.532 8.762 19.532 19.532c0 4.142-3.358 7.5-7.5 7.5z"/></g><path d="m7.5 403.129h497v89.067h-497z" fill="#80dfb5"/><path d="m115.765 167.965c-4.142 0-7.5 3.358-7.5 7.5v10.383c0 4.142 3.358 7.5 7.5 7.5s7.5-3.358 7.5-7.5v-10.383c0-4.142-3.358-7.5-7.5-7.5z"/><path d="m193.137 190.712c2.721-3.123 2.396-7.86-.727-10.582-3.123-2.721-7.86-2.396-10.582.727-4.922 5.648-13.681 5.664-18.617 0-2.721-3.123-7.459-3.448-10.582-.727s-3.448 7.459-.727 10.582c10.91 12.519 30.337 12.506 41.235 0z"/><path d="m219.247 193.058c4.142 0 7.5-3.358 7.5-7.5 0-2.499 2.033-4.532 4.532-4.532s4.532 2.033 4.532 4.532c0 4.142 3.358 7.5 7.5 7.5s7.5-3.358 7.5-7.5c0-10.77-8.762-19.532-19.532-19.532s-19.532 8.762-19.532 19.532c0 4.143 3.358 7.5 7.5 7.5z"/><path d="m504.5 395.626h-110.209v-56.304c3.442.164 6.85 1.202 9.855 3.135 11.499 7.397 26.358 7.397 37.855 0 6.569-4.225 15.058-4.226 21.625 0 11.497 7.397 26.355 7.399 37.855 0 5.297-3.408 8.882-8.934 9.836-15.162.943-6.16-.794-12.423-4.767-17.186-16.284-19.52-25.532-45.691-30.25-63.03 17.925-7.264 20.256-25.623 11.541-36.821-10.984-14.114-30.388-41.183-41.114-68.705 6.613-8.089 6.066-20.478-2.388-27.802-7.996-6.929-16.376-15.427-24.91-25.257-2.714-3.127-7.451-3.463-10.58-.748-3.128 2.715-3.462 7.452-.747 10.581 8.997 10.364 17.884 19.368 26.415 26.76 2.535 2.197 2.21 6.239-.63 8.066-6.519 4.196-15.013 4.255-21.623 0-11.547-7.427-26.402-7.368-37.855 0-6.153 3.957-13.996 4.212-20.372.743-2.006-1.091-7.856-5.51-17.711-6.204-3.295-.231-6.602.001-9.838.694-10.602 2.272-11.694 6.827-20.061 7.799-.078-6.925-1.834-13.545-4.812-19.312 21.78-21.078 40.889-47.407 53.403-66.346 1.935-2.929 5.061-4.609 8.578-4.609s6.644 1.68 8.579 4.609c5.384 8.149 11.003 16.16 16.701 23.812 2.474 3.322 7.172 4.009 10.495 1.536 3.322-2.474 4.01-7.173 1.536-10.495-5.53-7.427-10.986-15.206-16.217-23.122-4.691-7.101-12.578-11.341-21.094-11.34-8.517 0-16.402 4.24-21.092 11.34-11.859 17.948-29.805 42.706-50.107 62.635-2.238-2.031-4.697-3.845-7.366-5.391 2.919-22.354-12.02-43.198-34.169-47.586-6.788-21.132-28.426-33.475-49.918-28.847-16.212-14.325-40.574-14.375-56.843 0-21.481-4.625-43.124 7.7-49.917 28.846-22.164 4.392-37.092 25.245-34.173 47.589-19.65 11.378-27.048 36.129-16.791 56.44-15.755 16.617-15.755 42.395 0 59.014-10.237 20.273-2.899 45.038 16.791 56.44-2.919 22.354 12.019 43.197 34.169 47.586 6.428 20.012 26.489 32.635 47.644 29.266v47.376h-45.52c-4.142 0-7.5 3.358-7.5 7.5s3.358 7.5 7.5 7.5h400.695v74.066h-481.999v-74.066h51.305c4.142 0 7.5-3.358 7.5-7.5s-3.358-7.5-7.5-7.5h-58.805c-4.142 0-7.5 3.358-7.5 7.5v89.066c0 4.142 3.358 7.5 7.5 7.5h497c4.142 0 7.5-3.358 7.5-7.5v-89.066c0-4.142-3.358-7.5-7.5-7.5zm-11.135-65.783c-6.567 4.225-15.055 4.226-21.624 0-11.498-7.396-26.357-7.397-37.856 0-6.567 4.226-15.056 4.226-21.623 0-11.833-7.612-26.726-7.162-37.855 0-3.592 2.309-7.939 3.477-12.52 3.088-6.622-.564-8.618-3.341-13.976-5.686-10.748-4.687-23.152-3.727-32.983 2.598-6.568 4.225-15.057 4.225-21.625 0-11.498-7.397-26.357-7.397-37.855 0-3.673 2.364-7.95 3.404-12.15 3.125 3.358-4.123 5.927-8.854 7.565-13.983.006-.001.012-.003.019-.004 22.198-4.41 37.059-25.303 34.147-47.583 10.242-5.925 17.862-15.938 20.474-28.335 6.574-3.287 14.113-2.577 19.75 1.052 11.518 7.409 26.378 7.384 37.856 0 6.567-4.226 15.056-4.226 21.623 0 11.427 7.351 26.362 7.394 37.855 0 3.688-2.373 7.986-3.418 12.223-3.12 8.405.594 9.445 4.75 18.965 7.385 2.551.707 5.308 1.139 7.679 1.251 4.971 18.664 15.102 47.94 33.578 70.088 2.653 3.181 1.738 7.934-1.667 10.124zm-290.149 18.408c8.773 1.396 17.841.03 25.832-3.922 10.935 5.439 24.101 4.83 34.517-1.871 6.567-4.225 15.055-4.226 21.624 0 11.498 7.396 26.357 7.396 37.856 0 3.005-1.934 6.413-2.971 9.855-3.135v56.304h-129.684zm141.451-202.482c11.498 7.396 26.357 7.396 37.856 0 6.567-4.226 15.056-4.226 21.623 0 8.788 5.657 19.737 7.039 29.654 3.872 11.596 28.37 31.053 55.504 42.203 69.831 2.977 3.824 2.055 9.385-2.052 12.027-11.185 7.197-21.811-.054-21.623 0-11.523-7.412-26.381-7.383-37.856 0-6.602 4.248-15.09 4.204-21.623 0-5.75-3.699-12.338-5.548-18.928-5.548-6.386 0-13.135 1.821-18.927 5.548-6.582 4.232-15.067 4.218-21.625 0-8.056-5.183-18.086-6.867-27.561-4.474-.717-4.163-2.096-8.32-3.988-12.068 15.756-16.62 15.756-42.401-.001-59.014.758-1.501 1.575-3.448 1.998-4.602 6.828.068 13.5-1.887 19.227-5.572 6.567-4.225 15.055-4.226 21.623 0zm-236.834 166.337c-.87-3.819-3.93-6.699-7.795-7.335-.962-.338-12.298-.569-20.208-11.677-4.343-6.099-6.038-13.521-4.771-20.902.895-5.218-1.609-10.459-6.23-13.043l-.92-.515c-13.327-7.451-18.186-23.866-11.063-37.37 2.811-5.328 1.891-11.822-2.292-16.161l-.277-.288c-10.47-10.859-10.47-27.871-.002-38.728l.28-.29c4.182-4.337 5.103-10.832 2.291-16.161-7.124-13.504-2.265-29.918 11.063-37.37l.919-.514c4.622-2.584 7.126-7.827 6.232-13.048-2.62-15.271 7.676-29.727 22.963-32.246l2.018-.332c3.865-.637 6.924-3.516 7.794-7.333 3.571-15.664 19.609-25.147 35.13-20.546.329.016 5.167 2.314 8.892-1.794 10.997-12.123 30.157-12.314 41.328 0 3.656 4.031 8.646 1.806 8.893 1.794 15.403-4.565 31.53 4.762 35.129 20.544.87 3.819 3.93 6.699 7.795 7.335.962.338 12.298.569 20.208 11.677 4.343 6.099 6.038 13.521 4.771 20.902-.895 5.218 1.609 10.459 6.23 13.043l.92.515c13.194 7.378 18.134 23.972 11.063 37.369-2.812 5.329-1.89 11.824 2.288 16.156l.003.004.277.288c10.47 10.859 10.47 27.871-.002 38.732l-.16.167c-.105.135-2.037 1.894-3.179 5.044-2.337 6.442.756 10.978 1.752 13.302 5.356 12.52.848 27.116-10.647 34.467-2.045 1.306-6.487 2.997-8.185 8.656-.993 3.272-.346 5.572-.157 7.125 1.766 14.501-8.118 28.383-23.167 30.861-1.677.297-2.358.328-3.426.674-3.178 1.027-5.623 3.643-6.386 6.992-1.719 7.529-6.443 13.978-13.116 17.88-11.767 6.882-22.66 2.363-23.221 2.308-2.762-.817-5.75.018-7.686 2.152-10.979 12.106-30.217 12.245-41.328 0-3.657-4.03-8.646-1.806-8.893-1.794-15.365 4.56-31.521-4.727-35.128-20.54zm48.991 83.52v-40.014c.004.001 14.456 6.691 31.392 0v40.014zm191.074 0v-51.326c10.159 5.094 21.957 4.745 31.393 0v51.326z"/></svg>