<svg id="Capa_1" enable-background="new 0 0 512 512" height="512" viewBox="0 0 512 512" width="512" xmlns="http://www.w3.org/2000/svg"><path d="m270.183 157.824c20.361 0 36.868-16.506 36.868-36.868s-16.506-36.868-36.868-36.868c-7.17 0-13.858 2.054-19.52 5.595-6.448-30.705-33.678-53.763-66.3-53.763-30.81 0-56.799 20.571-65.025 48.723-4.071-1.548-8.482-2.402-13.096-2.402-20.362 0-36.868 16.506-36.868 36.868 0 1.067.056 2.121.144 3.165-2.758-.856-5.69-1.318-8.73-1.318-16.239 0-29.404 13.165-29.404 29.404s13.165 29.404 29.404 29.404h146.557z" fill="#b2b0bc"/><path d="m80.138 264.786c-37.207 43.469-72.638 74.279-72.638 74.279v137.015h497v-137.015s-40.605-35.304-80.51-83.645l-64.197-27.84h-216.684z" fill="#de8957"/><path d="m94.362 300.602c19.059-22.267 38.471-47.09 55.564-73.022h-6.817l-62.972 37.207c-37.206 43.468-72.637 74.278-72.637 74.278v51.31c15.011-13.702 50.273-47.027 86.862-89.773z" fill="#c76d33"/><path d="m423.99 255.419h-47.157l-19.133 14.318c-5.669 4.242-12.396 6.358-19.133 6.358-6.727 0-13.454-2.116-19.123-6.358s-12.396-6.358-19.123-6.358c-6.737 0-13.464 2.116-19.133 6.358-5.679 4.242-12.406 6.358-19.133 6.358s-13.454-2.116-19.133-6.358c-5.669-4.242-12.396-6.358-19.133-6.358-6.727 0-13.454 2.116-19.123 6.358s-12.396 6.358-19.123 6.358c-6.737 0-13.464-2.116-19.133-6.358-5.679-4.242-12.406-6.358-19.133-6.358s-13.454 2.116-19.133 6.358c-5.669 4.242-12.396 6.358-19.133 6.358-6.727 0-13.454-2.116-19.123-6.358-3.009-2.252-6.31-3.902-9.756-4.951 27.684-32.344 56.34-71.696 72.114-110.573 6.426-15.832 21.812-26.18 38.906-26.18h129.686c17.094 0 32.48 10.348 38.906 26.18 14.284 35.198 39.124 70.784 64.246 101.206z" fill="#e8e8e8"/><path d="m109.016 276.095c2.026 0 4.048-.215 6.043-.598 28.954-36.528 56.478-77.791 73.057-118.651 5.259-12.956 15.135-23.083 27.272-28.812h-24.232c-17.094 0-32.48 10.348-38.906 26.18-12.323 30.373-32.509 61.035-53.951 88.419-6.004 7.667-12.106 15.078-18.162 22.153 3.446 1.048 6.746 2.699 9.756 4.951 5.669 4.242 12.396 6.358 19.123 6.358z" fill="#c7c5cb"/><path d="m457.56 242.651c-.016 0-.032 0-.047 0-2.412.004-4.346-1.923-4.321-4.336.001-.143.002-.285.002-.428 0-24.498-19.859-44.357-44.357-44.357-5.328 0-10.435.941-15.168 2.663-8.286-17.7-26.247-29.966-47.082-29.966-26.826 0-48.899 20.328-51.668 46.42-.273 2.569-2.677 4.321-5.197 3.754-2.426-.546-4.949-.836-7.54-.836-18.987 0-34.38 15.392-34.38 34.38 0 .536.016 1.068.04 1.597-1.474-.241-2.984-.372-4.526-.372-15.625 0-28.241 12.88-27.81 28.602.415 15.153 13.229 27.039 28.389 27.039h218.602c15.718 0 29.081-12.177 29.768-27.88.022-.511.034-1.025.034-1.542.001-19.185-15.553-34.738-34.739-34.738z" fill="#c7c5cb"/><path d="m188.349 401.751c-.055 17.398-17.81 31.446-39.657 31.378-21.848-.069-39.514-14.228-39.46-31.626s17.809-31.447 39.657-31.378c21.848.068 39.514 14.227 39.46 31.626z" fill="#ffa0ab"/><path d="m323.651 402.174c-.055 17.398 17.612 31.557 39.459 31.626 21.847.068 39.602-13.98 39.657-31.378s-17.612-31.558-39.459-31.626-39.603 13.98-39.657 31.378z" fill="#ffa0ab"/><path d="m287.969 377.858c.062-19.711-14.212-21.607-31.826-21.662s-31.899 1.752-31.961 21.463c-.062 19.71 14.168 35.733 31.782 35.788s31.944-15.879 32.005-35.589z" fill="#77718c"/><path d="m282.098 352.978c-6.864-3.508-15.331-4.249-25.931-4.282-13.756-.043-39.394-.125-39.485 28.939-.074 23.657 17.417 43.312 39.375 43.312 21.312 0 39.337-18.794 39.413-43.065.036-11.972-4.462-20.351-13.372-24.904zm-1.629 24.856c-.047 15.077-10.637 28.113-24.415 28.112-13.981 0-24.419-13.275-24.373-28.265.033-10.456 3.504-13.987 23.871-13.987 5.648 0 14.696.072 19.719 2.64 1.696.867 5.226 2.67 5.198 11.5z"/><path d="m172.035 341.09c-14.511-.011-26.366 11.729-26.411 26.246-.013 4.142 3.334 7.511 7.477 7.523h.024c4.131 0 7.486-3.342 7.5-7.477.02-6.247 5.155-11.323 11.364-11.293 6.247.02 11.313 5.117 11.293 11.364-.013 4.142 3.334 7.51 7.477 7.523h.024c4.131 0 7.487-3.343 7.5-7.477.043-14.516-11.731-26.363-26.248-26.409z"/><path d="m313.933 367.864c-.013 4.142 3.334 7.51 7.477 7.523h.024c4.131 0 7.486-3.343 7.5-7.477.033-10.145 12.326-15.033 19.365-7.95 2.133 2.146 3.303 4.995 3.293 8.021-.013 4.142 3.334 7.511 7.477 7.524h.024c4.131 0 7.486-3.343 7.5-7.477.022-7.033-2.696-13.653-7.653-18.642-16.498-16.596-44.935-4.82-45.007 18.478z"/><path d="m397.394 187.299c-5.979-9.798-14.641-17.562-24.747-22.509-2.18-4.551-4.184-9.049-5.948-13.397-7.609-18.747-25.608-30.86-45.855-30.86h-6.303c-.285-30.263-30.353-51.518-59.044-41.446-10.341-29.846-38.9-50.667-71.133-50.667-30.717 0-58.43 19.037-69.788 47.106-25.388-4.85-49.168 12.947-52.346 37.958-20.923-.81-38.344 15.98-38.344 36.876 0 20.349 16.555 36.903 36.904 36.903h66.553c-5.01 8.541-10.626 17.306-16.848 26.266-2.363 3.402-1.52 8.076 1.882 10.438 3.401 2.363 8.075 1.52 10.438-1.882 13.978-20.127 27.25-42.528 36.387-65.05 5.302-13.062 17.845-21.501 31.957-21.501h129.686c14.112 0 26.655 8.439 31.956 21.5.284.7.573 1.403.868 2.109-31.729-3.768-60.612 17.963-65.748 49.317-23.003-3.179-43.839 12.955-47.16 35.301-10.127.717-18.984 5.736-24.83 12.931-13.531 2.744-15.236 8.925-24.537 11.203-6.871 1.682-14.419.375-20.489-4.167-13.974-10.439-33.166-10.516-47.247.003-8.729 6.533-20.641 6.456-29.268.001-.81-.606-2.134-1.491-2.234-1.556 4.633-5.571 9.117-11.143 13.391-16.642 2.542-3.271 1.951-7.982-1.319-10.524s-7.982-1.951-10.524 1.319c-28.295 36.405-66.527 75.701-91.122 97.076-1.642 1.426-2.582 3.49-2.582 5.66v137.015c0 4.142 3.358 7.5 7.5 7.5h497c4.142 0 7.5-3.358 7.5-7.5v-137.015c0-2.17-.941-4.235-2.578-5.659-.124-.108-10.916-9.522-26.58-24.988 31.615-20.171 16.056-70.353-22.213-73.153-1.598-31.913-31.728-55.079-63.235-47.966zm-206.237-66.765c-16.662 0-32.362 8.306-41.559 22.579-4.73 7.314-4.607 11.06-13.97 29.15h-74.84c-12.078 0-21.904-9.826-21.904-21.903 0-14.675 14.273-25.312 28.41-20.923 5.077 1.575 10.148-2.495 9.697-7.799-1.847-21.686 19.616-37.615 39.68-29.984 4.086 1.554 8.637-.706 9.865-4.906 7.456-25.51 31.234-43.327 57.827-43.327 28.347 0 53.144 20.104 58.961 47.805 1.071 5.097 6.898 7.582 11.317 4.817 19.216-12.02 44.582 1.576 44.907 24.492h-108.391zm293.616 158.071c-.472 10.806-9.452 19.67-20.3 20.61-2.105.186.657.057-51.95.097-7.38 0-10.308 9.587-4.193 13.719 1.024.691 2.196 1.117 3.427 1.242.105.011 51.521.264 55.449-.257 14.12 14.186 25.041 24.167 29.795 28.424v126.14h-482.001v-126.147c8.555-7.681 37.154-33.985 67.286-68.655 1.16.621 2.151 1.243 3.114 1.964 14.129 10.572 33.363 10.385 47.237.003 8.64-6.454 20.541-6.533 29.283-.003 14.143 10.583 32.897 10.103 46.162.78-1.421 20.676 15.519 37.789 35.814 37.789h138.905c3.866 0 7.075-2.932 7.461-6.733.449-4.435-3.024-8.267-7.461-8.267h-138.905c-11.233 0-20.593-8.869-20.892-19.744-.349-12.693 10.929-22.695 23.627-20.623 4.696.77 8.917-2.988 8.704-7.74-.716-16.1 12.612-28.966 28.336-28.098 4.137.228 5.017 1.141 8.115.846 5.645-.539 10.005-4.988 10.592-10.514 2.553-24.055 23.773-41.61 48.015-39.54 15.679 1.362 29.733 11.053 36.484 25.474 1.646 3.518 5.707 5.196 9.357 3.868 23.943-8.715 49.459 9.078 49.459 34.646.036.201-.441 4.889 3.406 8.77 2.234 2.253 5.217 3.494 8.44 3.494 15.407.022 27.912 12.868 27.234 28.455z"/></svg>