<svg id="Capa_1" enable-background="new 0 0 512 512" height="512" viewBox="0 0 512 512" width="512" xmlns="http://www.w3.org/2000/svg"><path d="m7.5 170.16h497v294.142h-497z" fill="#0091e1"/><path d="m264.892 51.394c6.785-3.669 14.696-4.65 22.171-2.747l58.766 14.978c7.795 1.99 14.531 6.911 18.783 13.755l6.756 10.852c3.698 5.941 8.678 10.969 14.59 14.726l14.687 9.319c12.386 7.863 21.851 19.569 26.947 33.324l9.105 24.559h-279.068l-20.295-11.759 33.903-54.532 70.951-29.72z" fill="#a4e6ff"/><path d="m273.065 431.686c7.94 3.436 17.172-.175 20.666-8.096l18.822-42.556c2.204-5.009 5.562-9.426 9.775-12.901l24.986-20.598c4.747-3.922 8.251-9.134 10.086-15.007l13.415-43.012c2.223-7.135 7.028-13.182 13.464-16.968l22.219-13.046c6.717-3.951 11.532-10.474 13.328-18.055l16.871-71.288h-279.068l-7.673 18.442 11.106 67.017 65.486 49.401 36.963 68.246 1.382 47.79z" fill="#5bd6fd"/><path d="m278.181 362.398-5.116 69.289-2.039-.874c-9.726-4.203-17.754-11.58-22.782-20.919l-15.114-28.121c-2.262-4.193-4.087-8.61-5.465-13.163l-10.755-35.499c-3.038-10.008-10.552-18.045-20.336-21.753l-40.944-15.473c-7.474-2.825-12.901-9.406-14.25-17.279l-4.475-26.131c-.961-5.562-3.96-10.571-8.426-14.027l-26.238-20.317c-5.737-4.436-9.668-10.794-11.076-17.909l-5.96-30.063h72.424c-.893 6.086-.553 12.357 1.087 18.414l8.979 33.237c1.893 7.028 6.96 12.774 13.706 15.522l44.186 18.055c5.242 2.145 9.358 6.378 11.367 11.668l14.531 38.42c.883 2.32 2.029 4.523 3.427 6.562l16.007 23.394c5.408 7.902 7.97 17.415 7.262 26.967z" fill="#00b4fb"/><path d="m264.892 51.394-31.16 56.815c-4.708 8.591-12.794 14.823-22.297 17.201l-27.034 6.756c-6.164 1.543-11.445 5.484-14.677 10.95l-6.28 10.62c-3.009 5.096-4.96 10.678-5.815 16.424h-72.424l49.253-62.193c8.911-11.25 21.715-18.764 35.887-21.045l32.722-5.281c5.523-.893 10.862-2.708 15.784-5.368z" fill="#5bd6fd"/><path d="m512 464.314v-294.143c0-4.142-3.358-7.5-7.5-7.5h-62.585l-7.291-19.665c-5.633-15.204-16.273-28.362-29.961-37.051l-14.682-9.316c-10.82-6.876-13.737-15.701-18.998-23.206-5.293-8.52-13.567-14.58-23.301-17.064l-58.769-14.979c-15.872-4.04-27.482 3.384-27.587 3.417l-46.041 24.879c-10.207 5.516-16.441 4.478-46.132 9.842-30.499 4.909-42.939 27.71-45.773 30.359-2.572 3.247-2.024 7.964 1.223 10.536s7.964 2.024 10.536-1.223c2.941-2.797 12.323-20.987 36.401-24.862l32.726-5.281c14.863-2.403 21.829-8.85 41.825-18.966-20.122 36.459-19.449 36.393-23.136 40.271-2.982 3.133-6.683 5.545-10.79 7.008-1.766.629-.073.157-29.585 7.533-5.534 1.385-10.59 4.3-14.582 8.307-3.532 3.625-4.467 5.731-6.587 9.241-2.994 5.449-7.17 10.685-9.846 20.22h-50.854l16.409-20.72c2.571-3.247 2.024-7.964-1.224-10.536-3.247-2.572-7.964-2.024-10.536 1.223l-23.785 30.033h-74.075c-4.142 0-7.5 3.358-7.5 7.5v294.142c0 4.142 3.358 7.5 7.5 7.5h497c4.142.001 7.5-3.357 7.5-7.499zm-362.352-286.643c.181 10.774 3.231 16.45 10.805 46.101 2.489 9.241 9.262 16.911 18.112 20.514 46.213 19.159 44.83 17.703 47.803 20.313 1.574 1.383 2.817 3.133 3.572 5.12 14.616 37.733 14.33 40.072 18.784 46.564 16.786 24.693 17.054 24.402 19.013 28.772 2.349 5.241 3.393 11.032 2.965 16.8l-4.265 57.758c-4.774-3.48-8.762-8.016-11.586-13.26-13.975-26.665-16.993-29.954-20.007-39.908l-10.756-35.503c-3.688-12.148-12.979-22.087-24.861-26.59l-40.944-15.473c-4.969-1.877-8.612-6.295-9.509-11.528l-4.477-26.143c-1.285-7.438-5.272-14.073-11.225-18.68l-26.242-20.32c-4.301-3.326-7.251-8.096-8.307-13.435l-4.185-21.104h55.31zm135.563-121.745 58.763 14.977c18.721 4.78 15.357 24.032 37.966 38.398l14.685 9.318c10.934 6.941 19.433 17.452 23.934 29.6l5.358 14.452h-258.533c1.829-4.529 4.297-7.864 6.159-11.267 2.333-3.822 2.864-5.192 4.549-7.069 4.632-5.158 9.158-4.857 21.65-8.26 13.971-3.512 13.426-3.311 15.375-3.895 7.231-2.165 13.643-6.163 18.712-11.49 6.635-6.972 6.086-9.048 36.495-63.591 4.685-2.021 9.898-2.443 14.887-1.173zm211.789 400.888h-482v-279.143h64.046l4.762 24.018c1.759 8.893 6.676 16.843 13.842 22.384l26.239 20.318c2.982 2.308 4.98 5.637 5.624 9.361l4.475 26.133c1.792 10.454 9.069 19.277 18.991 23.027l40.938 15.47c7.558 2.864 13.471 9.189 15.816 16.915l10.755 35.498c3.65 12.054 7.772 17.019 21.153 42.667 10.104 18.761 27.865 24.752 28.445 25.119.001 0 .001.001.002.001l.023.01c.006.003.012.004.018.007 11.673 5.025 25.332-.335 30.461-11.962l18.828-42.569c1.716-3.9 4.373-7.405 7.681-10.134 24.423-20.431 26.176-20.866 30.456-26.136 2.611-3.215 2.122-7.938-1.093-10.55s-7.939-2.122-10.55 1.094c-2.763 3.401-2.91 2.839-28.355 24.019-5.108 4.214-9.212 9.631-11.861 15.652l-18.824 42.562c-1.104 2.5-3.317 4.184-5.812 4.727l4.602-62.337c.862-11.606-2.469-22.871-8.55-31.756-15.808-23.452-16.878-23.827-18.608-28.374l-14.535-38.43c-2.68-7.054-8.25-12.964-15.542-15.947l-44.194-18.059c-4.542-1.85-8.016-5.785-9.294-10.532-7.833-30.792-10.088-33.954-10.272-42.194h262.551l-14.687 62.059c-1.318 5.565-4.902 10.42-9.827 13.316l-22.224 13.05c-8.067 4.745-14.041 12.274-16.821 21.199l-8.114 26.015c-1.233 3.954.972 8.159 4.927 9.393 3.957 1.234 8.16-.972 9.393-4.927l8.115-26.017c1.67-5.361 5.259-9.883 10.101-12.731l22.223-13.049c8.436-4.961 14.568-13.268 16.824-22.792l15.505-65.515h54.367z"/><path d="m256.011 117.968c-4.143 0-7.5 3.358-7.5 7.5v11.116c0 4.142 3.357 7.5 7.5 7.5 4.142 0 7.5-3.358 7.5-7.5v-11.116c0-4.142-3.359-7.5-7.5-7.5z"/><path d="m371.705 144.084c4.142 0 7.5-3.358 7.5-7.5v-11.116c0-4.142-3.358-7.5-7.5-7.5s-7.5 3.358-7.5 7.5v11.116c0 4.142 3.358 7.5 7.5 7.5z"/><path d="m334.763 141.181c2.721-3.123 2.396-7.86-.727-10.582s-7.86-2.396-10.582.727c-5.074 5.823-14.105 5.84-19.194 0-2.721-3.123-7.459-3.448-10.582-.727s-3.448 7.459-.727 10.582c11.065 12.695 30.761 12.68 41.812 0z"/></svg>