<svg id="Capa_1" enable-background="new 0 0 512 512" height="512" viewBox="0 0 512 512" width="512" xmlns="http://www.w3.org/2000/svg"><g fill="#36d39a"><path d="m238.836 342.375h34.329v99.99h-34.329z"/><path d="m68.921 342.375h34.329v99.99h-34.329z"/><path d="m408.75 342.375h34.329v99.99h-34.329z" transform="matrix(-1 0 0 -1 851.829 784.74)"/></g><path d="m238.836 395.349c5.553 1.104 11.292 1.688 17.164 1.688 5.873 0 11.611-.583 17.164-1.688v-52.975h-34.329v52.975z" fill="#00c071"/><path d="m280.603 266.367-20.581-22.512c-2.539-2.777-6.914-2.777-9.453 0l-20.581 22.512-21.29-18.48c-4.146-3.599-10.601-.654-10.601 4.836v56.411c0 31.979 25.924 57.903 57.903 57.903 31.979 0 57.903-25.924 57.903-57.903v-56.799c0-5.426-6.325-8.393-10.497-4.924z" fill="#f8e86a"/><path d="m218.097 309.134v-53.089l-9.399-8.158c-4.146-3.599-10.601-.654-10.601 4.836v56.411c0 31.979 25.924 57.903 57.903 57.903 3.412 0 6.75-.312 10-.878-27.21-4.74-47.903-28.458-47.903-57.025z" fill="#fab659"/><path d="m68.921 395.349c5.553 1.104 11.292 1.688 17.164 1.688 5.873 0 11.611-.583 17.164-1.688v-52.975h-34.328z" fill="#00c071"/><path d="m110.689 266.367-20.581-22.512c-2.539-2.777-6.914-2.777-9.453 0l-20.581 22.512-21.29-18.48c-4.146-3.599-10.601-.654-10.601 4.836v56.411c0 31.979 25.924 57.903 57.903 57.903 31.979 0 57.903-25.924 57.903-57.903v-56.799c0-5.426-6.325-8.393-10.497-4.924z" fill="#817cd0"/><path d="m48.183 309.134v-53.089l-9.399-8.158c-4.146-3.599-10.601-.654-10.601 4.836v56.411c0 31.979 25.924 57.903 57.903 57.903 3.412 0 6.75-.312 10-.878-27.21-4.74-47.903-28.458-47.903-57.025z" fill="#635ac5"/><path d="m408.75 395.349c5.553 1.104 11.292 1.688 17.165 1.688s11.611-.583 17.164-1.688v-52.975h-34.329z" fill="#00c071"/><path d="m401.311 266.367 20.581-22.512c2.539-2.777 6.914-2.777 9.453 0l20.581 22.512 21.29-18.48c4.146-3.599 10.601-.654 10.601 4.836v56.411c0 31.979-25.924 57.903-57.903 57.903-31.979 0-57.903-25.924-57.903-57.903v-56.799c0-5.426 6.325-8.393 10.497-4.924z" fill="#ff71a7"/><path d="m388.011 309.135v-53.824l-9.503-7.899c-4.172-3.468-10.497-.501-10.497 4.924v56.799c0 31.979 25.924 57.902 57.903 57.902 3.412 0 6.75-.312 10-.878-27.21-4.74-47.903-28.458-47.903-57.024z" fill="#fa3482"/><path d="m439.795 126.85h-.018c-.889.001-1.542-.805-1.354-1.675.921-4.271 1.364-8.72 1.251-13.293-.749-30.422-26.077-55.032-56.508-54.923-15.302.055-29.159 6.217-39.275 16.173-4.498 4.426-11.368 5.151-16.814 1.962-5.271-3.087-11.406-4.857-17.956-4.857-15.636 0-28.911 10.075-33.703 24.086-1.97 5.76-7.273 9.664-13.36 9.6-.225-.002-.449-.004-.675-.004-35.773 0-64.773 29-64.773 64.773v.23c.042 11.98 9.937 21.597 21.917 21.597h260.721c6.655 0 12.107-5.445 12.116-12.101.001-28.48-23.088-51.568-51.569-51.568z" fill="#a4e6ff"/><circle cx="102.957" cy="102.653" fill="#f8e86a" r="50.547"/><path d="m122.957 133.2c-27.916 0-50.547-22.631-50.547-50.547 0-8.816 2.262-17.103 6.229-24.318-15.632 8.597-26.229 25.218-26.229 44.318 0 27.916 22.631 50.547 50.547 50.547 19.1 0 35.721-10.597 44.318-26.229-7.216 3.967-15.502 6.229-24.318 6.229z" fill="#fab659"/><path d="m7.5 425.402h497v67.855h-497z" fill="#80dfb5"/><path d="m222.324 294.873c-4.142 0-7.5 3.358-7.5 7.5v6.471c0 4.142 3.358 7.5 7.5 7.5s7.5-3.358 7.5-7.5v-6.471c0-4.142-3.358-7.5-7.5-7.5z"/><path d="m289.675 316.344c4.142 0 7.5-3.358 7.5-7.5v-6.471c0-4.142-3.358-7.5-7.5-7.5s-7.5 3.358-7.5 7.5v6.471c0 4.143 3.358 7.5 7.5 7.5z"/><path d="m270.532 313.579c2.721-3.123 2.396-7.86-.727-10.582-3.123-2.721-7.86-2.396-10.582.727-1.714 1.967-4.734 1.968-6.448 0-2.721-3.123-7.459-3.448-10.582-.727s-3.448 7.459-.727 10.582c7.69 8.824 21.386 8.814 29.066 0z"/><path d="m52.41 294.873c-4.142 0-7.5 3.358-7.5 7.5v6.471c0 4.142 3.358 7.5 7.5 7.5s7.5-3.358 7.5-7.5v-6.471c0-4.142-3.358-7.5-7.5-7.5z"/><path d="m119.761 316.344c4.142 0 7.5-3.358 7.5-7.5v-6.471c0-4.142-3.358-7.5-7.5-7.5s-7.5 3.358-7.5 7.5v6.471c0 4.143 3.358 7.5 7.5 7.5z"/><path d="m100.618 313.579c2.721-3.123 2.396-7.86-.727-10.582-3.123-2.721-7.86-2.396-10.582.727-1.714 1.967-4.734 1.968-6.448 0-2.721-3.123-7.459-3.448-10.582-.727s-3.448 7.459-.727 10.582c7.69 8.824 21.386 8.814 29.066 0z"/><path d="m459.59 316.344c4.142 0 7.5-3.358 7.5-7.5v-6.471c0-4.142-3.358-7.5-7.5-7.5s-7.5 3.358-7.5 7.5v6.471c0 4.143 3.358 7.5 7.5 7.5z"/><path d="m392.238 294.873c-4.142 0-7.5 3.358-7.5 7.5v6.471c0 4.142 3.358 7.5 7.5 7.5s7.5-3.358 7.5-7.5v-6.471c0-4.142-3.358-7.5-7.5-7.5z"/><path d="m440.446 313.58c2.722-3.123 2.396-7.86-.726-10.582-3.123-2.721-7.861-2.396-10.582.726-1.717 1.969-4.733 1.968-6.45 0-2.722-3.123-7.459-3.447-10.582-.726-3.123 2.722-3.448 7.459-.726 10.582 7.691 8.822 21.383 8.814 29.066 0z"/><path d="m479.249 183.02h-54.381c-4.142 0-7.5 3.358-7.5 7.5s3.358 7.5 7.5 7.5h54.381c10.803 0 19.602-8.789 19.616-19.601 0-30.174-22.742-55.136-52.005-58.647 3.826-37.517-25.953-70.313-63.72-70.313-16.754.06-32.561 6.568-44.509 18.327-2.051 2.019-5.171 2.354-7.763.836-23.184-13.574-53.634-2.781-62.545 23.274-1.774 5.186-6.785 4.478-6.938 4.523-39.852 0-72.273 32.421-72.273 72.273v.256c.056 16.03 13.252 29.071 29.417 29.071h176.34c4.142 0 7.5-3.358 7.5-7.5s-3.358-7.5-7.5-7.5h-176.34c-7.922 0-14.39-6.335-14.417-14.145v-.182c0-31.581 25.692-57.273 57.273-57.273l.595.003c9.23.099 17.501-5.798 20.536-14.672 5.802-16.966 25.665-24.03 40.773-15.184 8.389 4.912 19.025 3.642 25.864-3.089 9.472-9.322 21.757-14.019 34.215-14.019 30.336 0 54.372 28.283 47.724 59.138-.568 2.642.078 5.359 1.773 7.457 2.869 3.548 7.031 3.318 6.931 3.295 24.3 0 44.07 19.77 44.07 44.061-.004 2.5-2.118 4.611-4.617 4.611z"/><path d="m161.004 102.653c0-32.007-26.04-58.047-58.047-58.047s-58.047 26.039-58.047 58.047 26.04 58.047 58.047 58.047 58.047-26.04 58.047-58.047zm-58.047 43.047c-23.736 0-43.047-19.311-43.047-43.047s19.311-43.047 43.047-43.047 43.047 19.311 43.047 43.047-19.311 43.047-43.047 43.047z"/><path d="m110.457 30.75v-12.006c0-4.143-3.358-7.5-7.5-7.5s-7.5 3.357-7.5 7.5v12.006c0 4.142 3.358 7.5 7.5 7.5s7.5-3.358 7.5-7.5z"/><path d="m159.103 57.114 8.49-8.49c2.929-2.929 2.929-7.678 0-10.607s-7.678-2.929-10.606 0l-8.49 8.49c-4.739 4.738-1.318 12.803 5.303 12.803 1.919 0 3.838-.732 5.303-2.196z"/><path d="m186.866 110.153c4.142 0 7.5-3.358 7.5-7.5s-3.358-7.5-7.5-7.5h-12.006c-4.142 0-7.5 3.358-7.5 7.5s3.358 7.5 7.5 7.5z"/><path d="m156.986 167.289c1.464 1.464 3.384 2.197 5.303 2.197 6.622 0 10.042-8.065 5.303-12.804l-8.49-8.49c-2.929-2.929-7.678-2.929-10.606 0-2.929 2.929-2.929 7.678 0 10.607z"/><path d="m95.457 174.555v12.006c0 4.142 3.358 7.5 7.5 7.5s7.5-3.358 7.5-7.5v-12.006c0-4.142-3.358-7.5-7.5-7.5s-7.5 3.358-7.5 7.5z"/><path d="m46.811 148.192-8.49 8.49c-4.739 4.738-1.318 12.803 5.303 12.803 1.919 0 3.839-.732 5.303-2.197l8.49-8.49c2.929-2.929 2.929-7.677 0-10.606s-7.678-2.929-10.606 0z"/><path d="m19.047 110.153h12.007c4.142 0 7.5-3.358 7.5-7.5s-3.358-7.5-7.5-7.5h-12.007c-4.142 0-7.5 3.358-7.5 7.5s3.358 7.5 7.5 7.5z"/><path d="m57.417 46.507-8.49-8.49c-2.929-2.929-7.678-2.929-10.606 0-2.929 2.929-2.929 7.677 0 10.606l8.49 8.49c1.464 1.465 3.384 2.197 5.303 2.197 6.621 0 10.041-8.065 5.303-12.803z"/><path d="m7.5 500.756h497c4.142 0 7.5-3.358 7.5-7.5v-67.854c0-4.142-3.358-7.5-7.5-7.5h-53.921v-48.209c23.87-9.758 40.738-33.219 40.738-60.559v-56.411c0-11.927-14.023-18.309-23.017-10.5l-15.771 13.688-15.649-17.118c-5.509-6.025-15.016-6.023-20.523 0l-15.752 17.231-17.301-14.381c-9.066-7.536-22.792-1.081-22.792 10.692v56.798c0 27.339 16.868 50.801 40.738 60.559v48.209h-120.586v-48.209c23.87-9.757 40.738-33.219 40.738-60.559v-56.798c0-11.789-13.74-18.218-22.792-10.692l-17.3 14.381-15.753-17.231c-5.509-6.025-15.016-6.023-20.523 0l-15.648 17.117-15.771-13.688c-9.008-7.819-23.018-1.411-23.018 10.5v56.411c0 27.339 16.869 50.801 40.739 60.559v48.208h-58.816c-4.142 0-7.5 3.358-7.5 7.5s3.358 7.5 7.5 7.5h324.481v52.854h-482.001v-52.854h127.519c4.142 0 7.5-3.358 7.5-7.5s-3.358-7.5-7.5-7.5h-31.769v-48.209c23.87-9.757 40.738-33.219 40.738-60.559v-56.798c0-5.45-3.065-10.273-7.999-12.588-4.936-2.314-10.603-1.588-14.793 1.896l-17.3 14.381-15.753-17.23c-5.673-6.207-15.163-5.864-20.524 0l-15.648 17.117-15.771-13.687c-9.008-7.819-23.018-1.411-23.018 10.5v56.411c0 27.339 16.869 50.801 40.739 60.559v48.208h-53.921c-4.142 0-7.5 3.358-7.5 7.5v67.854c0 4.143 3.358 7.501 7.5 7.501zm368.011-191.622v-54.461l21.005 17.461c3.08 2.561 7.628 2.249 10.33-.707l19.771-21.627 19.771 21.627c2.745 3.001 7.381 3.269 10.452.604l19.476-16.904v54.008c0 32.83-31.122 57.072-63.045 48.796-21.693-5.625-37.76-25.369-37.76-48.797zm-169.914 0v-54.008l19.476 16.905c3.07 2.666 7.707 2.398 10.452-.604l19.771-21.627 19.771 21.627c2.703 2.956 7.25 3.268 10.33.707l21.005-17.461v54.461c0 33.987-32.71 57.012-63.007 48.807-21.713-5.611-37.798-25.366-37.798-48.807zm40.738 108.768v-44.076c5.967.885 12.68.988 19.329 0v44.076zm169.915 0v-44.076c6.098.903 12.805.966 19.329 0v44.076zm-380.567-108.768v-54.008l19.475 16.905c3.071 2.666 7.708 2.398 10.452-.604l19.771-21.627 19.772 21.627c2.702 2.956 7.25 3.268 10.33.707l21.005-17.461v54.461c0 32.505-30.718 57.115-63.045 48.796-21.693-5.624-37.76-25.369-37.76-48.796zm40.738 64.692c6.06.9 12.792.968 19.329 0v44.076h-19.329z"/></svg>