<svg id="Capa_1" enable-background="new 0 0 512 512" height="512" viewBox="0 0 512 512" width="512" xmlns="http://www.w3.org/2000/svg"><path d="m368.42 271.5 14.345-18.544c2.863-3.701 6.781-6.447 11.236-7.877l18.464-5.922c6.77-2.172 12.267-7.172 15.068-13.707l6.517-15.205c2.096-4.89 6.343-8.53 11.497-9.851l15.969-4.096c6.065-1.555 12.425 1.108 15.571 6.522l27.414 47.168v226.586l-63.734-27.771-81.427-143.853z" fill="#dc6742"/><path d="m400.199 340.332-10.783-34.335c-2.613-8.321-6.694-16.108-12.048-22.992l-34.652-44.552-156.745-16.285-23.41 78.372 63.105 43.566 131.299 14.45z" fill="#ed9b83"/><path d="m192.561 300.539 22.507-75.349-29.097-3.023-23.41 78.372z" fill="#e27858"/><path d="m117.933 218.55c-3.649-8.255-14.912-9.364-20.101-1.98l-9.221 13.122c-4.601 6.547-13.774 7.848-20.013 2.838-7.413-5.952-18.07-5.566-25.034.906l-36.064 33.515v209.622l79.742-38.628 59.525-154.164z" fill="#dc6742"/><path d="m471.768 427.834 32.732 48.739h-497l27.073-46.176 44.753-38.819 80.973 14.928 92.871-14.928 81.742 17.19 74.188-17.19z" fill="#e27858"/><path d="m71.809 366.903 32.684-55.738c5.95-10.144 15.298-17.861 26.393-21.783l23.695-8.358c7.261-2.563 15.007-3.407 22.646-2.475l111.379 13.6c6.552.806 12.386 4.494 15.919 10.066l8.727 13.785c3.213 5.077 8.367 8.62 14.269 9.794l72.677 14.541c9.464 1.893 17.803 7.455 23.19 15.463l6.96 10.357-21.248 25.423-74.188 17.19-81.742-17.19-92.871 14.928-80.973-14.928z" fill="#e27858"/><path d="m79.326 391.578-44.753 38.819-27.073 46.176h40l27.073-46.176 21.008-35.822z" fill="#ca5935"/><path d="m71.809 366.903 7.517 24.675 16.255 2.997 16.228-27.672 32.684-55.738c5.95-10.144 15.298-17.861 26.393-21.783l23.695-8.357c.266-.094.537-.169.805-.258l-18.159-2.217c-2.387-.291-4.784-.388-7.174-.334-5.258.119-10.48 1.048-15.472 2.81l-4.739 1.671-18.956 6.686c-4.854 1.716-9.374 4.158-13.421 7.212-1.734 1.309-3.382 2.73-4.932 4.254-1.033 1.017-2.023 2.079-2.966 3.185-1.886 2.211-3.586 4.596-5.074 7.131z" fill="#ca5935"/><path d="m471.768 427.834-13.745-6.232c-20.579-9.338-44.186-9.338-64.775 0-33.315 15.104-71.541 15.104-104.855 0-20.589-9.338-44.196-9.338-64.775 0-33.324 15.104-71.551 15.104-104.865 0-20.589-9.338-44.196-9.338-64.775 0l-19.404 8.795 37.236-63.494c22.627-2.611 45.798.893 66.988 10.493 20.579 9.338 44.186 9.338 64.775 0 33.315-15.104 71.541-15.104 104.855 0 20.589 9.338 44.196 9.338 64.775 0 18.123-8.212 37.692-11.959 57.145-11.241z" fill="#ed9b83"/><path d="m71.809 366.903-37.236 63.494 19.404-8.794c9.493-4.308 19.632-6.603 29.821-6.936l27.092-46.196c-12.888-2.538-26.073-3.069-39.081-1.568z" fill="#e27858"/><path d="m422.211 144.21-3.28-22.025c-1.676-11.255-7.203-21.581-15.639-29.218l-31.246-28.286c-13.101-11.86-29.655-19.213-47.238-20.983l-77.905-7.842c-15.127-1.523-30.386 1.02-44.203 7.365l-62.806 28.843c-11.417 5.243-19.865 15.35-23.001 27.516l-8.881 34.458c-1.986 7.706-.533 15.896 3.984 22.448l37.014 53.696c2.656 3.853 6.267 6.951 10.48 8.989l46.782 22.637c6.486 3.139 13.674 4.545 20.865 4.082l101.891-6.556c8.892-.572 17.368-3.974 24.187-9.708l53.779-45.218c11.71-9.848 17.471-25.065 15.217-40.198z" fill="#dc6742"/><path d="m111.725 156.07c.794 1.196 14.041 20.382 37.284 54.111 2.503 3.67 6.185 6.932 10.48 8.989l20.505 9.922 2.331 1.128c-1.224-3.135-2.335-6.054-3.316-7.729l-37.014-63.209c-4.517-7.714-5.97-17.354-3.984-26.425l8.881-40.563c1.836-8.386 5.496-19.366 10.504-28.269l-17.503 8.038c-11.417 5.243-19.865 15.35-23.001 27.516-9.681 37.501-9.827 36.844-9.747 41.76.068 4.151 1.681 10.357 4.58 14.731z" fill="#ca5935"/><ellipse cx="181.611" cy="150.857" fill="#ffa0ab" rx="24.738" ry="31.064" transform="matrix(.002 -1 1 .002 30.356 332.137)"/><ellipse cx="349.989" cy="151.226" fill="#ffa0ab" rx="24.738" ry="31.064" transform="matrix(.002 -1 1 .002 197.998 500.883)"/><path d="m192.538 132.453c0 4.141 3.357 7.498 7.498 7.498s7.498-3.357 7.498-7.498v-12.62c0-4.141-3.357-7.498-7.498-7.498s-7.498 3.357-7.498 7.498z"/><path d="m338.886 132.453v-12.62c0-4.141-3.357-7.498-7.498-7.498s-7.498 3.357-7.498 7.498v12.62c0 4.141 3.357 7.498 7.498 7.498s7.498-3.357 7.498-7.498z"/><path d="m265.904 156.82c4.028 3.639 9.361 5.859 15.203 5.859 12.517 0 22.7-10.183 22.7-22.7 0-4.141-3.357-7.498-7.498-7.498s-7.498 3.357-7.498 7.498c0 4.249-3.456 7.705-7.705 7.705s-7.705-3.456-7.705-7.705c0-4.141-3.357-7.498-7.498-7.498s-7.498 3.357-7.498 7.498c0 4.249-3.457 7.705-7.705 7.705s-7.705-3.456-7.705-7.705c0-4.141-3.357-7.498-7.498-7.498s-7.498 3.357-7.498 7.498c0 12.517 10.184 22.7 22.7 22.7 5.844-.001 11.177-2.22 15.205-5.859z"/><path d="m459.598 189.038-15.964 4.095c-7.355 1.886-13.531 7.179-16.522 14.157l-6.515 15.201c-1.946 4.54-5.759 8.009-10.462 9.517l-18.458 5.921c-5.924 1.9-11.067 5.505-14.874 10.426l-8.427 10.894-15.594-20.05c4.938-3.157 2.325-1.588 58.998-49.046 13.599-11.434 20.421-29.454 17.803-47.028l-3.279-22.018c-1.926-12.933-8.325-24.888-18.019-33.663l-31.237-28.278c-14.386-13.023-32.197-20.935-51.505-22.878l-77.882-7.84c-11.44-1.151-22.868-.184-33.969 2.874-3.992 1.099-6.337 5.227-5.237 9.219s5.229 6.337 9.219 5.237c9.311-2.564 18.894-3.375 28.486-2.41l77.882 7.84c16.099 1.621 30.948 8.217 42.943 19.075l31.237 28.278c7.128 6.453 11.834 15.245 13.25 24.755l3.279 22.018c1.855 12.459-2.981 25.235-12.622 33.341l-53.763 45.204c-4.33 3.64-9.41 6.096-14.899 7.271-5.684 1.202-6.422.518-106.798 7.245-5.885.378-11.803-.78-17.112-3.348l-46.768-22.63c-3.037-1.47-5.655-3.715-7.57-6.493l-37.002-53.68c-3.284-4.765-4.34-10.711-2.895-16.315l8.878-34.448c2.583-10.021 9.458-18.246 18.863-22.565l48.346-22.201c3.763-1.728 5.413-6.18 3.684-9.943-1.728-3.763-6.179-5.413-9.942-3.685l-48.346 22.203c-13.525 6.211-23.412 18.039-27.126 32.449l-8.878 34.448c-2.529 9.813-.681 20.225 5.069 28.569l37.003 53.68c3.386 4.912 8.014 8.882 13.385 11.48l18.168 8.79-10.904 36.506c-7.038.95-12.117 3.002-12.664 3.167l-26.019-58.864c-6.006-13.585-24.538-15.426-33.088-3.259l-9.218 13.118c-2.113 3.007-6.314 3.601-9.179 1.301-10.236-8.218-25.208-7.676-34.824 1.26l-36.054 33.506c-1.526 1.419-2.394 3.409-2.394 5.493.008 223.293-.505 210.553.94 213.181 1.254 2.225 3.492 3.775 6.562 3.877 517.813.001 497.37.182 499.034-.326 3.097-.94 5.313-3.858 5.313-7.172v-86.492c0-4.141-3.357-7.498-7.498-7.498s-7.498 3.357-7.498 7.498v61.879c-7.093-10.562-53.895-80.254-60.409-89.954-7.134-10.584-7.97-12.115-10.736-15.204-5.134-5.75-11.941-10.25-19.723-12.655l-9.53-30.346c-5.426-17.278-14.655-26.795-18.654-32.253l10.782-13.939c1.943-2.511 4.568-4.352 7.592-5.322l18.458-5.921c8.84-2.835 16.008-9.355 19.665-17.889l6.515-15.201c1.17-2.731 3.587-4.801 6.464-5.539l15.964-4.094c2.802-.719 5.77.526 7.222 3.024l26.39 45.407v108.015c0 4.141 3.357 7.498 7.498 7.498s7.498-3.357 7.498-7.498c-.358-115.113.874-110.551-1.015-113.803l-27.405-47.155c-4.809-8.273-14.642-12.391-23.913-10.014zm-235.125 64.422c-4.952.483 105.705-6.685 107.129-6.837 2.21-.242 4.325-.613 6.437-1.126l.702.073c18.983 24.406 13.733 17.657 32.679 42.015 10.83 13.925 11.65 25.501 17.796 42.874-63.693-12.77-60.348-12.006-61.671-12.415-2.337-.721-4.46-2.032-6.154-3.783-1.776-1.835-1.71-2.311-10.541-16.088-4.74-7.477-12.509-12.405-21.338-13.491l-110.338-13.473 8.927-29.886 14.927 7.222c6.801 3.295 14.383 4.915 21.445 4.915zm-48.125 32.511 111.339 13.595c2.709.333 5.22 1.403 7.292 3.057 3.185 2.543 3.607 4.613 11.926 17.354 4.292 6.781 11.268 11.568 19.13 13.134 75.775 15.161 76.993 14.183 84.472 19.831 2.273 1.718 4.275 3.767 5.847 5.911-15.815 1.091-31.824 5.112-46.278 11.666-18.604 8.441-39.948 8.441-58.561-.001-34.306-15.553-74.782-16.428-111.018.001-18.329 8.315-39.716 8.551-58.564-.001-16.62-7.671-36.625-12.142-56.486-11.991l25.565-43.597c5.052-8.612 13.018-15.179 22.412-18.499l23.69-8.356c6.289-2.221 13.111-2.851 19.234-2.104zm213.769 128.739c-30.664 13.903-66.617 14.514-98.631 0-22.554-10.229-48.463-10.206-70.948 0-31.349 14.209-67.302 14.209-98.642 0-.001 0-.001 0-.002 0-21.802-9.896-46.838-10.209-68.846-.919-.005.002-.01.004-.015.006l23.372-39.853c19.053-1.582 38.234 1.412 55.712 8.663 5.535 2.289 18.638 9.239 39.094 9.239 18.292 0 28.835-5.081 40.02-9.606 30.905-12.5 64.913-11.292 94.09 1.935 22.534 10.22 48.391 10.237 70.948.001 14.993-6.798 32.264-10.737 49.98-10.649l25.179 37.491c-.108-.034-.218-.061-.326-.095-19.746-6.141-40.189-5.171-60.985 3.787zm-341.38-175.79c4.205-3.908 10.752-4.145 15.228-.552 9.602 7.709 23.755 5.705 30.836-4.373l9.218-13.117c1.838-2.614 5.814-2.217 7.103.699l25.551 57.804c-4.958 2.172-17.259 4.213-29.348 16.1-8.189 8.051-3.849 2.651-92.248 153.399v-178.68zm-28.07 230.076 19.241-32.818 17.233-7.811c19.123-8.675 40.543-8.17 58.561.001 35.274 15.993 75.742 15.993 111.029-.001 13.002-5.899 27.451-7.732 41.644-5.222 16.311 2.892 19.039 8.162 40.704 13.423 28.945 7.028 59.671 4.295 87.231-8.201 18.608-8.44 39.951-8.445 58.562 0l11.8 5.35c5.992 8.922 18.694 27.836 23.693 35.278h-469.698z"/></svg>