<svg id="Capa_1" enable-background="new 0 0 512 512" height="512" viewBox="0 0 512 512" width="512" xmlns="http://www.w3.org/2000/svg"><path d="m218.865 255.549c-23.716 0-42.839-19.662-41.959-43.574.804-21.851 18.652-39.638 40.505-40.378 4.563-.155 8.969.422 13.111 1.619 5.183 1.498 10.641-1.016 12.798-5.962 7.013-16.083 23.045-27.328 41.712-27.328 2.049 0 4.065.137 6.041.401 5.029.673 9.764-2.333 11.44-7.122 9.149-26.141 34.025-44.892 63.289-44.892 37.03 0 67.049 30.019 67.049 67.049 0 .512-.006 1.023-.018 1.533-.025 1.076.862 1.931 1.939 1.93h.021c17.801 0 32.231 14.43 32.231 32.231s-14.43 32.231-32.231 32.231v32.261h-215.928z" fill="#e8e8e8"/><path d="m255.941 99.976c-.011-.141-.023-.283-.036-.425-1.224-13.426-12.016-24.272-25.431-25.607-.116-.012-.231-.022-.347-.032-5.494-.481-9.532-5.179-9.279-10.688.073-1.587.058-3.198-.05-4.827-1.398-21.052-18.423-38.106-39.475-39.499-15.37-1.017-29.128 6.153-37.355 17.575-2.125 2.95-6.157 3.735-9.232 1.793-5.846-3.692-12.771-5.83-20.196-5.83-20.934 0-37.905 16.971-37.905 37.905v.064c.005 2.776-2.524 4.822-5.223 4.176-2.736-.655-5.625-.914-8.605-.713-14.195.958-25.657 12.602-26.407 26.81-.008.142-.014.283-.019.425-.424 11.087 8.571 20.259 19.665 20.259h179.917c11.596 0 20.865-9.825 19.978-21.386z" fill="#e8e8e8"/><path d="m218.865 255.549h215.926v-32.261c17.801 0 32.231-14.43 32.231-32.231 0-8.914-3.619-16.982-9.468-22.817-.631-.002-1.258-.006-1.898-.006-58.889 0-162.664 11.823-256.539 82.377 5.888 3.145 12.607 4.938 19.748 4.938z" fill="#c7c5cb"/><path d="m263.977 244.697s-121.798-90.046-256.477-14.727v86.176l150.311 28.499 93.64-52.927z" fill="#36d39a"/><path d="m233.962 227.248c-29.176 17.377-58.055 39.689-85.071 68.301l-29.688 31.44 40.003 16.866 92.244-52.138 12.526-47.021c.001.001-10.99-8.122-30.014-17.448z" fill="#00c071"/><path d="m504.5 316.145v-114.674s-193.935-33.446-333.796 114.675l85.296 35.963z" fill="#80dfb5"/><path d="m294.477 316.145 105.011 88.526-45.978 88.526h-195.02l-45.978-88.526 105.011-88.526z" fill="#ffaacb"/><path d="m361.653 316.145h142.847v177.052l-105.012-88.526z" fill="#5bd6fd"/><path d="m150.347 316.145h-142.847v177.052l105.012-88.526z" fill="#f8e86a"/><path d="m7.5 493.197 142.847-177.052h67.176l-59.033 177.052z" fill="#ff71a7"/><path d="m504.5 493.197-142.847-177.052h-67.176l59.033 177.052z" fill="#817cd0"/><path d="m157.847 407.19v-16.419c0-4.142-3.358-7.5-7.5-7.5s-7.5 3.358-7.5 7.5v16.419c0 4.142 3.358 7.5 7.5 7.5s7.5-3.358 7.5-7.5z"/><path d="m361.652 383.271c-4.142 0-7.5 3.358-7.5 7.5v16.419c0 4.142 3.358 7.5 7.5 7.5s7.5-3.358 7.5-7.5v-16.419c0-4.142-3.358-7.5-7.5-7.5z"/><path d="m278.2 405.541c-5.604 6.43-13.695 10.117-22.201 10.117s-16.597-3.688-22.2-10.117c-2.721-3.123-7.459-3.448-10.582-.727s-3.448 7.458-.727 10.582c17.701 20.311 49.266 20.37 67.018 0 2.721-3.123 2.396-7.86-.727-10.582-3.122-2.721-7.86-2.396-10.581.727z"/><path d="m181.818 11.415c-17.162-1.135-33.409 6.405-43.585 20.194-28.568-17.517-66.115 1.194-68.938 34.975-32.308-4.064-52.057 34.004-32.885 53.923 5.11 5.31 12.268 8.354 19.637 8.354h179.917c7.662 0 15.042-3.224 20.25-8.846 8.818-9.52 7.191-20.506 7.205-20.609-.008-.101-.053-.636-.045-.536-1.556-17.068-15.08-30.689-32.16-32.39l-.433-.04c-1.46-.128-2.51-1.363-2.44-2.874 1.261-27.573-19.969-50.395-46.523-52.151zm47.653 69.968.26.024c14.614 1.455 24.172 19.03 15.479 28.416-2.413 2.604-5.696 4.039-9.245 4.039h-179.918c-6.808 0-12.434-5.597-12.171-12.475l.015-.314c.663-12.565 12.839-22.298 25.775-19.198 7.352 1.762 14.483-3.763 14.469-11.534 0-24.116 26.693-38.301 46.596-25.733 6.407 4.046 14.894 2.397 19.323-3.751 7.108-9.869 18.621-15.278 30.773-14.475 18.69 1.237 33.409 17.314 32.528 36.497-.438 9.546 6.642 17.675 16.116 18.504z"/><path d="m505.774 194.079c-.963-.166-12.4-2.08-31.255-2.95.1-19.671-14.572-36.697-34.259-39.426-1.914-39.413-34.581-70.89-74.46-70.89-31.64 0-59.918 20.059-70.368 49.914-.515 1.472-1.891 2.362-3.367 2.166-23.263-3.114-46.078 9.476-55.621 31.362-.643 1.474-2.258 2.211-3.84 1.754-25.716-7.433-52.326 7.005-60.655 31.88-22.86-4.819-45.694-6.462-68.086-4.876-34.681 2.456-68.334 12.687-100.023 30.409-2.371 1.327-3.84 3.831-3.84 6.547v86.176 177.052c0 4.101 3.366 7.47 7.453 7.497.015 0 .03.004.045.004h.009 496.985.009c.015 0 .03-.004.045-.004 4.066-.026 7.453-3.372 7.453-7.497 0-9.917 0-276.46 0-291.727.001-3.65-2.627-6.77-6.225-7.391zm-42.193 237.394s-.001 0-.001-.001c-2.536-1.359-5.81-1.194-8.255.774-3.224 2.602-3.728 7.323-1.127 10.547l34.615 42.904h-129.897l-54.032-162.052h53.184l77.489 96.044c2.601 3.224 7.323 3.728 10.546 1.127 3.233-2.609 3.721-7.331 1.127-10.546l-69.89-86.625h119.66v148.312l-17.912-22.201c-13.605-16.552-13.167-17.029-15.507-18.283zm33.419-122.828c-50.164 0-260.441 0-308.277 0 68.866-66.157 158.501-99.685 254.233-102.694 25.447-.761 44.714.953 54.044 2.062zm-382.061 61.889c1.396-7.627-8.347-12.103-13.214-6.068l-86.725 107.491v-148.312h119.66l-14.551 18.035c-1.463 1.813-1.943 4.101-1.51 6.218 1.268 6.194 9.216 8.121 13.184 3.201l22.15-27.454h53.184l-54.032 162.052h-129.897c96.852-120.066 91.266-112.523 91.751-115.163zm71.664-169.123c6.307-16.704 24.464-26.014 41.836-20.991 8.767 2.534 18.123-1.837 21.755-10.169 6.807-15.612 23.104-24.732 39.883-22.49 8.46 1.132 16.668-3.948 19.514-12.078 8.346-23.847 30.935-39.87 56.209-39.87 33.363 0 60.297 27.548 59.533 60.905-.126 5.391 4.251 9.607 9.453 9.607h.004c13.525 0 24.548 10.912 24.728 24.395-65.2-.578-133.905 13.496-195.004 45.228-22.759-15.155-51.821-27.497-77.911-34.537zm-171.603 33.002c28.483-15.273 58.563-24.152 89.479-26.404 51.062-3.72 103.253 11.117 144.971 36.201-28.918 16.761-56.931 38.378-81.96 64.436-19.286 0-125.696 0-152.489 0v-74.233zm153.896 251.284 54.032-162.052h66.143l54.032 162.052z"/></svg>