<svg id="Capa_1" enable-background="new 0 0 512 512" height="512" viewBox="0 0 512 512" width="512" xmlns="http://www.w3.org/2000/svg"><circle cx="107.431" cy="232.332" fill="#ff71a7" r="75.924"/><path d="m137.431 288.255c-41.932 0-75.924-33.992-75.924-75.924 0-19.828 7.608-37.874 20.055-51.396-29.194 10.58-50.055 38.55-50.055 71.396 0 41.932 33.992 75.924 75.924 75.924 22.104 0 41.994-9.452 55.869-24.527-8.074 2.927-16.784 4.527-25.869 4.527z" fill="#fa3482"/><path d="m279.274 357.841-42.53-26.026c-3.661-2.238-6.763-5.374-8.965-9.067l-26.152-43.863 25.862-15.419 25.707 43.119 41.793 25.576z" fill="#e27858"/><path d="m404.115 404.845-39.006-52.976c-1.822-2.474-3.154-5.273-3.925-8.247l-6.438-24.833c-1.585-6.113.094-12.611 4.441-17.191l46.053-48.526c.869-.916 1.665-1.898 2.381-2.938l32.158-46.712c1.78-2.586 3.116-5.452 3.952-8.478l12.301-44.539-36.95 10.758-30.154 49.628c-2.236 3.68-5.705 6.447-9.79 7.809l-69.035 23.012-28.911-82.319h-30.957l30.957 89.803 14.882 55.999c.905 3.404.569 7.018-.947 10.197l-10.86 22.772c-1.957 4.103-5.566 7.18-9.928 8.463l-21.41 6.298c-5.254 1.545-9.527 5.383-11.627 10.441l-17.26 41.581h180.073z" fill="#e27858"/><path d="m294.99 332.159-28.291-17.313c-5.008 6.541-11.998 11.396-20.033 13.76l-.792.233c-2.934.863-5.726 2.03-8.357 3.448l41.758 25.554z" fill="#dc6742"/><path d="m404.115 404.845-39.006-52.976c-1.822-2.474-3.154-5.273-3.925-8.247l-6.438-24.833c-1.585-6.113.094-12.611 4.441-17.191l46.053-48.526c.869-.916 1.665-1.898 2.381-2.938l32.158-46.712c1.78-2.586 3.116-5.452 3.952-8.478l12.301-44.539-36.95 10.758-30.154 49.628c-2.236 3.68-5.705 6.447-9.79 7.809l-69.035 23.012-28.911-82.319h-30.957l30.957 89.803 14.882 55.999c.905 3.404.569 7.018-.947 10.197l-10.86 22.772c-1.957 4.103-5.566 7.18-9.928 8.463l-21.41 6.298c-5.254 1.545-9.527 5.383-11.627 10.441l-17.26 41.581h180.073z" fill="#e27858"/><path d="m456.032 150.404-36.95 10.757-26.209 43.135h46.303l.603-.875c1.781-2.586 3.116-5.452 3.952-8.478z" fill="#dc6742"/><path d="m281.191 159.291h-30.957l15.515 45.006h31.249z" fill="#dc6742"/><path d="m445.296 82.553c-2.207-.185-3.9-2.039-3.9-4.254 0-33.744-27.299-61.626-61.041-61.24-22.814.261-42.58 13.186-52.61 32.072-2.082 3.92-6.811 5.712-10.929 4.058-5.731-2.302-11.988-3.569-18.543-3.569-20.086 0-37.384 11.893-45.261 29.017-1.711 3.719-5.816 5.718-9.813 4.834-4.323-.956-8.874-1.304-13.564-.939-22.525 1.755-40.646 20.019-42.198 42.558-1.848 26.851 19.386 49.207 45.842 49.207h207.361c25.2 0 46.283-19.972 46.704-45.168.407-24.421-18.238-44.576-42.048-46.576z" fill="#f8e86a"/><path d="m217.438 122.176c1.09-16.781 10.373-31.314 23.611-39.121-3.674-.63-7.494-.829-11.413-.523-22.525 1.755-40.646 20.019-42.198 42.559-1.848 26.851 19.386 49.207 45.842 49.207h30c-26.456-.001-47.69-23.681-45.842-52.122z" fill="#fab659"/><path d="m340.518 254.606c-.602-21.889-19.643-41.328-41.516-42.354-12.296-.577-23.534 3.942-31.794 11.622-2.472 2.299-6.131 2.613-9.017.861-5.267-3.199-11.447-5.044-18.06-5.044-15.698 0-28.97 10.373-33.343 24.639-.874 2.853-4.126 4.166-6.708 2.671-3.918-2.268-8.546-3.446-13.471-3.114-11.74.791-21.263 10.366-21.993 22.11-.855 13.763 10.053 25.191 23.631 25.191h116.384c19.491 0 35.762-15.541 35.903-35.031.003-.515-.002-1.032-.016-1.551z" fill="#f8e86a"/><path d="m189.615 265.998c.487-7.839 4.903-14.695 11.27-18.634-.273-.095-.543-.211-.805-.363-3.918-2.268-8.546-3.446-13.471-3.114-11.74.791-21.263 10.366-21.993 22.11-.855 13.762 10.053 25.191 23.631 25.191h25c-13.578 0-24.487-11.428-23.632-25.19z" fill="#fab659"/><ellipse cx="264.021" cy="131.534" fill="#ffa0ab" rx="29.462" ry="23.462"/><ellipse cx="423.716" cy="131.534" fill="#ffa0ab" rx="29.462" ry="23.462"/><path d="m7.5 394.846h497v100.099h-497z" fill="#fab659"/><path d="m281.191 116.448c4.142 0 7.5-3.357 7.5-7.5v-12.043c0-4.142-3.358-7.5-7.5-7.5s-7.5 3.358-7.5 7.5v12.043c0 4.143 3.358 7.5 7.5 7.5z"/><path d="m406.545 116.448c4.142 0 7.5-3.357 7.5-7.5v-12.043c0-4.142-3.358-7.5-7.5-7.5s-7.5 3.358-7.5 7.5v12.043c0 4.143 3.358 7.5 7.5 7.5z"/><path d="m366.047 113.518c2.721-3.123 2.396-7.86-.727-10.582s-7.86-2.396-10.582.727c-5.747 6.595-15.977 6.614-21.74 0-2.722-3.123-7.459-3.448-10.582-.727s-3.448 7.459-.727 10.582c11.738 13.467 32.633 13.453 44.358 0z"/><path d="m504.5 387.346h-103.956l-29.396-39.924c-3.201-4.347-2.531-6.353-9.142-30.515-.942-3.632.038-7.425 2.621-10.146 48.884-51.699 46.686-48.763 49.172-52.374 31.318-46.505 34.43-47.557 37.161-57.447l4.775-17.291c22.198-6.42 38.709-26.576 39.107-50.396.452-27.05-19.538-50.155-46.005-53.85-1.498-36.758-31.744-66.278-68.568-65.845-24.824.284-47.489 14.099-59.148 36.054-.295.556-.973.833-1.51.616-28.282-11.359-60.68 1.594-73.413 29.273-.229.499-.809.771-1.379.645-32.368-7.159-62.677 16.659-64.864 48.428-2.184 31.731 23.077 57.222 53.324 57.222h16.78l12.46 36.146c-.144.13-.293.251-.435.382-21.908-13.307-51.531-4.303-61.351 20.613-3.167-1.388-6.539-2.22-9.995-2.494 3.254-65.002-66.058-108.034-122.682-77.668-3.65 1.958-5.022 6.504-3.065 10.154 1.958 3.65 6.504 5.022 10.154 3.065 47.687-25.576 105.783 12.404 100.373 67.053-15.002 6.73-21.867 23.648-16.793 38.542-13.01 14.775-31.47 23.166-51.295 23.166-37.729 0-68.424-30.695-68.424-68.424 0-15.83 5.26-30.699 15.212-42.998 2.605-3.22 2.107-7.942-1.113-10.548s-7.942-2.108-10.548 1.112c-11.963 14.785-18.552 33.406-18.552 52.433 0 46 37.424 83.424 83.424 83.424 22.805 0 44.123-9.102 59.777-25.25 5.717 5.221 13.255 8.183 21.038 8.183h16.457l16.634 27.9c2.824 4.734 6.798 8.755 11.495 11.625l14.36 8.788c-5.765 2.685-10.335 7.407-12.818 13.387l-11.19 26.958h-215.682c-4.143 0-7.5 3.358-7.5 7.5v100.099c0 4.142 3.357 7.5 7.5 7.5h497c4.142 0 7.5-3.358 7.5-7.5v-100.098c0-4.142-3.358-7.5-7.5-7.5zm-58.56-312.266c-.005 0-.011-.001-.016-.001.006.001.01.001.016.001zm-251.02 50.525c1.569-22.809 23.335-39.969 46.659-34.812 7.413 1.64 15.087-2.154 18.247-9.022 9.366-20.36 33.233-30.041 54.195-21.623 7.689 3.088 16.438-.136 20.349-7.5 16.342-30.773 57.976-38.055 83.446-12.875 10.37 10.252 16.081 23.934 16.081 38.526 0 6.069 4.731 11.22 10.772 11.728 20.062 1.686 35.513 18.807 35.177 38.978-.348 20.856-17.978 37.793-39.205 37.793-24.158 0-182.719 0-207.361 0-22.263-.001-39.904-18.777-38.36-41.193zm110.434 79.849-8.309-23.657h100.723l-15.25 25.099c-1.312 2.159-3.355 3.789-5.752 4.588l-39.875 13.292c-7.824-9.89-19.08-17.089-31.537-19.322zm-39.428-23.657h15.221l8.235 23.448c-4.356.614-9.331 2.027-13.941 4.155zm-93.44 89.348c-3.145-13.786 11.779-24.634 23.836-17.653 6.741 3.904 15.342.52 17.637-6.964 5.357-17.479 25.504-24.394 40.338-15.382 5.735 3.483 13.144 2.752 18.018-1.779 6.365-5.916 14.837-9.551 24.183-9.654 2.087-.022 2.905.09 2.803.082 15.787.752 31.964 15.44 33.595 33.039 1.59 17.592-12.244 30.854-28.265 30.854-35.303 0-81.21 0-116.384 0-7.822.001-14.132-5.46-15.761-12.543zm116.339 35.875c1.05 3.949-1.387 6.264-3.143 10.65l-26.991-16.518-1.469-2.464h29.39zm-48.17 18.396c-2.628-1.606-4.853-3.857-6.435-6.509l-12.054-20.218h17.591l6.997 11.735c1.664 2.793 1.468 1.572 32.435 20.859-1.589 3.228-1.741 3.922-2.629 5.076-2.347 3.047-5.434 3.121-7.173 3.806l-3.128.92-25.6-15.666c-.002-.002-.003-.003-.004-.003zm256.345 162.029h-482v-85.099h300.139c4.143 0 7.5-3.358 7.5-7.5s-3.357-7.5-7.5-7.5h-75.713l8.803-21.207c1.237-2.979 3.721-5.211 6.816-6.122l12.253-3.604h.001c6.475-2.346 13.252-2.429 19.547-9.041 4.046-4.25 4.898-8.079 8.791-15.731 0 0 0-.001 0-.002l6.257-13.121c4.582-9.607.558-17.462.236-19.83.188 0 2.631 0 2.5 0 23.797 0 44.078-19.292 43.384-44.29v.002c-.15-5.453-1.342-11.168-3.402-16.388l36.896-12.298c5.763-1.921 10.674-5.838 13.828-11.029l19.983-32.888h24.261c-7.846 23.528 6.68-1.898-38.137 64.084-1.393 2.024.467-.298-47.698 50.555-6.169 6.501-8.509 15.562-6.26 24.236 6.255 22.058 5.787 27.771 11.583 35.644l22.848 31.03h-36.778c-4.142 0-7.5 3.358-7.5 7.5s3.358 7.5 7.5 7.5h151.861v85.099z"/></svg>