<svg id="Capa_1" enable-background="new 0 0 512 512" height="512" viewBox="0 0 512 512" width="512" xmlns="http://www.w3.org/2000/svg"><path d="m228.408 280.274-.002-.002c-15.945-13.455-39.268-13.455-55.214 0l-.003.002m0 0-.008-.007c-15.945-13.452-39.264-13.453-55.209 0l-.009.007m0 0-.01-.009c-15.945-13.452-39.263-13.451-55.208 0l-.01.008m220.89.001-.004-.003c-15.946-13.454-39.269-13.453-55.214.003m-165.672 0-.016-.013c-15.944-13.449-39.26-13.449-55.204 0v131.666l199.962 29.036 297.023-29.037v-131.653c-15.946-13.456-39.269-13.456-55.215-.001l-.001.001m-110.439.001-.003-.003c-15.945-13.454-39.267-13.455-55.213 0l-.004.003m165.659 0-.004-.004c-15.946-13.454-39.268-13.453-55.213.001l-.003.002m0 .001-.004-.003c-15.945-13.454-39.268-13.454-55.213 0l-.003.002" fill="#00c071"/><path d="m319.466 13.223c-38.733-.912-70.418 30.214-70.418 68.74v.187c.027 9.765-2.886 19.338-8.777 27.127-7.35 9.718-11.712 21.818-11.712 34.943 0 4.202.45 8.298 1.302 12.244 1.36 6.299-1.527 12.845-7.124 16.04-15.042 8.585-25.034 24.999-24.413 43.698.859 25.845 22.381 46.683 48.24 46.754 26.795.073 48.539-21.626 48.539-48.403 0-.311-.003-.62-.009-.929-.126-6.584 4.086-12.382 10.315-14.517 17.628-6.044 31.419-20.338 36.769-38.277 2.753-9.23 8.169-17.52 15.965-23.176 17.297-12.55 28.52-32.963 28.422-55.991-.157-37.005-30.104-67.569-67.099-68.44z" fill="#c7c5cb"/><path d="m220.326 216.202c-.621-18.699 9.371-35.113 24.413-43.698 5.597-3.195 8.484-9.741 7.124-16.04-.852-3.946-1.302-8.042-1.302-12.244 0-13.125 4.362-25.226 11.712-34.943 5.891-7.789 8.803-17.362 8.776-27.127 0-.063 0-.125 0-.187 0-34.226 25.014-62.59 57.753-67.861-3.052-.496-6.165-.804-9.335-.879-38.733-.912-70.418 30.214-70.418 68.74v.187c.027 9.765-2.886 19.338-8.776 27.127-7.35 9.717-11.712 21.818-11.712 34.943 0 4.202.45 8.297 1.302 12.244 1.36 6.299-1.527 12.845-7.124 16.04-15.042 8.585-25.034 24.999-24.413 43.698.859 25.845 22.381 46.684 48.24 46.754 3.85.011 7.591-.442 11.183-1.281-20.792-4.89-36.688-23.339-37.423-45.473z" fill="#b2b0bc"/><path d="m95.746 293.074s-7.825 67.876-64.823 118.852l176.555 29.036 176.555-29.036c-56.998-50.976-64.823-118.852-64.823-118.852v-44.819h-219.075z" fill="#ff71a7"/><path d="m56.923 411.926c56.998-50.976 64.823-118.852 64.823-118.852l4.389-44.819h-26l-4.389 44.819s-7.825 67.876-64.823 118.852z" fill="#fa3482"/><path d="m304.848 224.628h-194.741c-14.991 0-27.143 12.153-27.143 27.143v38.214c0 11.43 9.266 20.696 20.696 20.696s20.696-9.266 20.696-20.696v-13.91c0-7.682 6.228-13.91 13.91-13.91 7.682 0 13.91 6.228 13.91 13.91v33.324c0 11.43 9.266 20.696 20.696 20.696 11.43 0 20.696-9.266 20.696-20.696v-33.324c0-7.682 6.228-13.91 13.91-13.91s13.91 6.228 13.91 13.91v13.91c0 11.43 9.266 20.696 20.696 20.696 11.43 0 20.696-9.266 20.696-20.696v-13.91c0-7.682 6.228-13.91 13.91-13.91s13.91 6.228 13.91 13.91v23.617c0 11.43 9.266 20.696 20.696 20.696 11.43 0 20.696-9.266 20.696-20.696v-47.921c-.001-14.991-12.154-27.143-27.144-27.143z" fill="#f8e86a"/><path d="m104.964 289.985v-38.214c0-14.991 12.152-27.144 27.143-27.144h-22c-14.991 0-27.143 12.153-27.143 27.144v38.214c0 11.43 9.266 20.696 20.696 20.696 4.047 0 7.811-1.179 11-3.188-5.818-3.663-9.696-10.125-9.696-17.508z" fill="#fab659"/><path d="m7.5 411.926h497v86.871h-497z" fill="#80dfb5"/><path d="m183.505 377.723c-2.721 3.123-2.396 7.86.727 10.582 3.122 2.721 7.86 2.396 10.582-.727 6.693-7.681 18.615-7.705 25.328 0 1.483 1.702 3.564 2.572 5.657 2.572 6.345 0 9.916-7.533 5.651-12.427-12.687-14.557-35.273-14.541-47.945 0z"/><path d="m153.091 349.364-26.775-7.175c-3.999-1.072-8.113 1.302-9.186 5.303-1.072 4.001 1.302 8.114 5.303 9.186l8.799 2.358c-1.248 2.611-.528 4.066-.736 14.758 0 4.142 3.358 7.5 7.5 7.5s7.5-3.358 7.5-7.5v-10.936l3.712.995c3.993 1.073 8.113-1.297 9.186-5.303 1.072-4.001-1.302-8.114-5.303-9.186z"/><path d="m288.639 342.19-26.775 7.175c-4.001 1.072-6.375 5.185-5.303 9.186 1.075 4.01 5.198 6.375 9.186 5.303l3.712-.995v10.936c0 4.142 3.358 7.5 7.5 7.5s7.5-3.358 7.5-7.5c-.209-10.722.511-12.149-.736-14.758l8.799-2.358c4.001-1.072 6.375-5.185 5.303-9.186s-5.184-6.376-9.186-5.303z"/><path d="m394.061 270.96c-16.556-10.908-37.918-11.035-54.57-.411v-18.741c0-19.102-15.541-34.643-34.644-34.643h-2.311c.067-1.454.08-2.463.057-3.647-.062-3.256 2.047-6.181 5.25-7.279 19.97-6.847 35.493-23.007 41.524-43.228 2.377-7.97 7.058-14.806 13.182-19.249 19.84-14.395 31.622-37.607 31.518-62.094-.232-54.24-57.204-92.342-108.04-69.002-3.765 1.728-5.416 6.181-3.687 9.945 1.728 3.765 6.181 5.415 9.945 3.687 40.758-18.71 86.596 11.806 86.782 55.435.084 19.671-9.384 38.321-25.326 49.889-8.903 6.459-15.386 15.831-18.747 27.103-4.649 15.588-16.617 28.047-32.015 33.326-9.388 3.219-15.569 11.962-15.381 21.754.021 1.109-.002 2.219-.074 3.362h-81.644c-.979-15.158 6.631-30.15 20.577-38.111 8.36-4.771 12.775-14.697 10.737-24.136-2.949-13.661-.257-28.76 9.06-41.08 6.768-8.947 10.327-19.899 10.295-31.651.059-.334-1.275-20.948 14.296-39.519 2.661-3.174 2.246-7.904-.928-10.566s-7.905-2.246-10.566.928c-11.48 13.69-17.802 31.082-17.802 48.97-.075.495.77 12.176-7.258 22.789-12.068 15.957-15.595 35.525-11.759 53.294.672 3.113-.771 6.379-3.51 7.943-18.047 10.301-29.125 29.798-28.153 51.138h-80.761c-19.103 0-34.644 15.541-34.644 34.643v13.173c-4.495 1.394-8.783 3.399-12.722 5.984-18.425-12.148-42.816-10.949-60.062 3.6-1.689 1.425-2.664 3.522-2.664 5.732 0 .117-.016 218.394-.016 218.536 0 4.142 3.358 7.5 7.5 7.5h497c4.142 0 7.5-3.358 7.5-7.5 0-8.134 0-210.362 0-218.523 0-2.209-.975-4.307-2.663-5.732-17.243-14.55-41.627-15.756-60.052-3.616-16.772-11.052-38.481-11.046-55.224-.003zm-28.378 133.503h-316.422c22.294-23.999 39.252-54.184 48.715-86.821 17.514 3.6 33.879-9.846 33.879-27.62v-13.91c0-3.538 2.879-6.41 6.41-6.41 3.525 0 6.41 2.866 6.41 6.41v33.324c0 15.547 12.648 28.196 28.196 28.196s28.196-12.648 28.196-28.196v-33.324c0-3.538 2.879-6.41 6.41-6.41s6.41 2.888 6.41 6.41v13.91c0 15.547 12.648 28.196 28.196 28.196 15.022 0 27.399-11.822 28.159-26.747.064-1.262.025-.816.037-15.359 0-3.785 3.281-6.763 7.065-6.377 3.181.323 5.756 3.036 5.756 6.377v23.617c0 19.019 18.561 32.629 36.693 26.885 9.077 26.996 25.406 55.833 45.89 77.849zm-275.219-152.655c0-10.831 8.812-19.643 19.644-19.643h194.74c10.832 0 19.644 8.812 19.644 19.643v23.782c-.03 25.659.147 24.855-.307 26.944-.541 2.488-1.841 4.764-3.477 6.428-8.397 8.549-22.607 2.382-22.607-9.233v-23.617c0-10.33-7.354-18.975-17.101-20.975-13.296-2.727-25.72 7.478-25.72 20.975v13.91c0 7.276-5.919 13.196-13.196 13.196-7.276 0-13.195-5.92-13.195-13.196v-13.91c0-10.33-7.354-18.975-17.101-20.975-13.296-2.727-25.72 7.478-25.72 20.975v33.324c0 7.276-5.919 13.196-13.196 13.196s-13.196-5.92-13.196-13.196v-33.324c0-11.806-9.604-21.41-21.41-21.41s-21.41 9.604-21.41 21.41v13.91c0 7.601-6.494 13.818-14.356 13.137-6.868-.632-12.035-6.403-12.035-13.137-.001-13.557-.001-24.927-.001-38.214zm-75.448 32.179c13.01-9.037 30.541-8.356 42.883 2.055 2.749 2.32 6.824 2.387 9.683-.008 2.402-2.027 5.056-3.716 7.882-5.031.647 4.669-2.986 18.475 8.916 29.58-9.657 35.392-29.061 68.696-56.377 93.88h-12.987zm481.984.013v120.463h-37.208c-4.142 0-7.5 3.358-7.5 7.5s3.358 7.5 7.5 7.5h37.208v71.871h-482v-71.871h414.792c4.142 0 7.5-3.358 7.5-7.5s-3.358-7.5-7.5-7.5h-42.847c-23.837-21.946-43.16-51.426-54.18-86.461 4.147-4.85 6.727-11.323 6.727-18.272v-11.948c1.504-.13 2.975-.713 4.194-1.742 13.193-11.132 32.346-11.133 45.499-.035 2.792 2.393 6.91 2.407 9.721.035 13.193-11.133 32.345-11.133 45.539 0 2.775 2.343 6.865 2.377 9.679.002 12.33-10.406 29.866-11.086 42.876-2.042z"/></svg>