<svg id="Capa_1" enable-background="new 0 0 512 512" height="512" viewBox="0 0 512 512" width="512" xmlns="http://www.w3.org/2000/svg"><path d="m236.52 122.05 124.45 174.68-218.01 26.95-135.46-26.95v-124.55l35.71-50.13 62.007-42.098h72.233z" fill="#de8957"/><path d="m313.33 185.97-88.18 110.76 171.33 26.95 108.02-26.95v-76.34l-26.68-33.52-51.05-30.025h-61.945z" fill="#de8957"/><path d="m364.825 156.845-51.495 29.125-22.045 27.69-66.135 83.071h.001 29.999l88.18-110.761 23.188-29.125z" fill="#c76d33"/><path d="m477.82 186.87-3 1.48c-4.94 2.43-10.3 3.65-15.67 3.65s-10.73-1.22-15.67-3.65-10.3-3.65-15.66-3.65-10.73 1.22-15.67 3.65-10.3 3.65-15.67 3.65c-5.36 0-10.72-1.22-15.66-3.65s-10.3-3.65-15.67-3.65c-5.36 0-10.73 1.22-15.66 3.65-9.88 4.86-21.46 4.86-31.34 0l-4.82-2.38 55.38-69.56c6.43-8.07 16.19-12.78 26.51-12.78s20.07 4.71 26.5 12.78z" fill="#e8e8e8"/><path d="m368.71 116.41-55.38 69.56 4.82 2.38c6.481 3.188 13.693 4.271 20.677 3.276l4.503-5.656 55.38-69.56c3.146-3.948 7.092-7.085 11.507-9.267-9.889-4.902-21.605-4.691-31.388.717-1.653.914-3.231 1.966-4.716 3.148-1.98 1.578-3.795 3.385-5.403 5.402z" fill="#c7c5cb"/><path d="m106.248 79.952h-1.031l-62.007 42.098-35.71 50.13v46.376l50.225-70.506z" fill="#c76d33"/><path d="m236.52 122.05-3.65 1.8c-5.87 2.89-12.23 4.33-18.6 4.33s-12.73-1.44-18.6-4.33-12.23-4.33-18.6-4.33-12.74 1.44-18.6 4.33c-5.87 2.89-12.23 4.33-18.61 4.33-6.36 0-12.74-1.44-18.6-4.33s-12.23-4.33-18.6-4.33c-6.36 0-12.74 1.44-18.6 4.33-11.72 5.78-25.47 5.78-37.2 0l-3.65-1.8 60.46-84.85c4.39-6.16 9.91-11.04 16.1-14.37s13.05-5.13 20.1-5.13c14.09 0 27.42 7.18 36.2 19.5z" fill="#e8e8e8"/><path d="m72.281 127.622 76.979-108.034c.165-.232.344-.448.511-.677-.001 0-.003 0-.004-.001-9.997-2.465-20.516-1.183-29.997 3.92-6.189 3.332-11.71 8.21-16.1 14.37l-60.46 84.85 3.65 1.8c7.965 3.925 16.861 5.177 25.421 3.772z" fill="#c7c5cb"/><path d="m7.5 357.921v-61.192h497v61.192l-105.692 44.854h-327.145z" fill="#80dfb5"/><path d="m504.5 426.112v-68.192c-22.346-11.181-48.654-11.181-71 0-22.346 11.181-48.654 11.181-71 0-22.346-11.181-48.654-11.181-71 0-22.346 11.181-48.654 11.181-71 0-22.346-11.181-48.654-11.181-71 0-22.346 11.181-48.654 11.181-71 0-22.346-11.181-48.654-11.181-71 0v68.192l44.591 29.903h398.446z" fill="#36d39a"/><path d="m7.5 426.112c22.346-11.181 48.654-11.181 71 0 22.346 11.181 48.654 11.181 71 0 22.346-11.181 48.654-11.181 71 0 22.346 11.181 48.654 11.181 71 0 22.346-11.181 48.654-11.181 71 0 22.346 11.181 48.654 11.181 71 0 22.346-11.181 48.654-11.181 71 0v68.192h-497z" fill="#00c071"/><path d="m77.417 185.298c-4.142 0-7.5 3.358-7.5 7.5v12c0 4.142 3.358 7.5 7.5 7.5s7.5-3.358 7.5-7.5v-12c0-4.142-3.358-7.5-7.5-7.5z"/><path d="m202.314 185.298c-4.142 0-7.5 3.358-7.5 7.5v12c0 4.142 3.358 7.5 7.5 7.5s7.5-3.358 7.5-7.5v-12c0-4.142-3.358-7.5-7.5-7.5z"/><path d="m161.257 198.787c-3.123-2.722-7.86-2.396-10.582.727-2.729 3.132-6.669 4.928-10.81 4.928s-8.081-1.796-10.81-4.928c-2.721-3.123-7.459-3.448-10.582-.727s-3.448 7.459-.727 10.582c5.579 6.401 13.641 10.073 22.119 10.073s16.54-3.672 22.119-10.073c2.721-3.123 2.396-7.861-.727-10.582z"/><path d="m334.036 219.801c-4.142 0-7.5 3.358-7.5 7.5v12c0 4.142 3.358 7.5 7.5 7.5s7.5-3.358 7.5-7.5v-12c0-4.142-3.358-7.5-7.5-7.5z"/><path d="m458.933 219.801c-4.142 0-7.5 3.358-7.5 7.5v12c0 4.142 3.358 7.5 7.5 7.5s7.5-3.358 7.5-7.5v-12c0-4.142-3.358-7.5-7.5-7.5z"/><path d="m417.876 233.29c-3.122-2.722-7.86-2.396-10.582.727-5.714 6.558-15.889 6.577-21.62 0-2.721-3.123-7.459-3.448-10.582-.727s-3.448 7.458-.727 10.581c11.704 13.431 32.545 13.418 44.237 0 2.722-3.122 2.397-7.86-.726-10.581z"/><path d="m427.585 111.734c-7.903-9.918-19.7-15.606-32.366-15.606-12.673 0-24.474 5.688-32.377 15.609-8.552 10.742-56.197 70.587-65.683 82.501-2.213-3.107-111.904-157.072-114.982-161.392-10.256-14.393-25.677-22.648-42.307-22.648-8.147 0-16.327 2.083-23.653 6.025-7.224 3.886-13.674 9.634-18.655 16.623l-14.167 19.883c-2.404 3.374-1.618 8.057 1.756 10.46 3.372 2.403 8.056 1.618 10.46-1.755l14.167-19.883c15.333-21.515 44.459-22.065 60.184-.001l55.126 77.376c-8.85 2.904-18.401 1.984-26.104-1.807-13.669-6.73-29.905-6.866-43.826 0-4.796 2.361-9.942 3.559-15.297 3.559-13.553 0-16.397-6.581-31.534-8.332-3.776-.437-7.552-.438-11.331 0-11.536 1.334-15.585 5.184-22.132 7.017-6.407 1.795-13.48 1.777-20.219-.437l23.772-33.362c2.404-3.373 1.618-8.057-1.756-10.46-3.374-2.404-8.057-1.618-10.46 1.756-61.398 86.177 19.257-27.047-64.809 90.967-.906 1.27-1.392 2.791-1.392 4.351v124.548 61.192 68.192 68.191c0 4.142 3.358 7.5 7.5 7.5h497c4.142 0 7.5-3.358 7.5-7.5v-68.191-68.192c0-14.35 0-122.202 0-137.53 0-1.697-.575-3.343-1.632-4.67-98.112-123.239 53.331 66.97-82.783-103.984zm-53.009 9.348c5.04-6.326 12.564-9.954 20.644-9.954 8.073 0 15.594 3.628 20.633 9.952l49.862 62.625c-6.004 1.488-12.676.931-19.266-2.243-7.518-3.615-16.319-5.113-25.174-3.742-11.877 1.843-14.242 6.777-24.795 6.777-9.712 0-12.279-4.003-21.592-6.174-16.09-3.732-27.102 2.878-31.471 4.465-5.678 2.066-12.173 2.285-18.228.325zm122.424 183.145v42.456c-20.937-7.197-45.55-6.127-66.856 4.528-20.128 10.071-44.16 10.071-64.288 0-24.522-12.269-53.59-12.069-77.712 0-20.128 10.071-44.16 10.071-64.288 0-24.33-12.173-53.382-12.173-77.712 0-20.128 10.071-44.16 10.071-64.288 0-21.365-10.689-45.977-11.706-66.856-4.528v-42.456zm-66.856 115.176c-19.377 9.695-43.014 10.489-64.598-.149-23.917-11.846-52.845-12.137-77.402.149-20.127 10.07-44.16 10.071-64.288 0-24.398-12.212-53.463-12.133-77.712 0-20.128 10.07-44.16 10.071-64.288 0-20.564-10.292-44.867-11.981-66.856-4.529v-52.152c19.178-8.132 41.442-7.455 60.144 1.904 24.33 12.173 53.382 12.173 77.712 0 19.862-9.946 43.933-10.193 64.288 0 24.33 12.173 53.382 12.173 77.712 0 19.862-9.946 43.933-10.193 64.288 0 24.306 12.161 53.372 12.178 77.712 0 18.569-9.295 40.849-10.086 60.144-1.904v52.152c-22.772-7.669-46.895-5.458-66.856 4.529zm-415.144 67.399v-55.889c15.075-6.293 31.118-7.172 45.79-3.424 11.971 3.034 14.241 6.216 26.229 10.193 21.741 7.068 45.542 5.29 65.838-4.865 19.503-9.757 43.559-10.371 64.288 0 23.734 11.876 52.835 12.447 77.712 0 19.806-9.908 43.866-10.217 64.288 0 13.976 6.994 30.171 10.245 46.632 8.782 14.832-1.321 23.307-5.438 31.095-8.789 18.604-9.304 40.784-10.067 60.128-1.897v55.889zm482-197.575h-256.291l15.383-19.321c2.58-3.24 2.044-7.959-1.196-10.539s-7.959-2.044-10.539 1.196l-22.821 28.664h-206.536v-114.65l30.649-43.025c5.967 2.618 13.122 4.159 20.358 4.083 13.318-.156 21.084-5.198 25.005-6.597 6.043-2.154 12.771-2.679 19.5-1.113 7.166 1.667 8.975 4.333 18.089 6.455 11.567 2.695 23.299 1.065 33.185-3.804 9.409-4.641 20.744-4.836 30.57.002 13.095 6.447 28.367 6.764 41.724.974l53.359 74.896-24.918 31.299c-3.145 3.951-1.55 9.835 3.151 11.665 2.98 1.159 6.488.311 8.584-2.322l41.178-51.723c10.944 5.168 23.973 5.456 35.129.731 2.91-1.225 7.899-4.331 16.181-3.852 3.721.216 7.412 1.185 10.763 2.833 11.792 5.8 25.797 5.978 37.951 0 7.663-3.769 16.772-3.904 24.709 0 10.456 5.143 22.551 5.803 33.472 1.896.679-.242 1.352-.501 2.018-.777l21.343 26.811z"/></svg>