<svg id="Capa_1" enable-background="new 0 0 512 512" height="512" viewBox="0 0 512 512" width="512" xmlns="http://www.w3.org/2000/svg"><path d="m500.264 274.543-16.054-45.373c-1.437-4.061-4.189-7.526-7.819-9.846l-37.936-24.237c-4.389-2.804-7.661-7.055-9.248-12.016l-11.166-34.893c-2.03-6.345-6.344-11.71-12.105-15.055l-47.448-27.55c-5.324-3.091-11.897-3.091-17.222 0l-48.707 28.281c-4.951 2.875-8.658 7.485-10.403 12.938l-11.355 35.486c-1.752 5.474-5.361 10.164-10.205 13.258l-33.603 21.469c-4.447 2.841-10.36.333-11.408-4.839l-3.709-18.3c-1.588-7.835-6.543-14.574-13.548-18.425l-32.323-17.773c-6.077-3.341-13.441-3.341-19.518 0l-37.262 20.489c-3.872 2.129-6.611 5.854-7.489 10.185l-5.781 28.525c-.784 3.868-3.058 7.273-6.331 9.479l-18.087 12.189c-5.844 3.938-10.399 9.51-13.096 16.021l-12.68 30.604c-2.282 5.509-3.457 11.414-3.457 17.377v76.249l30.757 19.573h29.505v-79.54c0-7.233 2.173-14.3 6.238-20.283l6.809-10.021c2.646-3.895 6.337-6.965 10.649-8.858l21.254-9.33c5.563-2.442 11.895-2.442 17.459 0l21.254 9.33c4.312 1.893 8.003 4.963 10.649 8.858l6.809 10.021c4.065 5.983 6.238 13.05 6.238 20.283v79.54h224.534l70.041-32.09v-67.055c0-8.405-1.432-16.748-4.236-24.671z" fill="#e27858"/><path d="m72.304 388.786v-76.249c0-5.963 1.175-11.868 3.457-17.377l12.679-30.604c2.697-6.511 7.252-12.083 13.096-16.021l18.087-12.189c3.273-2.206 5.547-5.611 6.331-9.479l5.781-28.525c.878-4.331 3.617-8.056 7.489-10.186l37.262-20.489c1.423-.782 2.918-1.374 4.449-1.79l-14.931-8.21c-6.077-3.341-13.441-3.341-19.518 0l-37.262 20.489c-3.872 2.129-6.611 5.854-7.489 10.186l-5.781 28.525c-.784 3.868-3.058 7.273-6.331 9.479l-18.087 12.189c-5.844 3.938-10.399 9.51-13.096 16.021l-12.679 30.604c-2.282 5.509-3.457 11.414-3.457 17.377v76.249z" fill="#ca5935"/><path d="m504.5 434.46v-68.192c-22.346-11.181-48.654-11.181-71 0-22.346 11.181-48.654 11.181-71 0-22.346-11.181-48.654-11.181-71 0-22.346 11.181-48.654 11.181-71 0-22.346-11.181-48.654-11.181-71 0-22.346 11.181-48.654 11.181-71 0-22.346-11.181-48.654-11.181-71 0v68.192l44.591 29.903h398.446z" fill="#5bd6fd"/><path d="m7.5 434.46c22.346-11.181 48.654-11.181 71 0 22.346 11.181 48.654 11.181 71 0 22.346-11.181 48.654-11.181 71 0 22.346 11.181 48.654 11.181 71 0 22.346-11.181 48.654-11.181 71 0 22.346 11.181 48.654 11.181 71 0 22.346-11.181 48.654-11.181 71 0v68.192h-497z" fill="#00b4fb"/><ellipse cx="266.311" cy="288.986" fill="#ffa0ab" rx="30.834" ry="24.555"/><ellipse cx="433.442" cy="288.986" fill="#ffa0ab" rx="30.834" ry="24.555"/><circle cx="89.384" cy="82.275" fill="#f8e86a" r="43.931"/><path d="m109.384 106.206c-24.263 0-43.931-19.668-43.931-43.931 0-6.97 1.63-13.557 4.519-19.412-14.524 7.167-24.519 22.119-24.519 39.412 0 24.263 19.669 43.931 43.931 43.931 17.292 0 32.244-9.995 39.412-24.52-5.855 2.89-12.442 4.52-19.412 4.52z" fill="#fab659"/><path d="m276.781 253.047v12c0 4.142 3.358 7.5 7.5 7.5s7.5-3.358 7.5-7.5v-12c0-4.143-3.358-7.5-7.5-7.5s-7.5 3.358-7.5 7.5z"/><path d="m361.516 260.046c-2.938 3.372-7.181 5.307-11.64 5.307s-8.701-1.935-11.64-5.307c-2.722-3.123-7.459-3.447-10.582-.727-3.123 2.722-3.448 7.459-.727 10.582 5.789 6.642 14.153 10.451 22.948 10.451s17.16-3.81 22.948-10.451c2.721-3.123 2.396-7.86-.727-10.582-3.121-2.721-7.858-2.396-10.58.727z"/><path d="m417.788 243.306c-11.803 0-21.406 9.603-21.406 21.406 0 4.143 3.358 7.5 7.5 7.5s7.5-3.357 7.5-7.5c0-3.532 2.874-6.406 6.406-6.406s6.406 2.874 6.406 6.406c0 4.143 3.358 7.5 7.5 7.5s7.5-3.357 7.5-7.5c0-11.803-9.603-21.406-21.406-21.406z"/><path d="m140.815 82.275c0-28.359-23.072-51.432-51.432-51.432s-51.43 23.073-51.43 51.432 23.072 51.431 51.431 51.431 51.431-23.072 51.431-51.431zm-51.431 36.431c-20.088 0-36.431-16.343-36.431-36.431s16.343-36.432 36.431-36.432 36.432 16.343 36.432 36.432-16.344 36.431-36.432 36.431z"/><path d="m96.884 19.783v-10.435c0-4.142-3.358-7.5-7.5-7.5s-7.5 3.358-7.5 7.5v10.435c0 4.142 3.358 7.5 7.5 7.5s7.5-3.357 7.5-7.5z"/><path d="m138.875 43.39 7.379-7.378c2.929-2.929 2.929-7.678 0-10.607-2.928-2.929-7.677-2.929-10.606 0l-7.379 7.379c-4.739 4.738-1.318 12.803 5.303 12.803 1.919 0 3.839-.733 5.303-2.197z"/><path d="m162.311 89.775c4.142 0 7.5-3.358 7.5-7.5s-3.358-7.5-7.5-7.5h-10.435c-4.142 0-7.5 3.358-7.5 7.5s3.358 7.5 7.5 7.5z"/><path d="m135.648 139.145c1.464 1.464 3.384 2.197 5.303 2.197 6.622 0 10.042-8.066 5.303-12.803l-7.379-7.379c-2.929-2.929-7.678-2.929-10.606 0-2.929 2.929-2.929 7.678 0 10.607z"/><path d="m81.884 144.767v10.435c0 4.142 3.358 7.5 7.5 7.5s7.5-3.358 7.5-7.5v-10.435c0-4.142-3.358-7.5-7.5-7.5s-7.5 3.358-7.5 7.5z"/><path d="m43.12 139.145 7.379-7.378c2.929-2.929 2.929-7.678 0-10.607-2.928-2.929-7.677-2.929-10.606 0l-7.379 7.379c-2.929 2.929-2.929 7.677 0 10.606 2.927 2.929 7.677 2.93 10.606 0z"/><path d="m16.457 74.775c-4.142 0-7.5 3.358-7.5 7.5s3.358 7.5 7.5 7.5h10.435c4.142 0 7.5-3.358 7.5-7.5s-3.358-7.5-7.5-7.5z"/><path d="m39.893 43.39c1.464 1.465 3.384 2.197 5.303 2.197 6.622 0 10.042-8.066 5.303-12.803l-7.379-7.379c-2.929-2.929-7.678-2.929-10.606 0-2.929 2.929-2.929 7.678 0 10.607z"/><path d="m502.684 281.341c-4.101.585-6.951 4.384-6.365 8.485 1.186 8.31.474 9.021.682 65.206-14.086-4.695-28.539-5.751-42.532-3.383-16.448 2.765-23.328 8.082-32.04 11.217-18.359 6.609-38.96 5.507-56.572-3.304-24.33-12.174-53.382-12.174-77.712 0-20.937 10.475-45.089 9.651-64.289 0h-.001c-1.935-.969-4.541-2.136-6.429-2.895v-37.846c0-18.364-10.672-27.93-14.343-34.52-3.443-5.067-8.228-9.047-13.838-11.511l-21.254-9.329c-7.463-3.276-16.024-3.276-23.488 0l-21.254 9.329c-12.195 5.355-15.326 14.784-20.647 21.532-3.59 5.286-6.012 11.427-7.003 17.76-.641 4.093 2.158 7.93 6.25 8.57 4.092.641 7.929-2.158 8.569-6.25 1.478-9.445 6.629-13.899 11.4-21.672 1.856-2.731 4.436-4.877 7.46-6.205l21.253-9.33c3.632-1.595 7.798-1.594 11.43 0l21.254 9.33c3.024 1.328 5.604 3.474 7.46 6.206l6.809 10.021c3.233 4.759 4.942 10.315 4.942 16.069v33.361c-18.862-3.831-38.792-1.37-56.281 7.381-11.26 5.634-23.741 8.113-36.078 7.444v-23.814c0-4.142-3.358-7.5-7.5-7.5s-7.5 3.358-7.5 7.5v21.4c-9.82-2.669-12.774-5.266-20.618-8.302-8.075-3.124-16.786-5.006-24.644-5.629v-48.123c0-5.003.971-9.884 2.886-14.507l12.679-30.604c2.14-5.166 5.722-9.548 10.359-12.672l18.087-12.188c4.937-3.328 8.308-8.374 9.491-14.209l5.781-28.524c.441-2.175 1.808-4.035 3.752-5.104l37.261-20.489c3.848-2.116 8.442-2.116 12.291 0l32.323 17.773c5.083 2.794 8.659 7.658 9.811 13.343l3.708 18.301c.984 4.853 4.293 8.905 8.852 10.838 4.56 1.934 9.772 1.497 13.946-1.169l33.604-21.469c6.303-4.027 11.03-10.169 13.31-17.293l11.355-35.486c1.181-3.689 3.676-6.792 7.025-8.737l48.707-28.281c2.988-1.735 6.701-1.735 9.689 0l47.448 27.55c4.162 2.417 7.261 6.271 8.728 10.855l11.166 34.893c2.115 6.611 6.502 12.312 12.353 16.05l37.937 24.237c2.211 1.413 3.911 3.553 4.786 6.027l10.957 30.968c1.381 3.904 5.669 5.949 9.572 4.568 3.905-1.381 5.951-5.667 4.569-9.572l-10.957-30.967c-1.984-5.609-5.838-10.462-10.852-13.665l-37.936-24.236c-2.91-1.859-5.091-4.694-6.144-7.981l-11.166-34.893c-2.602-8.13-8.1-14.969-15.482-19.255l-47.448-27.55c-7.634-4.434-17.119-4.433-24.754 0l-48.708 28.281c-6.57 3.816-11.463 9.902-13.779 17.138l-11.355 35.485c-1.216 3.8-3.738 7.076-7.1 9.224l-33.624 21.461-3.708-18.301c-2.03-10.016-8.33-18.584-17.285-23.508l-32.323-17.773c-8.374-4.604-18.372-4.604-26.745 0l-37.261 20.488c-5.816 3.197-9.908 8.762-11.227 15.269l-5.781 28.524c-.396 1.951-1.522 3.637-3.172 4.75l-18.086 12.189c-7.087 4.776-12.563 11.474-15.834 19.37l-12.679 30.604c-2.673 6.452-4.029 13.265-4.029 20.249v48.285c-10.571.992-20.989 3.9-30.66 8.739-2.539 1.266-4.143 3.863-4.143 6.703v136.384c0 4.142 3.358 7.5 7.5 7.5h497c4.142 0 7.5-3.358 7.5-7.5 0-21.115 0-172.19 0-203.439 0-3.767-.28-7.639-.832-11.507-.585-4.101-4.389-6.952-8.484-6.365zm-487.684 89.725c16.511-6.97 35.702-7.656 53.237-1.091 4.552 1.703 6.671 2.946 9.674 4.316 23.405 10.709 51.274 10.528 74.945-1.316 20.17-10.092 44.195-10.04 64.288 0 24.33 12.174 53.382 12.174 77.712 0 20.127-10.07 44.161-10.07 64.288 0 24.328 12.173 53.378 12.176 77.712 0 18.811-9.409 41.09-9.991 60.144-1.904v52.153c-20.991-7.216-45.595-6.109-66.856 4.528-20.02 10.026-44.087 10.116-64.288 0-24.331-12.174-53.399-12.164-77.712 0-19.862 9.946-43.933 10.193-64.288 0-24.33-12.173-53.382-12.173-77.712 0-19.862 9.946-43.933 10.193-64.288 0-21.142-10.571-45.69-11.804-66.856-4.528v-52.158zm0 124.086v-55.889c18.828-7.991 41.117-7.618 60.144 1.904 24.33 12.173 53.382 12.173 77.712 0 20.128-10.071 44.16-10.071 64.288 0 24.33 12.173 53.382 12.173 77.712 0 20.128-10.071 44.16-10.071 64.288 0 24.306 12.161 53.372 12.178 77.712 0 19.058-9.541 41.376-9.87 60.144-1.904v55.889z"/></svg>