<svg id="Capa_1" enable-background="new 0 0 512 512" height="512" viewBox="0 0 512 512" width="512" xmlns="http://www.w3.org/2000/svg"><path d="m427.933 62.313c-6.135-29.414-32.062-50.491-62.109-50.491-30.047 0-55.974 21.077-62.109 50.491l-6.801 32.609 68.91 26.58 68.91-26.58z" fill="#ff71a7"/><path d="m326.914 94.923 6.801-32.61c5.084-24.374 23.762-43.009 47.109-48.685-4.828-1.174-9.851-1.807-15-1.807-30.047 0-55.974 21.077-62.109 50.491l-6.801 32.61h30z" fill="#fa3482"/><path d="m250.094 345.623 46.82-250.7h137.82l46.82 250.7-115.73 61.115z" fill="#e8e8e8"/><path d="m280.094 345.623 46.82-250.7h-30l-46.82 250.7z" fill="#c7c5cb"/><path d="m365.824 261.647c-16.156 0-29.253 13.097-29.253 29.253v71.661h58.506v-71.661c0-16.156-13.097-29.253-29.253-29.253z" fill="#423e4f"/><path d="m359.797 500.178h-126.929l12.476-79.704 160.309-74.851h98.847v16.938l-44.735 86.097z" fill="#fab659"/><path d="m405.653 345.623c-44.779 33.858-119.571 89.751-172.785 154.555h-126.948c53.224-64.804 128.016-120.697 172.795-154.555z" fill="#f8e86a"/><path d="m278.714 345.623h-126.938l-99.14 31.787-45.136 90.444v32.324h98.42z" fill="#fab659"/><path d="m151.776 345.623c-37.237 28.15-95.207 70.026-144.276 122.231v-122.231z" fill="#f8e86a"/><path d="m504.5 362.561v137.617h-144.703c43.216-52.632 100.652-102.565 144.703-137.617z" fill="#f8e86a"/><g fill="#e27858"><path d="m307.301 46.317c-4.388-6.402-13.511-7.246-18.999-1.758l-39.635 39.635c-5.488 5.488-4.644 14.611 1.758 18.999l103.191 70.732 24.417-24.417z"/><path d="m482.981 84.194-39.635-39.635c-5.488-5.488-14.611-4.644-18.999 1.758l-70.732 103.191 24.417 24.417 103.191-70.732c6.402-4.388 7.246-13.511 1.758-18.999z"/><path d="m353.616 149.508-103.192 70.732c-6.402 4.388-7.246 13.511-1.758 18.999l39.635 39.635c5.488 5.488 14.611 4.644 18.999-1.758l70.732-103.191z"/><path d="m481.224 220.24-103.191-70.732-24.417 24.417 70.732 103.191c4.388 6.402 13.511 7.246 18.999 1.758l39.635-39.635c5.487-5.488 4.643-14.611-1.758-18.999z"/></g><path d="m378.032 149.508-24.417 24.417 30.343 44.268c18.146-5.841 32.501-20.196 38.341-38.342z" fill="#ca5935"/><path d="m378.032 173.925 44.267-30.343c-5.841-18.146-20.195-32.501-38.341-38.342l-30.343 44.268z" fill="#ca5935"/><path d="m353.616 173.925 24.417-24.417-30.343-44.268c-18.146 5.841-32.501 20.195-38.341 38.342z" fill="#ca5935"/><path d="m353.616 149.508-44.268 30.343c5.841 18.146 20.195 32.501 38.341 38.342l30.343-44.268z" fill="#ca5935"/><circle cx="365.824" cy="161.716" fill="#ed9b83" r="29.322"/><circle cx="129.895" cy="146.43" fill="#f8e86a" r="61.769"/><path d="m149.895 188.199c-34.114 0-61.769-27.655-61.769-61.769 0-11.933 3.393-23.069 9.254-32.515-17.556 10.893-29.254 30.334-29.254 52.515 0 34.114 27.655 61.769 61.769 61.769 22.181 0 41.622-11.698 52.515-29.254-9.445 5.861-20.581 9.254-32.515 9.254z" fill="#fab659"/><path d="m129.896 215.671c38.195 0 69.269-31.074 69.269-69.269s-31.074-69.269-69.269-69.269-69.269 31.074-69.269 69.269c-.001 38.196 31.074 69.269 69.269 69.269zm0-123.537c29.924 0 54.269 24.345 54.269 54.269s-24.345 54.269-54.269 54.269-54.269-24.345-54.269-54.269 24.345-54.269 54.269-54.269z"/><path d="m129.896 66.038c4.142 0 7.5-3.358 7.5-7.5v-14.673c0-4.142-3.358-7.5-7.5-7.5s-7.5 3.358-7.5 7.5v14.672c0 4.142 3.357 7.501 7.5 7.501z"/><path d="m192.026 91.773c1.919 0 3.839-.732 5.303-2.197l10.375-10.375c2.929-2.929 2.929-7.678 0-10.607s-7.678-2.929-10.606 0l-10.375 10.375c-4.738 4.738-1.319 12.804 5.303 12.804z"/><path d="m217.761 153.903h14.672c4.142 0 7.5-3.358 7.5-7.5s-3.358-7.5-7.5-7.5h-14.672c-4.142 0-7.5 3.358-7.5 7.5s3.358 7.5 7.5 7.5z"/><path d="m197.329 203.23c-2.929-2.93-7.678-2.93-10.606 0-2.929 2.929-2.929 7.677 0 10.606l10.375 10.374c2.929 2.93 7.678 2.93 10.606 0 2.929-2.929 2.929-7.677 0-10.606z"/><path d="m122.396 234.268v14.672c0 4.142 3.358 7.5 7.5 7.5s7.5-3.358 7.5-7.5v-14.672c0-4.142-3.358-7.5-7.5-7.5s-7.5 3.358-7.5 7.5z"/><path d="m62.694 224.211 10.375-10.374c2.929-2.929 2.929-7.678 0-10.606-2.929-2.93-7.678-2.93-10.606 0l-10.375 10.374c-2.929 2.929-2.929 7.678 0 10.606 2.928 2.929 7.677 2.929 10.606 0z"/><path d="m27.358 153.903h14.672c4.142 0 7.5-3.358 7.5-7.5s-3.358-7.5-7.5-7.5h-14.672c-4.142 0-7.5 3.358-7.5 7.5s3.358 7.5 7.5 7.5z"/><path d="m62.462 89.576c2.928 2.929 7.677 2.929 10.606 0s2.929-7.677 0-10.606l-10.374-10.375c-2.928-2.929-7.677-2.929-10.606 0s-2.929 7.678 0 10.607z"/><path d="m95.546 156.722c4.142 0 7.5-3.358 7.5-7.5v-6.601c0-4.142-3.358-7.5-7.5-7.5s-7.5 3.358-7.5 7.5v6.601c0 4.142 3.358 7.5 7.5 7.5z"/><path d="m164.245 156.722c4.142 0 7.5-3.358 7.5-7.5v-6.601c0-4.142-3.358-7.5-7.5-7.5s-7.5 3.358-7.5 7.5v6.601c0 4.142 3.358 7.5 7.5 7.5z"/><path d="m144.605 153.954c2.722-3.123 2.396-7.86-.726-10.582-3.123-2.721-7.861-2.396-10.582.727-1.81 2.076-4.994 2.076-6.805 0-2.722-3.123-7.459-3.448-10.582-.727-3.123 2.722-3.448 7.459-.726 10.582 7.785 8.931 21.647 8.92 29.421 0z"/><path d="m504.5 338.095h-16.717l-14.749-78.973 14.928-14.929c8.614-8.613 7.273-22.919-2.756-29.793l-23.538-16.134-12.112-64.854 35.65-24.436c10.047-6.887 11.354-21.196 2.756-29.792l-39.635-39.635c-6.216-6.215-15.696-7.424-23.215-3.236-28.039-42.572-90.478-42.665-118.578 0-7.527-4.191-17.006-2.974-23.216 3.237l-39.635 39.635c-8.614 8.614-7.272 22.919 2.756 29.792l35.65 24.436-12.112 64.854-23.537 16.133c-10.048 6.887-11.354 21.196-2.757 29.793l14.929 14.928-14.749 78.973c-7.386 0-230.062 0-236.365 0-4.142 0-7.5 3.358-7.5 7.5v154.556c0 4.142 3.358 7.5 7.5 7.5h497c4.142 0 7.5-3.358 7.5-7.5 0-26.888 0-136.596 0-154.556.002-4.141-3.356-7.499-7.498-7.499zm-7.5 20.828c-48.114 38.374-101.699 86.76-140.734 133.728h-107.177c49.985-56.942 108.678-100.676 159.08-139.556h88.831zm-267.661 133.728h-107.196c45.879-52.272 103.8-97.765 159.088-139.556h102.094c-53.654 40.809-110.945 87.908-153.986 139.556zm158.238-154.556h-43.506v-47.223c0-11.995 9.758-21.753 21.753-21.753s21.753 9.758 21.753 21.753zm-44.027-176.441.009-.346c.181-12.023 10.041-21.893 22.297-21.893-.186-.005 1.199.007 2.243.113 11.218 1.143 20.001 10.648 19.999 22.21.041 11.917-9.735 22.225-22.305 22.225-.101 0-.472-.01-.372-.008-2.142-.027-4.384-.422-6.227-.997-.124-.039-15.646-11.753-15.644-21.304zm22.274-43.25-10.973-16.009h21.946zm111.417 107.62c2.767 1.897 3.132 5.833.759 8.206l-16.161 16.161c-2.206 1.042-.945.539-23.794 23.152-1.416 1.415-3.062 1.494-3.918 1.415-.855-.079-2.46-.459-3.592-2.11l-52.675-76.848c10.623-3.736 18.698-12.11 22.277-22.277 53.221 36.271 50.263 34.938 52.712 35.58l24.392 16.721c-.001 0-.001 0 0 0zm-68.132-64.334 27.012-18.515 7.931 42.466zm29.256-112.177 39.635 39.635c2.372 2.372 2.009 6.309-.76 8.206l-37.748 25.874c-2.392.622-.993.327-39.357 26.426-3.624-10.313-11.803-18.58-22.277-22.277 55.977-81.665 51.995-75.493 52.503-77.362 1.955-2.522 5.701-2.804 8.004-.502zm-72.541-30.218c20.08 0 38.715 10.952 48.586 28.227l-27.331 39.874h-42.51l-27.331-39.875c9.872-17.274 28.506-28.226 48.586-28.226zm-112.176 69.854 39.635-39.635c2.326-2.326 6.067-1.998 8.003.502.542 1.995-2.494-2.874 52.503 77.361-10.668 3.763-18.706 12.136-22.277 22.277-38.441-26.151-36.987-25.81-39.357-26.426l-37.748-25.874c-2.766-1.896-3.132-5.833-.759-8.205zm68.891 72.541-34.943 23.952 7.931-42.467zm-68.131 64.334 24.392-16.719c2.467-.646.06.303 52.713-35.581 3.694 10.495 11.981 18.656 22.277 22.276l-52.675 76.848c-1.737 2.533-5.338 2.867-7.51.695-22.999-22.762-21.596-22.113-23.795-23.153l-16.161-16.16c-2.372-2.371-2.01-6.309.759-8.206zm16.962 46.498 11.627 11.627c8.814 8.814 23.454 7.444 30.489-2.821l52.337-76.354 52.337 76.354c3.356 4.896 8.671 8.019 14.583 8.565 5.903.549 11.708-1.546 15.907-5.744l11.627-11.627 12.246 65.573c-21.871 0-50.152 0-69.947 0v-47.223c0-20.266-16.487-36.753-36.753-36.753s-36.753 16.487-36.753 36.753v47.223c-16.846 0-53.976 0-69.947 0zm-256.37 80.573h114.33c-40.884 30.75-77.932 59.931-114.33 96.223zm0 117.725c42.09-44.293 88.335-79.598 139.29-117.725h102.097c-53.605 40.757-110.806 87.746-153.995 139.556h-87.392zm360.97 21.831c35.159-40.478 79.464-80.611 121.03-114.452v114.452z"/></svg>