<svg id="Capa_1" enable-background="new 0 0 512 512" height="512" viewBox="0 0 512 512" width="512" xmlns="http://www.w3.org/2000/svg"><path d="m197.4 42.011c-7.586-4.61-16.292-7.047-25.169-7.047s-17.583 2.438-25.169 7.047l-139.562 84.808v32.513l93.026 88.79 194.473-77.788v-69.015z" fill="#00b4fb"/><path d="m201.781 116.922 154.782-94.056c7.586-4.61 16.292-7.047 25.169-7.047 8.877 0 17.583 2.438 25.169 7.047l97.599 59.308v69.015l-194.473 77.788-108.245-75.413v-36.642z" fill="#a4e6ff"/><path d="m504.5 306.916v-155.727s-99.934-5.181-194.473 45.247v32.541z" fill="#00b4fb"/><path d="m504.5 386.48v-79.564s-97.348-147.584-497-147.584v283.973l40.546 30.535h386.274z" fill="#5bd6fd"/><path d="m235.283 133.577c-6.51-19.32-24.624-32.33-45.011-32.33-20.387 0-38.5 13.01-45.011 32.33l-74.744 221.801v9.56h239.51v-9.56z" fill="#36d39a"/><path d="m175.261 133.577c4.85-14.392 16.14-25.278 30.011-29.897-4.75-1.582-9.8-2.433-15-2.433-20.387 0-38.5 13.01-45.011 32.33l-74.744 221.801v9.56h30v-9.56z" fill="#00c071"/><path d="m164.377 369.55h51.789v72.689h-51.789z" fill="#de8957"/><path d="m164.377 369.55h51.789v46.105h-51.789z" fill="#c76d33"/><path d="m318.275 342.614c-8.942-4.523-19.503-4.523-28.445 0-8.942 4.523-19.503 4.523-28.445 0-8.942-4.523-19.503-4.523-28.445 0-8.942 4.523-19.503 4.523-28.445 0-8.942-4.523-19.503-4.523-28.445 0-8.942 4.523-19.503 4.523-28.445 0-8.942-4.523-19.503-4.523-28.445 0-8.942 4.523-19.503 4.523-28.445 0-8.942-4.523-19.503-4.523-28.445 0-8.723 4.413-14.223 13.357-14.223 23.133 0 13.756 11.152 24.908 24.908 24.908h234.635c13.756 0 24.908-11.152 24.908-24.908-.001-9.776-5.5-18.721-14.223-23.133z" fill="#fff"/><path d="m78.046 365.747c0-9.502 5.205-18.207 13.507-22.739-.28-.131-.563-.254-.839-.394-8.942-4.523-19.503-4.523-28.445 0-8.723 4.413-14.222 13.357-14.222 23.133 0 13.756 11.152 24.908 24.908 24.908h30c-13.757 0-24.909-11.152-24.909-24.908z" fill="#e8e8e8"/><path d="m289.83 243.632c-8.942-4.523-19.503-4.523-28.445 0-8.942 4.523-19.503 4.523-28.445 0-8.942-4.523-19.503-4.523-28.445 0-8.942 4.523-19.503 4.523-28.445 0-8.942-4.523-19.503-4.523-28.445 0-8.942 4.523-19.503 4.523-28.445 0-8.942-4.523-19.503-4.523-28.445 0-8.723 4.413-14.223 13.357-14.223 23.133 0 13.756 11.152 24.908 24.908 24.908h177.745c13.756 0 24.908-11.152 24.908-24.908-.001-9.776-5.5-18.72-14.223-23.133z" fill="#fff"/><path d="m106.491 266.765c0-9.502 5.205-18.207 13.507-22.739-.28-.131-.563-.254-.84-.394-8.942-4.523-19.503-4.523-28.445 0-8.723 4.413-14.223 13.357-14.223 23.133 0 13.756 11.152 24.908 24.908 24.908h30c-13.755 0-24.907-11.152-24.907-24.908z" fill="#e8e8e8"/><path d="m261.385 144.65c-8.942-4.523-19.503-4.523-28.445 0-8.942 4.523-19.503 4.523-28.445 0-8.942-4.523-19.503-4.523-28.445 0-8.942 4.523-19.503 4.523-28.445 0-8.942-4.523-19.503-4.523-28.445 0-8.723 4.413-14.223 13.357-14.223 23.133 0 13.756 11.152 24.908 24.908 24.908h120.855c13.756 0 24.908-11.152 24.908-24.908-.001-9.776-5.5-18.72-14.223-23.133z" fill="#fff"/><path d="m134.936 167.783c0-9.502 5.205-18.206 13.507-22.739-.28-.131-.563-.254-.84-.394-8.942-4.523-19.503-4.523-28.445 0-8.723 4.413-14.223 13.357-14.223 23.133 0 13.756 11.152 24.908 24.908 24.908h30c-13.755 0-24.907-11.152-24.907-24.908z" fill="#e8e8e8"/><path d="m504.5 386.48c-103.779 7.897-223.558 56.824-497 56.824v52.877h497z" fill="#a4e6ff"/><path d="m318.565 118.532c5.61 0 10.159-4.549 10.159-10.159v-11.433c0-5.611-4.549-10.159-10.159-10.159-5.611 0-10.16 4.548-10.16 10.159v11.433c0 5.61 4.549 10.159 10.16 10.159z"/><path d="m444.9 118.532c5.611 0 10.159-4.549 10.159-10.159v-11.433c0-5.611-4.549-10.159-10.159-10.159s-10.159 4.548-10.159 10.159v11.433c0 5.61 4.548 10.159 10.159 10.159z"/><path d="m404.972 114.263c3.693-4.225 3.262-10.643-.963-14.335-4.224-3.693-10.642-3.262-14.335.962-3.992 4.566-11.888 4.571-15.883 0-3.692-4.224-10.111-4.656-14.335-.963s-4.656 10.111-.963 14.336c12.099 13.842 34.404 13.814 46.479 0z"/><path d="m508.395 75.764-97.599-59.308c-8.761-5.324-18.811-8.138-29.063-8.138s-20.302 2.814-29.063 8.138l-91.44 55.565-59.935-36.421c-17.847-10.844-40.261-10.855-58.127 0l-72.126 43.83c-3.54 2.151-4.666 6.764-2.515 10.304s6.765 4.667 10.304 2.515l72.125-43.828c13.062-7.938 29.471-7.947 42.548 0l53.281 32.377c-6.322 3.842-19.676 11.956-31.34 19.044-12.768-6.573-28.024-8.02-42.226-3.395-29.526 9.619-35.584 36.757-35.999 37.497-15.085-1.499-30.805 5.879-37.114 20.709-26.337-1.657-55.169-2.655-85.109-2.805v-20.812l38.907-23.642c3.54-2.151 4.666-6.765 2.515-10.305s-6.765-4.666-10.305-2.515l-42.509 25.835c-2.238 1.36-3.605 3.79-3.605 6.41v369.363c0 4.142 3.358 7.5 7.5 7.5h497c4.142 0 7.5-3.358 7.5-7.5 0-12.953 0-409.905 0-414.008 0-2.62-1.367-5.049-3.605-6.41zm-178.171 119.002c52.048-23.963 113.256-36.208 166.776-36.208v128.223c-42.522-42.902-108.974-73.466-166.776-92.015zm30.235-165.49c6.413-3.897 13.77-5.958 21.274-5.958s14.86 2.06 21.274 5.958l93.993 57.117v57.14c-62.664 0-132.475 16.012-187.812 44.866-8.545-2.445-18.84-5.176-28.785-7.616 1.836-4.184 2.705-8.627 2.705-13 0-21.327-18.969-35.931-39.786-33.838-.702-1.456-3.179-13.399-14.653-24.585zm-40.566 348.774c-3.152 3.152-7.504 5.104-12.304 5.104-6.622 0-227.173 0-234.635 0-9.599 0-17.408-7.809-17.408-17.408 0-15.777 18.09-23.365 31.782-16.441 11.025 5.578 24.19 5.578 35.216 0 7.014-3.547 15.158-3.297 21.674 0 11.04 5.585 24.247 5.548 35.216 0 6.767-3.422 14.868-3.442 21.674 0 11.021 5.575 23.961 5.497 34.752.217 7.834-3.83 15.57-3.539 22.139-.217 10.712 5.419 23.931 5.709 35.217 0 5.632-2.858 12.268-3.325 18.186-1.419 14.42 4.602 17.578 21.077 8.491 30.164zm-304.893 57.74v-268.929c27.865.141 53.994.921 82.483 2.67.666 11.885 7.738 22.471 18.466 27.542l-12.025 35.684c-21.074.502-37.193 17.379-34.687 37.929 1.962 15.89 14.045 22.896 14.152 23.007-.261.775-12.829 38.071-12.979 38.517-3.947.628-7.911 1.881-11.526 3.71-10.762 5.442-17.457 15.968-18.255 27.465-1.332 19.193 13.907 34.769 32.326 34.769h83.923v32.231c-52.261 3.855-92.964 5.153-141.878 5.405zm129.218-284.448c11.026 5.578 24.191 5.578 35.216 0 6.782-3.432 14.889-3.433 21.674 0 6.048 3.059 12.917 4.531 19.962 4.11 10.985-.659 14.62-4.814 21.24-6.183 13.641-2.805 27.128 6.363 25.707 20.289-.907 8.846-8.445 15.632-17.317 15.632-124.782-.474-121.731 1.186-127.829-1.468-3.476-1.53-6.421-4.143-8.369-7.729-8.816-16.437 10.735-34.26 29.716-24.651zm92.107 85.597c-11.049-5.589-24.244-5.55-35.216 0-6.781 3.43-14.881 3.435-21.674 0-11.295-5.714-24.457-5.441-35.217 0-6.764 3.422-14.871 3.433-21.674 0-.102-.046-1.711-.876-3.655-1.618 17.523-51.998 9.338-27.709 11.839-35.13h119.088l11.838 35.13c-3.862 1.476-8.9 5.122-17.63 3.98-2.654-.346-5.262-1.129-7.699-2.362zm46.766 61.995c1.201 3.564 10.218 30.322 11.449 33.975-5.904 1.476-7.456 2.96-10.698 4.14-6.189 2.252-13.135 1.877-19.073-1.126-10.336-5.229-22.553-5.556-33.125-.98-2.343 1.015-4.657 2.551-9.216 3.259-4.916.764-10.025.01-14.55-2.279-11.026-5.578-24.19-5.578-35.216 0-6.785 3.433-14.888 3.433-21.674 0-11.026-5.578-24.19-5.578-35.216 0-6.786 3.433-14.888 3.433-21.675 0-2.48-1.285-5.584-2.381-8.096-3.014l11.449-33.974c2.539.3 182.518.369 185.641-.001zm-74.424 126.76c-1.771.173-15.939 1.742-36.789 3.494v-31.033h36.789zm81.372-145.372c-3.177 2.56-7.076 3.851-10.894 3.851-191.506-.002-179.364.425-183.372-.951-5.884-2.011-10.078-6.982-11.347-12.642-3.814-16.688 15.445-28.302 31.34-20.259.1.023 16.76 9.34 35.224.003 6.8-3.44 14.901-3.426 21.674 0 9.533 4.823 20.825 5.53 30.989 1.83 4.751-1.729 9.086-5.255 17.85-4.244 7.376.859 9.163 4.167 18.382 5.906 8.364 1.578 17.15.421 24.885-3.492h.002c11.516-5.838 21.459-.032 21.672 0 11.822 5.98 13.583 21.933 3.595 29.998zm-78.475-165.427s.001.001.001.001c13.012 8.188 16.388 20.661 16.609 21.076.072.213.813 2.414.766 2.273-6.916 3.253-14.726 2.917-21.061-.288-10.976-5.553-24.141-5.602-35.216 0-6.489 3.286-14.315 3.465-21.061.287l.766-2.272c8.272-24.546 37.33-34.836 59.196-21.077zm-196.564 373.787v-37.89c156.541-.396 247.751-13.905 398.202-42.876 4.067-.783 6.73-4.715 5.947-8.783-.783-4.067-4.715-6.732-8.783-5.947-69.364 13.352-114.033 22.484-186.699 30.85v-25.881h83.923c17.87 0 32.408-14.538 32.408-32.408-.043-.141.796-15.417-12.445-26.035-5.012-4.019-11.265-6.539-17.418-7.501-3.48-10.328-11.356-33.7-12.979-38.517 26.688-18.626 14.223-60.101-20.535-60.937l-12.029-35.694c1.789-.843 3.775-2.032 5.499-3.324 62.761 14.756 130.531 39.016 182.848 75.822 27.047 19.062 40.209 34.771 44.063 39.797v70.226c-18.997 1.744-38.722 4.834-57.523 8.175-2.255.401-4.138 1.784-5.22 3.7-3.074 5.449 1.558 12.187 7.846 11.068 17.994-3.202 36.724-6.146 54.898-7.874v94.027h-482.003z"/></svg>