<svg id="Capa_1" enable-background="new 0 0 512 512" height="512" viewBox="0 0 512 512" width="512" xmlns="http://www.w3.org/2000/svg"><ellipse cx="256" cy="137.982" fill="#80dfb5" rx="190.165" ry="97.361"/><path d="m446.165 137.982c0-16.038-7.577-31.168-20.993-44.508-82.563 6.769-207.583 32.358-288.079 120.484 32.566 13.377 73.907 21.385 118.907 21.385 105.025 0 190.165-43.59 190.165-97.361z" fill="#00c071"/><path d="m250.257 168.072s-70.649-65.713-242.756-56.626v123.794l75.385 29.992h116.701z" fill="#de8957"/><path d="m136.006 215.133-33.104 36.656 51.487 13.444h45.198l50.671-97.161s-9.127-8.489-28.81-18.942c-31.092 16.781-60.454 38.335-85.442 66.003z" fill="#c76d33"/><path d="m504.5 235.24v-113.308s-228.866-16.645-346.23 113.308l149.665 39.08z" fill="#de8957"/><path d="m158.27 235.24-49.215 118.07-85.105 118.07h-16.45v-236.14z" fill="#80dfb5"/><path d="m504.5 235.24v236.14h-16.45l-95.386-132.78-38.934-103.36z" fill="#80dfb5"/><path d="m392.664 338.6-74.824-103.36h-44.91l-16.93 11.119-16.93-11.119h-44.91l-85.105 118.07-30.945 118.07h146.52l31.37-18.109 31.37 18.109h146.52z" fill="#77718c"/><g fill="#f8e86a"><path d="m194.16 235.24-116.05 236.14h-54.16l134.32-236.14z"/><path d="m488.05 471.38h-54.16l-116.05-236.14h35.89z"/><path d="m279.25 338.6h-46.5l6.32-103.36h33.86z"/><path d="m287.37 471.38h-62.74l6.32-103.36h50.1z"/></g><path d="m180.615 75.527c-4.142 0-7.5 3.358-7.5 7.5v14.486c0 4.142 3.358 7.5 7.5 7.5s7.5-3.358 7.5-7.5v-14.486c0-4.142-3.358-7.5-7.5-7.5z"/><path d="m331.385 105.013c4.142 0 7.5-3.358 7.5-7.5v-14.486c0-4.142-3.358-7.5-7.5-7.5s-7.5 3.358-7.5 7.5v14.486c0 4.142 3.358 7.5 7.5 7.5z"/><path d="m281.53 102.009c2.721-3.123 2.396-7.86-.727-10.581-3.123-2.722-7.86-2.396-10.582.727-7.517 8.626-20.903 8.65-28.441 0-2.722-3.123-7.459-3.448-10.582-.727s-3.448 7.458-.727 10.581c13.484 15.473 37.536 15.518 51.059 0z"/><path d="m0 471.378c0 4.142 3.358 7.5 7.5 7.5h497c4.142 0 7.5-3.358 7.5-7.5 0-19.863 0-328.863 0-349.448 0-3.931-3.035-7.195-6.956-7.48-1.451-.105-23.166-1.609-56.267.001-32.181-76.297-200.462-104.323-311.325-60.683-32.339 12.73-55.965 29.989-68.692 50.106-18.881-1.006-39.418-1.094-61.656.08-3.982.211-7.104 3.501-7.104 7.49zm15-228.64h130.376l-125.788 221.14h-4.588zm217.603 221.139 5.403-88.359h35.989l5.403 88.36zm61.823.001-5.89-96.318c-.242-3.957-3.521-7.042-7.486-7.042h-50.1c-3.964 0-7.244 3.085-7.486 7.042l-5.89 96.317h-127.421l20.847-42.42c1.827-3.718.294-8.212-3.423-10.039-3.72-1.828-8.212-.294-10.039 3.423l-24.098 49.037h-36.595l125.788-221.14h19.485c-75.06 153.505-72.3 145.261-72.152 148.869.314 7.691 10.779 10.018 14.226 3.008l74.64-151.877h32.266l-5.833 95.402c-.264 4.314 3.168 7.958 7.486 7.958h46.5c4.322 0 7.75-3.648 7.486-7.958l-5.833-95.402h32.267l108.678 221.14zm-23.148-132.78h-30.555l5.403-88.36c13.675.197 12.443.061 19.749 0zm225.722 132.78h-4.587c-5.978-10.509-95.49-167.875-98.289-172.796-1.408-2.476-4.013-3.844-6.673-3.792-5.605.111-9.2 6.224-6.366 11.208 3.689 6.485 91.191 160.316 94.071 165.379h-36.595c-3.243-6.599-105.434-214.539-108.678-221.14h19.485c4.337 7.625 12.682 22.295 17.026 29.932 2.059 3.619 6.646 4.848 10.228 2.811 3.6-2.048 4.858-6.627 2.811-10.228l-12.808-22.515h130.375zm0-334.807-.001 98.667c-40.079 0-295.277 0-320.99 0 60.112-57.826 148.205-85.469 230.761-94.757 42.245-4.902 76.202-4.431 90.23-3.91zm-354.053-61.345c102.744-40.446 255.821-15.184 289.711 47.711-61.243 4.509-125.623 17.865-181.275 43.8-14.01-11.025-65.102-45.518-164.972-54.175 11.898-14.473 31.49-27.477 56.536-37.336zm-127.947 50.873c45.941-1.894 93.357 1.416 137.219 12.543 28.364 7.151 59.754 18.976 83.966 35.605-29.609 15.469-57.863 35.79-81.218 60.99h-139.967z"/></svg>