<svg id="Capa_1" enable-background="new 0 0 512 512" height="512" viewBox="0 0 512 512" width="512" xmlns="http://www.w3.org/2000/svg"><path d="m504.5 278.458v-68.192c-22.346-11.181-48.654-11.181-71 0-22.346 11.181-48.654 11.181-71 0-22.346-11.181-48.654-11.181-71 0-22.346 11.181-48.654 11.181-71 0-22.346-11.181-48.654-11.181-71 0-22.346 11.181-48.654 11.181-71 0-22.346-11.181-48.654-11.181-71 0v68.192l44.591 29.903h398.446z" fill="#a4e6ff"/><path d="m37.5 293.81v-91.73c-10.31.716-20.512 3.439-30 8.187v68.192l40.805 27.364z" fill="#5bd6fd"/><path d="m7.5 319.501v-43.492c22.346-11.181 48.654-11.181 71 0 22.346 11.181 48.654 11.181 71 0 22.346-11.181 48.654-11.181 71 0 22.346 11.181 48.654 11.181 71 0 22.346-11.181 48.654-11.181 71 0 22.346 11.181 48.654 11.181 71 0 22.346-11.181 48.654-11.181 71 0v68.191l-174.033 40.238z" fill="#5bd6fd"/><path d="m504.5 412.392v-68.192c-22.346-11.181-48.654-11.181-71 0-22.346 11.181-48.654 11.181-71 0-22.346-11.181-48.654-11.181-71 0-22.346 11.181-48.654 11.181-71 0-20.073-10.044-43.342-11.059-64.065-3.058.032.007.064.015.097.022v91.899h304.723z" fill="#00b4fb"/><path d="m37.5 267.822c-10.31.716-20.512 3.439-30 8.187v43.493l30 6.032z" fill="#00b4fb"/><path d="m170.094 12.064c-39.159 0-70.903 31.744-70.903 70.903v46.951h141.807v-46.951c0-39.159-31.745-70.903-70.904-70.903z" fill="#ff71a7"/><path d="m185.094 13.668c-4.837-1.042-9.852-1.604-15-1.604-39.159 0-70.903 31.745-70.903 70.903v46.951h30v-46.951c0-34.011 23.951-62.415 55.903-69.299z" fill="#fa3482"/><path d="m170.094 63.331c-14.577 0-26.394 11.817-26.394 26.394v40.192h52.788v-40.192c.001-14.577-11.817-26.394-26.394-26.394z" fill="#423e4f"/><path d="m249.225 216.931-79.132 16.39-79.132-16.39 8.232-55.059 70.9-25.685 70.9 25.685z" fill="#ff71a7"/><path d="m120.961 216.931 8.232-55.059h-30l-8.232 55.059z" fill="#fa3482"/><path d="m278.054 409.722h-215.923l15.959-106.719 92.003-17.434 92.003 17.434z" fill="#ff71a7"/><path d="m78.089 303.003-15.958 106.719h30l15.958-106.719z" fill="#fa3482"/><path d="m262.096 303.003h-184.006l12.871-86.072h158.264z" fill="#e8e8e8"/><path d="m90.961 216.931-12.872 86.072h30l12.872-86.072z" fill="#c7c5cb"/><path d="m504.5 412.392v87.545h-497v-180.436l52.969 5.376c8.49.862 16.69 3.562 24.031 7.912l51.415 30.468c6.377 3.779 13.348 6.452 20.616 7.906l90.617 18.124 76.561 9.213c4.491.541 9.029.584 13.53.131l77.012-7.76c7.873-.793 15.818-.493 23.609.893l21.347 3.796c6.347 1.129 12.548 2.967 18.484 5.481z" fill="#fab659"/><path d="m7.5 319.501v180.435h30v-177.39z" fill="#f59e18"/><path d="m240.998 110.504h-141.807c-8.286 0-15.002 6.717-15.002 15.002v21.366c0 8.286 6.717 15.002 15.002 15.002h141.807c8.286 0 15.002-6.717 15.002-15.002v-21.366c0-8.286-6.717-15.002-15.002-15.002z" fill="#e8e8e8"/><path d="m114.189 146.872v-21.366c0-8.286 6.717-15.002 15.002-15.002h-30c-8.286 0-15.002 6.717-15.002 15.002v21.366c0 8.286 6.717 15.002 15.002 15.002h30c-8.286 0-15.002-6.716-15.002-15.002z" fill="#c7c5cb"/><path d="m119.684 246.716c-4.142 0-7.5 3.358-7.5 7.5v9.871c0 4.142 3.358 7.5 7.5 7.5s7.5-3.358 7.5-7.5v-9.871c0-4.142-3.358-7.5-7.5-7.5z"/><path d="m222.418 246.716c-4.142 0-7.5 3.358-7.5 7.5v9.871c0 4.142 3.358 7.5 7.5 7.5s7.5-3.358 7.5-7.5v-9.871c0-4.142-3.358-7.5-7.5-7.5z"/><path d="m189.521 258.138c-3.123-2.721-7.86-2.396-10.582.727-4.18 4.797-11.6 4.791-15.776.001-2.721-3.124-7.459-3.448-10.582-.728s-3.448 7.458-.727 10.581c10.156 11.658 28.246 11.645 38.394.001 2.721-3.123 2.396-7.86-.727-10.582z"/><path d="m507.856 203.559c-24.331-12.174-53.381-12.174-77.712 0-20.127 10.07-44.16 10.07-64.288 0-24.33-12.174-53.381-12.174-77.712 0-10.02 5.013-21.044 7.59-32.202 7.58l-6.491-43.418c8.23-3.349 14.049-11.43 14.049-20.849v-21.366c0-9.778-6.272-18.116-15.002-21.212v-21.327c0-43.232-35.171-78.403-78.403-78.403-12.323 0-24.142 2.797-35.128 8.313-3.702 1.858-5.196 6.366-3.337 10.068 1.858 3.702 6.367 5.195 10.068 3.337 8.878-4.458 18.433-6.718 28.397-6.718 34.961 0 63.403 28.443 63.403 63.403v20.037h-29.509v-13.279c0-18.689-15.205-33.894-33.895-33.894s-33.894 15.205-33.894 33.894v13.278h-29.509v-20.036c0-14.747 5.177-29.11 14.577-40.444 2.644-3.188 2.203-7.916-.985-10.561-3.188-2.644-7.916-2.203-10.561.985-11.627 14.02-18.031 31.783-18.031 50.019v21.327c-8.731 3.096-15.002 11.434-15.002 21.212v21.366c0 9.418 5.818 17.498 14.046 20.848l-5.587 37.372c-1.111-.487-2.212-.992-3.292-1.532-24.331-12.174-53.381-12.174-77.712 0-2.54 1.271-4.144 3.867-4.144 6.707v289.67c0 4.142 3.358 7.5 7.5 7.5h497c4.142 0 7.5-3.358 7.5-7.5 0-64.384 0-231.397 0-289.67 0-2.84-1.604-5.436-4.144-6.707zm-77.712 133.934c-20.05 10.032-44.08 10.109-64.288 0-16.008-8.011-33.908-10.674-51.01-8.28-20.433 2.853-25.441 9.273-39.28 13.151-12.92-86.395-.103-.69-7.67-51.289 9.475-1.324 18.456-4.103 26.96-8.359 20.269-10.142 44.322-9.988 64.288 0 24.231 12.127 53.287 12.22 77.712 0 19.006-9.513 41.358-9.904 60.144-1.904v52.152c-21.582-7.288-45.846-5.989-66.856 4.529zm-288.259 20.524c-6.206-3.333-53.115-31.821-59.253-34.676.164-1.094 1.701-11.372 1.92-12.838h171.083c9.708 64.917 1.103 7.376 11.003 73.575l-18.303-2.203-90.331-18.066c-5.649-1.13-11.06-3.076-16.119-5.792zm-126.885-45.294v-31.912c18.724-7.908 40.326-7.485 58.648 1.184l-5.46 36.513c-6.923-1.467-9.44-1.126-53.188-5.785zm90.654-143.348h128.878l5.988 40.056h-140.854zm-8.231 55.055h145.339l9.122 60.996c1.6 10.698 1.476 9.867 1.507 10.076h-166.596zm197.433-7.457c20.127-10.071 44.16-10.071 64.288 0 24.33 12.173 53.381 12.174 77.712 0 18.765-9.389 40.92-10.025 60.144-1.909v49.708c-21.896-7.432-46.238-5.793-66.856 4.529-20.127 10.071-44.16 10.07-64.288-.001-24.331-12.174-53.38-12.173-77.712.001-7.015 3.507-14.717 5.891-22.47 6.917-10.399-69.543-6.271-41.934-7.491-50.098 12.713-.318 25.236-3.424 36.673-9.147zm-143.656-127.248c0-10.418 8.476-18.894 18.895-18.894s18.895 8.476 18.895 18.894v13.278h-37.79zm-59.511 35.78c0-4.136 3.364-7.501 7.5-7.502.117 0 141.919 0 141.812 0 4.136.001 7.5 3.366 7.5 7.502v21.366c0 4.137-3.365 7.502-7.502 7.502-26.473 0-145.778 0-141.809 0-4.136-.001-7.5-3.366-7.5-7.502v-21.366zm-76.689 89.559c19.225-8.117 41.381-7.479 60.145 1.909 2.507 1.254 5.088 2.391 7.718 3.401l-6.916 46.244c-19.36-7.897-41.202-8.562-60.947-1.847v-49.707zm0 277.373v-164.637c48.412 5.179 52.794 3.807 65.676 11.441 52.493 30.56 56.701 35.739 74.385 39.276 94.832 18.959 90.631 18.148 91.192 18.216l76.561 9.213c11.593 1.396 18.195-.473 34.899-1.84 4.121-.416 7.125-4.093 6.71-8.214-.416-4.131-4.109-7.127-8.214-6.71l-19.721 1.987c-9.988 1.006-14.091-.734-54.406-5.232-1.068-7.14-3.317-22.179-4.282-28.634 9.663-2.505 15.92-5.902 18.954-7.311 19.727-9.146 42.891-8.841 62.39.915 20.788 10.414 45.704 12.16 68.385 3.995 11.157-4.016 22.645-13.057 46.615-11.357 7.853.553 15.592 2.396 22.856 5.459v52.068l-16.384-6.937c-14.53-6.151-24.329-6.323-41.443-9.755-19.221-3.417-30.944.159-53.36 1.819-4.121.415-7.125 4.093-6.71 8.214.416 4.121 4.091 7.127 8.214 6.71 28.895-2.896 35.651-4.389 49.23-1.975l21.347 3.796c13.475 2.397 20.445 6.92 39.105 14.417v75.076z"/></svg>