<svg id="Capa_1" enable-background="new 0 0 512 512" height="512" viewBox="0 0 512 512" width="512" xmlns="http://www.w3.org/2000/svg"><path d="m499.501 266.231c12.007-26.934 1.73-58.586-23.809-73.329l.008-.074c3.046-29.298-16.506-56.172-45.319-62.292l-.077-.016-.016-.078c-6.12-28.813-32.994-48.365-62.292-45.319l-.075.008v-.001c-14.743-25.538-46.395-35.815-73.328-23.809h-.001l-.099-.089c-21.892-19.669-55.091-19.669-76.983 0l-.099.089c-26.934-12.006-58.585-1.73-73.329 23.809l-.074-.008c-29.298-3.046-56.172 16.506-62.292 45.319l-.016.077-.078.017c-28.813 6.12-48.365 32.994-45.319 62.292l.008.075h-.001c-25.538 14.743-35.815 46.395-23.809 73.328v.001z" fill="#36d39a"/><path d="m116.91 88.84c-17.438 6.896-31.06 22.126-35.196 41.6l-.016.078-.078.016c-28.813 6.12-48.365 32.994-45.319 62.292l.008.075h-.001c-25.538 14.743-35.815 46.395-23.809 73.329h108.069c-11.79-36.331-35.773-126.362-3.658-177.39z" fill="#00c071"/><path d="m7.5 248.544h497v216.977h-497z" fill="#5bd6fd"/><ellipse cx="204.316" cy="371.769" fill="#00c071" rx="135.82" ry="39.57"/><path d="m166.931 262.079c-30.362-35.758-70.947-54.664-104.758-52.259-7.863 32.979 4.212 76.093 34.575 111.851 30.369 35.766 70.954 54.672 104.772 52.26 7.856-32.973-4.22-76.086-34.589-111.852z" fill="#817cd0"/><path d="m340.866 209.82c-33.811-2.405-74.395 16.5-104.758 52.259-30.369 35.766-42.444 78.879-34.589 111.853 33.818 2.412 74.403-16.494 104.772-52.26 30.363-35.759 42.439-78.873 34.575-111.852z" fill="#817cd0"/><path d="m166.931 262.079c-11.487-13.529-24.439-24.641-37.933-33.103-2.3 12.034-3.519 24.547-3.519 37.305 0 36.596 9.918 71.216 27.159 98.057 16.627 7.346 33.458 10.693 48.881 9.593 7.857-32.973-4.219-76.086-34.588-111.852z" fill="#635ac5"/><path d="m236.109 262.079c-30.369 35.766-42.444 78.879-34.589 111.853 15.421 1.1 32.248-2.247 48.872-9.589 17.24-26.843 27.158-61.464 27.158-98.061 0-12.756-1.219-25.268-3.517-37.3-13.491 8.461-26.439 19.571-37.924 33.097z" fill="#635ac5"/><path d="m201.52 158.641c-27.34 20.05-46.04 60.73-46.04 107.64 0 46.92 18.7 87.6 46.04 107.65 27.33-20.05 46.03-60.73 46.03-107.65 0-46.91-18.7-87.59-46.03-107.64z" fill="#817cd0"/><path d="m177.483 103.38c-4.142 0-7.5 3.357-7.5 7.5v15.089c0 4.142 3.358 7.5 7.5 7.5s7.5-3.357 7.5-7.5v-15.089c0-4.143-3.358-7.5-7.5-7.5z"/><path d="m334.529 103.38c-4.142 0-7.5 3.357-7.5 7.5v15.089c0 4.142 3.358 7.5 7.5 7.5s7.5-3.357 7.5-7.5v-15.089c0-4.143-3.358-7.5-7.5-7.5z"/><path d="m281.635 119.865c-3.122-2.721-7.86-2.396-10.581.727-7.955 9.129-22.121 9.152-30.096 0-2.722-3.123-7.459-3.448-10.581-.727-3.123 2.722-3.448 7.459-.727 10.582 13.948 16.005 38.779 15.989 52.713 0 2.72-3.123 2.395-7.86-.728-10.582z"/><path d="m511.852 247.083c1.517-23.043-9.369-45.206-28.372-58.122.984-29.781-18.355-56.37-46.99-64.604-8.236-28.641-34.824-47.98-64.6-46.992-16.701-24.659-47.926-34.797-75.925-24.655-23.512-18.33-56.432-18.325-79.922-.001-28.001-10.138-59.223.001-75.923 24.657-29.775-.969-56.334 18.337-64.595 46.989-28.631 8.23-47.969 34.809-46.993 64.604-19.001 12.916-29.889 35.08-28.372 58.124-.282 1.402-.093-12.192-.148 218.453 0 4.142 3.358 7.5 7.5 7.5h496.988c4.142 0 7.5-3.357 7.5-7.5v-216.972c0-.507-.052-1.002-.148-1.481zm-14.852 210.953h-481.989v-201.972h40.159c2.898 13.509 8.344 28.101 16.124 42.064 2.167 3.888 7.323 5.133 11.055 2.336 2.785-2.089 4.054-6.02 1.877-9.957-12.144-21.91-19.762-48.875-15.847-73.371 29.403.129 58.809 16.39 80.066 36.384-2.738 38.845 6.754 80.888 32.933 111.914-31.071-5.239-60.566-26.026-80.958-51.101-2.457-3.011-6.768-3.617-9.942-1.516-3.742 2.475-4.478 7.59-1.687 11.009 3.926 4.808 7.87 9.222 12.863 14.167-26.655 8.494-40.647 20.062-40.647 33.795 0 30.901 72.097 47.069 143.317 47.069s143.317-16.168 143.317-47.069c0-10.397-8.204-24.441-44.922-35.112 21.97-22.221 38.765-50.801 45.2-80.611h30.451c4.142 0 7.5-3.357 7.5-7.5 0-4.142-3.358-7.5-7.5-7.5h-28.133c.999-10.831.482-22.259-2.071-32.963-.759-3.185-3.497-5.509-6.763-5.742-4.774-.34-9.391-.257-13.878.088-27.403 2.158-54.268 15.639-75.128 33.023-5.517-31.433-20.512-63.847-46.433-82.855-2.641-1.937-6.231-1.937-8.872-.001-20.58 15.091-39.492 43.266-46.442 82.847-30.976-25.649-63.634-34.913-88.998-33.103-3.266.232-6.004 2.557-6.763 5.742-2.51 10.525-3.063 22.062-2.034 32.963h-37.805c.601-17.087 9.956-32.95 25.019-41.646 2.562-1.479 4.008-4.402 3.702-7.346-2.656-25.55 14.29-48.842 39.504-54.197 2.893-.619 5.17-2.958 5.785-5.853 5.337-25.126 28.624-42.071 54.244-39.41 2.948.312 5.799-1.143 7.28-3.709 12.863-22.28 40.284-31.182 63.779-20.708 4.676 2.084 8.064-1.313 8.164-1.36 19.086-17.147 47.871-17.148 66.992.031l.1.088c2.202 1.954 5.344 2.438 8.031 1.24 23.497-10.475 50.916-1.572 63.778 20.709 1.479 2.562 4.399 4.009 7.346 3.702 25.551-2.655 48.842 14.29 54.198 39.504.619 2.894 2.958 5.169 5.853 5.784 25.127 5.337 42.073 28.629 39.409 54.25-.308 2.945 1.145 5.795 3.709 7.275 15.063 8.696 24.418 24.559 25.018 41.646h-88.594c-4.142 0-7.5 3.358-7.5 7.5s3.358 7.5 7.5 7.5h88.633zm-162.323-240.9c9.53 59.57-47.156 137.254-113.01 148.305 25.924-30.35 35.711-72.57 32.934-111.913 26.892-25.283 56.685-36.289 80.076-36.392zm-219.874 132.648c24.053 19.439 55.502 33.732 86.724 31.682 31.606 2.061 63.495-12.606 88.048-32.768 29.557 7.196 43.065 16.9 43.065 23.089 0 11.192-44.07 32.07-128.317 32.07s-128.317-20.877-128.317-32.07c0-5.752 12.172-14.924 38.797-22.003zm86.723-181.552c51.349 43.963 51.302 152.12 0 196.144-52.518-44.966-50.443-152.971 0-196.144z"/></svg>