<svg id="Capa_1" enable-background="new 0 0 512 512" height="512" viewBox="0 0 512 512" width="512" xmlns="http://www.w3.org/2000/svg"><path d="m82.962 397.043-49.325 26.119-26.137-32.137v-83.752l17.542-32.487h136.305v80.089z" fill="#f8e86a"/><path d="m237.265 215.619-44.395 34.513h-159.233l-26.137-26.602v-83.752l54.636-43.45h158.102l70.533 49.546 3.814 4.484-7.621 40.35z" fill="#5bd6fd"/><path d="m290.771 145.874c-8.232-.33-16.395-2.689-23.724-7.067-7.94-4.737-16.861-7.106-25.782-7.106s-17.842 2.369-25.782 7.106c-7.95 4.737-16.871 7.115-25.792 7.115s-17.842-2.378-25.782-7.115-16.861-7.106-25.782-7.106-17.842 2.369-25.792 7.106c-7.94 4.737-16.861 7.115-25.782 7.115s-17.842-2.378-25.782-7.115-16.861-7.106-25.782-7.106-17.851 2.369-25.792 7.106c-.563.34-1.126.66-1.699.971v-19.793l46.759-54.981c10.454-12.299 23.355-21.996 37.673-28.607 14.308-6.62 30.053-10.163 46.196-10.163 32.286 0 62.94 14.172 83.859 38.77z" fill="#f8e86a"/><path d="m23.737 133.001 47.286-55.601c15.219-17.903 33.998-32.02 54.841-41.643 7.774-3.597 15.839-6.568 24.117-8.882-3.916-.424-7.872-.641-11.853-.641-16.143 0-31.888 3.543-46.196 10.163-14.318 6.61-27.219 16.308-37.673 28.606l-46.759 54.982v19.792c.573-.311 1.136-.631 1.699-.971 4.579-2.73 9.492-4.648 14.538-5.805z" fill="#fab659"/><path d="m161.347 304.875c-7.271-3.786-15.25-5.679-23.219-5.679-8.921 0-17.842 2.369-25.792 7.106-7.94 4.737-16.861 7.115-25.782 7.115s-17.842-2.378-25.782-7.115-16.861-7.106-25.782-7.106-17.851 2.369-25.792 7.106c-.563.34-1.126.66-1.699.971v-83.743c.573-.311 1.136-.631 1.699-.971 7.94-4.737 16.871-7.106 25.792-7.106s17.842 2.369 25.782 7.106 16.861 7.115 25.782 7.115 17.842-2.378 25.782-7.115c7.95-4.737 16.871-7.106 25.792-7.106s17.842 2.369 25.782 7.106 16.861 7.115 25.782 7.115 17.842-2.378 25.792-7.115c6.756-4.028 14.211-6.348 21.783-6.94v56.151z" fill="#ff71a7"/><path d="m7.5 485.765v-94.741c.573-.311 1.136-.631 1.699-.971 7.94-4.737 16.871-7.106 25.792-7.106s17.842 2.368 25.782 7.106c6.873 4.106 14.483 6.436 22.19 6.989v47.62z" fill="#5bd6fd"/><path d="m47.017 439.308-39.517 46.457h497v-57.261l-29.807-39.285h-314.846z" fill="#ff71a7"/><path d="m129.653 342.14 78.569-92.372 86.361-42.837h144.826l65.091 44.837v88.363l-29.807 49.088h-314.846z" fill="#f8e86a"/><path d="m248.222 249.768 29.187-34.318-69.187 34.318-78.569 92.372 17.197 26.813 22.803-26.813z" fill="#fab659"/><path d="m47.5 485.765 39.517-46.458 24.261-28.526-64.261 28.526-26.345 30.973-13.172 15.485z" fill="#fa3482"/><path d="m504.5 340.131v88.373l-8.212 4.902c-15.881 9.474-35.683 9.474-51.573 0-7.94-4.737-16.861-7.115-25.782-7.115s-17.842 2.378-25.782 7.115c-7.95 4.737-16.871 7.106-25.792 7.106s-17.841-2.368-25.782-7.106c-7.94-4.737-16.861-7.115-25.782-7.115s-17.842 2.378-25.792 7.115c-7.94 4.737-16.861 7.106-25.782 7.106s-17.841-2.368-25.782-7.106c-7.94-4.737-16.861-7.115-25.782-7.115s-17.851 2.378-25.792 7.115c-7.94 4.737-16.861 7.106-25.782 7.106s-17.841-2.368-25.782-7.106c-7.94-4.737-16.871-7.115-25.792-7.115s-17.842 2.378-25.782 7.115-16.861 7.106-25.782 7.106c-3.669 0-7.329-.398-10.93-1.204l82.636-97.167c1.932.835 3.815 1.796 5.649 2.893 7.94 4.737 16.861 7.115 25.782 7.115s17.842-2.378 25.782-7.115 16.871-7.105 25.792-7.105 17.842 2.369 25.782 7.105c7.94 4.737 16.861 7.115 25.782 7.115s17.842-2.378 25.782-7.115c7.95-4.737 16.871-7.105 25.792-7.105s17.842 2.369 25.782 7.105c7.94 4.737 16.861 7.115 25.782 7.115s17.842-2.378 25.792-7.115c7.94-4.737 16.861-7.105 25.782-7.105s17.842 2.369 25.782 7.105c15.89 9.484 35.693 9.484 51.573 0z" fill="#5bd6fd"/><path d="m504.5 226.801v24.967l-8.212 4.902c-15.881 9.474-35.683 9.474-51.573 0-7.94-4.737-16.861-7.106-25.782-7.106s-17.842 2.369-25.782 7.106c-7.95 4.737-16.871 7.106-25.792 7.106s-17.841-2.369-25.782-7.106c-7.94-4.737-16.861-7.106-25.782-7.106s-17.842 2.369-25.792 7.106c-7.94 4.737-16.861 7.106-25.782 7.106s-17.841-2.369-25.782-7.106c-7.94-4.737-16.861-7.106-25.782-7.106-1.485 0-2.961.068-4.436.204l74.045-87.062c10.454-12.299 23.345-21.986 37.663-28.597 14.318-6.62 30.053-10.163 46.196-10.163 32.286 0 62.94 14.172 83.859 38.76z" fill="#ff71a7"/><path d="m161.144 352.146c-.02 0-.039.002-.059.002-8.921 0-17.841-2.378-25.782-7.115-1.835-1.097-3.718-2.058-5.649-2.893l-82.636 97.167c3.601.806 7.261 1.204 10.93 1.204 8.921 0 17.841-2.368 25.782-7.105 4.092-2.441 8.446-4.244 12.925-5.43z" fill="#00b4fb"/><path d="m282.267 162.706-27.999 32.921-46.046 54.141c1.475-.136 2.951-.204 4.436-.204 8.921 0 17.842 2.369 25.782 7.105.875.522 1.766 1.003 2.663 1.468l7.119-8.37 74.045-87.062c10.455-12.299 23.345-21.987 37.663-28.597 8.319-3.847 17.119-6.646 26.197-8.323-6.744-1.26-13.627-1.851-19.942-1.839-.02 0-.039 0-.058 0-11.098 0-22.004 1.675-32.388 4.873-20.064 6.176-37.907 17.929-51.472 33.887z" fill="#fa3482"/><path d="m292.475 310.34c4.142 0 7.5-3.358 7.5-7.5v-14.39c0-4.143-3.358-7.5-7.5-7.5s-7.5 3.357-7.5 7.5v14.39c0 4.142 3.358 7.5 7.5 7.5z"/><path d="m442.244 310.34c4.142 0 7.5-3.358 7.5-7.5v-14.39c0-4.143-3.358-7.5-7.5-7.5s-7.5 3.357-7.5 7.5v14.39c0 4.142 3.358 7.5 7.5 7.5z"/><path d="m392.756 307.339c2.721-3.123 2.396-7.86-.727-10.582-3.122-2.721-7.86-2.396-10.582.727-7.446 8.545-20.709 8.57-28.177 0-2.722-3.123-7.459-3.448-10.582-.727-3.123 2.722-3.448 7.459-.727 10.582 13.442 15.423 37.369 15.406 50.795 0z"/><path d="m63.243 189.642c4.142 0 7.5-3.358 7.5-7.5v-14.39c0-4.142-3.358-7.5-7.5-7.5s-7.5 3.358-7.5 7.5v14.39c0 4.142 3.358 7.5 7.5 7.5z"/><path d="m213.012 189.642c4.142 0 7.5-3.358 7.5-7.5v-14.39c0-4.142-3.358-7.5-7.5-7.5s-7.5 3.358-7.5 7.5v14.39c0 4.142 3.358 7.5 7.5 7.5z"/><path d="m163.524 186.642c2.722-3.123 2.396-7.86-.726-10.582-3.123-2.721-7.86-2.397-10.582.726-7.448 8.546-20.709 8.571-28.178 0-2.722-3.123-7.459-3.448-10.582-.727s-3.448 7.459-.727 10.582c13.439 15.42 37.366 15.409 50.795.001z"/><path d="m510.213 221.942-54.515-64.096c-6.33-7.441-13.591-14.084-21.583-19.747-3.379-2.395-8.061-1.597-10.456 1.783s-1.596 8.061 1.784 10.456c6.973 4.94 13.308 10.737 18.829 17.227l52.728 61.994v17.951l-4.554 2.719c-13.532 8.073-30.35 8.072-43.889 0-18.232-10.878-40.992-10.893-59.245-.002-13.562 8.081-30.41 8.045-43.892.002-18.197-10.857-40.943-10.914-59.258 0-13.504 8.056-30.359 8.066-43.879 0-5.913-3.524-12.463-5.932-18.57-7.098 70.119-82.447 67.299-79.847 75.748-87.073 27.417-23.479 65.38-30.868 99.827-19.101 3.921 1.339 8.183-.752 9.522-4.672s-.753-8.183-4.672-9.522c-36.767-12.562-77.426-6.161-108.565 17.18l-67.873-79.797c-6.229-7.325-13.351-13.874-21.168-19.465-3.37-2.41-8.054-1.633-10.463 1.737-2.41 3.369-1.632 8.054 1.737 10.463 17.053 12.196 21.103 21.313 70.309 77.932-17.038-9.043-38.679-9.064-56.47 1.551-13.574 8.088-30.376 8.063-43.892.002-18.196-10.855-40.944-10.914-59.259 0-13.525 8.068-30.336 8.079-43.878 0-15.095-9.005-33.423-10.587-49.615-4.6v-5.023l44.973-52.881c27.063-31.837 71.352-44.478 111.77-30.454 3.912 1.357 8.186-.714 9.544-4.627s-.714-8.186-4.627-9.544c-12.435-4.314-25.398-6.501-38.532-6.501-34.725 0-67.456 15.381-89.583 41.411l-46.759 54.98c-1.154 1.355-1.787 3.078-1.787 4.858v365.78c0 .005.001.01.001.015.008 4.055 3.335 7.485 7.497 7.485h.001 497c4.142 0 7.5-3.358 7.5-7.5v-57.262c0-14.953 0-193.48 0-201.702.001-1.78-.632-3.503-1.786-4.859zm-61.658 205.022c-18.227-10.874-40.949-10.915-59.243-.001-13.051 7.778-29.944 8.323-43.892.002-18.218-10.868-40.921-10.926-59.258 0-13.39 7.988-30.246 8.133-43.879 0-18.254-10.892-40.982-10.905-59.258 0-13.365 7.973-30.22 8.149-43.879 0-18.255-10.89-40.981-10.905-59.258 0-4.991 2.976-10.872 5.082-17.448 5.786 7.461-8.773-11.883 13.971 69.089-81.236 18.222 10.833 40.903 10.863 59.18-.041 13-7.756 29.646-8.29 43.509-.209 20.027 11.679 42.214 10.598 59.625.211 13.83-8.242 30.713-7.875 43.891-.002 17.913 10.687 40.626 11.102 59.259 0 13.502-8.056 30.358-8.066 43.877 0 17.437 10.404 38.815 10.745 56.129 1.742v71.031l-4.554 2.719c-13.531 8.072-30.349 8.071-43.89-.002zm-391.625-197.964c18.425 10.993 41.144 10.801 59.245.002 13.551-8.075 30.398-8.052 43.892-.003 16.359 9.761 36.25 10.758 53.36 3.073-9.174 10.786-47.398 55.725-54.131 63.642-16.02-6.279-34.819-5.376-50.803 4.147-13.523 8.068-30.337 8.078-43.878 0-15.465-9.225-33.795-10.437-49.615-4.6v-67.342c13.199-6.972 29.087-6.581 41.93 1.081zm7.685 154.613c-15.827-9.442-34.243-10.284-49.615-4.6v-67.351c12.846-6.786 28.765-6.773 41.93 1.081 18.25 10.888 40.968 10.907 59.245.002 9.562-5.696 21.271-7.623 32.618-4.682-6.636 7.802-62.312 73.266-68.94 81.059-.269-.043-.539-.083-.808-.13-5.25-.943-10.099-2.791-14.43-5.379zm-49.615 11.802c13.088-6.911 28.99-6.639 41.926 1.078 3.55 2.119 7.631 4.017 12.042 5.427l-27.664 32.529-26.304 30.924zm278.843-132.302c13.514-8.053 30.359-8.076 43.892-.002 18.198 10.856 40.941 10.913 59.259 0 13.482-8.044 30.336-8.08 43.88.001 17.009 10.136 38.141 10.984 56.126 1.738v71.023c-1.223.73-4.784 2.855-4.557 2.72-13.531 8.081-30.346 8.079-43.886-.001-18.232-10.877-40.989-10.891-59.245-.002-13.582 8.094-30.389 8.057-43.892.002-18.196-10.855-40.94-10.914-59.258 0-13.523 8.068-30.338 8.078-43.879 0-18.236-10.879-41.001-10.891-59.258 0-12.897 7.695-28.604 7.98-41.582 1.268 5.318-6.252 60.85-71.543 70.41-82.783 7.378-.219 15.579 1.758 22.746 6.034 18.23 10.876 40.987 10.893 59.244.002zm-236.913-117.865c18.252 10.888 40.966 10.906 59.245.002 13.595-8.101 30.445-8.025 43.892-.002 18.266 10.898 40.968 10.898 59.259 0 13.499-8.054 30.356-8.067 43.875-.002 6.018 3.599 11.936 5.697 18.376 7.064-4.99 5.052-14.316 16.72-48.088 56.173-7.501 1.103-14.804 3.435-21.845 7.633-13.58 8.093-30.389 8.059-43.892.002-18.197-10.855-40.941-10.914-59.259 0-13.523 8.068-30.337 8.078-43.878 0-14.639-8.733-32.726-10.761-49.615-4.6v-67.351c13.295-7.02 29.166-6.534 41.93 1.081zm440.07 333.018h-473.274l1.506-1.771 24.703-29.042c22.811 3.19 37.294-7.759 42.129-9.919 13.039-5.824 27.65-4.695 39.396 2.313 18.085 10.789 40.914 10.938 59.249 0 13.103-7.818 29.95-8.315 43.888 0 14.487 8.643 27.369 7.857 29.624 8.165.947-.126 14.801.679 29.621-8.163 13.537-8.07 30.349-8.08 43.892-.002 14.487 8.643 27.369 7.857 29.624 8.165 1.469-.193 14.921.602 29.635-8.165 13.522-8.067 30.334-8.079 43.88.001 16.805 10.014 37.949 11.083 56.126 1.738v36.68z"/></svg>