<svg id="Capa_1" enable-background="new 0 0 512 512" height="512" viewBox="0 0 512 512" width="512" xmlns="http://www.w3.org/2000/svg"><path d="m504.5 182.303v-116.015s-101.68 3.762-184.766 39.54v68.811l102.372 54.299z" fill="#00c071"/><path d="m7.5 32.699c367.786 0 305.699 149.604 497 149.604v189.331l-167.049 53.833h-267.98l-61.971-196.529z" fill="#36d39a"/><path d="m200.158 479.301h304.342v-107.667h-304.342l-29.755 75.319z" fill="#80dfb5"/><path d="m216.139 434.141-91.62-216.4c-90.549-13.295-117.019 11.197-117.019 11.197v250.362h192.658c16.949-29.079 15.981-45.159 15.981-45.159z" fill="#e8e8e8"/><path d="m329.519 178.772c7.363-5.57 17.564-5.473 24.95.067 6.439 4.829 9.517 12.923 7.938 20.815-3.285 16.416-11.797 43.796-33.153 57.97l-24.632-65.944s11.785-2.989 24.897-12.908z" fill="#ffbdd7"/><path d="m216.139 434.141-91.62-216.4c-37.091-5.446-63.424-4.55-81.596-1.595 6.741 25.471 17.671 42.569 28.618 53.968-.326 4.821-.49 9.662-.49 14.493 0 18.155 2.263 35.981 6.735 53.097-.63 4.84-.948 9.721-.948 14.585 0 34.124 15.048 65.95 42.373 89.615 22.658 19.624 51.594 31.587 82.655 34.4 15.17-27.183 14.273-42.163 14.273-42.163z" fill="#c7c5cb"/><path d="m102.767 178.772c-7.363-5.57-17.564-5.473-24.95.067-6.439 4.829-9.517 12.923-7.938 20.815 3.285 16.416 11.797 43.796 33.153 57.97l24.632-65.944s-11.785-2.989-24.897-12.908z" fill="#ffbdd7"/><g fill="#e8e8e8"><path d="m155.997 134.742c-4.42-6.966-13.165-9.825-20.907-6.973-7.133 2.627-11.757 9.523-11.537 17.121.277 9.569 2.493 23.263 10.857 37.413l35.993-31.069c0 .001-7.712-5.939-14.406-16.492z"/><path d="m276.289 134.742c4.42-6.966 13.165-9.825 20.907-6.973 7.133 2.627 11.757 9.523 11.537 17.121-.277 9.569-2.493 23.263-10.857 37.413l-35.993-31.069c.001.001 7.712-5.939 14.406-16.492z"/><path d="m252.65 422.437c-11.469 4.843-23.74 7.47-36.507 7.47s-25.038-2.627-36.518-7.47l-29.795-91.613v-132.761l36.727-53.904s19.361-4.854 29.586-4.854c10.224 0 20.142 1.688 29.575 4.843l36.73 58.379v129.054z"/></g><path d="m179.316 166.22c11.106-10.016 23.682-17.602 37.242-22.141v.011s7.736-1.938 16.01-3.366c-.004 0-.007-.001-.011-.002-1.32-.238-2.648-.448-3.981-.631-.026-.003-.052-.008-.077-.011-13.817-1.88-23.76-.112-37.138 2.884-2.912.651-4.803 1.125-4.803 1.125l-8.986 13.189z" fill="#c7c5cb"/><path d="m190.208 260.307s-6.225 86.288-10.583 162.13c-45.666-19.267-78.575-73.7-78.575-137.831 0-67.338 36.275-123.977 85.507-140.458v.011c-11.901 55.742 28.879 79.229 3.651 116.148z" fill="#77718c"/><path d="m133.557 314.901c-1.643-9.771-2.507-19.905-2.507-30.295 0-51.553 21.262-96.835 53.322-122.627.166-5.569.833-11.484 2.185-17.82v-.011c-49.232 16.481-85.507 73.12-85.507 140.458 0 17.254 2.401 33.794 6.773 49.149.433 1.522.887 3.031 1.359 4.53z" fill="#5c586f"/><path d="m331.225 284.606c0 64.13-32.909 118.564-78.575 137.831-4.358-75.842-10.583-162.13-10.583-162.13-25.217-36.919 15.553-60.406 3.651-116.148v-.011c49.232 16.481 85.507 73.12 85.507 140.458z" fill="#77718c"/><ellipse cx="216.138" cy="352.289" fill="#ffbdd7" rx="109.301" ry="94.665"/><path d="m136.837 352.288c0-47.874 41.034-87.44 94.302-93.773-4.905-.583-9.91-.892-15-.892-60.366 0-109.302 42.383-109.302 94.665s48.936 94.665 109.302 94.665c5.09 0 10.095-.309 15-.892-53.268-6.332-94.302-45.899-94.302-93.773z" fill="#ff71a7"/><ellipse cx="275.996" cy="335.74" fill="#423e4f" rx="20.47" ry="16.53" transform="matrix(.707 -.707 .707 .707 -156.567 293.496)"/><ellipse cx="156.29" cy="335.74" fill="#423e4f" rx="16.53" ry="20.47" transform="matrix(.707 -.707 .707 .707 -191.627 208.849)"/><path d="m144.07 257.322c4.142 0 7.5-3.358 7.5-7.5v-15.959c0-4.142-3.358-7.5-7.5-7.5-4.143 0-7.5 3.358-7.5 7.5v15.959c0 4.142 3.358 7.5 7.5 7.5z"/><path d="m288.208 226.363c-4.142 0-7.5 3.358-7.5 7.5v15.959c0 4.142 3.358 7.5 7.5 7.5s7.5-3.358 7.5-7.5v-15.959c0-4.142-3.357-7.5-7.5-7.5z"/><path d="m238.438 346.599c-3.122-2.722-7.86-2.396-10.582.727-6.221 7.138-17.247 7.101-23.435 0-2.722-3.123-7.459-3.448-10.582-.727-3.123 2.722-3.448 7.459-.727 10.582 12.185 13.981 33.879 13.968 46.052 0 2.723-3.123 2.398-7.86-.726-10.582z"/><path d="m295.774 315.962c-14.908-14.907-43.329-1.64-45.736 20.954-.76 7.135 1.493 13.915 6.18 18.602 9.748 9.748 26.319 7.664 36.77-2.787 10.906-10.905 12.156-27.4 2.786-36.769zm-13.392 26.163c-7.38 7.38-18.461 6.08-17.428-3.621 1.105-10.374 14.589-17.561 20.214-11.936 3.461 3.462 2.185 10.586-2.786 15.557z"/><path d="m136.513 315.961c-15.74 15.74.002 45.881 23.666 45.881 13.912 0 23.534-11.171 22.069-24.927-2.398-22.522-30.771-35.917-45.735-20.954zm22.542 30.821c-10.391-1.107-17.582-14.567-11.936-20.214 5.646-5.646 19.106 1.538 20.213 11.936.582 5.464-2.809 8.859-8.277 8.278z"/><path d="m0 228.938v250.362c0 4.142 3.358 7.5 7.5 7.5h497c4.142 0 7.5-3.358 7.5-7.5v-107.666c0-13.343 0-291.668 0-305.347 0-2.037-.829-3.987-2.296-5.4-1.467-1.414-3.45-2.169-5.482-2.095-4.145.154-101.042 4.106-183.66 38.541-41.256-27.583-95.396-54.25-196.025-65.996-4.111-.479-7.838 2.465-8.319 6.58-.48 4.114 2.466 7.838 6.58 8.318 234.983 27.428 210.563 140.17 374.134 143.49.023 0 .045.001.068.001v174.407h-44.09c-4.142 0-7.5 3.358-7.5 7.5s3.358 7.5 7.5 7.5h44.09v92.667h-284.298c2.916-5.939 5.508-12.364 7.144-17.399 53.905-1.507 96.234-34.166 109.017-75.267h94.047c4.142 0 7.5-3.358 7.5-7.5s-3.358-7.5-7.5-7.5h-90.752c1.174-8.868 1.075-18.21-.633-27.766 6.66-23.095 8.999-49.103 5.754-75.292 17.883-13.935 28.021-37.627 32.482-59.951 2.135-10.666-2.101-21.77-10.792-28.287-9.996-7.497-23.962-7.623-33.975-.048-6.01 4.55-11.371 7.341-17.436 9.94-.255-.356-.511-.71-.768-1.062 5.993-11.664 9.091-24.377 9.44-36.562.313-10.842-6.294-20.638-16.442-24.376-11.034-4.064-23.581.14-29.832 9.994-2.588 4.075-5.777 8.024-9.243 11.47-17.146-8.321-35.718-11.36-49.416-10.146-7.757.68-18.272 2.823-25.877 4.667-3.484.838-10.263 3.735-13.851 5.476-3.504-3.464-6.833-7.649-9.24-11.466-6.26-9.869-18.812-14.052-29.832-9.993-10.207 3.759-16.753 13.664-16.442 24.375.461 13.02 3.637 25.27 9.437 36.552-.258.354-.516.709-.772 1.067-6.22-2.527-12.156-5.948-17.429-9.937-14.072-10.646-35.007-5.736-42.663 10.815-2.524 5.457-3.289 11.6-2.104 17.52.363 1.812.859 4.05 1.189 5.415-15.926.728-34.059 3.253-48.715 9.515v-175.833c27.702.159 53.932 1.206 78.077 3.116 4.128.328 7.741-2.756 8.068-6.885s-2.755-7.742-6.885-8.068c-26.703-2.113-55.893-3.184-86.758-3.184-4.142 0-7.5 3.358-7.5 7.5zm497-154.705v100.487c-28.221-.624-50.586-4.784-69.679-11.327-38.155-14.558-71.617-41.269-91.981-55.818 64.886-24.933 138.049-31.729 161.66-33.342zm-482 158.619c13.922-8.239 37.004-11.08 53.144-11.46 5.498 15.158 14.113 29.636 26.853 39.673-3.091 25.053-1.24 50.914 5.755 75.307-10.46 58.547 37.534 111.683 103.368 117.542-2.216 5.944-5.236 12.267-8.337 17.887h-180.783zm197.712-85.875c6.506-.566 16.769.296 26.486 3.025 7.522 44.193-21.818 67.978-10.431 100.718-8.284-.785-16.74-.806-25.257 0 11.419-32.537-17.597-55.554-10.491-100.375 5.179-1.199 13.974-2.879 19.693-3.368zm123.153 36.627c8.939-4.635 19.994 2.204 19.427 12.685-.182 3.417-5.462 30.448-21.045 47.244-3.839-17.178-10.099-33.468-18.455-47.999 11.82-5.276 17.652-10.675 20.073-11.93zm-89.15 70.061c-17.19-28.523 12.33-50.628 8.36-97.512 52.048 25.989 75.289 93.426 66.949 152.9-14.33-26.914-41.65-47.44-75.309-55.388zm-136.465 55.391c-7.963-56.738 13.356-123.66 63.752-151.242h.001c1.057-.579 2.125-1.128 3.197-1.663-4.032 46.912 25.612 68.927 8.358 97.515-33.655 7.948-60.977 28.478-75.308 55.39zm104.082 130.377c-53.39-.797-99.995-37.921-99.995-87.145 0-57.899 63.724-98.035 126.573-84.55l.003.001c.003 0 .007.001.01.001 39.095 8.383 68.727 35.709 75.543 69.72v.001c11.356 56.651-41.623 102.889-102.134 101.972zm86.753-291.824c-.55 7.558-2.205 14.352-4.897 21.189-6.831-7.35-14.411-13.782-22.077-18.91 3.13-3.443 6.044-7.241 8.512-11.128 4.492-7.082 15.729-5.753 18.207 2.73.296 1.014.363 4.618.255 6.119zm-156.103-12.697c5.187 2.062 4.175 5.089 13.192 14.969-7.504 5.021-15.125 11.426-22.083 18.913-2.987-7.452-4.802-15.739-5.042-24.121-.148-5.149 7.294-12.439 13.933-9.761zm-56.199 47.342c8.91-1.069 9.925 5.404 27.697 13.288-8.348 14.52-14.603 30.794-18.441 47.957-11.062-11.938-17.588-29.243-20.804-45.317-1.504-7.511 3.634-14.963 11.548-15.928z"/></svg>