<svg id="Capa_1" enable-background="new 0 0 512 512" height="512" viewBox="0 0 512 512" width="512" xmlns="http://www.w3.org/2000/svg"><path d="m194.213 10.689c-9.043 0-16.374 7.331-16.374 16.374v51.609h32.749v-51.609c-.001-9.043-7.332-16.374-16.375-16.374z" fill="#5c586f"/><path d="m30.434 224.745c-7.884 1.264-15.621 3.717-22.934 7.376v68.192l44.59 29.903h119.591l22.521-53.063-32.907-67.868-32.929-13.146z" fill="#5bd6fd"/><path d="m450.536 330.216 53.964-29.903v-68.192c-22.346-11.181-48.654-11.181-71 0-22.346 11.181-48.654 11.181-71 0-1.958-.979-3.949-1.869-5.963-2.677l-34.35-48.887h-127.97v149.659z" fill="#5bd6fd"/><path d="m7.5 368.505 248.5-32.249 248.5 32.249v132.807h-497z" fill="#f8e86a"/><path d="m7.5 300.313c22.346-11.181 48.654-11.181 71 0 22.346 11.181 48.654 11.181 71 0 22.346-11.181 48.654-11.181 71 0 22.346 11.181 48.654 11.181 71 0 22.346-11.181 48.654-11.181 71 0 22.346 11.181 48.654 11.181 71 0 22.346-11.181 48.654-11.181 71 0v68.192h-497z" fill="#00b4fb"/><path d="m95.437 209.285.004-.001-32.92-13.144-32.921 13.144.004.001h-.005v8.102c0 18.183 14.74 32.923 32.923 32.923 18.183 0 32.923-14.74 32.923-32.923v-8.102z" fill="#fa3482"/><path d="m161.283 209.285.004-.001-32.92-13.144-32.921 13.144.004.001h-.006v8.102c0 18.183 14.74 32.923 32.923 32.923 18.183 0 32.923-14.74 32.923-32.923v-8.102z" fill="#fff"/><path d="m171.682 228.564v195.807c0 7.59 6.153 13.744 13.744 13.744h17.583c7.59 0 13.744-6.153 13.744-13.744v-195.807z" fill="#5c586f"/><path d="m171.682 276.125c7 2.694 14.593 4.184 22.53 4.184 7.941 0 15.537-1.491 22.54-4.188v-47.558h-45.07z" fill="#423e4f"/><path d="m227.13 209.285.004-.001-32.92-13.144-32.921 13.144.004.001h-.007v8.102c0 18.183 14.74 32.923 32.923 32.923 18.183 0 32.923-14.74 32.923-32.923v-8.102z" fill="#fa3482"/><path d="m292.976 209.285.004-.001-32.92-13.144-32.921 13.144.004.001h-.007v8.102c0 18.183 14.74 32.923 32.923 32.923 18.183 0 32.923-14.74 32.923-32.923v-8.102z" fill="#fff"/><path d="m358.826 209.284-32.92-13.144-32.921 13.144.004.001h-.008v8.102c0 18.183 14.74 32.923 32.923 32.923 18.183 0 32.923-14.74 32.923-32.923v-8.102h-.004z" fill="#fa3482"/><g fill="#ff71a7"><path d="m227.137 209.284h-65.848l-16.467-82.302 49.388-82.309 54.168 82.306z"/><path d="m95.441 209.284h-65.842c0-90.91 73.701-164.61 164.61-164.61 0 0 0 0-.007.007z"/><path d="m194.217 44.68c-.007-.007-.007-.007-.007-.007 90.917 0 164.617 73.701 164.617 164.61h-65.848z"/></g><path d="m194.203 44.68c-.504.842-32.914 54.974-32.914 164.604h-65.848c0-126.639 97.63-164.176 98.762-164.604z" fill="#e8e8e8"/><path d="m292.979 209.284h-65.841c0-109.63-32.417-163.762-32.921-164.604 1.131.428 98.762 37.965 98.762 164.604z" fill="#e8e8e8"/><circle cx="428.781" cy="100.036" fill="#f8e86a" r="41.453"/><path d="m448.781 121.488c-22.894 0-41.453-18.559-41.453-41.453 0-6.276 1.402-12.222 3.899-17.554-14.117 6.61-23.899 20.936-23.899 37.554 0 22.894 18.559 41.453 41.453 41.453 16.618 0 30.944-9.782 37.554-23.899-5.331 2.497-11.277 3.899-17.554 3.899z" fill="#fab659"/><path d="m132.616 167.029c4.142 0 7.5-3.358 7.5-7.5v-11.836c0-4.142-3.358-7.5-7.5-7.5s-7.5 3.358-7.5 7.5v11.836c0 4.142 3.358 7.5 7.5 7.5z"/><path d="m255.81 167.029c4.142 0 7.5-3.358 7.5-7.5v-11.836c0-4.142-3.358-7.5-7.5-7.5s-7.5 3.358-7.5 7.5v11.836c0 4.142 3.357 7.5 7.5 7.5z"/><path d="m210.231 154.696c-3.123-2.721-7.861-2.396-10.582.727-2.877 3.3-7.988 3.31-10.874 0-2.722-3.123-7.459-3.448-10.582-.727-3.123 2.722-3.448 7.459-.726 10.582 8.88 10.189 24.655 10.136 33.489 0 2.723-3.123 2.398-7.861-.725-10.582z"/><path d="m428.781 148.989c26.993 0 48.953-21.96 48.953-48.953 0-26.992-21.96-48.952-48.953-48.952s-48.953 21.96-48.953 48.952c.001 26.993 21.961 48.953 48.953 48.953zm0-82.906c18.722 0 33.953 15.231 33.953 33.952 0 18.722-15.231 33.953-33.953 33.953s-33.953-15.231-33.953-33.953c.001-18.721 15.232-33.952 33.953-33.952z"/><path d="m428.781 46.232c4.142 0 7.5-3.358 7.5-7.5v-11.471c0-4.143-3.358-7.5-7.5-7.5s-7.5 3.357-7.5 7.5v11.471c0 4.142 3.358 7.5 7.5 7.5z"/><path d="m477.433 61.99 8.111-8.111c2.929-2.929 2.929-7.678 0-10.607-2.928-2.929-7.677-2.929-10.606 0l-8.111 8.111c-2.929 2.929-2.929 7.678 0 10.606 2.927 2.93 7.677 2.931 10.606.001z"/><path d="m482.585 100.035c0 4.143 3.358 7.5 7.5 7.5h11.471c4.142 0 7.5-3.357 7.5-7.5 0-4.142-3.358-7.5-7.5-7.5h-11.471c-4.142 0-7.5 3.359-7.5 7.5z"/><path d="m466.827 138.081c-2.929 2.929-2.929 7.678 0 10.606l8.111 8.111c2.93 2.929 7.678 2.928 10.606 0 2.929-2.929 2.929-7.678 0-10.607l-8.111-8.111c-2.929-2.928-7.678-2.928-10.606.001z"/><path d="m421.281 161.34v11.471c0 4.142 3.358 7.5 7.5 7.5s7.5-3.358 7.5-7.5v-11.471c0-4.143-3.358-7.5-7.5-7.5s-7.5 3.358-7.5 7.5z"/><path d="m380.13 138.081-8.111 8.111c-4.738 4.738-1.319 12.804 5.303 12.804 1.919 0 3.839-.732 5.303-2.196l8.111-8.111c2.929-2.929 2.929-7.678 0-10.606-2.928-2.931-7.677-2.93-10.606-.002z"/><path d="m356.006 107.535h11.471c4.142 0 7.5-3.357 7.5-7.5 0-4.142-3.358-7.5-7.5-7.5h-11.471c-4.142 0-7.5 3.358-7.5 7.5 0 4.143 3.358 7.5 7.5 7.5z"/><path d="m380.13 61.99c1.464 1.465 3.384 2.197 5.303 2.197 6.622 0 10.042-8.066 5.303-12.803l-8.111-8.111c-2.929-2.929-7.678-2.929-10.606 0-2.929 2.929-2.929 7.678 0 10.607z"/><path d="m512 232.121c0-2.84-1.604-5.437-4.144-6.707-24.33-12.174-53.382-12.174-77.712 0-19.284 9.649-43.082 10.532-64.595-.146.996-5.018.778-8.138.778-15.984 0-86.801-64.596-158.787-148.24-170.446v-11.775c0-13.164-10.71-23.874-23.874-23.874-13.165 0-23.875 10.71-23.875 23.874v11.774c-83.259 11.605-151.508 83.835-148.204 179.959-6.222 1.537-12.25 3.747-17.99 6.619-2.54 1.27-4.144 3.866-4.144 6.706v269.19c0 4.142 3.358 7.5 7.5 7.5h497c4.142 0 7.5-3.358 7.5-7.5 0-7.377 0-260.566 0-269.19zm-497 72.995c15.128-6.424 32.96-7.565 49.545-2.361 11.959 3.735 28.899 16.331 59.446 12.825 20.302-2.329 27.766-9.284 40.19-13.056v58.481h-149.181zm87.944-87.729v-.603h50.845c-.032.391.255 4.4-1.531 9.295-.893 2.456-2.276 4.96-4.025 7.144-14.972 18.732-45.289 8.104-45.289-15.836zm-47.741 24.344c-6.596-1.957-12.356-6.733-15.523-13.194-2.858-5.915-2.561-11.547-2.582-11.753h50.846v.603c0 16.962-16.421 29.266-32.741 24.344zm122.769-179.913c-16.915 42.959-23.506 94.16-24.133 139.966h-50.77c1.99-63.158 30.536-111.525 74.903-139.966zm107.378 139.966h-50.764c-.645-46.434-7.439-97.306-24.205-140.009 42.277 27.129 73.047 78.983 74.969 140.009zm62.739 27.997c-3.551 6.336-9.572 10.686-15.971 12.257-16.047 4.066-31.637-8.155-31.637-24.651v-.603h50.846c-.135 1.464.297 6.635-3.238 12.997zm-134.267 3.768c-9.449 11.456-26.683 12.457-37.372 2.004-4.916-4.822-7.661-11.305-7.661-18.166v-.603h50.846c-.065.368.733 8.836-5.813 16.765zm-19.577-171.752c17.904 41.854 24.698 94.229 25.335 139.987h-50.735c.646-45.924 7.708-98.247 25.4-139.987zm40.39 154.987h50.846v.603c0 14.019-11.405 25.423-25.423 25.423s-25.423-11.404-25.423-25.423zm-55.453 38.135c9.476 3.806 20.404 3.882 30.07-.003v169.456c0 3.443-2.801 6.244-6.244 6.244h-17.583c-3.443 0-6.244-2.801-6.244-6.244.001-15.695.001-150.601.001-169.453zm45.07 55.263c23.208 9.08 49.114 7.601 70.604-3.162 20.128-10.07 44.161-10.07 64.288.001 20.495 10.251 39.534 9.192 38.856 9.13 13.346 0 26.691-3.043 38.856-9.131 18.46-9.236 40.536-10.104 59.922-1.996.074.031.148.06.222.091v55.889h-272.748zm212.604-71.354c18.763-9.387 40.92-10.023 60.144-1.909v52.157c-22.905-7.655-46.921-5.451-66.856 4.529-20.128 10.071-44.161 10.07-64.288 0-24.331-12.174-53.382-12.173-77.712 0-19.708 9.862-43.552 10.205-63.892.19v-49.375c.942-1.05 2.329-2.824 2.882-3.604 16.349 22.845 49.875 22.424 65.846 0 16.607 23.315 51.637 22.437 66.958-1.596 24.167 11.78 52.853 11.65 76.918-.392zm-85.706-37.044h-50.786c-1.819-59.663-26.242-111.723-72.1-145.894 67.961 15.077 119.508 74.287 122.886 145.894zm-165.812-174.721c0-4.893 3.981-8.874 8.875-8.874 4.893 0 8.874 3.981 8.874 8.874v10.337c-6.019-.307-11.927-.297-17.749 0zm-25.184 28.827c-46.533 34.704-70.31 87.187-72.099 145.894h-50.779c3.379-71.607 54.921-130.817 122.878-145.894zm-145.154 181.027c3.372-1.426 6.846-2.591 10.4-3.487 12.5 29.209 51.963 32.769 70.043 7.386 15.87 22.281 49.256 22.777 65.625.324 1.464 1.543 2 2.055 3.113 3.291v42.53c-5.856 1.584-11.069 3.159-18.038 6.644-20.128 10.071-44.16 10.07-64.288 0-21.17-10.593-45.652-11.762-66.855-4.529zm482 256.895h-482v-117.807h149.182v48.367c0 11.714 9.53 21.244 21.244 21.244h17.583c11.714 0 21.244-9.53 21.244-21.244v-48.367h272.747z"/></svg>