<svg id="Capa_1" enable-background="new 0 0 512 512" height="512" viewBox="0 0 512 512" width="512" xmlns="http://www.w3.org/2000/svg"><path d="m373.797 296.437h40.713v90.776h-40.713z" fill="#c56d33"/><path d="m308.468 246.881v60.038c0 9.837 7.975 17.812 17.812 17.812h135.748c9.837 0 17.812-7.974 17.812-17.812v-60.038z" fill="#dc8757"/><path d="m308.468 300.358c8.005 4.139 16.865 6.308 25.974 6.308 10.608 0 20.882-2.934 29.856-8.507 8.974 5.572 19.249 8.507 29.856 8.507s20.881-2.935 29.855-8.507c8.975 5.572 19.25 8.507 29.856 8.507 9.108 0 17.968-2.168 25.973-6.308v-53.477h-171.37z" fill="#c56d33"/><path d="m469.421 220.63h-150.535c-7.898 0-14.301 6.403-14.301 14.301v9.038c0 11.271 5.593 21.807 14.928 28.122 9.017 6.1 20.839 6.1 29.856 0s20.839-6.1 29.856 0c9.017 6.1 20.839 6.1 29.856 0 9.017-6.1 20.839-6.1 29.856 0s20.839 6.1 29.856 0c9.335-6.315 14.928-16.851 14.928-28.122v-9.038c.001-7.899-6.402-14.301-14.3-14.301z" fill="#e6e6e6"/><path d="m504.5 364.821s-174.762-17.019-258.86 49.676v50.41l141.86 17.303 97.711-9.16 19.289-21.374z" fill="#a2e4fd"/><path d="m499.966 422.02c-26.644 4.074-50.7 6.054-73.543 6.054-61.779 0-103.887-14.779-149.223-33.101-11.419 5.539-22.068 11.997-31.559 19.524v50.41l141.859 17.303 97.711-9.161 19.289-21.374v-30.349z" fill="#5bd4fb"/><path d="m7.5 364.821c248.701 0 266.244 122.139 497 86.854v48.806h-497z" fill="#a2e4fd"/><circle cx="163.918" cy="318.623" fill="#e6e6e6" r="100.449"/><path d="m83.701 258.164c20.869 19.948 49.137 32.218 80.217 32.218s59.348-12.27 80.218-32.218c-18.335-24.288-47.441-39.989-80.217-39.989-32.777 0-61.883 15.701-80.218 39.989z" fill="#c5c3c9"/><circle cx="163.918" cy="174.205" fill="#e6e6e6" r="86.176"/><path d="m79.955 154.836h167.926c-8.792-38.262-43.033-66.806-83.963-66.806s-75.17 28.544-83.963 66.806z" fill="#c5c3c9"/><path d="m235.081 56.239-5.115 36.926-66.047 18.336-66.047-18.336-5.115-36.926 71.161-22.36z" fill="#fd71a5"/><path d="m127.872 93.165-5.115-36.926 56.161-17.647-15-4.713-71.161 22.36 5.115 36.926 66.047 18.336 15-4.164z" fill="#f83480"/><g fill="#fd71a5"><circle cx="163.918" cy="306.004" r="15.607"/><circle cx="163.918" cy="179.227" r="20.88"/><circle cx="163.918" cy="367.234" r="15.607"/></g><path d="m251.317 93.168h-174.797c-5.909 0-10.699 4.79-10.699 10.7v15.268c0 5.909 4.79 10.699 10.699 10.699h174.797c5.909 0 10.699-4.79 10.699-10.699v-15.268c0-5.909-4.79-10.7-10.699-10.7z" fill="#5c586f"/><path d="m95.82 119.136v-15.269c0-5.909 4.79-10.699 10.699-10.699h-30c-5.909 0-10.699 4.79-10.699 10.699v15.269c0 5.909 4.79 10.7 10.699 10.7h30c-5.908 0-10.699-4.79-10.699-10.7z" fill="#423e4f"/><path d="m238.984 28.03-3.902 28.209h-142.325l-3.902-28.209c-1.213-8.727 5.562-16.512 14.376-16.512h121.377c8.813.001 15.589 7.786 14.376 16.512z" fill="#5c586f"/><path d="m133.231 11.519h-30c-8.814 0-15.59 7.785-14.376 16.512l3.902 28.208h30l-3.902-28.208c-1.214-8.727 5.562-16.512 14.376-16.512z" fill="#423e4f"/><path d="m163.918 329.111c12.741 0 23.106-10.366 23.106-23.106 0-12.741-10.366-23.106-23.106-23.106-12.741 0-23.107 10.365-23.107 23.106.001 12.74 10.366 23.106 23.107 23.106zm0-31.213c4.47 0 8.106 3.636 8.106 8.106s-3.637 8.106-8.106 8.106c-4.47 0-8.107-3.637-8.107-8.106.001-4.47 3.637-8.106 8.107-8.106z"/><path d="m163.918 207.607c15.649 0 28.38-12.731 28.38-28.38s-12.731-28.38-28.38-28.38-28.38 12.731-28.38 28.38 12.732 28.38 28.38 28.38zm0-41.759c7.378 0 13.38 6.002 13.38 13.38s-6.002 13.38-13.38 13.38-13.38-6.002-13.38-13.38 6.003-13.38 13.38-13.38z"/><path d="m163.918 390.34c12.741 0 23.106-10.365 23.106-23.106s-10.366-23.106-23.106-23.106c-12.741 0-23.107 10.365-23.107 23.106s10.366 23.106 23.107 23.106zm0-31.213c4.47 0 8.106 3.637 8.106 8.106s-3.637 8.106-8.106 8.106c-4.47 0-8.107-3.637-8.107-8.106s3.637-8.106 8.107-8.106z"/><path d="m116.363 186.781c4.142 0 7.5-3.358 7.5-7.5v-12.199c0-4.142-3.358-7.5-7.5-7.5s-7.5 3.358-7.5 7.5v12.199c0 4.142 3.358 7.5 7.5 7.5z"/><path d="m211.473 186.781c4.142 0 7.5-3.358 7.5-7.5v-12.199c0-4.142-3.358-7.5-7.5-7.5s-7.5 3.358-7.5 7.5v12.199c0 4.142 3.358 7.5 7.5 7.5z"/><path d="m182.919 214.326c-3.123-2.722-7.86-2.396-10.582.727-4.46 5.118-12.382 5.113-16.838 0-2.722-3.123-7.459-3.447-10.582-.727-3.123 2.721-3.448 7.459-.727 10.582 4.976 5.709 12.166 8.984 19.728 8.984s14.752-3.274 19.728-8.984c2.721-3.123 2.396-7.861-.727-10.582z"/><path d="m505.227 357.357c-1.629-.159-36.713-3.487-83.217-1.181v-23.946h40.017c13.957 0 25.312-11.355 25.312-25.312v-45.44c5.368-11.519 3.498-20.58 3.883-26.547 0-12.021-9.78-21.802-21.801-21.802h-150.535c-12.021 0-21.801 9.78-21.801 21.802.395 6.118-1.492 15.011 3.882 26.547v45.44c0 13.957 11.355 25.312 25.312 25.312h40.017v29.341c-51.9 7.768-92.75 22.627-121.815 44.354-3.727-1.518-7.503-3.042-11.312-4.565 51.927-43.534 50.995-122.023.703-164.928 24.609-27.635 30.206-66.31 16.169-99.097h1.274c10.035 0 18.199-8.165 18.199-18.2v-15.268c0-10.036-8.164-18.2-18.199-18.2h-12.741c.017-.121 7.531-54.4 7.836-56.605 1.844-13.268-8.479-25.044-21.805-25.044h-121.374c-13.337 0-23.647 11.79-21.805 25.04.419 3.029-2.109-15.235 7.836 56.61h-12.742c-10.035 0-18.2 8.164-18.2 18.2v15.268c0 10.035 8.165 18.2 18.2 18.2h1.274c-14.035 32.782-8.446 71.456 16.169 99.097-23.928 20.414-37.993 50.535-37.993 82.19 0 14.5 2.881 28.337 8.088 40.98-18.104-1.506-37.058-2.282-56.558-2.282-4.142 0-7.5 3.358-7.5 7.5v135.66c0 4.142 3.358 7.5 7.5 7.5h497c4.142 0 7.5-3.358 7.5-7.5 0-16.059 0-123.568 0-135.66 0-3.861-2.931-7.09-6.773-7.464zm-193.142-122.426c0-3.75 3.051-6.802 6.801-6.802h150.535c3.75 0 6.801 3.051 6.801 6.802-.381 6.904 1.303 12.932-3.026 21.313-6.459 12.327-19.894 16.512-30.056 9.635-8.799-5.951-19.441-7.34-29.014-4.422-6.06 1.848-8.567 4.217-11.267 5.604-6.263 3.216-13.647 2.733-19.431-1.182-11.252-7.607-26.301-8.089-38.261 0-14.85 10.045-33.081-4.01-33.081-21.91v-9.038zm3.883 71.987v-28.182c10.74 6.917 24.31 7.283 35.412.933 2.414-1.386 8.151-6.224 17.093-4.208 2.296.518 4.514 1.464 6.55 2.841 11.628 7.865 26.676 7.837 38.261 0 6.539-4.424 14.959-4.393 21.452 0 11.748 7.88 26.406 7.639 37.604.434v28.182c0 5.686-4.626 10.312-10.312 10.312-39.507 0-122.032 0-135.748 0-5.686 0-10.312-4.626-10.312-10.312zm65.329 25.312h25.713v24.868c-6.067.43-16.119 1.327-25.713 2.469zm-279.929-268.491h30.05c4.142 0 7.5-3.358 7.5-7.5s-3.358-7.5-7.5-7.5h-32.127l-3.007-21.742c-.582-4.183 2.641-7.979 6.947-7.979h121.376c4.262 0 7.537 3.744 6.947 7.984l-3.007 21.737h-67.401c-4.142 0-7.5 3.358-7.5 7.5s3.358 7.5 7.5 7.5h65.324l-3.038 21.929h-119.026zm-28.048 55.397v-15.268c0-1.764 1.436-3.2 3.2-3.2h174.797c1.764 0 3.199 1.436 3.199 3.2v15.268c0 1.765-1.435 3.2-3.199 3.2-10.3 0-164.467 0-174.797 0-1.764 0-3.2-1.435-3.2-3.2zm21.087 18.2h139.023c28.357 53.385-12.188 118.438-73.401 115.447-17.743-.866-35.245-7.823-49.021-20.401-27.056-24.63-33.171-63.85-16.601-95.046zm10.427 109.541c34.386 28.013 83.816 27.987 118.169 0 21.306 17.588 33.864 43.987 33.864 71.746 0 41.528-27.377 76.78-65.031 88.662-59.645 18.789-120.867-25.87-120.867-88.662.001-27.759 12.559-54.158 33.865-71.746zm392.166 246.104h-482v-120.621c19.784.204 38.937 1.219 57.085 3.024 30.399 49.081 95.341 66.44 146.505 36.334 39.966 15.603 74.676 32.037 116.521 42.685 4.013 1.021 8.096-1.404 9.118-5.418 1.02-4.006-1.396-8.096-5.419-9.12-27.463-6.991-52.135-16.711-77.809-27.188 74.186-48.493 204.884-43.007 235.999-40.912v73.421c-42.871 6.119-86.698 7.768-129.419.716-4.129-.679-7.955 2.151-8.623 6.182-.675 4.086 2.091 7.947 6.178 8.622 43.818 7.234 88.216 5.658 131.863-.355v32.63z"/></svg>