<svg id="Capa_1" enable-background="new 0 0 512 512" height="512" viewBox="0 0 512 512" width="512" xmlns="http://www.w3.org/2000/svg"><path d="m504.5 254.291v-75.319h-331.082l-165.918 109.925v194.694h497v-67.806l-31.842-89.82z" fill="#5bd6fd"/><path d="m457.638 237.7c-4.817-1.705-10.017-2.016-15.003-.898l-36.702 8.235c-8.85 1.986-16.292 7.937-20.175 16.134l-1.492 3.15c-2.894 6.11-8.362 10.612-14.914 12.28l-21.746 5.535c-3.438.875-6.624 2.544-9.301 4.873l-36.837 32.053c-7.468 6.498-16.278 11.268-25.801 13.971l-24.621 6.987c-7.14 2.026-13.216 6.745-16.946 13.161l-1.264 2.173c-6.32 10.87-16.766 18.722-28.964 21.771-8.802 2.201-16.77 6.924-22.924 13.591l-23.138 25.066h346.69v-161.491z" fill="#36d39a"/><path d="m212.637 402.974c6.337-6.865 14.541-11.729 23.605-13.996 12.56-3.14 23.318-11.226 29.825-22.419l1.301-2.238c3.842-6.607 10.098-11.466 17.45-13.553l25.353-7.195c9.806-2.783 18.878-7.695 26.568-14.386l37.933-33.006c2.756-2.398 6.036-4.117 9.577-5.019l22.393-5.7c6.747-1.718 12.377-6.354 15.358-12.646l1.536-3.244c3.998-8.441 11.661-14.569 20.774-16.614l34.54-7.75-21.213-7.51c-4.817-1.705-10.017-2.017-15.003-.898l-36.702 8.235c-8.85 1.986-16.292 7.937-20.175 16.134l-1.492 3.15c-2.894 6.11-8.362 10.612-14.914 12.28l-21.746 5.535c-3.438.875-6.624 2.544-9.301 4.874l-36.837 32.053c-7.468 6.498-16.278 11.269-25.801 13.971l-24.621 6.987c-7.14 2.026-13.216 6.745-16.946 13.161l-1.264 2.173c-6.32 10.87-16.766 18.722-28.964 21.771-8.802 2.201-16.77 6.924-22.924 13.591l-23.138 25.066h43z" fill="#00c071"/><path d="m276.977 246.022c-1.978-9.341-8.149-17.251-16.73-21.441l-10.968-5.356c-3.024-1.477-5.612-3.716-7.507-6.497l-14.573-21.374c-1.894-2.778-4.479-5.016-7.5-6.493l-19.1-9.338c-4.478-2.189-8.333-5.47-11.211-9.541l-15.835-22.4c-4.644-6.569-12.649-9.884-20.577-8.522l-19.654 3.378c-7.079 1.217-13.726 4.232-19.304 8.758l-18.199 14.765c-6.093 4.944-13.222 8.451-20.856 10.263l-21.652 5.138c-4.502 1.068-8.843 2.73-12.908 4.942l-32.903 17.903v88.69h278.557z" fill="#36d39a"/><path d="m43.8 206.642c5.12-2.785 10.587-4.878 16.258-6.224l27.271-6.471c9.615-2.282 18.594-6.7 26.268-12.926l22.921-18.597c7.025-5.7 15.397-9.498 24.313-11.03l16.268-2.796-3.545-5.016c-4.644-6.569-12.649-9.884-20.577-8.521l-19.654 3.378c-7.079 1.217-13.726 4.232-19.304 8.758l-18.199 14.765c-6.093 4.943-13.221 8.451-20.856 10.263l-21.652 5.138c-4.503 1.068-8.843 2.73-12.908 4.942l-32.904 17.902v26.186z" fill="#00c071"/><path d="m234.846 83.881c-.004-.114-.009-.227-.015-.341-.751-15.033-12.749-27.413-27.753-28.606-4.555-.362-8.915.291-12.886 1.752-2.513.925-5.31-.269-6.514-2.661-5.367-10.666-16.41-17.984-29.164-17.984-7.192 0-13.841 2.327-19.235 6.269-2.103 1.537-5.033 1.132-6.61-.941-5.99-7.875-15.46-12.959-26.117-12.959-14.569 0-26.92 9.5-31.195 22.644-1.002 3.081-4.497 5.008-7.658 4.296-1.613-.363-3.296-.542-5.026-.511-10.856.194-19.939 8.859-20.608 19.696-.754 12.222 8.935 22.37 20.994 22.37h159.082c7.143 0 12.983-5.888 12.705-13.024z" fill="#e8e8e8"/><path d="m481.346 118.796c-.011-.137-.022-.275-.035-.412-1.188-13.032-11.664-23.561-24.686-24.857-.112-.011-.224-.022-.336-.031-5.333-.467-9.253-5.027-9.007-10.375.071-1.541.056-3.104-.049-4.685-1.357-20.435-17.883-36.99-38.319-38.342-14.919-.987-28.275 5.973-36.26 17.06-2.063 2.864-5.977 3.625-8.961 1.741-5.675-3.584-12.396-5.659-19.605-5.659-20.321 0-36.794 16.473-36.794 36.794v.062c.005 2.695-2.45 4.681-5.07 4.054-2.655-.636-5.46-.888-8.353-.692-13.779.93-24.905 12.233-25.633 26.024-.007.138-.014.275-.019.412-.412 10.762 8.32 19.666 19.089 19.666h174.646c11.255-.001 20.252-9.539 19.392-20.76z" fill="#e8e8e8"/><path d="m326.736 346.914c-4.142 0-7.5 3.358-7.5 7.5v12.357c0 4.143 3.358 7.5 7.5 7.5s7.5-3.357 7.5-7.5v-12.357c0-4.141-3.358-7.5-7.5-7.5z"/><path d="m455.354 346.914c-4.142 0-7.5 3.358-7.5 7.5v12.357c0 4.143 3.358 7.5 7.5 7.5s7.5-3.357 7.5-7.5v-12.357c0-4.141-3.357-7.5-7.5-7.5z"/><path d="m412.928 360.75c-3.123-2.722-7.86-2.396-10.582.727-5.987 6.869-16.621 6.861-22.601 0-2.722-3.123-7.459-3.448-10.582-.727s-3.448 7.459-.727 10.581c11.964 13.729 33.266 13.715 45.218 0 2.721-3.122 2.396-7.86-.726-10.581z"/><path d="m61.541 231.455v13.072c0 4.142 3.358 7.5 7.5 7.5s7.5-3.358 7.5-7.5v-13.072c0-4.143-3.358-7.5-7.5-7.5s-7.5 3.358-7.5 7.5z"/><path d="m212.602 244.527v-13.072c0-4.143-3.358-7.5-7.5-7.5s-7.5 3.357-7.5 7.5v13.072c0 4.142 3.358 7.5 7.5 7.5s7.5-3.357 7.5-7.5z"/><path d="m160.662 249.066c2.721-3.122 2.396-7.86-.727-10.581-3.123-2.722-7.86-2.396-10.582.727-6.506 7.465-18.064 7.457-24.563 0-2.722-3.123-7.459-3.448-10.582-.727s-3.448 7.459-.727 10.581c12.485 14.325 34.709 14.31 47.181 0z"/><path d="m63.059 104.402h159.083c11.274 0 20.648-9.303 20.198-20.816l-.019-.423c-1.221-24.445-25.292-41.434-48.82-34.162-11.483-20.452-37.493-26.336-56.512-14.209-20.088-23.212-58.193-16.263-68.468 13.064-27.261-5.295-45.044 27.568-26.254 47.553 5.372 5.715 12.951 8.993 20.792 8.993zm2.993-41.74c7.007 1.579 14.229-2.502 16.438-9.292 6.316-19.419 31.869-23.688 44.21-7.464 4.012 5.275 11.641 6.375 17.004 2.455 12.369-9.039 30.198-5.033 37.274 9.031 2.939 5.841 9.732 8.563 15.803 6.33 14.314-5.267 29.794 4.879 30.559 20.201.005.1.016.348.011.248.11 2.816-2.253 5.232-5.21 5.232h-159.082c-3.774 0-7.277-1.515-9.864-4.267-9.014-9.59-.275-25.429 12.857-22.474z"/><path d="m409.409 32.607c-16.67-1.104-32.449 6.186-42.379 19.529-27.763-16.848-64.155 1.217-67.061 33.997-31.365-3.737-50.62 33.27-31.88 52.742 5.001 5.197 12.007 8.177 19.22 8.177h174.646c15.635 0 28.06-13.297 26.869-28.833l-.043-.52c-1.52-16.672-14.731-29.979-31.41-31.639l-.428-.04c-1.298-.114-2.231-1.214-2.169-2.56 1.232-26.839-19.431-49.138-45.365-50.853zm46.227 68.356.246.023c14.134 1.407 23.122 18.323 14.886 27.215-2.3 2.483-5.43 3.851-8.813 3.851h-174.647c-3.204 0-6.191-1.271-8.412-3.579-9.551-9.924 3.463-31.38 21.581-27.037 7.275 1.742 14.329-3.724 14.317-11.41 0-23.236 25.718-36.903 44.894-24.793 6.317 3.989 14.686 2.364 19.052-3.699 6.854-9.518 17.949-14.737 29.679-13.96 18.09 1.197 32.222 16.767 31.371 35.198-.433 9.384 6.527 17.376 15.846 18.191z"/><path d="m504.5 171.468h-125.494c-4.142 0-7.5 3.358-7.5 7.5s3.358 7.5 7.5 7.5h117.994v57.208l-36.859-13.049c-4.997-1.77-10.894-2.484-16.749-1.596-2.122.321.145-.09-39.102 8.685-10.921 2.451-20.322 9.711-25.311 20.242-1.675 3.465-3.499 8.809-10.565 11.085-1.228.397-22.554 5.796-22.659 5.822-4.552 1.159-8.831 3.4-12.374 6.484-53.664 45.497-36.402 37.774-84.383 51.454-9.034 2.564-16.636 8.445-21.383 16.607-.617.717-7.141 15.833-25.563 20.438-10.248 2.562-19.451 8.019-26.616 15.78l-23.136 25.066c-2.021 2.189-2.554 5.366-1.359 8.096 2.027 4.631 6.77 4.46 6.871 4.492h339.188v52.805h-482v-179.694h46.007c4.142 0 7.5-3.358 7.5-7.5s-3.358-7.5-7.5-7.5h-46.007v-76.732l28.99-15.773c15.976-8.692 36.925-5.178 56.556-21.106l18.199-14.765c4.569-3.707 10.049-6.193 15.849-7.19l19.654-3.378c5.049-.868 10.224 1.274 13.182 5.459l15.835 22.4c7.425 10.502 16.831 12.885 21.094 15.397h.001c10.48 5.53 13.787 5.681 16.644 9.87l14.573 21.374c2.625 3.85 6.226 6.965 10.413 9.011l10.968 5.356c6.551 3.199 11.174 9.124 12.684 16.255l7.162 33.821h-185.797c-4.142 0-7.5 3.358-7.5 7.5s3.358 7.5 7.5 7.5h195.05c4.77 0 8.323-4.397 7.337-9.054l-9.079-42.875c-2.474-11.681-10.046-21.386-20.776-26.626l-10.968-5.356c-1.851-.904-3.442-2.281-4.602-3.982-10.076-14.773-14.674-21.533-15.036-22.031h116.073c4.142 0 7.5-3.358 7.5-7.5s-3.358-7.5-7.5-7.5h-139.617c-3.559-2.058-9.31-3.359-13.876-9.819l-15.834-22.399c-6.277-8.879-17.256-13.425-27.972-11.584l-19.654 3.378c-8.328 1.432-16.197 5.002-22.758 10.325l-18.199 14.765c-5.186 4.208-11.363 7.248-17.862 8.79-17.995 4.68-25.565 4.888-36.412 10.789l-32.906 17.903c-2.414 1.313-3.916 3.84-3.916 6.588v283.383c0 4.142 3.358 7.5 7.5 7.5h497c4.142 0 7.5-3.358 7.5-7.5 0-8.616 0-300.707 0-304.619 0-4.142-3.358-7.5-7.5-7.5zm-329.559 236.814 11.519-12.479c5.176-5.608 11.827-9.551 19.231-11.402 14.078-3.519 26.335-12.732 33.628-25.277.721-.885 3.804-9.059 13.774-11.89l24.621-6.987c10.515-2.984 20.431-8.354 28.676-15.527l36.837-32.054c1.784-1.552 3.937-2.68 6.228-3.263l21.746-5.536c8.747-2.226 15.979-8.181 19.843-16.337 1.896-3.974 3.58-8.441 9.414-12.2 5.636-3.632 7.614-2.672 43.818-11.211 3.613-.811 7.368-.585 10.858.65l41.866 14.819v148.694z"/></svg>