<svg id="Capa_1" enable-background="new 0 0 512 512" height="512" viewBox="0 0 512 512" width="512" xmlns="http://www.w3.org/2000/svg"><path d="m7.5 7.5v334.198l44.691 117.053h279.786l172.523-138.428v-312.823l-46.77 24.101-96.354-4.75h-268.705z" fill="#ca5935"/><path d="m79.769 291.858c2.048-6.319 5.776-11.969 10.804-16.318l15.725-13.609c3.902-3.378 6.688-7.853 7.999-12.842l11.26-42.866c1.262-4.795 4.378-8.892 8.668-11.396l22.967-13.386c4.543-2.65 8.086-6.717 10.076-11.58l9.707-23.743c1.951-4.747 5.756-8.484 10.532-10.348l58.097-22.569c6.688-2.592 14.104-2.592 20.792 0l58.097 22.569c4.776 1.864 8.581 5.601 10.532 10.348l9.707 23.743c1.99 4.863 5.533 8.93 10.076 11.58l22.967 13.386c4.29 2.504 7.406 6.601 8.668 11.396l11.26 42.866c1.31 4.989 4.096 9.464 7.999 12.842l14.104 12.211-120.362 89.164h-136.065z" fill="#a4e6ff"/><circle cx="214.104" cy="341.771" fill="#f8e86a" r="54.117"/><path d="m189.988 341.771c0-24.681 16.529-45.488 39.117-51.994-4.765-1.373-9.793-2.123-15-2.123-29.888 0-54.117 24.229-54.117 54.117s24.229 54.117 54.117 54.117c5.207 0 10.235-.75 15-2.123-22.588-6.505-39.117-27.313-39.117-51.994z" fill="#fab659"/><path d="m440.395 336.491v55.078l-98.284 60.902h-140.286l-43.332-44.274c84.82-119.426 261.313-134.054 261.313-134.054 6.038 5.222 10.183 12.279 11.804 20.094z" fill="#36d39a"/><path d="m104.541 458.751-52.35-81.491 27.578-85.402c87.528 9.193 134.336 59.621 134.336 59.621-20.579 15.619-39.712 34.324-55.612 56.718z" fill="#00c071"/><path d="m194.005 260.45c-13.54 0-24.517-10.977-24.517-24.517s10.977-24.517 24.517-24.517c5.925 0 11.359 2.102 15.598 5.601 3.201-14.09 15.794-24.611 30.853-24.611 6.176 0 11.935 1.776 16.805 4.835 3.247-9.735 12.429-16.757 23.256-16.757 12.9 0 23.466 9.965 24.436 22.617 2.821-.901 5.824-1.391 8.944-1.391 16.221 0 29.371 13.15 29.371 29.371s-13.15 29.371-29.371 29.371h-119.892z" fill="#fff"/><path d="m504.5 7.5-26.132 50.647c-2.706 5.245-6.964 9.529-12.192 12.268l-14.032 7.351c-4.128 2.162-7.266 5.829-8.766 10.241l-9.372 27.57c-2.704 7.956-11.352 12.208-19.304 9.49l-10.016-3.423c-4.615-1.577-8.192-5.273-9.619-9.936l-8.214-26.852c-1.514-4.951-5.099-9.003-9.827-11.111l-20.164-8.989c-2.835-1.264-5.212-3.371-6.805-6.035l-9.453-15.802c-1.849-3.09-6.398-2.864-7.931.394l-13.45 28.58c-2.644 5.619-9.135 8.296-14.972 6.175l-18.527-6.732c-4.646-1.688-8.672-4.743-11.549-8.763l-12.448-17.391c-3.261-4.556-8.876-6.796-14.377-5.737l-23.552 4.537c-5.838 1.125-10.378 5.734-11.412 11.59l-.562 3.183c-1.116 6.319-5.025 11.796-10.638 14.906l-20.828 11.541c-3.215 1.781-5.913 4.365-7.832 7.5l-12.414 20.276c-2.706 4.42-8.601 5.605-12.805 2.574l-15.295-11.027c-3.886-2.802-6.436-7.089-7.043-11.841l-5.101-39.965c-.697-5.464-6.453-8.723-11.497-6.509l-12.951 5.684c-2.922 1.282-4.842 4.134-4.931 7.323l-.965 34.445c-.032 1.148.011 2.296.13 3.438l3.497 33.729c.265 2.555-.205 5.133-1.353 7.431l-6.888 13.777c-2.547 5.094-8.016 8.042-13.671 7.369l-9.589-1.141c-7.548-.898-13.067-7.553-12.554-15.136l2.699-39.844c.26-3.84-.506-7.679-2.218-11.125l-42.077-84.66z" fill="#e27858"/><path d="m347.963 340.942-29.834 30.122c-.729.737-1.652 1.239-2.668 1.451l-62.592 13.064c-11.77 2.457-22.675 8.049-31.535 16.172l-21.229 19.46c-.971.89-2.169 1.48-3.466 1.708l-20.259 3.554 25.445 25.999h140.286l98.284-60.902v-55.08l-6.113-29.402-48.371 12.196c-14.386 3.628-27.509 11.117-37.948 21.658z" fill="#00c071"/><path d="m191.118 407.613c-5.392-3.855-11.612-6.393-18.163-7.409l-35.789-5.553c-8.643-1.341-16.66-5.322-22.953-11.398l-12.954-12.507c-4.518-4.362-10.089-7.479-16.17-9.047l-77.589-20v162.801h97.045l124.896-22.343v-47.143z" fill="#e27858"/><path d="m268.221 452.47h73.89l-10.134 6.28h-60.426c-1.097-2.077-2.214-4.173-3.33-6.28z" style="fill:none;stroke:#000;stroke-width:15;stroke-linecap:round;stroke-linejoin:round;stroke-miterlimit:10"/><path d="m127.383 444.587-68.349 59.913h45.512l124.896-22.343v-47.143l-24.942-17.833-4.396 4.029c-.971.89-2.169 1.48-3.466 1.708l-37.896 6.648c-11.634 2.042-22.478 7.236-31.359 15.021z" fill="#ca5935"/><path d="m393.246 348.374c-9.086 2.291-17.374 7.021-23.968 13.678l-29.834 30.122c-4.87 4.917-11.079 8.293-17.853 9.707l-62.593 13.064c-6.494 1.355-12.502 4.437-17.393 8.919l-21.228 19.459c-5.187 4.755-11.625 7.927-18.555 9.143l-37.895 6.648c-6.219 1.091-12.019 3.869-16.768 8.031l-42.614 37.355h399.955v-184.177z" fill="#ed9b83"/><ellipse cx="291.262" cy="464.034" fill="#ff71a7" rx="28.495" ry="22.692"/><ellipse cx="445.714" cy="464.034" fill="#ff71a7" rx="28.495" ry="22.692"/><path d="m307.869 423.042c-4.142 0-7.5 3.358-7.5 7.5v11.648c0 4.143 3.358 7.5 7.5 7.5s7.5-3.357 7.5-7.5v-11.648c0-4.142-3.358-7.5-7.5-7.5z"/><path d="m429.107 423.042c-4.142 0-7.5 3.358-7.5 7.5v11.648c0 4.143 3.358 7.5 7.5 7.5s7.5-3.357 7.5-7.5v-11.648c0-4.142-3.357-7.5-7.5-7.5z"/><path d="m389.398 436.189c-3.123-2.721-7.86-2.397-10.582.726-5.461 6.266-15.179 6.286-20.656 0-2.721-3.123-7.459-3.448-10.582-.727-3.123 2.722-3.448 7.459-.727 10.582 11.428 13.113 31.811 13.151 43.272 0 2.723-3.121 2.398-7.859-.725-10.581z"/><path d="m194.005 267.951h119.892c20.331 0 36.871-16.54 36.871-36.871 0-21.612-18.585-38.609-40.071-36.732-8.803-24.749-42.226-29.095-56.844-7.08-18.235-6.649-39.119 1.024-48.218 18.838-21.077-8.212-43.646 7.456-43.646 29.827-.001 17.655 14.362 32.018 32.016 32.018zm10.823-45.15c4.293 3.545 10.849 1.33 12.088-4.123 3.758-16.543 22.569-23.745 36.355-15.086 4.118 2.586 9.568.625 11.104-3.978 2.32-6.957 8.807-11.63 16.142-11.63 8.834 0 16.283 6.892 16.958 15.69.371 4.835 5.162 8.04 9.76 6.571 14.117-4.508 28.533 6.076 28.533 20.834 0 12.06-9.811 21.871-21.871 21.871h-119.892c-9.383 0-17.017-7.634-17.017-17.017 0-14.445 16.874-22.181 27.84-13.132z"/><path d="m512 504.5c0-18.87 0-474.435 0-497 0-4.11-3.371-7.5-7.5-7.5h-497c-.034 0-.067.006-.101.006-4.221.066-7.399 3.55-7.399 7.494v192.921c0 4.142 3.358 7.5 7.5 7.5s7.5-3.358 7.5-7.5v-160.979l27.859 56.055c1.12 2.252 1.622 4.77 1.452 7.28-2.874 42.975-3.114 41.165-2.374 45.229 1.797 9.834 9.718 16.622 18.826 17.705.101.012 10.232 1.217 9.589 1.141 6.641.63 12.287-1.415 16.607-5.337 3.911-3.551 4.833-6.479 11.546-19.901 1.791-3.581 2.519-7.578 2.105-11.559-3.669-35.921-3.65-34.009-3.589-36.183 1.179-35.935.58-34.746 1.412-35.109 13.837-6.072 13.017-5.734 13.195-5.749.315-.026.692.187.782.557.024.1-.214-1.716 5.119 40.065.867 6.788 4.547 12.975 10.096 16.975 15.111 10.652 15.508 11.746 19.297 13.118 7.56 2.738 15.621-.356 19.586-6.833 12.956-20.978 12.185-20.3 13.879-22.208 2.205-2.483 1.92-1.989 24.435-14.464 7.627-4.226 12.871-11.575 14.388-20.161.552-1.823.081-5.415 3.582-7.708 2.155-1.412 2.553-.844 25.979-5.542 2.613-.504 5.309.571 6.859 2.737l9.446 13.198c2.378 3.232 3.651 5.381 6.094 7.895 7.331 7.567 14.904 8.35 22.57 11.588l7.952 2.89c6.916 2.515 14.638.993 20.037-4.101 4.541-4.295 4.666-7.641 15.333-29.413l6.561 10.966c2.479 4.144 6.131 7.227 10.188 9.035 1.545.689 17.828 7.948 20.164 8.989 2.808 1.252 4.861 3.687 5.709 6.455 2.873 9.391 5.341 17.46 8.213 26.852 2.124 6.944 7.494 12.491 14.365 14.839l10.016 3.424c11.554 3.947 24.7-2.02 28.831-14.174l9.372-27.57c.884-2.602 2.711-4.736 5.145-6.011l14.031-7.351c6.789-3.557 12.104-9.13 15.377-15.473l11.966-23.195v276.087l-50.855 12.822-7.191-34.589c-3.314-15.972-14.154-24.138-14.238-24.241l-14.104-12.211c-2.769-2.396-4.724-5.536-5.654-9.078l-11.261-42.87c-1.781-6.765-6.092-12.434-12.145-15.966l-22.965-13.385c-3.103-1.81-5.559-4.63-6.913-7.94l-9.712-23.757c-2.716-6.608-8.09-11.888-14.753-14.487l-58.102-22.571c-8.452-3.275-17.762-3.276-26.219.002l-58.107 22.572c-6.653 2.596-12.027 7.875-14.749 14.497l-9.706 23.741c-1.355 3.312-3.81 6.132-6.911 7.94l-22.97 13.389c-6.049 3.53-10.361 9.2-12.142 15.968l-11.26 42.866c-.931 3.542-2.885 6.681-5.653 9.077l-15.724 13.607c-10.153 8.78-13.081 19.781-13.033 19.681-.025.101-18.208 56.39-18.242 56.492l-39.391-10.153v-105.465c0-4.142-3.358-7.5-7.5-7.5s-7.5 3.358-7.5 7.5v274.079c0 4.142 3.358 7.5 7.5 7.5h97.045 399.955c4.142 0 7.5-3.358 7.5-7.5zm-19.81-489.5-20.489 39.709c-2.009 3.895-5.124 7.029-9.007 9.063-13.771 7.302-14.111 7.196-16.744 9.02-4.704 3.257-8.012 7.914-9.674 12.802l-9.372 27.571c-1.208 3.553-4.751 5.631-8.296 5.156-1.104-.148-.883-.145-11.498-3.773-2.266-.779-4.138-2.634-4.872-5.033l-5.096-16.66c-2.85-8.877-3.115-11.368-5.246-15.174-2.087-3.726-5.125-6.936-8.921-9.254-3.338-2.04-22.235-9.935-23.976-11.016-2.718-1.688-2.484-3.002-11.959-18.342-2.324-3.885-6.548-6.046-10.893-5.824-4.438.22-8.37 2.854-10.261 6.875l-13.449 28.58c-1 2.124-3.417 3.123-5.625 2.32-1.78-.647-16.482-5.989-18.526-6.732-3.237-1.177-6.008-3.279-8.012-6.079l-12.447-17.391c-4.95-6.916-13.543-10.346-21.895-8.736-2.034.392-21.536 4.148-23.553 4.536-8.831 1.701-15.814 8.794-17.379 17.649-.458 1.914-.524 8.995-7.45 12.834l-20.828 11.541c-4.339 2.404-8.002 5.912-10.594 10.144-12.946 20.681-12.145 20.682-13.336 20.921-1.223.244-.926-.403-16.396-11.265-2.192-1.581-3.646-4.025-3.989-6.708l-5.102-39.964c-1.339-10.499-12.376-16.628-21.95-12.428l-12.95 5.683c-5.55 2.435-9.246 7.923-9.416 13.981-1.275 50.218-1.804 26.076 2.008 65.926 1.183 11.515 1.94 5.479-6.798 23.748-.988 1.976-2.98 3.229-5.142 3.313-.853.032-.635-.026-10.524-1.178-3.136-.373-5.531-2.834-5.918-5.856-.154-1.208-.148.967 2.66-41.169.35-5.17-.687-10.348-2.985-14.971l-36.687-73.819zm-380.982 252.602c5.064-4.385 8.641-10.127 10.343-16.607l11.259-42.864c.761-2.891 2.606-5.314 5.192-6.824l22.969-13.387c5.939-3.464 10.64-8.869 13.239-15.221l9.702-23.729c1.165-2.835 3.469-5.1 6.311-6.208l58.091-22.567c4.957-1.921 10.416-1.921 15.366-.002l58.086 22.565c2.852 1.112 5.156 3.377 6.316 6.198l9.708 23.746c2.599 6.35 7.3 11.754 13.241 15.22l22.963 13.384c2.589 1.511 4.435 3.936 5.195 6.823l11.26 42.867c1.702 6.479 5.279 12.222 10.343 16.606l1.386 1.2c-14.219 2.152-36.299 6.266-62.33 13.795-4.853 1.403-6.961 7.121-4.175 11.34 1.76 2.669 5.112 4.008 8.346 3.074 35.36-10.228 63.734-14 73.101-15.052 3.575 3.843 6.076 8.648 7.147 13.805l7.32 35.209-40.175 10.129c-10.821 2.729-20.257 8.399-27.463 15.673-31.392 31.657-29.799 30.176-31.249 31.45-3.716 3.265-8.19 5.386-12.642 6.315-65.738 13.756-62.894 13.044-65.494 13.772-11.879 3.326-17.375 9.426-25.708 17.064l-33.376-23.865c-4.852-3.47-10.511-6.099-16.134-7.611 36.137-41.311 85.716-69.652 137.391-88.097 3.907-1.395 5.933-5.69 4.542-9.587-1.393-3.901-5.684-5.935-9.585-4.542-15.221 5.433-30.283 11.704-44.585 18.683-23.056-38.928-78.984-40.521-104.147-2.936-21.559-10.31-45.734-17.877-71.701-21.677 3.104-4.152 4.994-4.965 19.947-18.142zm103.51 74.004c-11.223-10.313-24.91-19.717-38.328-27.232 19.403-26.806 59.919-25.279 77.337 2.829-13.936 7.491-26.947 15.629-39.009 24.403zm-129.707-41.573c46.035 6 88.019 25.281 117.553 50.901-15.384 12.425-28.578 25.586-40.355 40.012l-23.893-3.707c-7.153-1.11-13.686-4.354-18.893-9.382l-12.954-12.507c-5.44-5.252-12.186-9.026-19.508-10.914l-18.019-4.645zm-70.011 51.343c25.114 6.474 45.199 11.651 68.217 17.585 10.631 2.742 13.896 8.847 25.787 19.687 7.445 7.188 16.786 11.827 27.012 13.413 35.568 5.948 41.01 4.698 50.739 11.652l30.8 22.023c-1.273.927-6.541 7.503-17.03 9.343l-37.895 6.648c-7.573 1.328-14.633 4.71-20.416 9.778l-40.491 35.495h-86.723zm109.479 145.624 27.624-24.213c3.716-3.258 8.252-5.431 13.12-6.284l37.895-6.648c8.354-1.466 16.075-5.27 22.327-11.001l21.228-19.459c4.019-3.685 8.994-6.091 13.856-7.106l62.593-13.064c7.994-1.668 15.553-5.614 21.65-11.771 29.775-29.683 30.343-31.552 36.741-35.802 4.131-2.744 8.716-4.781 13.567-6.004l101.92-25.698v167.05z"/></svg>