<svg id="Capa_1" enable-background="new 0 0 512 512" height="512" viewBox="0 0 512 512" width="512" xmlns="http://www.w3.org/2000/svg"><path d="m261.789 369.646h219.931l-3.732-8.373c-4.744-10.642-4.744-22.799 0-33.441l2.607-5.849c.667-1.496.266-3.252-.984-4.31l-4.911-4.156c-8.878-7.514-14.154-18.44-14.518-30.065l-.201-6.435c-.051-1.633-1.173-3.038-2.754-3.449l-6.186-1.608c-11.286-2.933-20.792-10.525-26.149-20.883l-2.934-5.673c-.752-1.454-2.373-2.237-3.98-1.922l-6.327 1.241c-11.405 2.237-23.224-.463-32.527-7.431l-5.161-3.866c-1.309-.98-3.107-.98-4.415 0l-5.161 3.866c-9.303 6.968-21.122 9.668-32.528 7.43l-6.326-1.241c-1.606-.315-3.228.468-3.98 1.922l-2.934 5.673c-5.357 10.357-14.864 17.949-26.149 20.883l-6.186 1.608c-1.582.411-2.703 1.815-2.754 3.449l-.201 6.436c-.364 11.625-5.64 22.55-14.517 30.064l-4.911 4.157c-1.25 1.058-1.651 2.814-.984 4.31l2.607 5.849c4.744 10.642 4.744 22.799 0 33.441z" fill="#ff71a7"/><path d="m153.677 37.809c-5.352 2.885-5.593 10.553-.432 13.766 9.732 6.059 22.384 16.916 24.814 33.333l73.742-47.855s-51.762-24.238-98.124.756z" fill="#ffbdd7"/><path d="m165.858 61.581c5.818 5.961 10.774 13.684 12.202 23.328l73.742-47.855s-16.732-7.831-39.687-9.999c-13.169 7.138-25.691 15.868-37.279 26.102-3.069 2.708-6.057 5.523-8.978 8.424z" fill="#ff71a7"/><path d="m473.574 89.422-6.969-2.541-1.314-10.689c-8.896-8.35-22.107-10.661-33.473-5.453-13.771 6.311-26.019 7.278-26.019 7.278-70.939-88.673-247.7-62.193-286.094 128.138-.723 3.585-4.115 5.957-7.733 5.423-7.489-1.104-15.589-.625-23.68 1.714-20.557 5.944-34.773 22.062-36.401 39.147 10.494 13.58 31.118 19.623 51.676 13.679 7.032-2.033 13.322-5.259 18.62-9.305-1.036 6.585-.879 13.652.681 20.804 4.558 20.909 19.69 36.169 36.628 38.934 14.251-9.564 21.658-29.738 17.1-50.646-.592-2.715-1.362-5.334-2.292-7.844-1.144-3.089-.001-6.541 2.795-8.283 81.746-50.927 148.341-12.782 241.282-109.548 18.727-3.21 32.847-9.8 43.143-16.711 11.44-7.68 15.856-21.711 12.05-34.097z" fill="#ffbdd7"/><circle cx="371.755" cy="344.551" fill="#f8e86a" r="74.264"/><path d="m327.491 344.551c0-35.876 25.44-65.81 59.264-72.748-4.845-.994-9.861-1.516-15-1.516-41.015 0-74.264 33.249-74.264 74.264s33.249 74.264 74.264 74.264c5.139 0 10.155-.522 15-1.516-33.824-6.938-59.264-36.871-59.264-72.748z" fill="#fab659"/><path d="m504.5 417.307v-68.192c-22.346-11.181-48.654-11.181-71 0-22.346 11.181-48.654 11.181-71 0-22.346-11.181-48.654-11.181-71 0-22.346 11.181-48.654 11.181-71 0-22.346-11.181-48.654-11.181-71 0-22.346 11.181-48.654 11.181-71 0-22.346-11.181-48.654-11.181-71 0v68.192l44.591 29.903h398.446z" fill="#5bd6fd"/><path d="m7.5 417.307c22.346-11.181 48.654-11.181 71 0 22.346 11.181 48.654 11.181 71 0 22.346-11.181 48.654-11.181 71 0 22.346 11.181 48.654 11.181 71 0 22.346-11.181 48.654-11.181 71 0 22.346 11.181 48.654 11.181 71 0 22.346-11.181 48.654-11.181 71 0v68.192h-497z" fill="#00b4fb"/><path d="m367.469 103.255c3.532-2.164 4.64-6.782 2.476-10.313l-6.096-9.948c-2.164-3.532-6.782-4.641-10.313-2.477s-4.64 6.782-2.476 10.313l6.096 9.948c2.17 3.543 6.791 4.635 10.313 2.477z"/><path d="m212.437 123.363c.19-4.138-3.01-7.646-7.147-7.837-4.134-.19-7.646 3.01-7.837 7.148-.987 21.463-7.815 35.233-13.37 43.004-13.781 19.282 1.336 46.754 25.804 44.575 28.461-2.525 50.867-20.504 64.796-51.992 10.134-22.909 12.21-44.829 12.293-45.751.373-4.125-2.668-7.772-6.794-8.145-4.121-.374-7.771 2.668-8.145 6.793-.072.792-7.806 79.213-63.477 84.153-11.586 1.031-18.693-11.931-12.275-20.912 6.732-9.415 14.997-25.914 16.152-51.036z"/><path d="m114.211 270.23c2.066 26.843 20.395 49.888 44.077 53.754 1.871.306 3.8-.109 5.387-1.175 20.289-13.615 26.733-42.288 17.817-66.9 79.15-49.035 146.931-12.46 240.601-108.698 16.328-3.102 30.989-8.961 43.611-17.435 8.688-5.832 14.608-15.115 16.241-25.468 4.681-29.673-25.563-53.046-53.252-40.357-7.994 3.664-15.493 5.359-19.779 6.099-20.07-23.447-48.349-39.565-80.106-45.562-4.069-.766-7.993 1.908-8.761 5.978-.769 4.07 1.908 7.993 5.978 8.762 29.711 5.61 55.962 21.061 73.917 43.505 1.553 1.941 3.965 2.985 6.447 2.792.554-.043 13.743-1.149 28.553-7.937 8.609-3.945 18.528-2.203 25.23 4.108-7.053 6.611-24.193 19.024-55.727 22.031-4.124.393-7.147 4.054-6.754 8.178.397 4.162 4.102 7.15 8.178 6.754 31.665-3.019 51.149-14.798 61.354-23.26 1.069 8.257-2.33 16.858-9.878 21.924-11.481 7.708-25.017 12.938-40.23 15.546-1.58.271-3.031 1.041-4.142 2.197-91.497 95.261-155.722 55.973-239.839 108.378-5.769 3.594-8.234 10.85-5.862 17.253 6.308 17.033 3.221 37.209-9.529 47.839-18.94-5.154-31.615-28.487-28.146-50.526 1.049-6.669-6.596-11.222-11.961-7.126-17.782 13.577-44.298 13.488-57.833-.701 4.085-20.27 28.432-34.494 51.075-31.154 7.563 1.116 14.67-3.875 16.18-11.36 22.9-113.529 97.431-169.557 170.612-170.821 4.141-.071 7.44-3.487 7.369-7.628-.072-4.141-3.448-7.44-7.629-7.37-15.273.264-30.462 2.738-45.17 7.255-11.786-4.835-58.662-21.298-102.123 2.132-4.895 2.639-7.921 7.547-8.095 13.13-.174 5.581 2.54 10.667 7.258 13.604 7.917 4.929 17.555 13.102 20.655 24.767-27.837 31.193-47.551 72.689-57.462 121.366-32.399-4.441-65.203 17.771-68.049 47.653-.18 1.896.367 3.79 1.532 5.297 14.733 19.066 43.765 24.101 68.255 13.176zm42.998-224.991c-.278-.171-.261-.644.027-.797 26.078-14.059 54.485-11.111 72.593-6.712-16.806 7.876-33.399 18.944-48.331 33.086-5.685-11.935-15.769-20.273-24.289-25.577z"/><path d="m507.856 342.439c-7.741-3.873-15.959-6.508-24.352-7.917 1.057-3.378 1.641-4.135 3.942-9.457 2.011-4.513.781-9.895-2.99-13.087-.114-.097-5.048-4.272-4.912-4.156-14.237-12.05-11.515-28.163-12.068-31.011-.155-4.927-3.594-9.233-8.365-10.473l-6.185-1.607c-18.082-4.7-22.597-20.436-24.308-22.743-2.268-4.387-7.237-6.788-12.085-5.836l-6.327 1.241c-18.303 3.588-29.179-8.593-31.749-9.94-3.947-2.956-9.459-2.956-13.407 0-2.574 1.349-13.453 13.529-31.748 9.94l-6.327-1.242c-4.846-.949-9.815 1.45-12.084 5.836l-2.935 5.674c-8.585 16.6-24.93 17.517-27.56 18.677-4.77 1.24-8.209 5.547-8.364 10.474l-.201 6.436c-.583 18.642-14.891 26.529-16.777 28.731-3.773 3.193-5.002 8.575-2.99 13.088 1.18 3.552 7.133 11.822 5.093 24.735-12.733.907-25.669-1.542-37.301-7.362-24.331-12.173-53.381-12.173-77.712 0-20.127 10.071-44.161 10.071-64.288 0-24.331-12.173-53.381-12.173-77.712 0-2.54 1.27-4.144 3.866-4.144 6.706v136.384c0 4.142 3.358 7.5 7.5 7.5h497c4.142 0 7.5-3.358 7.5-7.5 0-16.501 0-119.773 0-136.383 0-2.841-1.604-5.437-4.144-6.708zm-236.925-20.863c.816-1.012 19.111-12.889 19.894-37.86l.111-3.58 3.42-.889c24.215-6.293 31.729-26.793 32.543-27.825 1.306.005 22.02 6.855 41.983-8.098l2.873-2.152c1.174.572 16.862 15.741 41.339 10.939l3.517-.689c.767.972 8.316 21.528 32.543 27.826l3.42.889c.287 1.275-1.773 23.008 17.281 39.135l2.723 2.305c-.897 2.182-2.899 5.784-4.307 11.696-5.168.043-10.311.554-15.367 1.507-7.53-62.472-80.454-93.38-130.546-55.345-3.299 2.505-3.942 7.21-1.438 10.509s7.21 3.942 10.509 1.438c41.545-31.547 102.373-4.93 106.839 47.504-2.519.953-5.506 2.245-8.124 3.554-20.127 10.071-44.161 10.071-64.288 0-18.093-9.051-39.671-11.738-60.304-6.483 1.131-8.667 3.958-17.064 8.339-24.661 2.069-3.588.838-8.175-2.75-10.244-3.588-2.07-8.174-.837-10.244 2.75-6.625 11.489-10.345 24.468-10.843 37.717-2.705 1.271-6.812 3.514-13.543 5.508.722-14.211-4.956-23.581-5.58-25.451zm-255.931 32.369c19.224-8.116 41.38-7.48 60.144 1.909 24.331 12.174 53.381 12.174 77.712 0 20.127-10.071 44.161-10.071 64.288 0 19.367 9.69 43.187 12.285 65.887 4.849 10.108-3.297 12.388-5.802 21.257-8.743 16.273-5.426 34.961-4.961 51.684 2.412 5.671 2.498 19.701 10.614 42.028 10.613 11.939 0 23.876-2.444 34.97-7.316 2.396-1.052 4.003-1.873 3.903-1.823 18.666-9.333 40.812-10.056 60.127-1.901v52.157c-22.501-7.598-46.697-5.559-66.856 4.529-20.127 10.071-44.161 10.071-64.288 0-24.267-12.142-53.317-12.205-77.712 0-20.127 10.071-44.161 10.071-64.288 0-24.331-12.173-53.381-12.173-77.712 0-20.127 10.071-44.161 10.071-64.288 0-20.011-10.014-44.163-12.172-66.856-4.529zm0 124.085v-55.889c19.598-8.239 41.706-7.323 60.144 1.904 24.331 12.174 53.381 12.174 77.712 0 19.699-9.857 43.741-10.282 64.288 0 24.331 12.174 53.381 12.174 77.712 0 19.696-9.856 43.738-10.283 64.288 0 18.836 9.425 40.706 11.642 61.166 6.241 14.955-3.947 17.368-8.135 30.891-11.568 15.114-3.828 31.174-2.726 45.799 3.422v55.889h-482z"/></svg>