<svg id="Capa_1" enable-background="new 0 0 512 512" height="512" viewBox="0 0 512 512" width="512" xmlns="http://www.w3.org/2000/svg"><path d="m7.5 236.203v-157.074s80.996-6.291 193.511 36.349 151.661 67.792 218.768 61.507v99.248h-359.999z" fill="#a4e6ff"/><path d="m419.779 176.985c-34.892 3.268-62.228-1.967-96.246-13.736-48.63 22.215-127.412 42.954-316.033 42.954v30l52.28 40.03h359.999z" fill="#5bd6fd"/><path d="m7.5 236.203c413.971 0 322.105-100.453 497-100.453v263.517l-99.374 28.242h-295.715l-101.911-28.242z" fill="#a4e6ff"/><path d="m57.5 409.267 101.911 27.978 91.6-29.735 138.877-114.426c-26.124-62.32-87.7-106.098-159.505-106.098-95.481 0-172.883 77.402-172.883 172.883z" fill="#e8e8e8"/><path d="m97.5 409.267v-49.398c0-88.733 66.853-161.84 152.937-171.731-6.579-.76-13.27-1.152-20.053-1.152-95.481 0-172.883 77.403-172.883 172.883v49.398l101.911 27.978 18.328-5.95z" fill="#c7c5cb"/><path d="m455.126 437.509v-49.219c0-56.365-45.693-102.057-102.057-102.057-56.365 0-102.057 45.693-102.057 102.057v49.219z" fill="#fff"/><path d="m354.921 333.666c-.615-.021-1.232-.031-1.852-.031s-1.237.01-1.852.031c-25.206.844-44.962 22.055-44.962 47.275v56.568h93.629v-56.568c-.001-25.219-19.757-46.431-44.963-47.275z" fill="#5c586f"/><g fill="#e8e8e8"><path d="m397.789 26.807c-1.906 9.043-8.441 15.71-17.705 17.626-3.232.669-5.538 3.534-5.538 6.907v.372c0 3.312 2.326 6.166 5.568 6.841 9.246 1.924 15.768 8.583 17.674 17.612.686 3.248 3.443 5.636 6.849 5.636h.444c3.3 0 6.166-2.306 6.835-5.538 1.916-9.262 8.579-15.796 17.618-17.704 3.248-.686 5.636-3.444 5.636-6.763v-.614c0-3.319-2.389-6.078-5.636-6.763-9.039-1.908-15.703-8.442-17.618-17.704-.669-3.232-3.534-5.538-6.92-5.538h-.444c-3.319.001-6.079 2.385-6.763 5.63z"/><path d="m322.203 82.487c-1.635 7.759-7.242 13.479-15.191 15.123-2.773.574-4.752 3.032-4.752 5.926v.319c0 2.842 1.995 5.291 4.777 5.869 7.933 1.651 13.528 7.364 15.164 15.111.588 2.787 2.954 4.836 5.876 4.836h.381c2.832 0 5.29-1.978 5.864-4.751 1.644-7.946 7.361-13.553 15.116-15.19 2.787-.588 4.836-2.955 4.836-5.803v-.527c0-2.848-2.049-5.214-4.836-5.803-7.756-1.637-13.473-7.243-15.116-15.19-.574-2.773-3.032-4.752-5.938-4.752h-.381c-2.844.003-5.213 2.048-5.8 4.832z"/><path d="m190.999 30.312c-1.635 7.759-7.242 13.479-15.191 15.123-2.773.574-4.752 3.032-4.752 5.926v.319c0 2.842 1.995 5.291 4.777 5.869 7.933 1.651 13.528 7.364 15.164 15.111.588 2.787 2.954 4.836 5.876 4.836h.381c2.832 0 5.29-1.978 5.864-4.751 1.644-7.946 7.361-13.553 15.116-15.19 2.787-.588 4.836-2.955 4.836-5.803v-.527c0-2.848-2.049-5.214-4.836-5.803-7.756-1.637-13.473-7.243-15.116-15.19-.574-2.773-3.032-4.752-5.938-4.752h-.38c-2.846.003-5.214 2.048-5.801 4.832z"/></g><ellipse cx="223.694" cy="275.088" fill="#77718c" rx="16.4" ry="18.352"/><path d="m7.5 399.267h497v91.555h-497z" fill="#5bd6fd"/><path d="m137.627 252.319v11.983c0 4.143 3.358 7.5 7.5 7.5s7.5-3.357 7.5-7.5v-11.983c0-4.142-3.358-7.5-7.5-7.5s-7.5 3.358-7.5 7.5z"/><path d="m223.694 300.94c13.178 0 23.9-11.597 23.9-25.851 0-14.255-10.722-25.852-23.9-25.852s-23.9 11.597-23.9 25.852c0 14.254 10.722 25.851 23.9 25.851zm0-36.703c4.907 0 8.9 4.868 8.9 10.852 0 5.983-3.993 10.852-8.9 10.852s-8.9-4.868-8.9-10.852 3.993-10.852 8.9-10.852z"/><path d="m302.261 271.802c4.142 0 7.5-3.357 7.5-7.5v-11.983c0-4.142-3.358-7.5-7.5-7.5s-7.5 3.358-7.5 7.5v11.983c0 4.143 3.358 7.5 7.5 7.5z"/><path d="m378.585 65.897c6.227 1.295 10.551 5.604 11.863 11.818 3.289 15.58 25.659 15.3 28.81.069 1.291-6.239 5.6-10.571 11.824-11.885 6.822-1.441 11.586-7.239 11.586-14.102v-.614c0-6.862-4.765-12.661-11.587-14.102-6.223-1.313-10.533-5.646-11.823-11.884-1.38-6.675-7.379-11.52-14.265-11.52h-.444c-6.864 0-12.663 4.763-14.1 11.582-1.312 6.226-5.644 10.537-11.886 11.828-6.674 1.381-11.519 7.375-11.519 14.252v.372c.001 6.829 4.854 12.794 11.541 14.186zm26.542-37.543v.002c0-.001 0-.001 0-.002zm-.266 1.163c2.755 11.114 10.842 19.21 21.956 21.973-11.113 2.763-19.201 10.859-21.956 21.973-2.76-11.124-10.866-19.221-21.992-21.973 11.127-2.752 19.232-10.847 21.992-21.973z"/><path d="m305.51 117.068c4.91 1.021 8.319 4.418 9.354 9.317 3.074 14.571 23.884 14.178 26.804.055 1.018-4.919 4.415-8.335 9.321-9.37 14.375-3.035 14.396-23.771 0-26.809-4.906-1.036-8.304-4.452-9.321-9.371-1.287-6.219-6.873-10.732-13.282-10.732h-.381c-6.399 0-11.802 4.434-13.14 10.782-1.035 4.909-4.45 8.308-9.372 9.326-6.219 1.287-10.732 6.868-10.732 13.271v.319c0 6.359 4.521 11.916 10.749 13.212zm22.761-28.729c2.732 7.095 8.223 12.592 15.316 15.327-7.093 2.735-12.584 8.231-15.316 15.327-2.736-7.098-8.237-12.595-15.337-15.326 7.102-2.733 12.602-8.229 15.337-15.328z"/><path d="m174.306 64.893c4.91 1.022 8.319 4.418 9.353 9.318 3.075 14.56 23.879 14.186 26.804.054 1.017-4.919 4.415-8.335 9.32-9.37 6.351-1.341 10.787-6.745 10.787-13.142v-.526c0-6.397-4.436-11.801-10.787-13.141-4.906-1.036-8.304-4.452-9.321-9.371-1.287-6.219-6.872-10.732-13.282-10.732h-.38c-6.398 0-11.801 4.434-13.14 10.783-.142.264-1.24 7.643-9.372 9.325-6.219 1.287-10.732 6.868-10.732 13.271v.319c.001 6.36 4.522 11.916 10.75 13.212zm24.032-33.034c0 .002 0 .003-.001.004 0-.001 0-.002.001-.004zm-1.271 4.305c2.732 7.095 8.223 12.591 15.316 15.327-7.094 2.735-12.584 8.231-15.316 15.327-2.735-7.098-8.236-12.595-15.337-15.327 7.102-2.732 12.602-8.227 15.337-15.327z"/><path d="m512 135.75c0-4.142-3.358-7.5-7.5-7.5-72.509 0-99.796 16.538-139.367 38.818-40.527-7.826-83.648-29.114-161.464-58.602-112.786-42.745-193.375-37.077-196.75-36.815-3.905.304-6.919 3.561-6.919 7.478v411.693c0 4.142 3.358 7.5 7.5 7.5h497c4.142 0 7.5-3.358 7.5-7.5v-91.554zm-418.205 106.29c-28.263 32.689-43.795 74.422-43.795 117.829v31.898h-35v-148.075c24.188-.046 53.295-.59 78.795-1.652zm298.588 149.727h-78.628v-10.825c0-21.239 16.918-39.084 37.712-39.78 23.478-.787 40.916 18.355 40.916 39.78zm104.617-248.453v248.453h-34.374v-3.476c0-20.159-5.525-39.868-15.979-56.996-2.466-4.041-8.035-4.827-11.526-1.571-2.558 2.377-3.179 6.301-1.29 9.397 9.024 14.784 13.794 31.787 13.794 49.17v3.476h-40.243c-.74-5.315 4.134-28.425-15.078-48.755-10.28-10.879-24.605-17.394-41.339-16.841-29.438.985-52.211 25.681-52.211 54.771v10.825h-40.243v-3.476c0-52.139 42.418-94.558 94.558-94.558 23.075 0 45.511 8.367 63.134 24.187 3.098 2.781 7.84 2.498 10.601-.578 2.768-3.082 2.512-7.824-.57-10.591-9.17-8.233-19.706-14.849-30.672-19.464-15.613-35.39-41.358-63.864-73.269-82.732 71.065-27.981 82.738-59.637 174.707-61.241zm-298.646-20.822c67.986 25.765 109.378 45.244 146.845 55.332-12.745 6.461-25.847 12.167-40.909 17.414-42.991-19.258-92.867-21.177-137.993-4.021-3.872 1.472-5.817 5.804-4.345 9.676 0 .001.001.003.002.005 0 .001 0 .001.001.002 1.466 3.856 5.794 5.819 9.677 4.342 76.353-29.058 164.312 2.132 204.205 75.862-68.148-14.438-132.326 37.746-132.326 107.187v3.476h-178.511c.03-32.923-.145-34.996.37-42.938 3.698-55.445 34.616-103.842 80.716-131.239 3.572-2.123 4.727-6.725 2.607-10.297-2.115-3.561-6.716-4.733-10.278-2.619-9.91 5.885-19.82 13.104-29.232 21.636-30.677 1.587-63.582 2.29-94.183 2.381v-142.337c21.677-.362 92.198 1.592 183.354 36.138zm298.646 360.83h-482v-76.554h482z"/></svg>