<svg id="Capa_1" enable-background="new 0 0 512 512" height="512" viewBox="0 0 512 512" width="512" xmlns="http://www.w3.org/2000/svg"><path d="m504.5 494.652h-497v-89.082l248.5-38.289 248.5 38.289z" fill="#f8e86a"/><path d="m504.5 337.378v-68.192c-22.346-11.181-48.654-11.181-71 0-22.346 11.181-48.654 11.181-71 0-22.346-11.181-48.654-11.181-71 0-22.346 11.181-48.654 11.181-71 0-22.346-11.181-48.654-11.181-71 0-22.346 11.181-48.654 11.181-71 0-22.346-11.181-48.654-11.181-71 0v68.192l44.591 29.903h398.446z" fill="#5bd6fd"/><path d="m235.859 258.332v-135.869l114.717-78.898 114.715 78.898v135.869l-114.715 25z" fill="#f8e86a"/><path d="m7.5 337.378c22.346-11.181 48.654-11.181 71 0 22.346 11.181 48.654 11.181 71 0 22.346-11.181 48.654-11.181 71 0 22.346 11.181 48.654 11.181 71 0 22.346-11.181 48.654-11.181 71 0 22.346 11.181 48.654 11.181 71 0 22.346-11.181 48.654-11.181 71 0v68.192h-497z" fill="#00b4fb"/><path d="m380.684 183.421h-60.218c-10.961 0-19.846 8.886-19.846 19.846v80.064h99.911v-80.064c-.001-10.96-8.886-19.846-19.847-19.846z" fill="#5c586f"/><path d="m248.974 283.332h40.051v132.239h-40.051z" fill="#f8e86a"/><path d="m412.125 283.332h40.051v132.239h-40.051z" fill="#f8e86a" transform="matrix(-1 0 0 -1 864.301 698.902)"/><path d="m248.974 283.331h40.051v45h-40.051z" fill="#fab659"/><path d="m412.125 283.331h40.051v45h-40.051z" fill="#fab659"/><path d="m465.291 248.332h-229.317c-6.858 0-12.417 5.559-12.417 12.417v25.166c0 6.858 5.559 12.417 12.417 12.417h229.317c6.858 0 12.417-5.559 12.417-12.417v-25.166c0-6.858-5.559-12.417-12.417-12.417z" fill="#ff71a7"/><circle cx="99.173" cy="100.071" fill="#f8e86a" r="46.415"/><path d="m119.173 126.486c-25.634 0-46.415-20.78-46.415-46.415 0-7.664 1.869-14.887 5.158-21.257-14.938 7.713-25.158 23.286-25.158 41.257 0 25.634 20.781 46.415 46.415 46.415 17.971 0 33.544-10.219 41.257-25.158-6.371 3.289-13.594 5.158-21.257 5.158z" fill="#fab659"/><path d="m235.859 122.463v51.354c4.067-.862 7.936-2.514 11.411-4.929l103.305-71.774 103.306 71.775c3.475 2.414 7.344 4.065 11.41 4.928v-51.353l-114.715-78.899z" fill="#fab659"/><path d="m493.821 111.401-128.981-89.613c-8.576-5.959-19.953-5.959-28.529 0l-128.981 89.614c-5.206 3.617-6.494 10.77-2.877 15.976l15.43 22.208c3.617 5.206 10.77 6.494 15.976 2.877l114.716-79.703 114.717 79.703c5.206 3.617 12.359 2.329 15.976-2.877l15.43-22.209c3.618-5.206 2.33-12.359-2.877-15.976z" fill="#ff71a7"/><path d="m298.074 155.28v-11.54c0-4.143-3.358-7.5-7.5-7.5s-7.5 3.357-7.5 7.5v11.541c0 4.142 3.358 7.5 7.5 7.5s7.5-3.359 7.5-7.501z"/><path d="m410.692 162.78c4.142 0 7.5-3.358 7.5-7.5v-11.54c0-4.143-3.358-7.5-7.5-7.5s-7.5 3.357-7.5 7.5v11.541c0 4.141 3.358 7.499 7.5 7.499z"/><path d="m372.122 154.864c2.721-3.123 2.396-7.86-.727-10.582s-7.86-2.396-10.582.727c-5.393 6.189-14.973 6.181-20.36 0-2.722-3.123-7.459-3.448-10.582-.727-3.123 2.722-3.448 7.459-.727 10.582 11.373 13.049 31.617 13.035 42.978 0z"/><path d="m99.173 153.986c29.729 0 53.915-24.186 53.915-53.915s-24.186-53.915-53.915-53.915-53.915 24.186-53.915 53.915 24.186 53.915 53.915 53.915zm0-92.829c21.458 0 38.915 17.457 38.915 38.915s-17.457 38.915-38.915 38.915-38.915-17.457-38.915-38.915 17.457-38.915 38.915-38.915z"/><path d="m99.173 41.547c4.142 0 7.5-3.358 7.5-7.5v-11.025c0-4.142-3.358-7.5-7.5-7.5s-7.5 3.358-7.5 7.5v11.025c0 4.142 3.358 7.5 7.5 7.5z"/><path d="m151.163 58.688 7.796-7.796c2.929-2.929 2.929-7.677 0-10.606s-7.678-2.929-10.606 0l-7.796 7.796c-2.929 2.929-2.929 7.677 0 10.606 2.928 2.93 7.677 2.929 10.606 0z"/><path d="m157.697 100.072c0 4.142 3.358 7.5 7.5 7.5h11.025c4.142 0 7.5-3.358 7.5-7.5 0-4.143-3.358-7.5-7.5-7.5h-11.025c-4.142 0-7.5 3.357-7.5 7.5z"/><path d="m151.163 141.454c-2.929-2.929-7.678-2.929-10.606 0-2.929 2.929-2.929 7.678 0 10.606l7.796 7.796c2.928 2.928 7.678 2.929 10.606 0 2.929-2.929 2.929-7.678 0-10.607z"/><path d="m91.673 166.096v11.024c0 4.143 3.358 7.5 7.5 7.5s7.5-3.357 7.5-7.5v-11.024c0-4.143-3.358-7.5-7.5-7.5s-7.5 3.357-7.5 7.5z"/><path d="m47.184 141.454-7.796 7.795c-2.929 2.929-2.929 7.678 0 10.607 2.928 2.928 7.677 2.928 10.606 0l7.796-7.796c2.929-2.929 2.929-7.678 0-10.606-2.929-2.929-7.678-2.928-10.606 0z"/><path d="m22.124 107.572h11.025c4.142 0 7.5-3.358 7.5-7.5 0-4.143-3.358-7.5-7.5-7.5h-11.025c-4.142 0-7.5 3.357-7.5 7.5 0 4.141 3.358 7.5 7.5 7.5z"/><path d="m47.184 58.688c1.464 1.464 3.384 2.197 5.303 2.197 6.621 0 10.042-8.065 5.303-12.803l-7.796-7.796c-2.929-2.929-7.678-2.929-10.606 0-2.929 2.929-2.929 7.677 0 10.606z"/><path d="m507.856 262.48c-7.481-3.744-15.401-6.346-23.602-7.805-1.804-5.619-6.039-10.151-11.462-12.366v-80.345c5.67-.291 11.153-3.086 14.636-8.099l15.431-22.209c5.985-8.614 3.859-20.429-4.757-26.415l-40.019-27.805c-3.403-2.364-8.076-1.521-10.438 1.88-2.364 3.401-1.522 8.075 1.88 10.438l40.019 27.805c1.809 1.256 2.25 3.734.998 5.537l-15.431 22.209c-1.251 1.801-3.734 2.248-5.536.998-.16-.111-114.59-79.615-114.718-79.704-2.573-1.788-5.986-1.787-8.559 0-121.166 83.662-114.609 80.906-117.691 80.352-1.045-.188-1.956-.772-2.562-1.646l-15.43-22.208c-1.252-1.802-.805-4.286.997-5.538l128.978-89.612c5.972-4.149 13.998-4.149 19.97 0l64.412 44.752c3.402 2.363 8.075 1.521 10.438-1.88 2.364-3.401 1.522-8.075-1.88-10.438l-64.41-44.753c-11.092-7.707-25.997-7.707-37.088 0l-128.98 89.614c-8.594 5.971-10.728 17.82-4.757 26.415l15.43 22.208c3.25 4.678 8.452 7.787 14.635 8.11v80.375c-6.727 2.795-11.591 9.173-12.218 16.741-22.594-8.648-48.191-7.524-69.998 3.387-20.127 10.07-44.161 10.07-64.288 0-24.33-12.174-53.382-12.174-77.712 0-2.54 1.273-4.144 3.869-4.144 6.709v225.465c0 4.142 3.358 7.5 7.5 7.5h497c4.142 0 7.5-3.358 7.5-7.5 0-28.137 0-192.468 0-225.465 0-2.84-1.604-5.436-4.144-6.707zm-88.231 135.59c0-14.061 0-78.178 0-92.239h25.051v92.239zm-123.099 0v-54.789c19.508-9.004 40.894-8.695 58.999-.877 4.904 2.116 21.702 12.01 46.934 10.719.722-.036 1.445-.072 2.166-.126v45.073zm-40.051 0c0-13.114 0-79.107 0-92.239h25.051v92.239zm-25.417-112.156c0-8.926 0-16.27 0-25.166 0-2.485 1.79-4.774 5.09-4.917h229.144c2.711 0 4.917 2.206 4.917 4.917v25.166c0 2.711-2.206 4.917-4.917 4.917-99.786 0-129.615 0-229.317 0-2.712 0-4.917-2.205-4.917-4.917zm12.301-129.529 107.216-74.492 107.216 74.492v84.446h-49.761v-37.563c0-15.079-12.268-27.347-27.346-27.347h-60.218c-15.079 0-27.346 12.268-27.346 27.347v37.563h-49.761zm149.671 84.446h-84.91v-37.563c0-6.808 5.539-12.347 12.346-12.347h60.218c6.808 0 12.346 5.539 12.346 12.347zm11.595 97.109c-13.602 1.24-27.17-1.464-38.769-7.269-22.277-11.146-47.728-11.731-69.33-3.648v-21.192h108.099zm55.051-.827c12.403-1.605 25.308-.001 37.324 5.082v55.876h-37.324zm37.324-10.974c-11.63-3.951-24.504-5.508-37.324-4.132v-16.175h5.615c10.982 0 19.917-8.935 19.917-19.917v-15.761c4.033.932 7.972 2.21 11.792 3.828zm-482-52.153c19.224-8.117 41.379-7.48 60.144 1.909 24.33 12.173 53.382 12.173 77.712 0 19.767-9.89 43.298-10.068 63.202-.532v10.552c0 10.994 8.946 19.917 19.917 19.917h5.5v30.931c-5.982-1.232-11.796-3.179-17.619-6.092-24.33-12.173-53.382-12.173-77.712 0-20.128 10.071-44.16 10.071-64.288 0-21.201-10.607-45.445-11.777-66.856-4.529zm482 213.166h-482v-74.082h68.704c4.142 0 7.5-3.358 7.5-7.5s-3.358-7.5-7.5-7.5h-68.704v-55.889c16.431-6.943 35.556-7.682 53.23-1.098 8.714 3.255 21.69 12.134 45.77 12.133 13.345 0 26.691-3.043 38.856-9.13 19.878-9.947 43.931-10.185 64.288 0 7.918 3.961 16.326 6.601 24.331 7.956v46.028h-127.771c-4.142 0-7.5 3.358-7.5 7.5s3.358 7.5 7.5 7.5h383.296z"/></svg>