<svg id="Capa_1" enable-background="new 0 0 512 512" height="512" viewBox="0 0 512 512" width="512" xmlns="http://www.w3.org/2000/svg"><path d="m442.23 440.632-96.306-296.842-89.924-19.463-89.924 19.463-96.306 296.842z" fill="#f8e86a"/><path d="m271 127.574-15-3.246-89.924 19.462-96.306 296.842h30l96.306-296.842z" fill="#fab659"/><path d="m504.5 502.889v-59.407c-65.037-37.197-152.42-59.97-248.5-59.97s-183.463 22.772-248.5 59.97v59.407z" fill="#80dfb5"/><path d="m7.5 443.482v59.407h30v-74.794c-10.447 4.805-20.47 9.936-30 15.387z" fill="#36d39a"/><ellipse cx="169.953" cy="460.189" fill="#ffa0ab" rx="31.75" ry="25.284"/><ellipse cx="342.047" cy="460.189" fill="#ffa0ab" rx="31.75" ry="25.284"/><ellipse cx="256" cy="440.762" fill="#77718c" rx="16.854" ry="18.859"/><path d="m363.83 115.353c-10.304-20.707-29.539-27.951-29.539-27.951l-78.291-39.145-78.291 39.146s-19.235 7.244-29.539 27.951c-6.512 13.085 3.291 28.437 17.906 28.437h179.848c14.615-.001 24.418-15.353 17.906-28.438z" fill="#817cd0"/><path d="m178.17 115.353c10.304-20.707 29.539-27.951 29.539-27.951l63.291-31.645-15-7.5-78.291 39.146s-19.235 7.244-29.539 27.951c-6.512 13.085 3.291 28.437 17.906 28.437h30c-14.615-.001-24.418-15.353-17.906-28.438z" fill="#635ac5"/><path d="m256 9.111c-43.239 0-78.291 35.052-78.291 78.291h156.582c0-43.239-35.052-78.291-78.291-78.291z" fill="#80dfb5"/><path d="m271 10.563c-4.856-.943-9.868-1.452-15-1.452-43.239 0-78.291 35.052-78.291 78.291h30c0-38.107 27.23-69.84 63.291-76.839z" fill="#36d39a"/><g fill="#f8e86a"><path d="m421.342 169.333c-1.906 9.043-8.441 15.71-17.705 17.626-3.232.669-5.538 3.534-5.538 6.907v.372c0 3.312 2.326 6.166 5.568 6.841 9.246 1.924 15.768 8.583 17.674 17.612.686 3.248 3.443 5.636 6.849 5.636h.444c3.3 0 6.166-2.306 6.835-5.538 1.916-9.262 8.579-15.796 17.618-17.704 3.248-.686 5.637-3.444 5.637-6.763v-.614c0-3.319-2.389-6.078-5.637-6.763-9.039-1.908-15.703-8.442-17.618-17.704-.669-3.232-3.534-5.538-6.92-5.538h-.444c-3.319.001-6.079 2.385-6.763 5.63z"/><path d="m67.374 52.719c-1.906 9.043-8.441 15.71-17.705 17.626-3.232.669-5.538 3.534-5.538 6.907v.372c0 3.312 2.326 6.166 5.568 6.841 9.246 1.924 15.768 8.583 17.674 17.612.686 3.248 3.443 5.636 6.849 5.636h.444c3.3 0 6.166-2.306 6.835-5.538 1.916-9.262 8.579-15.796 17.618-17.704 3.248-.686 5.636-3.444 5.636-6.763v-.614c0-3.319-2.389-6.078-5.636-6.763-9.04-1.907-15.703-8.441-17.619-17.703-.669-3.232-3.534-5.538-6.92-5.538h-.444c-3.317 0-6.078 2.384-6.762 5.629z"/><path d="m88.989 302.198c-1.906 9.043-8.441 15.71-17.705 17.626-3.232.669-5.538 3.534-5.538 6.907v.372c0 3.312 2.326 6.166 5.568 6.841 9.246 1.924 15.768 8.583 17.674 17.612.686 3.248 3.443 5.636 6.849 5.636h.444c3.3 0 6.166-2.306 6.835-5.538 1.916-9.262 8.579-15.796 17.618-17.704 3.248-.686 5.636-3.444 5.636-6.763v-.614c0-3.319-2.389-6.078-5.636-6.763-9.039-1.908-15.703-8.442-17.618-17.704-.669-3.232-3.534-5.538-6.92-5.538h-.446c-3.316.001-6.077 2.385-6.761 5.63z"/></g><ellipse cx="231.891" cy="288.374" fill="#77718c" rx="42.448" ry="34.951" transform="matrix(.707 -.707 .707 .707 -135.992 248.434)"/><circle cx="291.316" cy="271.203" fill="#77718c" r="27.073"/><path d="m175.26 409.863c-4.142 0-7.5 3.358-7.5 7.5v12.315c0 4.142 3.358 7.5 7.5 7.5s7.5-3.358 7.5-7.5v-12.315c0-4.142-3.358-7.5-7.5-7.5z"/><path d="m256 414.402c-13.429 0-24.354 11.825-24.354 26.359 0 14.535 10.925 26.359 24.354 26.359s24.354-11.825 24.354-26.359-10.925-26.359-24.354-26.359zm0 37.719c-5.158 0-9.354-5.096-9.354-11.359s4.196-11.359 9.354-11.359 9.354 5.096 9.354 11.359-4.196 11.359-9.354 11.359z"/><path d="m336.739 409.863c-4.142 0-7.5 3.358-7.5 7.5v12.315c0 4.142 3.358 7.5 7.5 7.5s7.5-3.358 7.5-7.5v-12.315c0-4.142-3.358-7.5-7.5-7.5z"/><circle cx="256" cy="115.596" r="8.731"/><circle cx="305.281" cy="115.596" r="8.731"/><circle cx="206.718" cy="115.596" r="8.731"/><path d="m414.001 220.241c1.44 6.822 7.274 11.587 14.187 11.587h.444c6.836 0 12.8-4.845 14.179-11.518 1.291-6.24 5.6-10.572 11.823-11.885 6.822-1.44 11.587-7.239 11.587-14.102v-.614c0-6.862-4.765-12.661-11.587-14.102-6.223-1.314-10.533-5.645-11.823-11.885-3.125-15.099-25.498-15.64-28.809.063-.164.306-1.559 9.693-11.885 11.829-6.675 1.38-11.519 7.374-11.519 14.251v.373c0 6.827 4.853 12.792 11.54 14.184 6.227 1.296 10.551 5.604 11.863 11.819zm14.679-49.362v.002s0-.001 0-.002zm-.266 1.163c2.755 11.115 10.841 19.212 21.956 21.975-11.113 2.763-19.2 10.859-21.956 21.973-2.76-11.124-10.866-19.221-21.992-21.973 11.128-2.754 19.232-10.848 21.992-21.975z"/><path d="m60.034 103.626c1.44 6.823 7.274 11.588 14.187 11.588h.444c6.836 0 12.8-4.845 14.179-11.519 1.291-6.239 5.601-10.571 11.824-11.885 15.442-3.262 15.463-25.552-.001-28.817-6.223-1.313-10.532-5.646-11.823-11.885-1.381-6.674-7.38-11.518-14.265-11.518h-.444c-6.864 0-12.663 4.763-14.1 11.582-1.312 6.226-5.644 10.537-11.886 11.828-6.674 1.381-11.519 7.375-11.519 14.252v.372c0 6.827 4.853 12.792 11.54 14.184 6.228 1.296 10.552 5.604 11.864 11.818zm14.412-48.198c2.754 11.114 10.842 19.211 21.956 21.974-11.113 2.762-19.2 10.859-21.956 21.973-2.76-11.124-10.866-19.221-21.992-21.974 11.129-2.752 19.233-10.846 21.992-21.973z"/><path d="m0 443.482v59.407c0 4.142 3.358 7.5 7.5 7.5h497c4.142 0 7.5-3.358 7.5-7.5v-59.407c0-2.69-1.441-5.175-3.776-6.51-21.315-12.191-44.638-22.679-69.469-31.354l-29.612-91.274c-1.278-3.94-5.508-6.097-9.448-4.82-3.94 1.278-6.098 5.509-4.819 9.448l26.238 80.873c-100.787-30.893-223.775-32.628-330.224 0l11.916-36.728c4.092-2.076 6.813-5.866 7.656-9.943 1.294-6.259 5.62-10.575 11.823-11.885 15.462-3.264 15.529-25.539 0-28.817-.876-.185-1.864-.478-2.775-.844l52.02-160.338h168.944l45.188 139.281c1.278 3.939 5.509 6.097 9.448 4.819 3.94-1.278 6.098-5.508 4.819-9.448l-44.263-136.432c14.665-5.543 22.206-22.779 14.88-37.499-8.334-16.749-21.793-25.662-28.896-29.423-2.508-45.073-39.961-80.977-85.65-80.977-14.529 0-28.902 3.714-41.564 10.741-3.622 2.01-4.929 6.575-2.919 10.197s6.575 4.929 10.197 2.918c10.441-5.793 22.296-8.856 34.286-8.856 36.502 0 66.64 27.769 70.396 63.291h-140.801c1.405-13.518 6.616-26.15 15.281-36.894 2.601-3.225 2.095-7.946-1.129-10.546-3.226-2.601-7.947-2.094-10.546 1.129-11.236 13.933-17.824 31.17-18.838 48.991-7.1 3.758-20.569 12.671-28.907 29.429-4.183 8.405-3.71 18.219 1.265 26.251 3.26 5.263 8.055 9.147 13.615 11.249l-47.592 146.689c-6.606-11.091-24.263-8.977-27.094 4.451-1.313 6.227-5.645 10.538-11.886 11.829-6.675 1.38-11.519 7.374-11.519 14.252v.372c0 6.827 4.854 12.792 11.541 14.184 6.227 1.296 10.551 5.604 11.863 11.819.786 3.723 2.887 6.825 5.751 8.882l-14.155 43.629c-24.832 8.675-48.154 19.163-69.469 31.354-2.335 1.335-3.776 3.819-3.776 6.51zm154.884-324.788c7.46-14.99 20.533-21.994 24.377-23.792h153.474c3.884 1.818 16.931 8.822 24.381 23.792 4.059 8.157-2.188 17.596-11.192 17.596h-179.848c-9.002.001-15.251-9.437-11.192-17.596zm-80.815 208.187c11.127-2.752 19.231-10.847 21.992-21.973 2.79 11.259 11.022 19.248 21.955 21.973-10.945 2.721-19.174 10.766-21.955 21.974-2.759-11.124-10.865-19.221-21.992-21.974zm-59.069 120.982c136.345-75.793 345.746-75.742 482 0v47.526h-482z"/><path d="m325.144 278.25c6.514 3.711 6.847 6.686 11.457 6.686 6.805 0 10.106-8.412 5.07-13.029-5.401-4.951-11.145-8.367-17.129-10.212-7.69-27.049-43.254-34.127-60.63-11.558-5.283-4.138-11.536-6.658-18.19-7.628-2.554-6.222-6.233-11.978-11.018-17.146-2.814-3.039-7.56-3.222-10.599-.408-3.04 2.814-3.222 7.56-.408 10.599 2.201 2.377 4.087 4.911 5.651 7.578-16.316 3.496-30.834 15.071-38.401 30.424-4.856-1.532-9.96-2.421-15.263-2.625-4.176-.163-7.624 3.067-7.783 7.206s3.067 7.624 7.206 7.783c3.892.15 7.622.787 11.156 1.883-2.298 13.318 1.029 26.609 10.309 35.889 22.351 22.351 63.259 8.998 77.285-22.646 2.525 1.477 5.198 2.602 7.95 3.384 1.845 5.985 5.261 11.728 10.212 17.129 2.8 3.053 7.544 3.259 10.597.46 3.054-2.799 3.26-7.543.461-10.597-1.929-2.104-3.489-4.24-4.715-6.391 13.483-2.785 23.996-13.299 26.782-26.781zm-117.965 34.835c-6.731-6.731-8.285-17.058-5.125-27.185.084-.22.157-.442.219-.666 8.371-25.151 40.404-37.194 55.125-20.729-1.747 8.816.046 17.812 4.66 25.12-6.971 25.524-39.08 39.259-54.879 23.46zm97.977-28.042c-9.785 9.783-26.586 6.602-31.925-6.368-5.264-12.777 4.042-27.037 18.085-27.037 17.315.001 26.186 21.059 13.84 33.405z"/></svg>