<svg id="Capa_1" enable-background="new 0 0 512 512" height="512" viewBox="0 0 512 512" width="512" xmlns="http://www.w3.org/2000/svg"><path d="m504.5 192.561c-158.731-40.713-226.611 82.444-497 87.533v93.376l248.5 86.779h198.676l49.824-50.552z" fill="#00c071"/><path d="m301.008 356.298h29.121v92.491h-29.121z" fill="#36d39a"/><path d="m415.264 356.298h29.121v92.491h-29.121z" fill="#36d39a"/><path d="m138.465 297.313h45.033v108.928h-45.033z" fill="#e27858"/><path d="m7.5 373.47c181.524-30.195 334.099 99.332 497 36.227v90.197h-497z" fill="#80dfb5"/><path d="m138.465 354.242c7.079 2.904 14.722 4.455 22.516 4.455 7.795 0 15.438-1.551 22.517-4.455v-56.928h-45.033z" fill="#ca5935"/><path d="m279.707 204.267c-1.256-2.381-.842-5.299 1.026-7.237l.268-.278c12.834-13.311 12.834-34.391.001-47.702l-.27-.28c-1.868-1.938-2.282-4.856-1.026-7.236 8.703-16.497 2.656-36.924-13.625-46.026l-.894-.5c-1.802-1.007-2.773-3.041-2.424-5.076 3.224-18.793-9.469-36.617-28.283-39.716l-1.958-.322c-.815-.134-1.468-.748-1.652-1.554-4.412-19.345-24.244-30.944-43.268-25.306l-1.171.347c-13.637-15.033-37.264-15.032-50.901 0l-1.171-.347c-19.024-5.639-38.857 5.96-43.268 25.305-.184.805-.836 1.419-1.651 1.553l-1.959.323c-18.812 3.098-31.506 20.922-28.282 39.715.349 2.036-.623 4.071-2.426 5.08l-.893.499c-16.28 9.102-22.327 29.529-13.624 46.026 1.256 2.381.842 5.299-1.026 7.237l-.269.278c-12.834 13.311-12.834 34.391-.001 47.702l.27.28c1.868 1.938 2.282 4.856 1.026 7.236-8.702 16.497-2.656 36.924 13.625 46.026l.894.5c1.802 1.007 2.773 3.041 2.424 5.076-3.224 18.793 9.469 36.617 28.283 39.716l1.958.322c.815.134 1.468.748 1.651 1.554 4.412 19.345 24.244 30.944 43.268 25.306l1.171-.347c13.637 15.033 37.264 15.032 50.901 0l1.171.347c19.024 5.639 38.857-5.96 43.268-25.305.184-.805.836-1.419 1.651-1.553l1.959-.323c18.813-3.099 31.507-20.923 28.283-39.715-.349-2.036.623-4.071 2.426-5.08l.893-.499c16.281-9.102 22.327-29.529 13.625-46.026z" fill="#80dfb5"/><circle cx="388.623" cy="93.296" fill="#f8e86a" r="41.832"/><path d="m408.623 115.127c-23.103 0-41.832-18.729-41.832-41.832 0-6.382 1.435-12.428 3.991-17.84-14.178 6.696-23.991 21.12-23.991 37.84 0 23.103 18.729 41.832 41.832 41.832 16.72 0 31.144-9.813 37.84-23.991-5.412 2.556-11.458 3.991-17.84 3.991z" fill="#fab659"/><path d="m351.178 311.837.013-.032c5.3-13.105-7.742-26.148-20.847-20.847l-.033.013c-5.517-13.019-23.969-13.019-29.486 0l-.032-.013c-13.105-5.3-26.148 7.742-20.848 20.847l.013.032c-13.019 5.517-13.019 23.969 0 29.486l-.013.032c-5.3 13.105 7.742 26.148 20.847 20.847l.032-.013c5.517 13.019 23.969 13.019 29.486 0l.032.013c13.105 5.3 26.148-7.742 20.848-20.847l-.013-.033c13.02-5.516 13.02-23.968.001-29.485z" fill="#ff71a7"/><circle cx="315.568" cy="326.58" fill="#f8e86a" r="15.998"/><path d="m465.434 311.837.013-.032c5.3-13.105-7.742-26.148-20.847-20.847l-.033.013c-5.517-13.019-23.969-13.019-29.486 0l-.032-.013c-13.105-5.3-26.148 7.742-20.847 20.847l.013.032c-13.019 5.517-13.019 23.969 0 29.486l-.013.032c-5.3 13.105 7.742 26.148 20.847 20.847l.032-.013c5.517 13.019 23.969 13.019 29.486 0l.032.013c13.105 5.3 26.148-7.742 20.848-20.847l-.013-.033c13.019-5.516 13.019-23.968 0-29.485z" fill="#817cd0"/><circle cx="429.824" cy="326.58" fill="#f8e86a" r="15.998"/><path d="m117.295 22.401c-12.561 2.744-23.128 12.456-26.203 25.938-.184.805-.836 1.419-1.651 1.554l-1.959.322c-18.813 3.099-31.507 20.922-28.283 39.715.349 2.036-.623 4.072-2.426 5.08l-.893.5c-16.28 9.102-22.327 29.529-13.624 46.026 1.256 2.381.842 5.299-1.026 7.237l-.269.278c-12.834 13.311-12.834 34.391 0 47.702l.27.28c1.868 1.938 2.282 4.855 1.026 7.236-8.703 16.497-2.656 36.925 13.625 46.026l.894.5c1.802 1.007 2.773 3.041 2.424 5.076-3.224 18.793 9.469 36.617 28.283 39.716l1.958.322c.815.134 1.468.749 1.651 1.554 2.584 11.331 10.462 19.997 20.366 24.106-74.352-154.618-16.021-265.94 5.837-299.168z" fill="#36d39a"/><ellipse cx="90.797" cy="193.393" fill="#ffa0ab" rx="25.897" ry="20.623"/><ellipse cx="231.166" cy="193.393" fill="#ffa0ab" rx="25.897" ry="20.623"/><path d="m105.889 180.784c4.142 0 7.5-3.358 7.5-7.5v-10.079c0-4.142-3.358-7.5-7.5-7.5s-7.5 3.358-7.5 7.5v10.079c0 4.142 3.358 7.5 7.5 7.5z"/><path d="m160.981 187.34c7.734 0 15.089-3.35 20.179-9.189 2.721-3.123 2.396-7.86-.727-10.582s-7.861-2.396-10.582.727c-2.24 2.57-5.473 4.044-8.871 4.044-3.397 0-6.63-1.474-8.87-4.044-2.722-3.123-7.459-3.448-10.582-.727s-3.448 7.459-.727 10.582c5.091 5.839 12.446 9.189 20.18 9.189z"/><path d="m206.339 180.503c4.142 0 7.5-3.357 7.5-7.5 0-2.304 1.875-4.179 4.18-4.179 2.304 0 4.179 1.875 4.179 4.179 0 4.143 3.358 7.5 7.5 7.5s7.5-3.357 7.5-7.5c0-10.575-8.604-19.179-19.179-19.179s-19.18 8.604-19.18 19.179c0 4.142 3.358 7.5 7.5 7.5z"/><path d="m339.291 93.293c0 27.201 22.13 49.332 49.332 49.332s49.332-22.13 49.332-49.332-22.13-49.332-49.332-49.332-49.332 22.131-49.332 49.332zm49.332-34.332c18.931 0 34.332 15.401 34.332 34.332s-15.401 34.332-34.332 34.332-34.332-15.401-34.332-34.332 15.401-34.332 34.332-34.332z"/><path d="m396.123 33.788v-9.936c0-4.142-3.358-7.5-7.5-7.5s-7.5 3.358-7.5 7.5v9.936c0 4.143 3.358 7.5 7.5 7.5s7.5-3.357 7.5-7.5z"/><path d="m432.421 38.888-7.026 7.026c-4.739 4.739-1.319 12.803 5.303 12.803 1.919 0 3.839-.732 5.303-2.197l7.026-7.026c2.929-2.929 2.929-7.678 0-10.607-2.928-2.929-7.677-2.929-10.606.001z"/><path d="m458.063 100.793c4.142 0 7.5-3.358 7.5-7.5s-3.358-7.5-7.5-7.5h-9.936c-4.142 0-7.5 3.358-7.5 7.5s3.358 7.5 7.5 7.5z"/><path d="m425.396 130.065c-2.929 2.929-2.929 7.678 0 10.607l7.026 7.026c1.464 1.465 3.384 2.197 5.303 2.197 6.622 0 10.042-8.065 5.303-12.804l-7.026-7.026c-2.928-2.928-7.677-2.928-10.606 0z"/><path d="m381.123 152.798v9.936c0 4.142 3.358 7.5 7.5 7.5s7.5-3.358 7.5-7.5v-9.936c0-4.143-3.358-7.5-7.5-7.5s-7.5 3.357-7.5 7.5z"/><path d="m341.243 130.066-7.026 7.026c-2.929 2.929-2.929 7.678 0 10.607 1.464 1.464 3.384 2.197 5.303 2.197s3.839-.732 5.303-2.197l7.026-7.026c2.929-2.929 2.929-7.678 0-10.607-2.928-2.929-7.677-2.929-10.606 0z"/><path d="m319.182 85.793c-4.142 0-7.5 3.358-7.5 7.5s3.358 7.5 7.5 7.5h9.936c4.142 0 7.5-3.358 7.5-7.5s-3.358-7.5-7.5-7.5z"/><path d="m344.824 38.888c-2.929-2.93-7.678-2.929-10.606 0-2.929 2.929-2.929 7.678 0 10.607l7.026 7.026c2.929 2.929 7.678 2.928 10.606 0 2.929-2.929 2.929-7.678 0-10.607z"/><path d="m315.568 350.075c12.957 0 23.498-10.541 23.498-23.498s-10.541-23.498-23.498-23.498-23.498 10.541-23.498 23.498 10.541 23.498 23.498 23.498zm0-31.995c4.686 0 8.498 3.812 8.498 8.498s-3.812 8.498-8.498 8.498-8.498-3.812-8.498-8.498 3.812-8.498 8.498-8.498z"/><path d="m429.824 350.075c12.957 0 23.498-10.541 23.498-23.498s-10.541-23.498-23.498-23.498-23.498 10.541-23.498 23.498 10.541 23.498 23.498 23.498zm0-31.995c4.686 0 8.498 3.812 8.498 8.498s-3.812 8.498-8.498 8.498-8.498-3.812-8.498-8.498 3.812-8.498 8.498-8.498z"/><path d="m512 499.891c0-15.157 0-294.249 0-307.333 0-3.425-2.319-6.414-5.637-7.265-22.64-5.808-44.167-8.562-65.826-8.465-4.142.021-7.482 3.396-7.461 7.539.021 4.142 3.423 7.44 7.539 7.461 18.563-.095 37.06 2.07 56.386 6.609v206.055c-14.069 5.113-28.949 9.094-45.115 11.713v-45.317c13.027-.649 23.69-12.479 22.141-26.029 11.537-9.22 11.615-27.293-.008-36.573 1.68-14.745-11.099-27.584-25.902-25.902-9.194-11.518-27.277-11.656-36.582-.003-14.807-1.688-27.592 11.181-25.911 25.909-11.535 9.216-11.622 27.291.006 36.575-1.566 13.741 9.309 25.385 22.134 26.025v48.797c-23.502.053-47.048-2.584-70.135-6.653v-42.147c12.914-.644 23.687-12.349 22.13-26.02 11.518-9.194 11.656-27.277.003-36.582 1.68-14.746-11.099-27.584-25.902-25.902-9.194-11.517-27.277-11.656-36.582-.003-14.737-1.679-27.599 11.117-25.911 25.909-11.535 9.216-11.622 27.291.006 36.575-1.566 13.741 9.309 25.385 22.134 26.025v32.882c-27.579-6.552-43.185-11.102-45.153-11.203-3.485-.178-6.73 2.106-7.637 5.616-1.044 4.047 1.409 8.111 5.385 9.138 85.95 22.203 166.392 41.866 250.896 13.079v71.988h-481.998v-112.497c96.33-14.166 193.485 20.182 203.814 20.182 8.837 0 10.228-12.651 1.832-14.773-9.861-2.492-19.69-4.914-29.648-7.229v-46.889c20.114 3.074 39.792-8.744 46.196-28.471 21.313-4.29 36.021-24.379 33.236-46.268 10.322-6.019 17.133-15.674 19.688-26.401 42.251-15.719 81.339-31.102 122.038-36.306 4.109-.525 7.014-4.282 6.488-8.391-.526-4.108-4.285-7.016-8.391-6.488-41.128 5.259-80.03 20.211-119.542 34.956-.669-4.147-1.967-8.27-3.954-12.235 15.233-16.182 15.233-41.178 0-57.362 9.955-19.868 2.883-43.661-16.328-54.865 2.736-21.52-11.563-41.904-33.235-46.266-6.642-20.457-27.615-32.503-48.563-28.049-15.822-13.905-39.483-13.904-55.303 0-20.95-4.454-41.921 7.593-48.562 28.048-21.37 4.301-36.013 24.439-33.236 46.268-19.212 11.202-26.283 34.997-16.328 54.865-15.234 16.183-15.233 41.18 0 57.362-9.955 19.869-2.883 43.664 16.328 54.864-.607 4.773-.384 9.535.613 14.125-14.642 1.055-29.66 1.738-44.786 2.023-4.085.078-7.357 3.412-7.357 7.499v219.8c0 4.142 3.358 7.5 7.5 7.5h497c4.142 0 7.5-3.357 7.5-7.5zm-336.002-161.496v36.31c-9.778-2.113-20.18-4.172-30.033-5.879v-30.43c9.695 3.729 20.331 3.731 30.033-.001zm-127.108-130.63c2.772-5.256 1.864-11.663-2.261-15.941l-.27-.279c-10.08-10.455-10.08-26.835.001-37.291l.268-.277c4.125-4.278 5.034-10.685 2.261-15.942-6.859-13.002-2.181-28.807 10.65-35.98l.894-.5c4.567-2.554 7.042-7.735 6.158-12.894-2.522-14.704 7.389-28.623 22.109-31.049l1.96-.323c3.839-.632 6.879-3.493 7.744-7.286 3.432-15.047 18.851-24.221 33.825-19.782.213.01 5.139 2.294 8.856-1.805 10.59-11.673 29.037-11.855 39.792 0 3.648 4.023 8.625 1.816 8.857 1.805 14.802-4.388 30.353 4.561 33.824 19.781.865 3.796 3.906 6.656 7.745 7.288l1.958.322c14.719 2.425 24.633 16.344 22.11 31.048-.885 5.157 1.589 10.337 6.158 12.892l.892.499c12.832 7.174 17.51 22.979 10.651 35.981-2.772 5.256-1.864 11.663 2.263 15.943l.267.277c10.081 10.455 10.081 26.835.002 37.288l-.271.28c-4.125 4.278-5.034 10.685-2.261 15.942 6.767 12.828 1.959 28.043-9.327 35.188-1.482.945-2.352 1.284-3.507 2.134-3.889 2.855-5.63 7.593-4.867 12.051 2.232 13.01-5.303 25.541-17.452 29.843-3.188 1.13-5.399 1.29-6.616 1.527-3.84.632-6.88 3.492-7.746 7.286-2.909 12.759-14.118 20.704-25.664 20.906-4.201.074-6.795-.761-9.33-1.471-2.76-.819-5.75.018-7.686 2.151-9.628 10.611-26.163 11.959-37.531 2.215-1.486-1.303-2.301-2.321-2.955-2.879-1.691-1.437-3.873-2.02-5.938-1.719-.82.119-1.265.308-2.226.578-10.504 3.112-21.118-.479-27.742-7.918-3.717-4.175-4.975-7.863-6.225-12.328-1.051-3.721-4.06-6.239-7.601-6.823-1.804-.308-2.921-.431-4.833-.961-12.929-3.591-21.618-16.523-19.235-30.409.885-5.157-1.589-10.337-6.156-12.89l-.895-.501c-12.831-7.17-17.509-22.975-10.65-35.977zm-33.89 79.656c14.686-.399 29.238-1.161 43.409-2.273 6.083 9.006 15.428 15.363 26.358 17.563 6.328 19.545 25.864 31.581 46.198 28.473v35.234c-38.58-5.668-77.035-7.137-115.965-1.686zm421.885 90.979v39.795c-4.238.445-8.986.827-14.121 1.096v-40.891c4.575 1.401 9.537 1.404 14.121 0zm-35.686-34.349c1.479-3.781-.32-8.052-4.059-9.636-6.92-2.932-6.921-12.741 0-15.675 3.77-1.597 5.548-5.955 4.013-9.75-2.815-6.962 4.098-13.908 11.124-11.066 3.792 1.528 8.112-.264 9.709-4.03 2.933-6.921 12.741-6.922 15.674 0 1.597 3.77 5.955 5.549 9.75 4.013 4.849-1.961 8.275.937 9.21 1.872 4.289 4.288 1.817 9.219 1.828 9.324-1.479 3.781.32 8.052 4.059 9.636 6.92 2.932 6.921 12.741 0 15.675-3.77 1.597-5.548 5.955-4.013 9.75 2.806 6.939-4.06 13.923-11.169 11.048-3.513-1.39-7.856-.05-9.735 4.195-3.044 6.547-12.205 6.97-15.56-.057-1.599-3.678-5.823-5.71-9.793-4.104-6.562 2.654-13.954-3.49-11.038-11.195zm-78.57 34.349v31.774c-4.555-.918-9.241-1.909-14.121-2.987v-28.787c4.575 1.401 9.537 1.404 14.121 0zm-35.686-34.349c1.479-3.781-.32-8.052-4.059-9.636-6.92-2.932-6.921-12.741 0-15.675 3.77-1.597 5.548-5.955 4.013-9.75-2.816-6.964 4.1-13.908 11.124-11.066 3.793 1.528 8.113-.264 9.709-4.03 2.932-6.921 12.741-6.922 15.674 0 1.597 3.77 5.955 5.549 9.75 4.013 6.994-2.828 13.888 4.146 11.086 11.073l-.013.032c-1.542 3.797.25 8.128 4.023 9.727 6.921 2.933 6.922 12.741 0 15.675-3.77 1.597-5.548 5.955-4.013 9.75 2.823 6.981-4.112 13.9-11.133 11.062-3.428-1.377-7.786-.21-9.807 4.252-2.088 4.606-6.444 4.964-7.729 4.964-3.767 0-6.362-2.011-7.97-5.438-2.27-4.181-6.377-5.068-9.618-3.758-4.85 1.961-8.275-.937-9.21-1.872-2.406-2.405-3.221-5.64-1.827-9.323z"/></svg>