<svg id="Capa_1" enable-background="new 0 0 512 512" height="512" viewBox="0 0 512 512" width="512" xmlns="http://www.w3.org/2000/svg"><path d="m7.5 285.86v85.66l67.018 53.34h373.688l56.294-53.34v-85.66l-59.556-41.349h-370.426z" fill="#fab659"/><path d="m452.02 85.424c-36.184 0-66.192 26.388-71.861 60.968-.412 2.512-2.949 4.138-5.385 3.397-3.693-1.122-7.609-1.728-11.669-1.728-19.206 0-35.257 13.466-39.248 31.47-.585 2.639-3.38 4.073-5.879 3.04-3.776-1.56-7.912-2.423-12.252-2.423-17.768 0-32.172 14.404-32.172 32.172 0 .38.016.756.029 1.133-7.106-5.02-15.768-7.984-25.126-8-24.101-.04-43.815 20.471-43.815 44.572v35.834h299.858v-178.078c-13.252-13.773-31.858-22.357-52.48-22.357z" fill="#e8e8e8"/><path d="m7.5 108.217c.545-.029 1.092-.045 1.644-.045 16.858 0 30.524 13.666 30.524 30.524v.037c-.003 1.974 1.406 3.628 3.357 3.932 11.965 1.864 21.121 12.208 21.121 24.696 0 .024 2.648-.141 4-.141 20.816 0 37.69 16.874 37.69 37.69v80.95h-98.336z" fill="#e8e8e8"/><path d="m133.683 306.014h35.146v85.759h-35.146z" fill="#ffbdd7"/><path d="m168.828 355.69v-49.676h-35.146v52.206c3.453.363 6.957.553 10.505.553 8.502 0 16.758-1.071 24.641-3.083z" fill="#ff71a7"/><path d="m74.518 259.103c0 38.478 31.192 69.67 69.67 69.67s69.67-31.192 69.67-69.67c6.909-90.158-58.741-147.588-61.54-149.989l-26.046 30.358c.345.296 27.586 39.751 41.697 72.543z" fill="#ffbdd7"/><path d="m152.318 109.114-26.046 30.358c.26.223 15.852 22.769 29.549 47.915 4.25.608 8.592.929 13.007.929 11.744 0 22.978-2.226 33.304-6.274-17.536-44.728-47.93-71.311-49.814-72.928z" fill="#ff71a7"/><circle cx="168.828" cy="96.803" fill="#ffbdd7" r="61.514"/><path d="m222.385 66.527c13.219 18.311.963 29.061-8.611 34.174-5.461 2.917-8.83 8.643-8.83 14.834 0 7.182 4.538 13.602 11.331 15.936 10.58 3.635 19.701 9.457 26.526 14.752 7.584 5.884 18.763 2.584 21.994-6.454 20.712-57.934-42.41-73.242-42.41-73.242z" fill="#5c586f"/><path d="m131.139 191.569c-45.279 0-81.985 36.706-81.985 81.985v13.18c0 2.824 2.29 5.114 5.114 5.114h76.871c27.691 0 50.139-22.448 50.139-50.139 0-27.691-22.448-50.14-50.139-50.14z" fill="#ff71a7"/><path d="m7.5 371.52c22.346-11.181 48.654-11.181 71 0 22.346 11.181 48.654 11.181 71 0 22.346-11.181 48.654-11.181 71 0 22.346 11.181 48.654 11.181 71 0 22.346-11.181 48.654-11.181 71 0 22.346 11.181 48.654 11.181 71 0 22.346-11.181 48.654-11.181 71 0v105.192h-497z" fill="#ff71a7"/><path d="m193.502 97.452c4.143 0 7.5-3.358 7.5-7.5v-12c0-4.142-3.357-7.5-7.5-7.5-4.142 0-7.5 3.358-7.5 7.5v12c0 4.142 3.358 7.5 7.5 7.5z"/><path d="m452.019 77.924c-19.167 0-37.725 6.862-52.256 19.323-13.463 11.545-22.732 27.217-26.353 44.437-3.374-.746-6.827-1.123-10.306-1.123-20.975 0-39.625 14.038-45.654 33.855-3.783-1.174-7.713-1.767-11.726-1.767-18.18 0-33.542 12.292-38.214 29-16.05-6.478-34.744-4.562-49.578 6.715-3.628-16.988-9.762-33.625-18.375-49.808 8.227-4.1 15.642-9.829 21.722-16.932 16.775 7.944 18.399 15.063 30.066 15.063 9.156 0 17.42-5.75 20.511-14.395 6.662-18.635 6.126-35.337-1.592-49.644-11.286-20.917-34.539-29.867-42.987-32.518-12.397-19.696-34.328-32.344-58.45-32.344-38.055 0-69.015 30.96-69.015 69.015 0 20.797 9.26 39.46 23.858 52.124 3.979 5.943 13.559 20.575 22.92 37.264-11.87-3.308-25.009-2.451-37.059.559-6.741-15.448-21.618-25.974-38.76-26.954-2.752-11.704-11.78-21.005-23.712-23.96-1.52-20.341-19.097-36.219-39.965-35.107-3.977.215-7.094 3.505-7.094 7.49v368.495c0 4.142 3.357 7.5 7.5 7.5h497c4.142 0 7.5-3.358 7.5-7.5 0-19.575 0-349.187 0-368.93 0-1.939-.751-3.803-2.095-5.2-15.3-15.901-35.857-24.658-57.886-24.658zm-182.764 141.656c2.328 1.644 5.386 1.827 7.893.473 4.346-2.349 3.9-6.921 3.925-7.021-.653-17.565 17.451-30.384 34.042-23.527 3.252 1.342 6.898 1.185 10.003-.433 3.094-1.612 5.304-4.498 6.062-7.916 3.288-14.83 16.715-25.594 31.926-25.594 3.229 0 6.422.472 9.488 1.403 3.214.978 6.7.515 9.563-1.268 2.885-1.795 4.854-4.744 5.403-8.092 5.194-31.684 32.303-54.681 64.459-54.681 16.925 0 32.785 6.36 44.98 17.972v167.464h-103.197c-4.142 0-7.5 3.358-7.5 7.5s3.358 7.5 7.5 7.5h103.198v66.924c-22.315-7.538-46.538-5.637-66.856 4.528-20.127 10.071-44.161 10.071-64.288 0-24.331-12.173-53.381-12.173-77.712 0-20.127 10.071-44.16 10.071-64.288 0-14.804-7.407-31.355-10.298-47.527-8.691v-26.829c15.851-7.243 29.027-19.771 37.02-35.932h150.454c4.142 0 7.5-3.358 7.5-7.5s-3.358-7.5-7.5-7.5h-144.87c3.512-13.639 3.403-38.173 1.879-52.118 12.615-15.234 33.456-17.25 48.443-6.662zm-254.255 140.704v-66.924h28.538c1.932 3.084 5.094 5.242 8.77 5.82 2.3.361 1.572.031 26.034.168 10.981 17.94 28.419 30.167 47.841 34.801v37.184c-14.936 2.547-30.546.375-44.327-6.521-20.087-10.051-44.371-12.143-66.856-4.528zm126.183 6.769v-30.838c6.822.265 13.642-.391 20.146-1.86v24.572c-10.206 2.886-14.236 5.716-20.146 8.126zm116.549-229.809c-1.518 4.247-6.784 5.808-10.334 3.054-9.248-7.176-18.837-12.505-28.503-15.852-8.047-2.8-8.538-13.418-1.587-17.129 10.923-5.831 19.155-15.131 18.316-27.43 23.493 12.555 31.205 31.914 22.108 57.357zm-142.919-40.441c0-29.784 24.231-54.015 54.015-54.015 23.926 0 45.101 15.897 51.816 38.771.026 5.619-5.437 9.873-10.404 12.527-15.62 8.343-17.215 30.184-3.192 40.854-16.933 16.941-42.784 20.638-63.591 9.531-17.138-9.13-28.644-27.182-28.644-47.668zm55.773 102.893c-6.1-12.688-13.457-25.595-19.958-36.329 11.209 3.064 23.345 3.254 34.729.442 10.884 19.954 17.412 40.066 20.179 61.283 2.396 18.721.821 32.592.821 34.011 0 57.853-72.175 84.162-109.551 40.245h34.332c42.589 0 70.853-45.036 51.439-83.596-3.143-6.199-7.446-11.789-11.991-16.056zm-155.586-83.27c9.869 2.597 17.168 11.601 17.168 22.296-.008 5.703 4.072 10.478 9.702 11.354 8.424 1.312 14.775 8.743 14.775 17.285 0 2.051.84 4.013 2.325 5.428 2.913 2.778 5.952 1.931 9.175 1.931 11.734 0 22.127 6.686 27.104 16.864-7.379 3.232-14.273 7.505-20.091 12.178-3.229 2.594-3.745 7.314-1.152 10.544 2.537 3.159 7.258 3.793 10.544 1.156 12.961-10.401 29.084-16.392 46.587-16.392 18.192 0 33.779 11.52 39.773 27.298 10.831 27.991-10.021 57.98-39.773 57.98-8.242 0-66.647 0-74.484 0 .566-6.049-2.953-26.068 10.26-48.5 1.708-2.901 1.242-6.482-.909-8.85-3.398-3.739-9.455-3.12-12.019 1.237-14.56 24.738-12.035 47.75-12.332 50.125h-26.653zm0 352.786v-92.889c14.306-6.041 30.435-7.315 45.789-3.425 13.508 3.429 16.086 7.661 30.9 11.57 16.651 4.395 34.988 3.889 52.025-2.317 5.651-2.054 8.975-3.883 11.128-4.878 19.362-8.949 42.499-8.954 62.301.954 24.206 12.109 53.264 12.233 77.712 0 20.211-10.112 44.238-10.033 64.288 0 12.193 6.101 25.544 9.13 38.856 9.13 24.128 0 37.167-9.001 46.201-12.295 16.462-6.032 35.527-6.043 52.799 1.26v92.889h-481.999z"/></svg>