<svg id="Capa_1" enable-background="new 0 0 512 512" height="512" viewBox="0 0 512 512" width="512" xmlns="http://www.w3.org/2000/svg"><path d="m369.385 362.763-9-252.043 54.758-31.293 45.758 31.293v252.043z" fill="#736acb"/><path d="m142.616 326.462v-252.043l-45.759-31.293-45.758 31.293v252.043z" fill="#736acb"/><path d="m111.857 53.384-15-10.258-45.758 31.293v252.043h30v-252.043z" fill="#635ac5"/><path d="m350.956 110.72h30v75.558h-30z" fill="#635ac5"/><path d="m391.788 404.288v-241.162l-135.788-64.642-135.788 64.642v182.92l147.185 58.242z" fill="#817cd0"/><path d="m120.212 163.126h30v182.92h-30z" fill="#635ac5"/><path d="m477.937 102.506-49.147-50.046c-5.664-5.768-14.958-5.768-20.622 0l-57.213 58.26h123.535c4.282 0 6.447-5.159 3.447-8.214z" fill="#ff71a7"/><path d="m428.79 52.46c-5.664-5.768-14.958-5.768-20.622 0l-57.213 58.26h30l52.523-53.485z" fill="#fa3482"/><path d="m415.916 149.031-147.389-111c-7.417-5.586-17.636-5.586-25.053 0l-147.389 111c-6.009 4.525-2.808 14.094 4.714 14.094h310.403c7.522.001 10.722-9.568 4.714-14.094z" fill="#ff71a7"/><path d="m126.085 149.031 144.915-109.137-2.474-1.863c-7.417-5.586-17.636-5.586-25.053 0l-147.389 111c-6.009 4.525-2.808 14.094 4.714 14.094h30c-7.522.001-10.722-9.568-4.713-14.094z" fill="#fa3482"/><path d="m302.802 262.088h-93.604c-8.596 0-15.565 6.969-15.565 15.565v126.635h124.733v-126.636c.001-8.596-6.968-15.564-15.564-15.564z" fill="#ff71a7"/><ellipse cx="176.796" cy="225.028" fill="#ffa0ab" rx="29.225" ry="23.273"/><ellipse cx="335.204" cy="225.028" fill="#ffa0ab" rx="29.225" ry="23.273"/><path d="m158.391 64.765-41.18-44.589c-5.229-5.662-12.586-8.882-20.293-8.882h-.12c-7.707 0-15.064 3.22-20.293 8.882l-41.18 44.589c-3.402 3.684-.789 9.653 4.225 9.653h114.617c5.013.001 7.626-5.969 4.224-9.653z" fill="#ff71a7"/><path d="m65.324 64.766 41.18-44.589c1.601-1.734 3.404-3.236 5.353-4.489-4.416-2.84-9.593-4.392-14.94-4.392h-.12c-7.707 0-15.064 3.22-20.293 8.882l-41.18 44.589c-3.402 3.684-.789 9.653 4.225 9.653h30c-5.014-.001-7.627-5.971-4.225-9.654z" fill="#fa3482"/><path d="m316.099 365.814s-101.315-74.052-308.599-98.479v181.851l110.277 24.428 198.322-39.356z" fill="#36d39a"/><path d="m316.099 434.257v-68.443s-12.007-8.775-36.206-21.279c-33.939 10.139-62.084 21.791-88.847 32.875-54.123 22.416-100.866 41.775-183.546 41.775v30l110.277 24.428z" fill="#00c071"/><path d="m7.5 449.185c196.427 0 206.631-103.139 497-103.139v154.66h-497z" fill="#80dfb5"/><path d="m193.828 183.173c-4.142 0-7.5 3.358-7.5 7.5v11.947c0 4.142 3.358 7.5 7.5 7.5s7.5-3.358 7.5-7.5v-11.947c0-4.142-3.358-7.5-7.5-7.5z"/><path d="m318.172 183.173c-4.142 0-7.5 3.358-7.5 7.5v11.947c0 4.142 3.358 7.5 7.5 7.5s7.5-3.358 7.5-7.5v-11.947c0-4.142-3.358-7.5-7.5-7.5z"/><path d="m277.319 196.611c-3.123-2.722-7.86-2.396-10.582.726-5.678 6.514-15.781 6.533-21.475 0-2.721-3.124-7.459-3.448-10.582-.727s-3.448 7.459-.727 10.582c11.644 13.361 32.413 13.4 44.091 0 2.723-3.122 2.398-7.86-.725-10.581z"/><path d="m504.5 338.541c-12.533 0-24.554.193-36.099.561v-220.886h6.09c10.908 0 16.447-13.18 8.797-20.969l-49.147-50.047c-8.612-8.77-22.713-8.769-31.324 0l-46.614 47.468-83.164-62.632c-10.033-7.555-24.046-7.556-34.077 0l-88.846 66.911v-17.032h4.05c11.52 0 17.563-13.764 9.735-22.242l-41.181-44.589c-14.082-15.247-38.017-14.844-51.726 0l-41.18 44.589c-7.816 8.464-1.805 22.242 9.735 22.242h4.05v182.751c-12.577-1.932-24.39-3.508-35.222-4.784-2.125-.251-4.26.42-5.861 1.843-1.6 1.423-2.516 3.463-2.516 5.605v233.371c0 4.142 3.358 7.5 7.5 7.5h497c4.142 0 7.5-3.358 7.5-7.5v-154.66c0-4.142-3.358-7.5-7.5-7.5zm-193.633 14.81c-16.126-10.085-52.407-30.479-109.733-50.402v-25.301c0-4.447 3.618-8.065 8.065-8.065h93.604c4.447 0 8.065 3.618 8.065 8.065v75.703zm142.534-13.667c-18.731.873-36.87 2.262-54.113 4.143v-113.413c0-4.142-3.358-7.5-7.5-7.5s-7.5 3.358-7.5 7.5v115.199c-20.394 2.641-39.656 6.006-58.421 10.207v-78.171c0-12.718-10.347-23.065-23.065-23.065h-93.604c-12.718 0-23.065 10.347-23.065 23.065v20.26c-17.685-5.74-37.151-11.364-58.421-16.606v-110.68h256.575v30.419c0 4.142 3.358 7.5 7.5 7.5s7.5-3.358 7.5-7.5v-30.419h11.914c14.739 0 20.973-18.739 9.226-27.586-8.178-6.159-24.801-18.677-32.958-24.82h65.931v221.467zm-39.882-281.974c2.727-2.777 7.192-2.777 9.919 0l44.688 45.505c-12.1 0-88.709 0-99.294 0zm-165.533-13.692c4.719-3.555 11.31-3.554 16.029 0 .872.657-13.13-9.89 147.532 111.133.359 1.088 21.014.083-310.749.47-.1 0-.094.003-.194-.02-.094-.065-.186-.342-.152-.446.079-.101-6.916 5.167 147.534-111.137zm-165.972-18.757c8.037-8.702 21.79-8.551 29.687 0l38.47 41.654c-23.646 0-82.964 0-106.626 0zm53.101 56.654v28.329c-46.078 34.723-43.633 32.808-44.509 33.58-10.465 9.223-4.035 26.799 10.192 26.799h11.914v107.124c-17.624-4.021-35.765-7.606-54.113-10.693v-185.139zm361.885 411.286h-482v-36.57c38.062-.473 74.686-5.068 111.726-15.627 5.496-1.567 7.248-8.44 3.304-12.46-1.862-1.901-4.68-2.748-7.419-1.968-32.038 9.132-66.918 14.54-107.611 15.051v-165.826c93.169 11.756 202.689 39.842 282.549 87.093-58.03 16.044-98.978 37.198-143.463 53.407-3.892 1.418-5.897 5.723-4.479 9.615 1.417 3.89 5.723 5.898 9.615 4.48 81.986-29.872 149.944-75.638 337.779-76.83v139.635z"/></svg>