<svg id="Capa_1" enable-background="new 0 0 512 512" height="512" viewBox="0 0 512 512" width="512" xmlns="http://www.w3.org/2000/svg"><path d="m312.188 187.967c-27.535-146.887-155.918-170.048-155.918-170.048l-17.5 22.7v192.785l17.5 34.769c48.987-42.511 112.009-56.241 141.73-60.52 9.459-1.362 15.949-10.293 14.188-19.686z" fill="#e8e8e8"/><path d="m121.27 17.919s-69.64 82.647-104.192 216.944c-2.352 9.141 4.542 18.054 13.981 18.054h90.211l17.5-19.513v-192.785z" fill="#e8e8e8"/><path d="m47.079 234.863c24.623-95.705 67.059-165.167 89.418-197.193l-15.227-19.751s-69.64 82.647-104.192 216.944c-2.352 9.141 4.542 18.054 13.981 18.054h30c-9.438 0-16.332-8.913-13.98-18.054z" fill="#c7c5cb"/><path d="m156.27 291.57h-35v-273.651c0-5.538 4.49-10.028 10.028-10.028h14.944c5.538 0 10.028 4.49 10.028 10.028z" fill="#fab659"/><path d="m156.27 237.614-35 6.789v47.167h35z" fill="#f59e18"/><path d="m349.911 246.307c-.125-8.162-7.638-14.213-15.652-12.659l-308.023 59.748c-7.601 1.474-13.142 8.002-13.438 15.739-.477 12.487 1.105 32.148 12.025 52.315v32.876h286.607l1.243-33.676c0 .001 38.44-35.722 37.238-114.343z" fill="#ff71a7"/><path d="m62.462 394.327v-30.517c-13.527-24.982-15.487-49.336-14.896-64.804.145-3.797 1.323-7.35 3.262-10.38l-24.593 4.77c-7.601 1.474-13.142 8.002-13.438 15.739-.477 12.487 1.105 32.148 12.025 52.316v32.876z" fill="#fa3482"/><path d="m504.5 435.918v-68.192c-22.346-11.181-48.654-11.181-71 0-22.346 11.181-48.654 11.181-71 0-22.346-11.181-48.654-11.181-71 0-22.346 11.181-48.654 11.181-71 0-22.346-11.181-48.654-11.181-71 0-22.346 11.181-48.654 11.181-71 0-22.346-11.181-48.654-11.181-71 0v68.192l44.591 29.903h398.446z" fill="#a4e6ff"/><circle cx="408.296" cy="105.733" fill="#f8e86a" r="48.089"/><path d="m428.296 133.823c-26.559 0-48.089-21.531-48.089-48.089 0-8.131 2.026-15.786 5.588-22.501-15.218 8.074-25.588 24.073-25.588 42.501 0 26.559 21.53 48.089 48.089 48.089 18.428 0 34.427-10.37 42.501-25.588-6.715 3.562-14.37 5.588-22.501 5.588z" fill="#fab659"/><path d="m7.5 435.918c22.346-11.181 48.654-11.181 71 0 22.346 11.181 48.654 11.181 71 0 22.346-11.181 48.654-11.181 71 0 22.346 11.181 48.654 11.181 71 0 22.346-11.181 48.654-11.181 71 0 22.346 11.181 48.654 11.181 71 0 22.346-11.181 48.654-11.181 71 0v68.192h-497z" fill="#5bd6fd"/><path d="m104.143 333.168c4.142 0 7.5-3.358 7.5-7.5v-14.247c0-4.142-3.358-7.5-7.5-7.5s-7.5 3.358-7.5 7.5v14.247c0 4.142 3.357 7.5 7.5 7.5z"/><path d="m252.42 333.168c4.142 0 7.5-3.358 7.5-7.5v-14.247c0-4.142-3.358-7.5-7.5-7.5s-7.5 3.358-7.5 7.5v14.247c0 4.142 3.358 7.5 7.5 7.5z"/><path d="m203.482 330.171c2.721-3.123 2.396-7.86-.727-10.582-3.123-2.721-7.86-2.396-10.582.727-7.343 8.427-20.419 8.451-27.784 0-2.721-3.124-7.459-3.448-10.582-.727s-3.448 7.459-.727 10.582c13.338 15.303 37.079 15.287 50.402 0z"/><path d="m463.885 105.733c0-30.652-24.938-55.589-55.589-55.589s-55.589 24.938-55.589 55.589 24.938 55.589 55.589 55.589 55.589-24.937 55.589-55.589zm-55.59 40.589c-22.381 0-40.589-18.208-40.589-40.589s18.208-40.589 40.589-40.589 40.589 18.208 40.589 40.589-18.208 40.589-40.589 40.589z"/><path d="m415.795 37.327v-11.423c0-4.142-3.358-7.5-7.5-7.5s-7.5 3.358-7.5 7.5v11.423c0 4.142 3.358 7.5 7.5 7.5s7.5-3.358 7.5-7.5z"/><path d="m461.969 62.666 8.077-8.077c2.929-2.929 2.929-7.678 0-10.606-2.929-2.929-7.678-2.929-10.606 0l-8.077 8.077c-4.739 4.738-1.318 12.803 5.303 12.803 1.919-.001 3.839-.733 5.303-2.197z"/><path d="m488.125 113.233c4.142 0 7.5-3.358 7.5-7.5s-3.358-7.5-7.5-7.5h-11.422c-4.142 0-7.5 3.358-7.5 7.5s3.358 7.5 7.5 7.5z"/><path d="m459.44 167.484c1.464 1.465 3.384 2.197 5.303 2.197 6.62 0 10.044-8.063 5.303-12.803l-8.077-8.077c-2.929-2.93-7.678-2.929-10.606 0-2.929 2.929-2.929 7.678 0 10.606z"/><path d="m400.795 174.14v11.423c0 4.142 3.358 7.5 7.5 7.5s7.5-3.358 7.5-7.5v-11.423c0-4.142-3.358-7.5-7.5-7.5s-7.5 3.358-7.5 7.5z"/><path d="m357.151 167.484 8.077-8.077c2.929-2.929 2.929-7.677 0-10.606-2.928-2.929-7.677-2.929-10.606 0l-8.077 8.077c-2.929 2.929-2.929 7.677 0 10.606 2.927 2.929 7.677 2.929 10.606 0z"/><path d="m328.466 98.233c-4.142 0-7.5 3.358-7.5 7.5s3.358 7.5 7.5 7.5h11.423c4.142 0 7.5-3.358 7.5-7.5s-3.358-7.5-7.5-7.5z"/><path d="m354.622 62.666c1.464 1.464 3.384 2.197 5.303 2.197 6.622 0 10.042-8.066 5.303-12.803l-8.077-8.077c-2.929-2.929-7.678-2.929-10.606 0-2.929 2.929-2.929 7.678 0 10.606z"/><path d="m7.5 511.609h497c4.142 0 7.5-3.358 7.5-7.5 0-13.768 0-122.774 0-136.383 0-2.84-1.604-5.437-4.144-6.708-24.33-12.173-53.382-12.173-77.712 0-20.128 10.071-44.16 10.071-64.288 0-11.446-5.727-23.936-8.757-36.488-9.096 12.002-17.669 28.861-52.155 28.042-105.73-.195-12.81-11.962-22.351-24.579-19.907l-145.45 28.213c41.094-25.841 85.908-35.711 111.689-39.423 13.432-1.934 23.083-14.662 20.49-28.491-10.932-58.319-38.344-104.657-81.474-137.726-3.287-2.52-7.995-1.898-10.515 1.389-2.521 3.287-1.899 7.995 1.388 10.516 40.106 30.75 65.628 74.012 75.858 128.585.465 2.48-.092 4.982-1.569 7.046-1.505 2.103-3.748 3.465-6.315 3.834-30.349 4.37-85.837 16.888-133.162 52.278v-224.986c9.052 2.618 24.172 7.876 41.203 17.444 3.609 2.027 8.183.746 10.212-2.866 2.028-3.611.746-8.184-2.866-10.212-22.1-12.415-41.07-18.075-49.727-20.231-2.529-6.576-8.895-11.263-16.351-11.263h-14.944c-8.632 0-15.81 6.278-17.249 14.505-8.681 10.758-52.188 67.237-85.39 157.645-1.428 3.888.566 8.198 4.455 9.625 3.888 1.429 8.198-.566 9.625-4.455 23.986-65.313 54.066-113.156 71.03-137.29v204.995h-82.709c-4.534 0-7.85-4.284-6.717-8.686 2.664-10.355 5.669-20.864 8.931-31.234 1.243-3.951-.953-8.162-4.904-9.405s-8.162.953-9.405 4.904c-3.341 10.622-6.42 21.388-9.15 31.998-3.575 13.896 6.909 27.423 21.245 27.423h82.711v8.361l-88.962 17.256c-11.053 2.144-19.073 11.525-19.504 22.815-.458 11.994.863 29.42 8.907 47.921-3.425 1.198-6.79 2.609-10.067 4.249-2.541 1.271-4.145 3.867-4.145 6.707v136.383c0 4.142 3.358 7.5 7.5 7.5zm7.5-15v-55.888c19.798-8.323 41.899-7.224 60.144 1.905 24.557 12.287 53.628 12.05 77.712 0 12.369-6.189 26.486-8.678 40.409-7.081 20.738 2.381 24.134 9.996 44.69 14.327 19.374 4.081 39.524 1.449 56.9-7.245 13.896-6.953 29.938-9.231 45.524-6.301 17.147 3.222 19.808 8.964 37.75 13.148 20.14 4.697 41.02 2.011 58.726-6.847 19.29-9.651 41.635-9.773 60.144-1.905v55.889h-481.999zm421.856-122.175c18.765-9.389 40.92-10.025 60.144-1.909v52.157c-21.484-7.287-45.815-5.996-66.856 4.529-17.416 8.714-38.025 9.972-56.572 3.305-5.425-1.95-7.243-3.21-11.674-5.152-23.531-10.307-50.755-9.659-73.754 1.847-17.416 8.714-38.025 9.972-56.572 3.305-5.425-1.95-7.243-3.21-11.674-5.152-23.571-10.325-50.808-9.632-73.754 1.847-19.986 10-44.056 10.124-64.288 0-21.003-10.511-45.315-11.822-66.856-4.529v-52.157c19.299-8.148 41.465-7.439 60.144 1.909 24.33 12.173 53.382 12.173 77.712 0 20.128-10.071 44.16-10.071 64.288 0 23.342 11.679 50.625 11.986 73.779 1.836 4.512-1.978 6.369-3.271 12.141-5.31 18.235-6.414 38.625-5.26 56.08 3.474 24.331 12.172 53.382 12.172 77.712 0zm-305.558-359.043h14.944c1.394 0 2.528 1.134 2.528 2.528v244.069l-20 3.879v-12.951-234.997c.001-1.394 1.134-2.528 2.528-2.528zm-111.005 294.03c.164-4.29 3.195-7.852 7.371-8.662l308.023-59.748c3.446-.671 6.671 1.925 6.725 5.41 1.004 65.631-26.972 100.179-33.499 107.33-18.455 3.927-19.586 8.501-34.456 12.431-12.726 3.359-26.232 3.182-38.918-.561-12.141-3.586-14.164-7.272-29.035-11.044-20.503-5.202-42.021-2.734-60.359 6.441-15.08 7.546-33.133 9.774-50.6 5.164-12.062-3.188-14.666-6.765-27.481-10.625-12.458-3.737-25.809-4.747-39.109-2.572-7.816-16.755-9.077-32.722-8.662-43.564z"/></svg>