<svg id="Capa_1" enable-background="new 0 0 512 512" height="512" viewBox="0 0 512 512" width="512" xmlns="http://www.w3.org/2000/svg"><path d="m398.27 7.608h-76.126c-11.322 0-20.5 9.178-20.5 20.5v165.266h117.126v-165.266c0-11.322-9.178-20.5-20.5-20.5z" fill="#f8e86a"/><path d="m352.144 7.608h-30c-11.322 0-20.5 9.178-20.5 20.5v165.266h30v-165.266c0-11.322 9.178-20.5 20.5-20.5z" fill="#fab659"/><path d="m215.704 13.844-82.915 28.519c-8.55 2.941-14.29 10.985-14.29 20.027v106.756l109.747 24.229v-170.582c0-6.498-6.398-11.063-12.542-8.949z" fill="#ff71a7"/><path d="m148.498 169.145v-132.186l-15.71 5.404c-8.55 2.941-14.29 10.985-14.29 20.027v106.756l109.747 24.229v-6.623z" fill="#fa3482"/><path d="m72.317 38.251h-25.639c-4.512 0-8.169 3.658-8.169 8.17v65.774h41.978v-65.774c-.001-4.512-3.658-8.17-8.17-8.17z" fill="#817cd0"/><path d="m66.678 38.251h-20c-4.512 0-8.169 3.658-8.169 8.17v65.773h20v-65.773c-.001-4.512 3.657-8.17 8.169-8.17z" fill="#635ac5"/><path d="m117.889 169.145h276.222v297.524h-276.222z" fill="#5bd6fd"/><path d="m24.622 115.957h137.216v350.712h-137.216z" fill="#817cd0"/><path d="m24.622 115.957h30v350.712h-30z" fill="#635ac5"/><path d="m164.14 91.316h-141.82c-8.185 0-14.82 6.635-14.82 14.82v19.641c0 8.185 6.635 14.82 14.82 14.82h141.82c8.185 0 14.82-6.635 14.82-14.82v-19.641c0-8.184-6.635-14.82-14.82-14.82z" fill="#f8e86a"/><path d="m37.5 125.777v-19.641c0-8.185 6.635-14.82 14.82-14.82h-30c-8.185 0-14.82 6.635-14.82 14.82v19.641c0 8.185 6.635 14.821 14.82 14.821h30c-8.185 0-14.82-6.636-14.82-14.821z" fill="#fab659"/><path d="m350.162 84.957h137.216v381.712h-137.216z" fill="#ff71a7" transform="matrix(-1 0 0 -1 837.54 551.626)"/><path d="m350.162 84.957h30v381.712h-30z" fill="#fa3482"/><path d="m347.86 60.316h141.82c8.185 0 14.82 6.635 14.82 14.82v19.641c0 8.185-6.635 14.82-14.82 14.82h-141.82c-8.185 0-14.82-6.635-14.82-14.82v-19.64c0-8.185 6.635-14.821 14.82-14.821z" fill="#5bd6fd"/><path d="m363.04 94.777v-19.64c0-8.185 6.635-14.82 14.82-14.82h-30c-8.185 0-14.82 6.635-14.82 14.82v19.641c0 8.185 6.635 14.821 14.82 14.821h30c-8.185-.001-14.82-6.637-14.82-14.822z" fill="#00b4fb"/><path d="m109.191 196.435h-31.922c-5.141 0-9.308 4.167-9.308 9.308v43.437c0 5.14 4.167 9.308 9.308 9.308h31.921c5.141 0 9.308-4.167 9.308-9.308v-43.437c0-5.141-4.167-9.308-9.307-9.308z" fill="#5bd6fd"/><g fill="#f8e86a"><path d="m109.191 306.633h-31.922c-5.141 0-9.308 4.167-9.308 9.308v43.437c0 5.14 4.167 9.308 9.308 9.308h31.921c5.141 0 9.308-4.167 9.308-9.308v-43.437c0-5.141-4.167-9.308-9.307-9.308z"/><path d="m418.77 148.598c-13.619 0-24.659 11.04-24.659 24.659v36.291c0 4.81 3.9 8.71 8.71 8.71h31.897c4.81 0 8.71-3.9 8.71-8.71v-36.291c.001-13.619-11.039-24.659-24.658-24.659z"/><path d="m418.77 277.803c-13.619 0-24.659 11.04-24.659 24.659v36.291c0 4.81 3.9 8.71 8.71 8.71h31.897c4.81 0 8.71-3.9 8.71-8.71v-36.291c.001-13.619-11.039-24.659-24.658-24.659z"/></g><path d="m269.969 320.308h-27.938c-10.245 0-18.55 8.305-18.55 18.55v127.811h65.037v-127.811c.001-10.245-8.304-18.55-18.549-18.55z" fill="#817cd0"/><path d="m487.378 423.945h-462.756c-9.456 0-17.122 7.666-17.122 17.122v46.204c0 9.456 7.666 17.122 17.122 17.122h462.756c9.456 0 17.122-7.666 17.122-17.122v-46.204c0-9.456-7.666-17.122-17.122-17.122z" fill="#f8e86a"/><path d="m37.5 487.27v-46.204c0-9.456 7.666-17.122 17.122-17.122h-30c-9.456 0-17.122 7.666-17.122 17.122v46.204c0 9.456 7.666 17.122 17.122 17.122h30c-9.456 0-17.122-7.665-17.122-17.122z" fill="#fab659"/><path d="m161.838 169.145h30.188v254.8h-30.188z" fill="#00b4fb"/><path d="m109.19 188.935h-31.921c-9.268 0-16.808 7.54-16.808 16.808v43.437c0 9.268 7.54 16.808 16.808 16.808h31.921c9.268 0 16.808-7.54 16.808-16.808v-43.437c0-9.268-7.54-16.808-16.808-16.808zm1.808 60.245c0 .997-.811 1.808-1.808 1.808h-31.921c-.997 0-1.808-.811-1.808-1.808v-43.437c0-.997.811-1.808 1.808-1.808h31.921c.997 0 1.808.811 1.808 1.808z"/><path d="m109.19 299.133h-31.921c-9.268 0-16.808 7.54-16.808 16.808v43.437c0 9.268 7.54 16.808 16.808 16.808h31.921c9.268 0 16.808-7.54 16.808-16.808v-43.437c0-9.268-7.54-16.808-16.808-16.808zm1.808 60.244c0 .997-.811 1.808-1.808 1.808h-31.921c-.997 0-1.808-.811-1.808-1.808v-43.437c0-.997.811-1.808 1.808-1.808h31.921c.997 0 1.808.811 1.808 1.808z"/><path d="m402.821 225.757h31.897c8.938 0 16.21-7.272 16.21-16.21v-36.291c0-17.732-14.426-32.159-32.159-32.159-17.732 0-32.159 14.426-32.159 32.159v36.291c.001 8.938 7.273 16.21 16.211 16.21zm-1.21-52.501c0-9.461 7.698-17.159 17.159-17.159s17.159 7.697 17.159 17.159v36.291c0 .667-.543 1.21-1.21 1.21h-31.897c-.667 0-1.21-.543-1.21-1.21v-36.291z"/><path d="m402.821 354.963h31.897c8.938 0 16.21-7.272 16.21-16.21v-36.291c0-17.732-14.426-32.159-32.159-32.159-17.732 0-32.159 14.426-32.159 32.159v36.291c.001 8.938 7.273 16.21 16.211 16.21zm-1.21-52.501c0-9.461 7.698-17.159 17.159-17.159s17.159 7.697 17.159 17.159v36.291c0 .667-.543 1.21-1.21 1.21h-31.897c-.667 0-1.21-.543-1.21-1.21v-36.291z"/><path d="m202.667 259.184c4.142 0 7.5-3.358 7.5-7.5v-10.249c0-4.142-3.358-7.5-7.5-7.5s-7.5 3.358-7.5 7.5v10.249c0 4.142 3.358 7.5 7.5 7.5z"/><path d="m309.333 259.184c4.142 0 7.5-3.358 7.5-7.5v-10.249c0-4.142-3.358-7.5-7.5-7.5s-7.5 3.358-7.5 7.5v10.249c0 4.142 3.357 7.5 7.5 7.5z"/><path d="m275.715 256.306c2.721-3.123 2.396-7.86-.727-10.582-3.122-2.721-7.86-2.396-10.582.727-4.445 5.101-12.354 5.115-16.813 0-2.721-3.123-7.46-3.448-10.582-.726-3.123 2.721-3.448 7.459-.726 10.582 10.433 11.97 29.009 11.958 39.43-.001z"/><path d="m512 94.777v-19.64c0-12.308-10.013-22.32-22.32-22.32h-63.41v-24.709c0-15.439-12.561-28-28-28h-76.125c-15.439 0-28 12.561-28 28v133.537h-58.398v-65.393c0-4.142-3.358-7.5-7.5-7.5s-7.5 3.358-7.5 7.5v65.393h-51.408v-14.158c10.167-2.468 17.122-11.534 17.122-21.709v-19.641c0-12.308-10.013-22.32-22.32-22.32h-38.141v-21.428c0-5.838 3.709-11.036 9.229-12.935l82.916-28.519c.791-.271 1.404-.01 1.779.258s.823.763.823 1.599v43.572c0 4.142 3.358 7.5 7.5 7.5s7.5-3.358 7.5-7.5v-43.571c0-5.47-2.658-10.632-7.11-13.809-4.453-3.177-10.198-4.012-15.371-2.233l-82.917 28.519c-11.574 3.981-19.351 14.879-19.351 27.119v21.427h-23.012v-37.395c0-8.641-7.029-15.67-15.669-15.67h-25.639c-8.64 0-15.669 7.029-15.669 15.67v37.396h-8.689c-12.307-.001-22.32 10.012-22.32 22.32v19.641c0 10.518 7.314 19.354 17.122 21.703v270.136c-9.92 3.18-17.122 12.488-17.122 23.45v46.204c0 13.577 11.045 24.622 24.622 24.622h462.756c13.577 0 24.622-11.045 24.622-24.622v-46.204c0-10.962-7.202-20.27-17.122-23.45v-301.137c9.808-2.349 17.122-11.185 17.122-21.703zm-15-19.64v19.641c0 4.037-3.284 7.32-7.32 7.32-5.114 0-124.205 0-141.819 0-4.037 0-7.32-3.284-7.32-7.32v-19.641c0-4.037 3.284-7.32 7.32-7.32h141.819c4.036-.001 7.32 3.283 7.32 7.32zm-187.856-47.029c0-7.168 5.832-13 13-13h76.125c7.168 0 13 5.832 13 13v24.708h-63.41c-12.308 0-22.32 10.013-22.32 22.32v19.641c0 10.435 7.229 19.323 17.123 21.709v45.158h-33.519v-133.536zm33.518 148.537v142.042c0 4.142 3.358 7.5 7.5 7.5s7.5-3.358 7.5-7.5c0-45.652 0-181.907 0-201.589h122.216v299.347h-122.216v-67.822c0-4.142-3.358-7.5-7.5-7.5s-7.5 3.358-7.5 7.5v67.822h-46.644v-77.587c0-14.364-11.686-26.05-26.05-26.05h-27.938c-14.364 0-26.05 11.686-26.05 26.05v77.587h-46.644v-239.8zm-61.643 239.8h-50.037v-77.587c0-6.093 4.957-11.05 11.05-11.05h27.938c6.093 0 11.05 4.957 11.05 11.05v77.587zm-248.897 0v-268.347h122.216v268.347zm13.886-370.024c0-.37.3-.67.669-.67h25.639c.369 0 .669.3.669.67v37.396h-26.977zm-31.008 59.716c0-4.037 3.284-7.32 7.32-7.32h141.819c4.037 0 7.32 3.284 7.32 7.32v19.641c0 4.037-3.284 7.32-7.32 7.32h-2.302c-14.575 0-125.212 0-139.518 0-4.037 0-7.32-3.284-7.32-7.32v-19.641zm482 381.133c0 5.306-4.316 9.622-9.622 9.622h-462.756c-5.305 0-9.622-4.316-9.622-9.622v-46.204c0-5.306 4.316-9.622 9.622-9.622h462.756c5.306 0 9.622 4.316 9.622 9.622z"/></svg>