<svg id="Capa_1" enable-background="new 0 0 512 512" height="512" viewBox="0 0 512 512" width="512" xmlns="http://www.w3.org/2000/svg"><path d="m465.248 469.974c17.154 0 30.986-14.224 30.345-31.521-.547-14.755-11.934-27.143-26.585-28.976-1.182-.148-2.351-.224-3.505-.234-3.26-.028-5.7-2.942-5.323-6.18.225-1.934.221-3.939-.042-5.987-1.361-10.594-9.74-19.161-20.304-20.745-.067-.01-.134-.02-.201-.029-3.716-.527-7.089-2.457-9.249-5.527-8.758-12.451-23.23-20.59-39.61-20.59-21.484 0-39.688 13.999-46.017 33.37-.704-.034-1.411-.054-2.124-.054-24.125 0-43.635 19.759-43.231 43.976.396 23.707 20.232 42.498 43.942 42.498h121.904z" fill="#e8e8e8"/><path d="m343.345 469.974h14.317c1.313-22.702 7.151-44.948 17.219-65.412 3.218-6.541 4.97-13.928 4.824-21.73-.196-10.512-3.885-20.134-9.929-27.86-11.78 5.684-20.908 15.997-25.02 28.582-.704-.034-1.411-.054-2.124-.054-24.125 0-43.635 19.759-43.231 43.976.398 23.708 20.234 42.498 43.944 42.498z" fill="#c7c5cb"/><path d="m194.336 289.071h35.945v94.662h-35.945z" fill="#5c586f"/><path d="m296.431 289.071h35.945v94.662h-35.945z" fill="#5c586f" transform="matrix(-1 0 0 -1 628.807 672.804)"/><path d="m141.091 187.622c0-14.26-11.56-25.82-25.82-25.82-13.71 0-24.919 10.688-25.763 24.185-2.777-1.021-5.777-1.579-8.908-1.579-13.221 0-24.115 9.94-25.632 22.753-1.466-.192-2.959-.302-4.477-.302-18.835 0-34.104 15.269-34.104 34.104s15.269 34.104 34.104 34.104h115.341z" fill="#e8e8e8"/><path d="m288.282 315.32h-49.852l-46.906-50.26-23.598-94.24 23.598-104.013 71.832-59.307 71.832 50.232 27.501 103.678-14.66 92.973z" fill="#e8e8e8"/><path d="m128.844 275.068h36.988l-24.741-87.446c0-14.26-11.56-25.82-25.82-25.82-8.218 0-15.535 3.843-20.262 9.827 2.035 34.303 14.321 70.869 33.835 103.439z" fill="#c7c5cb"/><path d="m238.43 315.32h-44.09c-41.543-35.881-74.648-97.776-74.648-153.69 0-85.124 64.322-154.13 143.664-154.13 0 0-112.876 127.206-24.926 307.82z" fill="#ff71a7"/><path d="m149.692 161.63c0-72.772 47.013-133.755 110.228-149.923 2.163-2.771 3.436-4.206 3.436-4.206-79.342 0-143.664 69.006-143.664 154.13 0 55.914 33.105 117.809 74.648 153.69h30c-41.543-35.882-74.648-97.778-74.648-153.691z" fill="#fa3482"/><path d="m407.02 161.63c0 55.914-33.105 117.809-74.648 153.69h-44.09c87.95-180.614-24.926-307.82-24.926-307.82 79.341 0 143.664 69.006 143.664 154.13z" fill="#ff71a7"/><path d="m194.336 383.733v96.101c0 13.623 11.043 24.666 24.666 24.666h88.709c13.623 0 24.666-11.043 24.666-24.666v-96.101z" fill="#e27858"/><path d="m224.336 479.834v-96.101h-30v96.101c0 13.623 11.043 24.666 24.666 24.666h30c-13.623 0-24.666-11.043-24.666-24.666z" fill="#ca5935"/><path d="m332.376 361.395h-138.04c-12.337 0-22.338 10.001-22.338 22.338 0 12.337 10.001 22.338 22.338 22.338h138.04c12.337 0 22.338-10.001 22.338-22.338 0-12.337-10.001-22.338-22.338-22.338z" fill="#ed9b83"/><path d="m201.997 383.733c0-12.337 10.001-22.338 22.338-22.338h-30c-12.337 0-22.338 10.001-22.338 22.338 0 12.337 10.001 22.338 22.338 22.338h30c-12.337.001-22.338-10.001-22.338-22.338z" fill="#e27858"/><path d="m194.34 315.32h35.94v25.886h-35.94z" fill="#423e4f"/><path d="m296.434 315.32h35.94v25.886h-35.94z" fill="#423e4f"/><path d="m166.068 181.392c0 4.142 3.358 7.5 7.5 7.5s7.5-3.358 7.5-7.5v-17.251c0-4.142-3.358-7.5-7.5-7.5s-7.5 3.358-7.5 7.5z"/><path d="m353.125 188.892c4.142 0 7.5-3.358 7.5-7.5v-17.251c0-4.142-3.358-7.5-7.5-7.5s-7.5 3.358-7.5 7.5v17.251c0 4.142 3.358 7.5 7.5 7.5z"/><path d="m286.164 176.541c-3.122-2.721-7.86-2.396-10.582.727-6.482 7.438-17.998 7.43-24.473 0-2.722-3.124-7.459-3.448-10.582-.727-3.123 2.722-3.448 7.459-.727 10.582 12.46 14.298 34.642 14.284 47.09 0 2.723-3.123 2.397-7.861-.726-10.582z"/><path d="m154.776 282.568c9.677 13.518 20.546 25.798 32.05 36.115v36.168c-12.835 3.335-22.339 15.019-22.339 28.883s9.504 25.548 22.339 28.883v67.218c0 17.736 14.429 32.166 32.166 32.166h88.709c17.736 0 32.166-14.429 32.166-32.166v-2.483c3.496.235-3.333.076 125.372.123 10.38 0 20.065-4.118 27.27-11.594 22.549-23.401 6.764-61.902-24.714-64.052.814-16.55-11.132-30.558-26.833-32.912l-.284-.042c-1.768-.25-3.248-1.109-4.167-2.416-10.472-14.887-27.572-23.775-45.744-23.775-15.374 0-29.909 6.348-40.375 17.289-3.094-2.353-6.656-4.118-10.524-5.123v-36.168c20.404-18.297 38.83-42.779 52.107-69.342 14.744-29.498 22.537-59.828 22.537-87.711-.002-89.122-67.813-161.629-151.166-161.629-30.4 0-59.714 9.608-84.772 27.786-3.353 2.432-4.099 7.122-1.667 10.475s7.122 4.099 10.475 1.667c18.063-13.103 38.569-21.243 60.049-23.936-55.973 80.413-67.831 187.075-20.799 291.828h-29.478c-40.457-36.053-69.972-95.522-69.972-146.19 0-38.622 13.839-75.083 38.969-102.667 2.79-3.062 2.568-7.806-.494-10.595-3.061-2.789-7.805-2.569-10.595.494-26.082 28.629-41.104 65.885-42.727 105.577-13.327 1.171-24.528 10.244-28.672 22.61-15.444-1.408-29.644 7.945-34.583 22.334-22.294.742-40.205 19.109-40.205 41.581 0 22.941 18.664 41.604 41.604 41.604zm170.091 197.266c0 9.465-7.7 17.166-17.166 17.166h-88.709c-9.465 0-17.166-7.7-17.166-17.166v-66.263h123.04c.001 7.778.001 58.424.001 66.263zm99.373-104.744c5.577 7.926 14.572 8.693 14.472 8.658 8.618 1.292 15.077 9.258 14.008 18.448-.896 7.69 5.022 14.482 12.709 14.547 19.918.178 30.2 24.282 16.277 38.729-4.351 4.516-10.2 7.002-16.468 7.002-128.581-.057-122.147.142-125.372-.164v-49.693c13.075-3.357 22.338-15.304 22.338-28.884 0-4.105-.832-8.111-2.434-11.818 17.484-20.304 49.198-18.536 64.47 3.175zm-77.104 7.278c.807 8.806-6.152 16.204-14.769 16.204-13.218 0-124.809 0-138.041 0-8.182 0-14.838-6.656-14.838-14.838s6.656-14.838 14.838-14.838h138.041c7.64-.001 14.066 5.84 14.769 13.472zm-58.214-59.548v31.075h-51.151v-31.075zm35.945 31.075h-20.944v-31.075h20.944zm74.643-192.266c0 49.68-28.664 109.379-69.971 146.19h-29.479c4.971-11.081 9.647-22.989 13.517-34.759 1.993-6.061-4.013-11.607-9.849-9.33-2.013.786-3.673 2.431-4.401 4.644-4.433 13.482-9.897 26.961-15.788 39.444h-40.371c-50.066-106.225-35.864-212.412 20.18-288.211 12.063 16.292 22.92 36.228 30.844 55.718 35.401 87.058 12.881 161.835 12.782 166.384-.076 3.487 2.303 6.665 5.838 7.468 4.041.917 8.057-1.612 8.976-5.651 19.081-83.948-.26-166.655-42.536-227.533 67.615 8.511 120.258 70.578 120.258 145.636zm-176.739 161.191v31.075h-20.944v-31.075zm-198.894-81.857c0-14.669 11.935-26.604 26.604-26.604 3.38 0 5.948 1.162 9.082-1.278 1.583-1.231 2.607-3.046 2.843-5.038 1.394-11.767 13.466-19.076 24.504-15.018 4.704 1.729 9.759-1.564 10.073-6.571.541-8.649 7.088-15.613 15.417-16.929 1.81 34.383 14.76 69.107 32.416 98.042h-94.335c-14.67.001-26.604-11.934-26.604-26.604z"/></svg>