<svg id="Capa_1" enable-background="new 0 0 511.981 511.981" height="512" viewBox="0 0 511.981 511.981" width="512" xmlns="http://www.w3.org/2000/svg"><path d="m453.311 222.059-8.351-11.149c-10.938-14.603-14.661-33.379-10.124-51.051l3.463-13.485c.712-2.774-.494-5.685-2.96-7.142l-11.966-7.07c-15.722-9.289-26.377-25.213-28.964-43.29l-1.97-13.765c-.405-2.83-2.629-5.054-5.459-5.459l-13.766-1.97c-18.077-2.587-34.001-13.242-43.289-28.964l-7.07-11.966c-1.457-2.466-4.368-3.672-7.142-2.96l-13.486 3.463c-17.672 4.538-36.447.814-51.05-10.124l-11.15-8.352c-2.287-1.713-5.43-1.713-7.717 0l-11.149 8.351c-14.603 10.938-33.379 14.661-51.051 10.124l-13.485-3.463c-2.774-.712-5.685.494-7.142 2.96l-7.069 11.966c-9.289 15.722-25.213 26.377-43.29 28.964l-13.765 1.97c-2.83.405-5.054 2.629-5.459 5.459l-1.97 13.766c-2.587 18.076-13.242 34.001-28.964 43.289l-11.966 7.07c-2.466 1.457-3.672 4.368-2.96 7.142l3.463 13.486c4.538 17.672.814 36.447-10.124 51.05l-8.352 11.15c-1.713 2.287-1.713 5.43 0 7.717l8.351 11.149c10.938 14.603 14.661 33.379 10.124 51.051l-3.462 13.484c-.712 2.774.494 5.685 2.96 7.142l11.966 7.07c15.722 9.289 26.376 25.213 28.964 43.29l1.97 13.765c.405 2.83 2.629 5.054 5.459 5.459l13.766 1.97c18.077 2.587 34.001 13.242 43.289 28.964l7.07 11.966c1.457 2.466 4.368 3.672 7.142 2.96l13.486-3.463c17.672-4.538 36.447-.814 51.05 10.124l11.15 8.352c2.287 1.713 5.43 1.713 7.717 0l11.149-8.351c14.603-10.938 33.379-14.661 51.051-10.124l13.485 3.463c2.774.712 5.685-.494 7.142-2.96l7.07-11.966c9.289-15.722 25.213-26.377 43.29-28.964l13.765-1.97c2.83-.405 5.054-2.629 5.459-5.459l1.97-13.766c2.587-18.077 13.242-34.001 28.964-43.289l11.966-7.07c2.466-1.457 3.672-4.368 2.96-7.142l-3.463-13.486c-4.538-17.672-.814-36.447 10.124-51.05l8.352-11.15c1.711-2.287 1.711-5.429-.002-7.716z" fill="#ff71a7"/><circle cx="236.169" cy="225.917" fill="#f8e86a" r="160.421"/><path d="m276.169 366.337c-88.598 0-160.421-71.823-160.421-160.421 0-54.828 27.513-103.224 69.479-132.157-63.624 21.293-109.478 81.368-109.478 152.158 0 88.598 71.823 160.421 160.421 160.421 33.769 0 65.095-10.443 90.942-28.263-16.006 5.355-33.134 8.262-50.943 8.262z" fill="#fab659"/><ellipse cx="156.396" cy="176.849" fill="#ffa0ab" rx="29.435" ry="23.44"/><ellipse cx="315.943" cy="176.849" fill="#ffa0ab" rx="29.435" ry="23.44"/><path d="m456.443 377.632c-4.496-2.166-6.919-7.166-5.663-11.995.984-3.78 1.507-7.746 1.507-11.835 0-25.885-20.984-46.869-46.869-46.869-.868 0-1.73.028-2.587.074-10.62-47.162-52.757-82.392-103.127-82.392-53.595 0-97.867 39.885-104.77 91.592-.879 6.588-6.585 11.379-13.227 11.144-.873-.031-1.75-.047-2.631-.047-40.519 0-73.367 32.847-73.367 73.367v.117c.009 5.551-4.436 10.005-9.986 9.966-.109-.001-.219-.001-.328-.001-26.151 0-47.3 21.418-46.862 47.67.429 25.698 21.932 46.068 47.634 46.068h330.353c36.943 0 67.62-29.6 67.717-66.543.071-26.561-15.381-49.516-37.794-60.316z" fill="#e8e8e8"/><ellipse cx="212.246" cy="406.205" fill="#ffa0ab" rx="31.932" ry="25.429"/><ellipse cx="385.33" cy="406.205" fill="#ffa0ab" rx="31.932" ry="25.429"/><path d="m193.656 140.582c-3.123-2.721-7.861-2.396-10.582.727-2.407 2.762-5.882 4.346-9.533 4.346s-7.126-1.584-9.533-4.346c-2.721-3.123-7.458-3.448-10.582-.727-3.123 2.721-3.448 7.459-.727 10.582 5.256 6.032 12.853 9.492 20.841 9.492s15.585-3.459 20.842-9.492c2.722-3.123 2.397-7.861-.726-10.582z"/><path d="m298.779 160.655c7.988 0 15.585-3.459 20.842-9.492 2.721-3.123 2.396-7.86-.727-10.582-3.123-2.721-7.861-2.396-10.582.727-2.407 2.762-5.882 4.346-9.533 4.346s-7.125-1.584-9.533-4.347c-2.721-3.123-7.458-3.448-10.581-.727-3.123 2.722-3.448 7.459-.727 10.582 5.257 6.033 12.853 9.493 20.841 9.493z"/><path d="m236.16 179.49c6.485 0 11.743-5.607 11.743-12.523s-5.257-12.523-11.743-12.523c-6.485 0-11.742 5.607-11.742 12.523s5.257 12.523 11.742 12.523z"/><path d="m230.847 355.825c-12.517 0-22.699 10.183-22.699 22.699 0 4.142 3.357 7.5 7.5 7.5 4.142 0 7.5-3.358 7.5-7.5 0-4.245 3.454-7.699 7.699-7.699s7.699 3.454 7.699 7.699c0 4.142 3.357 7.5 7.5 7.5 4.142 0 7.5-3.358 7.5-7.5 0-12.517-10.183-22.699-22.699-22.699z"/><path d="m366.711 355.825c-12.516 0-22.699 10.183-22.699 22.699 0 4.142 3.358 7.5 7.5 7.5s7.5-3.358 7.5-7.5c0-4.245 3.454-7.699 7.699-7.699s7.699 3.454 7.699 7.699c0 4.142 3.358 7.5 7.5 7.5s7.5-3.358 7.5-7.5c0-12.517-10.183-22.699-22.699-22.699z"/><path d="m319.829 390.635c-3.123-2.722-7.86-2.396-10.582.726-5.535 6.35-15.386 6.37-20.937 0-2.721-3.123-7.458-3.448-10.582-.726-3.123 2.721-3.448 7.459-.727 10.582 11.524 13.223 32.041 13.209 43.553 0 2.723-3.123 2.398-7.861-.725-10.582z"/><path d="m459.689 370.866c-1.303-.628-2.001-2.037-1.66-3.35 4.853-18.641-.457-38.659-14.562-52.503 2.262-3.262 3.113-7.429 2.086-11.427l-3.463-13.485c-3.993-15.551-.763-31.839 8.862-44.689l8.351-11.149c3.685-4.919 3.685-11.791 0-16.709l-8.351-11.15c-9.625-12.849-12.855-29.138-8.863-44.688l3.463-13.484c1.533-5.971-1.102-12.33-6.409-15.464l-11.965-7.069c-13.836-8.175-23.078-21.987-25.355-37.896l-1.97-13.766c-.872-6.088-5.732-10.949-11.82-11.82l-13.766-1.971c-15.908-2.277-29.72-11.518-37.895-25.354l-7.07-11.965c-3.134-5.306-9.493-7.945-15.465-6.41l-13.485 3.463c-15.551 3.993-31.839.763-44.688-8.862l-11.149-8.351c-4.919-3.685-11.791-3.685-16.71 0l-11.15 8.352c-12.849 9.625-29.138 12.855-44.688 8.862l-13.485-3.463c-5.969-1.533-12.329 1.103-15.464 6.409l-7.069 11.966c-8.174 13.836-21.986 23.077-37.896 25.354l-13.766 1.97c-6.089.872-10.949 5.733-11.82 11.82l-1.971 13.763c-2.277 15.908-11.518 29.72-25.354 37.895l-11.967 7.07c-5.307 3.136-7.942 9.495-6.409 15.464l3.463 13.486c3.993 15.55.763 31.839-8.862 44.688l-8.352 11.15c-3.685 4.919-3.685 11.79 0 16.709l8.352 11.149c9.625 12.849 12.855 29.138 8.862 44.688l-3.463 13.485c-1.533 5.97 1.103 12.33 6.409 15.464l11.966 7.07c13.836 8.175 23.077 21.987 25.354 37.896l1.971 13.764c.871 6.09 5.732 10.951 11.82 11.822 7.254 1.043 12.895 1.836 14.426 2.078-.555 4.994-.485 8.243-.511 9.112.003 1.394-1.054 2.455-2.415 2.455-.101 0-.503-.002-.4-.002-30.409 0-54.869 24.867-54.361 55.296.492 29.468 25.225 53.442 55.133 53.442h330.353c41.367 0 75.11-33.207 75.217-74.023.076-28.415-16.426-54.75-42.039-67.092zm-33.178 126.115h-330.352c-21.774 0-39.778-17.358-40.135-38.693-.367-22.013 17.321-40.045 39.363-40.045.197-.037 7.004.593 12.679-5.052 5.512-5.484 5.115-12.426 5.135-12.53 0-37.235 31.011-67.123 68.232-65.825 10.487.373 19.528-7.168 20.926-17.646 1.275-9.55 3.946-18.831 7.94-27.586 1.719-3.769.058-8.217-3.711-9.937-3.76-1.716-8.214-.065-9.936 3.711-4.608 10.102-7.691 20.81-9.162 31.827-.274 2.059-1.675 3.683-3.537 4.334-2.872 1.006-27.957-2.867-53.706 16.658-29.953-28.782-47.009-68.619-47.009-110.29 0-84.321 68.6-152.92 152.921-152.92 36.87 0 72.481 13.306 100.273 37.467 3.126 2.718 7.864 2.386 10.581-.74 2.718-3.126 2.386-7.863-.74-10.581-30.52-26.533-69.626-41.146-110.112-41.146-92.592 0-167.921 75.329-167.921 167.92 0 45.448 18.483 88.902 50.957 120.454-7.934 8.73-14.03 19.393-17.464 30.604-1.406-.239-1.606-.244-14.53-2.101l-1.858-12.975c-2.925-20.438-14.797-38.183-32.572-48.685l-11.278-6.664 3.264-12.71c5.13-19.979.98-40.904-11.385-57.413l-7.874-10.511 7.874-10.512c12.366-16.508 16.515-37.434 11.386-57.412l-3.264-12.711 11.278-6.664c17.775-10.501 29.647-28.246 32.572-48.684l1.858-12.976 12.976-1.857c20.438-2.925 38.183-14.798 48.685-32.573l6.663-11.277 12.711 3.264c19.979 5.131 40.904.98 57.412-11.385l10.512-7.874 10.511 7.874c16.508 12.366 37.435 16.515 57.412 11.385l12.711-3.264 6.664 11.278c10.502 17.776 28.247 29.648 48.684 32.573l12.976 1.858 1.857 12.976c2.926 20.438 14.798 38.182 32.573 48.684l11.277 6.663-3.264 12.71c-5.13 19.978-.98 40.904 11.385 57.412l7.874 10.512-7.874 10.512c-12.365 16.508-16.515 37.434-11.385 57.412l3.021 11.763c-6.546-3.428-14.232-5.628-21.923-6.074-2.602-9.195-6.354-17.976-11.311-26.418 14.627-50.029 5.922-106.971-29.85-151.818-2.583-3.238-7.302-3.77-10.54-1.187s-3.77 7.302-1.187 10.54c29.897 37.482 38.881 83.981 30.156 126.299-44.967-53.018-126.877-53.046-172.139-.342-.834.973-1.378 2.094-1.642 3.302-1.632 7.581 7.97 12.353 13.022 6.471 53.014-61.729 152.816-35.531 170.338 42.279.787 3.492 4.005 6.054 7.727 5.841 26.564-1.455 46.998 23.438 40.28 49.251-2.142 8.23 1.923 16.911 9.665 20.641 20.441 9.85 33.611 30.865 33.551 53.54-.089 32.568-27.102 59.063-60.221 59.063z"/></svg>