<svg id="Capa_1" enable-background="new 0 0 512 512" height="512" viewBox="0 0 512 512" width="512" xmlns="http://www.w3.org/2000/svg"><path d="m267.167 120.58h91.466v58.242h-91.466z" fill="#817cd0" transform="matrix(.707 -.707 .707 .707 -14.21 265.096)"/><path d="m300.948 120.47-40.978 40.978 41.183 41.184 34.479-34.479c-8.529-18.009-20.349-34.164-34.684-47.683z" fill="#635ac5"/><path d="m192.265 102.24c-73.749 0-133.534 59.785-133.534 133.533v22.816h267.067v-22.816c0-73.748-59.785-133.533-133.533-133.533z" fill="#5bd6fd"/><path d="m207.265 103.083c-4.925-.551-9.928-.843-15-.843-73.748 0-133.533 59.785-133.533 133.533v22.816h30v-22.816c-.001-68.676 51.847-125.234 118.533-132.69z" fill="#00b4fb"/><path d="m58.731 289.048v106.523l133.534 33.249 133.533-33.249v-106.523l-133.533-24.936z" fill="#5bd6fd"/><path d="m88.731 395.571v-106.523l118.534-22.135-15-2.801-133.534 24.936v106.523l133.534 33.249 15-3.735z" fill="#00b4fb"/><path d="m192.265 316.238c-30.991 0-56.114 25.123-56.114 56.114v56.468h112.228v-56.468c0-30.991-25.123-56.114-56.114-56.114z" fill="#5c586f"/><path d="m207.265 318.282c-4.776-1.322-9.803-2.044-15-2.044-30.991 0-56.114 25.123-56.114 56.114v56.468h30v-56.468c0-25.794 17.409-47.508 41.114-54.07z" fill="#423e4f"/><path d="m7.5 395.571h497v103.304h-497z" fill="#36d39a"/><path d="m7.5 395.571h30v103.304h-30z" fill="#00c071"/><path d="m325.798 239.175h-267.067c-6.739 0-12.202 5.463-12.202 12.202v25.469c0 6.739 5.463 12.202 12.202 12.202h267.067c6.739 0 12.202-5.463 12.202-12.202v-25.469c0-6.739-5.463-12.202-12.202-12.202z" fill="#817cd0"/><path d="m76.529 276.846v-25.469c0-6.739 5.463-12.202 12.202-12.202h-30c-6.739 0-12.202 5.463-12.202 12.202v25.469c0 6.739 5.463 12.202 12.202 12.202h30c-6.739 0-12.202-5.463-12.202-12.202z" fill="#635ac5"/><ellipse cx="120.778" cy="197.412" fill="#ffa0ab" rx="26.377" ry="21.005"/><ellipse cx="263.751" cy="197.412" fill="#ffa0ab" rx="26.377" ry="21.005"/><path d="m383.885 128.555-49.839-49.839c-2.77-2.77-7.262-2.77-10.032 0l-17.424 17.424c-2.77 2.77-2.77 7.262 0 10.032l49.839 49.839c2.77 2.77 7.262 2.77 10.032 0l17.424-17.424c2.77-2.77 2.77-7.262 0-10.032z" fill="#5bd6fd"/><g fill="#f8e86a"><path d="m498.966 96.849c-.027 0-.054 0-.081 0-29.356 0-53.153-23.797-53.153-53.153 0-5.658.887-11.107 2.527-16.219 1.042-3.25-1.993-6.365-5.247-5.334-21.712 6.88-37.388 27.323-37.074 51.384.369 28.293 23.304 51.611 51.588 52.421 18.551.532 35.031-8.448 44.938-22.419 2.004-2.825-.034-6.685-3.498-6.68z"/><path d="m90.726 45.235c-1.68 7.971-7.441 13.848-15.607 15.537-2.849.589-4.882 3.115-4.882 6.089v.328c0 2.919 2.05 5.435 4.908 6.03 8.15 1.696 13.899 7.565 15.579 15.525.604 2.863 3.035 4.968 6.037 4.968h.391c2.909 0 5.435-2.033 6.025-4.881 1.689-8.164 7.562-13.924 15.53-15.606 2.863-.604 4.968-3.036 4.968-5.962v-.541c0-2.926-2.106-5.357-4.968-5.962-7.968-1.682-13.842-7.442-15.53-15.605-.589-2.849-3.115-4.882-6.1-4.882h-.392c-2.922 0-5.356 2.101-5.959 4.962z"/><path d="m448.364 175.655c-1.68 7.971-7.441 13.848-15.607 15.537-2.849.589-4.882 3.115-4.882 6.089v.328c0 2.919 2.05 5.435 4.908 6.03 8.15 1.696 13.899 7.565 15.579 15.525.604 2.863 3.035 4.968 6.037 4.968h.391c2.909 0 5.435-2.033 6.025-4.881 1.689-8.164 7.562-13.924 15.53-15.606 2.863-.604 4.968-3.036 4.968-5.962v-.541c0-2.926-2.106-5.357-4.968-5.962-7.968-1.682-13.842-7.442-15.53-15.605-.589-2.849-3.115-4.882-6.1-4.882h-.392c-2.923 0-5.357 2.101-5.959 4.962z"/></g><path d="m276.489 18.086c-1.68 7.971-7.441 13.848-15.607 15.537-2.849.589-4.882 3.115-4.882 6.089v.328c0 2.919 2.05 5.435 4.908 6.03 8.15 1.696 13.899 7.565 15.579 15.525.604 2.863 3.035 4.968 6.037 4.968h.391c2.909 0 5.435-2.033 6.025-4.881 1.689-8.164 7.562-13.924 15.53-15.606 2.863-.604 4.968-3.036 4.968-5.962v-.541c0-2.926-2.106-5.357-4.968-5.962-7.968-1.682-13.842-7.442-15.53-15.605-.589-2.849-3.115-4.882-6.1-4.882h-.392c-2.923.001-5.356 2.102-5.959 4.962z" fill="#fab659"/><path d="m136.151 184.692c4.142 0 7.5-3.358 7.5-7.5v-10.783c0-4.142-3.358-7.5-7.5-7.5s-7.5 3.358-7.5 7.5v10.783c0 4.142 3.358 7.5 7.5 7.5z"/><path d="m248.379 184.692c4.142 0 7.5-3.358 7.5-7.5v-10.783c0-4.142-3.358-7.5-7.5-7.5s-7.5 3.358-7.5 7.5v10.783c0 4.142 3.358 7.5 7.5 7.5z"/><path d="m212.713 181.798c2.721-3.123 2.396-7.86-.727-10.582-3.122-2.721-7.86-2.396-10.582.727-4.842 5.556-13.443 5.55-18.28 0-2.721-3.124-7.459-3.448-10.582-.727s-3.448 7.459-.727 10.582c10.821 12.416 30.089 12.404 40.898 0z"/><path d="m498.885 89.349c-30.866 0-52.911-30.188-43.484-59.582 2.898-9.034-5.593-17.646-14.654-14.774-43.334 13.731-56.487 68.135-24.829 100.31 26.527 26.961 70.774 23.435 92.664-7.436 5.536-7.809-.093-18.518-9.609-18.518-.006 0-.013 0-.019 0m-6.536 14.658c-8.891 9.506-21.454 14.825-34.677 14.444-24.114-.691-43.988-20.888-44.303-45.022-.237-18.163 10-34.284 26.01-41.849-7.15 35.163 17.676 68.669 52.97 72.427z"/><path d="m83.386 90.293c1.357 6.429 6.858 10.919 13.375 10.919h.391c6.446 0 12.068-4.569 13.369-10.862 1.063-5.138 4.611-8.705 9.734-9.787 6.43-1.356 10.92-6.826 10.92-13.3v-.541c0-6.473-4.49-11.942-10.919-13.3-5.124-1.082-8.672-4.649-9.735-9.787-1.302-6.294-6.956-10.862-13.444-10.862h-.392c-6.475 0-11.943 4.488-13.298 10.915-1.081 5.126-4.648 8.676-9.787 9.739-6.294 1.302-10.863 6.952-10.863 13.433v.328c0 6.437 4.576 12.061 10.88 13.373 5.129 1.068 8.689 4.614 9.769 9.732zm13.574-39.633c2.778 7.653 8.669 13.551 16.321 16.333-7.652 2.781-13.543 8.679-16.321 16.333-2.781-7.657-8.685-13.555-16.345-16.333 7.663-2.778 13.564-8.674 16.345-16.333z"/><path d="m468.159 174.056c-2.927-14.148-23.998-14.835-27.135.053-1.081 5.126-4.648 8.676-9.787 9.738-6.294 1.302-10.863 6.952-10.863 13.433v.329c0 6.437 4.576 12.061 10.88 13.373 5.127 1.067 8.688 4.614 9.769 9.73 1.356 6.43 6.857 10.92 13.375 10.92h.391c6.444 0 12.067-4.568 13.369-10.862 1.063-5.138 4.611-8.705 9.735-9.787 6.429-1.358 10.919-6.827 10.919-13.3v-.541c0-6.474-4.491-11.943-10.919-13.3-5.123-1.082-8.671-4.649-9.734-9.786zm-13.562 39.689c-2.781-7.657-8.685-13.555-16.345-16.333 7.662-2.777 13.564-8.674 16.345-16.333 2.778 7.653 8.669 13.551 16.321 16.333-7.651 2.782-13.543 8.68-16.321 16.333z"/><path d="m269.149 63.145c1.357 6.429 6.858 10.919 13.375 10.919h.391c6.445 0 12.067-4.568 13.37-10.862 1.063-5.138 4.611-8.705 9.734-9.787 6.43-1.356 10.92-6.826 10.92-13.3v-.542c0-6.473-4.49-11.942-10.919-13.3-5.125-1.082-8.672-4.648-9.735-9.786-1.302-6.294-6.957-10.863-13.445-10.863h-.392c-6.475 0-11.943 4.488-13.298 10.915-1.081 5.126-4.648 8.676-9.787 9.739-6.294 1.302-10.863 6.952-10.863 13.433v.328c0 6.437 4.576 12.061 10.88 13.373 5.128 1.068 8.689 4.615 9.769 9.733zm13.573-39.634c2.777 7.653 8.669 13.551 16.321 16.333-7.652 2.781-13.544 8.68-16.321 16.333-2.781-7.657-8.685-13.556-16.344-16.333 7.662-2.777 13.564-8.673 16.344-16.333z"/><path d="m504.5 388.071h-58.394c-4.142 0-7.5 3.358-7.5 7.5s3.358 7.5 7.5 7.5h50.894v88.305h-482v-88.305h401.106c4.142 0 7.5-3.358 7.5-7.5s-3.358-7.5-7.5-7.5h-82.808v-93.014c7.153-2.957 12.202-10.002 12.202-18.211v-25.469c0-8.221-5.065-15.274-12.235-18.223-.283-15.426-3.055-30.252-7.93-44.098l26.814-26.814c5.718 4.744 14.227 4.461 19.615-.928l17.425-17.424c5.69-5.69 5.69-14.948 0-20.638l-49.839-49.839c-5.703-5.703-14.935-5.704-20.638 0l-17.425 17.424c-5.361 5.361-5.666 13.887-.926 19.614l-17.407 17.407c-24.537-20.653-56.182-33.117-90.689-33.117-76.89 0-139.597 61.853-141 138.414-7.17 2.949-12.235 10.002-12.235 18.223v25.469c0 8.208 5.049 15.254 12.202 18.211v93.014h-43.732c-4.142 0-7.5 3.358-7.5 7.5v103.305c0 4.142 3.358 7.5 7.5 7.5h497c4.142 0 7.5-3.358 7.5-7.5v-103.306c0-4.142-3.358-7.5-7.5-7.5zm-360.849 0v-15.719c0-26.806 21.808-48.614 48.614-48.614s48.614 21.808 48.614 48.614v15.719zm185.379-303.764 49.264 49.264-16.85 16.849c-11.521-11.521-39.665-39.664-49.264-49.264zm-18.112 36.799 30.577 30.577-22.389 22.389c-6.435-13.171-14.967-25.389-25.151-36.002zm-118.653-11.366c68.125 0 123.799 54.327 125.967 121.935h-172.009c-4.142 0-7.5 3.358-7.5 7.5s3.358 7.5 7.5 7.5h179.575c2.593 0 4.702 2.109 4.702 4.702v25.469c0 2.593-2.109 4.702-4.702 4.702h-267.066c-2.593 0-4.702-2.109-4.702-4.702v-25.469c0-2.593 2.109-4.702 4.702-4.702h57.492c4.142 0 7.5-3.358 7.5-7.5s-3.358-7.5-7.5-7.5h-49.926c2.168-67.608 57.842-121.935 125.967-121.935zm-126.033 186.808h252.066v91.522h-62.419v-15.719c0-35.077-28.537-63.614-63.614-63.614s-63.614 28.537-63.614 63.614v15.719h-62.419z"/></svg>