<svg id="Capa_1" enable-background="new 0 0 512 512" height="512" viewBox="0 0 512 512" width="512" xmlns="http://www.w3.org/2000/svg"><path d="m186.63 151.456c-16.058 0-28.954-13.536-27.901-29.82.886-13.708 11.887-24.901 25.579-26.008 7.558-.611 14.545 1.791 19.901 6.128-.019-.485-.037-.971-.037-1.461 0-19.837 16.081-35.919 35.919-35.919 6.615 0 12.811 1.791 18.132 4.912 3.123 1.832 7.129.025 7.682-3.553 4.597-29.75 30.304-52.528 61.342-52.528 23.034 0 43.127 12.55 53.841 31.181 1.873 3.257 5.502 5.037 9.243 4.694 1.288-.118 2.592-.179 3.911-.179 17.77 0 33.011 10.824 39.492 26.239 1.283 3.052 4.507 4.741 7.747 4.061 3.808-.799 7.834-1.005 11.982-.504 16.728 2.02 30.063 15.544 31.818 32.301 2.297 21.934-14.842 40.456-36.308 40.456z" fill="#e8e8e8"/><path d="m38.809 177.291-31.309 11.311v214.999l52.979 43.403h202.019l-22.5-79.838c-2.572-9.126-.909-18.924 4.528-26.691l7.813-11.16c2.396-3.422 3.824-7.427 4.135-11.592l2.126-28.508c.714-9.565 4.596-18.62 11.033-25.731l15.335-16.942c2.23-2.464 3.84-5.424 4.697-8.635l16.172-60.616z" fill="#e27858"/><path d="m37.5 188.602 31.309-11.311h-30l-31.309 11.311v214.999l52.979 43.403h30l-52.979-43.403z" fill="#ca5935"/><path d="m7.5 403.601c22.346-11.181 48.654-11.181 71 0 22.346 11.181 48.654 11.181 71 0 22.346-11.181 48.654-11.181 71 0 22.346 11.181 48.654 11.181 71 0 22.346-11.181 48.654-11.181 71 0 22.346 11.181 48.654 11.181 71 0 22.346-11.181 48.654-11.181 71 0v95.192h-497z" fill="#a4e6ff"/><path d="m37.5 395.414c-10.31.716-20.512 3.439-30 8.187v95.192h30z" fill="#5bd6fd"/><path d="m314.932 138.145h-307.432v50.456l26.526 13.218c16.705 8.324 36.348 8.324 53.053 0s36.348-8.324 53.053 0c16.705 8.324 36.348 8.324 53.052 0 16.705-8.324 36.348-8.324 53.052 0 16.705 8.324 36.348 8.324 53.053 0 16.253-8.099 26.526-24.696 26.526-42.856v-9.936c0-6.009-4.872-10.882-10.883-10.882z" fill="#80dfb5"/><path d="m37.5 138.145h-30v50.456l26.526 13.219c1.144.57 2.304 1.093 3.474 1.584z" fill="#00c071"/><path d="m74.809 292.616v-12.917c0-4.142-3.358-7.5-7.5-7.5s-7.5 3.358-7.5 7.5v12.917c0 4.142 3.358 7.5 7.5 7.5s7.5-3.358 7.5-7.5z"/><path d="m209.251 292.616v-12.917c0-4.142-3.358-7.5-7.5-7.5s-7.5 3.358-7.5 7.5v12.917c0 4.142 3.358 7.5 7.5 7.5s7.5-3.358 7.5-7.5z"/><path d="m157.906 297.159c2.722-3.123 2.396-7.86-.726-10.582-3.123-2.722-7.861-2.396-10.582.726-6.381 7.32-17.738 7.343-24.137 0-2.721-3.124-7.459-3.448-10.582-.727s-3.448 7.459-.727 10.582c12.372 14.197 34.396 14.181 46.754.001z"/><path d="m507.856 396.893c-24.33-12.173-53.381-12.173-77.712 0-20.127 10.071-44.16 10.071-64.288 0-24.33-12.173-53.381-12.173-77.712 0-9.369 4.688-19.584 7.191-29.857 7.515l-11.069-39.277c-1.969-6.988-.711-14.408 3.454-20.355l7.813-11.16c3.168-4.525 5.06-9.829 5.47-15.336l2.126-28.508c.586-7.862 3.823-15.41 9.114-21.255l15.335-16.942c3.017-3.333 5.224-7.391 6.383-11.734l8.795-32.965c17.114-9.888 27.608-27.937 27.608-47.911v-.008h54.038c4.142 0 7.5-3.358 7.5-7.5s-3.358-7.5-7.5-7.5h-54.75c-1.96-6.815-7.886-12.217-15.393-13.154-2.571-.319 7.94-.078-149.758-.156-1.004-2.692-1.43-5.583-1.239-8.525 1.059-16.379 20.365-24.989 33.276-14.535 5 4.048 12.472.309 12.214-6.131-.919-22.658 23.675-36.873 42.725-25.697 7.71 4.522 17.533-.1 18.889-8.877 1.967-12.732 8.449-24.414 18.25-32.894 26.107-22.585 66.047-15.371 83.019 14.14 3.296 5.731 9.746 9.04 16.43 8.423 15.149-1.389 29.731 7.057 35.803 21.499 2.663 6.332 9.476 9.907 16.202 8.494 16.986-3.565 33.052 8.539 34.801 25.238 1.866 17.819-12.143 32.175-28.849 32.175h-31.62c-4.142 0-7.5 3.358-7.5 7.5s3.358 7.5 7.5 7.5h31.62c26.001 0 46.516-22.498 43.767-48.738-2.602-24.848-26.359-43.584-52.296-38.458-8.728-20.186-29.272-32.118-50.799-30.147-.872.083-1.673-.299-2.056-.964-12.395-21.553-35.517-34.941-60.342-34.941-33.388 0-61.597 23.618-68.154 55.544-24.778-12.069-54.539 1.84-61.158 28.626-25.648-8.626-51.546 13.807-46.019 40.768h-144.417c-4.142 0-7.5 3.358-7.5 7.5v188.851c0 4.142 3.358 7.5 7.5 7.5s7.5-3.358 7.5-7.5v-126.279l15.681 7.814c18.704 9.32 41.037 9.321 59.743 0 14.515-7.233 31.847-7.233 46.363 0 18.705 9.321 41.038 9.32 59.742 0 14.863-7.407 32.24-7.062 46.392.014 14.084 7.007 30.3 8.743 45.44 5.153-6.018 20.968-5.295 23.768-8.953 27.809l-15.335 16.942c-7.519 8.307-12.118 19.034-12.951 30.206l-2.126 28.508c-.21 2.819-1.178 5.533-2.8 7.849l-7.813 11.16c-6.756 9.65-8.799 21.688-5.603 33.027l9.566 33.943c-6.705-1.287-12.885-3.445-18.49-6.25-24.329-12.172-53.382-12.173-77.712 0-34.678 17.352-66.357-.743-64.306-.009-20.633-10.317-44.856-11.948-66.838-4.52v-35.369c0-4.142-3.358-7.5-7.5-7.5s-7.5 3.358-7.5 7.5c0 80.665 0 64.529 0 141.797 0 4.142 3.358 7.5 7.5 7.5h497c4.142 0 7.5-3.358 7.5-7.5v-95.192c0-2.84-1.604-5.437-4.144-6.708zm-192.923-251.248c1.865 0 3.383 1.518 3.383 3.383v9.936c0 34.408-39.053 50.933-68.733 36.143-18.705-9.32-41.038-9.32-59.743 0-14.515 7.233-31.848 7.233-46.362 0-18.705-9.32-41.038-9.32-59.743 0-14.515 7.234-31.848 7.233-46.362 0l-22.373-11.149v-38.313zm182.067 345.648h-482v-82.888c15.792-6.674 33.518-7.387 49.555-2.359 11.54 3.61 14.473 7.588 29.575 11.11 19.604 4.572 40.505 2.269 58.727-6.847 20.127-10.071 44.159-10.072 64.288 0 24.868 12.434 53.702 12.013 77.712 0 20.128-10.071 44.161-10.07 64.289 0 24.329 12.172 53.381 12.173 77.712 0 18.764-9.389 40.92-10.025 60.144-1.909v82.893z"/></svg>