<svg id="Capa_1" enable-background="new 0 0 512.026 512.026" height="512" viewBox="0 0 512.026 512.026" width="512" xmlns="http://www.w3.org/2000/svg"><path d="m270.545 175.784v-21.957l95.197-75.501c3.689-2.932 7.824-5.193 12.221-6.717 4.388-1.534 9.037-2.33 13.745-2.33 9.435 0 18.589 3.184 25.976 9.047l86.829 68.862v24.937l-32.574 32.574h-181.119z" fill="#a4e6ff"/><path d="m504.513 172.125v203.333l-108.758 86.354-125.211-40.731v-245.297l2.922-1.514c8.241-4.271 18.045-4.271 26.277 0 4.125 2.136 8.63 3.203 13.143 3.203 4.514 0 9.018-1.068 13.134-3.203s8.63-3.203 13.143-3.203c4.504 0 9.018 1.068 13.134 3.203 4.125 2.136 8.63 3.203 13.134 3.203 4.514 0 9.028-1.068 13.143-3.203 4.116-2.135 8.63-3.203 13.143-3.203 4.504 0 9.008 1.068 13.134 3.203 4.125 2.136 8.629 3.203 13.134 3.203 4.514 0 9.028-1.068 13.143-3.203 4.116-2.135 8.62-3.203 13.134-3.203s9.018 1.068 13.143 3.203c4.116 2.136 8.63 3.203 13.134 3.203 4.514 0 9.028-1.068 13.143-3.203 4.116-2.135 8.62-3.203 13.134-3.203 2.591 0 5.183.349 7.697 1.058z" fill="#5bd6fd"/><path d="m7.853 122.541v-14.357l95.197-75.501c3.689-2.932 7.824-5.193 12.211-6.717 4.388-1.534 9.037-2.33 13.755-2.33 9.426 0 18.579 3.184 25.966 9.047l110.282 87.47v37.039h-236.037z" fill="#e8e8e8"/><path d="m342.066 181.055-81.228 241.676-127.783-6.562-125.202-40.73v-252.898c1.078.427 2.145.912 3.194 1.456 5.232 2.708 10.959 4.067 16.686 4.067s11.454-1.359 16.686-4.067c5.222-2.708 10.95-4.067 16.677-4.067s11.454 1.359 16.686 4.067 10.959 4.067 16.686 4.067 11.454-1.359 16.686-4.067 10.959-4.067 16.686-4.067 11.454 1.359 16.677 4.067c5.232 2.708 10.959 4.067 16.686 4.067s11.454-1.359 16.686-4.067 10.959-4.067 16.686-4.067 11.454 1.359 16.686 4.067c5.222 2.708 10.949 4.067 16.677 4.067 5.727 0 11.454-1.359 16.686-4.067s10.959-4.067 16.686-4.067c1.32 0 2.64.068 3.951.223z" fill="#00b4fb"/><path d="m260.841 422.734s-92.864-60.542-253.328-47.292v112.948h125.544l107.889-27.432z" fill="#5bd6fd"/><path d="m133.057 488.39 107.889-27.432 19.894-38.224s-12.508-8.147-36.248-17.808c-38.505 16.409-74.68 35.965-108.282 58.572l-36.995 24.892z" fill="#00b4fb"/><path d="m435.833 270.805v191.747h-219.498v-191.747l109.749-80.984z" fill="#e27858"/><path d="m216.335 270.805v50.546c4.251-.904 8.272-2.682 11.849-5.312l97.899-71.997 97.902 71.998c3.575 2.629 7.596 4.407 11.847 5.311v-50.546l-109.749-80.984z" fill="#ca5935"/><path d="m467.464 256.916-125.565-92.341c-9.407-6.919-22.222-6.919-31.629 0l-125.564 92.341c-4.854 3.569-5.895 10.398-2.325 15.251l18.704 25.434c3.569 4.854 10.398 5.895 15.251 2.325l109.749-80.711 109.75 80.711c4.854 3.569 11.682 2.528 15.252-2.326l18.704-25.434c3.567-4.852 2.526-11.68-2.327-15.25z" fill="#e8e8e8"/><path d="m352.541 340.747h-52.913c-8.623 0-15.614 6.99-15.614 15.614v83.223h84.14v-83.223c0-8.623-6.99-15.614-15.613-15.614z" fill="#ca5935"/><path d="m504.513 375.461s-197.408-4.17-371.456 112.929h371.456z" fill="#a4e6ff"/><path d="m265.478 312.318c4.142 0 7.5-3.358 7.5-7.5v-11.648c0-4.142-3.358-7.5-7.5-7.5s-7.5 3.358-7.5 7.5v11.648c0 4.143 3.358 7.5 7.5 7.5z"/><path d="m386.716 312.318c4.142 0 7.5-3.358 7.5-7.5v-11.648c0-4.142-3.358-7.5-7.5-7.5s-7.5 3.358-7.5 7.5v11.648c0 4.143 3.358 7.5 7.5 7.5z"/><path d="m347.733 309.399c2.721-3.123 2.396-7.86-.727-10.582-3.123-2.721-7.86-2.396-10.582.727-5.46 6.266-15.18 6.283-20.655 0-2.721-3.124-7.459-3.448-10.582-.727s-3.448 7.459-.727 10.582c11.45 13.138 31.836 13.125 43.273 0z"/><path d="m509.186 141.309-86.827-68.86c-17.78-14.112-43.232-14.333-61.265-.001l-71.947 57.061c-9.838-7.803-117.713-93.361-129.489-102.701-17.808-14.134-43.251-14.312-61.256-.001l-95.196 75.499c-1.793 1.423-2.839 3.587-2.839 5.876v265.036c-.647 2.085-.213-4.534-.34 115.169 0 4.142 3.358 7.5 7.5 7.5h497c4.142 0 7.5-3.358 7.5-7.5 0-31.636 0-298.054 0-341.202-.001-2.289-1.047-4.453-2.841-5.876zm-52.045 160.733 18.704-25.434c6.014-8.177 4.253-19.723-3.924-25.737l-93.107-68.471c3.654-1.453 6.527-3.789 12.898-3.792 3.353-.001 6.711.77 9.704 2.319 10.567 5.471 22.951 5.305 33.179-.003 5.953-3.087 13.406-3.086 19.369 0 10.668 5.535 23.068 5.249 33.186 0 2.888-1.497 6.317-2.353 9.877-2.332v189.379c-9.803.147-28.516.829-53.68 3.559l.001-62.014c5.383-.304 10.447-2.925 13.793-7.474zm-28.795 1.675v69.598c-17.21 2.228-34.908 5.129-52.679 8.703v-25.66c0-12.745-10.369-23.113-23.114-23.113h-52.913c-12.745 0-23.114 10.369-23.114 23.113v52.694c-17.239 6.015-34.874 12.903-52.679 20.814 0-26.105 0-100.507 0-126.149l102.249-75.195zm-136.819 100.266v-47.625c0-4.474 3.64-8.113 8.114-8.113h52.913c4.474 0 8.114 3.64 8.114 8.113v28.825c-21.829 4.837-45.974 11.282-69.141 18.8zm88.924-325.297c11.233-3.927 23.555-1.654 32.585 5.514l83.99 66.609v12.756c-5.933-.065-11.851 1.487-16.785 4.045-5.947 3.086-13.403 3.095-19.376-.003-10.306-5.334-22.683-5.441-33.179.003-5.94 3.083-13.387 3.097-19.375-.003-5.109-2.645-10.843-4.042-16.581-4.042-15.65 0-17.861 8.508-30.423 5.961-14.825-10.857-17.365-13.355-23.618-15.611-6.204-2.253-12.882-2.658-19.253-1.182l-17.217-13.653c71.625-56.034 69.67-57.079 79.232-60.394zm-262.702-45.642c11.279-3.943 23.592-1.625 32.586 5.513l96.331 76.405c-1 .355-3.542 1.373-5.473 2.373-8.195 4.241-18.056 4.363-26.468 0-12.941-6.697-27.944-6.379-40.268 0-8.229 4.259-18.087 4.343-26.473.002-12.451-6.456-27.465-6.626-40.263-.002-8.565 4.433-18.431 4.165-26.478 0-12.647-6.545-27.666-6.53-40.258 0-7.978 4.129-17.369 4.322-25.619.413v-5.94c97.374-76.428 92.795-75.435 102.383-78.764zm-102.723 349.349c30.01-2.097 44.955-.972 47.771-1.324 3.696-.455 6.504-3.531 6.567-7.309 0-.001 0-.002 0-.002.069-4.141-3.232-7.555-7.374-7.624-14.931-.252-31.173.16-46.624 1.2v-233.566c10.896 3.211 22.545 2.047 32.519-3.115 7.958-4.127 17.826-4.468 26.463.002 12.616 6.53 27.622 6.545 40.268 0 8.178-4.233 18.04-4.371 26.468 0 8.388 4.341 18.199 5.969 27.932 4.201 8.135-1.479 11.718-4.189 15.482-5.596 7.651-2.86 16.093-2.351 23.327 1.393 12.429 6.444 27.441 6.639 40.263.002 4.214-2.181 9.115-3.396 14.333-3.198l41.222 32.688-23.727 17.449c-3.337 2.454-4.053 7.148-1.599 10.485 2.301 3.13 6.576 3.954 9.85 2.019.631-.374-.843.65 26.56-19.485 1.334-.981 2.944-1.866 4.73-2.525 5.375-1.984 11.411-1.5 16.421 1.483 1.399.831-8.007-6.016 127.156 93.384 1.514 1.114 1.84 3.252.727 4.766-20.327 27.596-18.821 25.807-19.688 26.33-1.08.641-2.4.726-3.781-.17l-109.75-80.71c-2.644-1.944-6.243-1.944-8.887 0l-109.75 80.71c-1.513 1.114-3.651.788-4.766-.727-20.278-27.62-19.025-25.656-19.266-26.639-.161-.681-.116-1.337.094-1.938.532-1.542-3.676 2.01 76.399-56.928 3.337-2.454 4.053-7.148 1.599-10.485-2.454-3.338-7.149-4.052-10.485-1.599-79.624 58.595-75.337 55.305-76.625 56.461-6.932 6.226-8.187 16.853-2.503 24.582 19.805 26.858 19.848 27.949 24.549 30.574 2.477 1.381 5.283 2.162 7.949 2.325v81.485c-36.565-12.603-76.27-20.465-116.443-23.477-4.43-.324-8.179 3.229-8.059 7.686.1 3.801 3.064 6.983 6.937 7.273 43.987 3.298 84.97 12.518 117.565 24.427v29.867c-27.054 12.845-54.103 28.137-78.058 44.117h-115.766zm482 98.494h-338.323c113.705-69.393 249.36-96.31 338.324-97.893v97.893z"/></svg>