<svg id="Capa_1" enable-background="new 0 0 512 512" height="512" viewBox="0 0 512 512" width="512" xmlns="http://www.w3.org/2000/svg"><path d="m504.5 86.557v-79.057h-73.872c-73.921 159.446-222.265 79.057-423.128 158.115v62.087l42.494 8.816 185.981-20.156h200.582l45.437-45.633z" fill="#5bd6fd"/><path d="m504.5 202.256c-94.608 101.96-194.041 1.795-497 78.252v-52.806c267.939-112.26 410.436 33.236 497-141.144z" fill="#817cd0"/><path d="m291.796 504.5h138.832c-.451-1.933-1.141-3.854-2.108-5.726l-32.088-62.117-43.081-28.549h-92.353l-26.963 51.657z" fill="#00c071"/><path d="m346.715 469.273c9.117 4.938 19.449 7.68 30.127 7.68.783 0 1.565-.014 2.329-.042 11.928-.434 22.993-4.745 31.827-12.055l-14.566-28.198-43.081-28.549h-92.353l-25.695 49.228 1.885 4.87 20.441 15.831 11.663-2.428c6.054-1.26 11.843-3.412 17.2-6.321 9.109 4.927 19.432 7.664 30.098 7.664 10.676 0 21.008-2.743 30.125-7.68z" fill="#00a45b"/><path d="m263.177 446.239c10.285-2.141 18.841-8.997 23.284-18.217 5.399 11.201 16.86 18.931 30.127 18.931 13.266 0 24.727-7.728 30.126-18.928v-.003c5.399 11.201 16.86 18.931 30.127 18.931.415 0 .827-.008 1.238-.023 17.693-.644 28.102-20.26 19.219-35.575l-35.321-60.897-75.123-46.242-63.632 38.763z" fill="#00c071"/><path d="m316.587 382.71c9.117 4.938 19.449 7.68 30.127 7.68.798 0 1.593-.015 2.398-.045 11.072-.415 21.373-4.146 29.869-10.571l-17.003-29.315-75.123-46.242-63.632 38.763 17.672 45.673c5.427-1.293 10.627-3.298 15.468-5.926 9.11 4.928 19.432 7.664 30.098 7.664 10.677-.001 21.01-2.743 30.126-7.681z" fill="#00a45b"/><path d="m232.921 359.7c10.342-2.11 18.952-8.983 23.414-18.241v.003c5.399 11.2 16.86 18.928 30.126 18.928s24.727-7.728 30.126-18.928v-.003c5.399 11.201 16.86 18.931 30.127 18.931.427 0 .852-.008 1.276-.024 16.205-.607 26.244-17.174 20.901-31.679-.712-1.933-1.737-3.737-2.924-5.421l-50.569-71.742c-6.632-9.409-17.425-15.006-28.937-15.006s-22.304 5.597-28.937 15.006l-33.138 47.012-36.38 37.733z" fill="#00c071"/><path d="m291.796 504.5-29.426-56.965-59.584-39.484h-185.027l-10.259 6.798v89.651z" fill="#36d39a"/><path d="m262.37 447.535-59.584-39.485h-185.027l-10.259 6.799v75.47l14.447-7.939c1.734-.953 3.425-1.967 5.066-3.04 12.188 7.94 26.608 12.435 41.592 12.435 15.016 0 29.464-4.513 41.668-12.484 12.204 7.971 26.652 12.484 41.668 12.484s29.463-4.512 41.667-12.483c12.204 7.971 26.651 12.483 41.667 12.483.936 0 1.867-.017 2.805-.051 14.771-.538 28.417-6.168 39.014-15.685z" fill="#00c071"/><path d="m263.569 412.541-48.851-84.225-103.9-63.956-103.318 62.938v128.79c8.425-4.629 15.251-11.807 19.439-20.496v.004c7.467 15.49 23.318 26.179 41.666 26.179 18.349 0 34.201-10.69 41.668-26.183 7.467 15.492 23.319 26.183 41.668 26.183 18.348 0 34.199-10.689 41.666-26.179v-.004c7.467 15.492 23.319 26.183 41.668 26.183.573 0 1.144-.01 1.713-.031 24.47-.891 38.866-28.022 26.581-49.203z" fill="#36d39a"/><path d="m110.272 372.053c15.016 0 29.463-4.512 41.667-12.483 12.204 7.971 26.651 12.483 41.667 12.483.968 0 1.931-.019 2.888-.054 13.386-.501 25.809-5.16 35.92-13.171l-17.697-30.511-103.9-63.956-103.317 62.937v41.811c5.308 1.694 10.862 2.677 16.547 2.889.959.036 1.923.054 2.892.054 15.016 0 29.463-4.512 41.667-12.483 12.203 7.972 26.651 12.484 41.666 12.484z" fill="#00c071"/><path d="m224.278 298.205c-.985-2.674-2.402-5.168-4.044-7.497l-69.941-99.225c-9.173-13.013-24.1-20.754-40.021-20.754s-30.849 7.741-40.021 20.754l-62.751 89.025v55.344c4.873 3.619 10.878 5.913 17.674 6.167.585.022 1.173.033 1.764.033 18.349 0 34.201-10.69 41.668-26.183v.004c7.467 15.49 23.319 26.179 41.666 26.179s34.199-10.689 41.666-26.179v-.004c7.467 15.492 23.319 26.183 41.668 26.183.591 0 1.179-.011 1.764-.033 22.413-.839 36.298-23.753 28.908-43.814z" fill="#36d39a"/><path d="m39.231 370.737c-4.142 0-7.5 3.358-7.5 7.5v12.857c0 4.142 3.358 7.5 7.5 7.5s7.5-3.358 7.5-7.5v-12.857c0-4.142-3.358-7.5-7.5-7.5z"/><path d="m181.315 370.737c-4.142 0-7.5 3.358-7.5 7.5v12.857c0 4.142 3.358 7.5 7.5 7.5s7.5-3.358 7.5-7.5v-12.857c0-4.142-3.358-7.5-7.5-7.5z"/><path d="m132.743 384.553c-3.119-2.726-7.856-2.408-10.583.711-6.05 6.921-17.715 6.932-23.774 0-2.727-3.119-7.464-3.437-10.583-.711s-3.437 7.464-.711 10.583c12.043 13.776 34.344 13.748 46.362 0 2.726-3.119 2.408-7.857-.711-10.583z"/><path d="m504.5 0h-73.872c-2.921 0-5.576 1.696-6.804 4.345-47.76 103.017-126.32 101.563-238.09 113.488-4.119.439-7.102 4.134-6.662 8.253.439 4.119 4.143 7.101 8.253 6.662 110.192-11.753 196.176-10.763 248.047-117.748h61.628v69.772c-15.549 30.84-35.724 57.425-66.731 72.361-6.701 3.228-5.072 13.218 2.312 14.193 1.077.137 2.144.041 3.185-.287 1.702-.535 7.997-3.997 9.651-4.948 21.583-12.43 38.03-29.987 51.584-50.995v84.185c-48.525 50.734-100.001 46.562-179.01 43.556-16.419-17.873-44.442-18.445-61.671-1.439-20.953-.037-40.82.517-60.485 1.676l-35.113-49.815c103.592-14.192 183.847 3.194 246.604-12.191 4.023-.986 6.485-5.047 5.499-9.07s-5.045-6.485-9.07-5.499c-61.705 15.124-143.491-3.418-253.707 13.133-24.679-24.474-65.656-21.225-85.926 7.531l-10.922 15.495c-12.845 4.207-26.45 9.179-38.198 13.874v-45.788c30.195-11.609 73.612-25.527 143.285-34.59 4.107-.535 7.004-4.297 6.47-8.405-.535-4.107-4.296-7.003-8.405-6.47-39.419 5.127-92.273 14.007-151.597 37.356-2.87 1.13-4.755 3.898-4.755 6.98v338.885c0 4.142 3.358 7.5 7.5 7.5h423.128c2.289 0 4.452-1.045 5.875-2.837 1.423-1.793 1.949-4.137 1.43-6.366-.604-2.591-1.529-5.102-2.749-7.464 0 0 0 0 0-.001l-30.228-58.516c4.48-9.379 4.083-20.168-1.169-29.223l-31.092-53.606c5.408-8.292 6.625-18.686 3.234-27.891-2.308-6.263-2.468-4.673-46.595-67.818 76.536 2.882 129.75 3.953 180.665-50.918 1.287-1.387 2.002-3.209 2.002-5.102 0-8.588 0-186.307 0-194.756-.001-4.144-3.359-7.502-7.501-7.502zm-279.431 284.55-19.028-26.996c12.713-.621 25.58-.987 38.837-1.107zm17.775 168.689c-14.352 4.287-34.221-3.763-42.481-20.903-2.739-5.684-10.884-5.627-13.554.089-6.441 13.277-20.118 21.85-34.869 21.85-14.785 0-28.488-8.611-34.911-21.939-2.721-5.644-10.788-5.652-13.513 0-6.423 13.328-20.127 21.939-34.912 21.939-14.726 0-28.382-8.544-34.837-21.786-2.639-5.799-10.841-5.847-13.585-.153-1.237 2.565-3.063 5.456-5.183 7.989v-92.443c15.461 4.633 38.718.029 53.605-18.162 21.52 26.289 61.608 26.547 83.334 0 14.831 18.118 43.06 26.361 62.998 13.923 9.64 16.621 32.203 55.521 42.144 72.661 8.347 14.397.748 32.479-14.236 36.935zm-227.844-220.519c8.33-3.414 15.821-6.296 23.392-9.057l-23.392 33.186zm61.381-36.915c15.579-22.101 47.66-23.527 65.216-3.248 2.227 2.572-2.975-4.613 72.507 102.472 1.425 2.021 2.45 3.908 3.136 5.768 3.796 10.297.306 22.529-8.935 29.229-6.471 4.65-13.343 4.517-13.243 4.499-15.533.573-29.805-8.297-36.367-21.912-2.407-4.992-9.26-5.732-12.675-1.347-.999 1.282-1.869 4.11-5.225 8.383-7.147 9.095-18.352 14.903-30.522 14.903-14.08 0-28.138-8.041-34.837-21.786-2.64-5.801-10.837-5.855-13.585-.152-7.794 16.17-25.937 24.246-40.216 21.465-3.945-.77-6.331-2.226-6.634-2.337v-48.856c8.671-12.303 53.791-76.314 61.38-87.081zm-61.381 264.496c4.327-2.898 8.472-6.609 11.939-10.858 21.52 26.29 61.606 26.547 83.334-.001 21.711 26.524 61.798 26.31 83.335.001 16.026 19.578 46.941 27.398 67.019 11.061l18.853 36.496h-264.48zm281.364 36.699-23.735-45.946c4.994-2.177 9.84-5.527 13.833-9.855 16.316 17.657 43.941 17.652 60.252 0 11.967 12.952 33.032 18.039 47.736 7.967l24.711 47.834zm83.276-57.739c-9.472 1.457-21.079-3.932-26.17-14.495-2.723-5.645-10.873-5.641-13.551.083-9.439 19.408-37.293 19.438-46.701-.083-2.721-5.644-10.788-5.652-13.513 0-1.442 2.994-2.944 4.649-4.201 6.196.382-8.008-1.706-15.732-5.448-22.184-2.703-4.661-23.53-40.567-26.081-44.966 4.594-2.221 8.894-5.416 12.361-9.175 16.314 17.655 43.939 17.652 60.25-.002 11.183 12.104 30.392 17.341 44.789 9.735l29.435 50.749c5.814 10.022-.443 22.517-11.17 24.142zm-17.787-107.981c2.699 7.326-.356 15.85-7.263 19.693-8.749 4.82-24.813.579-31.247-12.77-1.948-4.041-7.042-5.491-10.811-3.053-2.973 1.911-2.312 3.719-6.038 8.236-11.752 14.242-34.535 12.464-43.468-5.292-2.808-5.577-10.761-5.464-13.448.109-2.258 4.685-6.088 8.849-11.003 11.527-.583.317-1.26.659-2.161 1.046l-10.271-17.708c7.112-10.027 9.177-22.101 6.467-33.182 32.797-46.435 30.871-44.004 32.631-46.066 10.517-11.951 27.211-12.624 38.346-3.918 4.551 3.538 1.231-.33 56.247 77.686.927 1.311 1.586 2.519 2.019 3.692z"/></svg>