<svg id="Capa_1" enable-background="new 0 0 512 512" height="512" viewBox="0 0 512 512" width="512" xmlns="http://www.w3.org/2000/svg"><path d="m7.5 353.88v-320.82c22.35-11.18 48.65-11.18 71 0 11.18 5.59 23.34 8.39 35.5 8.39s24.32-2.8 35.5-8.39 23.34-8.39 35.5-8.39 24.32 2.8 35.5 8.39 23.34 8.39 35.5 8.39 24.32-2.8 35.5-8.39 23.34-8.39 35.5-8.39 24.32 2.8 35.5 8.39 23.34 8.39 35.5 8.39 24.32-2.8 35.5-8.39 23.34-8.39 35.5-8.39 24.32 2.8 35.5 8.39v320.82l-268.526 100.656z" fill="#a4e6ff"/><path d="m37.5 24.874c-10.309.716-20.511 3.439-30 8.186v320.82l30 13.217z" fill="#5bd6fd"/><path d="m343.785 277.247c-7.21-4.17-12.328-11.221-14.06-19.368-1.197-5.634-3.637-11.245-7.356-16.369-12.442-17.14-34.495-22.347-49.257-11.631s-16.643 33.298-4.201 50.437c3.72 5.124 8.299 9.181 13.285 12.065 7.21 4.17 12.328 11.221 14.06 19.368 1.197 5.634 3.637 11.245 7.356 16.369 3.72 5.124 8.299 9.181 13.285 12.065 7.21 4.17 12.328 11.221 14.06 19.368 1.197 5.634 3.637 11.245 7.356 16.369 12.442 17.14 34.495 22.347 49.257 11.631s16.643-33.298 4.201-50.437c-3.72-5.124-8.299-9.181-13.285-12.065-7.21-4.17-12.328-11.221-14.06-19.368-1.197-5.634-3.637-11.245-7.356-16.369s-8.298-9.181-13.285-12.065z" fill="#00c071"/><path d="m437.671 256.524c-3.385-7.611-3.385-16.323 0-23.933 2.341-5.263 3.663-11.236 3.663-17.568 0-21.18-14.788-38.349-33.029-38.349s-33.029 17.169-33.029 38.349c0 6.332 1.322 12.305 3.663 17.568 3.385 7.611 3.385 16.323 0 23.933-2.341 5.263-3.663 11.236-3.663 17.568s1.322 12.305 3.663 17.568c3.385 7.611 3.385 16.323 0 23.933-2.341 5.263-3.663 11.236-3.663 17.568 0 21.18 14.788 38.349 33.029 38.349s33.029-17.169 33.029-38.349c0-6.332-1.322-12.305-3.663-17.568-3.385-7.611-3.385-16.323 0-23.933 2.341-5.263 3.663-11.236 3.663-17.568s-1.322-12.305-3.663-17.568z" fill="#36d39a"/><path d="m162.835 390.935.035-.026c11.374-8.607 11.374-25.699 0-34.306l-.035-.026.009-.03c4.145-13.653-5.91-27.484-20.176-27.754l-.04-.001v-.001c-4.664-13.498-20.944-18.787-32.651-10.608l-.007.005-.007-.005c-11.706-8.179-27.987-2.89-32.651 10.608l-.041.001c-14.266.27-24.321 15.101-20.176 28.754l.009 9.031z" fill="#817cd0"/><path d="m193.92 115.88c-5.33-1.16-10.83-1.77-16.46-1.77-8.17 0-16.07 1.28-23.54 3.66-2.447.826-28.015 39.55-28.015 39.55v39.953l28.015 42.147c7.47 2.38 15.37 3.66 23.54 3.66 5.63 0 11.13-.61 16.46-1.77z" fill="#5c586f"/><path d="m111.903 191.238c-2.952 7.574-7.418 15.048-13.329 21.337-4.358 4.636-9.883 8.91-16.759 10.777-5.854 1.589-13.349 1.659-18.78-1.291-11.611-6.308-7.51-21.573-2.306-33.184 2.973-6.633 2.973-13.93 0-20.563-5.204-11.611-9.305-26.876 2.306-33.184 5.43-2.95 12.926-2.88 18.78-1.291 6.876 1.867 12.402 6.14 16.759 10.777 5.911 6.289 10.377 13.763 13.329 21.337z" fill="#5c586f"/><path d="m98.574 186.575c-4.358 4.636-9.883 8.91-16.759 10.777-5.854 1.589-13.349 1.659-18.78-1.291-1.63-.886-2.941-1.953-3.992-3.157-4.238 10.896-6.317 23.556 3.992 29.157 5.43 2.95 12.926 2.88 18.78 1.291 6.876-1.867 12.402-6.14 16.759-10.777 5.911-6.289 10.377-13.763 13.329-21.337v-25.285c-.047-.119-.101-.238-.149-.358-2.951 7.451-7.362 14.79-13.18 20.98z" fill="#423e4f"/><path d="m153.92 239.42c.278.089.561.165.841.25 2.534.776 5.112 1.437 7.736 1.953 4.856.956 9.857 1.456 14.963 1.456 5.63 0 11.13-.61 16.46-1.77v-30c-5.33 1.16-10.83 1.77-16.46 1.77-8.17 0-16.07-1.28-23.54-3.66-3.854-1.23-7.594-2.755-11.2-4.551z" fill="#423e4f"/><path d="m153.92 117.77c-25.022 7.987-45.271 28.382-54.952 54.759-1.437 3.916-1.437 8.225 0 12.141 9.68 26.377 29.93 46.762 54.952 54.749-7.04-17.92-10.82-38.94-10.82-60.82 0-21.879 3.78-42.909 10.82-60.829z" fill="#fab659"/><path d="m255.22 186.6c-10.89 27.85-33.68 48.7-61.3 54.71-.78-1.2-1.55-2.46-2.3-3.79-8.59-15.23-13.52-36.71-13.52-58.92 0-22.22 4.93-43.7 13.52-58.93.75-1.33 1.52-2.59 2.3-3.79 27.62 6.01 50.41 26.86 61.3 54.71 2.01 5.15 2.01 10.86 0 16.01z" fill="#fab659"/><path d="m145.138 206.017c-18.178-8.305-33.164-23.394-42.375-42.417-4.197 8.669-6.331 14.159-3.795 21.071 7.814 21.29 23.027 39.828 43.594 50.122 3.655 1.829 7.448 3.38 11.357 4.628-4.029-10.259-6.985-21.535-8.781-33.404z" fill="#f59e18"/><path d="m253.617 166.758c-.471-1.064-.955-2.121-1.46-3.163-11.774 24.315-32.983 42.22-58.237 47.715-3.826.833-7.741 1.377-11.728 1.62 2.281 9.165 5.458 17.55 9.428 24.59.75 1.33 1.52 2.59 2.3 3.79 28.287-6.155 50.681-27.552 61.3-54.71.976-2.501 1.507-5.212 1.507-8.005.001-4.642-1.298-7.726-3.11-11.837z" fill="#f59e18"/><circle cx="298.615" cy="153.256" fill="#fff" r="18.641"/><circle cx="342.644" cy="90.615" fill="#fff" r="25.048"/><path d="m504.5 353.88s-114.7-12.893-268.526 51.746v48.911h207.921l60.605-37.267z" fill="#00c071"/><path d="m499.168 387.747c-41.883 7.564-79.369 11.241-114.605 11.241-.009 0-.021 0-.029 0-38.932-.002-71.371-4.529-100.987-11.427-15.358 5.223-31.242 11.203-47.573 18.065v48.911h207.921l60.605-37.267v-30.486z" fill="#00a45b"/><path d="m102.243 314.795c-10.233-2.24-21.233 3.293-24.931 13.995l-.041.001c-14.266.27-24.321 15.101-20.176 28.754l.009 9.031 45.69 10.526c-24.532-27.318-11.412-50.382-.551-62.307z" fill="#635ac5"/><path d="m504.5 417.27v70.06h-497v-133.45c187.89 0 235.7 110.58 497 63.39z" fill="#36d39a"/><path d="m7.5 353.88v133.45h30v-132.476c-9.611-.633-19.589-.974-30-.974z" fill="#00c071"/><path d="m272.474 153.253c0 14.414 11.727 26.141 26.141 26.141s26.141-11.727 26.141-26.141-11.727-26.141-26.141-26.141-26.141 11.727-26.141 26.141zm37.281 0c0 6.143-4.998 11.141-11.141 11.141-6.144 0-11.141-4.998-11.141-11.141s4.997-11.141 11.141-11.141c6.143 0 11.141 4.998 11.141 11.141z"/><path d="m342.644 123.161c17.947 0 32.549-14.601 32.549-32.548s-14.601-32.548-32.549-32.548-32.548 14.601-32.548 32.548 14.6 32.548 32.548 32.548zm0-50.097c9.676 0 17.549 7.872 17.549 17.548s-7.872 17.548-17.549 17.548-17.548-7.872-17.548-17.548 7.871-17.548 17.548-17.548z"/><path d="m220.502 185.184c4.143 0 7.5-3.358 7.5-7.5v-12c0-4.142-3.357-7.5-7.5-7.5-4.142 0-7.5 3.358-7.5 7.5v12c0 4.142 3.359 7.5 7.5 7.5z"/><path d="m504.5 150.43c-4.142 0-7.5 3.358-7.5 7.5v187.863c-10.571-.661-29.214-.77-49.878.589 2.882-10.865 2.204-23.041-2.599-33.839-2.521-5.667-2.521-12.169 0-17.837 5.754-12.935 5.758-28.285 0-41.233-2.521-5.667-2.521-12.169 0-17.837 13.488-30.327-6.039-66.465-36.219-66.465-30.116 0-49.736 36.072-36.218 66.466 2.521 5.667 2.521 12.169 0 17.837-5.754 12.936-5.759 28.286 0 41.232 1.982 4.456 2.399 9.424 1.265 14.1-.692-1.488-1.241-3.051-1.588-4.686-2.944-13.848-11.957-26.273-24.223-33.367-5.37-3.106-9.189-8.367-10.479-14.436-6.82-32.081-43.592-50.486-68.356-32.51-24.371 17.692-19.06 58.41 9.735 75.064 5.37 3.106 9.189 8.368 10.479 14.436 2.943 13.847 11.955 26.272 24.222 33.367 5.37 3.106 9.189 8.367 10.479 14.435.428 2.016.99 4.005 1.671 5.959-30.256 8.122-60.708 18.527-89.674 30.578-19.672-6.137-37.463-12.49-57.116-19.165 1.443-8.818-1.253-17.948-7.449-24.565 1.965-15.24-8.489-29.357-23.354-32.134-7.288-13.294-23.877-18.774-37.721-12.237-13.709-6.491-30.414-1.172-37.76 12.274-12.516 2.487-22.065 13.339-23.386 26.416-10.17-.942-22.334-1.616-33.833-1.799v-55.341c0-4.142-3.358-7.5-7.5-7.5-4.143 0-7.5 3.358-7.5 7.5v196.232c0 4.142 3.358 7.5 7.5 7.5h497c4.142 0 7.5-3.358 7.5-7.5 0-17.233 0-317.134 0-329.397.002-4.142-3.356-7.5-7.498-7.5zm-245.571 254.044c90.83-34.969 178.584-47.033 238.071-43.642v50.142c-83.045 14.385-157.14 15.519-238.071-6.5zm126.863-174.934c-9.017-20.274 3.141-45.37 22.513-45.37 19.407 0 31.509 25.142 22.514 45.369-4.245 9.542-4.245 20.488 0 30.029 4.023 9.046 4.015 20.014 0 29.041-4.244 9.542-4.244 20.488 0 30.029 3.941 8.86 4.104 19.832-.007 29.053-4.93.469-9.089.913-15.006 1.629v-132.222c0-4.142-3.358-7.5-7.5-7.5s-7.5 3.358-7.5 7.5v134.239c-2.879.421-10.476 1.612-11.873 1.844-6.967-9.822-8.012-23.587-3.141-34.541 4.245-9.542 4.245-20.487 0-30.03-4.023-9.045-4.015-20.014 0-29.041 4.244-9.541 4.244-20.487 0-30.029zm-65.139 104.15c-8.692-5.027-15.034-13.971-17.061-23.501-2.171-10.214-8.6-19.072-17.641-24.302-19.158-11.079-24.142-38.538-8.434-49.941 15.637-11.351 40.244 1.714 44.872 23.49 2.171 10.215 8.601 19.073 17.641 24.301 8.57 4.957 15.006 13.838 17.06 23.501 1.603 7.541 5.481 14.306 11.088 19.468-1.148 9.289.242 18.449 3.524 26.218l-68.773-94.738c-2.433-3.353-7.123-4.096-10.475-1.664-3.352 2.433-4.097 7.123-1.664 10.475l66.91 92.171c-5.953 1.288-11.903 2.653-17.828 4.105-.671-1.727-1.199-3.492-1.579-5.284-2.171-10.214-8.601-19.071-17.64-24.299zm-243.251 2.598c3.165-.038 5.966-2.059 7-5.051 2.766-8.007 12.396-12.619 21.513-6.743 2.559 1.645 5.864 1.576 8.357-.166 7.627-5.329 18.227-1.891 21.267 6.91 1.027 2.974 3.842 4.99 6.988 5.05 9.287.176 15.847 9.164 13.137 18.088-.922 3.011.169 6.305 2.681 8.205 3.543 2.681 5.499 6.794 5.555 11.016-29.726-9.744-62.37-19.012-100.166-23.771.67-7.181 6.43-13.401 13.668-13.538zm419.598 143.54h-482v-118.388c179.631 2.855 228.692 107.86 482 64.758z"/><path d="m507.854 26.35c-24-12-52.771-12.469-77.708 0-19.86 9.93-43.654 10.319-64.292 0-24-12-52.771-12.469-77.708 0-19.86 9.931-43.654 10.319-64.292 0-23.951-11.976-52.722-12.494-77.708 0-19.859 9.93-43.653 10.319-64.291.001-24.33-12.171-53.38-12.171-77.71 0-2.54 1.27-4.145 3.866-4.145 6.707v228.038c0 4.142 3.357 7.5 7.5 7.5 4.142 0 7.5-3.358 7.5-7.5v-223.239c19.223-8.112 41.381-7.477 60.146 1.909 23.999 12 52.77 12.47 77.708 0 19.859-9.93 43.655-10.318 64.292 0 23.999 12 52.77 12.47 77.708 0 19.859-9.93 43.656-10.318 64.292 0 24 12 52.769 12.47 77.708 0 18.744-9.372 40.658-10.137 60.146-1.909v90.073c0 4.142 3.358 7.5 7.5 7.5s7.5-3.358 7.5-7.5v-94.872c0-2.841-1.605-5.438-4.146-6.708z"/><path d="m48.083 207.177c-.576 15.531 10.233 24.772 25.59 24.772 13.651 0 24.452-6.879 33.214-17.492 11.631 15.138 27.216 26.506 44.753 32.104.001 0 .002 0 .004.001 45.219 14.406 92.41-10.813 110.562-57.234.077-.413 4.501-9.938 0-21.473-18.095-46.277-65.224-71.679-110.562-57.234-1.393.713-25.178 6.626-44.754 32.109-7.703-9.333-15.604-14.095-23.108-16.132-18.535-5.034-36.435 3.518-35.698 23.41.226 6.092 2.178 13.282 5.803 21.371 2.085 4.652 2.085 9.776 0 14.428-3.627 8.088-5.579 15.278-5.804 21.37zm200.15-33.863c1.328 3.403 1.329 7.15.002 10.552-9.44 24.142-28.165 42.03-50.72 48.774-15.505-28.814-16.251-77.852 0-108.096 22.554 6.745 41.28 24.632 50.718 48.77zm-66.117-51.551c-15.625 33.203-15.009 81.679 0 113.659-7.578.505-15.178-.226-22.496-2.155-12.117-33.608-11.929-76.272 0-109.349 7.318-1.929 14.92-2.661 22.496-2.155zm-40.559 9.738c-8.172 30.71-7.694 65.286 0 94.184-16.672-9.845-29.035-25.858-35.547-43.601-1.568-4.271.112-7.593 2.06-12.044 7.322-16.717 19.286-30.151 33.487-38.539zm-74.941 10.217c1.788-.972 4.307-1.47 7.039-1.47 10.654 0 18.524 7.126 24.542 15.816-2.834 5.241-5.349 11.13-6.514 14.652-1.777 5.373-1.71 11.21.245 16.537 1.742 4.749 4.122 9.923 6.267 13.873-4.47 6.451-10.737 12.92-18.345 14.986-4.806 1.304-10.125 1.046-13.234-.644-6.372-3.462-2.996-14.704.958-23.525 3.858-8.609 3.858-18.09 0-26.699-3.954-8.822-7.33-20.065-.958-23.526z"/></svg>