<svg id="Capa_1" enable-background="new 0 0 512 512" height="512" viewBox="0 0 512 512" width="512" xmlns="http://www.w3.org/2000/svg"><path d="m7.5 17.877c.787-.047 1.579-.078 2.379-.078 18.648 0 34.262 12.963 38.336 30.369.872 3.724 4.337 6.185 8.141 5.789 1.157-.12 2.331-.182 3.52-.182 18.757 0 33.962 15.205 33.962 33.962v.03c-.002 1.503 1.294 2.64 2.786 2.46 2.792-.337 5.689-.336 8.651.058 15.64 2.081 27.919 14.958 29.27 30.678.516 6.005-.547 11.711-2.799 16.771.119-.001.237-.009.356-.009 18.757 0 33.962 15.205 33.962 33.962s-15.205 33.962-33.962 33.962l-124.602-30.04z" fill="#80dfb5"/><path d="m37.5 175.609v-146.482c-7.107-7.001-16.856-11.328-27.621-11.328-.799 0-1.591.031-2.379.078v157.732z" fill="#36d39a"/><path d="m504.5 17.877c-.787-.047-1.579-.078-2.379-.078-18.648 0-34.262 12.963-38.336 30.369-.872 3.724-4.337 6.185-8.141 5.789-1.157-.12-2.331-.182-3.52-.182-18.757 0-33.962 15.205-33.962 33.962v.03c.002 1.503-1.294 2.64-2.786 2.46-2.792-.337-5.689-.336-8.651.058-15.64 2.081-27.919 14.958-29.27 30.678-.516 6.005.547 11.711 2.799 16.771-.119-.001-.237-.009-.356-.009-18.757 0-33.962 15.205-33.962 33.962s15.205 33.962 33.962 33.962l124.602-30.04z" fill="#80dfb5"/><path d="m504.5 362.069v-186.46h-497v186.46h28.28l65.243-57.135 100.66-36.095 57.32-8.177 65.243 8.177 75.029 28.173 80.155 65.057z" fill="#e27858"/><path d="m37.5 175.609h-30v186.46h28.28l1.72-1.506z" fill="#ca5935"/><path d="m504.5 362.069v30.94l-17.68 15.07c-43.28-74.77-130.5-125.97-230.82-125.97-100.34 0-187.57 51.22-230.84 126.01l-17.66-15.11v-30.94c10.82-14.5 23.26-28.15 37.23-40.77 56.54-51.06 131.57-79.19 211.27-79.19 79.71 0 154.73 28.13 211.27 79.19 13.97 12.62 26.41 26.27 37.23 40.77z" fill="#ed9b83"/><path d="m37.5 328.082c-11.06 10.689-21.088 22.044-30 33.987v30.94l17.66 15.11c3.782-6.537 7.907-12.889 12.34-19.048z" fill="#e27858"/><path d="m7.5 393.01c22.346-11.181 48.654-11.181 71 0 22.346 11.181 48.654 11.181 71 0 22.346-11.181 48.654-11.181 71 0 22.346 11.181 48.654 11.181 71 0 22.346-11.181 48.654-11.181 71 0 22.346 11.181 48.654 11.181 71 0 22.346-11.181 48.654-11.181 71 0v101.192h-497z" fill="#5bd6fd"/><path d="m37.5 384.823c-10.31.716-20.512 3.44-30 8.187v101.191h30z" fill="#00b4fb"/><path d="m163.521 220.03c4.142 0 7.5-3.358 7.5-7.5v-13.77c0-4.142-3.358-7.5-7.5-7.5s-7.5 3.358-7.5 7.5v13.771c0 4.141 3.358 7.499 7.5 7.499z"/><path d="m348.478 220.03c4.142 0 7.5-3.358 7.5-7.5v-13.77c0-4.142-3.358-7.5-7.5-7.5s-7.5 3.358-7.5 7.5v13.771c0 4.141 3.358 7.499 7.5 7.499z"/><path d="m279.929 215.32c2.721-3.123 2.396-7.86-.727-10.582-3.123-2.721-7.861-2.396-10.582.727-6.672 7.656-18.551 7.679-25.242 0-2.721-3.123-7.459-3.448-10.582-.727s-3.448 7.458-.727 10.582c12.64 14.504 35.184 14.544 47.86 0z"/><path d="m504.946 10.387c-23.024-1.367-43.256 13.829-48.524 36.107-22.639-2.359-42.616 13.964-45.424 35.985-25.667.179-45.054 23.562-40.507 48.818-17.219 4.01-30.353 18.78-31.9 36.809h-165.181c-1.548-18.028-14.681-32.799-31.9-36.809 4.556-25.308-14.913-48.64-40.503-48.818-2.605-20.504-20.527-37.868-45.49-36.023-5.192-22.184-25.385-37.44-48.463-36.069-3.962.236-7.054 3.517-7.054 7.487v476.325c0 4.142 3.358 7.5 7.5 7.5h497c4.142 0 7.5-3.358 7.5-7.5 0-18.929 0-459.758 0-476.325 0-3.97-3.092-7.251-7.054-7.487zm-125.111 134.834.357.008c5.262.125 9.182-5.453 6.914-10.549-8.249-18.531 6.815-39.497 27.369-37.011 5.933.714 11.194-3.874 11.188-9.936 0-15.642 13.584-27.95 29.207-26.319 7.522.776 14.497-4.18 16.219-11.54 2.991-12.78 13.292-22.155 25.912-24.172v142.405h-143.324c1.749-12.886 12.809-22.854 26.158-22.886zm-364.835-119.52c12.619 2.017 22.921 11.393 25.912 24.172 1.723 7.361 8.69 12.329 16.222 11.54 15.566-1.621 29.204 10.62 29.204 26.343-.006 6.024 5.257 10.636 11.185 9.913 20.472-2.459 35.657 18.401 27.372 37.011-1.037 2.33-.819 5.027.579 7.161 2.508 3.827 6.58 3.357 6.68 3.38 13.355.025 24.421 9.996 26.17 22.885h-61.731c-4.142 0-7.5 3.358-7.5 7.5s3.358 7.5 7.5 7.5h400.408v157.746c-20.79-23.849-46.495-45.424-76.422-62.785-3.584-2.079-8.173-.859-10.251 2.724-2.079 3.583-.859 8.172 2.724 10.251 32.998 19.143 61.65 44.258 83.948 73.566v17.14c-7.068-2.415-14.395-3.892-21.911-4.414-106.559-136.784-331.489-136.95-438.175 0-7.516.521-14.845 1.999-21.914 4.414v-17.14c85.543-112.45 245.763-144.686 372.265-86.902 3.68 1.682 8.187.13 9.938-3.706 1.71-3.743.086-8.206-3.706-9.938-124.338-56.795-283.858-31.743-378.497 76.789v-157.745h51.593c4.142 0 7.5-3.358 7.5-7.5s-3.358-7.5-7.5-7.5h-51.593zm441.329 352.391c-9.028 1.319-17.882 4.053-26.186 8.208-20.128 10.07-44.16 10.07-64.288 0-24.33-12.173-53.382-12.173-77.712 0-20.128 10.07-44.16 10.071-64.288 0-24.33-12.173-53.382-12.173-77.712 0-20.128 10.07-44.16 10.071-64.288 0-8.303-4.154-17.156-6.888-26.183-8.207 47.74-55.647 121.535-88.487 200.328-88.487s152.589 32.839 200.329 88.486zm-441.329 108.607v-88.884c18.727-7.955 41.035-7.662 60.144 1.899 24.33 12.174 53.381 12.174 77.712 0 20.127-10.071 44.161-10.071 64.288 0 24.33 12.174 53.382 12.174 77.712 0 20.127-10.071 44.16-10.071 64.289 0 24.33 12.174 53.382 12.174 77.712 0 18.937-9.474 41.245-9.935 60.144-1.9v88.884h-482.001z"/></svg>