<svg id="Capa_1" enable-background="new 0 0 512.022 512.022" height="512" viewBox="0 0 512.022 512.022" width="512" xmlns="http://www.w3.org/2000/svg"><path d="m504.511 249.484-102.868-162.341c-5.83-9.201-15.965-14.778-26.858-14.778s-21.028 5.576-26.858 14.778l-173.978 274.562 145.774 42.065 75.591 1.97 109.197-43.766z" fill="#fab659"/><path d="m203.949 361.705 173.977-274.562c2.983-4.708 7.097-8.458 11.858-11.006-4.545-2.433-9.68-3.771-15-3.771-10.893 0-21.028 5.576-26.858 14.778l-173.977 274.561z" fill="#f59e18"/><path d="m184.287 190.033c-4.044-6.382-11.073-10.249-18.628-10.249s-14.584 3.868-18.628 10.249l-120.668 190.431 200.832 52.694 92.528-29.387z" fill="#f8e86a"/><path d="m56.363 380.464 120.668-190.431c1.029-1.624 2.253-3.083 3.628-4.359-4.029-3.738-9.367-5.89-15-5.89-7.555 0-14.584 3.867-18.628 10.249l-120.668 190.431z" fill="#fab659"/><path d="m504.511 431.185v-69.212s-144.116-3.962-233.867 42.294v54.399h212.542z" fill="#f59e18"/><path d="m7.511 347.724c221.22-15.267 317.814 139.442 497 83.461v62.038h-497v-145.499z" fill="#fab659"/><circle cx="104.902" cy="91.775" fill="#f8e86a" r="41.567"/><path d="m124.902 113.342c-22.957 0-41.567-18.61-41.567-41.567 0-6.308 1.412-12.284 3.927-17.64-14.135 6.636-23.927 20.992-23.927 37.64 0 22.957 18.61 41.567 41.567 41.567 16.649 0 31.004-9.792 37.64-23.927-5.356 2.514-11.332 3.927-17.64 3.927z" fill="#fab659"/><path d="m318.09 260.547v-12.334c0-4.142-3.358-7.5-7.5-7.5s-7.5 3.358-7.5 7.5v12.334c0 4.142 3.358 7.5 7.5 7.5s7.5-3.358 7.5-7.5z"/><path d="m446.456 260.547v-12.334c0-4.142-3.358-7.5-7.5-7.5s-7.5 3.358-7.5 7.5v12.334c0 4.142 3.358 7.5 7.5 7.5s7.5-3.358 7.5-7.5z"/><path d="m397.349 265.107c2.722-3.123 2.396-7.86-.726-10.582-3.123-2.722-7.86-2.396-10.582.726-2.845 3.265-6.952 5.137-11.268 5.137-4.315 0-8.422-1.872-11.268-5.137-2.722-3.123-7.459-3.448-10.582-.726-3.123 2.721-3.448 7.459-.726 10.582 11.949 13.709 33.217 13.694 45.152 0z"/><path d="m111.227 297.22c-4.142 0-7.5 3.358-7.5 7.5v10.457c0 4.142 3.358 7.5 7.5 7.5s7.5-3.358 7.5-7.5v-10.457c0-4.142-3.358-7.5-7.5-7.5z"/><path d="m220.068 322.677c4.142 0 7.5-3.358 7.5-7.5v-10.457c0-4.142-3.358-7.5-7.5-7.5s-7.5 3.358-7.5 7.5v10.457c0 4.143 3.358 7.5 7.5 7.5z"/><path d="m185.649 319.794c2.722-3.123 2.396-7.86-.726-10.582-3.123-2.722-7.86-2.397-10.582.726-4.607 5.285-12.786 5.28-17.388 0-2.722-3.123-7.459-3.448-10.582-.726-3.123 2.721-3.448 7.459-.726 10.582 10.586 12.145 29.43 12.132 40.004 0z"/><path d="m55.823 91.775c0 27.056 22.011 49.067 49.067 49.067s49.067-22.011 49.067-49.067-22.011-49.067-49.067-49.067-49.067 22.011-49.067 49.067zm49.067-34.067c18.785 0 34.067 15.282 34.067 34.067s-15.282 34.067-34.067 34.067-34.067-15.282-34.067-34.067 15.282-34.067 34.067-34.067z"/><path d="m112.39 30.302v-11.503c0-4.142-3.358-7.5-7.5-7.5s-7.5 3.358-7.5 7.5v11.502c0 4.142 3.358 7.5 7.5 7.5s7.5-3.357 7.5-7.499z"/><path d="m151.188 34.87-8.134 8.133c-4.739 4.739-1.317 12.803 5.303 12.803 1.919 0 3.839-.732 5.303-2.197l8.134-8.133c2.929-2.929 2.929-7.677 0-10.606-2.927-2.929-7.676-2.929-10.606 0z"/><path d="m177.866 99.275c4.142 0 7.5-3.358 7.5-7.5s-3.358-7.5-7.5-7.5h-11.502c-4.142 0-7.5 3.358-7.5 7.5s3.358 7.5 7.5 7.5z"/><path d="m143.055 129.939c-2.929 2.929-2.929 7.678 0 10.606l8.134 8.134c1.464 1.464 3.384 2.197 5.303 2.197 6.622 0 10.042-8.066 5.303-12.803l-8.134-8.134c-2.929-2.929-7.678-2.929-10.606 0z"/><path d="m97.39 153.248v11.502c0 4.142 3.358 7.5 7.5 7.5s7.5-3.358 7.5-7.5v-11.502c0-4.142-3.358-7.5-7.5-7.5s-7.5 3.358-7.5 7.5z"/><path d="m56.119 129.939-8.134 8.134c-4.739 4.738-1.318 12.803 5.303 12.803 1.919 0 3.839-.732 5.303-2.197l8.134-8.134c2.929-2.929 2.929-7.678 0-10.606-2.928-2.929-7.677-2.929-10.606 0z"/><path d="m31.915 84.275c-4.142 0-7.5 3.358-7.5 7.5s3.358 7.5 7.5 7.5h11.502c4.142 0 7.5-3.358 7.5-7.5s-3.358-7.5-7.5-7.5z"/><path d="m58.592 34.87c-2.929-2.93-7.678-2.929-10.606 0-2.929 2.929-2.929 7.678 0 10.606l8.134 8.133c2.928 2.929 7.677 2.929 10.606 0s2.929-7.678 0-10.606z"/><path d="m407.967 83.129c-15.474-24.42-51.005-24.277-66.387 0l-63.738 100.587c-2.217 3.499-1.178 8.132 2.321 10.35 3.498 2.217 8.132 1.177 10.35-2.321l63.737-100.588c9.548-15.069 31.517-15.04 41.046 0l101.704 160.503v102.716c-57.743-.228-128.791 7.258-184.044 24.719l-70.58-111.385 32.817-51.79c2.217-3.499 1.178-8.132-2.321-10.35-3.499-2.217-8.133-1.177-10.349 2.321l-29.026 45.807-42.886-67.681c-11.615-18.33-38.334-18.295-49.927 0l-97.075 153.2c-11.85-.157-24.046.157-36.625 1.024-3.933.272-6.984 3.541-6.984 7.483v145.5c0 4.142 3.358 7.5 7.5 7.5h497c4.142 0 7.5-3.358 7.5-7.5 0-51.146 0-193.794 0-243.739 0-4.129 4.245 5.307-104.033-166.356zm-346.943 256.63 92.331-145.712c5.72-9.025 18.878-9.009 24.586 0 11.414 18.014 108.368 171.021 120.404 190.015-10.346 3.789-19.972 7.959-28.06 11.978-71.495-28.767-131.45-52.167-209.261-56.281zm435.976 145.964h-482v-130.945c171.332-9.182 267.81 86.831 393.709 95.54 4.129.289 7.713-2.832 8-6.964.286-4.132-2.832-7.714-6.964-8-42.036-2.909-81.159-16.36-120.209-31.649 59.127-25.21 142.86-34.303 207.464-34.303v56.208c-19.751 5.769-39.089 9.089-58.578 10.042-7.325.361-9.706 9.87-3.727 13.774 2.452 1.573 3.851 1.362 12.087.716 15.999-1.259 32.752-4.103 50.218-8.932z"/></svg>