<svg id="Capa_1" enable-background="new 0 0 512 512" height="512" viewBox="0 0 512 512" width="512" xmlns="http://www.w3.org/2000/svg"><path d="m406.691 73.672c-.661-5.113-3.642-9.635-8.079-12.259l-8.55-5.056c-3.552-2.1-6.203-5.439-7.444-9.375l-4.892-15.52c-1.775-5.63-8.027-8.493-13.448-6.157l-16.402 7.066c-4.85 2.089-8.296 6.512-9.137 11.725l-3.89 24.118c-1.127 6.988-4.791 13.315-10.29 17.772l-24.863 20.148c-4.645 3.764-8.002 8.882-9.604 14.641l-10.699 38.457c-2.127 7.646-7.635 13.899-14.951 16.975l-38.294 16.101v109.048h139.484l55.175-118.563z" fill="#5bd6fd"/><path d="m239.865 219.225 44.701-18.795c8.54-3.591 14.969-10.89 17.452-19.815l12.489-44.891c1.871-6.723 5.789-12.697 11.211-17.091l29.023-23.518c6.419-5.202 10.696-12.588 12.012-20.745l4.541-28.153c.777-4.818 3.465-9.051 7.359-11.819l-.926-2.937c-1.775-5.63-8.027-8.492-13.448-6.157l-16.402 7.066c-4.85 2.089-8.296 6.512-9.137 11.725l-3.89 24.118c-1.127 6.988-4.791 13.315-10.29 17.771l-24.863 20.147c-4.645 3.764-8.002 8.882-9.604 14.642l-10.699 38.457c-2.127 7.646-7.635 13.899-14.951 16.975l-38.294 16.101z" fill="#00b4fb"/><path d="m238.486 178.257c-1.609-7.44-6.103-13.939-12.497-18.07l-8.442-5.455c-5.729-3.701-9.955-9.319-11.923-15.85l-7.839-26.011c-1.489-4.94-5.419-8.764-10.398-10.117l-3.587-.975c-5.502-1.495-9.676-5.989-10.761-11.586l-5.955-30.713c-1.19-6.136-5.263-11.323-10.942-13.933l-30.38-13.964c-5.555-2.553-12.055.634-13.437 6.589l-14.003 60.32c-.944 4.067-3.692 7.48-7.463 9.272l-17.583 8.352c-2.852 1.355-5.148 3.653-6.499 6.506l-23.075 48.714v82.485l131.11 47.534 74.96-48.932v-21.963z" fill="#817cd0"/><path d="m73.702 263.823v-82.485l23.075-48.714c1.352-2.853 3.648-5.152 6.499-6.506l17.583-8.352c3.771-1.791 6.519-5.205 7.463-9.271l14.003-60.32c.704-3.031 2.736-5.339 5.291-6.544l-21.854-10.045c-5.555-2.553-12.055.634-13.437 6.589l-14.003 60.32c-.944 4.067-3.692 7.48-7.463 9.271l-17.583 8.352c-2.852 1.354-5.148 3.653-6.499 6.506l-23.075 48.714v82.485z" fill="#635ac5"/><g fill="#36d39a"><path d="m139.052 253.783c0-18.964-15.373-34.337-34.337-34.337-1.314 0-2.611.074-3.886.218-4.451.503-8.334-2.863-8.698-7.327-.007-.089-.015-.178-.023-.267-1.082-11.856-10.031-21.757-21.713-24.05-.238-.047-.475-.09-.711-.13-5.482-.928-9.642-5.314-10.482-10.811-.016-.105-.033-.21-.05-.315-2.502-15.38-15.634-27.107-31.203-27.738-7.636-.309-14.718 1.986-20.45 6.059v332.426h24.672l67.377-55.518z"/><path d="m215.042 265.192c0-19.181 15.549-34.73 34.73-34.73 5.903 0 11.459 1.477 16.326 4.075 4.526-11.583 14.211-20.574 26.236-24.148.57-13.817 11.947-24.845 25.905-24.845 3.978 0 7.746.899 11.115 2.5 3.072-18.677 19.283-32.927 38.829-32.927 21.739 0 39.361 17.623 39.361 39.361v223.789h-187.283z"/><path d="m429.376 191.025c0-14.258 12.236-25.658 26.779-24.273 10.719 1.021 19.638 9.171 21.582 19.761.013.073.027.147.039.22.638 3.658 3.777 6.372 7.488 6.256.979-.031 1.979.016 2.993.148 9.388 1.217 16.242 9.531 16.242 18.997v275.377h-32.245l-23.787-36.769-4.033-74.513-22.687-89.539z"/></g><path d="m478.005 445.539-11.468-83.292c-.354-2.573-1.097-5.077-2.203-7.426l-17.271-36.701c-2.125-4.516-2.604-9.632-1.355-14.464l7.38-28.535c.729-2.821.875-5.761.428-8.64l-19.683-126.712c-.969-6.235-7.374-10.047-13.316-7.925l-20.015 7.148c-4.618 1.649-8.049 5.579-9.059 10.378l-7.761 36.867c-1.108 5.264-4.201 9.898-8.636 12.942l-24.688 16.943c-2.47 1.695-4.251 4.217-5.023 7.112l-5.775 21.655c-.873 3.272-3.031 6.052-5.984 7.709l-16.354 9.174c-4.808 2.697-8.355 7.185-9.87 12.485l-10.106 35.372c-.924 3.236-.813 6.68.319 9.849l9.146 25.608c1.945 5.445 1.959 11.394.04 16.848l-7.459 21.198c-1.801 5.117-5.196 9.522-9.688 12.564l-16.643 11.275-12.562 47.944 18.06 32.596h193.796l5.156-24.711c1.184-5.677 1.386-11.516.594-17.261z" fill="#ff71a7"/><path d="m290.399 464.916 9.095-34.714c2.234-8.528 7.49-15.955 14.789-20.9l5.32-3.604c4.491-3.043 7.887-7.447 9.688-12.564l7.459-21.198c1.919-5.454 1.905-11.403-.04-16.848l-9.146-25.608c-1.132-3.169-1.243-6.613-.319-9.849l10.106-35.372c1.514-5.301 5.062-9.788 9.87-12.485l16.354-9.174c2.953-1.657 5.112-4.437 5.984-7.709l5.774-21.655c.772-2.894 2.554-5.417 5.023-7.112l24.688-16.943c4.435-3.043 7.528-7.678 8.636-12.942l7.761-36.867c1.01-4.799 4.441-8.729 9.059-10.378l4.514-1.612-1.182-7.612c-.969-6.235-7.374-10.047-13.316-7.925l-20.015 7.148c-4.618 1.649-8.049 5.579-9.059 10.378l-7.761 36.867c-1.108 5.263-4.201 9.898-8.636 12.942l-24.688 16.943c-2.47 1.695-4.252 4.218-5.023 7.112l-5.775 21.655c-.873 3.272-3.031 6.052-5.984 7.709l-16.354 9.174c-4.808 2.697-8.355 7.185-9.87 12.485l-10.106 35.372c-.924 3.236-.813 6.68.319 9.849l9.146 25.608c1.945 5.446 1.959 11.394.04 16.848l-7.459 21.198c-1.801 5.117-5.196 9.521-9.688 12.564l-16.643 11.275-12.562 47.944z" fill="#fa3482"/><path d="m297.249 423.621-20.559-75.382c-.91-3.337-2.928-6.266-5.722-8.305l-16.356-11.935c-3.223-2.352-5.396-5.874-6.052-9.81l-8.028-48.169c-.428-2.565-1.946-4.819-4.163-6.177l-14.596-8.946c-2.192-1.343-3.702-3.562-4.149-6.093l-8.114-45.981c-.998-5.654-4.821-10.402-10.132-12.583l-19.163-7.871c-6.049-2.484-12.934.697-14.963 6.914l-12.079 37.029c-1.446 4.432-4.249 8.298-8.012 11.05l-22.952 16.784c-4.331 3.167-7.471 7.697-8.918 12.864l-5.886 21.021c-1.038 3.707-3.332 6.937-6.49 9.139l-13.431 9.361c-2.988 2.082-5.207 5.09-6.317 8.559l-15.322 47.913c-.419 1.311-.451 2.715-.091 4.043l7.742 28.576c.701 2.588-.106 5.351-2.091 7.154l-16.945 15.395c-.95.863-1.65 1.967-2.026 3.194l-20.264 66.146h266.035v-56.741c.002-2.415-.32-4.819-.956-7.149z" fill="#f8e86a"/><path d="m84.462 418.172 16.945-15.395c1.985-1.803 2.792-4.566 2.091-7.154l-7.742-28.576c-.36-1.328-.328-2.732.091-4.043l15.322-47.913c1.109-3.469 3.329-6.476 6.317-8.559l13.431-9.361c3.158-2.201 5.453-5.432 6.49-9.138l5.886-21.021c1.447-5.167 4.587-9.697 8.918-12.864l22.952-16.784c3.763-2.752 6.566-6.618 8.012-11.05l12.079-37.029c.072-.219.163-.426.246-.637l-15.283-6.277c-6.049-2.484-12.935.697-14.963 6.915l-12.079 37.029c-1.446 4.432-4.249 8.298-8.012 11.05l-22.952 16.784c-4.331 3.167-7.471 7.697-8.918 12.864l-5.886 21.021c-1.038 3.707-3.332 6.938-6.49 9.138l-13.431 9.361c-2.988 2.082-5.207 5.09-6.317 8.559l-15.322 47.913c-.419 1.311-.451 2.715-.091 4.043l7.742 28.576c.701 2.588-.106 5.351-2.091 7.154l-16.945 15.395c-.95.863-1.65 1.967-2.026 3.194l-20.264 66.146h30l20.264-66.146c.375-1.228 1.075-2.331 2.026-3.195z" fill="#fab659"/><path d="m107.491 428.203c4.142 0 7.5-3.358 7.5-7.5v-12.937c0-4.142-3.358-7.5-7.5-7.5s-7.5 3.358-7.5 7.5v12.937c0 4.142 3.358 7.5 7.5 7.5z"/><path d="m242.133 428.203c4.142 0 7.5-3.358 7.5-7.5v-12.937c0-4.142-3.358-7.5-7.5-7.5s-7.5 3.358-7.5 7.5v12.937c0 4.142 3.358 7.5 7.5 7.5z"/><path d="m198.215 425.245c2.722-3.123 2.396-7.86-.726-10.582-3.123-2.721-7.861-2.396-10.582.727-6.408 7.351-17.789 7.344-24.19 0-2.721-3.123-7.46-3.447-10.582-.727-3.123 2.722-3.448 7.459-.726 10.582 12.385 14.211 34.434 14.196 46.806 0z"/><path d="m325.921 417.242c-4.142 0-7.5 3.358-7.5 7.5v10.363c0 4.142 3.358 7.5 7.5 7.5s7.5-3.358 7.5-7.5v-10.363c0-4.142-3.358-7.5-7.5-7.5z"/><path d="m426.281 424.742v10.363c0 4.142 3.358 7.5 7.5 7.5s7.5-3.358 7.5-7.5v-10.363c0-4.142-3.358-7.5-7.5-7.5s-7.5 3.358-7.5 7.5z"/><path d="m398.997 429.143c-3.123-2.721-7.86-2.396-10.582.727-4.537 5.206-12.595 5.201-17.128 0-2.721-3.123-7.459-3.448-10.582-.727s-3.448 7.458-.727 10.582c10.516 12.068 29.241 12.054 39.745 0 2.722-3.124 2.397-7.861-.726-10.582z"/><path d="m485.176 185.49c-.01-.032-.054-.29-.061-.33-3.369-18.355-22.132-30.161-40.474-24.685l-3.395-21.857c-1.521-9.79-10.775-16.321-20.472-14.553l-6.644-51.355c-.964-7.455-5.229-13.926-11.7-17.752l-8.55-5.056c-1.963-1.161-3.422-2.999-4.107-5.174l-4.892-15.521c-3.115-9.882-14.097-14.873-23.569-10.79l-16.402 7.066c-7.243 3.121-12.317 9.632-13.573 17.418l-3.89 24.118c-.834 5.173-3.536 9.839-7.607 13.139l-24.863 20.147c-5.889 4.772-10.076 11.155-12.108 18.458l-10.699 38.457c-1.522 5.471-5.397 9.871-10.632 12.072l-15.888 6.68c-2.163-9.146-7.671-16.972-15.588-22.087l-8.443-5.455c-4.229-2.732-7.359-6.893-8.812-11.714l-7.839-26.011c-2.25-7.467-8.086-13.146-15.613-15.191l-3.586-.975c-2.722-.739-4.828-3.006-5.365-5.776l-5.955-30.712c-1.645-8.487-7.317-15.709-15.172-19.32l-30.38-13.964c-9.88-4.54-21.422 1.136-23.875 11.708l-14.003 60.32c-.429 1.85-1.66 3.378-3.375 4.193l-17.583 8.352c-4.401 2.09-7.974 5.667-10.059 10.07l-13.079 27.612c-13.395-7.843-30.496-7.48-43.765 1.946-1.982 1.41-3.158 3.689-3.158 6.118v188.29c0 4.142 3.358 7.5 7.5 7.5s7.5-3.358 7.5-7.5v-184.096c14.301-7.34 31.787.434 36.119 15.914.573 2.046.631 2.84.67 3.018 1.337 8.752 8.025 15.614 16.643 17.073 8.788 1.489 15.416 8.79 16.208 17.461l.018.202c.7 8.577 8.246 15.157 17.015 14.17 10.29-1.161 20.904 3.706 26.39 13.46-10.32 7.547-18.503 11.955-21.992 24.413l-5.886 21.021c-.546 1.954-1.773 3.764-3.557 5.008l-13.431 9.361c-4.313 3.007-7.571 7.42-9.171 12.427-16.185 50.726-15.361 47.789-15.689 49.329-.484 2.269-.431 4.617.181 6.873l7.685 28.364-16.783 15.248c-1.947 1.769-3.383 4.034-4.153 6.549l-18.639 60.842h-11.628v-106.638c0-4.142-3.358-7.5-7.5-7.5s-7.5 3.358-7.5 7.5v114.137c0 4.142 3.358 7.5 7.5 7.5h24.663.008 472.329c4.142 0 7.5-3.358 7.5-7.5v-275.377c0-14.783-11.919-27.035-26.824-26.645zm-217.826-2.368c9.487-3.989 16.511-11.964 19.269-21.879l10.699-38.457c1.192-4.283 3.647-8.026 7.101-10.825l24.863-20.147c6.943-5.626 11.55-13.583 12.973-22.404l3.89-24.118c.435-2.696 2.192-4.951 4.7-6.032l16.402-7.066c1.34-.577 2.888.129 3.327 1.523l4.892 15.521c1.799 5.708 5.627 10.53 10.779 13.576l8.55 5.056c2.466 1.458 4.092 3.924 4.459 6.765.821 6.349 6.133 47.409 7.029 54.331l-8.302 2.965c-7.022 2.508-12.339 8.599-13.876 15.896l-.504 2.395c-23.923-8.371-50.758 3.859-59.509 28.331-18.008-3.176-35.117 8.564-38.635 26.338-9.588 4.006-17.701 11.097-22.985 20.027-2.163-.681-4.579-1.217-6.55-1.503-2.8-12.952-4.209-19.469-7.032-32.53zm32.791 89.075-10.106 35.373c-1.363 4.77-1.201 9.759.467 14.431 13.336 38.629 13.002 25.125 2.326 56.904l-8.901-32.639c-.83-3.042-2.296-5.869-4.26-8.303-3.094-3.834-5.209-4.52-16.26-12.832-2.871-2.488-6.684-3.598-7.447-8.175l-8.028-48.17c-.463-2.779-1.638-5.346-3.347-7.505-3.032-3.83-5.309-4.137-17.104-11.684 4.451-6.344 11.559-10.762 19.867-11.515 11.088-.998 14.373 3.953 18.752 3.953 3.022 0 5.84-1.839 6.986-4.77 3.666-9.383 11.624-16.787 21.388-19.688 3.072-.913 5.225-3.678 5.357-6.88.554-13.429 14.618-21.435 26.308-15.88 4.508 2.141 9.81-.642 10.619-5.557 3.415-20.755 25.135-31.941 43.713-24.165l-4.126 19.598c-.714 3.392-2.682 6.341-5.54 8.303l-24.688 16.943c-3.944 2.707-6.794 6.743-8.026 11.363l-5.775 21.656c-.349 1.307-1.225 2.437-2.406 3.099l-16.354 9.174c-6.581 3.69-11.344 9.715-13.415 16.966zm-200.228-59.987c-.085-.021-.141-.094-.192-.166-.151-.212-.102-.392-.143-.657-1.41-15.442-13.23-28.29-28.642-30.893-2.226-.377-3.962-2.205-4.321-4.554-1.133-6.408-3.251-12.471-7.981-18.607l14.921-31.5c.609-1.287 1.653-2.332 2.938-2.942l17.583-8.352c5.871-2.789 10.081-8.02 11.55-14.35l14.003-60.32c.308-1.329 1.756-2.041 2.999-1.471l30.38 13.964c3.475 1.597 5.983 4.792 6.711 8.546l5.955 30.712c1.616 8.34 7.958 15.168 16.157 17.396 1.715.757 7.148.636 8.77 6.018l7.839 26.011c5.139 17.052 19.036 21.799 23.476 25.439 4.759 3.075 8.039 7.818 9.236 13.356 3.148 14.56 6.325 29.255 9.537 44.114-6.25 1.385-12.773 4.429-18.238 9.061l-5.559-31.498c-1.438-8.145-6.857-15.008-14.668-18.217l-19.164-7.871c-10.074-4.138-21.564 1.173-24.942 11.526l-12.079 37.029c-1.673 5.128-5.622 7.506-5.799 7.681-7.127-11.787-20.717-19.722-35.528-19.722-1.572.003-4.668.299-4.799.267zm-23.463 196.118c4.127-3.751 5.717-9.385 4.286-14.666l-7.714-28.474c16.25-50.779 15.275-47.857 15.545-48.51.663-1.6 1.782-3 3.206-3.992l13.431-9.361c4.573-3.188 7.92-7.9 9.423-13.269 5.891-20.108 5.529-22.03 8.156-25.868 2.123-3.101 2.715-3.154 18.986-15.053 4.76-4.17 14.415-7.87 18.534-20.496l12.079-37.029c.683-2.096 2.992-3.121 4.982-2.303l19.163 7.871c2.949 1.211 5.041 3.81 5.595 6.949 8.809 49.792 8.084 47.575 9.763 50.781 1.443 2.74 3.58 4.921 5.967 6.384 14.903 9.347 15.079 8.751 15.281 9.961l8.028 48.168c.984 5.908 4.191 11.106 9.029 14.636 1.544 1.127 14.681 10.714 16.355 11.936 1.44 1.051 2.455 2.56 2.907 4.219l12.938 47.439c2.89 10.598 4.836 17.733 7.621 27.942v.001c1.214 4.448.466 3.022.693 54.416h-248.391l17.265-56.356zm420.55 71.684h-15.519c1.95-11.579 5.961-20.926 3.954-35.496l-11.467-83.292c-1.165-8.462-3.636-10.274-20.117-46.298-1.377-2.927-1.689-6.263-.88-9.393l7.38-28.535c.991-3.832 1.185-7.758.578-11.669l-3.924-25.262c-.358-2.302-1.727-4.197-3.585-5.3-5.382-3.196-12.218 1.296-11.238 7.603 3.542 24.939 4.867 26.154 3.646 30.872l-7.38 28.535c-1.684 6.511-1.034 13.449 1.83 19.535l17.271 36.7c2.095 4.452.525-.172 13.027 88.549 1.555 11.295-1.581 17.556-4.417 33.45h-160.452c-.365-49.206.883-50.646-1.221-58.364l-6.339-23.242c6.14-5.878 8.021-12.444 8.22-12.783l7.458-21.198c2.482-7.054 2.464-14.818-.051-21.86l-9.146-25.607c-.608-1.705-.667-3.525-.17-5.266 10.564-35.812 9.621-36.396 12.473-40.005 2.735-3.46 4.735-3.486 20.314-12.546 4.692-2.631 8.177-7.121 9.562-12.318l5.775-21.655c.31-1.163 1.027-2.178 2.02-2.859 24.471-16.982 25.55-17.077 28.863-20.433 3.796-3.845 6.423-8.704 7.557-14.091 1.418-6.734 6.055-28.759 7.762-36.867.469-2.231 2.095-4.093 4.242-4.86l20.015-7.148c1.518-.542 3.137.435 3.382 2.013 2.368 15.242 8.843 56.929 11.191 72.048.556 3.582 3.562 6.176 7.046 6.342 4.749.226 8.505-3.956 7.777-8.644l-5.453-35.104c9.943-4.364 21.429 1.693 23.373 12.28l.032.182c1.28 7.333 7.76 12.692 15.112 12.462 6.564-.189 11.5 5.282 11.5 11.649v267.875z"/></svg>