<svg id="Capa_1" enable-background="new 0 0 512 512" height="512" viewBox="0 0 512 512" width="512" xmlns="http://www.w3.org/2000/svg"><path d="m458.364 175.426c16.146 0 29.04-13.92 27.337-30.413-1.277-12.369-10.96-22.467-23.264-24.266-4.49-.657-8.799-.202-12.722 1.098.004-.226.017-.45.017-.677 0-20.13-16.318-36.448-36.448-36.448-6.488 0-12.575 1.7-17.851 4.674-1.45.817-3.213-.213-3.211-1.877 0-.014 0-.028 0-.041 0-25.702-20.835-46.537-46.537-46.537-11.289 0-21.635 4.024-29.692 10.712-2.495 2.071-6.288 1.289-7.722-1.619-7.746-15.71-23.918-26.519-42.618-26.519-22.224 0-40.871 15.266-46.052 35.882-1.057 4.207-4.813 7.139-9.15 7.191-.666.008-1.337.038-2.013.09-14.868 1.146-26.814 13.372-27.646 28.261-.284 5.093.704 9.927 2.672 14.219.702 1.531-.479 3.227-2.163 3.225-.014 0-.028 0-.042 0-18.238 0-33.023 14.785-33.023 33.023 0 .476.01.95.03 1.421.682 16.101 14.365 28.605 30.48 28.605h279.618z" fill="#e8e8e8"/><circle cx="283.814" cy="178.216" fill="#36d39a" r="40.261"/><path d="m303.814 208.477c-22.235 0-40.26-18.025-40.26-40.26 0-11.702 4.996-22.233 12.968-29.589-18.752 3.433-32.968 19.846-32.968 39.589 0 22.235 18.025 40.26 40.26 40.26 10.533 0 20.118-4.05 27.293-10.671-2.367.433-4.801.671-7.293.671z" fill="#00c071"/><circle cx="339.935" cy="248.596" fill="#00c071" r="84.819"/><path d="m369.936 320.415c-46.844 0-84.819-37.975-84.819-84.819 0-28.99 14.553-54.571 36.743-69.869-38.157 8.285-66.743 42.23-66.743 82.869 0 46.844 37.975 84.819 84.819 84.819 17.854 0 34.41-5.529 48.075-14.95-5.827 1.265-11.87 1.95-18.075 1.95z" fill="#00a45b"/><circle cx="92.975" cy="214.391" fill="#00c071" r="44.375"/><path d="m68.6 224.39c0-24.507 19.867-44.375 44.375-44.375 3.146 0 6.214.333 9.176.955-7.801-6.816-18.002-10.955-29.176-10.955-24.507 0-44.375 19.867-44.375 44.375 0 21.361 15.095 39.192 35.199 43.419-9.309-8.133-15.199-20.085-15.199-33.419z" fill="#00a45b"/><path d="m7.5 322.634v-123.835s121.066 3.052 141.456 133.843z" fill="#36d39a"/><path d="m200.636 345.748c115.429-176.379 303.864-137.11 303.864-137.11v279.852h-127.178z" fill="#36d39a"/><path d="m7.5 322.634s283.307-22.491 369.822 165.856h-369.822z" fill="#80dfb5"/><g fill="#ffa0ab"><ellipse cx="296.182" cy="334.011" rx="28.495" ry="22.692"/><ellipse cx="450.634" cy="334.011" rx="28.495" ry="22.692"/><ellipse cx="73.907" cy="436.622" rx="31.323" ry="24.944"/><ellipse cx="243.689" cy="436.622" rx="31.323" ry="24.944"/></g><path d="m312.789 293.019c-4.142 0-7.5 3.358-7.5 7.5v11.648c0 4.142 3.358 7.5 7.5 7.5s7.5-3.358 7.5-7.5v-11.648c0-4.142-3.358-7.5-7.5-7.5z"/><path d="m434.027 293.019c-4.142 0-7.5 3.358-7.5 7.5v11.648c0 4.142 3.358 7.5 7.5 7.5s7.5-3.358 7.5-7.5v-11.648c0-4.142-3.358-7.5-7.5-7.5z"/><path d="m394.317 306.167c-3.123-2.721-7.86-2.396-10.582.727-5.461 6.266-15.18 6.282-20.656 0-2.721-3.123-7.46-3.448-10.582-.726-3.123 2.721-3.448 7.459-.726 10.582 11.448 13.137 31.834 13.125 43.272 0 2.722-3.125 2.397-7.862-.726-10.583z"/><path d="m92.162 392.305c-4.142 0-7.5 3.358-7.5 7.5v12.805c0 4.142 3.358 7.5 7.5 7.5s7.5-3.358 7.5-7.5v-12.805c0-4.142-3.358-7.5-7.5-7.5z"/><path d="m225.434 392.305c-4.142 0-7.5 3.358-7.5 7.5v12.805c0 4.142 3.358 7.5 7.5 7.5s7.5-3.358 7.5-7.5v-12.805c0-4.142-3.358-7.5-7.5-7.5z"/><path d="m181.294 406.574c-3.123-2.721-7.861-2.396-10.582.727-6.299 7.228-17.512 7.248-23.828 0-2.721-3.123-7.459-3.448-10.582-.727s-3.448 7.458-.727 10.582c12.289 14.103 34.168 14.086 46.445 0 2.722-3.123 2.397-7.86-.726-10.582z"/><path d="m506.029 201.295c-1.915-.399-37.74-7.612-87.706-1.455-3.871-6.217-8.417-11.879-13.517-16.914h53.558c9.888 0 19.359-4.213 25.986-11.559 20.52-22.746 3.8-60.083-27.879-58.372-4.894-25.91-31.78-42.114-57.327-33.438-5.94-40.276-52.897-59.689-85.566-35.54-9.751-17.352-27.846-28.007-47.924-28.007-25.249 0-47.178 17.088-53.327 41.555-.226.897-1.016 1.508-1.964 1.519-24.126.286-41.7 22.98-36.065 46.392-19.693 3.423-34.398 21.038-33.523 41.663.85 20.067 17.53 35.787 37.973 35.787h57.569c1.277 12.67 7.629 24.416 17.497 32.426-7.136 18.424-8.33 39.287-2.426 59.324-19.909 17.828-37.911 38.622-53.911 62.294-14.173-4.283-28.264-7.786-41.99-10.633-5.484-30.425-16.4-53.874-29.567-71.899 11.839-9.77 18.931-24.474 18.931-40.048 0-28.604-23.271-51.875-51.875-51.875-22.742 0-42.223 14.417-49.172 35.303-20.274-6.027-35.217-6.496-36.114-6.518-4.26-.084-7.69 3.312-7.69 7.499v289.69c0 4.142 3.358 7.5 7.5 7.5h497c4.142 0 7.5-3.358 7.5-7.5v-279.851c0-3.553-2.493-6.618-5.971-7.343zm-350.293-55.894c0-14.073 11.45-25.523 25.554-25.523.102-.027 5.269.229 8.329-4.532 1.803-2.806 2.051-6.289.663-9.319-6.757-14.738 3.912-31.755 20.258-31.944 7.738-.092 14.455-5.382 16.335-12.862 4.47-17.788 20.417-30.21 38.779-30.21 15.345 0 29.098 8.559 35.892 22.337 3.574 7.246 13.006 9.248 19.239 4.073 25.246-20.958 63.938-2.972 63.938 30.089-.006 7.388 7.95 12.05 14.393 8.418 19.097-10.762 43.117 3.049 43.117 25.228l-.016.544c-.1 5.155 4.932 8.896 9.857 7.266 2.993-.992 6.117-1.258 9.279-.797 15.406 2.253 22.678 21.159 11.86 33.152-3.788 4.199-9.199 6.606-14.848 6.606h-73.536c-17.311-9.664-37.79-13.624-58.105-10.699-9.325-19.116-30.062-29.603-50.845-26.1-19.403 3.284-34.557 18.095-38.697 36.799h-58.435c-12.178-.001-23.011-9.734-23.011-22.526zm104.883 55.974c-23.075-22.966-1.43-63.112 31.21-54.924 7.991 2.005 15.157 7.056 19.707 14.302-22.237 7.207-39.989 22.35-50.917 40.622zm-167.644-23.859c20.333 0 36.875 16.542 36.875 36.875 0 11.003-4.983 21.399-13.313 28.347-16.387-18.232-36.371-31.3-58.559-40.03 4.907-14.901 18.791-25.192 34.997-25.192zm-77.975 152.209c9.217-.401 18.869-.496 27.989-.377 2.828.024 5.333-1.526 6.64-3.843 2.778-4.926-.754-11.082-6.444-11.157-12.293-.161-21.935.092-28.185.357v-107.713c7.142.903 18.659 2.972 31.93 7.62 47.651 16.693 80.971 52.629 92.701 108.664-20.957-3.687-43.846-6.407-66.736-7.815-4.442-.272-8.134 3.356-7.955 7.793.15 3.799 3.157 6.941 7.034 7.18 116.37 7.154 239.314 47.205 293.299 150.555h-350.273zm482 151.264h-114.921c-34.019-70.445-95.942-114.112-169.682-139.272 33.989-48.959 78.899-87.077 135.83-109.095 3.863-1.494 5.784-5.837 4.29-9.7-.002-.006-.002-.006-.002-.007-1.494-3.863-5.837-5.783-9.7-4.29-28.619 11.067-54.891 26.198-78.68 45.255-12.439-61.824 50.956-112.173 108.485-85.353 11.539 5.407 21.567 13.511 29.24 23.765-10.202 1.787-20.366 4.08-30.131 6.779-4.591 1.269-6.833 6.426-4.68 10.645 1.585 3.107 5.185 4.778 8.678 3.814 40.931-11.313 85.548-13.644 121.273-8.53z"/></svg>