<?xml version="1.0" encoding="iso-8859-1"?>
<!-- Generator: Adobe Illustrator 19.0.0, SVG Export Plug-In . SVG Version: 6.00 Build 0)  -->
<svg xmlns="http://www.w3.org/2000/svg" xmlns:xlink="http://www.w3.org/1999/xlink" version="1.1" id="Layer_1" x="0px" y="0px" viewBox="0 0 512 512" style="enable-background:new 0 0 512 512;" xml:space="preserve">
<path style="fill:#AD82C6;" d="M153.548,408.911c-59.466,9.507-67.879,62.687-68.728,85.353c-0.209,5.595,4.282,10.235,9.881,10.235  h58.847V408.911z"/>
<path style="opacity:0.1;enable-background:new    ;" d="M144.612,410.77c-24.565,24.044-40.318,57.048-41.971,93.73h50.907v-95.589  C150.426,409.41,147.46,410.041,144.612,410.77z"/>
<path style="fill:#AD82C6;" d="M358.45,408.911c59.465,9.507,67.879,62.687,68.728,85.353c0.21,5.595-4.282,10.235-9.881,10.235  h-58.846L358.45,408.911L358.45,408.911z"/>
<path style="opacity:0.1;enable-background:new    ;" d="M367.386,410.77c24.565,24.044,40.318,57.048,41.971,93.73H358.45v-95.589  C361.572,409.41,364.539,410.041,367.386,410.77z"/>
<path style="fill:#394049;" d="M396.128,504.5c0-77.391-62.738-140.129-140.129-140.129S115.87,427.109,115.87,504.5H396.128z"/>
<path style="fill:#F6CDB5;" d="M329.062,383.757c-9.072,12.66-46.437,57.04-65.306,79.746c-4.034,4.853-11.48,4.853-15.513,0  c-18.869-22.705-56.234-67.085-65.306-79.746H329.062z"/>
<path style="opacity:0.1;enable-background:new    ;" d="M255.999,364.371c-40.604,0-77.167,17.276-102.759,44.871  c28.114,22.644,63.85,36.208,102.759,36.208s74.646-13.563,102.759-36.208C333.166,381.647,296.603,364.371,255.999,364.371z"/>
<circle style="fill:#F6CDB5;" cx="92.049" cy="255.78" r="38.16"/>
<circle style="opacity:0.15;fill:#EC8087;enable-background:new    ;" cx="92.049" cy="255.78" r="38.16"/>
<path style="opacity:0.07;enable-background:new    ;" d="M92.051,217.615c-3.118,0-6.146,0.383-9.048,1.089  c-2.754,11.913-4.21,24.323-4.21,37.072c0,12.75,1.456,25.16,4.21,37.073c2.901,0.706,5.929,1.088,9.048,1.088  c21.076,0,38.161-17.085,38.161-38.161S113.127,217.615,92.051,217.615z"/>
<circle style="fill:#F6CDB5;" cx="419.949" cy="255.78" r="38.16"/>
<circle style="opacity:0.15;fill:#EC8087;enable-background:new    ;" cx="419.949" cy="255.78" r="38.16"/>
<path style="opacity:0.07;enable-background:new    ;" d="M419.947,217.615c3.118,0,6.147,0.383,9.048,1.089  c2.754,11.913,4.21,24.323,4.21,37.072c0,12.75-1.456,25.16-4.21,37.073c-2.901,0.706-5.929,1.088-9.048,1.088  c-21.076,0-38.161-17.085-38.161-38.161S398.871,217.615,419.947,217.615z"/>
<circle style="fill:#F6CDB5;" cx="255.999" cy="255.78" r="163.95"/>
<g>
	<path style="fill:#EC8087;" d="M169.977,275.612h-26.764c-4.143,0-7.5-3.357-7.5-7.5s3.357-7.5,7.5-7.5h26.764   c4.143,0,7.5,3.357,7.5,7.5S174.118,275.612,169.977,275.612z"/>
	<path style="fill:#EC8087;" d="M368.779,275.612h-26.764c-4.143,0-7.5-3.357-7.5-7.5s3.357-7.5,7.5-7.5h26.764   c4.143,0,7.5,3.357,7.5,7.5S372.922,275.612,368.779,275.612z"/>
</g>
<g>
	<path style="fill:#8D6A59;" d="M212.22,96.276c-1.763,0-3.554-0.325-5.294-1.01L124.914,62.94   c-7.423-2.927-11.069-11.316-8.143-18.739c2.927-7.423,11.314-11.067,18.739-8.143l82.011,32.326   c7.423,2.927,11.069,11.316,8.143,18.739C223.424,92.807,217.98,96.276,212.22,96.276z"/>
	<path style="fill:#8D6A59;" d="M297.161,96.312c-4.723,0-9.352-2.313-12.121-6.566c-4.353-6.687-2.463-15.636,4.224-19.99   l73.873-48.101c6.687-4.353,15.637-2.462,19.99,4.224c4.353,6.687,2.463,15.636-4.224,19.991l-73.872,48.1   C302.597,95.554,299.863,96.312,297.161,96.312z"/>
</g>
<circle style="fill:#EC8087;" cx="255.999" cy="76.35" r="68.85"/>
<path style="opacity:0.1;enable-background:new    ;" d="M255.999,73.202c-24.208,0-47.189,5.251-67.871,14.67  c5.485,32.536,33.775,57.327,67.871,57.327s62.386-24.791,67.871-57.327C303.188,78.453,280.207,73.202,255.999,73.202z"/>
<path style="fill:#EC8087;" d="M255.999,91.828c-73.784,0-136.178,48.744-156.753,115.784  c52.719-1.787,109.459-52.713,119.534-68.545c8.071,22.01,73.829,69.902,191.964,62.457  C388.349,137.642,327.529,91.828,255.999,91.828z"/>
<path d="M355.404,213.18c-4.143,0-7.5,3.357-7.5,7.5v19.91c0,4.143,3.357,7.5,7.5,7.5s7.5-3.357,7.5-7.5v-19.91  C362.904,216.537,359.547,213.18,355.404,213.18z M421.272,210.148c-13.445-48.644-47.838-88.673-92.822-109.735  c1.619-4.853,2.726-9.836,3.333-14.913l51.211-33.346c4.913-3.198,8.286-8.119,9.498-13.854c1.212-5.736,0.117-11.601-3.081-16.512  c-3.197-4.913-8.118-8.286-13.853-9.498c-5.735-1.211-11.601-0.118-16.515,3.08l-36.437,23.725C309.521,15.79,284.576,0,255.999,0  c-31.938,0-59.341,19.719-70.718,47.615l-47.022-18.536c-11.259-4.433-24.027,1.116-28.465,12.372  c-4.438,11.258,1.111,24.027,12.37,28.467l59.409,23.417c0.545,2.386,1.197,4.748,1.974,7.078  c-44.983,21.062-79.376,61.091-92.821,109.735c-24.566,0.706-44.336,20.895-44.336,45.628c0,16.315,8.607,30.65,21.514,38.727  v28.227c0,4.142,3.357,7.5,7.5,7.5s7.5-3.358,7.5-7.5v-22.216c2.537,0.518,5.153,0.811,7.822,0.888  c10.609,38.383,34.254,71.407,65.859,93.979c-2.348,2.136-4.619,4.336-6.81,6.599c-26.797,4.928-46.694,18.702-59.124,41.024  c-10.116,18.166-12.829,37.749-13.325,50.978c-0.178,4.754,1.542,9.261,4.845,12.69c3.307,3.436,7.758,5.328,12.53,5.328h322.596  c4.772,0,9.223-1.892,12.531-5.327c3.303-3.429,5.022-7.936,4.845-12.689c-0.496-13.23-3.209-32.814-13.325-50.979  c-12.43-22.322-32.327-36.096-59.124-41.024c-2.191-2.263-4.462-4.464-6.81-6.599c31.605-22.572,55.25-55.596,65.859-93.979  c2.669-0.077,5.285-0.37,7.822-0.888v22.216c0,4.142,3.357,7.5,7.5,7.5s7.5-3.358,7.5-7.5v-28.227  c12.906-8.077,21.514-22.412,21.514-38.727C465.608,231.043,445.838,210.854,421.272,210.148z M367.228,27.94  c1.556-1.013,3.41-1.36,5.229-0.975c1.815,0.384,3.372,1.451,4.385,3.007c1.013,1.555,1.359,3.41,0.976,5.226  c-0.384,1.816-1.451,3.373-3.007,4.386l-42.982,27.988c-0.576-5.009-1.634-9.871-3.135-14.54L367.228,27.94z M179.652,76.455  l-51.987-20.492c-3.564-1.405-5.32-5.447-3.916-9.011c1.404-3.563,5.448-5.321,9.012-3.917l48.251,19.02  c-0.882,4.634-1.362,9.408-1.362,14.295C179.649,76.385,179.652,76.42,179.652,76.455z M87.228,286.054  c-1.479-0.235-2.924-0.573-4.325-1.012v-6.731c0-4.143-3.357-7.5-7.5-7.5c-3.102,0-5.764,1.884-6.905,4.569  c-4.435-5.319-7.108-12.154-7.108-19.604c0-15.266,11.216-27.959,25.839-30.28c-1.759,9.831-2.677,19.95-2.677,30.279  C84.551,266.104,85.469,276.223,87.228,286.054z M255.999,15c33.828,0,61.35,27.521,61.35,61.35c0,6.264-0.947,12.385-2.795,18.281  c-18.28-6.663-38-10.303-58.555-10.303s-40.275,3.64-58.554,10.302c-1.848-5.896-2.795-12.016-2.795-18.281  C194.649,42.521,222.171,15,255.999,15z M255.999,99.328c64.547,0,120.086,39.294,143.962,95.216  c-57.966,2.115-98.927-9.568-123.521-20.098c-31.94-13.676-47.771-30.195-50.618-37.962c-0.982-2.679-3.399-4.568-6.236-4.875  c-2.831-0.297-5.601,1.023-7.133,3.431c-7.568,11.892-54.902,56.129-102.227,63.935C133.009,140.709,189.76,99.328,255.999,99.328z   M94.701,497c-0.889,0-1.464-0.46-1.728-0.733c-0.317-0.329-0.689-0.896-0.658-1.722c0.354-9.488,2.313-27.853,11.439-44.242  c6.881-12.357,16.657-21.508,29.158-27.407c-14.525,21.84-23.008,47.306-24.345,74.105H94.701V497z M408.243,450.303  c9.126,16.389,11.085,34.754,11.439,44.243c0.031,0.825-0.341,1.392-0.658,1.721c-0.264,0.273-0.839,0.733-1.727,0.733h-13.866  c-1.338-26.799-9.82-52.264-24.345-74.105C391.586,428.794,401.362,437.946,408.243,450.303z M388.42,497H123.578  c2.009-36.134,18.501-69.512,46.079-93.157c9.782,5.726,20.175,10.516,31.062,14.234c9.601,11.663,20.3,24.488,29.801,35.875  c4.414,5.29,8.495,10.182,11.953,14.343c3.352,4.034,8.281,6.348,13.525,6.348s10.174-2.314,13.525-6.347  c3.458-4.162,7.539-9.054,11.953-14.344c9.502-11.387,20.201-24.212,29.802-35.875c10.887-3.718,21.28-8.508,31.062-14.234  C369.919,427.488,386.41,460.866,388.42,497z M225.51,424.507c9.897,1.784,20.086,2.717,30.489,2.717  c10.403,0,20.592-0.933,30.489-2.717c-5.616,6.758-11.257,13.52-16.527,19.836c-4.422,5.298-8.509,10.197-11.974,14.366  c-0.675,0.813-1.535,0.934-1.988,0.934s-1.314-0.121-1.988-0.935c-3.465-4.168-7.552-9.067-11.974-14.365  C236.768,438.027,231.126,431.264,225.51,424.507z M255.999,412.224c-86.266,0-156.448-70.183-156.448-156.448  c0-14.189,1.91-27.939,5.467-41.018c28.503-2.613,55.828-17.495,74.194-29.943c16.303-11.049,30.115-23.257,38.683-32.651  c6.005,7.629,15.346,15.48,26.915,22.713c10.308,26.707,26.172,38.369,34.872,42.987c1.121,0.596,2.324,0.878,3.51,0.878  c2.686,0,5.284-1.447,6.631-3.985c1.942-3.658,0.551-8.199-3.107-10.141c-7.982-4.238-14.105-10.757-18.727-17.506  c0.848,0.377,1.69,0.758,2.549,1.126c26.718,11.441,71.555,24.18,134.874,21.095c4.573,14.68,7.038,30.28,7.038,46.445  C412.447,342.041,342.265,412.224,255.999,412.224z M443.5,275.381c-1.141-2.686-3.803-4.569-6.905-4.569  c-4.143,0-7.5,3.357-7.5,7.5v6.731c-1.401,0.439-2.846,0.777-4.325,1.012c1.759-9.831,2.677-19.949,2.677-30.279  c0-10.329-0.918-20.448-2.677-30.279c14.623,2.321,25.839,15.013,25.839,30.28C450.608,263.227,447.935,270.062,443.5,275.381z   M277.153,253.66c-3.326-2.469-8.024-1.771-10.491,1.556c-2.544,3.43-6.431,5.396-10.663,5.396s-8.119-1.967-10.663-5.396  c-2.469-3.328-7.165-4.023-10.491-1.556c-3.327,2.468-4.023,7.165-1.556,10.491c5.323,7.177,13.813,11.461,22.71,11.461  c8.897,0,17.387-4.284,22.71-11.461C281.177,260.825,280.48,256.128,277.153,253.66z M156.594,213.18c-4.143,0-7.5,3.357-7.5,7.5  v19.91c0,4.143,3.357,7.5,7.5,7.5s7.5-3.357,7.5-7.5v-19.91C164.094,216.537,160.736,213.18,156.594,213.18z"/>
<g>
</g>
<g>
</g>
<g>
</g>
<g>
</g>
<g>
</g>
<g>
</g>
<g>
</g>
<g>
</g>
<g>
</g>
<g>
</g>
<g>
</g>
<g>
</g>
<g>
</g>
<g>
</g>
<g>
</g>
</svg>
