<?xml version="1.0" encoding="iso-8859-1"?>
<!-- Generator: Adobe Illustrator 19.0.0, SVG Export Plug-In . SVG Version: 6.00 Build 0)  -->
<svg xmlns="http://www.w3.org/2000/svg" xmlns:xlink="http://www.w3.org/1999/xlink" version="1.1" id="Layer_1" x="0px" y="0px" viewBox="0 0 512.001 512.001" style="enable-background:new 0 0 512.001 512.001;" xml:space="preserve">
<path style="fill:#E36566;" d="M289.062,337.488c0,39.957,32.391,72.348,72.348,72.348c31.348,0,58.032-19.941,68.078-47.828  c25.625-11.133,43.553-36.655,43.553-66.375c0-17.28-6.066-33.137-16.174-45.578c10.108-12.442,16.174-28.299,16.174-45.579  c0-20.292-8.365-38.622-21.822-51.759c6.392-10.788,10.074-23.371,10.074-36.82c0-39.956-32.391-72.348-72.348-72.348  c-4.936,0-9.754,0.498-14.412,1.44C362.22,22.644,338.448,7.5,311.132,7.5c-22.094,0-41.861,9.915-55.131,25.525  C242.73,17.415,222.963,7.5,200.869,7.5c-27.316,0-51.089,15.144-63.401,37.488c-4.658-0.942-9.477-1.44-14.412-1.44  c-39.957,0-72.348,32.391-72.348,72.348c0,13.449,3.682,26.032,10.074,36.82c-13.457,13.138-21.822,31.467-21.822,51.759  c0,17.28,6.066,33.137,16.174,45.579c-10.108,12.442-16.174,28.299-16.174,45.578c0,29.72,17.927,55.243,43.553,66.375  c10.046,27.887,36.73,47.828,68.078,47.828c39.957,0,72.348-32.391,72.348-72.348h66.123V337.488z"/>
<path style="fill:#394049;" d="M140.103,396.366c-67.27,10.755-76.789,70.914-77.748,96.556c-0.237,6.33,4.844,11.579,11.178,11.579  h66.57V396.366z"/>
<path style="opacity:0.15;enable-background:new    ;" d="M129.994,398.468c-27.789,27.2-45.61,64.536-47.479,106.031h57.588  V396.366C136.571,396.93,133.214,397.643,129.994,398.468z"/>
<path style="fill:#394049;" d="M371.898,396.366c67.27,10.755,76.788,70.914,77.748,96.556c0.237,6.33-4.844,11.579-11.178,11.579  h-66.57L371.898,396.366L371.898,396.366z"/>
<path style="opacity:0.15;enable-background:new    ;" d="M382.007,398.468c27.789,27.2,45.61,64.536,47.479,106.031h-57.588  V396.366C375.43,396.93,378.787,397.643,382.007,398.468z"/>
<path style="fill:#394049;" d="M414.521,504.5c0-87.548-70.972-158.521-158.52-158.521S97.48,416.952,97.48,504.5H414.521z"/>
<path style="opacity:0.1;fill:#FFFFFF;enable-background:new    ;" d="M256,345.98c-44.179,0-84.13,18.079-112.877,47.235  c26.804,32.554,67.416,53.312,112.877,53.312s86.073-20.758,112.877-53.312C340.131,364.059,300.18,345.98,256,345.98z"/>
<path style="opacity:0.1;enable-background:new    ;" d="M173.817,421.229c4.006,2.73,8.152,5.268,12.43,7.597l20.758-31.67  l-12.177-7.982L173.817,421.229z M248.72,446.336c2.413,0.118,4.838,0.19,7.28,0.19c2.442,0,4.867-0.072,7.28-0.19v-43.383h-14.56  V446.336z M317.174,389.174l-12.177,7.982l20.758,31.67c4.278-2.328,8.424-4.867,12.43-7.597L317.174,389.174z"/>
<path style="opacity:0.15;enable-background:new    ;" d="M256,345.979c-40.473,0-77.395,15.176-105.409,40.137  c26.514,27.831,63.936,45.175,105.409,45.175l0,0c41.473,0,78.895-17.345,105.409-45.175  C333.396,361.155,296.473,345.979,256,345.979z"/>
<path style="fill:#F2BE89;" d="M256.001,57.17L256.001,57.17c-84.277,0-152.598,68.32-152.598,152.597v47.211  c0,84.277,68.32,152.597,152.597,152.597l0,0c84.277,0,152.597-68.32,152.597-152.597v-47.211  C408.598,125.49,340.278,57.17,256.001,57.17z"/>
<g>
	<path style="fill:#EC8087;" d="M256,243.819c9.095,0,17.772,4.38,23.214,11.716c2.468,3.326,1.771,8.024-1.556,10.491   c-3.327,2.468-8.024,1.773-10.491-1.556c-2.664-3.592-6.734-5.651-11.167-5.651c-4.433,0-8.503,2.06-11.167,5.651   c-2.466,3.327-7.166,4.022-10.491,1.556c-3.327-2.467-4.023-7.165-1.556-10.491C238.228,248.199,246.906,243.819,256,243.819z"/>
	<path style="fill:#EC8087;" d="M167.269,267.667h-27.607c-4.143,0-7.5-3.357-7.5-7.5s3.357-7.5,7.5-7.5h27.607   c4.143,0,7.5,3.357,7.5,7.5S171.412,267.667,167.269,267.667z"/>
	<path style="fill:#EC8087;" d="M372.339,267.667h-27.608c-4.142,0-7.5-3.357-7.5-7.5s3.358-7.5,7.5-7.5h27.608   c4.142,0,7.5,3.357,7.5,7.5S376.482,267.667,372.339,267.667z"/>
</g>
<path style="fill:#E36566;" d="M419.849,148.714c2.612-6.172,4.056-12.957,4.056-20.08c0-28.479-23.087-51.565-51.565-51.565  c-9.063,0-17.575,2.345-24.975,6.451c-7.604-18.993-26.167-32.416-47.877-32.416c-9.281,0-17.981,2.464-25.504,6.756  c-4.574-4.657-10.939-7.548-17.983-7.548c-7.043,0-13.409,2.891-17.982,7.548c-7.523-4.291-16.224-6.756-25.504-6.756  c-21.71,0-40.272,13.423-47.877,32.416c-7.4-4.106-15.912-6.451-24.975-6.451c-28.479,0-51.565,23.087-51.565,51.565  c0,7.123,1.444,13.909,4.056,20.08c-13.682,3.936-23.696,16.537-23.696,31.485c0,18.097,14.671,32.768,32.768,32.768  s32.768-14.671,32.768-32.768c0-0.106-0.007-0.211-0.008-0.318c1.865,0.205,3.758,0.318,5.678,0.318  c21.71,0,40.273-13.422,47.877-32.416c7.4,4.106,15.912,6.451,24.975,6.451c18.282,0,34.33-9.523,43.487-23.87  c9.157,14.348,25.205,23.87,43.487,23.87c9.063,0,17.574-2.345,24.975-6.451c7.604,18.993,26.167,32.416,47.877,32.416  c1.92,0,3.812-0.113,5.678-0.318c-0.001,0.106-0.008,0.211-0.008,0.318c0,18.097,14.67,32.768,32.768,32.768  c18.097,0,32.768-14.671,32.768-32.768C443.544,165.251,433.531,152.65,419.849,148.714z"/>
<path d="M480.54,204.476c0-19.758-7.105-38.361-20.122-52.98c5.494-11.019,8.375-23.212,8.375-35.599  c0-44.028-35.819-79.848-79.848-79.848c-3.539,0-7.085,0.235-10.594,0.701C363.718,13.954,338.431,0,311.131,0  C290.469,0,270.796,7.97,256,22.109C241.205,7.97,221.531,0,200.869,0c-27.299,0-52.586,13.954-67.219,36.75  c-3.509-0.466-7.055-0.701-10.594-0.701c-44.028,0-79.848,35.819-79.848,79.848c0,12.387,2.881,24.58,8.375,35.599  c-13.018,14.619-20.123,33.224-20.123,52.98c0,16.292,5.041,32.263,14.296,45.578c-9.255,13.315-14.296,29.286-14.296,45.578  c0,30.742,17.615,58.626,45.145,71.917c5.503,13.564,14.525,25.201,26.121,33.863c-13.755,8.012-24.769,19.369-32.917,34.001  c-11.349,20.381-14.394,42.37-14.95,57.229c-0.19,5.108,1.659,9.95,5.207,13.634c3.557,3.691,8.339,5.725,13.467,5.725h364.936  c5.128,0,9.911-2.033,13.467-5.726c3.549-3.684,5.397-8.525,5.206-13.633c-0.557-14.859-3.602-36.85-14.95-57.229  c-8.147-14.632-19.161-25.99-32.916-34.001c11.596-8.662,20.617-20.3,26.12-33.864c27.529-13.29,45.145-41.174,45.145-71.916  c0-16.292-5.041-32.263-14.296-45.578C475.498,236.738,480.54,220.768,480.54,204.476z M73.533,497  c-1.369,0-2.257-0.709-2.664-1.131c-0.402-0.418-1.07-1.32-1.02-2.667c0.404-10.821,2.641-31.771,13.065-50.492  c8.49-15.246,20.813-26.24,36.74-32.896c-4.181,5.998-7.977,12.257-11.32,18.742C97.465,449.645,91.253,473.162,90.169,497H73.533z   M105.159,497c1.038-21.625,6.578-42.303,16.509-61.572c5.746-11.148,12.934-21.582,21.276-31.002  c29.089,31.625,69.825,49.601,113.057,49.601c43.233,0,83.969-17.975,113.056-49.6c8.342,9.42,15.53,19.853,21.276,31.001  c9.932,19.27,15.472,39.947,16.51,61.572H105.159z M161.888,386.408c26.435,19.275,58.966,30.668,94.113,30.668  c35.146,0,67.677-11.393,94.112-30.668c2.9,2.317,5.717,4.738,8.44,7.263c-26.285,28.904-63.275,45.354-102.552,45.354  s-76.267-16.45-102.553-45.355C156.171,391.147,158.988,388.725,161.888,386.408z M110.903,256.978v-37.695  c15.219-3.768,26.965-16.205,29.887-31.595c21.161-0.394,40.097-11.857,50.294-29.978c6.803,2.645,14.087,4.023,21.431,4.023  c16.763,0,32.4-6.992,43.486-19.096c11.087,12.104,26.726,19.096,43.487,19.096c7.343,0,14.627-1.378,21.43-4.023  c10.197,18.121,29.133,29.584,50.294,29.978c2.922,15.39,14.668,27.827,29.887,31.595v37.695  c0,80.007-65.091,145.098-145.098,145.098S110.903,336.985,110.903,256.978z M429.085,442.71  c10.425,18.721,12.66,39.671,13.065,50.493c0.051,1.346-0.616,2.248-1.02,2.666c-0.406,0.422-1.294,1.131-2.663,1.131h-16.636  c-1.084-23.838-7.296-47.355-18.165-68.444c-3.343-6.485-7.14-12.744-11.32-18.743C408.273,416.469,420.596,427.463,429.085,442.71z   M451.044,254.783c9.483,11.672,14.495,25.798,14.495,40.849c0,25.84-15.324,49.193-39.041,59.497  c-1.896,0.823-3.367,2.393-4.068,4.337c-5.307,14.736-15.624,26.894-29.229,34.545c-5.538-1.96-11.409-3.503-17.612-4.622  c-4.274-4.443-8.787-8.656-13.523-12.6c33.118-29.352,54.033-72.182,54.033-119.811v-44.092c0-3.951-3.065-7.225-7.009-7.483  c-13.201-0.868-23.547-11.906-23.58-25.142l0.008-0.312c0.02-2.143-0.879-4.191-2.468-5.63c-1.588-1.436-3.71-2.13-5.848-1.893  c-1.655,0.181-3.291,0.272-4.862,0.272c-18.116,0-34.177-10.874-40.914-27.704c-0.801-1.998-2.421-3.557-4.45-4.278  c-2.026-0.721-4.268-0.536-6.151,0.509c-6.495,3.604-13.873,5.509-21.336,5.509c-15.117,0-29.011-7.628-37.165-20.405  c-1.378-2.158-3.762-3.465-6.322-3.465c-2.561,0-4.944,1.307-6.322,3.466c-8.154,12.776-22.047,20.404-37.164,20.404  c-7.463,0-14.842-1.905-21.337-5.509c-1.882-1.045-4.124-1.23-6.151-0.509c-2.029,0.722-3.649,2.28-4.45,4.278  c-6.737,16.83-22.798,27.704-40.914,27.704c-1.571,0-3.207-0.092-4.862-0.272c-2.13-0.236-4.259,0.455-5.848,1.893  c-1.589,1.439-2.487,3.487-2.468,5.63l0.008,0.302c-0.027,13.241-10.376,24.283-23.58,25.151c-3.943,0.259-7.009,3.532-7.009,7.483  v44.092c0,47.629,20.914,90.459,54.032,119.811c-4.737,3.944-9.25,8.157-13.524,12.601c-6.203,1.119-12.074,2.662-17.612,4.622  c-13.604-7.652-23.921-19.81-29.23-34.546c-0.7-1.944-2.172-3.514-4.067-4.337c-23.717-10.304-39.041-33.658-39.041-59.497  c0-15.051,5.013-29.177,14.495-40.849c2.238-2.756,2.238-6.703,0-9.459c-9.482-11.672-14.495-25.798-14.495-40.849  c0-17.602,6.947-34.078,19.562-46.394c2.476-2.416,2.977-6.213,1.213-9.189c-5.905-9.966-9.026-21.376-9.026-32.996  c0-35.757,29.091-64.848,64.848-64.848c4.339,0,8.688,0.435,12.927,1.291c3.212,0.649,6.474-0.861,8.054-3.732  C155.459,27.878,177.237,15,200.869,15c19.043,0,37.055,8.34,49.418,22.883c1.425,1.676,3.514,2.642,5.714,2.642  s4.289-0.966,5.714-2.642C274.078,23.34,292.089,15,311.131,15c23.633,0,45.41,12.878,56.833,33.607  c1.58,2.871,4.847,4.383,8.054,3.732c4.238-0.856,8.588-1.291,12.927-1.291c35.757,0,64.848,29.091,64.848,64.848  c0,11.62-3.121,23.03-9.026,32.996c-1.764,2.977-1.263,6.773,1.213,9.189c12.614,12.314,19.561,28.791,19.561,46.394  c0,15.051-5.013,29.177-14.495,40.849C448.806,248.08,448.806,252.027,451.044,254.783z M358.542,239.276c4.143,0,7.5-3.357,7.5-7.5  v-20.538c0-4.143-3.357-7.5-7.5-7.5s-7.5,3.357-7.5,7.5v20.538C351.042,235.919,354.4,239.276,358.542,239.276z M153.465,203.738  c-4.143,0-7.5,3.357-7.5,7.5v20.538c0,4.143,3.357,7.5,7.5,7.5s7.5-3.357,7.5-7.5v-20.538  C160.965,207.096,157.608,203.738,153.465,203.738z"/>
<g>
</g>
<g>
</g>
<g>
</g>
<g>
</g>
<g>
</g>
<g>
</g>
<g>
</g>
<g>
</g>
<g>
</g>
<g>
</g>
<g>
</g>
<g>
</g>
<g>
</g>
<g>
</g>
<g>
</g>
</svg>
