<?xml version="1.0" encoding="iso-8859-1"?>
<!-- Generator: Adobe Illustrator 19.0.0, SVG Export Plug-In . SVG Version: 6.00 Build 0)  -->
<svg xmlns="http://www.w3.org/2000/svg" xmlns:xlink="http://www.w3.org/1999/xlink" version="1.1" id="Layer_1" x="0px" y="0px" viewBox="0 0 511.999 511.999" style="enable-background:new 0 0 511.999 511.999;" xml:space="preserve">
<circle style="fill:#F2BE89;" cx="86.459" cy="201.55" r="40.775"/>
<circle style="opacity:0.15;fill:#EC8087;enable-background:new    ;" cx="86.459" cy="201.55" r="40.775"/>
<path style="opacity:0.07;enable-background:new    ;" d="M86.458,160.772c-4.656,0-9.125,0.791-13.293,2.228  c-0.38,4.631-0.583,9.312-0.583,14.041v52.453c0,3.532,0.121,7.036,0.334,10.515c4.238,1.492,8.794,2.313,13.542,2.313  c22.519,0,40.775-18.256,40.775-40.775C127.232,179.028,108.977,160.772,86.458,160.772z"/>
<circle style="fill:#F2BE89;" cx="425.539" cy="201.55" r="40.775"/>
<circle style="opacity:0.15;fill:#EC8087;enable-background:new    ;" cx="425.539" cy="201.55" r="40.775"/>
<path style="opacity:0.07;enable-background:new    ;" d="M425.541,160.772c4.656,0,9.125,0.791,13.294,2.228  c0.38,4.631,0.583,9.312,0.583,14.041v52.453c0,3.532-0.121,7.036-0.334,10.515c-4.238,1.492-8.794,2.313-13.542,2.313  c-22.519,0-40.775-18.256-40.775-40.775C384.766,179.028,403.021,160.772,425.541,160.772z"/>
<path style="fill:#E8E8E8;" d="M127.232,384.359c-74.74,11.949-85.315,78.789-86.381,107.277  c-0.263,7.033,5.382,12.864,12.42,12.864h73.962L127.232,384.359L127.232,384.359z"/>
<path style="opacity:0.08;enable-background:new    ;" d="M116.001,386.695C85.127,416.915,65.326,458.397,63.25,504.5h63.983  V384.359C123.309,384.986,119.579,385.779,116.001,386.695z"/>
<path style="fill:#E8E8E8;" d="M384.766,384.359c74.74,11.949,85.315,78.789,86.381,107.277c0.263,7.033-5.382,12.864-12.42,12.864  h-73.962V384.359H384.766z"/>
<path style="opacity:0.08;enable-background:new    ;" d="M395.997,386.695c30.874,30.22,50.675,71.702,52.751,117.805h-63.983  V384.359C388.689,384.986,392.419,385.779,395.997,386.695z"/>
<path style="fill:#E8E8E8;" d="M432.121,504.5c0-97.27-78.853-176.122-176.122-176.122S79.877,407.23,79.877,504.5H432.121z"/>
<rect x="220.419" y="412.21" style="fill:#4EBF8C;" width="71.17" height="92.29"/>
<path style="fill:#8D6A59;" d="M255.999,328.378c-45.594,0-87.141,17.325-118.418,45.751c17.19,48.828,63.715,83.831,118.422,83.831  c54.705,0,101.228-35,118.42-83.825C343.145,345.705,301.596,328.378,255.999,328.378z"/>
<path style="fill:#F2BE89;" d="M255.999,328.378c-37.274,0-71.835,11.589-100.299,31.346  c11.986,44.161,52.348,76.644,100.303,76.644c47.954,0,88.315-32.48,100.302-76.64C327.84,339.969,293.275,328.378,255.999,328.378z  "/>
<path style="opacity:0.1;enable-background:new    ;" d="M255.999,328.378c-44.967,0-85.989,16.861-117.113,44.593  c29.458,30.921,71.035,50.191,117.113,50.191l0,0c46.078,0,87.655-19.27,117.113-50.191  C341.988,345.239,300.966,328.378,255.999,328.378z"/>
<path style="fill:#F2BE89;" d="M255.999,7.5L255.999,7.5c-93.635,0-169.542,75.906-169.542,169.541v52.453  c0,93.635,75.906,169.541,169.541,169.541l0,0c93.635,0,169.541-75.906,169.541-169.541v-52.453  C425.541,83.406,349.634,7.5,255.999,7.5z"/>
<path style="fill:#EC8087;" d="M157.415,240.537h-30.672c-4.142,0-7.5-3.357-7.5-7.5s3.358-7.5,7.5-7.5h30.672  c4.142,0,7.5,3.357,7.5,7.5C164.915,237.18,161.557,240.537,157.415,240.537z"/>
<rect x="86.459" y="115.41" style="fill:#394049;" width="339.08" height="63.26"/>
<path style="fill:#4EBF8C;" d="M317.627,7.5H194.371c-59.599,0-107.914,48.315-107.914,107.914h233.162v158.924  c0,14.625,11.856,26.48,26.48,26.48l0,0c14.625,0,26.48-11.855,26.48-26.48V241.82c0,14.625,11.856,26.481,26.48,26.481l0,0  c14.625,0,26.48-11.856,26.48-26.481V115.414C425.541,55.815,377.226,7.5,317.627,7.5z"/>
<path style="opacity:0.1;enable-background:new    ;" d="M142.079,84.022c-4.021,0-7.28,3.259-7.28,7.28v24.112h14.561V91.302  C149.359,87.281,146.1,84.022,142.079,84.022z M172.99,63.184c-4.021,0-7.28,3.259-7.28,7.28v44.95h14.561v-44.95  C180.27,66.443,177.01,63.184,172.99,63.184z M218.395,87.428c-4.021,0-7.28,3.259-7.28,7.28v20.705h14.561V94.709  C225.675,90.688,222.416,87.428,218.395,87.428z"/>
<g style="opacity:0.1;">
	<path d="M372.58,210.295c-4.021,0-7.28-3.259-7.28-7.28v-73.031c0-4.021,3.259-7.28,7.28-7.28s7.28,3.259,7.28,7.28v73.031   C379.86,207.036,376.601,210.295,372.58,210.295z"/>
	<path d="M372.58,112.702c-4.021,0-7.28-3.259-7.28-7.28v-22.62c0-4.021,3.259-7.28,7.28-7.28s7.28,3.259,7.28,7.28v22.619   C379.86,109.443,376.601,112.702,372.58,112.702z"/>
</g>
<g>
	<path style="fill:#8D6A59;" d="M221.778,115.414c6.709,20.613,26.069,35.516,48.92,35.516s42.212-14.903,48.92-35.516   C319.618,115.414,221.778,115.414,221.778,115.414z"/>
	<path style="fill:#8D6A59;" d="M157.415,133.88c-26.158,0-47.741,19.527-51.005,44.796h102.01   C205.156,153.406,183.573,133.88,157.415,133.88z"/>
</g>
<path d="M256.003,240.537c9.851,0,19.252-4.745,25.148-12.692c2.468-3.327,1.771-8.024-1.555-10.492  c-3.329-2.467-8.023-1.77-10.492,1.555c-3.126,4.214-7.9,6.63-13.101,6.63c-5.201,0-9.975-2.416-13.1-6.629  c-2.468-3.328-7.166-4.023-10.492-1.556c-3.327,2.468-4.023,7.165-1.556,10.491C236.75,235.792,246.151,240.537,256.003,240.537z   M462.136,428.147c-15.439-27.726-40.22-44.792-73.675-50.763c-4.986-5.199-10.277-10.105-15.833-14.686  c31.757-27.786,53.6-66.839,59.069-111.439c0.182-0.628,0.346-1.263,0.492-1.906c23.482-3.251,41.627-23.444,41.627-47.807  c0-24.067-17.706-44.075-40.774-47.689v-38.444C433.041,51.774,381.267,0,317.627,0H194.372C130.732,0,78.957,51.774,78.957,115.414  v38.444c-23.069,3.615-40.774,23.622-40.774,47.689c0,24.456,18.285,44.71,41.899,47.841c5.052,44.97,27.012,84.895,59.362,113.25  c-5.583,4.598-10.899,9.523-15.907,14.745c-33.454,5.971-58.236,23.036-73.675,50.763c-12.528,22.498-15.891,46.791-16.505,63.209  c-0.204,5.447,1.768,10.611,5.552,14.539c3.792,3.938,8.893,6.105,14.362,6.105h405.456c5.47,0,10.571-2.169,14.363-6.106  c3.784-3.928,5.756-9.092,5.552-14.538C478.026,474.938,474.664,450.646,462.136,428.147z M433.041,169.135  c14.746,3.412,25.774,16.643,25.774,32.412c0,15.768-11.029,29.001-25.774,32.413V169.135z M53.183,201.547  c0-15.768,11.028-29,25.774-32.412v60.359c0,1.497,0.02,2.99,0.057,4.478C64.24,230.581,53.183,217.335,53.183,201.547z M194.372,15  h123.255c55.368,0,100.414,45.046,100.414,100.414v126.405c0,0.012-0.002,0.025-0.002,0.037v0.003  c-0.022,10.448-8.526,18.941-18.978,18.941c-10.466,0-18.98-8.515-18.98-18.982c0-4.143-3.358-7.5-7.5-7.5  c-4.143,0-7.5,3.357-7.5,7.5v32.519c0,10.466-8.515,18.98-18.98,18.98c-10.466,0-18.98-8.515-18.98-18.98V115.414  c0-4.143-3.357-7.5-7.5-7.5H94.235C98.081,56.032,141.524,15,194.372,15z M93.957,122.914h218.162v48.262H93.957V122.914z   M93.957,229.494v-43.318h40.621v15.318c0,4.143,3.358,7.5,7.5,7.5s7.5-3.357,7.5-7.5v-15.318h162.541v88.162  c0,18.737,15.243,33.98,33.98,33.98s33.98-15.243,33.98-33.98v-4.345c5.423,3.665,11.956,5.808,18.98,5.808  c4.606,0,8.998-0.925,13.007-2.593c-19.199,68.923-82.446,118.327-156.067,118.327C166.649,391.535,93.957,318.844,93.957,229.494z   M256.003,443.868c45.819,0,87.225-28.426,103.818-70.968c0.277-0.201,0.556-0.399,0.832-0.601c1.665,1.321,3.299,2.68,4.914,4.064  c-17.851,44.523-61.252,74.098-109.563,74.098c-48.314,0-91.716-29.576-109.565-74.102c1.633-1.4,3.288-2.776,4.973-4.112  c0.241,0.178,0.484,0.354,0.726,0.53C168.696,415.386,210.141,443.868,256.003,443.868z M177.225,388.012  c23.74,11.845,50.49,18.523,78.774,18.523c28.159,0,54.927-6.619,78.731-18.449c-17.806,25.083-47.05,40.782-78.728,40.782  C224.296,428.868,195.026,413.138,177.225,388.012z M53.27,497c-1.356,0-2.62-0.537-3.56-1.512c-0.93-0.966-1.415-2.234-1.365-3.572  c0.453-12.098,2.955-35.521,14.621-56.473c9.998-17.954,24.708-30.672,43.87-37.998c-5.281,7.335-10.029,15.044-14.16,23.06  C80.535,444.064,73.646,470.363,72.55,497H53.27z M87.537,497c1.05-24.462,7.251-47.849,18.473-69.623  c7.547-14.644,17.317-28.187,28.804-40.074c21.367,47.18,68.702,78.157,121.189,78.157c52.484,0,99.818-30.975,121.187-78.151  c11.485,11.886,21.252,25.427,28.798,40.068c11.223,21.774,17.424,45.161,18.474,69.623H87.537z M462.287,495.488  c-0.94,0.975-2.204,1.512-3.561,1.512h-19.279c-1.095-26.637-7.985-52.936-20.126-76.495c-4.131-8.016-8.878-15.725-14.16-23.059  c19.162,7.326,33.872,20.044,43.87,37.998c11.666,20.951,14.168,44.375,14.62,56.474  C463.702,493.254,463.217,494.522,462.287,495.488z"/>
<g>
</g>
<g>
</g>
<g>
</g>
<g>
</g>
<g>
</g>
<g>
</g>
<g>
</g>
<g>
</g>
<g>
</g>
<g>
</g>
<g>
</g>
<g>
</g>
<g>
</g>
<g>
</g>
<g>
</g>
</svg>
