<?xml version="1.0" encoding="iso-8859-1"?>
<!-- Generator: Adobe Illustrator 19.0.0, SVG Export Plug-In . SVG Version: 6.00 Build 0)  -->
<svg xmlns="http://www.w3.org/2000/svg" xmlns:xlink="http://www.w3.org/1999/xlink" version="1.1" id="Layer_1" x="0px" y="0px" viewBox="0 0 512 512" style="enable-background:new 0 0 512 512;" xml:space="preserve">
<path style="fill:#394049;" d="M482.38,149.428c-34.979-0.814-47.129-55.401-73.026-84.305C367.898,18.853,309.78,7.5,256,7.5  S144.102,18.853,102.646,65.123c-25.897,28.905-38.047,83.492-73.026,84.305c-7.017,0.163-12.364,6.324-11.919,13.329  C22.582,239.554,66.783,363.154,256,363.154s233.418-123.6,238.299-200.397C494.744,155.752,489.397,149.592,482.38,149.428z"/>
<path style="fill:#F9D7C3;" d="M138.134,394.529c-68.413,10.938-78.093,72.119-79.069,98.195  c-0.241,6.437,4.926,11.775,11.368,11.775h67.7v-109.97H138.134z"/>
<path style="opacity:0.08;enable-background:new    ;" d="M127.853,396.668C99.593,424.33,81.469,462.3,79.568,504.5h58.566V394.529  C134.543,395.103,131.129,395.829,127.853,396.668z"/>
<path style="fill:#F9D7C3;" d="M373.866,394.529c68.413,10.938,78.092,72.119,79.069,98.195c0.241,6.437-4.926,11.775-11.368,11.775  h-67.7v-109.97H373.866z"/>
<path style="opacity:0.08;enable-background:new    ;" d="M384.147,396.668c28.261,27.662,46.385,65.632,48.285,107.832h-58.566  V394.529C377.457,395.103,380.871,395.829,384.147,396.668z"/>
<path style="fill:#394049;" d="M417.212,504.5c0-89.035-72.177-161.212-161.212-161.212S94.788,415.465,94.788,504.5H417.212z"/>
<path style="fill:#F9D7C3;" d="M335.259,375.03l-63.566,77.592c-8.117,9.908-23.27,9.908-31.387,0l-63.565-77.592H335.259z"/>
<path style="opacity:0.15;enable-background:new    ;" d="M256,343.288c-41.16,0-78.71,15.433-107.199,40.818  c26.964,28.303,65.021,45.942,107.199,45.942l0,0c42.178,0,80.235-17.639,107.199-45.942C334.71,358.721,297.16,343.288,256,343.288  z"/>
<g>
	<circle style="fill:#F9D7C3;" cx="100.81" cy="221.37" r="34.07"/>
	<circle style="fill:#F9D7C3;" cx="100.81" cy="221.37" r="34.07"/>
</g>
<circle style="opacity:0.15;fill:#E36566;enable-background:new    ;" cx="100.81" cy="221.37" r="34.07"/>
<path style="opacity:0.1;enable-background:new    ;" d="M100.811,187.301c-3.219,0-6.33,0.456-9.283,1.291  c-0.504,5.091-0.766,10.253-0.766,15.476v48.013c0,0.619,0.016,1.234,0.023,1.851c3.17,0.975,6.536,1.502,10.026,1.502  c18.814,0,34.066-15.252,34.066-34.066S119.625,187.301,100.811,187.301z"/>
<g>
	<circle style="fill:#F9D7C3;" cx="411.19" cy="221.37" r="34.07"/>
	<circle style="fill:#F9D7C3;" cx="411.19" cy="221.37" r="34.07"/>
</g>
<circle style="opacity:0.15;fill:#E36566;enable-background:new    ;" cx="411.19" cy="221.37" r="34.07"/>
<path style="opacity:0.1;enable-background:new    ;" d="M411.189,187.301c3.219,0,6.33,0.456,9.283,1.291  c0.504,5.091,0.767,10.253,0.767,15.476v48.013c0,0.619-0.016,1.234-0.023,1.851c-3.17,0.975-6.536,1.502-10.026,1.502  c-18.814,0-34.066-15.252-34.066-34.066S392.375,187.301,411.189,187.301z"/>
<path style="fill:#F9D7C3;" d="M256,49.574L256,49.574c-85.709,0-155.189,69.48-155.189,155.189v48.013  c0,85.708,69.48,155.189,155.189,155.189l0,0c85.708,0,155.189-69.48,155.189-155.189v-48.013  C411.189,119.054,341.708,49.574,256,49.574z"/>
<g>
	<path style="fill:#EC8087;" d="M171.182,262.782h-29.503c-4.142,0-7.5-3.357-7.5-7.5s3.358-7.5,7.5-7.5h29.503   c4.142,0,7.5,3.357,7.5,7.5C178.682,259.425,175.324,262.782,171.182,262.782z"/>
	<path style="fill:#EC8087;" d="M370.322,262.782h-29.503c-4.142,0-7.5-3.357-7.5-7.5s3.358-7.5,7.5-7.5h29.503   c4.142,0,7.5,3.357,7.5,7.5C377.822,259.425,374.464,262.782,370.322,262.782z"/>
</g>
<path style="fill:#4DB1E0;" d="M256,34.379L256,34.379c-85.48,0-168.982,78.28-168.982,144.648v144.46  c0,26.241,21.272,47.513,47.513,47.513l0,0c1.623,0,2.938-1.315,2.938-2.938V184.434c0-3.758,2.711-6.949,6.412-7.598  c43.428-7.615,82.265-28.566,112.119-58.491c29.854,29.926,68.69,50.877,112.118,58.491c3.701,0.649,6.412,3.841,6.412,7.598v183.63  c0,1.622,1.315,2.938,2.938,2.938l0,0c26.241,0,47.513-21.272,47.513-47.513v-144.46l0,0C412.307,97.099,341.48,34.379,256,34.379z"/>
<g style="opacity:0.1;">
	<path d="M367.731,145.531c-0.547,0-1.103-0.061-1.659-0.187c-28.964-6.539-60.99-23.494-76.151-40.313   c-2.773-3.076-2.527-7.819,0.549-10.593c3.076-2.772,7.819-2.526,10.592,0.55c13.098,14.53,42.466,29.889,68.313,35.726   c4.041,0.912,6.576,4.927,5.664,8.968C374.254,143.165,371.16,145.531,367.731,145.531z"/>
	<path d="M153.417,136.559c-3.428,0-6.522-2.365-7.309-5.85c-0.912-4.041,1.623-8.056,5.664-8.968   c19.435-4.389,41.475-15.89,51.267-26.753c2.772-3.076,7.516-3.322,10.592-0.55c3.077,2.773,3.323,7.516,0.549,10.593   c-11.8,13.092-36.658,26.272-59.104,31.341C154.52,136.498,153.964,136.559,153.417,136.559z"/>
</g>
<path d="M156.43,195.027c-4.142,0-7.5,3.357-7.5,7.5v23.287c0,4.143,3.358,7.5,7.5,7.5s7.5-3.357,7.5-7.5v-23.287  C163.93,198.385,160.572,195.027,156.43,195.027z M355.57,195.027c-4.142,0-7.5,3.357-7.5,7.5v23.287c0,4.143,3.358,7.5,7.5,7.5  s7.5-3.357,7.5-7.5v-23.287C363.07,198.385,359.712,195.027,355.57,195.027z M377.469,378.501c30.334,0,55.013-24.679,55.013-55.013  v-9.269c54.958-48.517,67.028-115.208,69.302-150.987c0.347-5.465-1.57-10.907-5.261-14.933c-3.651-3.982-8.612-6.245-13.969-6.37  c-18.558-0.432-30.495-21.798-43.132-44.418c-7.345-13.148-14.941-26.743-24.482-37.394C378.696,19.665,326.706,0,256,0  S133.304,19.665,97.061,60.118c-9.541,10.65-17.137,24.245-24.482,37.394c-12.638,22.62-24.574,43.986-43.133,44.418  c-5.356,0.125-10.317,2.388-13.969,6.371c-3.691,4.025-5.607,9.468-5.26,14.932c2.274,35.779,14.344,102.47,69.302,150.985v9.271  c0,30.334,24.679,55.013,55.014,55.013c4.659,0,8.613-3.069,9.951-7.291c1.248,1.176,2.515,2.326,3.795,3.458  c-4.847,4.031-9.465,8.34-13.836,12.886c-30.718,5.532-53.483,21.248-67.683,46.747c-11.529,20.704-14.623,43.047-15.188,58.143  c-0.193,5.16,1.675,10.052,5.259,13.772c3.592,3.729,8.423,5.783,13.604,5.783h371.132c5.181,0,10.012-2.054,13.605-5.783  c3.585-3.722,5.452-8.612,5.258-13.772c-0.565-15.097-3.659-37.439-15.188-58.143c-14.2-25.499-36.965-41.215-67.683-46.747  c-4.371-4.546-8.989-8.854-13.836-12.886c1.28-1.133,2.548-2.283,3.795-3.458C368.856,375.432,372.81,378.501,377.469,378.501z   M79.518,237.228c-3.351-4.499-5.272-10.03-5.272-15.862c0-5.831,1.922-11.363,5.272-15.861V237.228z M79.518,185.679  c-12.456,7.438-20.272,20.955-20.272,35.688c0,14.734,7.817,28.251,20.272,35.688v36.429  c-42.482-43.885-52.352-100.051-54.332-131.202c-0.09-1.411,0.401-2.813,1.348-3.845c0.502-0.547,1.593-1.472,3.261-1.511  c27.125-0.631,41.743-26.795,55.878-52.099c6.946-12.433,14.129-25.29,22.56-34.699C141.468,33.032,189.803,15,256,15  s114.532,18.032,147.768,55.128c8.431,9.409,15.613,22.267,22.559,34.699c14.136,25.304,28.754,51.468,55.878,52.099  c1.669,0.039,2.76,0.963,3.262,1.511c0.946,1.032,1.437,2.434,1.348,3.845c-1.98,31.152-11.85,87.317-54.332,131.203v-36.429  c12.456-7.437,20.273-20.955,20.273-35.689c0-14.733-7.817-28.25-20.273-35.688v-6.65c0-0.384-0.029-0.768-0.088-1.146  c-6.444-41.655-27.644-79.859-59.695-107.574C340.313,42.303,298.869,26.88,256,26.88c-41.727,0-86.016,17.975-121.51,49.313  c-34.422,30.393-54.972,68.835-54.972,102.835C79.518,179.028,79.518,185.679,79.518,185.679z M432.482,237.229v-31.725  c3.351,4.499,5.273,10.03,5.273,15.862S435.833,232.73,432.482,237.229z M142.585,169.448c-7.31,1.282-12.616,7.585-12.616,14.985  v178.809c-19.924-2.27-35.452-19.232-35.452-39.754v-144.46c0-29.763,18.654-64.002,49.9-91.591  C177.21,58.485,217.879,41.88,256,41.88c39.266,0,77.226,14.125,106.887,39.773c29.217,25.265,48.59,60.035,54.595,97.958v143.877  c0,20.521-15.527,37.483-35.451,39.754V184.434c0-7.4-5.306-13.703-12.617-14.986c-41.103-7.206-78.484-26.709-108.104-56.4  c-1.407-1.41-3.317-2.203-5.31-2.203c-1.992,0-3.903,0.793-5.31,2.203C221.07,142.738,183.689,162.241,142.585,169.448z M70.434,497  c-1.44,0-2.373-0.745-2.801-1.19c-0.423-0.439-1.126-1.389-1.073-2.806c0.413-11.017,2.689-32.345,13.304-51.406  c8.719-15.658,21.408-26.911,37.823-33.673c-4.346,6.202-8.285,12.682-11.747,19.399C94.876,448.792,88.56,472.734,87.474,497  H70.434z M432.136,441.599c10.614,19.062,12.891,40.39,13.303,51.407c0.053,1.416-0.65,2.365-1.073,2.805  c-0.428,0.444-1.36,1.19-2.801,1.19h-17.04c-1.086-24.266-7.402-48.208-18.466-69.675c-3.462-6.717-7.401-13.197-11.747-19.399  C410.728,414.688,423.417,425.94,432.136,441.599z M392.727,434.196c10.128,19.652,15.77,40.746,16.809,62.804H102.463  c1.04-22.058,6.682-43.151,16.81-62.804c9.908-19.225,24.009-36.375,40.961-49.912c8.709,6.35,17.999,11.803,27.735,16.287  l46.535,56.804c5.299,6.468,13.134,10.178,21.495,10.178c8.362,0,16.196-3.71,21.496-10.178l46.535-56.804  c9.736-4.484,19.026-9.937,27.735-16.287C368.717,397.821,382.819,414.971,392.727,434.196z M215.334,410.305  c13.146,3.389,26.792,5.159,40.666,5.159c13.873,0,27.52-1.771,40.665-5.159l-30.774,37.564c-2.439,2.977-6.044,4.684-9.892,4.684  c-3.848,0-7.453-1.707-9.892-4.684L215.334,410.305z M367.031,350.13c-28.093,32.017-68.398,50.334-111.031,50.334  c-42.634,0-82.939-18.317-111.031-50.335V184.434c0-0.102,0.085-0.19,0.208-0.211c41.738-7.318,79.902-26.435,110.823-55.434  c30.92,28.999,69.085,48.115,110.822,55.433c0.123,0.022,0.209,0.109,0.209,0.212V350.13z M277.639,240.875  c-3.327-2.466-8.023-1.771-10.492,1.555c-2.661,3.585-6.723,5.642-11.147,5.642s-8.487-2.057-11.147-5.642  c-2.468-3.327-7.166-4.023-10.492-1.555c-3.327,2.469-4.022,7.166-1.554,10.492c5.438,7.329,14.108,11.704,23.193,11.704  c9.085,0,17.755-4.375,23.193-11.704C281.661,248.041,280.965,243.344,277.639,240.875z"/>
<g>
</g>
<g>
</g>
<g>
</g>
<g>
</g>
<g>
</g>
<g>
</g>
<g>
</g>
<g>
</g>
<g>
</g>
<g>
</g>
<g>
</g>
<g>
</g>
<g>
</g>
<g>
</g>
<g>
</g>
</svg>
