<?xml version="1.0" encoding="iso-8859-1"?>
<!-- Generator: Adobe Illustrator 19.0.0, SVG Export Plug-In . SVG Version: 6.00 Build 0)  -->
<svg xmlns="http://www.w3.org/2000/svg" xmlns:xlink="http://www.w3.org/1999/xlink" version="1.1" id="Layer_1" x="0px" y="0px" viewBox="0 0 512.002 512.002" style="enable-background:new 0 0 512.002 512.002;" xml:space="preserve">
<rect x="348.532" y="196.67" style="fill:#EC8087;" width="96.64" height="249.98"/>
<path style="fill:#4EBF8C;" d="M131.991,388.796c-71.98,11.508-82.164,75.879-83.191,103.315  c-0.254,6.773,5.183,12.389,11.961,12.389h71.23V388.796z"/>
<path style="opacity:0.08;enable-background:new    ;" d="M121.174,391.046C91.44,420.15,72.371,460.099,70.371,504.5h61.62V388.796  C128.212,389.4,124.62,390.163,121.174,391.046z"/>
<path style="fill:#4EBF8C;" d="M380.013,388.796c71.98,11.508,82.164,75.879,83.191,103.315c0.254,6.773-5.183,12.389-11.961,12.389  h-71.23V388.796z"/>
<path style="opacity:0.08;enable-background:new    ;" d="M390.83,391.046c29.734,29.104,48.803,69.054,50.803,113.454h-61.62  V388.796C383.792,389.4,387.384,390.163,390.83,391.046z"/>
<path style="fill:#4EBF8C;" d="M425.62,504.5c0-93.677-75.94-169.618-169.618-169.618S86.384,410.823,86.384,504.5H425.62z"/>
<g>
	<path style="opacity:0.3;fill:#FFFFFF;enable-background:new    ;" d="M256.002,334.882c-39.835,0-76.458,13.738-105.402,36.727   c6.654,5.891,14.623,13.674,22.001,31.312c9.996,23.9,15.609,58.024,16.735,101.579H322.67   c1.126-43.554,6.738-77.678,16.735-101.579c7.377-17.638,15.346-25.42,22-31.312C332.459,348.621,295.837,334.882,256.002,334.882z   "/>
	<path style="fill:#FFFFFF;" d="M311.278,344.103H200.725c-8.158,2.811-16.031,6.229-23.572,10.195   c16.657,16.659,40.532,51.68,42.972,150.202h71.752c2.44-98.522,26.315-133.543,42.972-150.202   C327.309,350.331,319.436,346.913,311.278,344.103z"/>
</g>
<path style="opacity:0.1;enable-background:new    ;" d="M256.002,334.882c-43.306,0-82.814,16.238-112.788,42.947  c28.37,29.779,68.411,48.338,112.788,48.338l0,0c44.377,0,84.418-18.559,112.788-48.338  C338.816,351.12,299.308,334.882,256.002,334.882z"/>
<g>
	<circle style="fill:#EC8087;" cx="256.002" cy="196.67" r="189.17"/>
	<path style="fill:#EC8087;" d="M156.611,475.66H73.697c-3.792,0-6.865-3.074-6.865-6.865V196.67h96.644v272.125   C163.476,472.586,160.402,475.66,156.611,475.66z"/>
</g>
<path style="opacity:0.1;enable-background:new    ;" d="M99.18,433.667c-4.142,0-7.5-3.357-7.5-7.5v-50.166  c0-4.143,3.358-7.5,7.5-7.5s7.5,3.357,7.5,7.5v50.166C106.68,430.31,103.322,433.667,99.18,433.667z"/>
<path style="fill:#F9D7C3;" d="M123.645,216.585c0,17.078-13.845,30.923-30.923,30.923s-30.923-13.845-30.923-30.923v-15.417  c0-17.078,13.845-30.923,30.923-30.923s30.923,13.845,30.923,30.923C123.645,201.168,123.645,216.585,123.645,216.585z"/>
<g style="opacity:0.15;">
	<path style="fill:#EC8087;" d="M123.645,216.585c0,17.078-13.845,30.923-30.923,30.923s-30.923-13.845-30.923-30.923v-15.417   c0-17.078,13.845-30.923,30.923-30.923s30.923,13.845,30.923,30.923C123.645,201.168,123.645,216.585,123.645,216.585z"/>
</g>
<path style="opacity:0.1;enable-background:new    ;" d="M92.722,170.245c-3.373,0-6.617,0.548-9.656,1.546  c-0.602,5.699-0.917,11.484-0.917,17.343v50.516c0,2.024,0.05,4.036,0.123,6.043c3.265,1.172,6.782,1.815,10.451,1.815  c17.078,0,30.923-13.844,30.923-30.923v-15.417C123.645,184.09,109.8,170.245,92.722,170.245z"/>
<path style="fill:#F9D7C3;" d="M388.359,216.585c0,17.078,13.845,30.923,30.923,30.923s30.923-13.845,30.923-30.923v-15.417  c0-17.078-13.845-30.923-30.923-30.923s-30.923,13.845-30.923,30.923V216.585z"/>
<g style="opacity:0.15;">
	<path style="fill:#EC8087;" d="M388.359,216.585c0,17.078,13.845,30.923,30.923,30.923s30.923-13.845,30.923-30.923v-15.417   c0-17.078-13.845-30.923-30.923-30.923s-30.923,13.845-30.923,30.923V216.585z"/>
</g>
<path style="opacity:0.1;enable-background:new    ;" d="M419.282,170.245c3.373,0,6.617,0.548,9.656,1.546  c0.602,5.699,0.917,11.484,0.917,17.343v50.516c0,2.024-0.05,4.036-0.123,6.043c-3.265,1.172-6.782,1.815-10.451,1.815  c-17.078,0-30.923-13.844-30.923-30.923v-15.417C388.359,184.09,402.204,170.245,419.282,170.245z"/>
<g>
	<circle style="fill:#4EBF8C;" cx="435.122" cy="241.8" r="22.294"/>
	<circle style="fill:#4EBF8C;" cx="76.886" cy="241.8" r="22.294"/>
</g>
<path style="fill:#F9D7C3;" d="M256.002,25.855L256.002,25.855c-90.178,0-163.28,73.103-163.28,163.28v50.516  c0,90.177,73.103,163.28,163.28,163.28l0,0c90.177,0,163.28-73.103,163.28-163.28v-50.516  C419.282,98.957,346.179,25.855,256.002,25.855z"/>
<path style="fill:#EC8087;" d="M265.794,18.5h-9.792c-85.958,0-172.922,73.037-162.805,158.094  c44.179-0.134,182.11-4.928,219.829-75.966c13.443,28.888,55.549,67.343,105.998,79.372C425.62,95.118,352.906,18.5,265.794,18.5z"/>
<g style="opacity:0.1;">
	<path d="M163.468,146.799c-3.557,0-6.714-2.539-7.371-6.163c-0.739-4.075,1.965-7.979,6.041-8.718   c16.563-3.003,40.817-8.799,62.311-19.352c22.426-11.012,36.995-24.748,43.301-40.827c1.512-3.858,5.865-5.758,9.72-4.244   c3.856,1.513,5.756,5.865,4.244,9.721c-17.731,45.209-80.852,62.925-116.899,69.462   C164.362,146.76,163.912,146.799,163.468,146.799z"/>
	<path d="M131.991,118.307c-4.142,0-7.5-3.357-7.5-7.5s3.358-7.5,7.5-7.5c24.783,0,55.168-10.081,72.251-23.971   c3.213-2.613,7.938-2.126,10.551,1.088c2.613,3.214,2.126,7.938-1.088,10.551C193.913,107.067,160.311,118.307,131.991,118.307z"/>
</g>
<g>
	<path style="fill:#EC8087;" d="M163.476,250.804h-32.185c-4.142,0-7.5-3.357-7.5-7.5s3.358-7.5,7.5-7.5h32.185   c4.142,0,7.5,3.357,7.5,7.5C170.976,247.446,167.618,250.804,163.476,250.804z"/>
	<path style="fill:#EC8087;" d="M380.713,250.804h-32.185c-4.142,0-7.5-3.357-7.5-7.5s3.358-7.5,7.5-7.5h32.185   c4.142,0,7.5,3.357,7.5,7.5C388.213,247.446,384.855,250.804,380.713,250.804z"/>
	<path style="fill:#EC8087;" d="M256.002,251.12c-9.697,0-18.951-4.671-24.754-12.494c-2.467-3.326-1.771-8.024,1.556-10.491   c3.326-2.468,8.024-1.771,10.492,1.556c3.031,4.086,7.663,6.43,12.706,6.43c5.044,0,9.675-2.344,12.706-6.43   c2.467-3.327,7.166-4.024,10.492-1.557c3.327,2.468,4.024,7.165,1.556,10.492C274.953,246.449,265.7,251.12,256.002,251.12z"/>
</g>
<path d="M454.769,430.831c-0.678-1.218-1.381-2.406-2.097-3.581V265.853c7.413-5.425,12.24-14.184,12.24-24.053  c0-7.616-2.876-14.571-7.594-19.844c0.25-1.778,0.387-3.572,0.387-5.371v-15.417c0-7.328-2.076-14.188-5.664-20.028  c-3.822-48.89-25.623-94.268-61.545-127.957C353.926,18.888,306.162,0,256.002,0s-97.924,18.888-134.493,53.183  c-35.92,33.686-57.72,79.059-61.545,127.945c-3.59,5.841-5.665,12.705-5.665,20.041v15.417c0,1.799,0.137,3.593,0.388,5.371  c-4.719,5.273-7.595,12.228-7.595,19.844c0,9.869,4.827,18.628,12.24,24.053v161.405c-14.432,23.687-17.5,50.485-18.027,64.572  c-0.2,5.322,1.727,10.367,5.423,14.206c3.706,3.847,8.689,5.965,14.032,5.965h390.482c5.343,0,10.327-2.118,14.032-5.965  c3.697-3.839,5.623-8.884,5.423-14.205C470.106,475.989,466.861,452.547,454.769,430.831z M449.912,241.8  c0,8.157-6.637,14.794-14.794,14.794c-3.238,0-6.358-1.075-8.908-3c0.374-4.6,0.572-9.249,0.572-13.943v-10.07  c2.438-1.672,5.315-2.575,8.335-2.575C443.275,227.006,449.912,233.643,449.912,241.8z M100.222,239.65v-50.516  c0-1.695,0.028-3.397,0.082-5.101c28.689-0.4,68.472-2.848,106.881-11.518c50.607-11.424,86.003-30.648,105.471-57.233  c17.924,27.605,55.07,58.374,99.09,70.585c0.024,1.105,0.036,2.195,0.036,3.267v50.516c0,85.898-69.883,155.78-155.78,155.78  S100.222,325.548,100.222,239.65z M155.976,377.984v90.177H74.332V271.477c0.843,0.072,1.693,0.117,2.554,0.117  c3.789,0,7.5-0.728,10.951-2.094C95.702,313.935,120.812,352.486,155.976,377.984z M424.167,269.5  c3.451,1.366,7.162,2.094,10.951,2.094c0.861,0,1.711-0.045,2.554-0.117v136.791c-13.996-13.664-32.053-22.521-53.963-26.447  c-4.737-4.935-9.757-9.597-15.027-13.954C397.177,342.795,417.281,308.403,424.167,269.5z M442.705,201.168v11.82  c-2.423-0.639-4.966-0.982-7.587-0.982c-2.863,0-5.661,0.408-8.335,1.183v-24.054c0-2.911-0.088-5.946-0.248-9.018  c0.029-0.395,0.059-0.791,0.085-1.188C435.947,182.02,442.705,190.835,442.705,201.168z M131.77,64.124  C165.548,32.446,209.667,15,256.002,15c46.334,0,90.454,17.446,124.232,49.124c29.196,27.38,48.294,63.113,54.87,102.056  c-4.78-2.174-10.074-3.406-15.648-3.431h-0.034c-4.119,0-7.47,3.324-7.499,7.447c0,0.029-0.001,0.056-0.001,0.085  c-42.751-13.207-79.772-46.333-92.095-72.816c-1.201-2.58-3.758-4.259-6.603-4.333c-2.855-0.077-5.487,1.467-6.821,3.979  c-32.837,61.842-150.3,71.123-206.366,71.921c-0.585-3.587-3.695-6.285-7.4-6.285h-0.021c-5.599,0.015-10.916,1.246-15.715,3.427  C83.478,127.234,102.575,91.503,131.77,64.124z M69.299,201.168c0-10.394,6.826-19.239,16.23-22.285  c-0.202,3.409-0.307,6.845-0.307,10.251v24.054c-2.674-0.775-5.473-1.183-8.336-1.183c-2.621,0-5.163,0.343-7.587,0.982V201.168z   M76.886,227.006c3.021,0,5.898,0.903,8.336,2.575v10.07c0,4.695,0.199,9.343,0.572,13.943c-2.549,1.925-5.67,3-8.908,3  c-8.157,0-14.794-6.637-14.794-14.794C62.092,233.643,68.729,227.006,76.886,227.006z M79.044,497H60.761  c-1.23,0-2.377-0.487-3.229-1.371c-0.489-0.508-1.299-1.603-1.238-3.238c0.225-6.013,0.96-14.603,3.038-24.197v0.602  c0,7.921,6.444,14.365,14.365,14.365h6.479C79.623,487.756,79.239,492.377,79.044,497z M94.058,497  c0.214-4.626,0.638-9.248,1.243-13.84h61.31c7.921,0,14.365-6.444,14.365-14.365v-47.847c5.85,19.988,9.408,45.459,10.611,76.052  H94.058z M196.596,497c-1.575-41.025-7.312-73.625-17.077-96.974c-1.54-3.682-3.155-7.077-4.864-10.244  c6.947,3.78,14.189,7.082,21.674,9.882c9.158,24.604,14.551,57.298,16.058,97.335h-15.791V497z M284.608,497h-57.213  c-1.338-36.375-5.82-67.149-13.368-91.795c13.434,3.408,27.496,5.226,41.975,5.226c14.479,0,28.54-1.818,41.974-5.225  C290.429,429.851,285.946,460.625,284.608,497z M299.617,497c1.507-40.037,6.9-72.731,16.058-97.335  c7.483-2.8,14.724-6.102,21.671-9.88c-1.641,3.043-3.267,6.431-4.861,10.243c-9.765,23.349-15.501,55.95-17.076,96.973h-15.792V497z   M330.417,497c1.531-38.938,6.874-69.589,15.906-91.185c5.071-12.125,10.298-19.039,15.382-24.198  c15.788,13.613,28.981,30.264,38.5,48.735c10.745,20.849,16.702,43.235,17.748,66.648H330.417z M454.472,495.629  c-0.852,0.884-1.998,1.371-3.228,1.371h-18.303c-1.091-25.603-7.73-50.875-19.402-73.521c-3.835-7.44-8.216-14.61-13.08-21.445  c17.946,7.085,31.77,19.152,41.205,36.095c11.208,20.127,13.611,42.636,14.046,54.263  C455.771,494.026,454.96,495.121,454.472,495.629z M147.384,185.048c-14.398,0-26.112,11.714-26.112,26.111  c0,4.143,3.358,7.5,7.5,7.5s7.5-3.357,7.5-7.5c0-6.127,4.985-11.111,11.112-11.111s11.111,4.984,11.111,11.111  c0,4.143,3.358,7.5,7.5,7.5s7.5-3.357,7.5-7.5C173.495,196.762,161.782,185.048,147.384,185.048z M346.009,218.659  c4.142,0,7.5-3.357,7.5-7.5c0-6.127,4.984-11.111,11.111-11.111c6.127,0,11.111,4.984,11.111,11.111c0,4.143,3.358,7.5,7.5,7.5  s7.5-3.357,7.5-7.5c0-14.397-11.713-26.111-26.111-26.111s-26.111,11.714-26.111,26.111  C338.509,215.302,341.867,218.659,346.009,218.659z"/>
<g>
</g>
<g>
</g>
<g>
</g>
<g>
</g>
<g>
</g>
<g>
</g>
<g>
</g>
<g>
</g>
<g>
</g>
<g>
</g>
<g>
</g>
<g>
</g>
<g>
</g>
<g>
</g>
<g>
</g>
</svg>
