<?xml version="1.0" encoding="iso-8859-1"?>
<!-- Generator: Adobe Illustrator 19.0.0, SVG Export Plug-In . SVG Version: 6.00 Build 0)  -->
<svg xmlns="http://www.w3.org/2000/svg" xmlns:xlink="http://www.w3.org/1999/xlink" version="1.1" id="Layer_1" x="0px" y="0px" viewBox="0 0 512 512" style="enable-background:new 0 0 512 512;" xml:space="preserve">
<circle style="fill:#F9D7C3;" cx="86.46" cy="201.55" r="40.775"/>
<circle style="opacity:0.15;fill:#EC8087;enable-background:new    ;" cx="86.46" cy="201.55" r="40.775"/>
<path style="opacity:0.07;enable-background:new    ;" d="M86.459,160.772c-4.656,0-9.126,0.791-13.294,2.228  c-0.38,4.631-0.583,9.312-0.583,14.041v52.453c0,3.532,0.121,7.036,0.334,10.515c4.238,1.492,8.794,2.313,13.543,2.313  c22.519,0,40.775-18.256,40.775-40.775C127.233,179.028,108.978,160.772,86.459,160.772z"/>
<circle style="fill:#F9D7C3;" cx="425.54" cy="201.55" r="40.775"/>
<circle style="opacity:0.15;fill:#EC8087;enable-background:new    ;" cx="425.54" cy="201.55" r="40.775"/>
<path style="opacity:0.07;enable-background:new    ;" d="M425.542,160.772c4.656,0,9.126,0.791,13.294,2.228  c0.38,4.631,0.583,9.312,0.583,14.041v52.453c0,3.532-0.121,7.036-0.334,10.515c-4.238,1.492-8.794,2.313-13.542,2.313  c-22.519,0-40.775-18.256-40.775-40.775C384.767,179.028,403.022,160.772,425.542,160.772z"/>
<path style="fill:#394049;" d="M127.233,384.359c-74.74,11.949-85.315,78.789-86.381,107.277  c-0.263,7.033,5.382,12.864,12.42,12.864h73.962L127.233,384.359L127.233,384.359z"/>
<path style="opacity:0.3;enable-background:new    ;" d="M116.002,386.695c-30.874,30.22-50.675,71.702-52.751,117.805h63.983  V384.359C123.31,384.986,119.58,385.779,116.002,386.695z"/>
<path style="fill:#394049;" d="M384.767,384.359c74.74,11.949,85.315,78.789,86.381,107.277c0.263,7.033-5.382,12.864-12.419,12.864  h-73.962V384.359z"/>
<path style="opacity:0.3;enable-background:new    ;" d="M395.998,386.695c30.874,30.22,50.675,71.702,52.751,117.805h-63.983  V384.359C388.69,384.986,392.421,385.779,395.998,386.695z"/>
<path style="fill:#394049;" d="M432.122,504.5c0-97.27-78.853-176.122-176.122-176.122S79.878,407.23,79.878,504.5H432.122z"/>
<polygon style="fill:#E8E8E8;" points="332.074,363.614 179.926,363.614 207.687,504.5 304.314,504.5 "/>
<polygon style="fill:#EC8087;" points="268.947,371.703 243.053,371.703 234.395,504.5 277.607,504.5 "/>
<g>
	<path style="fill:#FFFFFF;" d="M188.924,354.98l-26.979,69.499c-2.7,6.955,4.34,13.711,11.179,10.727L256,399.036L188.924,354.98z"/>
	<path style="fill:#FFFFFF;" d="M323.076,354.98l26.979,69.499c2.7,6.955-4.341,13.711-11.179,10.727L256,399.036L323.076,354.98z"/>
</g>
<path style="opacity:0.1;enable-background:new    ;" d="M256,328.378c-44.967,0-85.989,16.861-117.113,44.593  c29.458,30.921,71.035,50.191,117.113,50.191l0,0c46.078,0,87.655-19.27,117.113-50.191C341.99,345.239,300.967,328.378,256,328.378  z"/>
<path style="fill:#F9D7C3;" d="M256,7.5L256,7.5c-93.635,0-169.542,75.906-169.542,169.541v52.453  c0,93.635,75.906,169.541,169.541,169.541l0,0c93.635,0,169.541-75.906,169.541-169.541v-52.453C425.542,83.406,349.635,7.5,256,7.5  z"/>
<g>
	<path style="fill:#EC8087;" d="M157.986,235.375h-34.094c-4.143,0-7.5-3.357-7.5-7.5s3.357-7.5,7.5-7.5h34.094   c4.143,0,7.5,3.357,7.5,7.5S162.129,235.375,157.986,235.375z"/>
	<path style="fill:#EC8087;" d="M388.108,235.375h-34.094c-4.142,0-7.5-3.357-7.5-7.5s3.358-7.5,7.5-7.5h34.094   c4.143,0,7.5,3.357,7.5,7.5S392.251,235.375,388.108,235.375z"/>
</g>
<path style="opacity:0.1;enable-background:new    ;" d="M256,283.974c20.598,0,40.05-3.216,57.258-8.922  c8.503-2.819,12.424-12.738,7.95-20.499c-12.991-22.538-37.326-37.71-65.209-37.71s-52.218,15.172-65.209,37.71  c-4.474,7.761-0.552,17.68,7.95,20.499C215.951,280.758,235.402,283.974,256,283.974z"/>
<g>
	<path style="fill:#4DB1E0;" d="M256,272.002c20.598,0,40.05-3.216,57.258-8.922c8.503-2.819,12.424-12.738,7.95-20.499   c-12.991-22.538-37.326-37.71-65.209-37.71s-52.218,15.172-65.209,37.71c-4.474,7.761-0.552,17.68,7.95,20.499   C215.951,268.786,235.402,272.002,256,272.002z"/>
	<path style="fill:#4DB1E0;" d="M395.164,80.197c-9.638,10.612-15.512,24.704-15.512,40.168c0,28.228,19.576,51.869,45.889,58.129   v-1.453C425.542,141.033,414.307,107.653,395.164,80.197z"/>
	<path style="fill:#4DB1E0;" d="M116.836,80.197c9.638,10.612,15.512,24.704,15.512,40.168c0,28.228-19.576,51.869-45.889,58.129   v-1.453C86.458,141.033,97.693,107.653,116.836,80.197z"/>
</g>
<path style="opacity:0.1;enable-background:new    ;" d="M248.721,205.225v66.639c2.41,0.089,4.837,0.138,7.281,0.138  c2.444,0,4.87-0.049,7.28-0.138v-66.639c-2.396-0.23-4.823-0.354-7.28-0.354C253.545,204.871,251.117,204.995,248.721,205.225z   M209.997,266.362c4.776,1.217,9.69,2.25,14.725,3.087c-0.706-9.024-0.358-20.355,1.084-31.622  c1.489-11.64,3.96-21.837,6.989-29.299c-6.398,2.074-12.418,4.981-17.936,8.595C210.92,232.951,209.344,251.48,209.997,266.362z   M297.141,217.123c-5.518-3.614-11.538-6.521-17.936-8.595c3.029,7.462,5.5,17.658,6.989,29.299  c1.442,11.267,1.79,22.598,1.084,31.622c5.035-0.836,9.95-1.869,14.725-3.087C302.658,251.48,301.081,232.951,297.141,217.123z"/>
<path d="M462.137,428.147c-15.439-27.726-40.22-44.792-73.675-50.763c-5.008-5.222-10.324-10.147-15.907-14.745  c32.35-28.355,54.31-68.28,59.362-113.25c23.614-3.131,41.9-23.384,41.9-47.841c0-24.602-18.504-44.951-42.323-47.894  C420.013,67.047,345.693,0,256,0S91.987,67.047,80.506,153.653c-23.819,2.944-42.323,23.293-42.323,47.894  c0,24.456,18.285,44.71,41.9,47.841c5.052,44.97,27.011,84.895,59.361,113.25c-5.583,4.598-10.899,9.523-15.907,14.746  c-33.454,5.971-58.236,23.037-73.675,50.763c-12.527,22.498-15.89,46.791-16.505,63.208c-0.204,5.448,1.768,10.611,5.552,14.54  c3.792,3.938,8.893,6.105,14.362,6.105h405.457c5.47,0,10.57-2.168,14.362-6.105c3.784-3.929,5.756-9.092,5.552-14.539  C478.027,474.938,474.665,450.646,462.137,428.147z M458.816,201.547c0,15.792-11.061,29.04-25.832,32.427  c0.037-1.489,0.057-2.982,0.057-4.48v-52.453c0-2.665-0.07-5.313-0.187-7.949C447.694,172.434,458.816,185.712,458.816,201.547z   M79.016,233.972c-14.775-3.391-25.832-16.637-25.832-32.425c0-15.835,11.123-29.113,25.962-32.455  c-0.117,2.636-0.187,5.285-0.187,7.949v52.453C78.959,230.991,78.979,232.484,79.016,233.972z M394.693,93.325  c13.336,22.012,21.577,47.436,23.088,74.626c-18.43-8.319-30.629-26.688-30.629-47.586  C387.152,110.743,389.79,101.423,394.693,93.325z M117.307,93.325c4.903,8.099,7.541,17.419,7.541,27.04  c0,20.897-12.199,39.266-30.629,47.585C95.73,140.76,103.971,115.336,117.307,93.325z M93.959,229.494v-45.349  c27.298-9.082,45.889-34.512,45.889-63.78c0-14.674-4.755-28.809-13.497-40.42C155.939,40.539,203.043,15,256,15  s100.062,25.539,129.649,64.945c-8.742,11.612-13.497,25.747-13.497,40.42c0,29.269,18.591,54.699,45.889,63.781v45.348  c0,89.351-72.691,162.042-162.041,162.042S93.959,318.845,93.959,229.494z M328.939,390.804l14.125,36.387  c0.075,0.194,0.216,0.556-0.214,0.967c-0.431,0.413-0.782,0.257-0.973,0.174l-55.816-24.36  C301.078,401.392,315.458,396.923,328.939,390.804z M225.939,403.972l-55.816,24.36c-0.19,0.084-0.543,0.239-0.974-0.174  c-0.429-0.411-0.288-0.772-0.214-0.966l14.126-36.388C196.543,396.923,210.922,401.392,225.939,403.972z M53.271,497  c-1.356,0-2.62-0.537-3.56-1.512c-0.93-0.966-1.415-2.234-1.364-3.572c0.452-12.098,2.954-35.521,14.62-56.473  c9.998-17.954,24.708-30.672,43.87-37.998c-5.281,7.335-10.029,15.044-14.16,23.06C80.536,444.063,73.647,470.362,72.551,497H53.271  z M87.538,497c1.05-24.462,7.251-47.849,18.474-69.624c10.961-21.267,26.595-40.223,45.401-55.129  c5.81,4.268,11.889,8.19,18.207,11.736l-14.668,37.782c-2.329,6.001-0.833,12.76,3.812,17.217c3.027,2.904,6.975,4.433,10.99,4.433  c2.146,0,4.313-0.438,6.369-1.334l10.7-4.67L198.566,497H87.538z M227.368,497h-13.514l-12.952-65.734l31.654-13.815L227.368,497z   M242.4,497l5.628-86.302l7.973-3.48l7.974,3.48L269.602,497H242.4z M298.148,497h-13.514l-5.187-79.548l31.653,13.814L298.148,497z   M313.436,497l11.741-59.59l10.7,4.67c2.056,0.897,4.222,1.334,6.369,1.334c4.015,0,7.962-1.528,10.988-4.432  c4.646-4.457,6.143-11.215,3.813-17.218l-14.667-37.782c6.318-3.547,12.397-7.468,18.208-11.737  c18.806,14.907,34.44,33.864,45.4,55.131c11.223,21.774,17.424,45.161,18.474,69.623L313.436,497L313.436,497z M462.288,495.488  c-0.939,0.975-2.203,1.512-3.56,1.512h-19.28c-1.095-26.637-7.985-52.936-20.126-76.495c-4.131-8.016-8.879-15.725-14.16-23.059  c19.162,7.326,33.872,20.044,43.87,37.998c11.666,20.951,14.168,44.375,14.62,56.474  C463.703,493.254,463.218,494.522,462.288,495.488z M371.065,200.313c4.143,0,7.5-3.357,7.5-7.5V167.45c0-4.143-3.357-7.5-7.5-7.5  c-4.142,0-7.5,3.357-7.5,7.5v25.363C363.565,196.955,366.923,200.313,371.065,200.313z M196.382,270.199  c18.617,6.173,38.676,9.303,59.619,9.303c20.944,0,41.003-3.13,59.619-9.303c6.254-2.074,11.187-6.797,13.532-12.957  c2.317-6.085,1.791-12.794-1.444-18.406c-14.742-25.576-42.219-41.465-71.707-41.465s-56.965,15.889-71.707,41.465  c-3.235,5.612-3.762,12.32-1.444,18.405C185.195,263.402,190.128,268.125,196.382,270.199z M197.29,246.326  c12.072-20.944,34.569-33.955,58.711-33.955s46.639,13.011,58.711,33.955c1.335,2.315,0.838,4.488,0.423,5.578  c-0.735,1.93-2.278,3.408-4.235,4.057c-17.091,5.668-35.561,8.541-54.898,8.541c-19.336,0-37.807-2.874-54.898-8.541  c-1.956-0.648-3.5-2.128-4.235-4.058C196.452,250.814,195.956,248.641,197.29,246.326z M148.436,192.813V167.45  c0-4.143-3.357-7.5-7.5-7.5s-7.5,3.357-7.5,7.5v25.363c0,4.143,3.357,7.5,7.5,7.5C145.077,200.313,148.436,196.955,148.436,192.813z  "/>
<g>
</g>
<g>
</g>
<g>
</g>
<g>
</g>
<g>
</g>
<g>
</g>
<g>
</g>
<g>
</g>
<g>
</g>
<g>
</g>
<g>
</g>
<g>
</g>
<g>
</g>
<g>
</g>
<g>
</g>
</svg>
