<?xml version="1.0" encoding="iso-8859-1"?>
<!-- Generator: Adobe Illustrator 19.0.0, SVG Export Plug-In . SVG Version: 6.00 Build 0)  -->
<svg xmlns="http://www.w3.org/2000/svg" xmlns:xlink="http://www.w3.org/1999/xlink" version="1.1" id="Layer_1" x="0px" y="0px" viewBox="0 0 511.999 511.999" style="enable-background:new 0 0 511.999 511.999;" xml:space="preserve">
<circle style="fill:#F2BE89;" cx="86.459" cy="201.55" r="40.775"/>
<circle style="opacity:0.15;fill:#EC8087;enable-background:new    ;" cx="86.459" cy="201.55" r="40.775"/>
<path style="opacity:0.07;enable-background:new    ;" d="M86.457,160.772c-4.656,0-9.126,0.791-13.294,2.228  c-0.38,4.631-0.583,9.312-0.583,14.041v52.453c0,3.532,0.121,7.036,0.334,10.515c4.238,1.492,8.794,2.313,13.543,2.313  c22.519,0,40.775-18.256,40.775-40.775S108.976,160.772,86.457,160.772z"/>
<circle style="fill:#F2BE89;" cx="425.539" cy="201.55" r="40.775"/>
<circle style="opacity:0.15;fill:#EC8087;enable-background:new    ;" cx="425.539" cy="201.55" r="40.775"/>
<path style="opacity:0.07;enable-background:new    ;" d="M425.54,160.772c4.656,0,9.125,0.791,13.294,2.228  c0.379,4.631,0.583,9.312,0.583,14.041v52.453c0,3.532-0.121,7.036-0.334,10.515c-4.238,1.492-8.794,2.313-13.542,2.313  c-22.519,0-40.775-18.256-40.775-40.775C384.765,179.028,403.021,160.772,425.54,160.772z"/>
<path style="fill:#F2BE89;" d="M127.232,384.359c-74.74,11.949-85.315,78.789-86.381,107.277  c-0.263,7.033,5.382,12.864,12.42,12.864h73.962L127.232,384.359L127.232,384.359z"/>
<path style="opacity:0.08;enable-background:new    ;" d="M116,386.695c-30.874,30.22-50.674,71.702-52.751,117.805h63.983V384.359  C123.308,384.986,119.578,385.779,116,386.695z"/>
<path style="fill:#F2BE89;" d="M384.765,384.359c74.74,11.949,85.315,78.789,86.381,107.277c0.263,7.033-5.382,12.864-12.42,12.864  h-73.962V384.359H384.765z"/>
<path style="opacity:0.08;enable-background:new    ;" d="M395.997,386.695c30.874,30.22,50.675,71.702,52.751,117.805h-63.983  V384.359C388.689,384.986,392.419,385.779,395.997,386.695z"/>
<path style="fill:#4DB1E0;" d="M432.12,504.5c0-97.27-78.852-176.122-176.122-176.122S79.876,407.23,79.876,504.5H432.12z"/>
<path style="fill:#F2BE89;" d="M255.998,328.378c-32.967,0-63.812,9.067-90.195,24.83c0.074,49.751,40.427,90.061,90.195,90.061  s90.122-40.309,90.196-90.06C319.811,337.445,288.966,328.378,255.998,328.378z"/>
<path style="opacity:0.1;enable-background:new    ;" d="M255.998,328.378c-44.967,0-85.989,16.861-117.113,44.593  c29.458,30.921,71.035,50.191,117.113,50.191l0,0c46.078,0,87.655-19.27,117.113-50.191  C341.988,345.239,300.965,328.378,255.998,328.378z"/>
<path style="fill:#F2BE89;" d="M255.999,7.5L255.999,7.5c-93.635,0-169.542,75.906-169.542,169.541v52.453  c0,93.635,75.906,169.541,169.541,169.541l0,0c93.635,0,169.541-75.906,169.541-169.541v-52.453  C425.54,83.406,349.634,7.5,255.999,7.5z"/>
<path style="opacity:0.3;fill:#FFFFFF;enable-background:new    ;" d="M365.16,47.329c-18.839-15.87-41.178-27.711-65.7-34.196  c-17.888,7.219-30.517,24.732-30.517,45.205c0,26.918,21.822,48.74,48.74,48.74c26.919,0,48.74-21.822,48.74-48.74  C366.424,54.55,365.978,50.868,365.16,47.329z"/>
<g>
	<circle style="fill:#EC8087;" cx="255.999" cy="241.61" r="21.261"/>
	<path style="fill:#EC8087;" d="M157.984,256.791H123.89c-4.143,0-7.5-3.357-7.5-7.5s3.357-7.5,7.5-7.5h34.094   c4.143,0,7.5,3.357,7.5,7.5S162.126,256.791,157.984,256.791z"/>
	<path style="fill:#EC8087;" d="M388.107,256.791h-34.094c-4.142,0-7.5-3.357-7.5-7.5s3.358-7.5,7.5-7.5h34.094   c4.143,0,7.5,3.357,7.5,7.5S392.25,256.791,388.107,256.791z"/>
</g>
<path style="fill:#F2BE89;" d="M255.996,270.373c-15.859,0-28.762-12.902-28.762-28.761s12.902-28.761,28.762-28.761  c15.858,0,28.76,12.902,28.76,28.761S271.854,270.373,255.996,270.373z M255.996,227.852c-7.588,0-13.762,6.173-13.762,13.761  s6.174,13.761,13.762,13.761c7.587,0,13.76-6.173,13.76-13.761C269.755,234.024,263.583,227.852,255.996,227.852z"/>
<path style="opacity:0.4;fill:#FFFFFF;enable-background:new    ;" d="M255.996,270.373c-15.859,0-28.762-12.902-28.762-28.761  s12.902-28.761,28.762-28.761c15.858,0,28.76,12.902,28.76,28.761S271.854,270.373,255.996,270.373z M255.996,227.852  c-7.588,0-13.762,6.173-13.762,13.761s6.174,13.761,13.762,13.761c7.587,0,13.76-6.173,13.76-13.761  C269.755,234.024,263.583,227.852,255.996,227.852z"/>
<path style="fill:#E8E8E8;" d="M417.975,95.103H94.022c-13.654,0-24.724,11.069-24.724,24.724l0,0  c0,13.655,11.069,24.724,24.724,24.724h323.953c13.655,0,24.724-11.069,24.724-24.724l0,0  C442.698,106.172,431.629,95.103,417.975,95.103z"/>
<path style="opacity:0.1;enable-background:new    ;" d="M171.943,144.55h20.593l49.448-49.447h-20.593L171.943,144.55z   M417.975,95.102h-0.445l-49.447,49.447h20.593l44.34-44.34C428.848,97.009,423.635,95.102,417.975,95.102z M78.981,139.443  c4.168,3.2,9.38,5.107,15.041,5.107h0.445l49.448-49.447h-20.594L78.981,139.443z M270.012,144.55h20.593l49.447-49.447h-20.593  L270.012,144.55z"/>
<path d="M371.064,221.729c4.143,0,7.5-3.357,7.5-7.5v-25.363c0-4.143-3.357-7.5-7.5-7.5s-7.5,3.357-7.5,7.5v25.363  C363.564,218.371,366.921,221.729,371.064,221.729z M148.433,214.229v-25.363c0-4.143-3.358-7.5-7.5-7.5c-4.143,0-7.5,3.357-7.5,7.5  v25.363c0,4.143,3.357,7.5,7.5,7.5C145.076,221.729,148.433,218.371,148.433,214.229z M462.136,428.147  c-15.44-27.726-40.221-44.792-73.675-50.763c-5.008-5.223-10.324-10.148-15.907-14.746c32.35-28.355,54.309-68.28,59.362-113.249  c23.614-3.132,41.899-23.385,41.899-47.841c0-24.604-18.508-44.955-42.33-47.895c-0.19-1.436-0.397-2.869-0.622-4.299  c11.371-4.982,19.337-16.338,19.337-29.526c0-17.769-14.455-32.224-32.224-32.224h-9.192C377.034,33.459,318.914,0,255.999,0  S134.963,33.459,103.214,87.603h-9.192c-17.768,0-32.224,14.455-32.224,32.224c0,13.188,7.966,24.544,19.337,29.526  c-0.225,1.43-0.432,2.863-0.622,4.299c-23.823,2.941-42.331,23.291-42.331,47.895c0,24.456,18.285,44.71,41.9,47.841  c5.052,44.97,27.011,84.895,59.362,113.249c-5.583,4.598-10.899,9.523-15.907,14.746c-33.454,5.971-58.236,23.037-73.675,50.763  c-12.528,22.499-15.891,46.792-16.505,63.208c-0.204,5.447,1.768,10.611,5.552,14.539c3.793,3.938,8.894,6.106,14.362,6.106h405.457  c5.469,0,10.569-2.168,14.362-6.105c3.784-3.928,5.756-9.091,5.553-14.539C478.027,474.938,474.665,450.645,462.136,428.147z   M458.814,201.547c0,15.791-11.061,29.04-25.831,32.427c0.037-1.489,0.057-2.982,0.057-4.48v-52.453  c0-2.649-0.066-5.299-0.185-7.949C447.693,172.436,458.814,185.713,458.814,201.547z M79.014,233.972  c-14.775-3.391-25.832-16.637-25.832-32.425c0-15.835,11.122-29.112,25.96-32.455c-0.119,2.649-0.185,5.3-0.185,7.949v52.453  C78.958,230.991,78.977,232.484,79.014,233.972z M255.999,15c54.586,0,105.226,27.524,135.11,72.603h-270.22  C150.772,42.524,201.413,15,255.999,15z M76.798,119.826c0-9.497,7.727-17.224,17.224-17.224h323.953  c9.497,0,17.224,7.727,17.224,17.224s-7.727,17.224-17.224,17.224H94.022C84.525,137.05,76.798,129.323,76.798,119.826z   M93.958,229.494v-52.453c0-8.357,0.657-16.735,1.936-24.991h320.209c1.279,8.256,1.936,16.634,1.936,24.991v52.453  c0,89.35-72.691,162.041-162.041,162.041S93.958,318.844,93.958,229.494z M329.831,390.385  c-13.794,27.415-42.017,45.384-73.832,45.384s-60.038-17.969-73.833-45.384c22.486,10.36,47.495,16.15,73.833,16.15  S307.345,400.745,329.831,390.385z M53.27,497c-1.356,0-2.62-0.537-3.559-1.512c-0.931-0.967-1.416-2.234-1.365-3.572  c0.452-12.098,2.953-35.52,14.62-56.473c9.997-17.954,24.707-30.672,43.87-37.998c-5.282,7.335-10.029,15.044-14.16,23.06  C80.535,444.063,73.645,470.362,72.55,497H53.27z M87.537,497c1.05-24.462,7.251-47.849,18.474-69.624  c10.961-21.267,26.595-40.224,45.401-55.13c3.412,2.506,6.916,4.893,10.507,7.155c11.749,42.168,49.999,71.367,94.08,71.367  s82.331-29.199,94.08-71.367c3.591-2.262,7.095-4.649,10.507-7.155c18.806,14.906,34.44,33.863,45.401,55.13  c11.223,21.775,17.424,45.162,18.474,69.624H87.537z M462.287,495.488c-0.939,0.975-2.203,1.512-3.56,1.512h-19.28  c-1.095-26.638-7.985-52.937-20.126-76.495c-4.131-8.016-8.879-15.725-14.16-23.06c19.163,7.326,33.873,20.044,43.87,37.998  c11.667,20.951,14.169,44.375,14.621,56.473C463.703,493.253,463.217,494.522,462.287,495.488z"/>
<g>
</g>
<g>
</g>
<g>
</g>
<g>
</g>
<g>
</g>
<g>
</g>
<g>
</g>
<g>
</g>
<g>
</g>
<g>
</g>
<g>
</g>
<g>
</g>
<g>
</g>
<g>
</g>
<g>
</g>
</svg>
