<?xml version="1.0" encoding="iso-8859-1"?>
<!-- Generator: Adobe Illustrator 19.0.0, SVG Export Plug-In . SVG Version: 6.00 Build 0)  -->
<svg xmlns="http://www.w3.org/2000/svg" xmlns:xlink="http://www.w3.org/1999/xlink" version="1.1" id="Layer_1" x="0px" y="0px" viewBox="0 0 512 512" style="enable-background:new 0 0 512 512;" xml:space="preserve">
<g>
	<path style="fill:#AD82C6;" d="M21.755,223.038l26.175-12.797c-19.807-14.996-32.609-38.757-32.609-65.515l0,0   c0-11.967,9.701-21.668,21.668-21.668h23.979c-9.936-21.049-9.94-46.409,2.247-68.297l0,0c5.296-9.512,17.301-12.93,26.813-7.633   l101.262,56.384l27.116,226.775l-50.671,43.736c-34.338,29.639-86.201,25.829-115.84-8.51l0,0   c-7.819-9.059-6.814-22.742,2.245-30.561l30.585-26.399c-31.067-2.919-59.919-21.466-74.628-51.551   C3.938,244.404,9.157,229.197,21.755,223.038z"/>
	<path style="fill:#AD82C6;" d="M490.263,223.038l-26.175-12.797c19.807-14.996,32.609-38.757,32.609-65.515l0,0   c0-11.967-9.701-21.668-21.668-21.668H451.05c9.936-21.049,9.94-46.409-2.247-68.297l0,0c-5.296-9.512-17.301-12.93-26.813-7.633   l-101.262,56.383l-27.116,226.775l50.671,43.736c34.339,29.639,86.201,25.829,115.84-8.51l0,0   c7.819-9.059,6.814-22.742-2.245-30.561l-30.585-26.399c31.067-2.919,59.919-21.466,74.628-51.551   C508.081,244.404,502.862,229.197,490.263,223.038z"/>
</g>
<circle style="fill:#F6CDB5;" cx="97.529" cy="207.829" r="38.12"/>
<circle style="opacity:0.15;fill:#EC8087;enable-background:new    ;" cx="97.529" cy="207.829" r="38.12"/>
<path style="opacity:0.1;enable-background:new    ;" d="M97.527,169.713c-4.353,0-8.53,0.74-12.427,2.083  c-0.355,4.329-0.545,8.704-0.545,13.125v49.032c0,3.302,0.113,6.577,0.312,9.829c3.962,1.395,8.22,2.162,12.659,2.162  c21.05,0,38.115-17.065,38.115-38.115C135.642,186.778,118.577,169.713,97.527,169.713z"/>
<circle style="fill:#F6CDB5;" cx="414.497" cy="207.829" r="38.12"/>
<circle style="opacity:0.15;fill:#EC8087;enable-background:new    ;" cx="414.497" cy="207.829" r="38.12"/>
<path style="opacity:0.1;enable-background:new    ;" d="M414.492,169.713c4.353,0,8.53,0.74,12.427,2.083  c0.355,4.329,0.545,8.704,0.545,13.125v49.032c0,3.302-0.113,6.577-0.312,9.829c-3.962,1.395-8.22,2.162-12.659,2.162  c-21.05,0-38.115-17.065-38.115-38.115C376.377,186.778,393.442,169.713,414.492,169.713z"/>
<path style="fill:#F6CDB5;" d="M135.642,378.716c-69.865,11.17-79.751,73.65-80.747,100.279c-0.246,6.574,5.031,12.025,11.61,12.025  h69.138V378.716H135.642z"/>
<path style="opacity:0.08;enable-background:new    ;" d="M125.143,380.9c-28.861,28.249-47.369,67.025-49.311,110.12h59.81V378.716  C131.974,379.302,128.488,380.043,125.143,380.9z"/>
<path style="fill:#F6CDB5;" d="M376.376,378.716c69.865,11.17,79.75,73.65,80.747,100.279c0.246,6.574-5.031,12.025-11.61,12.025  h-69.138L376.376,378.716L376.376,378.716z"/>
<path style="opacity:0.08;enable-background:new    ;" d="M386.875,380.9c28.861,28.249,47.37,67.025,49.311,110.12h-59.81V378.716  C380.044,379.302,383.531,380.043,386.875,380.9z"/>
<path style="fill:#EC8087;" d="M420.643,491.02c0-90.924-73.709-164.634-164.634-164.634S91.375,400.096,91.375,491.02H420.643z"/>
<path style="opacity:0.1;enable-background:new    ;" d="M256.009,326.386c-42.034,0-80.381,15.761-109.474,41.685  c27.536,28.904,66.402,46.918,109.474,46.918l0,0c43.073,0,81.938-18.014,109.474-46.918  C336.39,342.147,298.043,326.386,256.009,326.386z"/>
<path style="fill:#F6CDB5;" d="M256.01,26.439L256.01,26.439c-87.527,0-158.483,70.955-158.483,158.482v49.032  c0,87.527,70.956,158.482,158.483,158.482l0,0c87.527,0,158.482-70.955,158.482-158.482v-49.032  C414.492,97.393,343.537,26.439,256.01,26.439z"/>
<g>
	<path style="fill:#EC8087;" d="M164.389,243.414h-31.871c-4.142,0-7.5-3.357-7.5-7.5s3.358-7.5,7.5-7.5h31.871   c4.142,0,7.5,3.357,7.5,7.5C171.889,240.056,168.531,243.414,164.389,243.414z"/>
	<path style="fill:#EC8087;" d="M379.5,243.414h-31.87c-4.143,0-7.5-3.357-7.5-7.5s3.357-7.5,7.5-7.5h31.87   c4.143,0,7.5,3.357,7.5,7.5C387,240.056,383.643,243.414,379.5,243.414z"/>
</g>
<path style="fill:#4EBF8C;" d="M256.009,243.727c-9.625,0-18.81-4.636-24.571-12.4c-2.468-3.327-1.772-8.024,1.555-10.492  c3.328-2.468,8.024-1.771,10.492,1.555c2.988,4.028,7.553,6.338,12.524,6.338c4.971,0,9.535-2.309,12.523-6.338  c2.468-3.326,7.164-4.021,10.492-1.555c3.326,2.468,4.022,7.165,1.555,10.492C274.819,239.091,265.634,243.727,256.009,243.727z"/>
<path style="fill:#AD82C6;" d="M256.062,20.981L256.062,20.981c-76.111,0-140.693,49.312-163.567,117.726  c-1.067,3.192,1.149,6.544,4.499,6.868l24.541,2.376c21.77,2.108,43.157-6.782,57.018-23.701l27.797-33.929  c3.583-4.373,10.343-4.138,13.614,0.473l7.359,10.376c29.733,41.924,81.418,62.334,131.772,52.037l55.331-11.314  c3.13-0.64,4.993-3.908,3.911-6.913C394.393,68.51,330.783,20.981,256.062,20.981z"/>
<g style="opacity:0.1;">
	<path d="M347.348,132.987c-8.617,0-16.315-0.899-22.881-2.165c-25.824-4.979-48.119-18.354-59.639-35.779   c-2.284-3.455-1.335-8.107,2.121-10.393c3.453-2.282,8.108-1.335,10.393,2.121c9.201,13.919,28.347,25.154,49.965,29.322   c19.03,3.669,48.947,3.788,83.38-16.485c3.572-2.1,8.167-0.911,10.269,2.657c2.102,3.57,0.912,8.167-2.657,10.269   C391.537,128.29,367.04,132.987,347.348,132.987z"/>
	<path d="M119.403,125.121c-10.923,0-21.794-2.974-31.816-8.84c-3.575-2.092-4.776-6.687-2.684-10.261   c2.092-3.576,6.687-4.778,10.261-2.685c16.743,9.798,31.984,6.8,39.578,4.141c10.695-3.746,19.584-11.308,22.648-19.264   c1.489-3.865,5.828-5.795,9.693-4.305c3.866,1.488,5.793,5.828,4.305,9.693c-4.647,12.072-16.789,22.813-31.687,28.031   C133.043,123.964,126.213,125.121,119.403,125.121z"/>
	<path d="M352.513,106.147c-15.823,0-31.749-4.109-43.504-13.48c-3.239-2.582-3.772-7.301-1.19-10.539   c2.581-3.24,7.301-3.772,10.539-1.189c19.095,15.221,55.744,12.181,72.355-0.984c3.245-2.572,7.963-2.027,10.536,1.22   c2.572,3.246,2.026,7.964-1.22,10.536C388.614,100.757,370.631,106.147,352.513,106.147z"/>
</g>
<path d="M493.558,216.299l-15.983-7.814c17.045-16.761,26.623-39.428,26.623-63.761c0-16.084-13.085-29.169-29.168-29.169h-13.033  c6.623-21.332,4.347-44.712-6.641-64.445c-7.299-13.11-23.906-17.837-37.014-10.537l-39.046,21.741  C345.805,30.78,302.265,13.48,256.062,13.48c-46.226,0-89.779,17.313-123.275,48.871l-39.11-21.776  c-13.11-7.301-29.714-2.572-37.015,10.537c-10.987,19.733-13.263,43.113-6.64,64.445H36.989c-16.083,0-29.168,13.085-29.168,29.169  c0,24.333,9.578,47,26.623,63.761l-15.983,7.813c-7.893,3.859-13.811,10.561-16.663,18.871s-2.298,17.233,1.561,25.126  c13.018,26.626,36.478,45.606,64.517,52.892l-18.637,16.086c-12.175,10.509-13.531,28.964-3.022,41.14  c9.749,11.295,21.826,19.775,35.46,25.016c-7.352,6.715-13.626,14.713-18.787,23.981c-11.758,21.115-14.914,43.905-15.49,59.306  c-0.196,5.226,1.696,10.18,5.326,13.948c3.638,3.777,8.531,5.857,13.778,5.857h379.01c5.247,0,10.14-2.08,13.778-5.857  c3.63-3.769,5.521-8.722,5.326-13.948c-0.577-15.4-3.732-38.19-15.49-59.306c-5.161-9.268-11.435-17.267-18.787-23.982  c13.634-5.24,25.711-13.72,35.46-25.015c5.091-5.898,7.58-13.426,7.009-21.195c-0.57-7.771-4.133-14.854-10.031-19.944  l-18.636-16.086c28.038-7.285,51.499-26.266,64.517-52.892C516.627,244.003,509.851,224.266,493.558,216.299z M22.82,144.725  c0-7.813,6.356-14.169,14.168-14.169h23.979c2.569,0,4.96-1.315,6.335-3.485c1.376-2.17,1.544-4.893,0.447-7.216  c-9.25-19.596-8.496-42.566,2.018-61.447c3.276-5.883,10.729-8.006,16.612-4.729l43.984,24.49c2.932,1.634,6.589,1.118,8.957-1.255  c31.166-31.234,72.626-48.436,116.742-48.436c44.094,0,85.54,17.189,116.703,48.4c2.372,2.375,6.028,2.886,8.956,1.254  l43.918-24.454c5.883-3.277,13.337-1.154,16.612,4.729c10.513,18.882,11.267,41.852,2.017,61.446  c-1.097,2.324-0.928,5.047,0.447,7.217c1.375,2.17,3.766,3.485,6.335,3.485h23.979c7.813,0,14.168,6.357,14.168,14.169  c0,23.419-10.662,44.983-29.265,59.246c-1.798-21.36-18.369-38.568-39.437-41.351c-0.981-7.281-2.441-14.489-4.377-21.571  c-1.043-3.814-4.864-6.163-8.737-5.37l-27.861,5.697l-18.442-16.776c-3.064-2.788-7.808-2.563-10.595,0.501  c-2.787,3.064-2.563,7.808,0.501,10.595l10.335,9.401l-3.73,0.763c-47.412,9.699-96.151-9.548-124.151-49.028l-7.359-10.376  c-2.923-4.121-7.496-6.586-12.546-6.762c-5.051-0.179-9.784,1.964-12.988,5.874l-27.796,33.93  c-12.299,15.013-31.182,22.853-50.493,20.989l-19.209-1.86c-3.692-0.357-7.089,2.036-7.996,5.633  c-1.521,6.039-2.682,12.173-3.515,18.359c-21.076,2.778-37.654,19.989-39.452,41.354C33.483,189.709,22.82,168.144,22.82,144.725z   M421.837,178.109c13.345,3.299,23.271,15.369,23.271,29.719c0,14.315-9.878,26.364-23.162,29.696  c0.025-1.188,0.045-2.378,0.045-3.572V184.92C421.992,182.647,421.929,180.377,421.837,178.109z M392.722,153.986l10.619-2.171  c2.424,10.833,3.65,21.938,3.65,33.105v49.032c0,83.253-67.73,150.982-150.982,150.982c-83.252,0-150.982-67.73-150.982-150.982  V184.92c0-10.348,1.053-20.656,3.136-30.729l12.65,1.225c24.311,2.348,48.064-7.52,63.542-26.413l27.795-33.929  c0.222-0.271,0.506-0.399,0.863-0.391c0.35,0.013,0.63,0.163,0.833,0.449l7.359,10.376c31.437,44.325,86.15,65.936,139.393,55.046  l14.465-2.958l6,5.458c1.438,1.308,3.244,1.952,5.045,1.952c2.038,0,4.07-0.826,5.55-2.453  C393.846,160.146,394.169,156.704,392.722,153.986z M90.072,237.522c-13.29-3.338-23.161-15.383-23.161-29.693  c0-14.353,9.929-26.424,23.272-29.721c-0.092,2.268-0.156,4.539-0.156,6.813v49.032C90.027,235.146,90.047,236.335,90.072,237.522z   M57.572,360.612c-5.105-5.914-4.446-14.879,1.468-19.983l30.585-26.399c2.275-1.964,3.159-5.097,2.244-7.96  c-0.915-2.863-3.451-4.903-6.443-5.185c-29.815-2.802-55.457-20.513-68.592-47.378c-2.1-4.293-2.401-9.146-0.849-13.667  c1.551-4.521,4.771-8.166,9.063-10.265l26.175-12.797c0.523-0.256,1.002-0.576,1.443-0.936c3.504,19.177,19.029,34.2,38.458,36.943  c4.795,41.803,25.176,78.93,55.177,105.408c-5.031,4.171-9.823,8.632-14.352,13.346c-13.231,2.378-25.019,6.603-35.31,12.655  C81.358,380.755,67.899,372.576,57.572,360.612z M66.504,483.52c-1.53,0-2.521-0.792-2.975-1.264  c-0.45-0.467-1.196-1.476-1.14-2.982c0.422-11.265,2.751-33.074,13.606-52.569c9.011-16.182,22.163-27.764,39.201-34.659  c-4.557,6.46-8.676,13.22-12.29,20.232c-11.311,21.947-17.758,46.431-18.847,71.241H66.504V483.52z M99.047,483.52  c1.042-22.61,6.812-44.229,17.192-64.369c10.158-19.709,24.624-37.286,42.02-51.143c27.439,20.062,61.233,31.926,97.75,31.926  s70.312-11.863,97.749-31.926c17.396,13.856,31.863,31.434,42.021,51.143c10.379,20.14,16.149,41.759,17.191,64.369H99.047z   M436.023,426.706c10.855,19.495,13.184,41.305,13.605,52.569c0.057,1.507-0.689,2.515-1.14,2.982  c-0.454,0.473-1.445,1.264-2.975,1.264h-17.555c-1.088-24.811-7.536-49.294-18.847-71.241c-3.614-7.012-7.734-13.772-12.29-20.232  C413.86,398.943,427.013,410.525,436.023,426.706z M495.184,253.708c-13.135,26.864-38.776,44.575-68.592,47.377  c-2.993,0.281-5.528,2.321-6.443,5.185c-0.914,2.863-0.031,5.996,2.244,7.96l30.585,26.399c2.865,2.473,4.596,5.913,4.873,9.688  c0.277,3.774-0.933,7.431-3.405,10.296c-10.326,11.964-23.785,20.143-39.066,23.783c-10.291-6.051-22.078-10.277-35.309-12.655  c-4.529-4.714-9.322-9.175-14.353-13.346c30-26.48,50.382-63.606,55.176-105.408c19.429-2.742,34.955-17.765,38.459-36.942  c0.441,0.36,0.919,0.679,1.442,0.935l26.176,12.797C495.832,234.109,499.518,244.845,495.184,253.708z M148.45,171.929  c-4.142,0-7.5,3.357-7.5,7.5v23.71c0,4.143,3.358,7.5,7.5,7.5c4.142,0,7.5-3.357,7.5-7.5v-23.71  C155.95,175.287,152.592,171.929,148.45,171.929z M363.569,171.929c-4.142,0-7.5,3.357-7.5,7.5v23.71c0,4.143,3.358,7.5,7.5,7.5  c4.143,0,7.5-3.357,7.5-7.5v-23.71C371.069,175.287,367.711,171.929,363.569,171.929z"/>
<g>
</g>
<g>
</g>
<g>
</g>
<g>
</g>
<g>
</g>
<g>
</g>
<g>
</g>
<g>
</g>
<g>
</g>
<g>
</g>
<g>
</g>
<g>
</g>
<g>
</g>
<g>
</g>
<g>
</g>
</svg>
