<?xml version="1.0" encoding="iso-8859-1"?>
<!-- Generator: Adobe Illustrator 19.0.0, SVG Export Plug-In . SVG Version: 6.00 Build 0)  -->
<svg xmlns="http://www.w3.org/2000/svg" xmlns:xlink="http://www.w3.org/1999/xlink" version="1.1" id="Layer_1" x="0px" y="0px" viewBox="0 0 512 512" style="enable-background:new 0 0 512 512;" xml:space="preserve">
<path style="fill:#8D6A59;" d="M389.359,488.059l-59.638-24.624l73.459-177.911c1.82-4.408,6.868-6.505,11.276-4.685l43.677,18.034  c4.407,1.82,6.505,6.868,4.685,11.275L389.359,488.059z"/>
<polygon style="opacity:0.2;enable-background:new    ;" points="446.889,348.728 405.341,364.82 387.251,324.104 379.576,342.691   391.748,370.085 363.795,380.912 356.12,399.5 397.667,383.408 415.758,424.124 423.432,405.537 411.261,378.143 439.214,367.316   "/>
<path style="opacity:0.3;fill:#FFFFFF;enable-background:new    ;" d="M450.764,339.343l-59.638-24.624l12.054-29.195  c1.82-4.408,6.868-6.505,11.276-4.685l43.677,18.034c4.407,1.82,6.505,6.868,4.685,11.275L450.764,339.343z"/>
<path style="fill:#E36566;" d="M72.022,358.741c27.937-35.493,40.335-72.995,36.86-111.563l48.766-4.394  c3.119,34.627-3.301,68.873-19.082,101.788c-10.005,20.866-21.421,36.259-28.732,45.347c-2.43,3.02-6.858,3.463-9.833,0.978  l-27-22.547C70.12,365.945,69.7,361.691,72.022,358.741z"/>
<path style="opacity:0.15;enable-background:new    ;" d="M72.022,358.741c27.937-35.493,40.335-72.995,36.86-111.563l48.766-4.394  c3.119,34.627-3.301,68.873-19.082,101.788c-10.005,20.866-21.421,36.259-28.732,45.347c-2.43,3.02-6.858,3.463-9.833,0.978  l-27-22.547C70.12,365.945,69.7,361.691,72.022,358.741z"/>
<path style="fill:#E36566;" d="M41.273,298.796c41.076-18.787,69.252-46.469,83.799-82.356l45.377,18.394  c-13.061,32.22-34.432,59.739-63.519,81.794c-18.44,13.982-35.632,22.449-46.29,27.188c-3.542,1.575-7.682-0.057-9.192-3.627  l-13.7-32.399C36.287,304.333,37.86,300.357,41.273,298.796z"/>
<path style="fill:#394049;" d="M144.249,389.378c-71.617,11.45-81.75,75.497-82.772,102.795  c-0.252,6.739,5.157,12.327,11.901,12.327h70.871V389.378z"/>
<path style="opacity:0.3;enable-background:new    ;" d="M133.486,391.617c-29.584,28.958-48.557,68.706-50.547,112.883h61.31  V389.378C140.489,389.979,136.915,390.739,133.486,391.617z"/>
<path style="fill:#394049;" d="M392.031,389.378c71.617,11.45,81.75,75.497,82.772,102.795c0.252,6.739-5.157,12.327-11.901,12.327  h-70.871V389.378z"/>
<path style="opacity:0.3;enable-background:new    ;" d="M402.793,391.617c29.584,28.958,48.557,68.706,50.547,112.883h-61.31  V389.378C395.79,389.979,399.365,390.739,402.793,391.617z"/>
<path style="fill:#394049;" d="M436.399,504.5c0-93.205-75.558-168.763-168.763-168.763S98.873,411.295,98.873,504.5H436.399z"/>
<path style="opacity:0.15;enable-background:new    ;" d="M267.635,335.737c-48.901,0-92.935,20.807-123.757,54.04  c33.858,27.272,76.897,43.607,123.757,43.607c46.861,0,89.899-16.335,123.758-43.607  C360.571,356.543,316.536,335.737,267.635,335.737z"/>
<circle style="fill:#394049;" cx="268.139" cy="204.95" r="197.45"/>
<path style="fill:#F6CDB5;" d="M389.622,215.856H145.649c-16.866,0-30.539-13.673-30.539-30.539l0,0  c0-16.866,13.673-30.539,30.539-30.539h243.973c16.866,0,30.539,13.673,30.539,30.539l0,0  C420.161,202.183,406.488,215.856,389.622,215.856z"/>
<g>
	<path style="fill:#EC8087;" d="M174.647,263.485h-32.232c-4.142,0-7.5-3.358-7.5-7.5c0-4.143,3.358-7.5,7.5-7.5h32.232   c4.142,0,7.5,3.357,7.5,7.5S178.789,263.485,174.647,263.485z"/>
	<path style="fill:#EC8087;" d="M392.856,263.485h-32.232c-4.142,0-7.5-3.358-7.5-7.5c0-4.143,3.358-7.5,7.5-7.5h32.232   c4.142,0,7.5,3.357,7.5,7.5S396.998,263.485,392.856,263.485z"/>
</g>
<path style="opacity:0.1;fill:#FFFFFF;enable-background:new    ;" d="M267.635,263.485c-10.232,0-19.997-4.929-26.121-13.185  c-2.468-3.326-1.771-8.023,1.555-10.491c3.327-2.468,8.024-1.771,10.492,1.556c3.357,4.524,8.487,7.12,14.074,7.12  c5.586,0,10.716-2.596,14.073-7.121c2.468-3.326,7.167-4.021,10.492-1.555c3.327,2.468,4.023,7.165,1.555,10.492  C287.632,258.557,277.867,263.485,267.635,263.485z"/>
<path style="fill:#E36566;" d="M439.116,106.137H97.163c-8.726,15.067-15.516,31.393-20.034,48.64h382.02  C454.632,137.531,447.843,121.204,439.116,106.137z"/>
<path d="M466.443,431.184c-7.948-14.274-18.476-25.603-31.473-33.936l34.782-84.238c3.395-8.222-0.532-17.674-8.755-21.07  l-6.128-2.53c11.701-25.767,18.223-54.366,18.223-84.459C473.09,91.94,381.15,0,268.14,0S63.19,91.94,63.19,204.95  c0,22.981,3.803,45.09,10.811,65.733c-10.49,8.045-22.521,15.198-35.846,21.292c-7.16,3.273-10.372,11.503-7.313,18.736l13.7,32.398  c1.52,3.595,4.354,6.363,7.981,7.796c1.719,0.68,3.513,1.018,5.305,1.018c1.992,0,3.981-0.419,5.861-1.254  c2.614-1.162,5.19-2.38,7.749-3.623c-1.706,2.366-3.471,4.72-5.309,7.055c-4.869,6.186-3.962,14.973,2.065,20.007l27,22.546  c1.121,0.936,2.357,1.673,3.663,2.224c-11.874,8.16-21.577,18.941-29.019,32.305c-12.035,21.613-15.265,44.943-15.854,60.709  c-0.199,5.306,1.721,10.335,5.407,14.161c3.694,3.834,8.662,5.946,13.988,5.946h363.02c0.343,0,0.678-0.031,1.009-0.076V512h25.495  c5.327,0,10.294-2.111,13.988-5.946c3.686-3.826,5.607-8.855,5.408-14.161C481.707,476.127,478.478,452.797,466.443,431.184z   M421.675,390.142c-8.258-3.622-17.304-6.269-27.112-7.939c-3.02-3.124-6.153-6.16-9.423-9.081  c14.802-10.329,28.181-22.559,39.783-36.335l16.046,6.625L421.675,390.142z M455.27,305.804c0.578,0.239,0.854,0.903,0.616,1.481  l-9.192,22.263l-12.195-5.035c4.98-6.909,9.546-14.135,13.649-21.649L455.27,305.804z M268.14,15  c65.382,0,123.153,33.206,157.339,83.638H110.801C144.987,48.206,202.758,15,268.14,15z M101.622,113.638h333.035  c5.856,10.637,10.72,21.892,14.472,33.64H87.15C90.902,135.529,95.766,124.274,101.622,113.638z M412.661,185.317  c0,12.704-10.335,23.039-23.039,23.039H145.649c-12.704,0-23.039-10.336-23.039-23.04s10.336-23.039,23.039-23.039h243.973  C402.325,162.277,412.661,172.613,412.661,185.317z M83.025,162.277h32.384c-4.887,6.4-7.799,14.385-7.799,23.04  c0,20.975,17.065,38.039,38.039,38.039h243.973c20.975,0,38.039-17.064,38.039-38.04c0-8.655-2.911-16.64-7.798-23.039h33.393  c3.162,13.721,4.835,28.005,4.835,42.673c0,104.739-85.211,189.95-189.95,189.95S78.19,309.69,78.19,204.95  C78.19,190.283,79.863,175.999,83.025,162.277z M150.568,372.726c-3.505,3.109-6.86,6.346-10.079,9.688  c-6.826,1.227-13.273,2.94-19.341,5.126c5.994-8.018,11.453-16.319,16.321-24.82C141.695,366.227,146.067,369.563,150.568,372.726z   M58.128,336.726l-13.249-31.332c12.694-5.842,24.309-12.614,34.693-20.171c4.525,10.59,9.913,20.725,16.083,30.314  C84.065,323.633,71.477,330.75,58.128,336.726z M78.245,362.96c7.98-10.186,14.809-20.708,20.354-31.306  c1.899-1.246,3.775-2.515,5.627-3.808c6.606,8.789,13.905,17.027,21.809,24.643c-6.178,11.162-13.453,21.997-21.679,32.275  L78.245,362.96z M73.377,497c-1.213,0-2.345-0.48-3.185-1.353c-0.481-0.5-1.281-1.58-1.221-3.194  c0.433-11.564,2.823-33.953,13.971-53.972c9.34-16.772,23.007-28.738,40.736-35.798C104.224,430.091,92.98,462.65,91.546,497H73.377  z M106.543,497c2.054-45.024,22.569-86.633,57.147-115.781c30.608,18.206,66.326,28.682,104.45,28.682  c37.877,0,73.378-10.34,103.853-28.328c34.32,29.131,54.685,70.612,56.735,115.428H106.543V497z M466.087,495.647  c-0.84,0.872-1.972,1.353-3.185,1.353h-19.178c-1.446-34.577-12.849-67.364-32.563-94.901c18.439,6.976,32.582,19.153,42.176,36.382  c11.147,20.019,13.538,42.407,13.971,53.972C467.368,494.066,466.569,495.147,466.087,495.647z M157.667,164.968  c-4.142,0-7.5,3.357-7.5,7.5v23.979c0,4.143,3.358,7.5,7.5,7.5s7.5-3.357,7.5-7.5v-23.979  C165.167,168.325,161.809,164.968,157.667,164.968z M375.884,164.968c-4.142,0-7.5,3.357-7.5,7.5v23.979c0,4.143,3.358,7.5,7.5,7.5  s7.5-3.357,7.5-7.5v-23.979C383.384,168.325,380.026,164.968,375.884,164.968z"/>
<g>
</g>
<g>
</g>
<g>
</g>
<g>
</g>
<g>
</g>
<g>
</g>
<g>
</g>
<g>
</g>
<g>
</g>
<g>
</g>
<g>
</g>
<g>
</g>
<g>
</g>
<g>
</g>
<g>
</g>
</svg>
