<?xml version="1.0" encoding="iso-8859-1"?>
<!-- Generator: Adobe Illustrator 19.0.0, SVG Export Plug-In . SVG Version: 6.00 Build 0)  -->
<svg xmlns="http://www.w3.org/2000/svg" xmlns:xlink="http://www.w3.org/1999/xlink" version="1.1" id="Layer_1" x="0px" y="0px" viewBox="0 0 512.002 512.002" style="enable-background:new 0 0 512.002 512.002;" xml:space="preserve">
<path style="fill:#4DB1E0;" d="M138.598,394.963c-68.144,10.895-77.786,71.835-78.758,97.81c-0.24,6.412,4.907,11.729,11.324,11.729  h67.434L138.598,394.963L138.598,394.963z"/>
<path style="opacity:0.1;enable-background:new    ;" d="M128.358,397.093c-28.15,27.553-46.202,65.374-48.096,107.408h58.336  V394.963C135.021,395.535,131.62,396.258,128.358,397.093z"/>
<path style="fill:#4DB1E0;" d="M373.403,394.963c68.144,10.895,77.786,71.835,78.758,97.81c0.24,6.412-4.907,11.729-11.324,11.729  h-67.435V394.963H373.403z"/>
<path style="opacity:0.1;enable-background:new    ;" d="M383.644,397.093c28.15,27.553,46.202,65.374,48.096,107.408h-58.336  V394.963C376.981,395.535,380.381,396.258,383.644,397.093z"/>
<path style="fill:#4DB1E0;" d="M416.58,504.502c0-88.685-71.894-160.579-160.579-160.579S95.422,415.817,95.422,504.502  L416.58,504.502L416.58,504.502z"/>
<path style="opacity:0.1;enable-background:new    ;" d="M256.001,343.923c-46.529,0-88.428,19.798-117.756,51.419  c32.216,25.949,73.168,41.492,117.756,41.492s85.539-15.543,117.756-41.492C344.429,363.72,302.53,343.923,256.001,343.923z"/>
<circle style="fill:#F6CDB5;" cx="68.121" cy="219.481" r="43.73"/>
<circle style="opacity:0.15;fill:#EC8087;enable-background:new    ;" cx="68.121" cy="219.481" r="43.73"/>
<path style="opacity:0.07;enable-background:new    ;" d="M68.126,175.749c-3.574,0-7.043,0.439-10.368,1.247  c-3.156,13.652-4.824,27.872-4.824,42.483c0,14.611,1.668,28.831,4.824,42.483c3.325,0.809,6.795,1.247,10.368,1.247  c24.151,0,43.73-19.579,43.73-43.73C111.857,195.327,92.278,175.749,68.126,175.749z"/>
<circle style="fill:#F6CDB5;" cx="443.871" cy="219.481" r="43.73"/>
<circle style="opacity:0.15;fill:#EC8087;enable-background:new    ;" cx="443.871" cy="219.481" r="43.73"/>
<path style="opacity:0.07;enable-background:new    ;" d="M443.875,175.749c3.574,0,7.043,0.439,10.368,1.247  c3.156,13.652,4.824,27.872,4.824,42.483c0,14.611-1.668,28.831-4.824,42.483c-3.325,0.809-6.795,1.247-10.368,1.247  c-24.152,0-43.73-19.579-43.73-43.73C400.145,195.327,419.724,175.749,443.875,175.749z"/>
<circle style="fill:#F6CDB5;" cx="256.001" cy="219.481" r="187.87"/>
<path style="fill:#4EBF8C;" d="M256.001,31.605c-92.884,0-170.013,67.409-185.164,155.972  c38.26-4.682,101.584-46.983,101.584-84.516h167.16c0,37.533,63.324,79.834,101.584,84.516  C426.014,99.013,348.885,31.605,256.001,31.605z"/>
<g>
	<path style="fill:#EC8087;" d="M157.423,249.608h-30.669c-4.142,0-7.499-3.357-7.499-7.499s3.358-7.499,7.499-7.499h30.669   c4.142,0,7.499,3.357,7.499,7.499C164.922,246.251,161.565,249.608,157.423,249.608z"/>
	<path style="fill:#EC8087;" d="M385.24,249.608h-30.67c-4.142,0-7.499-3.357-7.499-7.499s3.358-7.499,7.499-7.499h30.67   c4.142,0,7.499,3.357,7.499,7.499C392.74,246.251,389.382,249.608,385.24,249.608z"/>
</g>
<path style="fill:#4EBF8C;" d="M171.636,78.585c-18.762,19.146-9.597,51.375,16.487,57.553  c77.528,18.364,218.95,29.365,218.95-63.75C407.073-30.102,246.762,1.922,171.636,78.585z"/>
<g>
	<path style="opacity:0.25;fill:#FFFFFF;enable-background:new    ;" d="M171.636,78.585c-18.762,19.146-9.597,51.375,16.487,57.553   c77.528,18.364,218.95,29.365,218.95-63.75C407.073-30.102,246.762,1.922,171.636,78.585z"/>
	<polygon style="fill:#FFFFFF;" points="178.559,436.834 139.838,475.555 168.785,504.502 188.333,504.502 217.28,475.555  "/>
	<polygon style="fill:#FFFFFF;" points="256.001,436.834 217.28,475.555 246.227,504.502 265.775,504.502 294.722,475.555  "/>
	<polygon style="fill:#FFFFFF;" points="333.442,436.834 294.722,475.555 323.668,504.502 343.217,504.502 372.163,475.555  "/>
</g>
<path d="M279.591,226.427c-3.324-2.465-8.024-1.771-10.491,1.555c-3.125,4.212-7.899,6.628-13.099,6.628  c-5.2,0-9.975-2.416-13.099-6.628c-2.467-3.326-7.164-4.022-10.491-1.555c-3.326,2.468-4.022,7.164-1.555,10.491  c5.894,7.947,15.295,12.69,25.145,12.69c9.85,0,19.25-4.744,25.145-12.69C283.613,233.591,282.917,228.894,279.591,226.427z   M444.551,270.691c27.937-0.364,50.554-23.19,50.554-51.212c0-28.036-22.641-50.873-50.598-51.214  c-6.758-24.845-18.376-48.29-34.312-68.76c2.896-8.226,4.378-17.267,4.378-27.118c0-40.021-22.309-57.53-41.025-65.172  c-26.52-10.828-63.588-9.431-104.375,3.936c-11.832,3.877-23.5,8.649-34.747,14.145c-47.302,5.202-90.986,27.502-123.128,62.913  c-20.944,23.074-35.845,50.516-43.853,80.057c-27.933,0.368-50.547,23.194-50.547,51.213c0,28.021,22.617,50.848,50.554,51.212  c12.105,44.519,39.586,82.765,76.371,108.655c-3.111,2.784-6.098,5.674-8.972,8.652c-30.574,5.522-53.234,21.177-67.373,46.567  c-11.487,20.628-14.568,42.887-15.131,57.928c-0.193,5.148,1.67,10.027,5.246,13.74c3.584,3.72,8.403,5.769,13.571,5.769h369.674  c5.168,0,9.988-2.049,13.571-5.769c3.576-3.712,5.439-8.592,5.246-13.74c-0.563-15.04-3.645-37.3-15.131-57.928  c-14.138-25.39-36.798-41.045-67.373-46.567c-2.873-2.978-5.861-5.868-8.972-8.652C404.965,353.457,432.446,315.21,444.551,270.691z   M480.106,219.479c0,18.568-14.044,33.911-32.066,35.984c2.181-11.668,3.335-23.693,3.335-35.984  c0-12.126-1.149-24.174-3.371-35.989C466.044,185.546,480.106,200.898,480.106,219.479z M31.895,219.479  c0-18.566,14.038-33.906,32.055-35.984c-2.199,11.778-3.324,23.817-3.324,35.984c0,12.291,1.153,24.316,3.334,35.984  C45.939,253.39,31.895,238.048,31.895,219.479z M431.514,177.991c-20.559-5.598-45.222-19.848-62.338-36.086  c6.909-3.196,13.074-6.924,18.466-11.188c6.034-4.771,11.038-10.184,15.054-16.188C416.359,133.632,426.127,155.245,431.514,177.991  z M273.842,25.405c36.868-12.082,71.142-13.651,94.036-4.302c21.031,8.587,31.695,25.842,31.695,51.286  c0,20.034-6.946,35.265-21.235,46.565c-39.167,30.976-126.015,24.686-188.487,9.889c-9.531-2.258-16.841-9.209-19.555-18.594  c-2.738-9.468-0.234-19.342,6.696-26.414C201.477,58.848,236.778,37.551,273.842,25.405z M122.402,98.291  c19.508-21.491,43.618-37.75,70.25-47.737c-9.643,7.131-18.525,14.775-26.372,22.783c-10.767,10.987-14.651,26.343-10.391,41.078  c0.786,2.717,1.82,5.302,3.076,7.735c-14.434,25.032-50.828,48.354-78.527,55.851C87.385,148.521,101.702,121.096,122.402,98.291z   M71.164,497.002c-1.424,0-2.346-0.737-2.769-1.176c-0.418-0.434-1.113-1.373-1.06-2.774c0.411-10.971,2.678-32.21,13.248-51.191  c8.646-15.526,21.21-26.703,37.456-33.445c-18.055,25.837-28.524,56.383-29.935,88.586H71.164z M431.42,441.862  c10.57,18.981,12.837,40.22,13.248,51.191c0.052,1.401-0.642,2.34-1.06,2.774c-0.423,0.438-1.345,1.176-2.769,1.176h-16.94  c-1.411-32.203-11.88-62.749-29.935-88.586C410.209,415.159,422.774,426.335,431.42,441.862z M408.9,497.002H103.101  c2.04-42.411,21.352-81.619,53.838-109.19c29.064,17.17,62.93,27.041,99.062,27.041s69.997-9.871,99.062-27.041  C387.548,415.383,406.86,454.592,408.9,497.002z M256.001,399.854c-99.46,0-180.375-80.915-180.375-180.375  c0-8.548,0.605-17.028,1.788-25.386c30.304-5.99,71.938-30.865,91.424-59.499c4.938,4.204,10.896,7.263,17.558,8.841  c20.104,4.762,59.887,12.663,102.461,12.663c0.67,0,1.346-0.002,2.018-0.006c24.457-0.145,45.493-2.941,62.951-8.34  c20.768,21.947,54.269,41.142,80.737,46.35c1.196,8.376,1.815,16.855,1.815,25.377C436.376,318.939,355.46,399.854,256.001,399.854z   M142.089,180.254c-4.142,0-7.499,3.357-7.499,7.499v22.816c0,4.142,3.357,7.499,7.499,7.499s7.499-3.357,7.499-7.499v-22.816  C149.588,183.611,146.23,180.254,142.089,180.254z M369.913,180.254c-4.142,0-7.499,3.357-7.499,7.499v22.816  c0,4.142,3.358,7.499,7.499,7.499s7.499-3.357,7.499-7.499v-22.816C377.412,183.611,374.055,180.254,369.913,180.254z"/>
<g>
</g>
<g>
</g>
<g>
</g>
<g>
</g>
<g>
</g>
<g>
</g>
<g>
</g>
<g>
</g>
<g>
</g>
<g>
</g>
<g>
</g>
<g>
</g>
<g>
</g>
<g>
</g>
<g>
</g>
</svg>
