<?xml version="1.0" encoding="iso-8859-1"?>
<!-- Generator: Adobe Illustrator 19.0.0, SVG Export Plug-In . SVG Version: 6.00 Build 0)  -->
<svg xmlns="http://www.w3.org/2000/svg" xmlns:xlink="http://www.w3.org/1999/xlink" version="1.1" id="Layer_1" x="0px" y="0px" viewBox="0 0 512 512" style="enable-background:new 0 0 512 512;" xml:space="preserve">
<path style="fill:#F6D83E;" d="M143.114,399.176c-65.522,10.476-74.793,69.072-75.728,94.047  c-0.231,6.165,4.718,11.278,10.888,11.278h64.84V399.176z"/>
<path style="opacity:0.1;enable-background:new    ;" d="M133.268,401.224c-27.066,26.493-44.425,62.859-46.245,103.276h56.092  V399.176C139.674,399.725,136.405,400.421,133.268,401.224z"/>
<path style="fill:#F6D83E;" d="M368.885,399.176c65.522,10.476,74.793,69.072,75.728,94.047c0.231,6.165-4.718,11.278-10.888,11.278  h-64.84V399.176z"/>
<path style="opacity:0.1;enable-background:new    ;" d="M378.732,401.224c27.067,26.493,44.425,62.859,46.245,103.276h-56.092  V399.176C372.326,399.725,375.595,400.421,378.732,401.224z"/>
<path style="fill:#F6D83E;" d="M410.401,504.5c0-85.273-69.128-154.401-154.401-154.401S101.599,419.227,101.599,504.5H410.401z"/>
<g>
	<path style="fill:#FFFFFF;" d="M149.918,392.32V504.5h51.434V360.061C182.067,367.362,164.625,378.407,149.918,392.32z"/>
	<path style="fill:#FFFFFF;" d="M362.082,392.32V504.5h-51.434V360.061C329.933,367.362,347.375,378.407,362.082,392.32z"/>
</g>
<path style="opacity:0.1;enable-background:new    ;" d="M256,350.099c-44.739,0-85.026,19.036-113.225,49.441  c30.977,24.951,70.353,39.896,113.225,39.896s82.248-14.945,113.225-39.896C341.026,369.135,300.739,350.099,256,350.099z"/>
<circle style="fill:#F6CDB5;" cx="75.35" cy="230.44" r="42.05"/>
<circle style="opacity:0.15;fill:#EC8087;enable-background:new    ;" cx="75.35" cy="230.44" r="42.05"/>
<path style="opacity:0.07;enable-background:new    ;" d="M75.354,188.395c-3.436,0-6.772,0.422-9.969,1.199  c-3.034,13.126-4.639,26.8-4.639,40.848c0,14.049,1.604,27.722,4.639,40.849c3.197,0.778,6.533,1.199,9.969,1.199  c23.222,0,42.048-18.825,42.048-42.048C117.401,207.221,98.576,188.395,75.354,188.395z"/>
<circle style="fill:#F6CDB5;" cx="436.65" cy="230.44" r="42.05"/>
<circle style="opacity:0.15;fill:#EC8087;enable-background:new    ;" cx="436.65" cy="230.44" r="42.05"/>
<path style="opacity:0.07;enable-background:new    ;" d="M436.646,188.395c3.436,0,6.772,0.422,9.969,1.199  c3.034,13.126,4.639,26.8,4.639,40.848c0,14.049-1.604,27.722-4.639,40.849c-3.197,0.778-6.533,1.199-9.969,1.199  c-23.222,0-42.048-18.825-42.048-42.048C394.598,207.221,413.424,188.395,436.646,188.395z"/>
<circle style="fill:#F6CDB5;" cx="256" cy="230.44" r="180.65"/>
<g>
	<path style="fill:#8D6A59;" d="M120.184,111.345C93.811,141.396,77.259,180.27,75.52,222.967   c32.278-8.012,56.206-37.169,56.206-71.925C131.726,136.434,127.482,122.824,120.184,111.345z"/>
	<path style="fill:#8D6A59;" d="M391.816,111.345c26.373,30.051,42.926,68.925,44.665,111.622   c-32.278-8.012-56.206-37.169-56.206-71.925C380.273,136.434,384.518,122.824,391.816,111.345z"/>
</g>
<g>
	<path style="fill:#EC8087;" d="M161.215,259.702h-29.489c-4.143,0-7.5-3.357-7.5-7.5s3.357-7.5,7.5-7.5h29.489   c4.143,0,7.5,3.357,7.5,7.5S165.357,259.702,161.215,259.702z"/>
	<path style="fill:#EC8087;" d="M380.268,259.702h-29.49c-4.143,0-7.5-3.357-7.5-7.5s3.357-7.5,7.5-7.5h29.49   c4.143,0,7.5,3.357,7.5,7.5S384.41,259.702,380.268,259.702z"/>
</g>
<path style="fill:#394049;" d="M495.945,80.08c0-40.085-32.495-72.58-72.58-72.58c-38.951,0-70.727,30.684-72.495,69.198  C323.299,59.646,290.802,49.797,256,49.797s-67.299,9.849-94.87,26.901C159.362,38.184,127.586,7.5,88.635,7.5  c-40.085,0-72.58,32.495-72.58,72.58s32.495,72.58,72.58,72.58c1.467,0,2.919-0.057,4.365-0.142  c-2.65,5.534-5.034,11.22-7.12,17.049h340.24c-2.086-5.829-4.469-11.515-7.119-17.049c1.445,0.086,2.898,0.142,4.365,0.142  C463.45,152.661,495.945,120.165,495.945,80.08z"/>
<path d="M278.855,236.892c-3.324-2.467-8.023-1.773-10.492,1.555c-2.95,3.976-7.456,6.256-12.363,6.256  c-4.907,0-9.413-2.28-12.363-6.256c-2.468-3.326-7.166-4.023-10.492-1.555c-3.327,2.469-4.022,7.166-1.555,10.492  c5.724,7.714,14.849,12.318,24.41,12.318c9.561,0,18.686-4.604,24.41-12.318C282.878,244.058,282.183,239.36,278.855,236.892z   M437.539,180.918c-1.273-4.672-2.719-9.301-4.357-13.878c-0.858-2.399-1.775-4.8-2.745-7.189  c40.857-3.591,73.009-37.997,73.009-79.771c0-44.156-35.924-80.08-80.08-80.08c-38.854,0-71.345,27.527-78.574,64.541  C317.585,49.957,287.122,42.297,256,42.297s-61.585,7.66-88.791,22.244C159.98,27.527,127.488,0,88.635,0  C44.479,0,8.555,35.924,8.555,80.08c0,41.773,32.151,76.18,73.009,79.771c-0.97,2.39-1.887,4.79-2.745,7.189  c-1.638,4.577-3.084,9.207-4.357,13.878c-26.909,0.479-48.656,22.504-48.656,49.525c0,27.028,21.758,49.057,48.676,49.526  c11.654,42.665,37.974,79.334,73.193,104.222c-2.875,2.585-5.642,5.261-8.305,8.018c-29.442,5.34-51.267,20.436-64.893,44.904  c-11.072,19.884-14.043,41.335-14.586,55.828c-0.189,5.028,1.631,9.795,5.124,13.422c3.501,3.635,8.21,5.637,13.259,5.637h355.451  c5.049,0,9.758-2.002,13.259-5.637c3.493-3.627,5.313-8.394,5.124-13.421c-0.543-14.494-3.514-35.945-14.586-55.829  c-13.625-24.468-35.45-39.564-64.893-44.904c-2.663-2.757-5.43-5.434-8.305-8.018c35.219-24.888,61.54-61.557,73.193-104.222  c26.918-0.469,48.676-22.498,48.676-49.526C486.194,203.422,464.447,181.398,437.539,180.918z M40.806,230.443  c0-17.568,13.184-32.105,30.176-34.262c-2.073,11.246-3.128,22.695-3.128,34.262c0,11.699,1.083,23.149,3.136,34.262  C53.994,262.553,40.806,248.014,40.806,230.443z M78.274,497c-1.263,0-2.08-0.653-2.455-1.042c-0.37-0.385-0.984-1.215-0.938-2.455  c0.394-10.523,2.567-30.893,12.701-49.093c8.12-14.583,19.845-25.171,34.974-31.666c-17.001,24.643-26.88,53.668-28.272,84.256  H78.274z M142.418,497h-33.131c1.591-31.729,13.256-61.579,33.131-85.707V497z M424.417,444.41  c10.134,18.199,12.308,38.569,12.701,49.094c0.047,1.239-0.567,2.069-0.938,2.454c-0.375,0.389-1.192,1.042-2.455,1.042h-16.011  c-1.392-30.587-11.271-59.612-28.272-84.256C404.572,419.24,416.297,429.827,424.417,444.41z M369.582,411.293  c19.875,24.128,31.54,53.978,33.131,85.707h-33.131V411.293z M23.555,80.08c0-35.886,29.194-65.08,65.08-65.08  c34.853,0,63.406,27.252,65.003,62.042c0.122,2.656,1.641,5.049,3.992,6.289c2.353,1.241,5.184,1.144,7.445-0.254  c27.269-16.865,58.71-25.78,90.925-25.78s63.656,8.915,90.925,25.78c2.262,1.397,5.094,1.494,7.445,0.254  c2.352-1.24,3.87-3.633,3.992-6.289C359.959,42.252,388.512,15,423.365,15c35.886,0,65.08,29.194,65.08,65.08  s-29.194,65.08-65.08,65.08c-1.169,0-2.452-0.042-3.924-0.129c-2.651-0.161-5.186,1.103-6.666,3.306  c-1.48,2.204-1.686,5.026-0.539,7.421c0.998,2.084,1.956,4.19,2.869,6.31H96.895c0.913-2.119,1.871-4.226,2.869-6.31  c1.146-2.395,0.941-5.217-0.539-7.421c-1.48-2.205-4.015-3.465-6.666-3.306c-1.472,0.087-2.755,0.129-3.924,0.129  C52.749,145.16,23.555,115.966,23.555,80.08z M428.203,212.305c-15.832-6.745-28.435-19.372-35.148-35.238h27.689  C424.457,188.53,426.954,200.315,428.203,212.305z M118.945,177.067c-6.713,15.866-19.316,28.493-35.148,35.238  c1.249-11.99,3.746-23.776,7.46-35.238L118.945,177.067L118.945,177.067z M193.852,497h-36.434V395.608  c1.105-0.999,2.225-1.984,3.363-2.953c10.426,6.143,21.491,11.309,33.071,15.374V497z M303.147,497h-94.295v-84.393  c15.073,3.904,30.872,5.983,47.148,5.983s32.075-2.079,47.147-5.983V497z M354.582,497h-36.435v-88.971  c11.581-4.065,22.646-9.23,33.071-15.374c1.139,0.969,2.259,1.954,3.363,2.953L354.582,497L354.582,497z M256,403.59  c-95.474,0-173.146-77.673-173.146-173.146c0-0.596,0.013-1.19,0.019-1.785c24.578-7.972,43.892-27.098,52.105-51.591h242.046  c8.213,24.493,27.526,43.619,52.105,51.591c0.006,0.595,0.019,1.189,0.019,1.785C429.147,325.917,351.474,403.59,256,403.59z   M441.01,264.706c2.053-11.114,3.136-22.564,3.136-34.262c0-11.567-1.055-23.016-3.128-34.262  c16.992,2.157,30.176,16.693,30.176,34.262C471.194,248.014,458.006,262.553,441.01,264.706z M146.471,192.439  c-4.143,0-7.5,3.357-7.5,7.5v21.938c0,4.143,3.357,7.5,7.5,7.5s7.5-3.357,7.5-7.5v-21.938  C153.971,195.796,150.613,192.439,146.471,192.439z M365.529,192.439c-4.143,0-7.5,3.357-7.5,7.5v21.938c0,4.143,3.357,7.5,7.5,7.5  s7.5-3.357,7.5-7.5v-21.938C373.029,195.796,369.672,192.439,365.529,192.439z"/>
<g>
</g>
<g>
</g>
<g>
</g>
<g>
</g>
<g>
</g>
<g>
</g>
<g>
</g>
<g>
</g>
<g>
</g>
<g>
</g>
<g>
</g>
<g>
</g>
<g>
</g>
<g>
</g>
<g>
</g>
</svg>
