<?xml version="1.0" encoding="iso-8859-1"?>
<!-- Generator: Adobe Illustrator 19.0.0, SVG Export Plug-In . SVG Version: 6.00 Build 0)  -->
<svg xmlns="http://www.w3.org/2000/svg" xmlns:xlink="http://www.w3.org/1999/xlink" version="1.1" id="Layer_1" x="0px" y="0px" viewBox="0 0 512 512" style="enable-background:new 0 0 512 512;" xml:space="preserve">
<path style="fill:#E8E8E8;" d="M132.993,389.732c-71.397,11.415-81.499,75.265-82.518,102.479  c-0.251,6.718,5.141,12.289,11.864,12.289h70.654V389.732z"/>
<path style="opacity:0.1;enable-background:new    ;" d="M122.264,391.963C92.771,420.832,73.856,460.458,71.872,504.5h61.122  V389.732C129.245,390.331,125.682,391.088,122.264,391.963z"/>
<path style="fill:#E8E8E8;" d="M379.009,389.732c71.397,11.415,81.499,75.265,82.518,102.479  c0.251,6.718-5.141,12.289-11.864,12.289h-70.654V389.732z"/>
<path style="opacity:0.1;enable-background:new    ;" d="M389.738,391.963c29.493,28.869,48.408,68.495,50.392,112.536h-61.121  V389.732C382.757,390.331,386.32,391.088,389.738,391.963z"/>
<path style="fill:#E8E8E8;" d="M424.246,504.5c0-92.919-75.326-168.245-168.245-168.245S87.756,411.581,87.756,504.5H424.246z"/>
<path style="fill:#EC8087;" d="M418.52,460.866H93.482c-3.727,13.917-5.726,28.541-5.726,43.634h336.49  C424.246,489.407,422.247,474.783,418.52,460.866z"/>
<path style="opacity:0.1;enable-background:new    ;" d="M256.001,336.255c-42.956,0-82.144,16.107-111.875,42.599  c28.14,29.538,67.857,47.946,111.875,47.946l0,0c44.018,0,83.735-18.409,111.875-47.947  C338.144,352.361,298.957,336.255,256.001,336.255z"/>
<path style="fill:#F2BE89;" d="M256.001,28.627L256.001,28.627c-85.326,0-154.496,69.17-154.496,154.496v64.52  c0,85.326,69.17,154.496,154.496,154.496l0,0c85.326,0,154.496-69.17,154.496-154.496v-64.52  C410.497,97.797,341.327,28.627,256.001,28.627z"/>
<g>
	<path style="fill:#EC8087;" d="M185.196,271.38h-33.74c-4.143,0-7.5-3.357-7.5-7.5s3.357-7.5,7.5-7.5h33.74   c4.143,0,7.5,3.357,7.5,7.5C192.696,268.022,189.339,271.38,185.196,271.38z"/>
	<path style="fill:#EC8087;" d="M360.546,271.38h-33.739c-4.143,0-7.5-3.357-7.5-7.5s3.357-7.5,7.5-7.5h33.739   c4.143,0,7.5,3.357,7.5,7.5C368.046,268.022,364.689,271.38,360.546,271.38z"/>
</g>
<path style="fill:#FFFFFF;" d="M285.195,281.167c9.573,0,17.334-7.761,17.334-17.334s-7.761-17.334-17.334-17.334h-58.388  c-9.573,0-17.334,7.761-17.334,17.334s7.761,17.334,17.334,17.334H285.195z"/>
<g style="opacity:0.1;">
	<rect x="248.501" y="246.5" width="15" height="34.669"/>
	<rect x="225.821" y="246.5" width="15" height="34.669"/>
	<rect x="271.181" y="246.5" width="15" height="34.669"/>
</g>
<path style="fill:#AD82C6;" d="M69.965,185.869C69.965,87.358,153.23,7.5,255.941,7.5c102.712,0,185.976,79.858,185.976,178.369  H69.965z"/>
<rect x="69.965" y="185.87" style="fill:#394049;" width="31.42" height="161.2"/>
<rect x="69.965" y="185.87" style="opacity:0.2;enable-background:new    ;" width="31.42" height="31.42"/>
<path style="fill:#AD82C6;" d="M102.468,378.589H68.883c-2.925,0-5.297-2.371-5.297-5.297v-20.928c0-2.925,2.371-5.297,5.297-5.297  h33.585c2.925,0,5.297,2.371,5.297,5.297v20.928C107.765,376.218,105.393,378.589,102.468,378.589z"/>
<rect x="410.621" y="185.87" style="fill:#394049;" width="31.42" height="161.2"/>
<rect x="410.621" y="185.87" style="opacity:0.2;enable-background:new    ;" width="31.42" height="31.42"/>
<path style="fill:#AD82C6;" d="M409.534,378.589h33.585c2.925,0,5.297-2.371,5.297-5.297v-20.928c0-2.925-2.372-5.297-5.297-5.297  h-33.585c-2.925,0-5.297,2.371-5.297,5.297v20.928C404.237,376.218,406.609,378.589,409.534,378.589z"/>
<path style="fill:#E8E8E8;" d="M376.91,50.397l-67.105,15.107c-9.694,2.182-15.783,11.81-13.601,21.504l9.785,43.462  c2.182,9.694,11.81,15.783,21.504,13.601l101.797-22.917C418.089,93.576,399.942,69.334,376.91,50.397z"/>
<path style="fill:#EC8087;" d="M394.832,67.265L328.846,82.12c-6.748,1.519-10.987,8.221-9.468,14.97l3.228,14.339  c1.519,6.748,8.221,10.987,14.969,9.468l82.684-18.615C413.246,89.626,404.691,77.878,394.832,67.265z"/>
<path style="fill:#E8E8E8;" d="M195.03,17.299c-32.807,10.903-61.445,30.361-83.007,55.6c7.653,18.464,25.844,31.454,47.075,31.454  c28.136,0,50.944-22.809,50.944-50.944C210.042,39.295,204.301,26.525,195.03,17.299z"/>
<path style="fill:#F4C53D;" d="M169.421,28.846c-13.694,6.916-26.38,15.417-37.788,25.257c-0.001,0.067-0.005,0.132-0.005,0.199  c0,15.171,12.299,27.47,27.47,27.47s27.47-12.299,27.47-27.47C186.567,42.784,179.474,32.927,169.421,28.846z"/>
<path d="M322.283,234.645c4.143,0,7.5-3.357,7.5-7.5c0-7.657,6.229-13.887,13.887-13.887c7.657,0,13.887,6.23,13.887,13.887  c0,4.143,3.357,7.5,7.5,7.5c4.142,0,7.5-3.357,7.5-7.5c0-15.928-12.959-28.887-28.887-28.887c-15.928,0-28.887,12.959-28.887,28.887  C314.783,231.287,318.141,234.645,322.283,234.645z M154.445,227.145c0-7.657,6.23-13.887,13.887-13.887s13.887,6.23,13.887,13.887  c0,4.143,3.357,7.5,7.5,7.5s7.5-3.357,7.5-7.5c0-15.928-12.959-28.887-28.887-28.887s-28.887,12.959-28.887,28.887  c0,4.143,3.357,7.5,7.5,7.5S154.445,231.287,154.445,227.145z M453.212,431.397c-14.784-26.551-38.501-42.903-70.512-48.642  c-5.374-5.604-11.141-10.875-17.278-15.768c15.74-14.443,28.621-31.951,37.695-51.568v25.892c-3.808,2.22-6.379,6.337-6.379,11.054  v20.927c0,7.057,5.74,12.798,12.797,12.798h33.585c7.057,0,12.797-5.741,12.797-12.798v-20.927c0-4.717-2.572-8.835-6.38-11.054  V185.869h-0.119C449.417,83.381,362.624,0,255.94,0C149.258,0,62.465,83.381,62.465,185.869v155.442  c-3.808,2.22-6.379,6.337-6.379,11.054v20.927c0,7.057,5.74,12.798,12.797,12.798h33.585c7.057,0,12.797-5.741,12.797-12.798  v-20.927c0-4.717-2.572-8.835-6.38-11.054v-25.892c9.074,19.617,21.955,37.125,37.695,51.569  c-6.137,4.893-11.904,10.164-17.278,15.768c-32.011,5.739-55.728,22.091-70.512,48.642c-12.001,21.551-15.221,44.813-15.81,60.532  c-0.198,5.296,1.718,10.315,5.396,14.135c3.687,3.827,8.646,5.935,13.963,5.935h387.322c5.317,0,10.276-2.108,13.963-5.935  c3.679-3.819,5.595-8.839,5.397-14.134C468.433,476.211,465.213,452.948,453.212,431.397z M440.916,371.09h-29.179v-16.521h29.179  L440.916,371.09L440.916,371.09z M434.536,339.568h-16.42V193.369h16.42V339.568z M418.722,115.845l-92.877,20.909  c-5.651,1.275-11.27-2.288-12.541-7.932l-9.783-43.462c-0.615-2.733-0.129-5.543,1.369-7.912c1.498-2.368,3.829-4.012,6.563-4.628  l63.38-14.269C393.341,74.41,408.383,93.901,418.722,115.845z M192.831,26.038c6.289,7.719,9.711,17.278,9.711,27.371  c0,23.955-19.489,43.444-43.444,43.444c-16.075,0-30.588-8.753-38.146-22.646C140.201,52.907,164.847,36.199,192.831,26.038z   M77.465,193.369h16.42v146.199h-16.42V193.369z M100.265,371.09H71.086v-16.521h29.179V371.09z M77.635,178.369  c1.55-34.188,13.647-65.8,33.241-91.928c10.745,15.731,28.618,25.412,48.222,25.412c32.227,0,58.444-26.218,58.444-58.444  c0-11.598-3.361-22.67-9.611-32.125C223.212,17.192,239.314,15,255.94,15c38.503,0,74.192,11.741,103.382,31.669l-51.165,11.519  c-13.713,3.087-22.357,16.755-19.271,30.468l9.785,43.462c2.664,11.836,13.211,19.896,24.867,19.896  c1.848-0.001,3.724-0.203,5.601-0.626l95.441-21.487c5.553,15.293,8.9,31.565,9.666,48.468L77.635,178.369L77.635,178.369z   M109.005,247.643V193.37h293.991v54.273c0,81.054-65.941,146.996-146.995,146.996S109.005,328.696,109.005,247.643z   M158.357,376.815c27.17,20.589,61.003,32.823,97.644,32.823s70.473-12.235,97.643-32.824c25.683,19.68,44.585,46.491,54.703,76.551  H103.655C113.773,423.307,132.674,396.495,158.357,376.815z M62.34,497c-1.204,0-2.326-0.477-3.159-1.342  c-0.478-0.496-1.271-1.566-1.21-3.167c0.431-11.526,2.814-33.843,13.924-53.796c9.332-16.759,22.999-28.704,40.734-35.733  C93.286,430.315,81.901,462.936,80.436,497H62.34z M95.432,497c0.456-9.712,1.809-19.289,3.974-28.634h313.19  c2.166,9.345,3.518,18.922,3.974,28.634H95.432z M452.821,495.658c-0.833,0.865-1.955,1.342-3.159,1.342h-18.096  c-1.464-34.064-12.85-66.685-32.193-94.037c17.735,7.029,31.402,18.974,40.734,35.733c11.11,19.953,13.493,42.27,13.924,53.797  C454.092,494.092,453.299,495.162,452.821,495.658z"/>
<g>
</g>
<g>
</g>
<g>
</g>
<g>
</g>
<g>
</g>
<g>
</g>
<g>
</g>
<g>
</g>
<g>
</g>
<g>
</g>
<g>
</g>
<g>
</g>
<g>
</g>
<g>
</g>
<g>
</g>
</svg>
