<?xml version="1.0" encoding="iso-8859-1"?>
<!-- Generator: Adobe Illustrator 19.0.0, SVG Export Plug-In . SVG Version: 6.00 Build 0)  -->
<svg xmlns="http://www.w3.org/2000/svg" xmlns:xlink="http://www.w3.org/1999/xlink" version="1.1" id="Layer_1" x="0px" y="0px" viewBox="0 0 512 512" style="enable-background:new 0 0 512 512;" xml:space="preserve">
<path style="fill:#394049;" d="M362.092,7.5H149.908c-32.132,0-58.18,26.048-58.18,58.18v189.604h328.544V65.68  C420.272,33.548,394.224,7.5,362.092,7.5z"/>
<path style="fill:#4DB1E0;" d="M153.346,408.723c-59.583,9.526-68.013,62.811-68.863,85.522c-0.21,5.607,4.29,10.256,9.901,10.256  h58.963v-95.778H153.346z"/>
<path style="opacity:0.1;enable-background:new    ;" d="M144.392,410.585c-24.613,24.092-40.398,57.161-42.053,93.915h51.007  v-95.777C150.218,409.222,147.245,409.854,144.392,410.585z"/>
<path style="fill:#4DB1E0;" d="M358.654,408.723c59.583,9.526,68.014,62.811,68.864,85.522c0.21,5.607-4.29,10.256-9.901,10.256  h-58.963V408.723z"/>
<path style="opacity:0.1;enable-background:new    ;" d="M367.607,410.585c24.613,24.092,40.398,57.161,42.054,93.915h-51.008  v-95.777C361.782,409.222,364.755,409.854,367.607,410.585z"/>
<path style="fill:#4DB1E0;" d="M396.406,504.5c0-77.544-62.862-140.406-140.406-140.406S115.594,426.956,115.594,504.5H396.406z"/>
<circle style="fill:#8D6A59;" cx="91.73" cy="255.28" r="38.24"/>
<path style="opacity:0.07;enable-background:new    ;" d="M91.728,217.048c-3.125,0-6.159,0.383-9.066,1.091  c-2.759,11.937-4.218,24.371-4.218,37.146s1.459,25.209,4.218,37.146c2.907,0.707,5.941,1.091,9.066,1.091  c21.117,0,38.236-17.119,38.236-38.237C129.964,234.167,112.845,217.048,91.728,217.048z"/>
<circle style="fill:#8D6A59;" cx="420.27" cy="255.28" r="38.24"/>
<path style="opacity:0.07;enable-background:new    ;" d="M420.272,217.048c3.125,0,6.158,0.383,9.066,1.091  c2.759,11.937,4.218,24.371,4.218,37.146s-1.459,25.209-4.218,37.146c-2.907,0.707-5.941,1.091-9.066,1.091  c-21.117,0-38.237-17.119-38.237-38.237C382.036,234.167,399.155,217.048,420.272,217.048z"/>
<path style="opacity:0.15;enable-background:new    ;" d="M256,364.094c-38.371,0-73.141,15.399-98.484,40.345  c27.442,20.587,61.538,32.786,98.484,32.786s71.043-12.199,98.484-32.786C329.141,379.493,294.371,364.094,256,364.094z"/>
<circle style="fill:#8D6A59;" cx="256" cy="255.28" r="164.27"/>
<g>
	<path style="fill:#EC8087;" d="M169.807,284.677H142.99c-4.142,0-7.5-3.357-7.5-7.5s3.358-7.5,7.5-7.5h26.816   c4.142,0,7.5,3.357,7.5,7.5C177.307,281.319,173.949,284.677,169.807,284.677z"/>
	<path style="fill:#EC8087;" d="M369.003,284.677h-26.816c-4.143,0-7.5-3.357-7.5-7.5s3.357-7.5,7.5-7.5h26.816   c4.143,0,7.5,3.357,7.5,7.5C376.503,281.319,373.146,284.677,369.003,284.677z"/>
</g>
<g>
	<rect x="384.59" y="83.51" style="fill:#F6D83E;" width="35.683" height="15"/>
	<rect x="384.59" y="111.89" style="fill:#F6D83E;" width="35.683" height="15"/>
	<rect x="91.73" y="83.51" style="fill:#F6D83E;" width="35.682" height="15"/>
	<rect x="91.73" y="111.89" style="fill:#F6D83E;" width="35.682" height="15"/>
</g>
<rect x="153.35" y="472.38" style="opacity:0.4;fill:#FFFFFF;enable-background:new    ;" width="66.22" height="32.12"/>
<path d="M277.187,262.707c-3.325-2.469-8.025-1.772-10.491,1.556c-2.553,3.44-6.451,5.414-10.696,5.414  c-4.245,0-8.144-1.974-10.696-5.414c-2.468-3.328-7.165-4.022-10.492-1.556c-3.327,2.468-4.023,7.165-1.556,10.491  c5.331,7.188,13.833,11.479,22.744,11.479c8.91,0,17.412-4.291,22.743-11.479C281.211,269.872,280.515,265.175,277.187,262.707z   M156.398,222.149c-4.142,0-7.5,3.357-7.5,7.5v19.95c0,4.143,3.358,7.5,7.5,7.5s7.5-3.357,7.5-7.5v-19.95  C163.898,225.507,160.54,222.149,156.398,222.149z M421.589,300.987c24.611-0.701,44.42-20.926,44.42-45.703  c0-22.664-16.574-41.521-38.236-45.111V65.681C427.773,29.464,398.309,0,362.092,0H149.908c-36.216,0-65.68,29.464-65.68,65.681  v144.492c-21.662,3.59-38.237,22.447-38.237,45.111c0,24.777,19.809,45.002,44.42,45.703c10.629,38.465,34.325,71.561,66,94.178  c-2.359,2.145-4.639,4.355-6.84,6.628c-26.847,4.936-46.782,18.735-59.235,41.098c-10.134,18.199-12.853,37.819-13.349,51.073  c-0.178,4.76,1.545,9.272,4.851,12.703c3.313,3.439,7.768,5.333,12.545,5.333h323.232c4.777,0,9.232-1.895,12.546-5.334  c3.306-3.432,5.028-7.943,4.851-12.702c-0.497-13.255-3.216-32.874-13.35-51.073c-12.453-22.362-32.388-36.161-59.235-41.098  c-2.201-2.273-4.481-4.483-6.84-6.628C387.264,372.548,410.96,339.453,421.589,300.987z M425.086,224.928  c14.669,2.318,25.922,15.046,25.922,30.357s-11.253,28.039-25.922,30.356c1.765-9.856,2.686-20.001,2.686-30.356  C427.773,244.928,426.851,234.784,425.086,224.928z M86.914,285.641c-14.669-2.317-25.923-15.046-25.923-30.356  c0-15.311,11.254-28.039,25.923-30.357c-1.765,9.856-2.686,20.001-2.686,30.357C84.228,265.64,85.149,275.785,86.914,285.641z   M99.228,65.681c0-27.945,22.735-50.681,50.68-50.681h212.184c27.945,0,50.681,22.735,50.681,50.681v119.428  C385.886,125.28,325.731,83.512,256,83.512S126.114,125.28,99.228,185.109V65.681z M94.384,497c-0.896,0-1.476-0.463-1.742-0.739  c-0.32-0.333-0.695-0.904-0.664-1.736c0.356-9.508,2.319-27.911,11.465-44.336c6.905-12.399,16.719-21.578,29.269-27.49  c-14.573,21.895-23.08,47.429-24.419,74.301H94.384z M212.063,497h-51.217v-17.124h51.217V497z M248.5,497h-21.437v-17.628  c2.814-1.081,4.814-3.801,4.814-6.996c0-4.143-3.358-7.5-7.5-7.5h-75.846c-4.142,0-7.5,3.357-7.5,7.5  c0,3.195,2.001,5.915,4.815,6.996V497h-22.545c2.01-36.218,18.54-69.675,46.184-93.374c23.396,13.697,50.302,22.017,79.015,23.257  L248.5,497L248.5,497z M408.558,450.189c9.146,16.424,11.109,34.828,11.465,44.336c0.031,0.832-0.344,1.403-0.664,1.735  c-0.266,0.276-0.846,0.74-1.742,0.74h-13.908c-1.339-26.872-9.846-52.406-24.419-74.301  C391.839,428.61,401.653,437.789,408.558,450.189z M388.697,497H263.5v-70.117c28.713-1.24,55.618-9.56,79.014-23.257  C370.158,427.325,386.688,460.782,388.697,497z M256,412.057c-86.444,0-156.772-70.328-156.772-156.772S169.556,98.513,256,98.513  s156.773,70.328,156.773,156.772C412.773,341.728,342.444,412.057,256,412.057z M355.602,222.149c-4.143,0-7.5,3.357-7.5,7.5v19.95  c0,4.143,3.357,7.5,7.5,7.5c4.142,0,7.5-3.357,7.5-7.5v-19.95C363.102,225.507,359.744,222.149,355.602,222.149z"/>
<g>
</g>
<g>
</g>
<g>
</g>
<g>
</g>
<g>
</g>
<g>
</g>
<g>
</g>
<g>
</g>
<g>
</g>
<g>
</g>
<g>
</g>
<g>
</g>
<g>
</g>
<g>
</g>
<g>
</g>
</svg>
