<?xml version="1.0" encoding="iso-8859-1"?>
<!-- Generator: Adobe Illustrator 19.0.0, SVG Export Plug-In . SVG Version: 6.00 Build 0)  -->
<svg xmlns="http://www.w3.org/2000/svg" xmlns:xlink="http://www.w3.org/1999/xlink" version="1.1" id="Layer_1" x="0px" y="0px" viewBox="0 0 512 512" style="enable-background:new 0 0 512 512;" xml:space="preserve">
<circle style="fill:#EC8087;" cx="256" cy="195.19" r="187.69"/>
<path style="fill:#F6D83E;" d="M425.759,219.605c0-93.755-76.004-169.759-169.759-169.759S86.241,125.85,86.241,219.605H425.759z"/>
<circle style="fill:#8D6A59;" cx="108.5" cy="240.93" r="35.475"/>
<circle style="opacity:0.07;enable-background:new    ;" cx="108.5" cy="240.93" r="35.475"/>
<path style="opacity:0.1;enable-background:new    ;" d="M108.496,205.451c-4.051,0-7.939,0.688-11.566,1.939  c-0.33,4.029-0.507,8.102-0.507,12.215v45.635c0,3.073,0.105,6.121,0.29,9.148c3.688,1.298,7.651,2.012,11.782,2.012  c19.592,0,35.475-15.883,35.475-35.475C143.971,221.333,128.088,205.451,108.496,205.451z"/>
<circle style="fill:#8D6A59;" cx="403.5" cy="240.93" r="35.475"/>
<circle style="opacity:0.07;enable-background:new    ;" cx="403.5" cy="240.93" r="35.475"/>
<path style="opacity:0.1;enable-background:new    ;" d="M403.504,205.451c4.051,0,7.939,0.688,11.566,1.939  c0.33,4.029,0.507,8.102,0.507,12.215v45.635c0,3.073-0.105,6.121-0.29,9.148c-3.688,1.298-7.651,2.012-11.782,2.012  c-19.592,0-35.475-15.883-35.475-35.475C368.03,221.333,383.912,205.451,403.504,205.451z"/>
<path style="fill:#8D6A59;" d="M143.971,399.975c-65.025,10.396-74.226,68.547-75.153,93.333  C68.589,499.427,73.5,504.5,79.623,504.5h64.348L143.971,399.975L143.971,399.975z"/>
<path style="opacity:0.08;enable-background:new    ;" d="M134.199,402.008C107.338,428.3,90.111,464.389,88.305,504.5h55.666  V399.975C140.557,400.521,137.312,401.21,134.199,402.008z"/>
<path style="fill:#8D6A59;" d="M368.029,399.975c65.025,10.396,74.225,68.547,75.153,93.333c0.229,6.119-4.682,11.192-10.805,11.192  h-64.348L368.029,399.975L368.029,399.975z"/>
<path style="opacity:0.08;enable-background:new    ;" d="M377.801,402.008c26.861,26.292,44.088,62.382,45.895,102.492H368.03  V399.975C371.443,400.521,374.688,401.21,377.801,402.008z"/>
<path style="fill:#F6D83E;" d="M409.229,504.5c0-84.626-68.603-153.229-153.229-153.229S102.771,419.874,102.771,504.5H409.229z"/>
<path style="fill:#8D6A59;" d="M347.693,362.433L268.929,467.52c-6.463,8.623-19.395,8.623-25.858,0l-78.764-105.088h183.386  V362.433z"/>
<path style="opacity:0.15;enable-background:new    ;" d="M256,351.271c-39.122,0-74.812,14.669-101.891,38.797  c25.629,26.902,61.801,43.667,101.89,43.667l0,0c40.089,0,76.262-16.766,101.891-43.667C330.812,365.94,295.122,351.271,256,351.271  z"/>
<path style="fill:#8D6A59;" d="M256,72.101L256,72.101c-81.465,0-147.504,66.04-147.504,147.504v45.635  c0,81.464,66.04,147.504,147.504,147.504l0,0c81.464,0,147.504-66.04,147.504-147.504v-45.635  C403.504,138.141,337.464,72.101,256,72.101z"/>
<g>
	<path style="fill:#EC8087;" d="M170.726,274.565h-29.663c-4.142,0-7.5-3.357-7.5-7.5c0-4.142,3.358-7.5,7.5-7.5h29.663   c4.142,0,7.5,3.358,7.5,7.5C178.226,271.208,174.868,274.565,170.726,274.565z"/>
	<path style="fill:#EC8087;" d="M370.937,274.565h-29.663c-4.142,0-7.5-3.357-7.5-7.5c0-4.142,3.358-7.5,7.5-7.5h29.663   c4.142,0,7.5,3.358,7.5,7.5C378.437,271.208,375.079,274.565,370.937,274.565z"/>
	<path style="fill:#EC8087;" d="M256,72.101L256,72.101c-68.27,0-125.697,46.383-142.512,109.353   c32.767-12.026,56.04-28.949,71.418-45.791c38.476,32.118,111.812,61.716,214.565,49.585   C383.989,120.356,325.634,72.101,256,72.101z"/>
</g>
<path d="M371.72,392.999c-4.053-4.21-8.328-8.207-12.811-11.953c15.725-13.989,28.59-31.122,37.601-50.406  c17.765-18.421,31.527-39.737,40.927-63.391c5.659-7.279,9.042-16.411,9.042-26.323c0-0.878-0.035-1.748-0.087-2.613  c3.175-14.079,4.797-28.579,4.797-43.124C451.189,87.562,363.627,0,256,0S60.811,87.562,60.811,195.189  c0,14.544,1.622,29.043,4.797,43.124c-0.052,0.865-0.087,1.735-0.087,2.613c0,9.913,3.383,19.045,9.042,26.324  c9.4,23.655,23.162,44.971,40.927,63.391c9.012,19.284,21.876,36.416,37.601,50.406c-4.483,3.746-8.758,7.743-12.811,11.953  c-29.254,5.297-50.939,20.289-64.475,44.598c-10.994,19.743-13.943,41.04-14.482,55.43c-0.188,5.007,1.624,9.752,5.101,13.362  c3.486,3.618,8.173,5.61,13.199,5.61h352.755c5.026,0,9.713-1.992,13.198-5.61c3.478-3.61,5.289-8.355,5.102-13.362  c-0.538-14.39-3.488-35.688-14.482-55.431C422.659,413.288,400.974,398.296,371.72,392.999z M408.931,290.523  c0.387-2.351,0.722-4.72,1.002-7.105c1.222-0.184,2.424-0.428,3.61-0.714C412.072,285.35,410.534,287.957,408.931,290.523z   M410.971,267.885c0.015-0.881,0.034-1.761,0.034-2.645v-45.635c0-1.895-0.046-3.779-0.114-5.657  c11.852,3.249,20.588,14.109,20.588,26.978C431.478,253.771,422.772,264.616,410.971,267.885z M76.616,212.141  c-0.526-5.626-0.805-11.285-0.805-16.953C75.811,95.832,156.644,15,256,15s180.189,80.832,180.189,180.189  c0,5.668-0.279,11.326-0.805,16.953c-0.772-0.855-1.584-1.671-2.422-2.462c-2.467-44.707-21.506-86.359-53.847-117.595  C345.906,60.011,302.183,42.347,256,42.347s-89.906,17.664-123.115,49.738c-32.341,31.236-51.38,72.888-53.847,117.595  C78.2,210.47,77.388,211.287,76.616,212.141z M80.521,240.926c0-12.87,8.74-23.732,20.589-26.979  c-0.068,1.879-0.114,3.764-0.114,5.659v45.635c0,0.883,0.019,1.761,0.034,2.64C89.219,264.604,80.521,253.765,80.521,240.926z   M98.457,282.704c1.187,0.285,2.389,0.53,3.611,0.714c0.28,2.386,0.614,4.754,1.002,7.106  C101.466,287.957,99.928,285.351,98.457,282.704z M102.455,198.384c-2.595,0.367-5.113,0.968-7.539,1.778  c4.404-36.969,21.296-71.12,48.389-97.288C173.704,73.516,213.726,57.347,256,57.347s82.296,16.169,112.694,45.528  c27.094,26.167,43.985,60.319,48.389,97.288c-2.425-0.81-4.944-1.412-7.538-1.778c-2.246-16.334-7.039-31.867-13.977-46.176  c-0.196-0.543-0.452-1.053-0.759-1.525c-6.035-12.104-13.604-23.313-22.456-33.37c-0.382-0.569-0.836-1.081-1.351-1.522  C342.615,84.376,301.575,64.602,256,64.602l0,0C177.729,64.602,112.834,122.92,102.455,198.384z M280.294,111.701  c9.025,6.199,39.708,18.277,71.254,18.277c3.813,0,7.639-0.182,11.441-0.566c5.089,6.027,9.678,12.488,13.705,19.319  c-23.511,2.368-48.674,0.475-73.44-5.591c-23.228-5.689-45.201-14.862-60.285-25.167c-3.421-2.339-8.087-1.459-10.424,1.962  c-2.336,3.42-1.458,8.087,1.962,10.423c26.484,18.094,73.081,34.364,122.29,34.364c9.025,0,18.139-0.557,27.232-1.741  c2.264,5.099,4.233,10.355,5.883,15.751c-42.933,4.152-83.21,1.161-119.837-8.915c-40.121-11.034-65.846-27.795-80.362-39.912  c-3.081-2.573-7.641-2.264-10.345,0.701c-9.969,10.918-26.966,25.598-53.654,37.736c20.499-51.915,71.173-88.74,130.286-88.74  c35.596,0,68.126,13.361,92.856,35.322c-26.706-0.677-52.996-10.727-60.069-15.585c-3.414-2.346-8.082-1.479-10.429,1.935  C276.013,104.688,276.88,109.356,280.294,111.701z M115.996,265.24v-45.635c0-11.199,1.33-22.092,3.826-32.537  c26.079-10.086,48.62-24.232,65.754-41.27c16.303,12.501,42.406,27.998,80.521,38.482c27.273,7.501,56.405,11.263,87.04,11.262  c13.198,0,26.681-0.704,40.406-2.103c1.61,8.48,2.463,17.225,2.463,26.166v45.635c0,77.198-62.806,140.004-140.004,140.004  C178.802,405.244,115.996,342.439,115.996,265.24z M299.698,413.963l-36.771,49.06c-1.65,2.202-4.175,3.465-6.928,3.465  c-2.752,0-5.277-1.263-6.928-3.465l-36.771-49.06c13.866,4.081,28.529,6.282,43.699,6.282  C271.17,420.244,285.833,418.044,299.698,413.963z M79.623,497c-1.231,0-2.029-0.637-2.395-1.017  c-0.361-0.375-0.961-1.185-0.916-2.396c0.391-10.438,2.547-30.644,12.598-48.693c8.04-14.439,19.641-24.929,34.611-31.373  c-3.858,5.598-7.373,11.425-10.481,17.455C102.554,451.323,96.545,474.003,95.465,497H79.623z M110.456,497  c1.033-20.772,6.375-40.637,15.918-59.152c9.361-18.162,22.668-34.37,38.664-47.182c6.483,4.715,13.337,8.947,20.521,12.628  l51.51,68.725c4.511,6.018,11.411,9.469,18.931,9.469s14.42-3.451,18.931-9.469l51.509-68.724  c7.184-3.68,14.039-7.913,20.522-12.628c15.996,12.812,29.304,29.02,38.665,47.181c9.542,18.516,14.884,38.381,15.917,59.152  H110.456z M434.772,495.983c-0.366,0.38-1.163,1.017-2.395,1.017h-15.842c-1.08-22.997-7.09-45.677-17.576-66.024  c-3.108-6.03-6.623-11.857-10.481-17.454c14.97,6.444,26.571,16.934,34.611,31.373c10.051,18.05,12.208,38.256,12.598,48.693  C435.733,494.798,435.134,495.608,434.772,495.983z M256,274.856c9.122,0,17.827-4.393,23.286-11.751  c2.468-3.327,1.772-8.024-1.555-10.492c-3.326-2.466-8.024-1.771-10.492,1.555c-2.682,3.615-6.778,5.688-11.239,5.688  c-4.46,0-8.557-2.073-11.239-5.688c-2.468-3.325-7.164-4.023-10.492-1.555c-3.327,2.468-4.022,7.165-1.555,10.492  C238.173,270.464,246.878,274.856,256,274.856z M163.391,236.561v-22.067c0-4.143-3.358-7.5-7.5-7.5s-7.5,3.357-7.5,7.5v22.067  c0,4.143,3.358,7.5,7.5,7.5S163.391,240.704,163.391,236.561z M356.109,244.061c4.142,0,7.5-3.357,7.5-7.5v-22.067  c0-4.143-3.358-7.5-7.5-7.5s-7.5,3.357-7.5,7.5v22.067C348.609,240.704,351.967,244.061,356.109,244.061z"/>
<g>
</g>
<g>
</g>
<g>
</g>
<g>
</g>
<g>
</g>
<g>
</g>
<g>
</g>
<g>
</g>
<g>
</g>
<g>
</g>
<g>
</g>
<g>
</g>
<g>
</g>
<g>
</g>
<g>
</g>
</svg>
