<?xml version="1.0" encoding="iso-8859-1"?>
<!-- Generator: Adobe Illustrator 19.0.0, SVG Export Plug-In . SVG Version: 6.00 Build 0)  -->
<svg xmlns="http://www.w3.org/2000/svg" xmlns:xlink="http://www.w3.org/1999/xlink" version="1.1" id="Layer_1" x="0px" y="0px" viewBox="0 0 512.002 512.002" style="enable-background:new 0 0 512.002 512.002;" xml:space="preserve">
<path style="fill:#394049;" d="M135.981,392.518c-69.663,11.138-79.52,73.437-80.514,99.991  c-0.246,6.555,5.016,11.991,11.576,11.991h68.938V392.518z"/>
<path style="opacity:0.3;enable-background:new    ;" d="M125.512,394.696C96.735,422.864,78.28,461.528,76.344,504.5h59.637  V392.518C132.324,393.103,128.847,393.842,125.512,394.696z"/>
<path style="fill:#394049;" d="M376.023,392.518c69.663,11.138,79.52,73.437,80.514,99.991c0.245,6.555-5.016,11.991-11.576,11.991  h-68.938V392.518z"/>
<path style="opacity:0.3;enable-background:new    ;" d="M386.492,394.696c28.777,28.168,47.233,66.832,49.168,109.804h-59.637  V392.518C379.68,393.103,383.157,393.842,386.492,394.696z"/>
<path style="fill:#394049;" d="M420.162,504.5c0-90.663-73.497-164.16-164.16-164.16S91.842,413.837,91.842,504.5H420.162z"/>
<path style="opacity:0.1;enable-background:new    ;" d="M256.002,340.34c-47.567,0-90.401,20.239-120.382,52.566  c32.935,26.528,74.8,42.417,120.382,42.417s87.447-15.889,120.382-42.417C346.403,360.579,303.569,340.34,256.002,340.34z"/>
<circle style="fill:#F6CDB5;" cx="63.938" cy="213.12" r="44.706"/>
<circle style="opacity:0.15;fill:#EC8087;enable-background:new    ;" cx="63.938" cy="213.12" r="44.706"/>
<path style="opacity:0.07;enable-background:new    ;" d="M63.938,168.415c-3.653,0-7.201,0.448-10.6,1.275  c-3.226,13.956-4.932,28.494-4.932,43.43c0,14.937,1.706,29.475,4.932,43.43c3.399,0.827,6.946,1.275,10.6,1.275  c24.69,0,44.705-20.015,44.705-44.706C108.643,188.431,88.628,168.415,63.938,168.415z"/>
<circle style="fill:#F6CDB5;" cx="448.062" cy="213.12" r="44.706"/>
<circle style="opacity:0.15;fill:#EC8087;enable-background:new    ;" cx="448.062" cy="213.12" r="44.706"/>
<path style="opacity:0.07;enable-background:new    ;" d="M448.066,168.415c3.654,0,7.201,0.448,10.6,1.275  c3.226,13.956,4.932,28.494,4.932,43.43c0,14.937-1.706,29.475-4.932,43.43c-3.399,0.827-6.946,1.275-10.6,1.275  c-24.69,0-44.706-20.015-44.706-44.706C403.361,188.431,423.376,168.415,448.066,168.415z"/>
<circle style="fill:#F6CDB5;" cx="256.002" cy="213.12" r="192.06"/>
<path style="fill:#394049;" d="M436.868,148.376H75.136c-7.243,20.23-11.199,42.024-11.199,64.744c0,2.052,0.043,4.094,0.107,6.131  h383.914c0.064-2.037,0.107-4.079,0.107-6.131C448.066,190.4,444.11,168.607,436.868,148.376z"/>
<g>
	<path style="fill:#FFFFFF;" d="M139.549,202.83c-4.142,0-7.5-3.357-7.5-7.5v-23.324c0-4.143,3.358-7.5,7.5-7.5s7.5,3.357,7.5,7.5   v23.324C147.049,199.473,143.691,202.83,139.549,202.83z"/>
	<path style="fill:#FFFFFF;" d="M372.455,202.83c-4.142,0-7.5-3.357-7.5-7.5v-23.324c0-4.143,3.358-7.5,7.5-7.5s7.5,3.357,7.5,7.5   v23.324C379.955,199.473,376.597,202.83,372.455,202.83z"/>
</g>
<g>
	<path style="fill:#EC8087;" d="M155.226,255.636h-31.354c-4.142,0-7.5-3.357-7.5-7.5s3.358-7.5,7.5-7.5h31.354   c4.142,0,7.5,3.357,7.5,7.5C162.726,252.278,159.368,255.636,155.226,255.636z"/>
	<path style="fill:#EC8087;" d="M388.124,255.636h-31.353c-4.142,0-7.5-3.357-7.5-7.5s3.358-7.5,7.5-7.5h31.353   c4.142,0,7.5,3.357,7.5,7.5C395.624,252.278,392.266,255.636,388.124,255.636z"/>
</g>
<path style="fill:#FFFFFF;" d="M392.907,413.904H119.096c-3.156,4.759-6.07,9.691-8.725,14.781h291.261  C398.977,423.595,396.063,418.663,392.907,413.904z M413.177,457.012H98.827c-1.46,4.837-2.708,9.766-3.722,14.781h321.794  C415.885,466.779,414.636,461.85,413.177,457.012z"/>
<path d="M170.507,59.285c-4.142,0-7.5,3.357-7.5,7.5v24.05c0,4.143,3.358,7.5,7.5,7.5s7.5-3.357,7.5-7.5v-24.05  C178.007,62.643,174.649,59.285,170.507,59.285z M448.628,265.312c28.527-0.304,51.643-23.593,51.643-52.191  s-23.117-51.888-51.644-52.192c-9.762-35.992-29.36-67.976-55.726-92.873V51.802c0-4.143-3.358-7.5-7.5-7.5s-7.5,3.357-7.5,7.5  v3.427c-15.568-12.047-32.957-21.844-51.68-28.905v-7.353c0-4.143-3.358-7.5-7.5-7.5s-7.5,3.357-7.5,7.5v2.363  c-15.242-4.395-31.229-7.009-47.72-7.622V7.5c0-4.143-3.358-7.5-7.5-7.5c-4.142,0-7.5,3.357-7.5,7.5v6.212  c-16.491,0.613-32.478,3.227-47.72,7.622v-2.363c0-4.143-3.358-7.5-7.5-7.5s-7.5,3.357-7.5,7.5v7.353  c-18.723,7.062-36.112,16.858-51.68,28.906v-3.427c0-4.143-3.358-7.5-7.5-7.5s-7.5,3.357-7.5,7.5v16.255  c-26.367,24.896-45.964,56.881-55.726,92.873c-28.527,0.304-51.644,23.594-51.644,52.192s23.116,51.887,51.644,52.191  c12.366,45.594,40.52,84.754,78.212,111.223c-3.247,2.9-6.362,5.912-9.356,9.018C101,391.183,77.856,407.162,63.42,433.086  c-11.727,21.059-14.874,43.787-15.448,59.144c-0.196,5.217,1.692,10.162,5.316,13.924c3.632,3.771,8.517,5.848,13.754,5.848H444.96  c5.238,0,10.122-2.076,13.754-5.848c3.624-3.762,5.512-8.707,5.316-13.923c-0.575-15.358-3.721-38.086-15.448-59.145  c-14.436-25.924-37.58-41.903-68.811-47.531c-2.994-3.106-6.109-6.118-9.356-9.018C408.109,350.066,436.262,310.905,448.628,265.312  z M485.272,213.121c0,19.146-14.539,34.955-33.155,36.98c2.256-11.988,3.449-24.347,3.449-36.98c0-12.634-1.194-24.993-3.449-36.981  C470.733,178.165,485.272,193.975,485.272,213.121z M59.887,250.102c-18.616-2.026-33.155-17.835-33.155-36.98  c0-19.146,14.539-34.956,33.155-36.981c-2.256,11.989-3.449,24.348-3.449,36.981C56.438,225.755,57.631,238.113,59.887,250.102z   M121.31,87.081c1.356,1.351,3.226,2.186,5.292,2.186c4.142,0,7.5-3.357,7.5-7.5v-7.1c15.226-13.421,32.672-24.374,51.712-32.232  c0.319,3.849,3.538,6.874,7.469,6.874c4.142,0,7.5-3.358,7.5-7.5v-4.812c15.163-4.764,31.165-7.61,47.72-8.275v3.691  c0,4.143,3.358,7.5,7.5,7.5c4.142,0,7.5-3.357,7.5-7.5v-3.691c16.555,0.665,32.557,3.511,47.72,8.276v4.812  c0,4.142,3.358,7.5,7.5,7.5c3.931,0,7.15-3.025,7.468-6.874c19.04,7.858,36.486,18.811,51.711,32.232v7.1c0,4.143,3.358,7.5,7.5,7.5  c2.066,0,3.936-0.836,5.292-2.186c14.643,15.639,26.607,33.814,35.139,53.796H86.171C94.703,120.896,106.667,102.72,121.31,87.081z   M80.537,155.877h350.931c5.762,17.617,8.939,36.391,9.082,55.875H71.455C71.597,192.268,74.775,173.494,80.537,155.877z   M67.043,497c-1.518,0-2.501-0.785-2.951-1.253c-0.446-0.464-1.186-1.464-1.13-2.957c0.42-11.23,2.742-32.974,13.564-52.408  c8.95-16.072,21.998-27.592,38.892-34.475C96.75,432.434,85.941,463.862,84.52,497H67.043z M435.479,440.382  c10.823,19.436,13.143,41.178,13.564,52.409c0.056,1.492-0.684,2.492-1.13,2.956c-0.451,0.468-1.434,1.253-2.951,1.253h-17.477  c-1.422-33.138-12.231-64.566-30.898-91.093C413.481,412.79,426.529,424.31,435.479,440.382z M412.486,497H99.518  c2.045-43.508,21.851-83.737,55.195-111.996c29.711,17.575,64.339,27.681,101.289,27.681s71.578-10.106,101.289-27.681  C390.635,413.263,410.441,453.492,412.486,497z M256.002,397.685c-97.184,0-177.06-75.505-184.06-170.933h368.12  C433.062,322.181,353.186,397.685,256.002,397.685z M280.02,232.237c-3.326-2.467-8.024-1.771-10.492,1.555  c-3.228,4.35-8.157,6.844-13.526,6.844c-5.369,0-10.298-2.494-13.525-6.844c-2.469-3.327-7.165-4.023-10.492-1.555  c-3.327,2.468-4.022,7.166-1.555,10.492c5.996,8.081,15.556,12.906,25.572,12.906c10.016,0,19.576-4.824,25.572-12.906  C284.042,239.403,283.346,234.706,280.02,232.237z M225.266,43.056c-4.142,0-7.5,3.357-7.5,7.5v24.646c0,4.143,3.358,7.5,7.5,7.5  s7.5-3.357,7.5-7.5V50.556C232.766,46.413,229.408,43.056,225.266,43.056z M341.497,59.285c-4.142,0-7.5,3.357-7.5,7.5v24.05  c0,4.143,3.358,7.5,7.5,7.5s7.5-3.357,7.5-7.5v-24.05C348.997,62.643,345.639,59.285,341.497,59.285z M286.738,43.056  c-4.142,0-7.5,3.357-7.5,7.5v24.646c0,4.143,3.358,7.5,7.5,7.5s7.5-3.357,7.5-7.5V50.556  C294.238,46.413,290.88,43.056,286.738,43.056z"/>
<g>
</g>
<g>
</g>
<g>
</g>
<g>
</g>
<g>
</g>
<g>
</g>
<g>
</g>
<g>
</g>
<g>
</g>
<g>
</g>
<g>
</g>
<g>
</g>
<g>
</g>
<g>
</g>
<g>
</g>
</svg>
