<?xml version="1.0" encoding="iso-8859-1"?>
<!-- Generator: Adobe Illustrator 19.0.0, SVG Export Plug-In . SVG Version: 6.00 Build 0)  -->
<svg xmlns="http://www.w3.org/2000/svg" xmlns:xlink="http://www.w3.org/1999/xlink" version="1.1" id="Layer_1" x="0px" y="0px" viewBox="0 0 511.999 511.999" style="enable-background:new 0 0 511.999 511.999;" xml:space="preserve">
<circle style="fill:#F6CDB5;" cx="82.549" cy="194.56" r="41.715"/>
<circle style="opacity:0.15;fill:#EC8087;enable-background:new    ;" cx="82.549" cy="194.56" r="41.715"/>
<path style="opacity:0.1;enable-background:new    ;" d="M82.55,152.85c-4.764,0-9.336,0.809-13.6,2.28  c-0.388,4.738-0.596,9.526-0.596,14.364v53.662c0,3.614,0.124,7.198,0.341,10.757c4.336,1.527,8.996,2.366,13.855,2.366  c23.038,0,41.714-18.676,41.714-41.715C124.264,171.526,105.588,152.85,82.55,152.85z"/>
<circle style="fill:#F6CDB5;" cx="429.449" cy="194.56" r="41.715"/>
<circle style="opacity:0.15;fill:#EC8087;enable-background:new    ;" cx="429.449" cy="194.56" r="41.715"/>
<path style="opacity:0.1;enable-background:new    ;" d="M429.448,152.85c4.764,0,9.336,0.809,13.6,2.28  c0.388,4.738,0.596,9.526,0.596,14.364v53.662c0,3.614-0.124,7.198-0.342,10.757c-4.336,1.527-8.996,2.366-13.855,2.366  c-23.038,0-41.714-18.676-41.714-41.715C387.734,171.526,406.41,152.85,429.448,152.85z"/>
<path style="fill:#4DB1E0;" d="M124.264,381.59c-76.462,12.225-87.281,80.604-88.372,109.749  c-0.269,7.195,5.506,13.161,12.706,13.161h75.666V381.59z"/>
<path style="opacity:0.1;enable-background:new    ;" d="M112.774,383.98c-31.586,30.917-51.843,73.354-53.967,120.52h65.457V381.59  C120.25,382.231,116.434,383.042,112.774,383.98z"/>
<path style="fill:#4DB1E0;" d="M387.733,381.59c76.462,12.225,87.281,80.604,88.372,109.749c0.269,7.195-5.506,13.161-12.706,13.161  h-75.666V381.59z"/>
<path style="opacity:0.1;enable-background:new    ;" d="M399.224,383.98c31.586,30.917,51.843,73.354,53.967,120.52h-65.457V381.59  C391.748,382.231,395.563,383.042,399.224,383.98z"/>
<path style="fill:#E8E8E8;" d="M436.18,504.5c0-99.511-80.67-180.181-180.181-180.181S75.818,404.989,75.818,504.5H436.18z"/>
<g>
	<path style="fill:#4DB1E0;" d="M255.999,417.585l-83.871,29.217c-8.618,3.002-17.485-3.823-16.789-12.922l5.69-74.393   L255.999,417.585z"/>
	<path style="fill:#4DB1E0;" d="M255.999,417.585l83.872,29.217c8.618,3.002,17.485-3.823,16.789-12.922l-5.69-74.393   L255.999,417.585z"/>
</g>
<path style="opacity:0.1;enable-background:new    ;" d="M255.999,324.319c-48.82,0-93.097,19.425-125.546,50.957  c32.037,35.82,73.418,58.789,102.498,75.558c14.267,8.227,31.829,8.227,46.096,0c29.08-16.769,70.461-39.738,102.498-75.558  C349.095,343.744,304.819,324.319,255.999,324.319z"/>
<path style="fill:#F6CDB5;" d="M255.999,7.5L255.999,7.5C160.205,7.5,82.55,73.701,82.55,169.494v53.662  c0,95.793,77.656,173.449,173.449,173.449l0,0c95.793,0,173.449-77.656,173.449-173.449v-53.662  C429.448,73.701,351.792,7.5,255.999,7.5z"/>
<path style="fill:#E36566;" d="M429.448,213.827c-28.536-4.536-60.286-13.127-173.449-13.127s-144.913,8.591-173.449,13.127  c-5.784,123.932,94.801,178.625,150.402,210.686c14.267,8.227,31.829,8.227,46.096,0  C334.647,392.451,435.232,337.758,429.448,213.827z"/>
<g>
	<path style="fill:#FFFFFF;" d="M390.6,248.874h-32.465c-4.143,0-7.5-3.357-7.5-7.5s3.357-7.5,7.5-7.5H390.6   c4.143,0,7.5,3.357,7.5,7.5S394.742,248.874,390.6,248.874z"/>
	<path style="fill:#FFFFFF;" d="M153.863,248.874h-32.465c-4.143,0-7.5-3.357-7.5-7.5s3.357-7.5,7.5-7.5h32.465   c4.143,0,7.5,3.357,7.5,7.5S158.006,248.874,153.863,248.874z"/>
</g>
<path style="fill:#E36566;" d="M255.999,7.5L255.999,7.5c-82.794,0-152.027,49.457-169.297,124.725  c46.662-9.357,92.599-54.716,105.578-77.757c0,11.312,126.057,88.482,226.389,56.16C394.171,47.639,330.586,7.5,255.999,7.5z"/>
<path d="M466.736,426.471c-15.766-28.313-41.073-45.741-75.236-51.843c-3.986-4.145-8.186-8.123-12.582-11.931  c2.077-2.1,4.127-4.243,6.144-6.438c30.072-32.734,47.229-70.629,51.216-112.964c23.914-3.337,42.385-23.912,42.385-48.73  c0-25.143-18.957-45.93-43.327-48.85c-5.225-38.315-23.098-72.748-51.645-98.69C350.321,16.7,304.974,0,255.999,0  s-94.323,16.7-127.691,47.024c-28.547,25.942-46.42,60.375-51.645,98.69c-24.37,2.92-43.328,23.707-43.328,48.85  c0,24.819,18.471,45.394,42.386,48.73c3.987,42.335,21.144,80.23,51.216,112.964c2.016,2.195,4.067,4.339,6.143,6.438  c-4.396,3.807-8.596,7.786-12.582,11.931c-34.163,6.102-59.471,23.53-75.236,51.843c-12.801,22.987-16.236,47.811-16.864,64.588  c-0.207,5.525,1.793,10.764,5.632,14.748c3.847,3.994,9.021,6.193,14.568,6.193h414.803c5.548,0,10.722-2.199,14.568-6.193  c3.839-3.984,5.839-9.223,5.632-14.748C482.973,474.281,479.537,449.458,466.736,426.471z M463.662,194.564  c0,16.221-11.351,29.833-26.525,33.333c0.089-4.683,0.03-9.415-0.189-14.199v-44.205c0-2.8-0.071-5.583-0.2-8.352  C452.117,164.497,463.662,178.204,463.662,194.564z M75.05,169.494v44.205c-0.218,4.784-0.278,9.516-0.188,14.199  c-15.175-3.499-26.526-17.111-26.526-33.333c0-16.361,11.546-30.069,26.915-33.423C75.121,163.91,75.05,166.694,75.05,169.494z   M138.395,58.125C168.997,30.315,210.763,15,255.999,15C301.234,15,343,30.315,373.602,58.125  c14.941,13.578,26.655,29.737,34.814,47.667c-28.079,7.268-72.114,9.819-132.691-11.971c-44.667-16.065-72.352-36.161-76.173-41.197  c-0.659-2.6-2.683-4.706-5.368-5.411c-3.295-0.863-6.764,0.604-8.437,3.574c-11.152,19.797-48.491,57.369-88.273,70.775  C105.309,97.295,119.19,75.579,138.395,58.125z M90.05,169.494c0-10.614,1.03-20.99,3.03-31.029  c43.075-10.732,82.557-47.717,99.866-71.359c1.678,1.439,3.682,3.014,6.068,4.753c16.698,12.163,50.646,30.597,91.369,42.516  c32.051,9.381,78.824,17.599,123.572,5.456c5.257,15.623,7.994,32.33,7.994,49.664v35.465c-0.956-0.167-1.923-0.336-2.904-0.507  c-27.106-4.75-64.23-11.253-163.046-11.253s-135.939,6.503-163.045,11.252c-0.981,0.172-1.948,0.341-2.904,0.507V169.494z   M89.846,220.218c1.861-0.319,3.754-0.65,5.696-0.991c26.564-4.654,62.944-11.027,160.457-11.027s133.893,6.373,160.457,11.026  c1.942,0.341,3.835,0.672,5.696,0.991c2.013,112.171-88.348,164.143-142.718,195.418l-4.134,2.38  c-11.906,6.865-26.697,6.865-38.604,0l-4.134-2.38C178.193,384.36,87.833,332.389,89.846,220.218z M349.182,434.451  c0.192,2.512-1.334,3.974-1.999,4.485c-0.664,0.512-2.468,1.614-4.845,0.782l-46.537-16.211  c15.276-8.869,32.745-19.415,50.07-32.331L349.182,434.451z M216.197,423.508l-46.538,16.212c-2.375,0.828-4.18-0.271-4.844-0.783  c-0.665-0.512-2.191-1.974-1.999-4.484l3.31-43.275C183.452,404.093,200.921,414.639,216.197,423.508z M48.598,497  c-1.434,0-2.771-0.568-3.766-1.6c-0.984-1.022-1.498-2.365-1.444-3.781c0.464-12.392,3.026-36.386,14.979-57.851  c10.323-18.537,25.54-31.632,45.388-39.115C82.314,424.262,69.946,459.644,68.482,497H48.598z M83.477,497  c2.049-48.108,23.782-92.612,60.516-123.908c2.624,2.362,5.274,4.662,7.946,6.897l-4.079,53.32  c-0.52,6.806,2.399,13.354,7.809,17.516c3.583,2.757,7.898,4.19,12.275,4.19c2.23,0,4.477-0.372,6.65-1.129l59.109-20.59  c7.064,3.224,14.675,4.863,22.296,4.863c7.621,0,15.233-1.639,22.296-4.863l59.108,20.589c2.175,0.758,4.421,1.13,6.651,1.13  c4.378,0,8.693-1.433,12.275-4.19c5.409-4.162,8.328-10.71,7.809-17.517l-4.079-53.319c2.672-2.234,5.322-4.534,7.946-6.897  c36.734,31.297,58.466,75.8,60.516,123.908H83.477z M467.166,495.4c-0.994,1.031-2.331,1.6-3.766,1.6h-19.885  c-1.464-37.356-13.832-72.738-35.272-102.346c19.848,7.483,35.065,20.578,45.388,39.115c11.952,21.465,14.515,45.459,14.978,57.851  C468.664,493.035,468.15,494.378,467.166,495.4z M255.999,252.819c8.48,0,16.573-4.083,21.647-10.924  c2.468-3.326,1.771-8.023-1.556-10.491c-3.326-2.469-8.024-1.771-10.491,1.556c-2.291,3.088-5.79,4.859-9.6,4.859  s-7.309-1.771-9.6-4.859c-2.468-3.327-7.165-4.023-10.491-1.556c-3.327,2.468-4.023,7.165-1.556,10.491  C239.426,248.736,247.519,252.819,255.999,252.819z M373.717,194.744c4.143,0,7.5-3.357,7.5-7.5v-25.948c0-4.143-3.357-7.5-7.5-7.5  s-7.5,3.357-7.5,7.5v25.948C366.217,191.387,369.574,194.744,373.717,194.744z M138.281,194.744c4.143,0,7.5-3.357,7.5-7.5v-25.948  c0-4.143-3.357-7.5-7.5-7.5s-7.5,3.357-7.5,7.5v25.948C130.781,191.387,134.139,194.744,138.281,194.744z"/>
<g>
</g>
<g>
</g>
<g>
</g>
<g>
</g>
<g>
</g>
<g>
</g>
<g>
</g>
<g>
</g>
<g>
</g>
<g>
</g>
<g>
</g>
<g>
</g>
<g>
</g>
<g>
</g>
<g>
</g>
</svg>
