<?xml version="1.0" encoding="iso-8859-1"?>
<!-- Generator: Adobe Illustrator 19.0.0, SVG Export Plug-In . SVG Version: 6.00 Build 0)  -->
<svg xmlns="http://www.w3.org/2000/svg" xmlns:xlink="http://www.w3.org/1999/xlink" version="1.1" id="Layer_1" x="0px" y="0px" viewBox="0 0 512 512" style="enable-background:new 0 0 512 512;" xml:space="preserve">
<path style="fill:#4EBF8C;" d="M155.781,410.995c-58.169,9.3-66.4,61.321-67.23,83.493c-0.205,5.474,4.189,10.012,9.666,10.012  h57.564V410.995z"/>
<path style="opacity:0.1;enable-background:new    ;" d="M147.04,412.813c-24.029,23.52-39.44,55.805-41.056,91.687h49.797v-93.505  C152.728,411.483,149.825,412.1,147.04,412.813z"/>
<path style="fill:#4EBF8C;" d="M356.219,410.995c58.169,9.3,66.4,61.321,67.23,83.493c0.205,5.474-4.189,10.012-9.666,10.012  h-57.564L356.219,410.995L356.219,410.995z"/>
<path style="opacity:0.1;enable-background:new    ;" d="M364.96,412.813c24.029,23.52,39.44,55.805,41.056,91.687h-49.798v-93.505  C359.272,411.483,362.175,412.1,364.96,412.813z"/>
<path style="fill:#4EBF8C;" d="M393.075,504.5c0-75.704-61.37-137.075-137.075-137.075c-75.704,0-137.075,61.371-137.075,137.075  H393.075z"/>
<path style="opacity:0.1;enable-background:new    ;" d="M256,367.425c-39.719,0-75.485,16.9-100.52,43.893  c27.501,22.151,62.458,35.419,100.52,35.419s73.019-13.268,100.52-35.419C331.485,384.325,295.719,367.425,256,367.425z"/>
<circle style="fill:#F6CDB5;" cx="95.62" cy="261.2" r="37.33"/>
<circle style="opacity:0.15;fill:#EC8087;enable-background:new    ;" cx="95.62" cy="261.2" r="37.33"/>
<path style="opacity:0.07;enable-background:new    ;" d="M95.625,223.867c-3.051,0-6.013,0.374-8.851,1.065  c-2.694,11.653-4.118,23.793-4.118,36.264c0,12.472,1.424,24.611,4.118,36.265c2.838,0.691,5.8,1.065,8.851,1.065  c20.616,0,37.329-16.713,37.329-37.33C132.954,240.58,116.241,223.867,95.625,223.867z"/>
<circle style="fill:#F6CDB5;" cx="416.37" cy="261.2" r="37.33"/>
<circle style="opacity:0.15;fill:#EC8087;enable-background:new    ;" cx="416.37" cy="261.2" r="37.33"/>
<path style="opacity:0.07;enable-background:new    ;" d="M416.375,223.867c3.051,0,6.012,0.374,8.851,1.065  c2.694,11.653,4.118,23.793,4.118,36.264c0,12.472-1.424,24.611-4.118,36.265c-2.838,0.691-5.8,1.065-8.851,1.065  c-20.616,0-37.329-16.713-37.329-37.33C379.046,240.58,395.759,223.867,416.375,223.867z"/>
<circle style="fill:#F6CDB5;" cx="256" cy="261.2" r="160.37"/>
<path style="fill:#394049;" d="M256,100.821c-76.893,0-141.135,54.118-156.744,126.341c37.655,2.392,83.125-14.536,104.4-67.275  c13.61,34.026,112.404,83.988,206.68,57.57C391.297,150.143,329.409,100.821,256,100.821z"/>
<g>
	<path style="fill:#EC8087;" d="M171.852,299.841h-26.181c-4.143,0-7.5-3.357-7.5-7.5s3.357-7.5,7.5-7.5h26.181   c4.143,0,7.5,3.357,7.5,7.5C179.352,296.483,175.994,299.841,171.852,299.841z"/>
	<path style="fill:#EC8087;" d="M366.322,299.841h-26.18c-4.143,0-7.5-3.357-7.5-7.5s3.357-7.5,7.5-7.5h26.18   c4.143,0,7.5,3.357,7.5,7.5C373.822,296.483,370.465,299.841,366.322,299.841z"/>
	<path style="fill:#EC8087;" d="M366.48,140.702L262.229,10.492c-3.194-3.99-9.263-3.99-12.457,0L145.52,140.702   c-2.111,2.637-0.234,6.545,3.144,6.545h214.671C366.714,147.247,368.591,143.339,366.48,140.702z"/>
</g>
<path style="fill:#FFFFFF;" d="M287.551,42.12l-72.129,11.275L200.725,71.75l98.252-15.358L287.551,42.12z M329.782,94.866  l-168.675,26.368L146.41,139.59l194.799-30.451L329.782,94.866z"/>
<path d="M417.797,305.989c24.063-0.755,43.408-20.551,43.408-44.793c0-24.214-19.3-43.992-43.324-44.791  c-7.582-27.641-22.21-52.915-43.017-73.749c-0.113-2.37-0.967-4.69-2.53-6.641L268.083,5.805C265.129,2.116,260.726,0,256,0  s-9.129,2.116-12.083,5.805l-104.251,130.21c-1.562,1.951-2.416,4.27-2.529,6.64c-20.807,20.835-35.435,46.108-43.018,73.751  c-24.024,0.799-43.324,20.577-43.324,44.791c0,24.242,19.345,44.038,43.408,44.793c10.385,37.466,33.459,69.709,64.291,91.784  c-2.234,2.038-4.396,4.135-6.485,6.291c-26.237,4.838-45.721,18.335-57.897,40.202c-9.911,17.798-12.57,36.982-13.056,49.94  c-0.176,4.696,1.523,9.146,4.785,12.532C89.11,510.132,93.505,512,98.218,512h315.564c4.713,0,9.107-1.868,12.376-5.262  c3.262-3.386,4.961-7.836,4.785-12.531c-0.485-12.959-3.145-32.143-13.056-49.941c-12.176-21.866-31.66-35.363-57.897-40.202  c-2.089-2.156-4.251-4.253-6.485-6.291C384.338,375.698,407.412,343.455,417.797,305.989z M421.334,231.787  c14.095,2.369,24.871,14.651,24.871,29.409c0,14.773-10.797,27.065-24.914,29.417c1.696-9.554,2.583-19.383,2.583-29.417  C423.875,251.219,423.013,241.39,421.334,231.787z M65.795,261.196c0-14.758,10.776-27.04,24.871-29.409  c-1.679,9.603-2.541,19.432-2.541,29.409c0,10.033,0.888,19.863,2.583,29.417C76.592,288.261,65.795,275.97,65.795,261.196z   M365.507,154.539c16.205,16.604,28.18,36.207,35.389,57.593c-51.402,12.173-97.906,0.493-121.66-7.869  c-27.889-9.817-61.258-28.764-68.616-47.162c-0.358-0.896-0.891-1.68-1.529-2.354h154.245  C364.076,154.747,364.801,154.672,365.507,154.539z M255.626,15.18C255.669,15.126,255.77,15,256,15c0.23,0,0.331,0.126,0.374,0.18  l99.734,124.567H155.893L255.626,15.18z M146.494,154.54c0.706,0.133,1.43,0.208,2.17,0.208h49.558  c-0.633,0.669-1.163,1.446-1.521,2.334c-9.189,22.776-23.581,39.794-42.776,50.579c-13.424,7.542-29.191,11.749-45.185,12.169  C115.532,195.448,128.363,173.115,146.494,154.54z M98.218,497c-0.809,0-1.332-0.418-1.572-0.668  c-0.289-0.299-0.627-0.813-0.599-1.564c0.347-9.267,2.259-27.202,11.17-43.205c6.617-11.883,15.98-20.73,27.927-26.494  c-14.002,21.239-22.194,45.942-23.52,71.932H98.218V497z M404.783,451.563c8.911,16.003,10.823,33.939,11.17,43.206  c0.028,0.75-0.31,1.265-0.599,1.563c-0.24,0.25-0.764,0.668-1.572,0.668h-13.407c-1.325-25.99-9.518-50.693-23.52-71.932  C388.804,430.833,398.166,439.679,404.783,451.563z M385.362,497H126.638c2.003-35.195,18.074-67.704,44.919-90.763  c24.822,14.507,53.676,22.835,84.443,22.835s59.621-8.327,84.443-22.835C367.288,429.296,383.359,461.805,385.362,497z M256,414.071  c-84.296,0-152.875-68.579-152.875-152.875c0-8.927,0.761-17.722,2.238-26.321c0.294,0.002,0.583,0.007,0.881,0.007  c15.021,0,34.941-2.859,55.028-14.145c18.414-10.347,32.961-25.511,43.379-45.189c13.322,16.104,38.778,32.013,69.604,42.863  c25.436,8.955,75.362,21.466,130.725,8.167c2.572,11.206,3.894,22.798,3.894,34.617C408.875,345.492,340.296,414.071,256,414.071z   M276.792,278.072c-3.326-2.468-8.024-1.771-10.492,1.555c-2.458,3.313-6.212,5.214-10.3,5.214c-4.088,0-7.842-1.9-10.3-5.214  c-2.468-3.326-7.166-4.023-10.492-1.555c-3.326,2.468-4.022,7.165-1.555,10.492c5.238,7.06,13.593,11.276,22.347,11.276  s17.108-4.216,22.347-11.276C280.815,285.237,280.118,280.54,276.792,278.072z M158.761,238.441c-4.143,0-7.5,3.357-7.5,7.5v19.477  c0,4.142,3.357,7.5,7.5,7.5s7.5-3.358,7.5-7.5v-19.477C166.261,241.799,162.903,238.441,158.761,238.441z M353.239,238.441  c-4.143,0-7.5,3.357-7.5,7.5v19.477c0,4.142,3.357,7.5,7.5,7.5s7.5-3.358,7.5-7.5v-19.477  C360.739,241.799,357.382,238.441,353.239,238.441z"/>
<g>
</g>
<g>
</g>
<g>
</g>
<g>
</g>
<g>
</g>
<g>
</g>
<g>
</g>
<g>
</g>
<g>
</g>
<g>
</g>
<g>
</g>
<g>
</g>
<g>
</g>
<g>
</g>
<g>
</g>
</svg>
