<?xml version="1.0" encoding="iso-8859-1"?>
<!-- Generator: Adobe Illustrator 19.0.0, SVG Export Plug-In . SVG Version: 6.00 Build 0)  -->
<svg xmlns="http://www.w3.org/2000/svg" xmlns:xlink="http://www.w3.org/1999/xlink" version="1.1" id="Layer_1" x="0px" y="0px" viewBox="0 0 512.001 512.001" style="enable-background:new 0 0 512.001 512.001;" xml:space="preserve">
<path d="M281.199,388.193c0.883,0,1.766,0,2.65,0c0.811,0,1.5-0.689,1.5-1.5c0-0.814-0.686-1.5-1.5-1.5c-0.883,0-1.766,0-2.65,0  c-0.811,0-1.5,0.689-1.5,1.5C279.699,387.507,280.386,388.193,281.199,388.193L281.199,388.193z"/>
<circle style="fill:#F6CDB5;" cx="98.331" cy="216.09" r="34.28"/>
<circle style="opacity:0.15;fill:#EC8087;enable-background:new    ;" cx="98.331" cy="216.09" r="34.28"/>
<path style="opacity:0.07;enable-background:new    ;" d="M98.334,181.809c-4.083,0-7.998,0.717-11.63,2.027  c-0.002,0.324-0.012,0.646-0.012,0.97v63.538c3.635,1.313,7.554,2.031,11.642,2.031c18.934,0,34.283-15.349,34.283-34.283  S117.268,181.809,98.334,181.809z"/>
<circle style="fill:#F6CDB5;" cx="413.671" cy="216.09" r="34.28"/>
<circle style="opacity:0.15;fill:#EC8087;enable-background:new    ;" cx="413.671" cy="216.09" r="34.28"/>
<path style="opacity:0.07;enable-background:new    ;" d="M413.668,181.809c4.083,0,7.998,0.717,11.63,2.027  c0.002,0.324,0.012,0.646,0.012,0.97v63.538c-3.635,1.313-7.554,2.031-11.642,2.031c-18.934,0-34.283-15.349-34.283-34.283  S394.734,181.809,413.668,181.809z"/>
<path style="fill:#4DB1E0;" d="M129.71,386.669c-73.303,11.72-83.674,77.274-84.72,105.214c-0.258,6.898,5.278,12.617,12.181,12.617  h72.54L129.71,386.669L129.71,386.669z"/>
<path style="opacity:0.2;enable-background:new    ;" d="M118.695,388.96c-30.281,29.639-49.7,70.323-51.737,115.54h62.753V386.669  C125.862,387.284,122.204,388.061,118.695,388.96z"/>
<path style="fill:#4DB1E0;" d="M382.292,386.669c73.303,11.72,83.674,77.274,84.72,105.214c0.258,6.898-5.278,12.617-12.181,12.617  h-72.54V386.669H382.292z"/>
<path style="opacity:0.2;enable-background:new    ;" d="M393.307,388.96c30.281,29.639,49.7,70.323,51.737,115.54h-62.753V386.669  C386.14,387.284,389.798,388.061,393.307,388.96z"/>
<path style="fill:#4DB1E0;" d="M428.736,504.5c0-95.399-77.336-172.736-172.736-172.736S83.265,409.101,83.265,504.5H428.736z"/>
<path style="fill:#F6D83E;" d="M406.931,420.452h-301.86c-2.865,5.134-5.478,10.426-7.817,15.866h317.494  C412.409,430.878,409.796,425.585,406.931,420.452z M423.657,462.799H88.345c-1.289,5.201-2.349,10.491-3.155,15.866h341.622  C426.006,473.29,424.946,468,423.657,462.799z"/>
<path style="opacity:0.1;enable-background:new    ;" d="M256.001,331.764c-44.102,0-84.336,16.536-114.861,43.736  c28.891,30.326,69.669,49.226,114.861,49.226l0,0c45.192,0,85.97-18.9,114.861-49.226  C340.337,348.301,300.103,331.764,256.001,331.764z"/>
<path style="fill:#F6CDB5;" d="M256.001,15.927L256.001,15.927c-87.603,0-158.619,71.016-158.619,158.619v66.242  c0,87.603,71.016,158.619,158.619,158.619l0,0c87.603,0,158.619-71.016,158.619-158.619v-66.242  C414.62,86.942,343.604,15.927,256.001,15.927z"/>
<path style="fill:#E8E8E8;" d="M282.281,7.5h-52.56c-73.089,0-132.339,59.25-132.339,132.339v8.731H414.62v-8.731  C414.62,66.75,355.37,7.5,282.281,7.5z"/>
<path style="fill:#F6D83E;" d="M417.401,151.896h-322.8c-6.101,0-11.047-4.946-11.047-11.047v-29.471  c0-6.101,4.946-11.047,11.047-11.047h322.8c6.101,0,11.047,4.946,11.047,11.047v29.471  C428.449,146.951,423.502,151.896,417.401,151.896z"/>
<g style="opacity:0.1;">
	<rect x="248.501" y="100.33" width="15" height="51.565"/>
	<rect x="204.151" y="100.33" width="15" height="51.565"/>
	<rect x="159.791" y="100.33" width="15" height="51.565"/>
	<rect x="115.431" y="100.33" width="15" height="51.565"/>
	<rect x="292.861" y="100.33" width="15" height="51.565"/>
	<rect x="337.211" y="100.33" width="15" height="51.565"/>
	<rect x="381.561" y="100.33" width="15" height="51.565"/>
</g>
<g>
	<path style="fill:#EC8087;" d="M183.306,285.331h-34.641c-4.142,0-7.5-3.357-7.5-7.5s3.358-7.5,7.5-7.5h34.641   c4.142,0,7.5,3.357,7.5,7.5S187.448,285.331,183.306,285.331z"/>
	<path style="fill:#EC8087;" d="M363.336,285.331h-34.641c-4.142,0-7.5-3.357-7.5-7.5s3.358-7.5,7.5-7.5h34.641   c4.142,0,7.5,3.357,7.5,7.5S367.479,285.331,363.336,285.331z"/>
	<rect x="314.611" y="151.9" style="fill:#EC8087;" width="100.01" height="63.53"/>
	<rect x="97.381" y="151.9" style="fill:#EC8087;" width="100.01" height="63.53"/>
</g>
<path style="fill:#4DB1E0;" d="M345.926,151.896H167.012c-28.616,0-52.488,23.419-51.916,52.029  c0.554,27.681,23.166,49.95,50.979,49.95c22.025,0,40.788-13.965,47.919-33.522c3.826-10.494,13.816-17.467,24.985-17.467h34.189  c11.193,0,21.025,7.111,24.892,17.615c7.562,20.541,27.968,34.87,51.479,33.249c25.457-1.755,45.495-21.793,47.25-47.25  C398.844,176.705,375.282,151.896,345.926,151.896z"/>
<g>
	<path style="opacity:0.2;fill:#FFFFFF;enable-background:new    ;" d="M230.461,151.896l-93.11,93.11   c8.181,5.59,18.068,8.868,28.725,8.868c22.025,0,40.788-13.964,47.919-33.522c3.826-10.494,13.816-17.467,24.985-17.467h8.741   l50.989-50.989H230.461z"/>
	<path style="opacity:0.2;fill:#FFFFFF;enable-background:new    ;" d="M381.419,166.281l-72.092,72.092   c10.039,10.352,24.423,16.465,40.214,15.377c25.457-1.755,45.495-21.793,47.25-47.25   C397.879,190.709,391.77,176.32,381.419,166.281z"/>
</g>
<path d="M256.002,30.117c-4.142,0-7.5,3.357-7.5,7.5v34.321c0,4.143,3.358,7.5,7.5,7.5c4.142,0,7.5-3.357,7.5-7.5V37.617  C263.501,33.475,260.144,30.117,256.002,30.117z M256.002,287.873c9.632,0,18.825-4.64,24.591-12.411  c2.468-3.326,1.772-8.023-1.555-10.492c-3.325-2.466-8.023-1.772-10.492,1.555c-2.993,4.034-7.565,6.349-12.544,6.349  c-4.979,0-9.551-2.313-12.544-6.349c-2.468-3.326-7.164-4.022-10.492-1.555c-3.327,2.468-4.022,7.165-1.555,10.492  C237.176,283.233,246.369,287.873,256.002,287.873z M458.301,429.544c-15.158-27.221-39.484-43.98-72.319-49.851  c-5.577-5.82-11.568-11.289-17.947-16.361c29.436-26.934,49.168-64.302,53.28-106.188c19.349-3.636,34.137-20.784,34.137-41.052  c0-20.292-14.151-37.045-33.331-40.917v-16.409c7.944-2.095,13.828-9.322,13.828-17.915v-29.472c0-10.227-8.32-18.547-18.547-18.547  h-3.388c-9.204-25.712-26.14-48.672-48.129-65.096C341.594,9.591,312.684,0,282.281,0h-52.56c-30.403,0-59.312,9.591-83.604,27.735  c-21.989,16.424-38.925,39.384-48.128,65.096h-3.388c-10.227,0-18.547,8.32-18.547,18.547v29.472c0,8.594,5.884,15.82,13.829,17.915  v16.41c-19.182,3.872-33.332,20.625-33.332,40.917c0,20.268,14.787,37.416,34.136,41.052c4.113,41.886,23.844,79.254,53.28,106.188  c-6.379,5.072-12.37,10.541-17.947,16.362c-32.835,5.87-57.161,22.629-72.319,49.851c-12.302,22.091-15.603,45.941-16.206,62.059  c-0.202,5.382,1.746,10.483,5.485,14.365c3.748,3.89,8.787,6.032,14.19,6.032h397.661c5.404,0,10.443-2.143,14.191-6.033  c3.738-3.881,5.685-8.983,5.484-14.364C473.903,475.484,470.602,451.635,458.301,429.544z M422.12,240.788V190.66  c10.725,3.507,18.331,13.52,18.331,25.432c0,11.724-7.719,21.821-18.34,25.392C422.112,241.251,422.12,241.02,422.12,240.788z   M71.551,216.092c0-11.912,7.606-21.925,18.331-25.432v50.128c0,0.232,0.008,0.463,0.009,0.695  C79.27,237.912,71.551,227.815,71.551,216.092z M407.12,207.929h-2.931c0.026-0.305,0.062-0.606,0.083-0.913  c1.132-16.418-4.402-32.056-15.583-44.033c-1.174-1.257-2.409-2.445-3.681-3.586h22.112V207.929z M107.816,207.929h-2.934v-48.532  h22.603c-1.092,0.96-2.162,1.948-3.185,2.991c-11.082,11.307-17.014,26.111-16.703,41.688  C107.624,205.368,107.707,206.651,107.816,207.929z M135.013,172.888c8.404-8.573,20.068-13.491,31.999-13.491h178.914  c12.186,0,23.479,4.908,31.799,13.821c8.313,8.905,12.426,20.542,11.583,32.767c-1.504,21.837-18.445,38.778-40.282,40.283  c-19.539,1.353-37.186-10.05-43.926-28.357c-4.96-13.473-17.792-22.525-31.931-22.525H238.98c-14.274,0-27.147,9.001-32.032,22.398  c-6.235,17.102-22.661,28.592-40.873,28.592c-23.506,0-43.011-19.11-43.48-42.6C122.365,192.262,126.775,181.292,135.013,172.888z   M155.093,39.753C176.773,23.56,202.578,15,229.721,15h52.561c27.143,0,52.948,8.56,74.628,24.753  c18.188,13.586,32.495,32.175,41.036,53.078h-283.89C122.598,71.928,136.905,53.338,155.093,39.753z M91.053,140.85v-29.472  c0-1.956,1.591-3.547,3.547-3.547h322.801c1.956,0,3.547,1.591,3.547,3.547v29.472c0,1.956-1.591,3.547-3.547,3.547h-322.8  C92.645,144.396,91.053,142.806,91.053,140.85z M104.882,240.788v-17.859h6.229c2.947,8.096,7.679,15.502,14,21.705  c11.001,10.796,25.55,16.741,40.965,16.741c24.49,0,46.579-15.453,54.965-38.453c2.734-7.498,9.943-12.536,17.939-12.536h34.189  c7.881,0,15.057,5.107,17.854,12.706c8.923,24.237,33.185,39.92,59.033,38.141c23.815-1.642,43.301-16.927,50.915-38.304h6.149  v17.859c0,83.327-67.792,151.119-151.119,151.119S104.882,324.115,104.882,240.788z M57.17,497c-1.291,0-2.493-0.511-3.387-1.439  c-0.885-0.919-1.346-2.126-1.299-3.398c0.444-11.852,2.895-34.8,14.322-55.321c9.72-17.455,23.991-29.854,42.562-37.05  C89.247,428.011,77.419,461.758,75.942,497H57.17z M90.937,497c2.226-48.667,26.012-94.171,64.813-123.845  c27.882,21.169,62.623,33.753,100.251,33.753s72.368-12.583,100.251-33.752c38.801,29.674,62.588,75.178,64.814,123.845H90.937V497z   M458.219,495.561c-0.894,0.928-2.097,1.439-3.388,1.439H436.06c-1.477-35.242-13.305-68.99-33.426-97.209  c18.571,7.197,32.842,19.596,42.562,37.051c11.428,20.522,13.878,43.469,14.321,55.322  C459.565,493.435,459.104,494.643,458.219,495.561z M202.948,31.286c-20.232,12.848-24.663,33.701-24.663,40.652  c0,4.143,3.358,7.5,7.5,7.5s7.5-3.357,7.5-7.5c0-0.167,1.04-17.408,17.704-27.99c3.497-2.22,4.531-6.854,2.311-10.352  C211.079,30.1,206.444,29.063,202.948,31.286z M309.055,31.286c-3.498-2.222-8.132-1.187-10.352,2.311  c-2.221,3.497-1.186,8.132,2.311,10.352c16.664,10.582,17.704,27.823,17.704,27.99c0,4.143,3.357,7.5,7.5,7.5s7.5-3.357,7.5-7.5  C333.718,64.987,329.287,44.134,309.055,31.286z"/>
<g>
</g>
<g>
</g>
<g>
</g>
<g>
</g>
<g>
</g>
<g>
</g>
<g>
</g>
<g>
</g>
<g>
</g>
<g>
</g>
<g>
</g>
<g>
</g>
<g>
</g>
<g>
</g>
<g>
</g>
</svg>
