<?xml version="1.0" encoding="iso-8859-1"?>
<!-- Generator: Adobe Illustrator 19.0.0, SVG Export Plug-In . SVG Version: 6.00 Build 0)  -->
<svg xmlns="http://www.w3.org/2000/svg" xmlns:xlink="http://www.w3.org/1999/xlink" version="1.1" id="Layer_1" x="0px" y="0px" viewBox="0 0 512 512" style="enable-background:new 0 0 512 512;" xml:space="preserve">
<path style="fill:#E36566;" d="M280.922,100.081V76.173c0-10.382,8.446-18.829,18.829-18.829c5.342,0,10.274,2.171,13.887,6.115  c9.3,10.146,25.064,10.833,35.212,1.536c10.147-9.3,10.835-25.064,1.536-35.212C337.408,15.622,318.953,7.5,299.751,7.5  c-16.611,0-31.862,5.931-43.751,15.783C244.111,13.431,228.86,7.5,212.249,7.5c-19.202,0-37.658,8.122-50.635,22.283  c-9.299,10.148-8.611,25.912,1.536,35.212c10.148,9.299,25.912,8.612,35.212-1.536c3.613-3.944,8.545-6.115,13.887-6.115  c10.383,0,18.829,8.446,18.829,18.829v23.908C231.078,100.081,280.922,100.081,280.922,100.081z"/>
<path style="fill:#F6D83E;" d="M156.585,411.744c-57.703,9.226-65.868,60.829-66.691,82.824c-0.203,5.43,4.155,9.932,9.589,9.932  h57.102V411.744z"/>
<path style="opacity:0.1;enable-background:new    ;" d="M147.914,413.548c-23.837,23.332-39.123,55.358-40.727,90.952h49.398  v-92.756C153.556,412.228,150.676,412.841,147.914,413.548z"/>
<path style="fill:#F6D83E;" d="M355.415,411.744c57.703,9.226,65.868,60.829,66.691,82.824c0.203,5.43-4.155,9.932-9.589,9.932  h-57.102L355.415,411.744L355.415,411.744z"/>
<path style="opacity:0.1;enable-background:new    ;" d="M364.086,413.548c23.837,23.332,39.123,55.358,40.727,90.952h-49.398  v-92.756C358.444,412.228,361.324,412.841,364.086,413.548z"/>
<path style="fill:#F6D83E;" d="M391.976,504.5c0-75.097-60.879-135.976-135.976-135.976S120.024,429.402,120.024,504.5H391.976z"/>
<g>
	<path style="fill:#4DB1E0;" d="M177.08,474.107l-17.345,1.936c-1.505,0.168-2.709-1.228-2.322-2.691l4.453-16.875   c0.126-0.479,0.084-0.987-0.121-1.439l-7.201-15.898c-0.625-1.379,0.33-2.955,1.842-3.04l17.425-0.979   c0.495-0.028,0.965-0.225,1.331-0.559l12.895-11.761c1.119-1.02,2.913-0.599,3.461,0.812l6.316,16.27   c0.179,0.462,0.513,0.848,0.943,1.093l15.17,8.629c1.316,0.749,1.47,2.585,0.297,3.543l-13.521,11.034   c-0.384,0.313-0.648,0.749-0.748,1.235l-3.519,17.094c-0.305,1.483-2.004,2.197-3.277,1.377l-14.673-9.45   C178.069,474.168,177.573,474.052,177.08,474.107z"/>
	<path style="fill:#4DB1E0;" d="M359.45,416.261l-8.221,5.343c-0.416,0.27-0.912,0.389-1.404,0.336l-17.353-1.864   c-1.505-0.162-2.704,1.239-2.311,2.701l4.523,16.856c0.129,0.479,0.088,0.987-0.115,1.439L327.434,457   c-0.619,1.382,0.342,2.954,1.855,3.033l17.428,0.907c0.495,0.026,0.966,0.221,1.334,0.554l12.943,11.707   c1.123,1.016,2.915,0.587,3.457-0.827l6.249-16.295c0.177-0.463,0.509-0.85,0.939-1.097l8.906-5.115   C375.161,437.613,368.025,426.306,359.45,416.261z"/>
	<path style="fill:#4DB1E0;" d="M316.651,487.343l-16.74-4.935c-0.475-0.14-0.888-0.44-1.168-0.849l-9.866-14.396   c-0.856-1.249-2.699-1.249-3.555,0l-9.866,14.396c-0.28,0.409-0.693,0.709-1.168,0.849l-16.74,4.935   c-1.452,0.428-2.022,2.181-1.099,3.381l10.599,13.776h40.102l10.599-13.776C318.672,489.524,318.103,487.771,316.651,487.343z"/>
</g>
<path style="opacity:0.1;enable-background:new    ;" d="M256,368.524c-39.4,0-74.88,16.764-99.714,43.541  C183.567,434.039,218.244,447.2,256,447.2s72.433-13.161,99.714-35.135C330.88,385.288,295.401,368.524,256,368.524z"/>
<circle style="fill:#F6CDB5;" cx="96.91" cy="263.15" r="37.03"/>
<circle style="opacity:0.15;fill:#EC8087;enable-background:new    ;" cx="96.91" cy="263.15" r="37.03"/>
<path style="opacity:0.07;enable-background:new    ;" d="M96.911,226.117c-3.026,0-5.964,0.371-8.78,1.056  c-2.672,11.56-4.085,23.602-4.085,35.974c0,12.372,1.413,24.414,4.085,35.974c2.815,0.685,5.754,1.056,8.78,1.056  c20.451,0,37.03-16.579,37.03-37.03C133.941,242.696,117.362,226.117,96.911,226.117z"/>
<circle style="fill:#F6CDB5;" cx="415.09" cy="263.15" r="37.03"/>
<circle style="opacity:0.15;fill:#EC8087;enable-background:new    ;" cx="415.09" cy="263.15" r="37.03"/>
<path style="opacity:0.07;enable-background:new    ;" d="M415.089,226.117c3.026,0,5.964,0.371,8.78,1.056  c2.672,11.56,4.085,23.602,4.085,35.974c0,12.372-1.413,24.414-4.085,35.974c-2.816,0.685-5.754,1.056-8.78,1.056  c-20.451,0-37.03-16.579-37.03-37.03S394.638,226.117,415.089,226.117z"/>
<circle style="fill:#F6CDB5;" cx="256" cy="263.15" r="159.09"/>
<g>
	<path style="fill:#EC8087;" d="M172.526,287.91h-25.97c-4.142,0-7.5-3.357-7.5-7.5s3.358-7.5,7.5-7.5h25.97   c4.142,0,7.5,3.357,7.5,7.5S176.668,287.91,172.526,287.91z"/>
	<path style="fill:#EC8087;" d="M365.438,287.91h-25.97c-4.142,0-7.5-3.357-7.5-7.5s3.358-7.5,7.5-7.5h25.97   c4.142,0,7.5,3.357,7.5,7.5S369.58,287.91,365.438,287.91z"/>
</g>
<path style="fill:#E36566;" d="M256,104.058c-76.976,0-141.18,54.671-155.91,127.301l79.654-24.163  c17.599-5.339,34.033-13.951,48.438-25.384l21.408-16.99c3.754-2.979,9.066-2.979,12.82,0l21.408,16.99  c14.405,11.433,30.839,20.045,48.438,25.384l79.654,24.163C397.18,158.728,332.976,104.058,256,104.058z"/>
<path style="opacity:0.1;enable-background:new    ;" d="M173.384,161.803c-17.253,7.623-35.478,11.979-50.55,14.288  c-3.608,5.508-6.884,11.251-9.799,17.205c17.976-1.803,43.23-6.585,66.761-16.981c36.106-15.952,58.438-40.665,65.183-71.879  c-5.711,0.391-11.339,1.083-16.869,2.061C221.148,130.241,202.804,148.806,173.384,161.803z M389.166,176.091  c-15.072-2.309-33.297-6.665-50.55-14.288c-29.42-12.997-47.764-31.563-54.726-55.306c-5.53-0.978-11.158-1.67-16.869-2.061  c6.744,31.215,29.077,55.927,65.183,71.879c23.53,10.396,48.785,15.178,66.761,16.981  C396.05,187.343,392.774,181.599,389.166,176.091z"/>
<path style="fill:#4DB1E0;" d="M293.794,83.723h-75.588c-5.187,0-9.392,4.205-9.392,9.392v13.931c0,5.187,4.205,9.392,9.392,9.392  h75.588c5.187,0,9.392-4.205,9.392-9.392V93.115C303.186,87.928,298.981,83.723,293.794,83.723z"/>
<path d="M159.541,226.883c-4.142,0-7.5,3.357-7.5,7.5v19.32c0,4.143,3.358,7.5,7.5,7.5s7.5-3.357,7.5-7.5v-19.32  C167.041,230.24,163.683,226.883,159.541,226.883z M416.547,307.64c23.881-0.773,43.073-20.427,43.073-44.492  c0-24.044-19.159-43.687-43.011-44.492c-5.495-19.926-14.715-38.704-27.43-55.594c-19.83-26.343-47.519-46.511-78.493-57.304V93.115  c0-9.314-7.578-16.892-16.892-16.892h-5.372v-0.051c0-6.247,5.082-11.329,11.329-11.329c3.261,0,6.151,1.272,8.358,3.683  c12.079,13.178,32.627,14.073,45.808,1.998c13.179-12.079,14.076-32.629,1.998-45.81C341.521,9.008,321.049,0,299.751,0  C284.087,0,268.767,4.884,256,13.852C243.233,4.884,227.912,0,212.249,0c-21.298,0-41.769,9.008-56.165,24.715  c-12.078,13.181-11.181,33.73,1.999,45.81c13.181,12.079,33.729,11.182,45.81-2c2.205-2.408,5.095-3.681,8.356-3.681  c6.247,0,11.329,5.082,11.329,11.329v0.051h-5.372c-9.314,0-16.892,7.577-16.892,16.892v12.642  c-30.974,10.793-58.663,30.961-78.493,57.304c-12.714,16.89-21.935,35.669-27.43,55.594c-23.852,0.805-43.011,20.447-43.011,44.492  c0,24.065,19.192,43.719,43.073,44.492c10.304,37.137,33.173,69.098,63.728,90.995c-2.193,2.002-4.316,4.062-6.368,6.179  c-26.035,4.805-45.371,18.203-57.456,39.905c-9.837,17.667-12.476,36.707-12.957,49.569c-0.175,4.674,1.517,9.105,4.763,12.475  c3.253,3.377,7.629,5.237,12.32,5.237h313.034c4.691,0,9.067-1.86,12.32-5.237c3.247-3.37,4.938-7.801,4.763-12.475  c-0.481-12.862-3.12-31.902-12.958-49.569c-12.085-21.702-31.42-35.1-57.455-39.905c-2.052-2.117-4.175-4.177-6.368-6.179  C383.374,376.738,406.242,344.776,416.547,307.64z M420.069,234.046c13.919,2.375,24.55,14.516,24.55,29.102  c0,14.595-10.646,26.743-24.58,29.106c1.673-9.454,2.549-19.18,2.549-29.106C422.589,253.287,421.736,243.563,420.069,234.046z   M67.38,263.147c0-14.585,10.631-26.727,24.55-29.102c-1.667,9.518-2.52,19.242-2.52,29.102c0,9.927,0.877,19.652,2.549,29.106  C78.027,289.891,67.38,277.742,67.38,263.147z M212.249,49.844c-7.472,0-14.368,3.036-19.417,8.548  c-6.49,7.081-17.534,7.563-24.615,1.074c-7.083-6.49-7.564-17.533-1.074-24.616C178.705,22.235,195.145,15,212.249,15  c14.187,0,28.025,4.992,38.966,14.058c2.775,2.299,6.795,2.299,9.57,0C271.725,19.992,285.564,15,299.751,15  c17.104,0,33.545,7.235,45.105,19.849c6.49,7.083,6.008,18.127-1.073,24.616c-7.083,6.49-18.126,6.006-24.615-1.071  c-5.05-5.514-11.946-8.55-19.418-8.55c-14.518,0-26.329,11.812-26.329,26.329v0.051h-34.844v-0.051  C238.578,61.655,226.767,49.844,212.249,49.844z M216.314,93.115c0-1.043,0.849-1.892,1.892-1.892h75.588  c1.043,0,1.892,0.849,1.892,1.892v13.932c0,1.043-0.849,1.892-1.892,1.892h-75.588c-1.044,0-1.892-0.849-1.892-1.892L216.314,93.115  L216.314,93.115z M134.805,172.083c18.216-24.2,43.713-42.668,72.208-52.419c2.984,2.65,6.897,4.274,11.192,4.274h75.588  c4.295,0,8.208-1.624,11.192-4.274c28.495,9.751,53.992,28.219,72.209,52.419c11.076,14.714,19.24,31.005,24.302,48.28  l-67.064-20.344c-16.767-5.087-32.228-13.189-45.953-24.082l-21.408-16.989c-6.52-5.175-15.626-5.175-22.146-0.001l-21.408,16.99  c-13.725,10.894-29.185,18.995-45.953,24.082L110.5,220.363C115.565,203.087,123.729,186.797,134.805,172.083z M99.483,497  c-0.78,0-1.286-0.403-1.517-0.644c-0.278-0.289-0.604-0.785-0.577-1.508c0.344-9.188,2.24-26.969,11.074-42.832  c6.522-11.714,15.735-20.451,27.484-26.166c-13.814,21.022-21.901,45.45-23.222,71.149H99.483V497z M403.538,452.017  c8.834,15.863,10.73,33.645,11.074,42.832c0.027,0.723-0.299,1.219-0.577,1.508c-0.232,0.24-0.737,0.644-1.517,0.644h-13.242  c-1.32-25.7-9.408-50.128-23.222-71.149C387.803,431.566,397.015,440.303,403.538,452.017z M384.261,497H127.739  c2.001-34.859,17.92-67.054,44.502-89.901c24.623,14.382,53.243,22.637,83.759,22.637s59.135-8.255,83.759-22.637  C366.34,429.946,382.259,462.141,384.261,497z M256,414.736c-83.586,0-151.589-68.003-151.589-151.589  c0-8.782,0.745-17.445,2.198-25.929l75.313-22.846c18.581-5.637,35.713-14.615,50.923-26.686l21.408-16.991  c1.029-0.816,2.466-0.817,3.495,0.001l21.408,16.99c15.21,12.07,32.343,21.049,50.923,26.686l75.313,22.846  c1.453,8.484,2.198,17.147,2.198,25.929C407.589,346.733,339.586,414.736,256,414.736z M276.661,266.207  c-3.326-2.467-8.023-1.772-10.492,1.555c-2.427,3.272-6.134,5.148-10.169,5.148c-4.035,0-7.742-1.877-10.169-5.148  c-2.468-3.326-7.164-4.021-10.492-1.555c-3.327,2.468-4.022,7.165-1.555,10.492c5.208,7.02,13.513,11.211,22.216,11.211  c8.703,0,17.008-4.191,22.216-11.211C280.684,273.372,279.988,268.675,276.661,266.207z M352.459,226.883  c-4.142,0-7.5,3.357-7.5,7.5v19.32c0,4.143,3.358,7.5,7.5,7.5s7.5-3.357,7.5-7.5v-19.32  C359.959,230.24,356.601,226.883,352.459,226.883z"/>
<g>
</g>
<g>
</g>
<g>
</g>
<g>
</g>
<g>
</g>
<g>
</g>
<g>
</g>
<g>
</g>
<g>
</g>
<g>
</g>
<g>
</g>
<g>
</g>
<g>
</g>
<g>
</g>
<g>
</g>
</svg>
