<?xml version="1.0" encoding="iso-8859-1"?>
<!-- Generator: Adobe Illustrator 19.0.0, SVG Export Plug-In . SVG Version: 6.00 Build 0)  -->
<svg xmlns="http://www.w3.org/2000/svg" xmlns:xlink="http://www.w3.org/1999/xlink" version="1.1" id="Layer_1" x="0px" y="0px" viewBox="0 0 512 512" style="enable-background:new 0 0 512 512;" xml:space="preserve">
<path style="fill:#F9D7C3;" d="M133.891,390.571c-70.875,11.332-80.903,74.715-81.915,101.73  c-0.25,6.669,5.104,12.199,11.777,12.199h70.137V390.571H133.891z"/>
<path style="opacity:0.08;enable-background:new    ;" d="M123.24,392.787C93.962,421.444,75.186,460.781,73.216,504.5h60.674  V390.571C130.17,391.166,126.633,391.917,123.24,392.787z"/>
<path style="fill:#F9D7C3;" d="M378.107,390.571c70.875,11.332,80.903,74.715,81.915,101.73c0.25,6.669-5.103,12.199-11.777,12.199  h-70.137V390.571H378.107z"/>
<path style="opacity:0.08;enable-background:new    ;" d="M388.758,392.787c29.278,28.658,48.054,67.994,50.024,111.713h-60.674  V390.571C381.828,391.166,385.365,391.917,388.758,392.787z"/>
<path style="fill:#394049;" d="M423.014,504.5c0-92.24-74.775-167.015-167.015-167.015S88.984,412.26,88.984,504.5H423.014z"/>
<path style="fill:#F9D7C3;" d="M308.299,427.369c0,28.885-23.416,52.3-52.3,52.3c-28.885,0-52.3-23.415-52.3-52.3v-60.971h104.6  V427.369z"/>
<path style="opacity:0.1;enable-background:new    ;" d="M255.999,337.485c-42.641,0-81.543,15.989-111.057,42.288  c27.934,29.322,67.362,47.596,111.057,47.596l0,0c43.696,0,83.123-18.274,111.057-47.596  C337.542,353.474,298.641,337.485,255.999,337.485z"/>
<path style="fill:#8D6A59;" d="M162.515,337.485v118.439c0,2.896-2.348,5.243-5.243,5.243H78.46c-2.896,0-5.243-2.348-5.243-5.243  V138.986c0-64.825,40.765-84.16,60.674-84.16C145.458,27.219,204.532,7.5,256.501,7.5c84.802,0,173.432,59.199,173.432,160.009  v288.415c0,2.896-2.348,5.243-5.243,5.243h-78.811c-2.896,0-5.243-2.348-5.243-5.243V337.485H162.515z"/>
<g>
	<path style="opacity:0.2;fill:#F4C53D;enable-background:new    ;" d="M73.216,366.397h89.298v89.527   c0,2.896-2.348,5.243-5.243,5.243H78.46c-2.896,0-5.243-2.348-5.243-5.243L73.216,366.397L73.216,366.397z"/>
	<path style="opacity:0.2;fill:#F4C53D;enable-background:new    ;" d="M340.635,366.397h89.298v89.527   c0,2.896-2.348,5.243-5.243,5.243h-78.811c-2.896,0-5.243-2.348-5.243-5.243L340.635,366.397L340.635,366.397z"/>
</g>
<path style="fill:#F9D7C3;" d="M255.999,33.199L255.999,33.199c-88.794,0-160.775,71.981-160.775,160.774v49.741  c0,88.793,71.981,160.774,160.775,160.774l0,0c88.793,0,160.774-71.981,160.774-160.774v-49.741  C416.774,105.18,344.793,33.199,255.999,33.199z"/>
<g>
	<path style="fill:#EC8087;" d="M171.363,258.017h-31.514c-4.142,0-7.5-3.357-7.5-7.5s3.358-7.5,7.5-7.5h31.514   c4.142,0,7.5,3.357,7.5,7.5C178.863,254.659,175.505,258.017,171.363,258.017z"/>
	<path style="fill:#EC8087;" d="M372.148,258.017h-31.514c-4.142,0-7.5-3.357-7.5-7.5s3.358-7.5,7.5-7.5h31.514   c4.142,0,7.5,3.357,7.5,7.5C379.648,254.659,376.291,258.017,372.148,258.017z"/>
</g>
<path style="fill:#8D6A59;" d="M381.276,360.465V210.572c0-19.15-13.749-35.536-32.608-38.862l-12.315-2.172  c-40.808-7.197-79.443-23.585-112.98-47.924l-49.52-35.938c-2.197-1.594-5.294-0.892-6.589,1.493l-12.819,23.614  c-12.275,22.611-29.178,42.381-49.607,58.02L89.35,180.66c0,0,12.377-151.794,166.648-151.794  c49.823,0,120.486,21.77,152.368,93.314c22.406,50.279,13.563,123.428,13.563,238.285H381.276z"/>
<path d="M437.433,412.235V167.509C437.433,62.656,345.439,0,256.501,0c-26.518,0-55.331,5.021-79.052,13.774  c-29.344,10.828-42.498,23.725-48.327,33.833c-11.107,1.264-25.821,6.916-38.39,19.739c-20.675,21.094-25.015,50.601-25.015,71.64  v284.095c-17.099,24.418-20.657,53.514-21.235,68.94c-0.197,5.272,1.711,10.27,5.373,14.071c3.67,3.81,8.606,5.908,13.899,5.908  h384.491c5.293,0,10.228-2.099,13.899-5.908c3.662-3.802,5.57-8.799,5.373-14.071C466.807,473.064,461.906,437.988,437.433,412.235z   M81.664,497H63.753c-1.592,0-2.623-0.824-3.096-1.315c-0.469-0.486-1.246-1.536-1.187-3.104c0.322-8.608,1.67-21.967,6.28-35.971  c0.36,6.707,5.914,12.058,12.709,12.058h6.74C83.254,477.983,82.071,487.46,81.664,497z M96.659,497  c0.446-9.558,1.756-19.041,3.889-28.332h56.722c7.027,0,12.744-5.717,12.744-12.744v-67.617c8.296,4.952,17.05,9.208,26.184,12.692  v26.369c0,32.975,26.826,59.801,59.8,59.801s59.8-26.826,59.8-59.801v-26.293c5.924-2.248,11.71-4.832,17.335-7.736v62.584  c0,7.027,5.717,12.744,12.744,12.744h65.571c2.133,9.291,3.444,18.775,3.89,28.332H96.659V497z M255.999,396.989  c-84.516,0-153.274-68.759-153.274-153.274v-49.741c0-4.836,0.236-9.748,0.702-14.645l5.972-4.571  c21.404-16.386,38.778-36.707,51.639-60.397l11.185-20.604l46.747,33.927c34.258,24.862,74.398,41.889,116.083,49.239l12.314,2.172  c15.304,2.699,26.411,15.938,26.411,31.477v131.222C344.52,376.904,301.744,396.989,255.999,396.989z M300.799,405.955v21.414  c0,24.703-20.097,44.801-44.8,44.801s-44.8-20.098-44.8-44.801v-21.444c14.271,3.946,29.292,6.065,44.801,6.065  C271.349,411.989,286.39,409.915,300.799,405.955z M422.433,453.668h-74.298v-69.094c14.559-9.549,27.732-21.426,38.983-35.397  c1.073-1.333,1.659-2.993,1.659-4.704V210.571c0-22.832-16.32-42.282-38.806-46.248l-12.315-2.172  c-39.456-6.958-77.451-23.075-109.877-46.608l-49.52-35.938c-2.794-2.027-6.328-2.75-9.696-1.99  c-3.367,0.764-6.243,2.941-7.889,5.975l-12.819,23.614C136.006,129.03,120,147.751,100.28,162.848l-8.533,6.532  c-1.615,1.236-2.658,3.074-2.891,5.095c-0.751,6.497-1.131,13.058-1.131,19.499v49.741c0,54.927,26.455,103.787,67.29,134.519  v75.434H80.716V138.986c0-62.576,39.379-76.66,53.174-76.66c3.023,0,5.749-1.814,6.917-4.602C150.344,34.965,204.406,15,256.501,15  c41.526,0,82.97,14.745,113.705,40.453c23.826,19.93,52.227,55.549,52.227,112.056L422.433,453.668L422.433,453.668z   M451.34,495.685c-0.473,0.49-1.504,1.315-3.096,1.315h-17.91c-0.41-9.603-1.607-19.141-3.576-28.516  c6.044-0.993,10.675-6.239,10.675-12.561v-18.932c11.786,19.783,14.592,42.196,15.094,55.589  C452.586,494.149,451.809,495.199,451.34,495.685z M155.603,187.165c-4.142,0-7.5,3.358-7.5,7.5v23.444c0,4.143,3.358,7.5,7.5,7.5  s7.5-3.357,7.5-7.5v-23.444C163.103,190.523,159.745,187.165,155.603,187.165z M361.763,129.816  c-17.779,0-40.815-8.47-64.867-23.848c-22.086-14.122-41.917-32.26-53.047-48.52c-2.34-3.418-7.007-4.292-10.426-1.952  c-3.418,2.34-4.292,7.007-1.952,10.425c12.211,17.838,33.648,37.532,57.345,52.685c26.434,16.901,52.34,26.21,72.947,26.21  c4.142,0,7.5-3.357,7.5-7.5C369.263,133.174,365.905,129.816,361.763,129.816z M278.807,235.538  c-3.325-2.466-8.024-1.771-10.492,1.555c-2.938,3.962-7.428,6.233-12.316,6.233s-9.377-2.273-12.316-6.233  c-2.469-3.327-7.166-4.021-10.492-1.555c-3.327,2.468-4.023,7.166-1.555,10.492c5.712,7.699,14.82,12.296,24.363,12.296  s18.651-4.597,24.363-12.296C282.83,242.703,282.133,238.006,278.807,235.538z M349.715,106.862c0.485,0.095,0.968,0.14,1.445,0.14  c3.516,0,6.654-2.484,7.353-6.064c0.793-4.065-1.859-8.004-5.925-8.798c-25.584-4.993-50.971-28.572-56.536-41.977  c-1.588-3.825-5.975-5.641-9.802-4.052c-3.826,1.588-5.64,5.977-4.051,9.802C290.253,75.315,320.838,101.227,349.715,106.862z   M356.395,187.165c-4.142,0-7.5,3.358-7.5,7.5v23.444c0,4.143,3.358,7.5,7.5,7.5s7.5-3.357,7.5-7.5v-23.444  C363.895,190.523,360.538,187.165,356.395,187.165z"/>
<g>
</g>
<g>
</g>
<g>
</g>
<g>
</g>
<g>
</g>
<g>
</g>
<g>
</g>
<g>
</g>
<g>
</g>
<g>
</g>
<g>
</g>
<g>
</g>
<g>
</g>
<g>
</g>
<g>
</g>
</svg>
