<?xml version="1.0" encoding="iso-8859-1"?>
<!-- Generator: Adobe Illustrator 19.0.0, SVG Export Plug-In . SVG Version: 6.00 Build 0)  -->
<svg xmlns="http://www.w3.org/2000/svg" xmlns:xlink="http://www.w3.org/1999/xlink" version="1.1" id="Layer_1" x="0px" y="0px" viewBox="0 0 512.001 512.001" style="enable-background:new 0 0 512.001 512.001;" xml:space="preserve">
<path style="fill:#4DB1E0;" d="M154.117,409.439c-59.137,9.455-67.505,62.341-68.349,84.882c-0.208,5.565,4.258,10.179,9.827,10.179  h58.522V409.439z"/>
<path style="opacity:0.1;enable-background:new    ;" d="M145.23,411.287c-24.429,23.912-40.096,56.734-41.739,93.213h50.626  v-95.061C151.012,409.935,148.061,410.562,145.23,411.287z"/>
<path style="fill:#4DB1E0;" d="M357.889,409.439c59.137,9.455,67.505,62.341,68.349,84.882c0.208,5.565-4.258,10.179-9.827,10.179  h-58.522V409.439z"/>
<path style="opacity:0.1;enable-background:new    ;" d="M366.776,411.287c24.429,23.912,40.096,56.734,41.739,93.213h-50.626  v-95.061C360.993,409.935,363.945,410.562,366.776,411.287z"/>
<path style="fill:#4DB1E0;" d="M395.359,504.5c0-76.964-62.392-139.356-139.356-139.356S116.647,427.536,116.647,504.5H395.359z"/>
<path style="fill:#E8E8E8;" d="M395.359,393.588L395.359,393.588c0,16.281-9.57,31.042-24.434,37.686l-35.697,15.956  c-22.589,10.097-37.133,32.527-37.135,57.27l0,0h-84.178l0,0c-0.002-24.743-14.547-47.173-37.135-57.27l-35.697-15.956  c-14.864-6.644-24.434-21.405-24.434-37.686l0,0c0-21.103,17.108-38.211,38.211-38.211H357.15  C378.251,355.377,395.359,372.484,395.359,393.588z"/>
<g>
	<path style="fill:#394049;" d="M146.851,405.647c-9.402,0-17.55,5.345-21.588,13.159c4.086,5.293,9.462,9.626,15.818,12.467   l26.243,11.73c2.413-3.774,3.818-8.254,3.818-13.066C171.142,416.523,160.267,405.647,146.851,405.647z"/>
	<circle style="fill:#394049;" cx="213.01" cy="409.67" r="24.291"/>
	<path style="fill:#394049;" d="M256.003,444.055c-14.037,0-25.417,11.379-25.417,25.417c0,14.037,11.38,25.417,25.417,25.417   V444.055z"/>
	<path style="fill:#394049;" d="M309.613,429.938c-13.415,0-24.291,10.875-24.291,24.291c0,11.494,7.986,21.117,18.71,23.639   c5.957-12.695,16.103-23.268,29.117-29.664C330.469,437.703,320.948,429.938,309.613,429.938z"/>
	<circle style="fill:#394049;" cx="347.49" cy="392.72" r="24.291"/>
</g>
<circle style="fill:#8D6A59;" cx="92.96" cy="257.15" r="37.951"/>
<path style="opacity:0.07;enable-background:new    ;" d="M92.959,219.197c-3.101,0-6.112,0.381-8.998,1.083  c-2.738,11.847-4.186,24.189-4.186,36.868c0,12.68,1.448,25.021,4.186,36.868c2.886,0.702,5.897,1.082,8.998,1.082  c20.96,0,37.951-16.991,37.951-37.951C130.91,236.188,113.919,219.197,92.959,219.197z"/>
<circle style="fill:#8D6A59;" cx="419.05" cy="257.15" r="37.951"/>
<path style="opacity:0.07;enable-background:new    ;" d="M419.047,219.197c3.101,0,6.113,0.381,8.998,1.083  c2.739,11.847,4.186,24.189,4.186,36.868c0,12.68-1.448,25.021-4.186,36.868c-2.885,0.702-5.897,1.082-8.998,1.082  c-20.96,0-37.951-16.991-37.951-37.951C381.096,236.188,398.087,219.197,419.047,219.197z"/>
<path style="opacity:0.1;enable-background:new    ;" d="M357.147,355.377H154.858c-11.864,0-22.465,5.407-29.474,13.892  c29.735,39.732,77.174,65.447,130.618,65.447c53.445,0,100.883-25.715,130.618-65.447  C379.613,360.784,369.012,355.377,357.147,355.377z"/>
<circle style="fill:#8D6A59;" cx="256" cy="257.15" r="163.04"/>
<g>
	<path style="fill:#EC8087;" d="M170.454,286.377h-26.616c-4.143,0-7.5-3.358-7.5-7.5c0-4.143,3.357-7.5,7.5-7.5h26.616   c4.143,0,7.5,3.357,7.5,7.5C177.954,283.02,174.597,286.377,170.454,286.377z"/>
	<path style="fill:#EC8087;" d="M368.161,286.377h-26.616c-4.143,0-7.5-3.358-7.5-7.5c0-4.143,3.357-7.5,7.5-7.5h26.616   c4.143,0,7.5,3.357,7.5,7.5C375.661,283.02,372.304,286.377,368.161,286.377z"/>
</g>
<g>
	<circle style="fill:#394049;" cx="112.3" cy="203" r="26.542"/>
	<circle style="fill:#394049;" cx="399.701" cy="203" r="26.542"/>
</g>
<path style="fill:#F6D83E;" d="M127.992,157.02c-7.888-13.945-13.309-34.671-14.147-54.092  c-0.732-16.997,1.539-40.736,16.523-57.306c23.475-25.959,61.452-16.869,89.177-4.674L209.82,63.06  c-20.451-8.995-47.722-16.509-61.533-1.235c-16.555,18.307-11.055,62.465,0.732,83.301L127.992,157.02z"/>
<path style="opacity:0.05;enable-background:new    ;" d="M127.992,157.02c-7.888-13.945-13.309-34.671-14.147-54.092  c-0.732-16.997,1.539-40.736,16.523-57.306c23.475-25.959,61.452-16.869,89.177-4.674L209.82,63.06  c-20.451-8.995-47.722-16.509-61.533-1.235c-16.555,18.307-11.055,62.465,0.732,83.301L127.992,157.02z"/>
<path style="fill:#F6D83E;" d="M384.007,157.02l-21.027-11.894c11.787-20.836,17.287-64.994,0.732-83.301  c-13.811-15.273-41.085-7.758-61.533,1.235l-9.726-22.112c27.725-12.195,65.702-21.286,89.177,4.674  c8.27,9.146,17.851,26.513,16.523,57.306C397.316,122.349,391.895,143.075,384.007,157.02z"/>
<path style="opacity:0.05;enable-background:new    ;" d="M384.007,157.02l-21.027-11.894c11.787-20.836,17.287-64.994,0.732-83.301  c-13.811-15.273-41.085-7.758-61.533,1.235l-9.726-22.112c27.725-12.195,65.702-21.286,89.177,4.674  c8.27,9.146,17.851,26.513,16.523,57.306C397.316,122.349,391.895,143.075,384.007,157.02z"/>
<g>
	<circle style="fill:#E36566;" cx="162.08" cy="113.2" r="68.27"/>
	<circle style="fill:#E36566;" cx="349.93" cy="113.2" r="68.27"/>
	<circle style="fill:#E36566;" cx="256" cy="113.2" r="68.27"/>
</g>
<g>
	<path style="fill:#F6D83E;" d="M314.151,161.04l-22.83-7.898c13.153-38.022,14.701-66.146,4.601-83.593   C288.964,57.527,275.891,49.638,256,45.472c-19.891,4.167-32.963,12.055-39.923,24.078c-10.099,17.447-8.551,45.571,4.601,83.593   l-22.83,7.898c-15.767-45.582-16.643-79.468-2.678-103.593c10.792-18.642,30.497-30.807,58.569-36.157L256,20.859l2.261,0.431   c28.072,5.35,47.778,17.515,58.569,36.157C330.794,81.572,329.918,115.458,314.151,161.04z"/>
	<path style="fill:#F6D83E;" d="M409.357,191.789H102.648c-6.03,0-10.919-4.889-10.919-10.919v-26.934   c0-6.03,4.889-10.919,10.919-10.919h306.709c6.03,0,10.919,4.888,10.919,10.919v26.934   C420.276,186.9,415.388,191.789,409.357,191.789z"/>
</g>
<circle style="fill:#4DB1E0;" cx="256" cy="167.4" r="8.148"/>
<circle style="fill:#EC8087;" cx="196.39" cy="167.4" r="8.148"/>
<circle style="fill:#4DB1E0;" cx="136.77" cy="167.4" r="8.148"/>
<circle style="fill:#EC8087;" cx="315.62" cy="167.4" r="8.148"/>
<circle style="fill:#4DB1E0;" cx="375.23" cy="167.4" r="8.148"/>
<circle style="fill:#F6D83E;" cx="256" cy="33.16" r="25.655"/>
<path d="M464.491,257.147c0-20.583-13.574-37.986-32.444-43.568c1.092-3.332,1.691-6.885,1.691-10.577  c0-7.041-2.171-13.835-6.168-19.531c0.121-0.852,0.206-1.716,0.206-2.601v-26.935c0-5.77-2.672-10.924-6.839-14.303  c3.152-8.428,4.752-17.288,4.752-26.435c0-24.492-11.69-46.294-29.772-60.154c-2.466-4.584-5.392-8.769-8.724-12.452  c-19.044-21.059-48.981-24.816-86.741-10.952c-4.022-2.683-8.381-5.096-13.091-7.217C282.891,9.394,270.525,0,256,0  c-14.526,0-26.891,9.394-31.363,22.423c-4.71,2.121-9.069,4.534-13.091,7.217c-37.76-13.864-67.697-10.108-86.74,10.951  c-3.331,3.684-6.258,7.869-8.725,12.454C98,66.905,86.311,88.706,86.311,113.197c0,9.148,1.601,18.009,4.753,26.438  c-4.164,3.38-6.834,8.532-6.834,14.3v26.935c0,0.883,0.084,1.744,0.204,2.594c-4,5.698-6.173,12.495-6.173,19.538  c0,3.692,0.599,7.245,1.691,10.577c-18.869,5.582-32.443,22.985-32.443,43.568c0,24.609,19.662,44.699,44.1,45.417  c6.069,21.941,16.416,42.123,30.094,59.58c-7.96,8.428-12.556,19.718-12.556,31.444c0,8.288,2.113,16.25,5.919,23.259  c-31.27,22.171-36.18,60.835-36.794,77.195c-0.177,4.739,1.538,9.232,4.83,12.649c3.3,3.425,7.736,5.31,12.493,5.31h117.42v-0.059  c0.295,0.035,0.594,0.059,0.898,0.059h84.178c0.305,0,0.603-0.023,0.898-0.059V512h117.42c4.757,0,9.193-1.886,12.493-5.31  c3.292-3.417,5.007-7.909,4.83-12.65c-0.614-16.358-5.524-55.023-36.794-77.194c3.806-7.008,5.919-14.971,5.919-23.258  c0-11.725-4.595-23.016-12.556-31.444c13.678-17.457,24.025-37.639,30.094-59.58C444.832,301.843,464.491,281.754,464.491,257.147z   M423.901,227.094c14.604,2.323,25.59,14.897,25.59,30.053c0,15.139-11.107,27.729-25.598,30.06  c1.743-9.761,2.654-19.806,2.654-30.06C426.547,247.061,425.656,236.973,423.901,227.094z M62.509,257.147  c0-15.158,10.988-27.734,25.596-30.054c-1.755,9.876-2.646,19.964-2.646,30.054c0,10.254,0.911,20.3,2.654,30.061  C73.618,284.88,62.509,272.289,62.509,257.147z M410.689,113.197c0,7.747-1.445,15.23-4.259,22.32h-77.015  c7.485-32.061,6.168-57.677-3.997-77.928c7.684-3.388,16.028-5.162,24.501-5.162C383.428,52.427,410.689,79.688,410.689,113.197z   M352.957,37.504c-1.009-0.04-2.019-0.077-3.038-0.077c-11.351,0-22.522,2.555-32.686,7.42c-1.077-1.336-2.194-2.642-3.372-3.903  C328.956,36.346,342.013,35.2,352.957,37.504z M288.478,39.832c9.513,5.545,16.842,12.703,21.859,21.371  c10.443,18.041,11.643,42.394,3.646,74.314h-9.45c7.87-30.259,7.165-53.685-2.121-69.727c-3.973-6.863-9.698-12.63-17.075-17.218  C286.771,45.858,287.844,42.925,288.478,39.832z M256,15c10.011,0,18.154,8.145,18.154,18.155c0,10.011-8.144,18.154-18.154,18.154  c-10.011,0-18.155-8.144-18.155-18.154S245.989,15,256,15z M236.684,60.076c5.444,3.917,12.113,6.233,19.316,6.233  c7.203,0,13.872-2.316,19.315-6.233c6.358,3.498,11.002,7.852,14.115,13.23c7.613,13.15,7.459,34.067-0.434,62.211h-65.993  c-7.893-28.143-8.047-49.061-0.435-62.212C225.682,67.928,230.326,63.574,236.684,60.076z M223.52,39.833  c0.635,3.092,1.708,6.025,3.141,8.74c-7.377,4.588-13.103,10.355-17.075,17.219c-9.285,16.041-9.99,39.467-2.12,69.726h-9.451  c-7.997-31.92-6.798-56.273,3.644-74.313C206.679,52.536,214.008,45.378,223.52,39.833z M198.139,40.943  c-1.178,1.261-2.295,2.567-3.372,3.903c-10.165-4.864-21.335-7.419-32.686-7.419c-1.022,0-2.034,0.037-3.046,0.077  C169.98,35.198,183.04,36.343,198.139,40.943z M162.081,52.427c8.472,0,16.816,1.775,24.5,5.162  c-10.165,20.251-11.481,45.866-3.996,77.928H105.57c-2.814-7.091-4.259-14.573-4.259-22.32  C101.311,79.688,128.572,52.427,162.081,52.427z M99.229,153.936c0-1.885,1.534-3.418,3.419-3.418h306.709  c1.885,0,3.419,1.533,3.419,3.418v26.935c0,1.885-1.534,3.419-3.419,3.419H102.648c-1.885,0-3.419-1.534-3.419-3.419  C99.229,180.871,99.229,153.936,99.229,153.936z M93.261,203.002c0-1.988,0.326-3.936,0.919-5.793  c2.538,1.321,5.415,2.08,8.468,2.08h28.317c0.241,1.214,0.38,2.452,0.38,3.713c0,10.5-8.542,19.042-19.042,19.042  S93.261,213.502,93.261,203.002z M95.596,497c-0.869,0-1.432-0.449-1.69-0.717c-0.31-0.322-0.674-0.875-0.643-1.681  c1.423-37.986,18.229-56.894,30.919-65.81c1.262,1.211,2.592,2.357,3.986,3.433c-11.226,19.82-17.651,41.95-18.809,64.774  L95.596,497L95.596,497z M124.358,497c1.143-20.245,6.918-39.856,16.887-57.439l32.472,14.515  c17.549,7.845,29.604,24.213,32.176,42.924L124.358,497L124.358,497z M248.503,497h-27.491  c-2.652-24.637-18.224-46.358-41.173-56.617l-35.697-15.957c-12.146-5.428-19.994-17.533-19.994-30.838  c0-7.477,2.639-14.479,7.386-19.986c29.546,31.559,70.915,51.911,116.969,53.915L248.503,497L248.503,497z M290.994,497h-27.491  v-69.483c46.055-2.004,87.424-22.356,116.97-53.915c4.747,5.506,7.386,12.508,7.386,19.986c0,13.305-7.849,25.409-19.994,30.839  l-35.697,15.956C309.218,450.642,293.647,472.363,290.994,497z M306.112,497c2.572-18.711,14.628-35.078,32.176-42.924  l32.472-14.515c9.969,17.582,15.744,37.193,16.887,57.439L306.112,497L306.112,497z M418.743,494.602  c0.03,0.807-0.333,1.359-0.643,1.682c-0.258,0.268-0.82,0.717-1.69,0.717h-13.764c-1.157-22.825-7.583-44.955-18.809-64.775  c1.395-1.075,2.724-2.221,3.986-3.433C400.514,437.708,417.32,456.616,418.743,494.602z M256.003,412.691  c-85.768,0-155.544-69.776-155.544-155.544c0-7.271,0.517-14.538,1.518-21.709c3.259,1.04,6.727,1.606,10.326,1.606  c18.771,0,34.042-15.271,34.042-34.042c0-1.249-0.067-2.487-0.2-3.713h219.71c-0.133,1.226-0.2,2.464-0.2,3.713  c0,18.771,15.271,34.042,34.042,34.042c3.601,0,7.071-0.567,10.332-1.608c1.001,7.174,1.518,14.441,1.518,21.711  C411.547,342.915,341.771,412.691,256.003,412.691z M399.697,222.044c-10.5,0-19.042-8.542-19.042-19.042  c0-1.261,0.139-2.499,0.38-3.713h28.322c3.052,0,5.926-0.758,8.463-2.077c0.593,1.856,0.918,3.803,0.918,5.79  C418.738,213.502,410.197,222.044,399.697,222.044z M157.146,224.205c-4.143,0-7.5,3.357-7.5,7.5v19.8c0,4.143,3.357,7.5,7.5,7.5  s7.5-3.357,7.5-7.5v-19.8C164.646,227.563,161.289,224.205,157.146,224.205z M277.066,264.471  c-3.326-2.467-8.024-1.772-10.492,1.555c-2.523,3.401-6.376,5.352-10.571,5.352s-8.048-1.95-10.571-5.352  c-2.468-3.326-7.166-4.022-10.492-1.555c-3.326,2.468-4.022,7.165-1.555,10.492c5.303,7.148,13.758,11.414,22.618,11.414  c8.86,0,17.315-4.267,22.618-11.414C281.089,271.636,280.392,266.939,277.066,264.471z M354.859,224.205c-4.143,0-7.5,3.357-7.5,7.5  v19.8c0,4.143,3.357,7.5,7.5,7.5s7.5-3.357,7.5-7.5v-19.8C362.359,227.563,359.003,224.205,354.859,224.205z"/>
<g>
</g>
<g>
</g>
<g>
</g>
<g>
</g>
<g>
</g>
<g>
</g>
<g>
</g>
<g>
</g>
<g>
</g>
<g>
</g>
<g>
</g>
<g>
</g>
<g>
</g>
<g>
</g>
<g>
</g>
</svg>
