<?xml version="1.0" encoding="iso-8859-1"?>
<!-- Generator: Adobe Illustrator 19.0.0, SVG Export Plug-In . SVG Version: 6.00 Build 0)  -->
<svg xmlns="http://www.w3.org/2000/svg" xmlns:xlink="http://www.w3.org/1999/xlink" version="1.1" id="Layer_1" x="0px" y="0px" viewBox="0 0 512 512" style="enable-background:new 0 0 512 512;" xml:space="preserve">
<path style="fill:#F2BE89;" d="M132.881,244.797c0,16.495-13.372,29.867-29.867,29.867s-29.867-13.372-29.867-29.867v-17.634  c0-16.495,13.372-29.867,29.867-29.867s29.867,13.372,29.867,29.867V244.797z"/>
<path style="opacity:0.15;fill:#EC8087;enable-background:new    ;" d="M132.881,244.797c0,16.495-13.372,29.867-29.867,29.867  s-29.867-13.372-29.867-29.867v-17.634c0-16.495,13.372-29.867,29.867-29.867s29.867,13.372,29.867,29.867V244.797z"/>
<path style="opacity:0.1;enable-background:new    ;" d="M103.015,197.296c-3.318,0-6.506,0.549-9.487,1.548  c-0.221,3.365-0.345,6.756-0.345,10.177v47.331c0,5.736,0.326,11.395,0.941,16.967c2.808,0.875,5.795,1.346,8.891,1.346  c16.495,0,29.867-13.372,29.867-29.867v-17.634C132.881,210.668,119.51,197.296,103.015,197.296z"/>
<path style="fill:#F2BE89;" d="M379.117,244.797c0,16.495,13.372,29.867,29.867,29.867s29.867-13.372,29.867-29.867v-17.634  c0-16.495-13.372-29.867-29.867-29.867s-29.867,13.372-29.867,29.867V244.797z"/>
<path style="opacity:0.15;fill:#EC8087;enable-background:new    ;" d="M379.117,244.797c0,16.495,13.372,29.867,29.867,29.867  s29.867-13.372,29.867-29.867v-17.634c0-16.495-13.372-29.867-29.867-29.867s-29.867,13.372-29.867,29.867V244.797z"/>
<path style="opacity:0.1;enable-background:new    ;" d="M408.983,197.296c3.318,0,6.505,0.549,9.487,1.548  c0.221,3.365,0.345,6.756,0.345,10.177v47.331c0,5.736-0.326,11.395-0.941,16.967c-2.808,0.875-5.795,1.346-8.891,1.346  c-16.495,0-29.867-13.372-29.867-29.867v-17.634C379.117,210.668,392.488,197.296,408.983,197.296z"/>
<path style="fill:#394049;" d="M139.807,396.092c-67.441,10.782-76.983,71.094-77.945,96.8c-0.237,6.346,4.856,11.608,11.207,11.608  h66.739L139.807,396.092L139.807,396.092z"/>
<path style="opacity:0.3;enable-background:new    ;" d="M129.673,398.2c-27.859,27.269-45.726,64.7-47.6,106.3h57.734V396.092  C136.267,396.658,132.901,397.373,129.673,398.2z"/>
<path style="fill:#394049;" d="M372.191,396.092c67.441,10.782,76.983,71.094,77.945,96.8c0.237,6.346-4.856,11.608-11.207,11.608  H372.19V396.092H372.191z"/>
<path style="opacity:0.3;enable-background:new    ;" d="M382.325,398.2c27.859,27.269,45.726,64.7,47.6,106.3h-57.734V396.092  C375.731,396.658,379.097,397.373,382.325,398.2z"/>
<path style="fill:#394049;" d="M414.921,504.5c0-87.77-71.152-158.922-158.922-158.922S97.077,416.73,97.077,504.5H414.921z"/>
<path style="fill:#4DB1E0;" d="M338.616,322.439h23.917c27.09,0,50.336,19.301,55.316,45.929l0,0  c4.555,24.353-7.299,48.83-29.23,60.355l-110.863,58.261c-13.621,7.158-29.893,7.158-43.514,0l-110.863-58.26  c-21.931-11.525-33.786-36.003-29.231-60.355l0,0c4.981-26.628,28.227-45.929,55.316-45.929h23.917h165.235V322.439z"/>
<path style="fill:#F2BE89;" d="M370.279,354.653L264.072,471.281c-4.333,4.758-11.82,4.758-16.152,0L141.713,354.653H370.279z"/>
<path style="opacity:0.1;enable-background:new    ;" d="M141.713,354.653l53.765,59.04c18.563,8.005,39.022,12.448,60.522,12.448  l0,0c21.495,0,41.951-4.441,60.511-12.443l53.769-59.045H141.713z"/>
<path style="fill:#F2BE89;" d="M255.999,56.036L255.999,56.036c-84.491,0-152.985,68.493-152.985,152.984v47.331  c0,84.491,68.493,152.984,152.984,152.984l0,0c84.491,0,152.984-68.493,152.984-152.984V209.02  C408.984,124.529,340.49,56.036,255.999,56.036z"/>
<path style="fill:#394049;" d="M408.983,153.751c0-37.89-22.796-72.058-57.781-86.607l0,0  c-23.436-9.746-45.376-22.753-65.173-38.638l-20.346-16.325c-5.658-4.54-13.711-4.54-19.37,0l-20.344,16.325  c-19.796,15.884-41.737,28.892-65.173,38.638l0,0c-34.985,14.549-57.781,48.717-57.781,86.607v102.6  c0,84.491,68.493,152.984,152.984,152.984l0,0c84.491,0,152.984-68.493,152.984-152.984V153.751z M383.765,273.591  c-4.315,20.404-13.406,39.495-26.528,55.704l-0.002,0.003c-8.336,10.297-20.876,16.28-34.124,16.28h-39.096  c-3.172,0-6.12-1.634-7.801-4.324l-2.099-3.359c-1.132-1.812-3.119-2.913-5.255-2.913h-25.722c-2.137,0-4.123,1.101-5.256,2.913  l-2.099,3.359c-1.681,2.69-4.629,4.324-7.801,4.324h-39.093c-13.25,0-25.792-5.983-34.129-16.282l0,0  c-13.122-16.21-22.214-35.3-26.529-55.704l-4.498-21.269c-3.477-16.442-2.912-33.483,1.645-49.659l7.046-25.008  c0.565-2.004,1.242-3.968,1.979-5.906c23.015-12.024,42.241-30.135,55.623-52.281c3.524-5.833,16.88-9.652,17.053-9.652h97.837  c0.173,0,0.345,0.001,0.518,0.003c6.729,0.069,12.93,3.659,16.4,9.426c13.387,22.248,32.665,40.44,55.758,52.505  c0.737,1.939,1.415,3.902,1.979,5.906l7.046,25.008c4.558,16.176,5.122,33.216,1.645,49.659L383.765,273.591z"/>
<g>
	<path style="fill:#E36566;" d="M178.966,260.667h-26.795c-4.142,0-7.5-3.357-7.5-7.5c0-4.142,3.357-7.5,7.5-7.5h26.795   c4.142,0,7.5,3.357,7.5,7.5C186.465,257.31,183.108,260.667,178.966,260.667z"/>
	<path style="fill:#E36566;" d="M359.828,260.667h-26.795c-4.142,0-7.5-3.357-7.5-7.5c0-4.142,3.357-7.5,7.5-7.5h26.795   c4.142,0,7.5,3.357,7.5,7.5C367.327,257.31,363.97,260.667,359.828,260.667z"/>
</g>
<g>
	<path style="fill:#FFFFFF;" d="M255.999,440.998c-14.63,0-28.701-2.392-41.848-6.799l33.768,37.082   c4.333,4.758,11.82,4.758,16.153,0l33.766-37.079C284.694,438.607,270.626,440.998,255.999,440.998z"/>
	<path style="fill:#FFFFFF;" d="M171.56,486.904c-4.142,0-7.5-3.357-7.5-7.5v-36.496c0-4.142,3.357-7.5,7.5-7.5   c4.142,0,7.5,3.357,7.5,7.5v36.496C179.059,483.547,175.702,486.904,171.56,486.904z"/>
	<path style="fill:#FFFFFF;" d="M340.438,486.904c-4.142,0-7.5-3.357-7.5-7.5v-36.496c0-4.142,3.357-7.5,7.5-7.5s7.5,3.357,7.5,7.5   v36.496C347.938,483.547,344.581,486.904,340.438,486.904z"/>
</g>
<path d="M346.433,224.941c4.142,0,7.5-3.357,7.5-7.5v-19.934c0-4.142-3.357-7.5-7.5-7.5c-4.142,0-7.5,3.357-7.5,7.5v19.934  C338.933,221.584,342.291,224.941,346.433,224.941z M449.288,449.651c-6.567-17.425-16.607-31.462-29.896-41.825  c6.247-12.249,8.51-26.503,5.829-40.837c-3.019-16.142-12.071-30.331-25.213-39.867c6.951-14.087,11.896-29.332,14.457-45.365  c18.014-2.66,31.885-18.219,31.885-36.96v-17.635c0-18.035-12.844-33.127-29.866-36.609V153.75  c0-41.054-24.494-77.768-62.401-93.531c-22.789-9.476-44.106-22.114-63.359-37.562L267.617,4.116c-6.84-5.488-16.395-5.488-23.234,0  l-23.107,18.541c-19.253,15.447-40.57,28.085-63.359,37.562c-37.908,15.764-62.401,52.477-62.401,93.531v36.803  c-17.022,3.482-29.866,18.574-29.866,36.609v17.635c0,18.741,13.871,34.3,31.885,36.96c2.561,16.032,7.505,31.278,14.456,45.365  c-13.142,9.536-22.193,23.725-25.213,39.867c-2.681,14.334-0.418,28.588,5.829,40.837c-13.289,10.362-23.329,24.4-29.896,41.825  c-6.179,16.398-7.947,32.412-8.342,42.959c-0.191,5.116,1.66,9.965,5.214,13.655c3.56,3.699,8.349,5.735,13.486,5.735h365.86  c5.135,0,9.925-2.036,13.487-5.733c3.553-3.689,5.406-8.539,5.215-13.655C457.235,482.063,455.467,466.049,449.288,449.651z   M416.483,256.352v-50.258c8.655,3.09,14.867,11.366,14.867,21.069v17.635c0,9.813-6.355,18.164-15.164,21.17  C416.376,262.785,416.483,259.581,416.483,256.352z M80.647,244.798v-17.635c0-9.704,6.213-17.98,14.867-21.069v50.258  c0,3.229,0.107,6.433,0.296,9.616C87.002,262.962,80.647,254.611,80.647,244.798z M110.514,256.352V153.75  c0-34.975,20.867-66.253,53.162-79.683c24.094-10.019,46.631-23.38,66.986-39.712l23.108-18.541c0.656-0.527,1.442-0.79,2.229-0.79  c0.786,0,1.573,0.263,2.23,0.79l23.107,18.541c20.356,16.333,42.894,29.695,66.986,39.712c32.295,13.43,53.162,44.707,53.162,79.683  v102.601c0,80.221-65.265,145.484-145.485,145.484S110.514,336.572,110.514,256.352z M255.999,433.498  c-12.866,0-25.524-1.982-37.669-5.848l-19.409-21.313c17.744,6.775,36.983,10.498,57.078,10.498  c20.092,0,39.328-3.722,57.069-10.495l-19.409,21.313C281.517,431.517,268.861,433.498,255.999,433.498z M276.005,447.039  l-17.478,19.193c-0.887,0.973-1.966,1.118-2.531,1.118s-1.645-0.146-2.532-1.118l-17.479-19.194  c6.601,0.953,13.281,1.459,20.014,1.459C262.729,448.497,269.407,447.991,276.005,447.039z M73.069,497.001  c-1.381,0-2.274-0.715-2.684-1.141c-0.406-0.421-1.079-1.33-1.027-2.688c1.52-40.621,18.549-62.175,31.647-72.826  c2.239,2.605,4.701,5.044,7.373,7.286C97.219,449.046,90.859,472.771,89.768,497L73.069,497.001L73.069,497.001z M104.762,497.001  c1.053-21.302,6.598-42.15,16.212-61.069l43.086,22.643v20.83c0,4.142,3.357,7.5,7.5,7.5c4.142,0,7.5-3.357,7.5-7.5v-12.948  l51.694,27.166c2.577,1.354,5.241,2.465,7.954,3.378L104.762,497.001L104.762,497.001z M237.732,480.347l-58.672-30.833v-6.605  c0-4.142-3.357-7.5-7.5-7.5c-3.726,0-6.807,2.719-7.392,6.279l-37.3-19.602c-19.136-10.057-29.322-31.09-25.348-52.339  c2.193-11.727,8.56-22.101,17.81-29.364c9.992,16.19,22.77,30.486,37.674,42.199l85.371,93.749  c3.484,3.824,8.449,6.017,13.622,6.017s10.137-2.194,13.619-6.018l85.36-93.734c14.911-11.716,27.696-26.016,37.691-42.213  c9.25,7.263,15.617,17.637,17.81,29.364c3.974,21.249-6.212,42.282-25.348,52.339l-37.3,19.602c-0.584-3.56-3.666-6.279-7.392-6.279  c-4.142,0-7.5,3.357-7.5,7.5v6.605l-58.672,30.833C262.828,486.358,249.17,486.358,237.732,480.347z M273.289,497.001  c2.714-0.913,5.378-2.023,7.955-3.378l51.694-27.166v12.948c0,4.142,3.357,7.5,7.5,7.5s7.5-3.357,7.5-7.5v-20.83l43.087-22.643  c9.613,18.92,15.158,39.768,16.211,61.07H273.289V497.001z M441.613,495.861c-0.41,0.426-1.304,1.14-2.684,1.14h-16.698  c-1.092-24.23-7.451-47.954-18.61-69.369c2.673-2.242,5.134-4.681,7.373-7.286c13.098,10.651,30.127,32.205,31.647,72.826  C442.692,494.53,442.019,495.44,441.613,495.861z M255.999,260.929c8.47,0,16.552-4.079,21.618-10.909  c2.467-3.327,1.77-8.024-1.557-10.492c-3.328-2.467-8.024-1.768-10.492,1.557c-2.283,3.08-5.771,4.845-9.57,4.845  c-3.799,0-7.287-1.766-9.57-4.845c-2.468-3.328-7.166-4.024-10.492-1.557c-3.327,2.468-4.023,7.165-1.557,10.492  C239.447,256.851,247.529,260.929,255.999,260.929z M165.565,190.008c-4.142,0-7.5,3.357-7.5,7.5v19.934c0,4.142,3.357,7.5,7.5,7.5  c4.142,0,7.499-3.357,7.499-7.5v-19.934C173.065,193.365,169.707,190.008,165.565,190.008z M227.983,353.078  c5.796,0,11.089-2.934,14.16-7.849l1.717-2.747h24.278l1.717,2.747c3.071,4.915,8.365,7.849,14.16,7.849h39.096  c15.561,0,30.104-6.928,39.911-19.009c0.015-0.018,0.029-0.036,0.044-0.055c13.803-17.051,23.498-37.408,28.037-58.871l4.498-21.269  c3.713-17.56,3.102-35.97-1.764-53.245l-7.047-25.011c-0.574-2.037-1.29-4.175-2.188-6.535c-0.652-1.716-1.91-3.132-3.537-3.981  c-21.836-11.408-40.094-28.603-52.803-49.725c-4.79-7.96-13.507-12.963-22.741-13.058l-98.44-0.003  c-2.866,0-10.233,3.249-10.306,3.281c-6.549,2.901-10.855,6.17-13.164,9.992c-12.703,21.024-30.919,38.145-52.678,49.514  c-1.626,0.85-2.884,2.267-3.536,3.981c-0.899,2.363-1.615,4.502-2.188,6.538l-7.047,25.008c-4.867,17.274-5.477,35.685-1.764,53.245  l4.498,21.269c4.54,21.464,14.235,41.821,28.037,58.871c9.808,12.115,24.372,19.063,39.958,19.063L227.983,353.078L227.983,353.078z   M160.59,324.578c-12.318-15.216-20.969-33.384-25.02-52.538l-4.498-21.269c-3.213-15.194-2.685-31.126,1.526-46.073l7.046-25.009  c0.241-0.855,0.519-1.746,0.837-2.685c23.044-12.626,42.352-31.126,55.965-53.657c1.055-1.707,7.2-4.695,11.652-6.031h96.819  l0.441,0.003c4.074,0.041,7.924,2.261,10.049,5.792c13.622,22.64,32.98,41.222,56.108,53.894c0.318,0.938,0.596,1.829,0.838,2.685  l7.046,25.008c4.211,14.947,4.739,30.879,1.526,46.073l-4.498,21.269c-4.047,19.135-12.684,37.283-24.981,52.489  c-0.014,0.017-0.027,0.033-0.041,0.051c-6.946,8.578-17.259,13.499-28.295,13.499h-39.096c-0.59,0-1.128-0.299-1.44-0.799  l-2.098-3.357c-2.518-4.033-6.861-6.44-11.617-6.44h-25.72c-4.756,0-9.098,2.407-11.615,6.438l-2.1,3.359  c-0.313,0.5-0.851,0.799-1.44,0.799h-39.092C177.851,338.079,167.537,333.157,160.59,324.578z"/>
<g>
</g>
<g>
</g>
<g>
</g>
<g>
</g>
<g>
</g>
<g>
</g>
<g>
</g>
<g>
</g>
<g>
</g>
<g>
</g>
<g>
</g>
<g>
</g>
<g>
</g>
<g>
</g>
<g>
</g>
</svg>
