<?xml version="1.0" encoding="iso-8859-1"?>
<!-- Generator: Adobe Illustrator 19.0.0, SVG Export Plug-In . SVG Version: 6.00 Build 0)  -->
<svg xmlns="http://www.w3.org/2000/svg" xmlns:xlink="http://www.w3.org/1999/xlink" version="1.1" id="Layer_1" x="0px" y="0px" viewBox="0 0 511.999 511.999" style="enable-background:new 0 0 511.999 511.999;" xml:space="preserve">
<path style="fill:#8D6A59;" d="M132.613,389.378c-71.617,11.45-81.75,75.497-82.772,102.795  c-0.252,6.739,5.157,12.327,11.901,12.327h70.871V389.378z"/>
<path style="opacity:0.1;enable-background:new    ;" d="M121.851,391.617C92.267,420.575,73.294,460.323,71.304,504.5h61.31  V389.378C128.854,389.979,125.28,390.739,121.851,391.617z"/>
<path style="fill:#8D6A59;" d="M379.386,389.378c71.617,11.45,81.75,75.497,82.772,102.795c0.252,6.739-5.157,12.327-11.901,12.327  h-70.871V389.378z"/>
<path style="opacity:0.1;enable-background:new    ;" d="M390.149,391.617c29.584,28.958,48.557,68.706,50.547,112.883h-61.309  V389.378C383.146,389.979,386.72,390.739,390.149,391.617z"/>
<path style="fill:#8D6A59;" d="M424.763,504.5c0-93.205-75.558-168.763-168.763-168.763S87.237,411.294,87.237,504.5H424.763z"/>
<path style="fill:#F9D7C3;" d="M348.023,503.761c0-33.61-41.2-60.857-92.023-60.857s-92.023,27.247-92.023,60.857"/>
<path style="opacity:0.1;enable-background:new    ;" d="M256,335.737c-48.901,0-92.935,20.806-123.757,54.04  c33.858,27.272,76.897,43.607,123.757,43.607c46.861,0,89.899-16.335,123.758-43.607C348.935,356.543,304.901,335.737,256,335.737z"/>
<circle style="fill:#8D6A59;" cx="100.71" cy="83" r="60.29"/>
<circle style="opacity:0.07;enable-background:new    ;" cx="100.71" cy="83" r="60.29"/>
<circle style="fill:#F9D7C3;" cx="100.71" cy="83" r="29.04"/>
<path style="opacity:0.07;enable-background:new    ;" d="M137.944,35.584c-3.875-3.043-8.011-5.522-12.305-7.476  c-15.047,12.116-28.965,26.116-41.406,41.96s-22.742,32.685-30.944,50.176c2.917,3.708,6.306,7.138,10.181,10.182  c26.19,20.566,64.092,16.006,84.658-10.183C168.693,94.052,164.134,56.15,137.944,35.584z"/>
<circle style="fill:#8D6A59;" cx="411.29" cy="83" r="60.29"/>
<circle style="opacity:0.07;enable-background:new    ;" cx="411.29" cy="83" r="60.29"/>
<circle style="fill:#F9D7C3;" cx="411.29" cy="83" r="29.04"/>
<path style="opacity:0.07;enable-background:new    ;" d="M374.055,35.584c3.875-3.043,8.011-5.522,12.305-7.476  c15.047,12.116,28.965,26.116,41.406,41.96s22.742,32.685,30.944,50.176c-2.917,3.708-6.306,7.138-10.181,10.182  c-26.19,20.566-64.092,16.006-84.658-10.183C343.307,94.052,347.866,56.15,374.055,35.584z"/>
<circle style="fill:#8D6A59;" cx="256" cy="204.95" r="197.45"/>
<path style="fill:#F9D7C3;" d="M256,290.069c-83.666,0-151.491,5.491-151.491-78.175S172.334,133.098,256,133.098  s151.491-4.871,151.491,78.796S339.666,290.069,256,290.069z"/>
<g>
	<path style="fill:#EC8087;" d="M157.487,237.306h-30.649c-4.142,0-7.5-3.357-7.5-7.5s3.358-7.5,7.5-7.5h30.649   c4.142,0,7.5,3.357,7.5,7.5C164.987,233.948,161.629,237.306,157.487,237.306z"/>
	<path style="fill:#EC8087;" d="M385.154,237.306h-30.649c-4.143,0-7.5-3.357-7.5-7.5s3.357-7.5,7.5-7.5h30.649   c4.143,0,7.5,3.357,7.5,7.5C392.654,233.948,389.297,237.306,385.154,237.306z"/>
</g>
<path style="fill:#394049;" d="M276.035,73.606h-40.07c-9.454,0-14.106,11.505-7.309,18.076l13.538,13.088  c7.699,7.443,19.912,7.443,27.611,0l13.538-13.088C290.141,85.111,285.489,73.606,276.035,73.606z"/>
<g>
	<path style="fill:#FFFFFF;" d="M310.694,271.104l-11.145,18.941c14.926-0.218,28.886-0.882,41.486-2.702l-9.555-16.239   C326.816,263.181,315.357,263.181,310.694,271.104z"/>
	<path style="fill:#FFFFFF;" d="M180.521,271.104l-9.555,16.239c12.6,1.82,26.56,2.484,41.486,2.702l-11.145-18.941   C196.643,263.181,185.184,263.181,180.521,271.104z"/>
	<path style="fill:#FFFFFF;" d="M169.019,136.325l11.502,19.547c4.663,7.924,16.122,7.924,20.785,0l13.377-22.733   C198.135,133.37,182.743,134.122,169.019,136.325z"/>
	<path style="fill:#FFFFFF;" d="M297.317,133.139l13.377,22.733c4.663,7.924,16.122,7.924,20.785,0l11.502-19.547   C329.257,134.122,313.865,133.37,297.317,133.139z"/>
</g>
<path d="M333.491,73.577c4.693,0,8.497-3.804,8.497-8.497s-3.804-8.497-8.497-8.497c-4.693,0-8.497,3.804-8.497,8.497  S328.798,73.577,333.491,73.577z M383.138,382.413c-3.15-3.27-6.429-6.441-9.852-9.489c52.961-37.091,87.664-98.552,87.664-167.974  c0-23.18-3.874-45.471-10.999-66.267c1.092-0.759,2.168-1.54,3.211-2.359c29.4-23.088,34.537-65.789,11.45-95.189  c-23.088-29.4-65.788-34.535-95.189-11.45c-1.062,0.833-2.093,1.71-3.105,2.606C334.452,11.858,296.585,0,256,0  s-78.452,11.858-110.319,32.291c-1.012-0.896-2.043-1.772-3.105-2.606c-14.242-11.184-31.99-16.153-49.965-13.989  c-17.979,2.163-34.039,11.197-45.223,25.439c-23.087,29.4-17.951,72.102,11.45,95.189c1.043,0.819,2.12,1.6,3.211,2.358  C54.924,159.479,51.05,181.77,51.05,204.95c0,69.422,34.703,130.883,87.664,167.974c-3.423,3.047-6.701,6.218-9.852,9.488  c-32.075,5.764-55.842,22.16-70.66,48.771c-12.035,21.613-15.265,44.943-15.855,60.709c-0.199,5.306,1.722,10.335,5.408,14.161  c3.694,3.835,8.661,5.946,13.988,5.946h388.516c5.327,0,10.295-2.112,13.989-5.947c3.686-3.826,5.605-8.855,5.406-14.16  c-0.59-15.766-3.819-39.096-15.854-60.709C438.98,404.573,415.213,388.177,383.138,382.413z M452.815,50.399  c17.859,22.743,14.02,55.701-8.474,73.762c-2.233-5.187-4.677-10.261-7.316-15.217c5.845-5.776,9.553-13.295,10.549-21.575  c1.166-9.691-1.513-19.256-7.541-26.933c-11.577-14.744-32.302-18.159-47.894-8.545c-4.201-3.741-8.552-7.317-13.051-10.707  C401.968,23.562,434.939,27.636,452.815,50.399z M432.682,85.578c-0.424,3.524-1.685,6.813-3.647,9.654  c-7.4-11.628-15.939-22.462-25.458-32.347c3.235-1.245,6.746-1.693,10.29-1.268c5.713,0.688,10.816,3.559,14.37,8.084  C431.79,74.226,433.368,79.864,432.682,85.578z M59.185,50.399c8.709-11.091,21.216-18.126,35.217-19.81  c13.836-1.66,27.488,2.104,38.51,10.595c-4.499,3.39-8.85,6.967-13.051,10.708c-15.592-9.615-36.317-6.198-47.895,8.545  c-11.564,14.726-9.984,35.637,3.009,48.506c-2.639,4.956-5.083,10.031-7.316,15.218C45.164,106.101,41.326,73.143,59.185,50.399z   M108.419,62.889c-9.518,9.884-18.055,20.716-25.454,32.343c-1.962-2.84-3.223-6.13-3.647-9.654  c-0.687-5.713,0.892-11.352,4.446-15.878C89.734,62.098,99.831,59.603,108.419,62.889z M66.05,204.95  C66.05,100.211,151.261,15,256,15s189.95,85.211,189.95,189.95S360.739,394.9,256,394.9S66.05,309.69,66.05,204.95z M61.742,497  c-1.213,0-2.345-0.48-3.185-1.353c-0.482-0.5-1.281-1.581-1.221-3.194c0.433-11.564,2.824-33.953,13.971-53.972  c9.341-16.774,23.009-28.74,40.74-35.8C92.591,430.094,81.345,462.658,79.911,497H61.742z M94.908,497  c2.052-44.919,22.492-86.464,56.94-115.605C182.389,399.492,217.999,409.9,256,409.9s73.611-10.408,104.152-28.505  C394.6,410.535,415.04,452.08,417.093,497H94.908z M453.443,495.647c-0.841,0.872-1.972,1.353-3.186,1.353H432.09  c-1.435-34.342-12.68-66.906-32.136-94.318c17.731,7.06,31.399,19.026,40.74,35.8c11.147,20.019,13.537,42.407,13.97,53.973  C454.724,494.067,453.925,495.147,453.443,495.647z M281.133,224.621c2.468-3.326,1.771-8.023-1.555-10.492  c-3.324-2.466-8.022-1.773-10.492,1.555c-3.122,4.208-7.892,6.622-13.086,6.622c-5.195,0-9.964-2.414-13.086-6.622  c-2.468-3.326-7.165-4.022-10.492-1.555c-3.327,2.468-4.023,7.165-1.555,10.492c5.893,7.942,15.288,12.685,25.133,12.685  S275.239,232.564,281.133,224.621z M236.981,110.162c5.333,5.155,12.175,7.732,19.019,7.732c6.843,0,13.686-2.578,19.019-7.732  l13.537-13.088c5.307-5.128,6.947-12.862,4.182-19.704c-2.766-6.843-9.322-11.264-16.702-11.264h-40.07  c-7.38,0-13.936,4.421-16.702,11.263c-2.766,6.842-1.125,14.576,4.181,19.705L236.981,110.162z M233.169,82.992  c0.285-0.704,1.026-1.886,2.795-1.886h40.07c1.77,0,2.511,1.182,2.796,1.886c0.284,0.703,0.572,2.067-0.7,3.297l-13.538,13.088  c-4.818,4.658-12.367,4.658-17.186,0l-13.538-13.088C232.597,85.06,232.885,83.695,233.169,82.992z M270.556,297.606  c4.66,0.018,9.263,0.036,13.802,0.036c46.82,0,86.734-1.913,110.134-25.222c13.795-13.74,20.5-33.539,20.5-60.527  c0-27.074-6.744-46.958-20.617-60.789c-25.922-25.841-71.971-25.692-125.293-25.533c-8.622,0.027-17.539,0.027-26.162,0  c-53.316-0.157-99.371-0.307-125.292,25.533c-13.874,13.831-20.618,33.715-20.618,60.789c0,26.988,6.706,46.787,20.5,60.527  c25.668,25.568,71.207,25.382,123.935,25.186C251.024,297.567,260.976,297.567,270.556,297.606z M312.874,282.188l4.284-7.28  c1.193-2.027,3.145-2.247,3.928-2.247c0.784,0,2.735,0.22,3.929,2.247l3.702,6.291C323.625,281.654,318.336,281.972,312.874,282.188  z M330.755,142.314l-5.74,9.755c-1.193,2.027-3.145,2.246-3.929,2.246c-0.783,0-2.734-0.219-3.928-2.246l-6.525-11.089  C317.632,141.243,324.357,141.661,330.755,142.314z M201.368,140.978l-6.526,11.09c-1.193,2.027-3.145,2.246-3.929,2.246  s-2.735-0.219-3.928-2.246l-5.741-9.756C187.643,141.66,194.369,141.241,201.368,140.978z M183.283,281.2l3.702-6.291  c1.193-2.027,3.145-2.247,3.929-2.247s2.735,0.22,3.928,2.247l4.284,7.28C193.664,281.972,188.374,281.655,183.283,281.2z   M241.386,282.606c-8.429,0.032-16.655,0.06-24.618-0.015l-8.997-15.291c-3.552-6.036-9.853-9.64-16.856-9.64  s-13.305,3.603-16.856,9.64l-6.955,11.819c-16.286-2.876-29.699-8.053-39.008-17.326c-10.824-10.782-16.086-27.104-16.086-49.9  c0-22.884,5.302-39.294,16.207-50.166c8.941-8.913,21.632-14.09,36.989-17.095l8.852,15.043c3.552,6.036,9.853,9.639,16.856,9.639  s13.305-3.603,16.856-9.639l11.228-19.081c7.735-0.07,15.711-0.048,23.874-0.023c8.654,0.027,17.602,0.027,26.255,0  c8.163-0.024,16.14-0.046,23.875,0.025l11.228,19.08c3.551,6.035,9.853,9.639,16.855,9.639c7.004,0,13.306-3.604,16.857-9.639  l8.852-15.042c15.357,3.004,28.048,8.18,36.989,17.094c10.906,10.872,16.208,27.282,16.208,50.166  c0,22.796-5.262,39.118-16.086,49.9c-9.309,9.272-22.722,14.45-39.008,17.326l-6.955-11.819c-3.551-6.035-9.853-9.64-16.857-9.64  c-7.003,0-13.305,3.604-16.855,9.64l-8.998,15.291c-7.964,0.075-16.189,0.046-24.618,0.015c-4.81-0.02-9.685-0.038-14.614-0.038  C251.07,282.568,246.195,282.587,241.386,282.606z M142.162,167.985c-4.142,0-7.5,3.357-7.5,7.5v22.801c0,4.143,3.358,7.5,7.5,7.5  s7.5-3.357,7.5-7.5v-22.801C149.662,171.343,146.304,167.985,142.162,167.985z M369.837,205.786c4.143,0,7.5-3.357,7.5-7.5v-22.801  c0-4.143-3.357-7.5-7.5-7.5s-7.5,3.357-7.5,7.5v22.801C362.337,202.429,365.694,205.786,369.837,205.786z M178.509,73.577  c4.693,0,8.497-3.804,8.497-8.497s-3.804-8.497-8.497-8.497s-8.497,3.804-8.497,8.497C170.012,69.773,173.816,73.577,178.509,73.577  z"/>
<g>
</g>
<g>
</g>
<g>
</g>
<g>
</g>
<g>
</g>
<g>
</g>
<g>
</g>
<g>
</g>
<g>
</g>
<g>
</g>
<g>
</g>
<g>
</g>
<g>
</g>
<g>
</g>
<g>
</g>
</svg>
