<?xml version="1.0" encoding="iso-8859-1"?>
<!-- Generator: Adobe Illustrator 19.0.0, SVG Export Plug-In . SVG Version: 6.00 Build 0)  -->
<svg xmlns="http://www.w3.org/2000/svg" xmlns:xlink="http://www.w3.org/1999/xlink" version="1.1" id="Layer_1" x="0px" y="0px" viewBox="0 0 511.999 511.999" style="enable-background:new 0 0 511.999 511.999;" xml:space="preserve">
<circle style="fill:#F9D7C3;" cx="64.01" cy="208.78" r="29.2"/>
<circle style="opacity:0.15;fill:#EC8087;enable-background:new    ;" cx="64.01" cy="208.78" r="29.2"/>
<path style="opacity:0.07;enable-background:new    ;" d="M64.012,179.576c-2.915,0-5.729,0.433-8.385,1.228  c-1.794,10.544-2.741,21.377-2.741,32.432c0,7.811,0.479,15.508,1.385,23.075c3.047,1.078,6.325,1.671,9.742,1.671  c16.129,0,29.203-13.075,29.203-29.203C93.215,192.651,80.141,179.576,64.012,179.576z"/>
<circle style="fill:#F9D7C3;" cx="447.99" cy="208.78" r="29.2"/>
<circle style="opacity:0.15;fill:#EC8087;enable-background:new    ;" cx="447.99" cy="208.78" r="29.2"/>
<path style="opacity:0.07;enable-background:new    ;" d="M447.987,179.576c2.915,0,5.729,0.433,8.385,1.228  c1.794,10.544,2.741,21.377,2.741,32.432c0,7.811-0.478,15.508-1.385,23.075c-3.048,1.078-6.325,1.671-9.742,1.671  c-16.129,0-29.203-13.075-29.203-29.203C418.784,192.651,431.858,179.576,447.987,179.576z"/>
<path style="fill:#394049;" d="M192.843,35.83L77.939,150.734L50.526,43.309C45.141,22.204,64.313,3.032,85.418,8.417L192.843,35.83  z"/>
<path style="fill:#EC8087;" d="M88.769,62.566l15.723,61.615l61.799-61.799L104.675,46.66  C95.054,44.205,86.313,52.945,88.769,62.566z"/>
<path style="fill:#394049;" d="M319.156,35.83L434.06,150.734l27.412-107.425c5.385-21.105-13.787-40.278-34.892-34.892  L319.156,35.83z"/>
<path style="fill:#EC8087;" d="M423.231,62.566l-15.723,61.615l-61.799-61.799l61.615-15.723  C416.945,44.205,425.686,52.945,423.231,62.566z"/>
<path style="fill:#AD82C6;" d="M136.027,392.562c-69.636,11.133-79.488,73.408-80.482,99.951  c-0.245,6.552,5.014,11.986,11.571,11.986h68.911V392.562z"/>
<path style="opacity:0.1;enable-background:new    ;" d="M125.562,394.739c-28.766,28.156-47.214,66.805-49.149,109.76h59.613  V392.562C132.371,393.147,128.896,393.885,125.562,394.739z"/>
<path style="fill:#AD82C6;" d="M375.972,392.562c69.635,11.133,79.488,73.408,80.482,99.951c0.245,6.552-5.014,11.986-11.571,11.986  h-68.911L375.972,392.562L375.972,392.562z"/>
<path style="opacity:0.1;enable-background:new    ;" d="M386.437,394.739c28.766,28.156,47.214,66.805,49.149,109.76h-59.613  V392.562C379.628,393.147,383.103,393.885,386.437,394.739z"/>
<path style="fill:#EC8087;" d="M420.094,504.499c0-90.627-73.467-164.094-164.094-164.094S91.905,413.872,91.905,504.499H420.094z"/>
<path style="fill:#394049;" d="M345.709,331.78h40.201c26.231,0,47.496,21.264,47.496,47.496l0,0  c0,24.865-13.304,47.829-34.874,60.198L285.13,504.499h-58.26l-113.402-65.026c-21.57-12.369-34.874-35.333-34.874-60.198l0,0  c0-26.231,21.265-47.496,47.496-47.496h40.201h179.418V331.78z"/>
<path style="fill:#F9D7C3;" d="M256,340.405c-47.548,0-90.364,20.231-120.333,52.545l81.855,59.939  c22.907,16.774,54.042,16.775,76.95,0.001l81.862-59.94C346.364,360.636,303.547,340.405,256,340.405z"/>
<path style="opacity:0.1;enable-background:new    ;" d="M256,340.405c-47.548,0-90.364,20.231-120.334,52.545  c32.922,26.517,74.77,42.401,120.334,42.401s87.412-15.883,120.333-42.401C346.364,360.636,303.548,340.405,256,340.405z"/>
<circle style="fill:#F9D7C3;" cx="256" cy="213.24" r="191.99"/>
<g>
	<path style="fill:#EC8087;" d="M155.264,248.51h-31.341c-4.142,0-7.5-3.357-7.5-7.5s3.358-7.5,7.5-7.5h31.341   c4.142,0,7.5,3.357,7.5,7.5C162.764,245.152,159.406,248.51,155.264,248.51z"/>
	<path style="fill:#EC8087;" d="M388.068,248.51h-31.341c-4.142,0-7.5-3.357-7.5-7.5s3.358-7.5,7.5-7.5h31.341   c4.142,0,7.5,3.357,7.5,7.5C395.568,245.152,392.21,248.51,388.068,248.51z"/>
</g>
<g>
	<path style="fill:#AD82C6;" d="M256,248.51c-10.014,0-19.571-4.823-25.564-12.902c-2.468-3.327-1.771-8.024,1.555-10.492   c3.327-2.468,8.024-1.771,10.492,1.555c3.225,4.347,8.151,6.84,13.517,6.84s10.292-2.493,13.517-6.84   c2.468-3.326,7.167-4.021,10.492-1.555c3.327,2.468,4.023,7.165,1.555,10.492C275.57,243.687,266.014,248.51,256,248.51z"/>
	<path style="fill:#AD82C6;" d="M256,21.25c-87.314,0-161.003,58.292-184.303,138.079l0,0c15.029,7.993,33.075,7.872,47.996-0.321   l78.456-43.084c5.829-3.201,13.091,0.162,14.421,6.678l0,0c2.653,13.004,1.388,26.502-3.636,38.786l-6.249,15.279   c-0.8,1.956,1.505,3.709,3.176,2.416l0,0c23.681-18.322,40.217-44.342,46.748-73.562l0,0c1.526-6.829,9.809-9.531,15.068-4.915l0,0   c37.673,33.06,81.79,57.953,129.566,73.108l49.264,15.628C434.743,94.587,353.939,21.25,256,21.25z"/>
</g>
<path d="M372.405,181.369c-14.264,0-25.868,11.604-25.868,25.868c0,4.143,3.358,7.5,7.5,7.5s7.5-3.357,7.5-7.5  c0-5.993,4.876-10.868,10.868-10.868c5.993,0,10.868,4.875,10.868,10.868c0,4.143,3.358,7.5,7.5,7.5s7.5-3.357,7.5-7.5  C398.273,192.974,386.669,181.369,372.405,181.369z M139.594,177.964c-4.142,0-7.5,3.357-7.5,7.5v23.316c0,4.142,3.358,7.5,7.5,7.5  s7.5-3.358,7.5-7.5v-23.316C147.094,181.321,143.736,177.964,139.594,177.964z M484.69,208.779c0-19.141-14.731-34.898-33.45-36.551  c-1.981-9.444-4.624-18.648-7.893-27.552l25.393-99.512c3.19-12.503-0.352-25.414-9.476-34.538  c-9.124-9.124-22.035-12.667-34.538-9.476l-98.877,25.232C304.099,18.224,280.563,13.75,256,13.75  c-24.564,0-48.099,4.474-69.849,12.631L87.272,1.15C74.771-2.038,61.86,1.501,52.735,10.625  c-9.124,9.124-12.667,22.036-9.477,34.539l25.394,99.512c-3.269,8.905-5.912,18.108-7.893,27.552  c-18.719,1.653-33.45,17.41-33.45,36.551c0,18.563,13.855,33.941,31.766,36.362c5.254,32.548,18.402,62.485,37.424,87.772  c-15.681,9.98-25.405,27.306-25.405,46.362c0,11.73,2.707,23.106,7.654,33.361c-24.935,25.323-29.977,60.35-30.698,79.596  c-0.196,5.216,1.692,10.159,5.315,13.921c3.631,3.77,8.515,5.846,13.751,5.846h377.767c5.236,0,10.12-2.076,13.751-5.846  c3.623-3.762,5.511-8.705,5.315-13.92c-0.72-19.246-5.763-54.272-30.698-79.596c4.948-10.255,7.655-21.632,7.655-33.362  c0-19.056-9.724-36.382-25.405-46.362c19.021-25.287,32.169-55.225,37.424-87.772C470.835,242.721,484.69,227.343,484.69,208.779z   M469.69,208.779c0,9.575-6.236,17.716-14.858,20.59c0.428-5.323,0.655-10.701,0.655-16.133c0-8.583-0.545-17.04-1.602-25.34  C462.994,190.474,469.69,198.857,469.69,208.779z M57.167,229.37c-8.622-2.874-14.858-11.015-14.858-20.59  c0-9.923,6.696-18.305,15.805-20.882c-1.057,8.3-1.602,16.757-1.602,25.34C56.512,218.669,56.739,224.047,57.167,229.37z   M428.435,15.685c7.321-1.869,14.881,0.206,20.222,5.548c5.342,5.342,7.417,12.902,5.548,20.223l-20.646,80.909  c-3.738-7.275-7.914-14.289-12.486-21.013l9.424-36.93c1.814-7.11-0.2-14.452-5.389-19.641c-5.188-5.188-12.529-7.202-19.64-5.389  l-36.72,9.371c-6.664-4.583-13.618-8.771-20.83-12.532L428.435,15.685z M415.963,60.712l-6.45,25.276  c-7.717-9.294-16.264-17.873-25.52-25.635l25.185-6.427c2.778-0.709,4.649,0.785,5.324,1.46  C415.178,56.063,416.672,57.934,415.963,60.712z M256,28.75c89.861,0,164.908,64.584,181.197,149.77l-37.684-11.955  c-47.074-14.933-89.765-39.021-126.887-71.597c-4.48-3.933-10.54-5.178-16.207-3.327c-5.667,1.849-9.827,6.425-11.127,12.243  c-4.41,19.728-13.723,37.982-26.87,53.08c3.414-11.625,3.942-23.883,1.497-35.864c-1.115-5.465-4.658-9.943-9.719-12.287  c-5.063-2.347-10.771-2.149-15.66,0.535l-78.457,43.084c-10.922,5.999-23.697,6.916-35.208,2.765  C105.255,81.821,174.542,28.75,256,28.75z M97.497,55.387c0.676-0.675,2.549-2.17,5.324-1.46l25.185,6.427  c-9.256,7.761-17.803,16.341-25.52,25.635l-6.45-25.276C95.327,57.934,96.821,56.063,97.497,55.387z M57.793,41.455  c-1.868-7.32,0.207-14.881,5.549-20.223c5.342-5.343,12.9-7.418,20.222-5.548L164.08,36.23c-7.212,3.761-14.166,7.949-20.83,12.532  l-36.72-9.371c-7.11-1.812-14.452,0.201-19.64,5.389s-7.203,12.53-5.389,19.641l9.424,36.93  c-4.572,6.724-8.747,13.738-12.486,21.013L57.793,41.455z M84.58,496.999H67.116c-1.516,0-2.497-0.784-2.948-1.252  c-0.445-0.463-1.185-1.461-1.129-2.953c0.61-16.308,4.635-45.371,23.83-66.905c3.253,4.272,6.963,8.212,11.077,11.746  C89.936,456.516,85.455,476.428,84.58,496.999z M99.58,496.999c0.815-17.474,4.493-34.418,10.958-50.561l88.176,50.561H99.58z   M313.286,496.999l88.176-50.561c6.465,16.143,10.144,33.087,10.958,50.561H313.286z M448.96,492.795  c0.056,1.491-0.684,2.489-1.129,2.952c-0.451,0.468-1.432,1.252-2.948,1.252H427.42c-0.875-20.571-5.356-40.483-13.367-59.364  c4.114-3.534,7.824-7.474,11.077-11.746C444.325,447.423,448.349,476.486,448.96,492.795z M425.906,379.276  c0,22.116-11.919,42.689-31.105,53.691l-111.668,64.032h-54.265l-111.669-64.032c-19.186-11.002-31.104-31.574-31.104-53.691  c0-14.451,7.698-27.522,19.97-34.607c10.538,12.007,22.49,22.74,35.596,31.94c-4.002,3.58-7.86,7.324-11.493,11.241  c-1.455,1.569-2.171,3.686-1.967,5.815c0.204,2.131,1.308,4.072,3.035,5.336l81.855,59.939  c12.833,9.397,27.868,14.096,42.907,14.095c15.035-0.001,30.075-4.699,42.905-14.093l81.862-59.939  c1.727-1.265,2.831-3.206,3.035-5.337c0.204-2.13-0.512-4.246-1.967-5.815c-3.632-3.916-7.49-7.661-11.493-11.241  c13.106-9.2,25.058-19.933,35.596-31.94C418.208,351.754,425.906,364.825,425.906,379.276z M147.078,392.011  c2.481-2.402,5.05-4.717,7.683-6.951c29.697,17.564,64.308,27.664,101.239,27.664s71.542-10.1,101.239-27.664  c2.632,2.234,5.202,4.55,7.682,6.951l-74.88,54.827c-20.363,14.91-47.726,14.91-68.088,0L147.078,392.011z M256,397.724  c-101.727,0-184.487-82.76-184.487-184.486c0-15.019,1.817-29.619,5.22-43.605c15.287,5.222,32.129,3.88,46.571-4.051l78.455-43.084  c0.913-0.501,1.731-0.261,2.137-0.073c0.406,0.188,1.118,0.656,1.326,1.676c2.364,11.59,1.247,23.502-3.229,34.449l-6.249,15.279  c-1.661,4.063-0.43,8.578,3.063,11.234c3.493,2.657,8.173,2.639,11.645-0.048c25.009-19.348,42.581-46.999,49.478-77.858  c0.176-0.787,0.717-1.116,1.141-1.255c0.423-0.138,1.056-0.19,1.662,0.342c38.689,33.951,83.183,59.057,132.245,74.619  l44.611,14.152c0.591,5.996,0.9,12.074,0.9,18.223C440.487,314.964,357.726,397.724,256,397.724z"/>
<g>
</g>
<g>
</g>
<g>
</g>
<g>
</g>
<g>
</g>
<g>
</g>
<g>
</g>
<g>
</g>
<g>
</g>
<g>
</g>
<g>
</g>
<g>
</g>
<g>
</g>
<g>
</g>
<g>
</g>
</svg>
