<?xml version="1.0" encoding="iso-8859-1"?>
<!-- Generator: Adobe Illustrator 19.0.0, SVG Export Plug-In . SVG Version: 6.00 Build 0)  -->
<svg xmlns="http://www.w3.org/2000/svg" xmlns:xlink="http://www.w3.org/1999/xlink" version="1.1" id="Layer_1" x="0px" y="0px" viewBox="0 0 512 512" style="enable-background:new 0 0 512 512;" xml:space="preserve">
<path style="fill:#394049;" d="M283.392,7.5L283.392,7.5C268.264,7.5,256,19.764,256,34.892C256,19.764,243.736,7.5,228.608,7.5l0,0  c-93.27,0-168.881,75.61-168.881,168.881v153.398c0,32.468,26.321,58.789,58.789,58.789h274.967  c32.468,0,58.789-26.321,58.789-58.789V176.381C452.273,83.11,376.662,7.5,283.392,7.5z"/>
<path style="fill:#F6CDB5;" d="M142.525,398.626c-65.864,10.53-75.183,69.432-76.123,94.537  c-0.232,6.198,4.743,11.337,10.945,11.337h65.178V398.626z"/>
<path style="opacity:0.1;enable-background:new    ;" d="M132.628,400.685C105.42,427.316,87.971,463.872,86.141,504.5h56.384  V398.626C139.068,399.179,135.781,399.877,132.628,400.685z"/>
<path style="fill:#F6CDB5;" d="M369.475,398.626c65.864,10.53,75.183,69.432,76.123,94.537c0.232,6.198-4.743,11.337-10.945,11.337  h-65.178V398.626z"/>
<path style="opacity:0.1;enable-background:new    ;" d="M379.372,400.685c27.208,26.631,44.657,63.187,46.487,103.815h-56.384  V398.626C372.932,399.179,376.219,399.877,379.372,400.685z"/>
<path style="fill:#394049;" d="M411.206,504.5c0-85.718-69.488-155.206-155.206-155.206S100.794,418.782,100.794,504.5H411.206z"/>
<path style="fill:#E8E8E8;" d="M309.158,358.638H202.842c-19.903,7.256-37.898,18.473-53.044,32.692l34.366,113.17h143.672  l34.366-113.17C347.056,377.112,329.061,365.894,309.158,358.638z"/>
<polygon style="fill:#F6CDB5;" points="308.965,358.639 203.035,358.639 223.236,504.5 288.764,504.5 "/>
<path style="opacity:0.1;enable-background:new    ;" d="M256,349.294c-44.972,0-85.47,19.135-113.816,49.699  c31.139,25.081,70.72,40.104,113.816,40.104s82.677-15.023,113.816-40.104C341.47,368.429,300.973,349.294,256,349.294z"/>
<circle style="fill:#F6CDB5;" cx="74.41" cy="229.01" r="42.27"/>
<path style="opacity:0.07;enable-background:new    ;" d="M74.411,186.746c-3.454,0-6.808,0.424-10.021,1.206  c-3.05,13.195-4.663,26.94-4.663,41.061c0,14.122,1.613,27.867,4.663,41.062c3.214,0.782,6.567,1.206,10.021,1.206  c23.344,0,42.267-18.924,42.267-42.267C116.678,205.67,97.755,186.746,74.411,186.746z"/>
<circle style="fill:#F6CDB5;" cx="437.59" cy="229.01" r="42.27"/>
<path style="opacity:0.07;enable-background:new    ;" d="M437.589,186.746c3.454,0,6.808,0.424,10.022,1.206  c3.05,13.195,4.663,26.94,4.663,41.061c0,14.122-1.612,27.867-4.663,41.062c-3.214,0.782-6.567,1.206-10.022,1.206  c-23.343,0-42.267-18.924-42.267-42.267C395.321,205.67,414.245,186.746,437.589,186.746z"/>
<circle style="fill:#E8E8E8;" cx="256" cy="229.01" r="181.59"/>
<path style="fill:#394049;" d="M144.335,264.772l-35.622,12.667c-3.09,1.099-6.32-1.248-6.23-4.526l1.039-37.793  c0.029-1.073-0.312-2.124-0.967-2.975L79.5,202.181c-2-2.599-0.766-6.397,2.38-7.324l36.264-10.69  c1.03-0.303,1.924-0.953,2.531-1.839l21.373-31.186c1.854-2.705,5.847-2.705,7.701,0l21.373,31.186  c0.607,0.886,1.501,1.535,2.531,1.839l36.264,10.69c3.146,0.927,4.38,4.725,2.38,7.324l-23.055,29.964  c-0.655,0.851-0.996,1.902-0.967,2.975l1.039,37.793c0.09,3.279-3.14,5.625-6.23,4.526l-35.622-12.667  C146.451,264.413,145.347,264.413,144.335,264.772z"/>
<path style="fill:#FFFFFF;" d="M145.899,219.693c-4.142,0-7.5-3.357-7.5-7.5V190.14c0-4.143,3.358-7.5,7.5-7.5s7.5,3.357,7.5,7.5  v22.053C153.399,216.336,150.041,219.693,145.899,219.693z"/>
<g>
	<path style="fill:#EC8087;" d="M160.721,250.178h-29.644c-4.142,0-7.5-3.357-7.5-7.5s3.358-7.5,7.5-7.5h29.644   c4.142,0,7.5,3.357,7.5,7.5C168.221,246.82,164.863,250.178,160.721,250.178z"/>
	<path style="fill:#EC8087;" d="M380.915,250.178h-29.644c-4.142,0-7.5-3.357-7.5-7.5s3.358-7.5,7.5-7.5h29.644   c4.142,0,7.5,3.357,7.5,7.5C388.415,246.82,385.058,250.178,380.915,250.178z"/>
	<path style="fill:#EC8087;" d="M256,250.178c-9.6,0-18.761-4.624-24.506-12.369c-2.467-3.326-1.771-8.023,1.556-10.491   c3.327-2.467,8.024-1.771,10.492,1.556c2.972,4.007,7.513,6.305,12.458,6.305c4.945,0,9.486-2.298,12.459-6.306   c2.468-3.326,7.166-4.021,10.492-1.555c3.327,2.468,4.023,7.165,1.555,10.492C274.761,245.554,265.6,250.178,256,250.178z"/>
</g>
<path style="fill:#394049;" d="M256,45.032c-69.725,0-130.728,37.31-164.157,93.048c87.123,6.503,164.15-11.774,164.15-51.459  c0,39.687,77.035,57.964,164.164,51.458C386.727,82.341,325.724,45.032,256,45.032z"/>
<path d="M459.773,184.483v-8.102C459.773,79.124,380.649,0,283.392,0C272.297,0,262.396,5.205,256,13.302  C249.605,5.205,239.703,0,228.608,0C131.351,0,52.227,79.124,52.227,176.381v8.102c-16.335,8.171-27.583,25.057-27.583,44.531  c0,19.473,11.248,36.359,27.583,44.53v56.235c0,36.552,29.737,66.289,66.289,66.289h3.391c-21.181,7.42-37.396,21.056-48.342,40.713  c-11.126,19.981-14.112,41.537-14.657,56.103c-0.189,5.045,1.637,9.826,5.141,13.464C67.56,509.992,72.283,512,77.347,512h357.306  c5.064,0,9.787-2.008,13.298-5.653c3.504-3.638,5.33-8.419,5.141-13.464c-0.545-14.565-3.531-36.122-14.657-56.103  c-10.946-19.657-27.161-33.293-48.342-40.713h3.391c36.552,0,66.289-29.737,66.289-66.289v-56.235  c16.335-8.171,27.583-25.057,27.583-44.53S476.108,192.654,459.773,184.483z M67.227,176.381C67.227,87.396,139.622,15,228.608,15  c10.969,0,19.892,8.924,19.892,19.892c0,4.143,3.358,7.5,7.5,7.5s7.5-3.357,7.5-7.5C263.5,23.924,272.423,15,283.392,15  c88.986,0,161.381,72.396,161.381,161.381v3.391c-2.075-0.301-4.192-0.468-6.341-0.504c-4.221-15.523-10.404-30.492-18.46-44.483  c-1.42-2.465-4.12-3.905-6.952-3.743c-64.461,3.898-119.681-6.361-140.692-26.139c-5.945-5.597-8.835-11.576-8.835-18.28  c0-4.143-3.358-7.5-7.5-7.5s-7.5,3.357-7.5,7.5c0,6.704-2.89,12.684-8.834,18.279c-21.008,19.775-76.229,30.037-140.678,26.141  c-2.838-0.161-5.532,1.278-6.952,3.743c-8.057,13.991-14.239,28.96-18.46,44.482c-2.149,0.036-4.266,0.203-6.341,0.504v-3.391  H67.227z M181.704,268.988l-31.731-11.283c-1.313-0.467-2.694-0.7-4.074-0.7s-2.761,0.233-4.074,0.7  c-0.001,0-0.002,0.001-0.002,0.001l-31.729,11.282l0.926-33.663c0.076-2.787-0.818-5.54-2.52-7.753l-20.535-26.689l32.3-9.52  c2.677-0.789,5.02-2.492,6.597-4.793l19.037-27.777l19.038,27.779c1.578,2.3,3.919,4.001,6.595,4.791l32.301,9.52l-20.537,26.691  c-1.701,2.212-2.595,4.966-2.518,7.752L181.704,268.988z M135.862,146.903l-20.804,30.355l-27.599,8.135  c3.507-13.592,8.639-26.742,15.332-39.118c11.338,0.573,22.447,0.721,33.199,0.462C135.95,146.796,135.902,146.845,135.862,146.903z   M95.998,235.921l-1.012,36.787c-0.11,4.014,1.764,7.819,5.013,10.179c2.108,1.531,4.616,2.323,7.149,2.323  c1.371,0,2.75-0.232,4.077-0.704l34.673-12.329l34.671,12.329c3.783,1.347,7.981,0.741,11.229-1.619  c3.249-2.359,5.124-6.165,5.013-10.18l-1.012-36.786l22.441-29.166c2.448-3.182,3.169-7.361,1.929-11.18  c-1.241-3.818-4.28-6.775-8.132-7.912l-35.298-10.404l-20.804-30.357c-0.263-0.383-0.55-0.744-0.85-1.09  c11.767-0.868,22.955-2.265,33.335-4.197c27.822-5.177,49.095-14.096,61.52-25.792c2.311-2.175,4.329-4.44,6.052-6.791  c1.724,2.351,3.742,4.616,6.053,6.792c12.426,11.696,33.701,20.615,61.526,25.793c24.916,4.635,54.434,6.234,85.637,4.658  c13.674,25.285,20.88,53.79,20.88,82.738c0,95.992-78.096,174.088-174.088,174.088c-95.993,0-174.089-78.096-174.089-174.088  c0-3.66,0.117-7.312,0.346-10.951L95.998,235.921z M39.644,229.014c0-17.71,13.314-32.359,30.456-34.491  c-2.097,11.332-3.189,22.877-3.189,34.491c0,11.776,1.092,23.3,3.162,34.486C52.944,261.357,39.644,246.714,39.644,229.014z   M118.516,381.067c-28.281,0-51.289-23.008-51.289-51.289v-51.523c2.074,0.301,4.19,0.468,6.338,0.504  c11.33,41.505,36.471,77.364,70.167,102.309L118.516,381.067L118.516,381.067z M77.347,497c-1.283,0-2.114-0.664-2.495-1.06  c-0.377-0.391-1.002-1.235-0.955-2.497c0.396-10.581,2.582-31.064,12.773-49.365c8.189-14.706,20.023-25.37,35.297-31.898  c-17.138,24.799-27.094,54.022-28.488,84.82H77.347z M108.48,497c1.707-34.239,15.085-66.3,37.809-91.415L174.048,497H108.48z   M189.725,497l-31.374-103.316c0.636-0.56,1.282-1.111,1.929-1.661c13.184,7.771,27.385,13.988,42.355,18.399L214.626,497H189.725z   M282.231,497H229.77l-11.45-82.674c12.181,2.473,24.781,3.776,37.681,3.776c12.9,0,25.5-1.303,37.681-3.776L282.231,497z   M297.374,497l11.991-86.578c14.97-4.411,29.171-10.628,42.354-18.399c0.647,0.55,1.293,1.101,1.929,1.661L322.275,497H297.374z   M337.952,497l27.759-91.415C388.435,430.7,401.812,462.761,403.52,497H337.952z M425.33,444.077  c10.19,18.301,12.376,38.785,12.773,49.366c0.047,1.262-0.578,2.106-0.955,2.497c-0.381,0.396-1.212,1.06-2.496,1.06H418.52  c-1.394-30.798-11.35-60.021-28.488-84.82C405.307,418.708,417.141,429.371,425.33,444.077z M444.773,329.778  c0,28.281-23.008,51.289-51.289,51.289h-25.215c33.695-24.944,58.837-60.804,70.167-102.309c2.148-0.036,4.264-0.203,6.338-0.504  v51.524H444.773z M441.927,263.5c2.07-11.186,3.162-22.71,3.162-34.486c0-11.614-1.092-23.159-3.189-34.491  c17.142,2.131,30.456,16.781,30.456,34.491C472.356,246.714,459.056,261.357,441.927,263.5z M366.101,219.693  c4.142,0,7.5-3.357,7.5-7.5V190.14c0-4.143-3.358-7.5-7.5-7.5s-7.5,3.357-7.5,7.5v22.053  C358.601,216.336,361.959,219.693,366.101,219.693z"/>
<g>
</g>
<g>
</g>
<g>
</g>
<g>
</g>
<g>
</g>
<g>
</g>
<g>
</g>
<g>
</g>
<g>
</g>
<g>
</g>
<g>
</g>
<g>
</g>
<g>
</g>
<g>
</g>
<g>
</g>
</svg>
