<?xml version="1.0" encoding="iso-8859-1"?>
<!-- Generator: Adobe Illustrator 19.0.0, SVG Export Plug-In . SVG Version: 6.00 Build 0)  -->
<svg xmlns="http://www.w3.org/2000/svg" xmlns:xlink="http://www.w3.org/1999/xlink" version="1.1" id="Layer_1" x="0px" y="0px" viewBox="0 0 512 512" style="enable-background:new 0 0 512 512;" xml:space="preserve">
<circle style="fill:#F2BE89;" cx="93.35" cy="225.31" r="34.874"/>
<circle style="opacity:0.15;fill:#EC8087;enable-background:new    ;" cx="93.35" cy="225.31" r="34.874"/>
<path style="opacity:0.07;enable-background:new    ;" d="M93.352,190.432c-4.154,0-8.136,0.73-11.83,2.062  c-0.002,0.329-0.013,0.657-0.013,0.986v64.634c3.698,1.335,7.685,2.066,11.843,2.066c19.26,0,34.874-15.614,34.874-34.874  C128.227,206.046,112.613,190.432,93.352,190.432z"/>
<circle style="fill:#F2BE89;" cx="418.65" cy="225.31" r="34.874"/>
<circle style="opacity:0.15;fill:#EC8087;enable-background:new    ;" cx="418.65" cy="225.31" r="34.874"/>
<path style="opacity:0.07;enable-background:new    ;" d="M418.647,190.432c4.154,0,8.136,0.73,11.83,2.062  c0.002,0.329,0.012,0.657,0.012,0.986v64.634c-3.698,1.335-7.684,2.066-11.843,2.066c-19.26,0-34.874-15.614-34.874-34.874  C383.773,206.046,399.387,190.432,418.647,190.432z"/>
<g>
	<path style="fill:#4EBF8C;" d="M97.775,114.234L97.775,114.234c-31.164,0-56.426-25.263-56.426-56.426l0,0   c0-4.745,3.847-8.592,8.592-8.592l0,0c31.163,0,56.426,25.263,56.426,56.426l0,0C106.367,110.387,102.52,114.234,97.775,114.234z"/>
	<path style="fill:#4EBF8C;" d="M106.367,122.826L106.367,122.826c0,31.163-25.263,56.426-56.426,56.426l0,0   c-4.745,0-8.592-3.847-8.592-8.592l0,0c0-31.163,25.263-56.426,56.426-56.426l0,0C102.52,114.234,106.367,118.081,106.367,122.826z   "/>
	<circle style="fill:#4EBF8C;" cx="106.37" cy="114.23" r="28.16"/>
</g>
<circle style="opacity:0.13;enable-background:new    ;" cx="106.37" cy="114.23" r="28.16"/>
<path style="fill:#F2BE89;" d="M127.531,384.636c-74.567,11.922-85.117,78.606-86.182,107.029  c-0.263,7.017,5.369,12.835,12.391,12.835h73.791V384.636z"/>
<path style="opacity:0.2;enable-background:new    ;" d="M116.325,386.967C85.523,417.118,65.768,458.503,63.696,504.5h63.835  V384.636C123.616,385.262,119.895,386.053,116.325,386.967z"/>
<path style="fill:#F2BE89;" d="M384.469,384.636c74.567,11.922,85.117,78.606,86.181,107.029  c0.263,7.017-5.369,12.835-12.391,12.835h-73.791L384.469,384.636L384.469,384.636z"/>
<path style="opacity:0.2;enable-background:new    ;" d="M395.674,386.967c30.803,30.151,50.557,71.536,52.629,117.533h-63.835  V384.636C388.383,385.262,392.105,386.053,395.674,386.967z"/>
<path style="fill:#4DB1E0;" d="M431.715,504.5c0-97.045-78.67-175.715-175.715-175.715S80.285,407.455,80.285,504.5H431.715z"/>
<circle style="fill:#F2BE89;" cx="254.57" cy="376.07" r="68.11"/>
<path style="opacity:0.1;enable-background:new    ;" d="M256,328.785c-44.863,0-85.79,16.822-116.842,44.49  c29.389,30.849,70.87,50.075,116.842,50.075l0,0c45.972,0,87.453-19.226,116.842-50.075C341.79,345.607,300.863,328.785,256,328.785  z"/>
<path style="fill:#F2BE89;" d="M256,7.5L256,7.5c-89.114,0-161.355,72.241-161.355,161.355v67.385  c0,89.114,72.241,161.355,161.355,161.355l0,0c89.114,0,161.355-72.241,161.355-161.355v-67.385C417.355,79.741,345.114,7.5,256,7.5  z"/>
<path style="fill:#4EBF8C;" d="M256,7.5L256,7.5c-79.982,0-146.359,58.197-159.126,134.553h318.253  C402.359,65.697,335.981,7.5,256,7.5z"/>
<g>
	<path style="fill:#EC8087;" d="M182.052,236.77h-35.238c-4.143,0-7.5-3.358-7.5-7.5s3.357-7.5,7.5-7.5h35.238   c4.143,0,7.5,3.358,7.5,7.5S186.194,236.77,182.052,236.77z"/>
	<path style="fill:#EC8087;" d="M365.186,236.77h-35.238c-4.143,0-7.5-3.358-7.5-7.5s3.357-7.5,7.5-7.5h35.238   c4.143,0,7.5,3.358,7.5,7.5S369.329,236.77,365.186,236.77z"/>
</g>
<path style="fill:#FFFFFF;" d="M210.947,13.885l-13.962,13.961c-3.119,3.119-3.119,8.176,0,11.295  c1.56,1.56,3.604,2.339,5.648,2.339c2.044,0,4.088-0.78,5.648-2.339l22.13-22.13c2.111-2.111,2.788-5.11,2.041-7.795  C225.111,10.29,217.932,11.857,210.947,13.885z M177.296,46.999c-3.12-3.119-8.176-3.119-11.296,0l-22.13,22.13  c-3.119,3.119-3.119,8.176,0,11.295c1.56,1.56,3.605,2.339,5.648,2.339c2.044,0,4.088-0.78,5.648-2.339l22.13-22.13  C180.415,55.175,180.415,50.118,177.296,46.999z M193.402,86.456l-22.129,22.13c-3.119,3.119-3.119,8.176,0,11.295  c1.56,1.559,3.604,2.34,5.648,2.34c2.043,0,4.088-0.78,5.648-2.34l22.129-22.13c3.119-3.119,3.119-8.176,0-11.295  C201.578,83.337,196.522,83.337,193.402,86.456z M118.4,84.577c-7.064,11.511-12.726,23.973-16.745,37.153  c1.062-0.387,2.061-0.997,2.913-1.849l22.129-22.13c3.119-3.119,3.119-8.176,0-11.295C124.452,84.212,121.207,83.592,118.4,84.577z   M398.668,93.455c-0.001,0.001-0.003,0.002-0.004,0.004l-22.131,22.13c-3.119,3.119-3.119,8.176,0,11.295  c1.56,1.56,3.604,2.339,5.648,2.339s4.088-0.78,5.648-2.339l17.993-17.993C403.704,103.601,401.313,98.451,398.668,93.455z   M366.403,51.199l-17.93,17.93c-3.119,3.119-3.119,8.176,0,11.295c1.56,1.56,3.605,2.339,5.648,2.339  c2.044,0,4.088-0.78,5.648-2.339l17.728-17.728C373.99,58.683,370.287,54.846,366.403,51.199z M271.283,46.999  c-3.12-3.119-8.176-3.119-11.296,0l-22.129,22.13c-3.119,3.119-3.119,8.176,0,11.295c1.56,1.56,3.605,2.339,5.648,2.339  c2.044,0,4.088-0.78,5.648-2.339l22.129-22.13C274.402,55.175,274.402,50.118,271.283,46.999z M302.17,34.235  c-3.119,3.119-3.119,8.176,0,11.295c1.56,1.56,3.604,2.339,5.648,2.339s4.088-0.78,5.648-2.339l18.863-18.863  c-4.967-2.673-10.092-5.088-15.354-7.238L302.17,34.235z M286.086,93.459l-22.129,22.13c-3.119,3.119-3.119,8.176,0,11.295  c1.56,1.559,3.605,2.339,5.648,2.339s4.088-0.78,5.648-2.339l22.129-22.13c3.119-3.119,3.119-8.176,0-11.295  C294.262,90.34,289.206,90.34,286.086,93.459z"/>
<path d="M461.676,428.315c-15.406-27.667-40.134-44.696-73.517-50.654c-5.712-5.964-11.852-11.565-18.392-16.756  c26.495-24.2,45.268-56.711,52.167-93.364c21.834-1.684,39.088-19.976,39.088-42.234c0-21.257-15.734-38.902-36.167-41.915v-14.537  C424.854,75.748,349.106,0,256,0c-60.187,0-113.111,31.66-143.018,79.194c-1.682-0.317-3.387-0.513-5.109-0.585  C97.46,56.336,74.836,41.716,49.94,41.716c-8.873,0-16.092,7.219-16.092,16.092c0,23.757,13.316,45.442,33.889,56.426  c-20.573,10.985-33.889,32.669-33.889,56.426c0,8.874,7.219,16.092,16.092,16.092c13.614,0,26.505-4.222,37.205-11.912v8.551  c-20.433,3.013-36.167,20.659-36.167,41.915c0,22.258,17.254,40.55,39.088,42.234c6.899,36.653,25.672,69.164,52.167,93.364  c-6.54,5.192-12.68,10.792-18.392,16.756c-33.383,5.958-58.111,22.986-73.517,50.654c-12.502,22.45-15.856,46.689-16.47,63.07  c-0.203,5.44,1.766,10.596,5.544,14.518C43.186,509.835,48.279,512,53.74,512h404.52c5.461,0,10.555-2.165,14.342-6.097  c3.778-3.922,5.747-9.079,5.544-14.518C477.532,475.004,474.178,450.764,461.676,428.315z M424.854,236.239v-37.588  c12.112,2.82,21.167,13.697,21.167,26.656c0,13.227-9.431,24.292-21.92,26.827C424.592,246.899,424.854,241.6,424.854,236.239z   M256,15c73.049,0,134.365,51.174,149.996,119.553H106.004C121.635,66.174,182.951,15,256,15z M48.849,57.808  c0-0.602,0.49-1.092,1.092-1.092c17.701,0,33.899,9.656,42.502,24.692C83.96,85.02,77.153,91.827,73.54,100.31  C58.505,91.705,48.849,75.508,48.849,57.808z M65.979,225.307c0-12.959,9.055-23.835,21.167-26.656v37.588  c0,5.36,0.262,10.66,0.754,15.894C75.409,249.598,65.979,238.534,65.979,225.307z M87.828,153.753c-9.343,11.45-23.055,18-37.888,18  c-0.601,0-1.092-0.49-1.092-1.092c0-17.706,9.663-33.908,24.706-42.51c3.041,7.155,8.375,13.197,15.25,17.093  C88.409,148.058,88.083,150.895,87.828,153.753z M85.707,114.234c0-10.879,8.458-19.8,19.141-20.582  c-5.563,11.135-9.929,22.965-12.933,35.323C88.039,125.169,85.707,119.902,85.707,114.234z M102.146,236.239v-67.385  c0-6.536,0.413-12.978,1.208-19.302h305.293c0.795,6.324,1.208,12.766,1.208,19.302v67.385c0,84.836-69.019,153.855-153.854,153.855  S102.146,321.075,102.146,236.239z M311.982,395.543c-8.132,24.163-30.886,41.134-57.411,41.134  c-15.265,0-29.847-5.695-41.059-16.037c-7.844-7.236-13.552-16.292-16.706-26.264c18.43,6.922,38.376,10.719,59.195,10.719  C275.615,405.094,294.454,401.721,311.982,395.543z M53.74,497c-1.349,0-2.605-0.534-3.539-1.503  c-0.925-0.961-1.406-2.221-1.356-3.551c0.451-12.068,2.946-35.435,14.584-56.334c9.972-17.909,24.645-30.594,43.759-37.902  C86.559,426.498,74.444,460.986,72.959,497H53.74z M87.953,497c2.229-49.63,26.483-96.039,66.067-126.274  c8.049,6.119,16.659,11.535,25.742,16.151c2.459,17.157,10.726,32.934,23.58,44.79c13.99,12.904,32.184,20.011,51.229,20.011  c37.308,0,68.646-26.914,74.587-63.267c10.222-4.934,19.868-10.877,28.823-17.684c39.584,30.235,63.837,76.644,66.067,126.274  H87.953V497z M461.799,495.497c-0.934,0.969-2.19,1.503-3.539,1.503h-19.219c-1.485-36.015-13.6-70.502-34.229-99.29  c19.114,7.308,33.787,19.994,43.759,37.902c11.638,20.899,14.133,44.266,14.584,56.335  C463.205,493.276,462.724,494.537,461.799,495.497z M149.602,190.904c0-8.181,6.655-14.836,14.836-14.836  s14.836,6.656,14.836,14.836c0,4.142,3.357,7.5,7.5,7.5s7.5-3.358,7.5-7.5c0-16.452-13.385-29.836-29.836-29.836  s-29.836,13.385-29.836,29.836c0,4.142,3.358,7.5,7.5,7.5C146.245,198.404,149.602,195.046,149.602,190.904z M325.226,198.404  c4.143,0,7.5-3.358,7.5-7.5c0-8.181,6.655-14.836,14.836-14.836s14.836,6.656,14.836,14.836c0,4.142,3.357,7.5,7.5,7.5  s7.5-3.358,7.5-7.5c0-16.452-13.385-29.836-29.836-29.836s-29.836,13.385-29.836,29.836  C317.726,195.046,321.083,198.404,325.226,198.404z M256,239.355c9.759,0,19.072-4.7,24.912-12.572  c2.468-3.327,1.771-8.024-1.555-10.492c-3.328-2.469-8.023-1.771-10.492,1.555c-3.069,4.137-7.758,6.51-12.865,6.51  c-5.106,0-9.795-2.373-12.864-6.51c-2.468-3.326-7.165-4.022-10.492-1.555c-3.326,2.468-4.023,7.166-1.555,10.492  C236.929,234.655,246.242,239.355,256,239.355z"/>
<g>
</g>
<g>
</g>
<g>
</g>
<g>
</g>
<g>
</g>
<g>
</g>
<g>
</g>
<g>
</g>
<g>
</g>
<g>
</g>
<g>
</g>
<g>
</g>
<g>
</g>
<g>
</g>
<g>
</g>
</svg>
