<?xml version="1.0" encoding="iso-8859-1"?>
<!-- Generator: Adobe Illustrator 19.0.0, SVG Export Plug-In . SVG Version: 6.00 Build 0)  -->
<svg xmlns="http://www.w3.org/2000/svg" xmlns:xlink="http://www.w3.org/1999/xlink" version="1.1" id="Layer_1" x="0px" y="0px" viewBox="0 0 512 512" style="enable-background:new 0 0 512 512;" xml:space="preserve">
<circle style="fill:#F6CDB5;" cx="94.279" cy="215.52" r="38.895"/>
<circle style="opacity:0.15;fill:#EC8087;enable-background:new    ;" cx="94.279" cy="215.52" r="38.895"/>
<path style="opacity:0.1;enable-background:new    ;" d="M94.275,176.622c-4.442,0-8.705,0.755-12.681,2.126  c-0.362,4.417-0.556,8.883-0.556,13.393v50.035c0,3.369,0.115,6.712,0.318,10.03c4.043,1.424,8.388,2.206,12.918,2.206  c21.481,0,38.895-17.414,38.895-38.895S115.757,176.622,94.275,176.622z"/>
<circle style="fill:#F6CDB5;" cx="417.719" cy="215.52" r="38.895"/>
<circle style="opacity:0.15;fill:#EC8087;enable-background:new    ;" cx="417.719" cy="215.52" r="38.895"/>
<path style="opacity:0.1;enable-background:new    ;" d="M417.723,176.622c4.442,0,8.705,0.755,12.681,2.126  c0.362,4.417,0.556,8.883,0.556,13.393v50.035c0,3.369-0.115,6.712-0.318,10.03c-4.043,1.424-8.388,2.206-12.918,2.206  c-21.481,0-38.895-17.414-38.895-38.895S396.242,176.622,417.723,176.622z"/>
<path style="fill:#E8E8E8;" d="M133.171,389.898c-71.294,11.398-81.381,75.156-82.398,102.33  c-0.251,6.709,5.134,12.271,11.847,12.271h70.551V389.898z"/>
<path style="opacity:0.08;enable-background:new    ;" d="M122.456,392.127c-29.45,28.827-48.338,68.396-50.319,112.373h61.033  V389.898C129.427,390.497,125.869,391.253,122.456,392.127z"/>
<path style="fill:#E8E8E8;" d="M378.828,389.898c71.294,11.398,81.381,75.156,82.398,102.33c0.251,6.709-5.134,12.271-11.847,12.271  h-70.551V389.898z"/>
<path style="opacity:0.08;enable-background:new    ;" d="M389.542,392.127c29.451,28.827,48.338,68.396,50.319,112.373h-61.033  V389.898C382.571,390.497,386.129,391.253,389.542,392.127z"/>
<path style="fill:#E8E8E8;" d="M424,504.5c0-92.784-75.217-168.001-168.001-168.001S87.998,411.716,87.998,504.5H424z"/>
<path style="opacity:0.1;enable-background:new    ;" d="M255.999,336.499c-42.893,0-82.024,16.083-111.713,42.537  c28.099,29.495,67.759,47.877,111.713,47.877l0,0c43.954,0,83.614-18.382,111.713-47.877  C338.023,352.582,298.892,336.499,255.999,336.499z"/>
<path style="fill:#F6CDB5;" d="M255.999,30.417L255.999,30.417c-89.318,0-161.724,72.406-161.724,161.724v50.035  c0,89.318,72.406,161.724,161.724,161.724l0,0c89.318,0,161.724-72.406,161.724-161.724v-50.035  C417.723,102.823,345.317,30.417,255.999,30.417z"/>
<g>
	<path style="fill:#394049;" d="M94.275,153.749v80.059l0,0c21.387-17.952,33.738-44.446,33.738-72.369v-7.69L94.275,153.749   L94.275,153.749z"/>
	<path style="fill:#394049;" d="M417.723,153.749v80.059l0,0c-21.387-17.952-33.738-44.446-33.738-72.369v-7.69L417.723,153.749   L417.723,153.749z"/>
</g>
<g>
	<path style="fill:#EC8087;" d="M167.913,260.145h-30.641c-4.143,0-7.5-3.358-7.5-7.5s3.357-7.5,7.5-7.5h30.641   c4.143,0,7.5,3.358,7.5,7.5S172.057,260.145,167.913,260.145z"/>
	<path style="fill:#EC8087;" d="M374.726,260.145h-30.641c-4.143,0-7.5-3.358-7.5-7.5s3.357-7.5,7.5-7.5h30.641   c4.143,0,7.5,3.358,7.5,7.5S378.868,260.145,374.726,260.145z"/>
</g>
<circle style="fill:#394049;" cx="255.999" cy="29.403" r="21.903"/>
<path style="fill:#4DB1E0;" d="M305.382,29.403h-98.767c-62.044,0-112.34,50.297-112.34,112.341v21.01h323.448v-21.01  C417.723,79.7,367.426,29.403,305.382,29.403z"/>
<path style="fill:#FFFFFF;" d="M327.662,136.574H184.337v-35.84c0-14.515,11.767-26.282,26.282-26.282h90.763  c14.515,0,26.282,11.767,26.282,26.282v35.84H327.662z"/>
<path style="fill:#EC8087;" d="M277.902,113.013h-43.807c-4.143,0-7.5-3.358-7.5-7.5s3.357-7.5,7.5-7.5h43.807  c4.143,0,7.5,3.358,7.5,7.5S282.045,113.013,277.902,113.013z"/>
<path style="opacity:0.4;fill:#FFFFFF;enable-background:new    ;" d="M361.779,136.574h-211.56c-5.444,0-9.857,4.413-9.857,9.857  v6.465c0,5.444,4.413,9.857,9.857,9.857h211.56c5.444,0,9.857-4.413,9.857-9.857v-6.465  C371.636,140.988,367.223,136.574,361.779,136.574z"/>
<path style="fill:#EC8087;" d="M319.175,504.431c0-34.891-28.285-63.176-63.176-63.176s-63.176,28.285-63.176,63.176H319.175z"/>
<path style="fill:#FFFFFF;" d="M289.345,504.431c0-18.417-14.93-33.346-33.346-33.346s-33.346,14.93-33.346,33.346H289.345z"/>
<path d="M452.934,431.499c-14.765-26.513-38.448-42.843-70.41-48.575c-4.67-4.863-9.616-9.46-14.809-13.757  c30.689-27.029,51.533-64.976,56.403-107.707c22.565-3.126,40-22.532,40-45.944c0-23.028-16.867-42.183-38.895-45.779v-27.993  c0-66.08-53.76-119.84-119.84-119.84h-20.954C281.105,9.312,269.62,0,255.999,0c-13.621,0-25.106,9.312-28.43,21.903h-20.953  c-66.08,0-119.84,53.76-119.84,119.84v27.993c-22.027,3.597-38.895,22.751-38.895,45.779c0,23.412,17.435,42.818,40,45.944  c4.87,42.731,25.714,80.678,56.403,107.707c-5.193,4.297-10.139,8.894-14.809,13.757c-31.964,5.732-55.647,22.062-70.41,48.575  c-11.983,21.521-15.2,44.751-15.788,60.45c-0.197,5.291,1.718,10.306,5.393,14.122c3.684,3.824,8.638,5.93,13.949,5.93h386.76  c5.313,0,10.267-2.106,13.95-5.93c3.675-3.815,5.59-8.83,5.393-14.122C468.134,476.25,464.917,453.02,452.934,431.499z   M425.223,242.175v-57.141c13.7,3.372,23.895,15.756,23.895,30.482c0,14.749-10.227,27.149-23.943,30.497  C425.202,244.737,425.223,243.458,425.223,242.175z M62.881,215.516c0-14.727,10.196-27.112,23.895-30.483v57.142  c0,1.282,0.02,2.56,0.049,3.835C73.1,242.656,62.881,230.26,62.881,215.516z M410.223,215.363  c-10.222-12.934-16.597-28.563-18.277-45.11h18.277V215.363z M255.999,15c5.193,0,9.738,2.771,12.273,6.903h-24.546  C246.261,17.771,250.807,15,255.999,15z M101.775,141.744c0-57.809,47.031-104.84,104.84-104.84h98.768  c57.809,0,104.84,47.031,104.84,104.84v13.51h-31.235c0.095-0.756,0.148-1.54,0.148-2.357v-6.465  c0-9.571-7.786-17.357-17.356-17.357h-26.617v-28.34c0-18.627-15.154-33.782-33.782-33.782H210.62  c-18.628,0-33.782,15.155-33.782,33.782v28.34h-26.618c-9.57,0-17.356,7.786-17.356,17.357v6.465c0,0.792,0.074,1.578,0.181,2.357  h-31.268L101.775,141.744L101.775,141.744z M361.779,144.074c1.3,0,2.356,1.057,2.356,2.357v6.465c0,2.243-4.299,2.357-5.16,2.357  H148.816c-0.432-0.513-0.954-1.406-0.954-2.357v-6.465c0-1.3,1.057-2.357,2.356-2.357H361.779z M191.837,129.074v-28.34  c0-10.356,8.426-18.782,18.782-18.782h90.762c10.356,0,18.782,8.426,18.782,18.782v28.34H191.837z M101.775,170.253h18.277  c-1.68,16.548-8.055,32.176-18.277,45.11V170.253z M101.775,242.175v-4.961c19.243-17.327,31.118-41.253,33.34-66.961h241.767  c2.222,25.708,14.098,49.634,33.34,66.961v4.961c0,85.039-69.185,154.224-154.224,154.224S101.775,327.214,101.775,242.175z   M62.618,497c-1.198,0-2.316-0.475-3.146-1.336c-0.476-0.494-1.266-1.561-1.206-3.154c0.431-11.509,2.809-33.792,13.903-53.713  c9.297-16.696,22.904-28.605,40.555-35.629c-4.764,6.714-9.061,13.751-12.824,21.052C88.346,446.639,81.769,471.654,80.679,497  H62.618z M95.666,497c1.045-23.152,6.941-45.29,17.567-65.909c10.394-20.166,25.203-38.147,43.011-52.311  c27.992,20.496,62.481,32.618,99.754,32.618s71.763-12.122,99.754-32.618c17.809,14.164,32.618,32.145,43.011,52.311  c10.626,20.619,16.522,42.756,17.567,65.909H95.666z M452.526,495.664c-0.831,0.862-1.948,1.336-3.147,1.336h-18.06  c-1.09-25.346-7.667-50.361-19.222-72.781c-3.763-7.301-8.06-14.338-12.824-21.052c17.651,7.024,31.258,18.933,40.555,35.629  c11.094,19.922,13.473,42.204,13.903,53.713C453.791,494.103,453.002,495.169,452.526,495.664z M152.589,228.634  c4.143,0,7.5-3.358,7.5-7.5V198.34c0-4.142-3.357-7.5-7.5-7.5s-7.5,3.358-7.5,7.5v22.794  C145.089,225.276,148.447,228.634,152.589,228.634z M359.409,228.634c4.143,0,7.5-3.358,7.5-7.5V198.34c0-4.142-3.357-7.5-7.5-7.5  s-7.5,3.358-7.5,7.5v22.794C351.909,225.276,355.267,228.634,359.409,228.634z M255.999,260.445c9.346,0,18.263-4.501,23.854-12.04  c2.468-3.327,1.772-8.025-1.556-10.492c-3.326-2.467-8.025-1.771-10.491,1.556c-2.817,3.798-7.121,5.976-11.808,5.976  c-4.687,0-8.991-2.178-11.809-5.977c-2.468-3.326-7.166-4.024-10.492-1.555c-3.326,2.468-4.022,7.166-1.555,10.492  C237.736,255.945,246.654,260.445,255.999,260.445z"/>
<g>
</g>
<g>
</g>
<g>
</g>
<g>
</g>
<g>
</g>
<g>
</g>
<g>
</g>
<g>
</g>
<g>
</g>
<g>
</g>
<g>
</g>
<g>
</g>
<g>
</g>
<g>
</g>
<g>
</g>
</svg>
