<?xml version="1.0" encoding="iso-8859-1"?>
<!-- Generator: Adobe Illustrator 19.0.0, SVG Export Plug-In . SVG Version: 6.00 Build 0)  -->
<svg xmlns="http://www.w3.org/2000/svg" xmlns:xlink="http://www.w3.org/1999/xlink" version="1.1" id="Layer_1" x="0px" y="0px" viewBox="0 0 512.001 512.001" style="enable-background:new 0 0 512.001 512.001;" xml:space="preserve">
<path style="fill:#F9D7C3;" d="M84.923,228.484c0,15.843-12.844,28.687-28.687,28.687s-28.687-12.844-28.687-28.687v-29.865  c0-15.843,12.844-28.687,28.687-28.687s28.687,12.844,28.687,28.687V228.484z"/>
<path style="opacity:0.15;fill:#EC8087;enable-background:new    ;" d="M84.923,228.484c0,15.843-12.844,28.687-28.687,28.687  s-28.687-12.844-28.687-28.687v-29.865c0-15.843,12.844-28.687,28.687-28.687s28.687,12.844,28.687,28.687V228.484z"/>
<path style="opacity:0.07;enable-background:new    ;" d="M56.236,169.932c-1.958,0-3.869,0.198-5.717,0.571  c-1.968,11.187-3,22.696-3,34.447c0,18.058,2.438,35.545,6.979,52.163c0.576,0.034,1.154,0.057,1.738,0.057  c15.843,0,28.687-12.843,28.687-28.687v-29.865C84.922,182.776,72.079,169.932,56.236,169.932z"/>
<path style="fill:#F9D7C3;" d="M427.075,228.484c0,15.843,12.844,28.687,28.687,28.687c15.843,0,28.687-12.844,28.687-28.687  v-29.865c0-15.843-12.844-28.687-28.687-28.687c-15.843,0-28.687,12.844-28.687,28.687V228.484z"/>
<path style="opacity:0.15;fill:#EC8087;enable-background:new    ;" d="M427.075,228.484c0,15.843,12.844,28.687,28.687,28.687  c15.843,0,28.687-12.844,28.687-28.687v-29.865c0-15.843-12.844-28.687-28.687-28.687c-15.843,0-28.687,12.844-28.687,28.687  V228.484z"/>
<path style="opacity:0.07;enable-background:new    ;" d="M455.762,169.932c1.958,0,3.869,0.198,5.717,0.571  c1.968,11.187,3,22.696,3,34.447c0,18.058-2.438,35.545-6.979,52.163c-0.576,0.034-1.154,0.057-1.738,0.057  c-15.843,0-28.687-12.843-28.687-28.687v-29.865C427.076,182.776,439.919,169.932,455.762,169.932z"/>
<path style="fill:#E36566;" d="M434.259,471.982L434.259,471.982c-12.448-14.373-12.448-35.708,0-50.081l0,0  c12.448-14.374,12.448-35.708,0-50.081l0,0c-12.448-14.374-12.448-35.708,0-50.082l0,0c12.448-14.373,12.448-35.708,0-50.081l0,0  c-12.448-14.373-12.448-35.708,0-50.081l0,0c12.448-14.374,12.448-35.708,0-50.081l-21.686-25.041H99.425l-21.686,25.039  c-12.448,14.373-12.448,35.708,0,50.081l0,0c12.448,14.373,12.448,35.708,0,50.081l0,0c-12.448,14.373-12.448,35.708,0,50.081l0,0  c12.448,14.374,12.448,35.708,0,50.082l0,0c-12.448,14.373-12.448,35.708,0,50.081l0,0c12.448,14.373,12.448,35.708,0,50.081l0,0  h356.52V471.982z"/>
<path style="fill:#AD82C6;" d="M132.612,389.378c-71.617,11.45-81.75,75.497-82.772,102.795  c-0.252,6.739,5.157,12.327,11.901,12.327h70.871V389.378z"/>
<path style="opacity:0.1;enable-background:new    ;" d="M121.85,391.617C92.266,420.575,73.293,460.323,71.303,504.5h61.309  V389.378C128.853,389.979,125.279,390.739,121.85,391.617z"/>
<path style="fill:#AD82C6;" d="M379.386,389.378c71.617,11.45,81.75,75.497,82.772,102.795c0.252,6.739-5.157,12.327-11.901,12.327  h-70.871V389.378z"/>
<path style="opacity:0.1;enable-background:new    ;" d="M390.148,391.617c29.584,28.958,48.557,68.706,50.547,112.883h-61.309  V389.378C383.145,389.979,386.719,390.739,390.148,391.617z"/>
<path style="fill:#AD82C6;" d="M424.762,504.5c0-93.205-75.558-168.763-168.763-168.763S87.236,411.295,87.236,504.5H424.762z"/>
<path style="fill:#FFFFFF;" d="M255.999,482.987c-52.295,0-94.841-42.545-94.841-94.841V286.133h189.681v102.013  C350.839,440.442,308.294,482.987,255.999,482.987z"/>
<path style="fill:#F9D7C3;" d="M326.409,388.147c0,38.887-31.524,70.41-70.41,70.41s-70.41-31.524-70.41-70.41v-77.583h140.82  V388.147z"/>
<path style="opacity:0.1;enable-background:new    ;" d="M255.999,335.737c-48.901,0-92.935,20.806-123.757,54.04  c33.858,27.272,76.897,43.607,123.757,43.607c46.861,0,89.899-16.335,123.758-43.607C348.934,356.543,304.9,335.737,255.999,335.737  z"/>
<circle style="fill:#F9D7C3;" cx="255.999" cy="204.95" r="197.45"/>
<g>
	<path style="fill:#EC8087;" d="M152.397,227.308h-32.232c-4.142,0-7.5-3.358-7.5-7.5s3.358-7.5,7.5-7.5h32.232   c4.142,0,7.5,3.358,7.5,7.5S156.539,227.308,152.397,227.308z"/>
	<path style="fill:#EC8087;" d="M391.825,227.308h-32.232c-4.143,0-7.5-3.358-7.5-7.5s3.357-7.5,7.5-7.5h32.232   c4.143,0,7.5,3.358,7.5,7.5S395.968,227.308,391.825,227.308z"/>
</g>
<path style="fill:#E36566;" d="M255.999,7.5c-95.881,0-175.788,68.345-193.691,158.973c15.6,2.513,31.531-4.875,39.482-19.156l0,0  c9.249-16.613,29.297-23.91,47.061-17.129l0,0c17.764,6.781,37.812-0.516,47.061-17.129l0,0  c9.249-16.613,29.297-23.91,47.061-17.129l0,0c17.764,6.781,37.812-0.516,47.061-17.129l0,0c1.127-2.024,2.415-3.908,3.84-5.646  c3.886-4.739,10.483-6.362,16.17-4.078c11.614,4.665,20.599,14.905,23.24,27.865v1.181c0,18.895,17.046,32.812,35.7,29.804  c20.554-3.314,39.609,10.187,43.67,30.113v0.837c0,20.52,19.234,33.746,39.361,29.751c0.257-0.051,0.503-0.042,0.753-0.054  C444.443,87.189,359.533,7.5,255.999,7.5z"/>
<path style="opacity:0.1;enable-background:new    ;" d="M296.825,11.739c-4.716,3.971-8.784,8.819-11.915,14.442  c-8.768,15.748-28.08,22.775-44.916,16.348c-24.187-9.234-51.925,0.862-64.519,23.483c-8.767,15.748-28.076,22.776-44.916,16.348  c-8.89-3.395-18.259-4.168-27.181-2.677c-7.129,8.677-13.53,17.974-19.115,27.795c9.862-11.339,26.146-15.756,40.614-10.233  c24.185,9.233,51.924-0.862,64.519-23.483c8.768-15.749,28.077-22.777,44.916-16.348c6.044,2.307,12.306,3.408,18.502,3.407  c18.6-0.002,36.571-9.922,46.017-26.89c4.36-7.832,11.33-13.505,19.305-16.441C311.194,15.191,304.084,13.265,296.825,11.739z"/>
<path d="M375.717,155.182c-4.143,0-7.5,3.358-7.5,7.5v23.979c0,4.142,3.357,7.5,7.5,7.5s7.5-3.358,7.5-7.5v-23.979  C383.217,158.54,379.859,155.182,375.717,155.182z M456.506,162.451C436.883,69.768,354.44,0,255.999,0  S75.115,69.768,55.492,162.451c-19.61,0.399-35.443,16.464-35.443,36.168v29.865c0,19.953,16.233,36.187,36.187,36.187  c1.219,0,2.43-0.083,3.636-0.205c1.441,4.74,3.05,9.407,4.82,13.996c-6.909,15.951-4.119,34.91,7.378,48.186  c9.939,11.476,9.939,28.785,0,40.262c-12.663,14.623-14.692,35.164-5.65,51.747c-2.988,3.889-5.731,8.062-8.218,12.528  c-12.035,21.613-15.265,44.943-15.855,60.709c-0.199,5.306,1.722,10.335,5.408,14.161c3.693,3.835,8.661,5.946,13.988,5.946h388.516  c5.327,0,10.295-2.112,13.989-5.947c3.686-3.826,5.605-8.855,5.406-14.16c-0.59-15.766-3.82-39.096-15.855-60.709  c-2.487-4.466-5.231-8.639-8.218-12.528c9.042-16.584,7.013-37.125-5.65-51.747c-9.939-11.477-9.939-28.786-0.001-40.262  c11.498-13.276,14.288-32.235,7.379-48.186c1.769-4.589,3.379-9.256,4.82-13.996c1.206,0.122,2.417,0.205,3.636,0.205  c19.954,0,36.188-16.233,36.188-36.187v-29.865C491.949,178.915,476.117,162.85,456.506,162.451z M35.049,228.484v-29.865  c0-10.531,7.732-19.267,17.812-20.892c-1.188,8.909-1.812,17.994-1.812,27.223c0,15.352,1.709,30.31,4.925,44.707  C44.413,249.515,35.049,240.078,35.049,228.484z M255.999,15c96.918,0,177.105,72.964,188.542,166.844  c-6.078-0.049-11.821-2.028-16.334-5.733c-5.193-4.264-8.054-10.384-8.054-17.233v-0.836c0-0.503-0.051-1.005-0.151-1.497  c-4.916-24.128-27.857-39.948-52.212-36.02c-6.912,1.116-13.872-0.803-19.102-5.257c-5.098-4.342-7.905-10.43-7.905-17.143v-1.181  c0-0.503-0.051-1.004-0.151-1.498c-3.079-15.115-13.47-27.574-27.793-33.328c-8.823-3.543-18.775-1.019-24.764,6.283  c-1.721,2.097-3.266,4.369-4.593,6.753c-7.386,13.266-23.653,19.185-37.834,13.771c-21.104-8.054-45.301,0.754-56.289,20.487  c-7.386,13.265-23.652,19.185-37.834,13.771c-21.103-8.055-45.301,0.753-56.289,20.487c-4.924,8.845-13.852,14.54-23.62,15.591  C92.127,76.519,167.008,15,255.999,15z M83.408,376.729c14.788-17.075,14.788-42.827,0-59.901c-3.098-3.578-5.255-7.77-6.429-12.199  c15.182,27.158,36.359,50.524,61.734,68.295c-3.423,3.048-6.702,6.219-9.852,9.49c-20.613,3.704-37.793,11.8-51.372,24.177  C74.092,396.501,76.11,385.156,83.408,376.729z M61.741,497c-1.213,0-2.345-0.48-3.185-1.353c-0.482-0.5-1.281-1.581-1.221-3.193  c0.433-11.565,2.824-33.954,13.971-53.973c9.341-16.774,23.01-28.74,40.741-35.799C92.59,430.094,81.344,462.659,79.91,497H61.741z   M94.907,497c2.052-44.919,22.492-86.464,56.941-115.604c0.603,0.358,1.204,0.72,1.811,1.072v5.679  c0,56.431,45.91,102.341,102.341,102.341s102.34-45.91,102.34-102.341v-5.679c0.608-0.352,1.208-0.715,1.812-1.072  c34.447,29.139,54.887,70.685,56.94,115.604H94.907z M201.403,443.715c14.653,14.407,34.043,22.342,54.596,22.342  s39.942-7.935,54.596-22.342c13.432-13.206,21.481-30.484,23.009-49.089c3.279-1.346,6.516-2.774,9.708-4.283  c-1.17,47.148-39.887,85.144-87.312,85.144s-86.143-37.996-87.313-85.144c3.192,1.509,6.43,2.937,9.709,4.283  C179.923,413.231,187.972,430.509,201.403,443.715z M194.317,400.409c19.476,6.16,40.196,9.491,61.682,9.491  s42.207-3.331,61.682-9.491c-2.424,12.317-8.47,23.63-17.603,32.61c-11.83,11.632-27.484,18.038-44.079,18.038  c-16.594,0-32.249-6.406-44.08-18.038C202.787,424.039,196.741,412.726,194.317,400.409z M440.692,438.481  c11.147,20.019,13.537,42.408,13.97,53.973c0.06,1.613-0.738,2.692-1.22,3.192c-0.841,0.872-1.972,1.353-3.186,1.353h-18.167  c-1.435-34.341-12.68-66.906-32.136-94.318C417.683,409.742,431.352,421.708,440.692,438.481z M428.589,316.828  c-14.786,17.075-14.786,42.826,0,59.901c7.299,8.427,9.317,19.772,5.921,29.862c-13.579-12.377-30.759-20.473-51.372-24.177  c-3.15-3.271-6.429-6.442-9.853-9.49c25.375-17.772,46.552-41.137,61.734-68.295C433.845,309.058,431.688,313.25,428.589,316.828z   M255.999,394.9c-104.739,0-189.95-85.211-189.95-189.95c0-10.382,0.85-20.568,2.461-30.502  c16.318-0.066,31.724-8.919,39.833-23.483c7.385-13.265,23.65-19.184,37.833-13.771c21.104,8.056,45.302-0.752,56.289-20.488  c7.384-13.264,23.647-19.185,37.833-13.77c21.101,8.054,45.3-0.752,56.289-20.487c0.893-1.604,1.931-3.13,3.085-4.538  c1.786-2.177,4.898-2.95,7.576-1.876c9.407,3.779,16.291,11.86,18.534,21.703v0.384c0,11.018,4.804,21.429,13.179,28.562  c8.583,7.309,19.959,10.462,31.216,8.646c16.152-2.605,31.375,7.685,34.976,23.506v0.039c0,11.422,4.807,21.66,13.535,28.826  c7.282,5.979,16.464,9.145,26.072,9.145c0.333,0,0.669-0.016,1.003-0.023c0.114,2.696,0.185,5.402,0.185,8.126  C445.949,309.689,360.738,394.9,255.999,394.9z M476.949,228.484c0,11.594-9.364,21.031-20.925,21.173  c3.216-14.397,4.925-29.355,4.925-44.707c0-9.229-0.624-18.314-1.812-27.223c10.08,1.625,17.812,10.361,17.812,20.892V228.484z   M136.281,155.182c-4.142,0-7.5,3.358-7.5,7.5v23.979c0,4.142,3.358,7.5,7.5,7.5s7.5-3.358,7.5-7.5v-23.979  C143.781,158.54,140.423,155.182,136.281,155.182z M280.564,203.633c-3.329-2.469-8.024-1.771-10.492,1.555  c-3.357,4.525-8.486,7.12-14.073,7.12s-10.716-2.595-14.073-7.12c-2.468-3.327-7.165-4.023-10.492-1.555  c-3.327,2.468-4.023,7.165-1.555,10.492c6.124,8.255,15.888,13.184,26.12,13.184c10.231,0,19.996-4.928,26.12-13.184  C284.587,210.798,283.891,206.101,280.564,203.633z"/>
<g>
</g>
<g>
</g>
<g>
</g>
<g>
</g>
<g>
</g>
<g>
</g>
<g>
</g>
<g>
</g>
<g>
</g>
<g>
</g>
<g>
</g>
<g>
</g>
<g>
</g>
<g>
</g>
<g>
</g>
</svg>
