<?xml version="1.0" encoding="iso-8859-1"?>
<!-- Generator: Adobe Illustrator 19.0.0, SVG Export Plug-In . SVG Version: 6.00 Build 0)  -->
<svg xmlns="http://www.w3.org/2000/svg" xmlns:xlink="http://www.w3.org/1999/xlink" version="1.1" id="Layer_1" x="0px" y="0px" viewBox="0 0 511.998 511.998" style="enable-background:new 0 0 511.998 511.998;" xml:space="preserve">
<circle style="fill:#F2BE89;" cx="104.919" cy="234.54" r="36.34"/>
<circle style="opacity:0.15;fill:#EC8087;enable-background:new    ;" cx="104.919" cy="234.54" r="36.34"/>
<path style="opacity:0.1;enable-background:new    ;" d="M104.92,198.202c-4.149,0-8.132,0.705-11.846,1.986  c-0.338,4.127-0.519,8.298-0.519,12.512v46.741c0,3.148,0.108,6.27,0.298,9.37c3.777,1.33,7.836,2.061,12.068,2.061  c20.067,0,36.334-16.267,36.334-36.335C141.254,214.469,124.987,198.202,104.92,198.202z"/>
<circle style="fill:#F2BE89;" cx="407.079" cy="234.54" r="36.34"/>
<circle style="opacity:0.15;fill:#EC8087;enable-background:new    ;" cx="407.079" cy="234.54" r="36.34"/>
<path style="opacity:0.1;enable-background:new    ;" d="M407.079,198.202c4.149,0,8.132,0.705,11.846,1.986  c0.339,4.127,0.52,8.298,0.52,12.512v46.741c0,3.148-0.108,6.27-0.298,9.37c-3.777,1.33-7.836,2.061-12.068,2.061  c-20.067,0-36.335-16.267-36.335-36.335S387.012,198.202,407.079,198.202z"/>
<path style="fill:#394049;" d="M141.254,397.441C74.653,408.09,65.23,467.65,64.279,493.036  c-0.234,6.267,4.796,11.464,11.067,11.464h65.908V397.441z"/>
<path style="opacity:0.3;enable-background:new    ;" d="M131.246,399.523c-27.513,26.93-45.157,63.894-47.007,104.977h57.015  V397.441C137.758,398,134.434,398.707,131.246,399.523z"/>
<path style="fill:#394049;" d="M370.744,397.441c66.601,10.648,76.025,70.209,76.975,95.595c0.234,6.267-4.796,11.464-11.067,11.464  h-65.908L370.744,397.441L370.744,397.441z"/>
<path style="opacity:0.3;enable-background:new    ;" d="M380.752,399.523c27.512,26.929,45.156,63.894,47.007,104.977h-57.015  V397.441C374.24,398,377.564,398.707,380.752,399.523z"/>
<path style="fill:#394049;" d="M412.943,504.5c0-86.677-70.266-156.944-156.944-156.944S99.056,417.823,99.056,504.5H412.943z"/>
<polygon style="fill:#E8E8E8;" points="320.984,410.52 191.014,410.52 214.362,504.5 297.636,504.5 "/>
<polygon style="fill:#E36566;" points="267.711,395.72 244.279,395.72 237.412,504.5 274.579,504.5 "/>
<g>
	<path style="fill:#FFFFFF;" d="M178.726,372.386l-13.118,56.428c-1.572,6.761,4.974,12.574,11.502,10.215l78.889-28.509   L178.726,372.386z"/>
	<path style="fill:#FFFFFF;" d="M333.271,372.386l13.118,56.428c1.572,6.761-4.974,12.574-11.502,10.215l-78.888-28.509   L333.271,372.386z"/>
</g>
<path style="opacity:0.1;enable-background:new    ;" d="M255.999,347.556c-40.07,0-76.626,15.025-104.361,39.737  c26.25,27.554,63.3,44.726,104.361,44.726l0,0c41.061,0,78.111-17.172,104.361-44.726  C332.625,362.581,296.069,347.556,255.999,347.556z"/>
<path style="fill:#F2BE89;" d="M255.999,61.62L255.999,61.62c-83.439,0-151.08,67.641-151.08,151.079v46.741  c0,83.439,67.641,151.079,151.079,151.079l0,0c83.439,0,151.079-67.641,151.079-151.079v-46.741  C407.078,129.26,339.438,61.62,255.999,61.62z"/>
<g>
	<path style="fill:#EC8087;" d="M168.658,281.021h-30.382c-4.142,0-7.5-3.358-7.5-7.5s3.358-7.5,7.5-7.5h30.382   c4.142,0,7.5,3.358,7.5,7.5S172.8,281.021,168.658,281.021z"/>
	<path style="fill:#EC8087;" d="M373.722,281.021h-30.381c-4.142,0-7.5-3.358-7.5-7.5s3.358-7.5,7.5-7.5h30.381   c4.142,0,7.5,3.358,7.5,7.5S377.864,281.021,373.722,281.021z"/>
</g>
<path style="fill:#394049;" d="M326.601,7.5H185.397c-7.451,0-13.49,6.04-13.49,13.49v58.242h168.184V20.99  C340.091,13.54,334.051,7.5,326.601,7.5z"/>
<polyline style="fill:#E36566;" points="340.091,79.233 340.091,54.856 171.907,54.856 171.907,79.233 "/>
<path style="fill:#394049;" d="M360.553,101.68H151.445c-2.863,0-5.183-2.32-5.183-5.183V84.415c0-2.862,2.32-5.183,5.183-5.183  h209.108c2.862,0,5.183,2.321,5.183,5.183v12.081C365.736,99.359,363.416,101.68,360.553,101.68z"/>
<g>
	<path style="fill:#E8E8E8;" d="M152.004,128.017h-40.997c-5.499,0-9.956,4.457-9.956,9.956v26.497c0,5.499,4.457,9.956,9.956,9.956   h40.997c5.499,0,9.956-4.457,9.956-9.956v-26.497C161.961,132.474,157.503,128.017,152.004,128.017z"/>
	<path style="fill:#E8E8E8;" d="M359.993,128.017h40.997c5.499,0,9.956,4.457,9.956,9.956v26.497c0,5.499-4.458,9.956-9.956,9.956   h-40.997c-5.499,0-9.956-4.457-9.956-9.956v-26.497C350.037,132.474,354.495,128.017,359.993,128.017z"/>
</g>
<path d="M351.035,219.675v22.602c0,4.142,3.358,7.5,7.5,7.5s7.5-3.358,7.5-7.5v-22.602c0-4.142-3.358-7.5-7.5-7.5  S351.035,215.533,351.035,219.675z M255.999,281.319c9.286,0,18.147-4.472,23.704-11.962c2.468-3.327,1.772-8.024-1.555-10.492  c-3.326-2.467-8.023-1.771-10.492,1.555c-2.782,3.75-7.03,5.9-11.657,5.9s-8.876-2.15-11.658-5.9  c-2.469-3.327-7.167-4.022-10.492-1.555c-3.327,2.468-4.022,7.166-1.555,10.492C237.852,276.847,246.713,281.319,255.999,281.319z   M440.403,436.064c-11.149-20.022-27.708-33.861-49.366-41.315c3.79-20.806,5.832-43.106,6.859-64.565  c8.046-16.073,13.438-33.694,15.603-52.287c21.137-3.116,37.414-21.371,37.414-43.36c0-22.127-16.482-40.465-37.811-43.411  c-0.564-4.137-1.292-8.247-2.179-12.32c4.54-3.155,7.523-8.401,7.523-14.336v-26.496c0-9.626-7.831-17.456-17.456-17.456h-15.955  c-4.256-5.945-8.935-11.598-13.981-16.917c1.376-2.028,2.182-4.473,2.182-7.103V84.415c0-6.994-5.689-12.683-12.683-12.683h-12.962  V20.99c0-11.574-9.416-20.99-20.99-20.99H185.397c-11.574,0-20.99,9.416-20.99,20.99v50.742h-12.962  c-6.994,0-12.683,5.689-12.683,12.683v12.081c0,2.63,0.806,5.075,2.182,7.103c-5.046,5.318-9.725,10.972-13.981,16.917h-15.955  c-9.626,0-17.456,7.831-17.456,17.456v26.496c0,5.936,2.983,11.181,7.523,14.336c-0.887,4.073-1.615,8.183-2.179,12.32  c-21.329,2.946-37.811,21.284-37.811,43.411c0,21.989,16.277,40.244,37.415,43.36c4.621,39.683,23.947,74.938,52.375,100.161  c-4.661,3.885-9.103,8.035-13.312,12.409c-29.935,5.406-52.122,20.734-65.967,45.597c-11.243,20.19-14.26,41.974-14.811,56.693  c-0.19,5.078,1.648,9.892,5.175,13.553c3.535,3.669,8.289,5.69,13.386,5.69h361.305c5.098,0,9.852-2.021,13.387-5.69  c3.527-3.662,5.365-8.475,5.175-13.554C454.662,478.037,451.645,456.253,440.403,436.064z M435.913,234.537  c0,13.326-9.089,24.565-21.372,27.855c0.018-0.982,0.038-1.964,0.038-2.95V212.7c0-2.015-0.05-4.027-0.126-6.038  C426.79,209.928,435.913,221.186,435.913,234.537z M97.457,262.386c-12.293-3.297-21.372-14.531-21.372-27.85  c0-13.354,9.126-24.613,21.461-27.877c-0.076,2.011-0.126,4.024-0.126,6.04v46.742C97.419,260.426,97.439,261.406,97.457,262.386z   M400.99,135.517c1.354,0,2.456,1.102,2.456,2.456v26.496c0,1.355-1.102,2.456-2.456,2.456h-40.997  c-1.355,0-2.456-1.102-2.456-2.456v-26.496c0-1.355,1.102-2.456,2.456-2.456H400.99z M179.407,20.99c0-3.303,2.687-5.99,5.99-5.99  h141.204c3.303,0,5.99,2.687,5.99,5.99v50.742H179.407V20.99z M153.762,86.732h204.474v7.447H153.762V86.732z M108.552,164.469  v-26.496c0-1.355,1.102-2.456,2.456-2.456h40.997c1.355,0,2.456,1.102,2.456,2.456v26.496c0,1.355-1.102,2.456-2.456,2.456h-40.997  C109.653,166.925,108.552,165.824,108.552,164.469z M112.419,259.441v-46.742c0-10.38,1.127-20.703,3.326-30.774h36.259  c9.626,0,17.456-7.831,17.456-17.456v-26.496c0-9.626-7.831-17.456-17.456-17.456h-6.062c3.323-3.96,6.86-7.748,10.595-11.337  h198.922c3.735,3.589,7.272,7.376,10.595,11.337h-6.062c-9.625,0-17.456,7.831-17.456,17.456v26.496  c0,9.626,7.831,17.456,17.456,17.456h36.26c2.199,10.071,3.326,20.394,3.326,30.774v46.742c0,5.24-0.29,10.413-0.84,15.509  c-0.125-10.755-0.369-20.438-0.574-28.524c-0.167-6.622-0.3-11.852-0.3-15.45c0-21.689-17.645-39.334-39.333-39.334  c-21.689,0-39.334,17.645-39.334,39.334s17.645,39.334,39.334,39.334c9.476,0,18.18-3.369,24.978-8.971  c0.355,17.647,0.545,40.684-0.523,65.042c-24.103,45.537-71.977,76.639-126.987,76.639  C176.829,403.02,112.419,338.611,112.419,259.441z M382.865,230.976c0,13.418-10.916,24.334-24.333,24.334  c-13.418,0-24.334-10.916-24.334-24.334s10.916-24.334,24.334-24.334C371.949,206.643,382.865,217.559,382.865,230.976z   M380.933,357c-1.068,11.509-2.505,22.933-4.423,33.864c-0.688-0.137-1.378-0.272-2.074-0.397  c-4.208-4.374-8.65-8.524-13.312-12.409C368.343,371.653,374.979,364.607,380.933,357z M338.696,431.734  c-0.558,0.496-1.085,0.305-1.259,0.241l-48.289-17.451c15.084-3.221,29.383-8.585,42.554-15.771l7.383,31.759  C339.126,430.692,339.253,431.239,338.696,431.734z M222.851,414.524l-48.29,17.451c-0.173,0.064-0.701,0.254-1.259-0.241  s-0.431-1.042-0.389-1.222l7.383-31.759C193.468,405.939,207.767,411.303,222.851,414.524z M75.346,497  c-1.328,0-2.188-0.687-2.584-1.097c-0.39-0.405-1.038-1.28-0.989-2.586c0.401-10.708,2.613-31.436,12.926-49.957  c8.356-15.006,20.465-25.849,36.105-32.443c-4.084,5.879-7.797,12.009-11.07,18.359C98.981,450.145,92.829,473.413,91.746,497  H75.346z M106.737,497c1.036-21.371,6.517-41.806,16.333-60.851c9.62-18.665,23.305-35.319,39.757-48.471  c1.316,0.958,2.644,1.901,3.99,2.819l-8.513,36.619c-1.35,5.807,0.581,11.875,5.038,15.833c3.025,2.687,6.876,4.103,10.791,4.103  c1.855,0,3.725-0.318,5.527-0.969l11.435-4.132L204.77,497H106.737z M291.771,497h-71.545l-14.949-60.175l50.722-18.33l50.722,18.33  L291.771,497z M307.227,497l13.676-55.05l11.435,4.132c1.803,0.651,3.672,0.969,5.527,0.969c3.915,0,7.766-1.416,10.791-4.103  c4.458-3.959,6.388-10.026,5.038-15.833l-8.513-36.618c1.346-0.919,2.674-1.861,3.99-2.82c8.515,6.808,16.291,14.55,23.142,23.03  c-5.217,20.672-12.706,38.229-23.402,49.19h-15.904c-4.142,0-7.5,3.358-7.5,7.5s3.358,7.5,7.5,7.5h39.42c4.142,0,7.5-3.358,7.5-7.5  s-3.358-7.5-7.5-7.5h-4.398c6.286-9.383,11.324-20.814,15.35-33.544c1.97,3.198,3.831,6.461,5.549,9.796  c9.815,19.045,15.296,39.48,16.333,60.851L307.227,497L307.227,497z M439.235,495.903c-0.395,0.41-1.255,1.097-2.584,1.097h-16.399  c-1.083-23.587-7.235-46.855-17.99-67.723c-3.273-6.35-6.986-12.48-11.07-18.359c15.641,6.594,27.749,17.437,36.105,32.442  c10.313,18.52,12.526,39.249,12.927,49.956C440.273,494.623,439.625,495.498,439.235,495.903z M160.963,242.277v-22.602  c0-4.142-3.358-7.5-7.5-7.5s-7.5,3.358-7.5,7.5v22.602c0,4.142,3.358,7.5,7.5,7.5S160.963,246.419,160.963,242.277z"/>
<g>
</g>
<g>
</g>
<g>
</g>
<g>
</g>
<g>
</g>
<g>
</g>
<g>
</g>
<g>
</g>
<g>
</g>
<g>
</g>
<g>
</g>
<g>
</g>
<g>
</g>
<g>
</g>
<g>
</g>
</svg>
