<?xml version="1.0" encoding="iso-8859-1"?>
<!-- Generator: Adobe Illustrator 19.0.0, SVG Export Plug-In . SVG Version: 6.00 Build 0)  -->
<svg xmlns="http://www.w3.org/2000/svg" xmlns:xlink="http://www.w3.org/1999/xlink" version="1.1" id="Layer_1" x="0px" y="0px" viewBox="0 0 512 512" style="enable-background:new 0 0 512 512;" xml:space="preserve">
<path style="fill:#AD82C6;" d="M142.029,398.159c-66.155,10.577-75.515,69.739-76.459,94.955  c-0.233,6.225,4.764,11.387,10.993,11.387h65.466V398.159z"/>
<path style="opacity:0.1;enable-background:new    ;" d="M132.088,400.227C104.76,426.976,87.234,463.693,85.396,504.5h56.633  V398.159C138.556,398.714,135.254,399.416,132.088,400.227z"/>
<path style="fill:#AD82C6;" d="M369.98,398.159c66.155,10.577,75.515,69.739,76.459,94.955c0.233,6.225-4.764,11.387-10.993,11.387  H369.98L369.98,398.159L369.98,398.159z"/>
<path style="opacity:0.1;enable-background:new    ;" d="M379.922,400.227c27.328,26.749,44.854,63.466,46.692,104.273h-56.633  V398.159C373.453,398.714,376.755,399.416,379.922,400.227z"/>
<path style="fill:#394049;" d="M411.896,504.5c0-86.096-69.795-155.892-155.892-155.892c-86.096,0-155.892,69.795-155.892,155.892  H411.896z"/>
<path style="opacity:0.1;enable-background:new    ;" d="M256.005,348.608c-45.171,0-85.847,19.22-114.318,49.918  c31.276,25.192,71.032,40.281,114.318,40.281s83.042-15.089,114.318-40.281C341.852,367.828,301.176,348.608,256.005,348.608z"/>
<circle style="fill:#F6CDB5;" cx="73.611" cy="227.8" r="42.45"/>
<circle style="opacity:0.15;fill:#EC8087;enable-background:new    ;" cx="73.611" cy="227.8" r="42.45"/>
<path style="opacity:0.07;enable-background:new    ;" d="M73.614,185.343c-3.469,0-6.838,0.426-10.066,1.211  c-3.064,13.253-4.683,27.059-4.683,41.243c0,14.184,1.62,27.99,4.683,41.243c3.228,0.785,6.596,1.211,10.066,1.211  c23.446,0,42.454-19.007,42.454-42.454S97.061,185.343,73.614,185.343z"/>
<circle style="fill:#F6CDB5;" cx="438.391" cy="227.8" r="42.45"/>
<circle style="opacity:0.15;fill:#EC8087;enable-background:new    ;" cx="438.391" cy="227.8" r="42.45"/>
<path style="opacity:0.07;enable-background:new    ;" d="M438.395,185.343c3.469,0,6.838,0.426,10.066,1.211  c3.064,13.253,4.683,27.059,4.683,41.243c0,14.184-1.62,27.99-4.683,41.243c-3.228,0.785-6.596,1.211-10.066,1.211  c-23.447,0-42.454-19.007-42.454-42.454S414.949,185.343,438.395,185.343z"/>
<circle style="fill:#F6CDB5;" cx="256.001" cy="227.8" r="182.39"/>
<g>
	<path style="fill:#EC8087;" d="M160.305,249.022h-29.774c-4.142,0-7.5-3.358-7.5-7.5s3.358-7.5,7.5-7.5h29.774   c4.142,0,7.5,3.358,7.5,7.5S164.447,249.022,160.305,249.022z"/>
	<path style="fill:#EC8087;" d="M381.472,249.022h-29.774c-4.142,0-7.5-3.358-7.5-7.5s3.358-7.5,7.5-7.5h29.774   c4.142,0,7.5,3.358,7.5,7.5S385.614,249.022,381.472,249.022z"/>
</g>
<path style="fill:#4DB1E0;" d="M256.001,7.5L256.001,7.5c-9.418,0-17.369,6.996-18.568,16.337l-10.337,80.52  c-2.237,17.425,11.337,32.853,28.905,32.853l0,0c17.568,0,31.142-15.428,28.905-32.853l-10.337-80.52  C273.37,14.496,265.419,7.5,256.001,7.5z"/>
<path style="fill:#FFFFFF;" d="M311.135,504.5c0-30.447-24.683-55.13-55.13-55.13s-55.13,24.683-55.13,55.13H311.135z"/>
<path d="M366.592,181.253c-4.142,0-7.5,3.358-7.5,7.5v22.15c0,4.142,3.358,7.5,7.5,7.5s7.5-3.358,7.5-7.5v-22.15  C374.092,184.611,370.734,181.253,366.592,181.253z M484.202,247.683c2.657-6.098,4.14-12.82,4.14-19.886  c0-27.259-21.951-49.475-49.104-49.932c-19.397-71.316-79.367-126.604-155.031-137.853l-2.199-17.13  C280.333,9.837,269.153,0,256.001,0s-24.333,9.837-26.007,22.882l-2.199,17.131c-75.66,11.251-135.627,66.539-155.023,137.852  c-27.156,0.453-49.112,22.67-49.112,49.932c0,7.065,1.483,13.788,4.14,19.886c-6.149,5.995-9.046,14.861-7.212,23.584  c0.001,0.003,0.001,0.006,0.001,0.009c0.035,0.166,0.087,0.323,0.125,0.487c0.015,0.053,0.026,0.109,0.042,0.161  c2.777,11.672,13.236,19.656,24.851,19.656c1.74,0,3.507-0.18,5.277-0.552c7.904-1.665,14.182-6.838,17.562-13.544  c1.43,0.148,2.881,0.222,4.344,0.246c11.762,43.112,38.363,80.162,73.96,105.291c-2.932,2.633-5.753,5.361-8.467,8.172  c-29.715,5.384-51.741,20.614-65.49,45.304c-11.172,20.063-14.17,41.709-14.717,56.335c-0.189,5.058,1.641,9.852,5.154,13.499  c3.521,3.656,8.256,5.669,13.333,5.669h358.883c5.077,0,9.813-2.013,13.333-5.668c3.513-3.647,5.344-8.441,5.154-13.5  c-0.547-14.625-3.545-36.271-14.718-56.335c-13.749-24.69-35.775-39.921-65.49-45.304c-2.714-2.811-5.534-5.539-8.467-8.172  c35.597-25.129,62.197-62.179,73.96-105.291c1.461-0.024,2.909-0.099,4.337-0.246c3.38,6.707,9.658,11.88,17.562,13.544  c1.771,0.373,3.536,0.552,5.277,0.552c11.614,0,22.074-7.986,24.851-19.656c0.015-0.049,0.024-0.1,0.038-0.149  c0.039-0.168,0.093-0.33,0.128-0.5c0.001-0.003,0.001-0.006,0.001-0.009C493.248,262.544,490.35,253.678,484.202,247.683z   M47.792,276.351c-5.704,1.195-11.324-2.462-12.525-8.167v-0.001c-0.528-2.512-0.105-5.051,1.053-7.2  c4.661,5.233,10.404,9.475,16.875,12.386C51.779,274.831,49.929,275.901,47.792,276.351z M66.114,227.797  c0,9.828,0.751,19.485,2.198,28.915c-1.719-1.546-4.123-2.285-6.56-1.771c-2.14,0.451-3.865,1.776-4.899,3.519  C46.021,252.515,38.66,241,38.66,227.796c0-17.808,13.389-32.537,30.627-34.676C67.206,204.383,66.114,215.974,66.114,227.797z   M234.535,105.312l10.337-80.52c0.716-5.583,5.501-9.792,11.129-9.792c5.628,0,10.413,4.209,11.129,9.792l10.337,80.52  c0.792,6.168-1.11,12.383-5.218,17.052c-4.108,4.668-10.03,7.346-16.249,7.346s-12.141-2.678-16.249-7.347  C235.645,117.695,233.743,111.48,234.535,105.312z M76.563,497c-1.301,0-2.144-0.673-2.53-1.074  c-0.382-0.397-1.016-1.253-0.968-2.532c0.398-10.631,2.594-31.211,12.834-49.599c8.247-14.811,20.174-25.539,35.572-32.095  c-17.255,24.931-27.276,54.323-28.672,85.3H76.563z M426.111,443.795c10.239,18.387,12.435,38.967,12.833,49.598  c0.048,1.279-0.586,2.135-0.968,2.532c-0.387,0.401-1.229,1.074-2.53,1.074h-16.235c-1.397-30.977-11.418-60.368-28.672-85.3  C405.937,418.256,417.864,428.985,426.111,443.795z M404.21,497H107.799c2.034-40.971,20.7-78.843,52.06-105.514  c28.218,16.638,61.084,26.201,96.145,26.201c35.062,0,67.927-9.563,96.146-26.202C383.51,418.157,402.176,456.029,404.21,497z   M256.004,402.688c-96.435,0-174.89-78.456-174.89-174.891c0-85.43,61.552-157.842,144.689-172.271l-6.146,47.876  c-1.341,10.442,1.879,20.965,8.833,28.87c6.955,7.905,16.982,12.438,27.511,12.438c10.528,0,20.555-4.534,27.51-12.438  c6.955-7.905,10.175-18.428,8.834-28.871l-6.147-47.878c83.141,14.426,144.696,86.839,144.696,172.273  C430.895,324.232,352.439,402.688,256.004,402.688z M450.25,254.941c-2.432-0.511-4.833,0.225-6.552,1.766  c1.446-9.429,2.197-19.083,2.197-28.91c0-11.822-1.091-23.413-3.173-34.675c17.235,2.143,30.62,16.87,30.62,34.675  c0,13.204-7.361,24.719-18.193,30.664C454.115,256.717,452.389,255.392,450.25,254.941z M476.735,268.183L476.735,268.183  c-1.202,5.706-6.823,9.364-12.525,8.168c-2.137-0.45-3.987-1.52-5.402-2.982c6.47-2.911,12.213-7.153,16.875-12.386  C476.841,263.132,477.263,265.671,476.735,268.183z M279.037,226.12c-3.326-2.466-8.023-1.771-10.492,1.556  c-2.991,4.033-7.562,6.346-12.54,6.346s-9.549-2.313-12.54-6.346c-2.468-3.327-7.165-4.023-10.492-1.556  c-3.327,2.468-4.023,7.165-1.556,10.492c5.764,7.77,14.956,12.41,24.588,12.41c9.632,0,18.823-4.639,24.587-12.41  C283.06,233.286,282.363,228.588,279.037,226.12z M145.418,181.253c-4.142,0-7.5,3.358-7.5,7.5v22.15c0,4.142,3.358,7.5,7.5,7.5  s7.5-3.358,7.5-7.5v-22.15C152.918,184.611,149.56,181.253,145.418,181.253z"/>
<g>
</g>
<g>
</g>
<g>
</g>
<g>
</g>
<g>
</g>
<g>
</g>
<g>
</g>
<g>
</g>
<g>
</g>
<g>
</g>
<g>
</g>
<g>
</g>
<g>
</g>
<g>
</g>
<g>
</g>
</svg>
