<?xml version="1.0" encoding="iso-8859-1"?>
<!-- Generator: Adobe Illustrator 19.0.0, SVG Export Plug-In . SVG Version: 6.00 Build 0)  -->
<svg xmlns="http://www.w3.org/2000/svg" xmlns:xlink="http://www.w3.org/1999/xlink" version="1.1" id="Layer_1" x="0px" y="0px" viewBox="0 0 512 512" style="enable-background:new 0 0 512 512;" xml:space="preserve">
<path style="fill:#F4C53D;" d="M423.235,431.832c41.61,0,75.341-33.731,75.341-75.341c0-21.995-9.43-41.783-24.461-55.557  c9.458-12.592,15.065-28.241,15.065-45.202c0-26.275-13.458-49.397-33.849-62.879c5.392-10.381,8.457-22.165,8.457-34.671  c0-33.153-21.424-61.284-51.175-71.358C405.361,41.852,366.38,7.5,319.361,7.5C294.98,7.5,272.76,16.739,256,31.902  C239.24,16.739,217.02,7.5,192.639,7.5c-47.019,0-85.999,34.352-93.252,79.325c-29.751,10.073-51.175,38.204-51.175,71.358  c0,12.506,3.065,24.29,8.457,34.671c-20.391,13.483-33.849,36.604-33.849,62.879c0,16.96,5.607,32.61,15.065,45.202  c-15.031,13.774-24.461,33.562-24.461,55.557c0,41.61,33.731,75.341,75.341,75.341h334.47V431.832z"/>
<circle style="fill:#FADDCC;" cx="104.06" cy="233" r="36.542"/>
<path style="opacity:0.1;enable-background:new    ;" d="M104.059,196.455c-4.173,0-8.178,0.709-11.914,1.997  c-0.34,4.15-0.522,8.345-0.522,12.583v47.008c0,3.166,0.108,6.305,0.299,9.423c3.798,1.337,7.881,2.073,12.137,2.073  c20.181,0,36.542-16.36,36.542-36.542C140.6,212.815,124.24,196.455,104.059,196.455z"/>
<circle style="fill:#FADDCC;" cx="407.94" cy="233" r="36.542"/>
<path style="opacity:0.1;enable-background:new    ;" d="M407.941,196.455c4.173,0,8.178,0.709,11.914,1.997  c0.34,4.15,0.522,8.345,0.522,12.583v47.008c0,3.166-0.108,6.305-0.299,9.423c-3.798,1.337-7.881,2.073-12.137,2.073  c-20.182,0-36.542-16.36-36.542-36.542C371.399,212.815,387.759,196.455,407.941,196.455z"/>
<path style="fill:#E36566;" d="M140.6,396.831c-66.981,10.709-76.458,70.61-77.414,96.14c-0.236,6.303,4.823,11.529,11.13,11.529  H140.6V396.831z"/>
<path style="opacity:0.08;enable-background:new    ;" d="M130.535,398.924C102.866,426.008,85.121,463.183,83.26,504.5h57.34  V396.831C137.084,397.393,133.742,398.103,130.535,398.924z"/>
<path style="fill:#E36566;" d="M371.399,396.831c66.981,10.709,76.458,70.61,77.414,96.14c0.236,6.303-4.823,11.529-11.13,11.529  h-66.284V396.831z"/>
<path style="opacity:0.08;enable-background:new    ;" d="M381.464,398.924c27.669,27.083,45.414,64.258,47.275,105.576h-57.341  V396.831C374.915,397.393,378.258,398.103,381.464,398.924z"/>
<path style="fill:#E36566;" d="M413.839,504.5c0-87.172-70.667-157.839-157.839-157.839S98.161,417.328,98.161,504.5H413.839z"/>
<path style="opacity:0.2;fill:#FFFFFF;enable-background:new    ;" d="M155.82,382.527V504.5h15.974V371.719h-1.158  C165.484,375.038,160.537,378.648,155.82,382.527z M341.365,371.719h-1.158V504.5h15.974V382.527  C351.464,378.648,346.516,375.038,341.365,371.719z M248.013,504.5h15.974V371.719h-15.974V504.5z"/>
<path style="opacity:0.1;enable-background:new    ;" d="M256,346.661c-40.298,0-77.063,15.11-104.955,39.964  c26.4,27.711,63.66,44.981,104.955,44.981l0,0c41.295,0,78.556-17.27,104.956-44.981C333.063,361.772,296.298,346.661,256,346.661z"/>
<g>
	<path id="SVGCleanerId_0" style="fill:#FADDCC;" d="M256,59.094L256,59.094c-83.915,0-151.941,68.026-151.941,151.941v47.008   c0,83.915,68.026,151.941,151.941,151.941l0,0c83.915,0,151.941-68.026,151.941-151.941v-47.008   C407.941,127.121,339.915,59.094,256,59.094z"/>
</g>
<g>
	<path id="SVGCleanerId_0_1_" style="fill:#FADDCC;" d="M256,59.094L256,59.094c-83.915,0-151.941,68.026-151.941,151.941v47.008   c0,83.915,68.026,151.941,151.941,151.941l0,0c83.915,0,151.941-68.026,151.941-151.941v-47.008   C407.941,127.121,339.915,59.094,256,59.094z"/>
</g>
<g>
	<path id="SVGCleanerId_0_2_" style="fill:#FADDCC;" d="M256,59.094L256,59.094c-83.915,0-151.941,68.026-151.941,151.941v47.008   c0,83.915,68.026,151.941,151.941,151.941l0,0c83.915,0,151.941-68.026,151.941-151.941v-47.008   C407.941,127.121,339.915,59.094,256,59.094z"/>
</g>
<g>
	<path style="fill:#EC8087;" d="M168.16,267.423h-30.555c-4.143,0-7.5-3.358-7.5-7.5s3.357-7.5,7.5-7.5h30.555   c4.143,0,7.5,3.358,7.5,7.5S172.303,267.423,168.16,267.423z"/>
	<path style="fill:#EC8087;" d="M374.395,267.423H343.84c-4.143,0-7.5-3.358-7.5-7.5s3.357-7.5,7.5-7.5h30.555   c4.143,0,7.5,3.358,7.5,7.5S378.536,267.423,374.395,267.423z"/>
</g>
<path style="fill:#E36566;" d="M256,267.724c-9.325,0-18.225-4.491-23.806-12.014c-2.468-3.327-1.771-8.025,1.555-10.492  c3.327-2.467,8.024-1.771,10.492,1.555c2.806,3.782,7.092,5.951,11.759,5.951c4.667,0,8.952-2.169,11.758-5.951  c2.468-3.325,7.166-4.023,10.492-1.555c3.326,2.468,4.022,7.165,1.555,10.492C274.224,263.232,265.326,267.724,256,267.724z"/>
<path style="fill:#F4C53D;" d="M256,59.094L256,59.094c-69.038,0-127.312,46.048-145.808,109.103  c38.964-25.793,96.773-14.282,152.169-44.683c12.601,30.44,42.582,51.862,77.577,51.862c21.841,0,41.729-8.347,56.661-22.018  C373.885,98.048,319.496,59.094,256,59.094z"/>
<path d="M152.879,198.271c-4.143,0-7.5,3.358-7.5,7.5v22.731c0,4.142,3.357,7.5,7.5,7.5s7.5-3.358,7.5-7.5v-22.731  C160.379,201.628,157.021,198.271,152.879,198.271z M483.849,300.037c8.414-13.237,12.831-28.425,12.831-44.305  c0-25.702-11.82-49.672-31.918-65.331c4.283-10.156,6.526-21.172,6.526-32.218c0-34.036-20.748-64.4-52.073-76.914  c-4.538-21.946-16.297-41.932-33.426-56.658C367.328,8.74,343.737,0,319.361,0C296.24,0,273.984,7.795,256,22.074  C238.016,7.795,215.761,0,192.639,0c-24.376,0-47.967,8.74-66.428,24.61c-17.13,14.726-28.888,34.711-33.426,56.658  c-31.325,12.514-52.073,42.878-52.073,76.914c0,11.048,2.243,22.064,6.526,32.218C27.14,206.06,15.32,230.03,15.32,255.731  c0,15.881,4.417,31.069,12.83,44.305C13.954,315.3,5.924,335.529,5.924,356.491c0,20.837,7.767,40.75,21.87,56.071  c11.342,12.321,25.971,20.813,42.026,24.569C59.16,457.02,56.233,478.24,55.691,492.69c-0.19,5.095,1.653,9.925,5.192,13.6  c3.547,3.683,8.317,5.71,13.433,5.71h363.366c5.115,0,9.886-2.028,13.433-5.71c3.539-3.674,5.383-8.504,5.192-13.599  c-0.541-14.451-3.469-35.67-14.129-55.56c16.056-3.756,30.685-12.248,42.027-24.569c14.104-15.32,21.87-35.233,21.87-56.071  C506.076,335.529,498.046,315.3,483.849,300.037z M74.316,497c-1.352,0-2.228-0.7-2.629-1.117c-0.397-0.412-1.056-1.302-1.006-2.631  c0.403-10.773,2.629-31.627,13.005-50.26c8.433-15.143,20.663-26.072,36.466-32.701c-4.139,5.947-7.899,12.15-11.212,18.577  C98.121,449.861,91.935,473.271,90.851,497H74.316z M105.841,497c1.037-21.514,6.552-42.088,16.433-61.26  c9.682-18.787,23.459-35.548,40.021-48.783c26.323,19.187,58.713,30.527,93.706,30.527s67.383-11.341,93.705-30.527  c16.562,13.234,30.338,29.995,40.02,48.782c9.881,19.172,15.396,39.746,16.433,61.26L105.841,497L105.841,497z M111.559,258.043  v-47.008c0-12.896,1.708-25.683,5.081-38.05c17.239-10.515,38.394-13.852,62.724-17.689c24.618-3.884,52.255-8.243,79.51-21.533  c15.672,30.082,46.67,49.112,81.065,49.112c19.245,0,37.795-6.012,53.252-17.105c4.815,14.562,7.251,29.745,7.251,45.265v47.008  c0,79.646-64.796,144.441-144.44,144.441C176.355,402.484,111.559,337.689,111.559,258.043z M440.311,495.883  c-0.401,0.417-1.277,1.117-2.629,1.117h-16.534c-1.083-23.73-7.27-47.139-18.09-68.132c-3.312-6.427-7.073-12.63-11.212-18.578  c15.803,6.629,28.033,17.558,36.466,32.701c10.376,18.633,12.602,39.488,13.005,50.261  C441.367,494.581,440.71,495.471,440.311,495.883z M473.171,402.402c-10.538,11.448-24.538,18.849-39.77,21.139  c-13.894-17.891-33.439-29.197-58.308-33.686c-4.246-4.414-8.728-8.6-13.433-12.518c28.61-25.369,48.059-60.841,52.7-100.771  c21.254-3.117,37.625-21.464,37.625-43.569c0-22.238-16.571-40.669-38.012-43.619c-1.792-13.179-5.221-26.049-10.278-38.454  c-0.048-0.139-0.1-0.276-0.155-0.413c-0.065-0.159-0.134-0.315-0.202-0.472l-0.053-0.12c-1.58-3.826-5.961-5.647-9.789-4.07  c-1.788,0.736-3.139,2.085-3.91,3.702c-13.839,11.835-31.367,18.324-49.647,18.324c-31.04,0-58.77-18.539-70.647-47.23  c-0.815-1.97-2.431-3.499-4.441-4.207c-2.01-0.707-4.227-0.526-6.097,0.5c-27.227,14.943-54.934,19.313-81.727,23.54  c-25.135,3.965-48.922,7.717-68.867,20.113c-2.322,0.703-4.26,2.518-5.014,5.015l-0.016,0.056l-0.002-0.001  c-0.045,0.141-0.09,0.281-0.132,0.424c-0.032,0.11-0.063,0.221-0.09,0.332c-2.191,7.525-3.807,15.199-4.866,22.96  c-21.447,2.945-38.024,21.378-38.024,43.62c0,22.105,16.371,40.452,37.624,43.569c4.641,39.93,24.09,75.402,52.7,100.771  c-4.704,3.918-9.187,8.104-13.433,12.518c-24.87,4.488-44.415,15.794-58.309,33.686c-15.233-2.29-29.232-9.691-39.769-21.139  c-11.547-12.543-17.906-28.849-17.906-45.912c0-18.965,8.029-37.2,22.028-50.028c2.845-2.607,3.247-6.948,0.93-10.034  c-8.872-11.811-13.562-25.884-13.562-40.697c0-22.833,11.397-44.001,30.485-56.623c3.201-2.116,4.288-6.308,2.519-9.713  c-5.051-9.724-7.612-20.226-7.612-31.213c0-29.101,18.519-54.922,46.08-64.254c2.633-0.892,4.557-3.166,4.999-5.91  c3.251-20.163,13.621-38.642,29.198-52.034C151.73,22.453,171.85,15,192.639,15c21.604,0,42.318,7.978,58.329,22.463  c2.857,2.585,7.207,2.585,10.064,0C277.043,22.978,297.758,15,319.361,15c20.789,0,40.907,7.453,56.648,20.985  c15.578,13.392,25.947,31.871,29.199,52.034c0.442,2.744,2.366,5.018,4.999,5.91c27.561,9.332,46.08,35.154,46.08,64.254  c0,10.986-2.561,21.487-7.613,31.213c-1.768,3.406-0.682,7.597,2.52,9.713c19.089,12.622,30.485,33.79,30.485,56.623  c0,14.812-4.689,28.885-13.563,40.697c-2.317,3.086-1.915,7.427,0.931,10.034c13.999,12.828,22.028,31.062,22.028,50.027  C491.076,373.554,484.717,389.859,473.171,402.402z M415.314,204.906c12.455,3.271,21.669,14.624,21.669,28.091  c0,13.441-9.18,24.775-21.581,28.07c0.019-1.007,0.038-2.013,0.038-3.025v-47.008C415.44,208.986,415.391,206.944,415.314,204.906z   M96.597,261.063c-12.409-3.302-21.58-14.631-21.58-28.066c0-13.468,9.216-24.822,21.666-28.092c-0.078,2.04-0.124,4.084-0.124,6.13  v47.008C96.559,259.053,96.578,260.058,96.597,261.063z M359.12,236.002c4.143,0,7.5-3.358,7.5-7.5v-22.731  c0-4.142-3.357-7.5-7.5-7.5s-7.5,3.358-7.5,7.5v22.731C351.62,232.644,354.978,236.002,359.12,236.002z"/>
<g>
</g>
<g>
</g>
<g>
</g>
<g>
</g>
<g>
</g>
<g>
</g>
<g>
</g>
<g>
</g>
<g>
</g>
<g>
</g>
<g>
</g>
<g>
</g>
<g>
</g>
<g>
</g>
<g>
</g>
</svg>
