<?xml version="1.0" encoding="iso-8859-1"?>
<!-- Generator: Adobe Illustrator 19.0.0, SVG Export Plug-In . SVG Version: 6.00 Build 0)  -->
<svg xmlns="http://www.w3.org/2000/svg" xmlns:xlink="http://www.w3.org/1999/xlink" version="1.1" id="Layer_1" x="0px" y="0px" viewBox="0 0 512 512" style="enable-background:new 0 0 512 512;" xml:space="preserve">
<circle style="fill:#F2BE89;" cx="95.609" cy="211.12" r="34.874"/>
<circle style="opacity:0.15;fill:#EC8087;enable-background:new    ;" cx="95.609" cy="211.12" r="34.874"/>
<path style="opacity:0.07;enable-background:new    ;" d="M95.613,176.243c-4.154,0-8.136,0.73-11.83,2.062  c-0.002,0.329-0.012,0.657-0.012,0.986v64.634c3.698,1.335,7.685,2.066,11.843,2.066c19.26,0,34.874-15.614,34.874-34.874  C130.488,191.857,114.873,176.243,95.613,176.243z"/>
<circle style="fill:#F2BE89;" cx="416.389" cy="211.12" r="34.874"/>
<circle style="opacity:0.15;fill:#EC8087;enable-background:new    ;" cx="416.389" cy="211.12" r="34.874"/>
<path style="opacity:0.07;enable-background:new    ;" d="M416.385,176.243c4.154,0,8.136,0.73,11.83,2.062  c0.002,0.329,0.013,0.657,0.013,0.986v64.634c-3.698,1.335-7.685,2.066-11.843,2.066c-19.26,0-34.874-15.614-34.874-34.874  C381.511,191.857,397.124,176.243,416.385,176.243z"/>
<path style="fill:#394049;" d="M127.53,384.636c-74.567,11.922-85.117,78.606-86.182,107.029  c-0.263,7.017,5.369,12.835,12.391,12.835h73.791V384.636z"/>
<path style="opacity:0.2;enable-background:new    ;" d="M116.325,386.967c-30.803,30.15-50.557,71.536-52.629,117.533h63.835  V384.636C123.615,385.262,119.894,386.053,116.325,386.967z"/>
<path style="fill:#394049;" d="M384.468,384.636c74.567,11.922,85.117,78.606,86.181,107.029  c0.263,7.017-5.369,12.835-12.391,12.835h-73.791L384.468,384.636L384.468,384.636z"/>
<path style="opacity:0.2;enable-background:new    ;" d="M395.673,386.967c30.803,30.15,50.557,71.536,52.629,117.533h-63.835  V384.636C388.382,385.262,392.104,386.053,395.673,386.967z"/>
<path style="fill:#394049;" d="M431.714,504.5c0-97.045-78.67-175.715-175.715-175.715c-97.044,0-175.715,78.67-175.715,175.715  H431.714z"/>
<path style="opacity:0.1;enable-background:new    ;" d="M255.999,328.785c-44.863,0-85.79,16.822-116.842,44.49  c29.39,30.849,70.871,50.075,116.842,50.075l0,0c45.972,0,87.453-19.226,116.842-50.075  C341.789,345.607,300.862,328.785,255.999,328.785z"/>
<path style="fill:#F2BE89;" d="M255.999,7.5L255.999,7.5c-89.114,0-161.355,72.241-161.355,161.355v67.385  c0,89.114,72.241,161.355,161.355,161.355l0,0c89.114,0,161.355-72.241,161.355-161.355v-67.385  C417.354,79.741,345.113,7.5,255.999,7.5z"/>
<g>
	<circle style="fill:#4EBF8C;" cx="162.759" cy="96.65" r="7.815"/>
	<circle style="fill:#4EBF8C;" cx="210.789" cy="48.625" r="7.815"/>
	<circle style="fill:#4EBF8C;" cx="210.789" cy="96.65" r="7.815"/>
</g>
<g>
	<path style="fill:#EC8087;" d="M182.051,236.77h-35.238c-4.143,0-7.5-3.358-7.5-7.5s3.357-7.5,7.5-7.5h35.238   c4.143,0,7.5,3.358,7.5,7.5S186.193,236.77,182.051,236.77z"/>
	<path style="fill:#EC8087;" d="M365.185,236.77h-35.238c-4.143,0-7.5-3.358-7.5-7.5s3.357-7.5,7.5-7.5h35.238   c4.143,0,7.5,3.358,7.5,7.5S369.328,236.77,365.185,236.77z"/>
</g>
<path style="fill:#4EBF8C;" d="M255.999,7.5L255.999,7.5c89.114,0,161.355,72.241,161.355,161.355v69.464l0,0  c-89.114,0-161.355-72.241-161.355-161.355V7.5z"/>
<path style="opacity:0.1;enable-background:new    ;" d="M388.47,189.013c-38.744,0-62.658-21.667-75.897-39.843  c-15.479-21.252-24.722-49.788-24.722-76.333c0-4.142,3.357-7.5,7.5-7.5s7.5,3.358,7.5,7.5c0,23.487,8.167,48.722,21.847,67.502  c11.189,15.362,31.336,33.674,63.772,33.674c4.143,0,7.5,3.358,7.5,7.5S392.612,189.013,388.47,189.013z"/>
<rect x="180.899" y="436.76" style="fill:#EC8087;" width="15" height="30.599"/>
<rect x="145.649" y="420.85" style="fill:#4EBF8C;" width="15" height="46.51"/>
<rect x="127.809" y="459.86" style="fill:#FFFFFF;" width="85.92" height="15"/>
<path d="M461.675,428.315c-15.406-27.667-40.134-44.696-73.517-50.654c-5.712-5.964-11.852-11.565-18.392-16.756  c30.005-27.405,50.113-65.468,54.278-108.135c19.67-3.648,34.716-21.063,34.716-41.652c0-20.616-14.402-37.63-33.906-41.517v-0.746  C424.853,75.748,349.105,0,255.999,0S87.146,75.748,87.146,168.855v0.746c-19.505,3.888-33.906,20.902-33.906,41.517  c0,20.589,15.046,38.005,34.716,41.652c4.165,42.667,24.273,80.73,54.278,108.135c-6.54,5.192-12.68,10.792-18.392,16.756  c-33.383,5.958-58.111,22.986-73.517,50.654c-12.502,22.45-15.856,46.689-16.47,63.07c-0.203,5.44,1.766,10.596,5.544,14.519  c3.787,3.931,8.88,6.096,14.341,6.096h404.52c5.461,0,10.555-2.165,14.342-6.097c3.778-3.922,5.747-9.079,5.544-14.518  C477.531,475.004,474.177,450.764,461.675,428.315z M424.853,236.24v-51.168c11.05,3.534,18.906,13.808,18.906,26.046  c0,12.046-7.973,22.415-18.917,26.013C424.844,236.833,424.853,236.537,424.853,236.24z M68.238,211.117  c0-12.237,7.856-22.511,18.906-26.045v51.168c0,0.298,0.01,0.593,0.011,0.89C76.211,233.532,68.238,223.164,68.238,211.117z   M263.499,15.185c81.366,3.925,146.354,71.349,146.354,153.669v61.779c-81.365-3.924-146.354-71.348-146.354-153.669V15.185z   M102.146,236.24v-67.385c0-82.321,64.989-149.744,146.354-153.669v61.779c0,90.494,71.558,164.58,161.059,168.668  c-4.871,80.477-71.878,144.461-153.559,144.461C171.163,390.094,102.146,321.075,102.146,236.24z M53.739,497  c-1.349,0-2.605-0.534-3.539-1.503c-0.925-0.961-1.406-2.221-1.356-3.551c0.451-12.068,2.946-35.435,14.584-56.334  c9.972-17.909,24.645-30.594,43.759-37.902C86.558,426.499,74.443,460.986,72.958,497H53.739z M87.952,497  c2.229-49.63,26.483-96.039,66.067-126.275c28.355,21.554,63.697,34.369,101.98,34.369s73.625-12.815,101.98-34.369  c39.584,30.236,63.837,76.645,66.067,126.275H87.952z M461.798,495.497c-0.934,0.969-2.19,1.503-3.539,1.503H439.04  c-1.485-36.014-13.6-70.501-34.229-99.29c19.114,7.308,33.786,19.994,43.759,37.902c11.638,20.899,14.133,44.266,14.584,56.335  C463.204,493.276,462.723,494.537,461.798,495.497z M149.602,190.904c0-8.181,6.655-14.836,14.836-14.836  s14.836,6.656,14.836,14.836c0,4.142,3.357,7.5,7.5,7.5s7.5-3.358,7.5-7.5c0-16.452-13.385-29.836-29.836-29.836  s-29.836,13.385-29.836,29.836c0,4.142,3.358,7.5,7.5,7.5C146.244,198.404,149.602,195.046,149.602,190.904z M255.999,239.356  c9.759,0,19.071-4.7,24.912-12.573c2.468-3.327,1.771-8.024-1.555-10.492c-3.328-2.468-8.024-1.771-10.492,1.555  c-3.069,4.137-7.759,6.51-12.865,6.51c-5.106,0-9.795-2.373-12.864-6.51c-2.468-3.326-7.166-4.022-10.492-1.555  c-3.326,2.468-4.023,7.166-1.555,10.492C236.929,234.655,246.242,239.356,255.999,239.356z"/>
<g>
</g>
<g>
</g>
<g>
</g>
<g>
</g>
<g>
</g>
<g>
</g>
<g>
</g>
<g>
</g>
<g>
</g>
<g>
</g>
<g>
</g>
<g>
</g>
<g>
</g>
<g>
</g>
<g>
</g>
</svg>
