<?xml version="1.0" encoding="iso-8859-1"?>
<!-- Generator: Adobe Illustrator 19.0.0, SVG Export Plug-In . SVG Version: 6.00 Build 0)  -->
<svg xmlns="http://www.w3.org/2000/svg" xmlns:xlink="http://www.w3.org/1999/xlink" version="1.1" id="Layer_1" x="0px" y="0px" viewBox="0 0 512 512" style="enable-background:new 0 0 512 512;" xml:space="preserve">
<path style="fill:#E8E8E8;" d="M72.863,419.809c-6.15,0-11.89,3.256-14.887,8.626c-0.017,0.03-0.034,0.06-0.051,0.091  c-7.366,13.229-11.571,26.977-13.917,39.373c-0.89,4.701,2.733,9.044,7.517,9.044h64.354v-57.134H72.863z"/>
<path style="opacity:0.1;enable-background:new    ;" d="M72.863,419.809c-6.15,0-11.89,3.256-14.887,8.626  c-0.017,0.03-0.034,0.06-0.051,0.091c-7.366,13.229-11.571,26.977-13.917,39.373c-0.89,4.701,2.733,9.044,7.517,9.044h64.354  v-57.134H72.863z"/>
<path style="fill:#E8E8E8;" d="M439.137,419.809c6.15,0,11.89,3.256,14.887,8.626c0.017,0.03,0.034,0.06,0.051,0.091  c7.366,13.229,11.57,26.977,13.917,39.373c0.89,4.701-2.733,9.044-7.517,9.044H396.12v-57.134H439.137z"/>
<path style="opacity:0.1;enable-background:new    ;" d="M439.137,419.809c6.15,0,11.89,3.256,14.887,8.626  c0.017,0.03,0.034,0.06,0.051,0.091c7.366,13.229,11.57,26.977,13.917,39.373c0.89,4.701-2.733,9.044-7.517,9.044H396.12v-57.134  H439.137z"/>
<ellipse style="fill:#E8E8E8;" cx="53.26" cy="220.691" rx="45.761" ry="48.67"/>
<ellipse style="opacity:0.1;enable-background:new    ;" cx="53.26" cy="220.691" rx="45.761" ry="48.67"/>
<ellipse style="fill:#E8E8E8;" cx="458.74" cy="220.691" rx="45.762" ry="48.67"/>
<ellipse style="opacity:0.1;enable-background:new    ;" cx="458.74" cy="220.691" rx="45.762" ry="48.67"/>
<path style="fill:#E8E8E8;" d="M139.306,395.116c-67.732,10.829-77.316,71.402-78.283,97.219  c-0.239,6.373,4.877,11.658,11.255,11.658h67.027V395.116H139.306z"/>
<path style="opacity:0.07;enable-background:new    ;" d="M129.127,397.234c-27.98,27.387-45.924,64.979-47.806,106.76h57.984  V395.116C135.75,395.685,132.37,396.403,129.127,397.234z"/>
<path style="fill:#E8E8E8;" d="M372.694,395.116c67.733,10.829,77.316,71.402,78.283,97.219c0.239,6.373-4.877,11.658-11.255,11.658  h-67.027L372.694,395.116L372.694,395.116z"/>
<path style="opacity:0.07;enable-background:new    ;" d="M382.873,397.234c27.98,27.387,45.924,64.979,47.806,106.76h-57.984  V395.116C376.25,395.685,379.63,396.403,382.873,397.234z"/>
<path style="fill:#E8E8E8;" d="M415.61,503.994c0-88.15-71.46-159.61-159.61-159.61s-159.61,71.46-159.61,159.61L415.61,503.994  L415.61,503.994z"/>
<path style="fill:#4DB1E0;" d="M217.351,503.994c0-22.151-17.957-40.108-40.108-40.108s-40.108,17.957-40.108,40.108H217.351z"/>
<path style="fill:#EC8087;" d="M215.572,466.362c-2.913-3.298-7.947-3.609-11.245-0.697l-43.389,38.329h24.066l29.872-26.388  C218.173,474.693,218.484,469.659,215.572,466.362z"/>
<path style="opacity:0.1;enable-background:new    ;" d="M256,344.384c-54.945,0-103.401,27.766-132.114,70.029  c36.286,28.801,82.188,46.012,132.114,46.012s95.828-17.21,132.114-46.012C359.401,372.15,310.945,344.384,256,344.384z"/>
<circle style="fill:#E8E8E8;" cx="256" cy="220.691" r="212.68"/>
<path style="opacity:0.07;enable-background:new    ;" d="M256,8.008c-17.941,0-35.36,2.232-52.003,6.415v126.468h104.006V14.424  C291.36,10.241,273.941,8.008,256,8.008z"/>
<path style="fill:#4DB1E0;" d="M256,361.037c-48.138,0-93.73-13.547-128.377-38.145c-37.488-26.615-58.134-62.911-58.134-102.201  s20.646-75.586,58.134-102.201C162.27,93.892,207.862,80.345,256,80.345s93.729,13.547,128.377,38.145  c37.489,26.615,58.134,62.911,58.134,102.201s-20.645,75.586-58.134,102.201C349.729,347.491,304.138,361.037,256,361.037z"/>
<ellipse style="fill:#F6CDB5;" cx="256" cy="220.691" rx="159.16" ry="113"/>
<g>
	<path style="fill:#EC8087;" d="M158.018,242.243h-30.484c-4.142,0-7.5-3.358-7.5-7.5s3.358-7.5,7.5-7.5h30.484   c4.142,0,7.5,3.358,7.5,7.5S162.16,242.243,158.018,242.243z"/>
	<path style="fill:#EC8087;" d="M384.46,242.243h-30.484c-4.143,0-7.5-3.358-7.5-7.5s3.357-7.5,7.5-7.5h30.484   c4.143,0,7.5,3.358,7.5,7.5S388.603,242.243,384.46,242.243z"/>
</g>
<ellipse style="opacity:0.2;fill:#4DB1E0;enable-background:new    ;" cx="256" cy="220.691" rx="159.16" ry="113"/>
<path d="M142.775,173.216c-4.142,0-7.5,3.358-7.5,7.5v22.678c0,4.142,3.358,7.5,7.5,7.5s7.5-3.358,7.5-7.5v-22.678  C150.275,176.574,146.917,173.216,142.775,173.216z M243.017,220.673c-2.469-3.327-7.166-4.023-10.492-1.555  c-3.327,2.468-4.022,7.166-1.555,10.492c5.869,7.91,15.226,12.632,25.03,12.632c9.805,0,19.162-4.722,25.03-12.632  c2.468-3.327,1.772-8.024-1.555-10.492s-8.023-1.772-10.492,1.555c-3.098,4.175-7.83,6.57-12.983,6.57  C250.846,227.243,246.114,224.849,243.017,220.673z M469.268,275.756C493.975,270.587,512,247.845,512,220.691  s-18.025-49.896-42.733-55.065c-9.676-37.743-29.302-72.355-57.575-100.628C370.105,23.411,314.814,0.508,256,0.508  c-58.813,0-114.106,22.903-155.693,64.49c-28.274,28.273-47.9,62.885-57.575,100.628C18.025,170.796,0,193.538,0,220.691  s18.025,49.895,42.732,55.064c9.676,37.743,29.302,72.355,57.575,100.629c5.781,5.781,11.835,11.186,18.118,16.234  c-12.696,4.416-23.655,10.995-32.817,19.691H72.863c-8.929,0-17.143,4.778-21.436,12.471l6.549,3.655l-6.604-3.558  c-6.89,12.375-11.847,26.379-14.733,41.627c-0.839,4.435,0.332,8.973,3.214,12.451c2.889,3.487,7.144,5.487,11.672,5.487h2.49  c-0.238,2.693-0.398,5.253-0.486,7.612c-0.192,5.129,1.664,9.991,5.227,13.69c3.571,3.707,8.373,5.749,13.523,5.749h367.443  c5.149,0,9.951-2.042,13.521-5.748c3.563-3.699,5.42-8.561,5.229-13.691c-0.088-2.359-0.249-4.919-0.487-7.612h2.49  c4.529,0,8.783-2,11.673-5.487c2.882-3.478,4.053-8.017,3.214-12.452c-2.887-15.247-7.844-29.253-14.733-41.626  c-0.022-0.04-0.032-0.059-0.055-0.098c-4.293-7.692-12.507-12.471-21.436-12.471h-12.746c-9.162-8.696-20.121-15.276-32.817-19.691  c6.283-5.047,12.337-10.453,18.118-16.234C439.966,348.111,459.592,313.499,469.268,275.756z M472.882,182.398  c14.283,6.04,24.118,20.93,24.118,38.293s-9.836,32.253-24.118,38.293c2.183-12.521,3.301-25.32,3.301-38.293  C476.183,207.719,475.065,194.919,472.882,182.398z M39.118,258.984C24.835,252.944,15,238.054,15,220.691  s9.835-32.253,24.118-38.293c-2.183,12.52-3.301,25.32-3.301,38.293S36.935,246.464,39.118,258.984z M211.497,20.384  c14.335-3.183,29.224-4.875,44.503-4.875s30.168,1.693,44.503,4.875v56.314c-14.434-2.539-29.349-3.852-44.503-3.852  c-15.155,0-30.069,1.313-44.503,3.852L211.497,20.384L211.497,20.384z M380.035,124.605c35.451,25.169,54.976,59.294,54.976,96.086  s-19.524,70.916-54.976,96.085c-33.39,23.705-77.439,36.76-124.035,36.76s-90.646-13.055-124.036-36.76  c-35.452-25.17-54.976-59.293-54.976-96.086s19.524-70.917,54.976-96.086c33.39-23.705,77.439-36.76,124.036-36.76  C302.596,87.845,346.646,100.9,380.035,124.605z M56.119,469.443h-4.594c-0.04,0-0.074,0-0.148-0.149  c2.586-13.664,6.994-26.152,13.147-37.203c1.646-2.949,4.841-4.781,8.338-4.781h0.106c-1.807,2.684-3.507,5.489-5.089,8.428  C61.798,447.034,58.204,458.758,56.119,469.443z M72.279,496.494c-1.398,0-2.304-0.724-2.72-1.155  c-0.411-0.427-1.092-1.348-1.041-2.723c0.485-12.953,3.059-32.101,12.569-49.769c8.6-15.976,21.262-27.468,37.765-34.323  c-18.015,25.844-28.378,56.279-29.792,87.97H72.279z M104.074,496.494c1.608-32.784,13.731-64.063,34.649-89.362  c34.785,21.975,75.126,33.743,117.277,33.743s82.491-11.768,117.276-33.742c20.918,25.298,33.042,56.577,34.65,89.362H104.074  V496.494z M439.138,427.309c3.497,0,6.691,1.832,8.311,4.732l0.075,0.133h-0.001c6.106,10.966,10.514,23.455,13.074,37.211  c-0.048,0.057-0.082,0.057-0.122,0.057h-4.594c-2.085-10.685-5.68-22.409-11.761-33.706c-1.582-2.939-3.282-5.745-5.089-8.428h0.107  V427.309z M430.912,442.847c9.511,17.667,12.085,36.816,12.569,49.769c0.052,1.375-0.63,2.297-1.041,2.724  c-0.415,0.431-1.321,1.154-2.719,1.154H422.94c-1.415-31.692-11.778-62.126-29.793-87.97  C409.65,415.379,422.312,426.87,430.912,442.847z M256,425.874c-113.138,0-205.183-92.044-205.183-205.183  c0-92.452,61.469-170.807,145.68-196.374v55.502c-27.11,6.544-52.105,17.567-73.216,32.555  c-39.525,28.061-61.292,66.529-61.292,108.317s21.767,80.255,61.292,108.317c35.905,25.49,83.038,39.529,132.719,39.529  s96.815-14.038,132.719-39.529c39.524-28.061,61.292-66.529,61.292-108.317s-21.768-80.256-61.292-108.317  c-21.111-14.988-46.106-26.011-73.216-32.555V24.318c84.211,25.566,145.68,103.921,145.68,196.374  C461.183,333.83,369.138,425.874,256,425.874z M369.225,210.894c4.143,0,7.5-3.358,7.5-7.5v-22.678c0-4.142-3.357-7.5-7.5-7.5  s-7.5,3.358-7.5,7.5v22.678C361.725,207.536,365.082,210.894,369.225,210.894z M139.112,134.673  c-32.099,22.789-49.777,53.337-49.777,86.019c0,32.681,17.678,63.23,49.777,86.018c31.32,22.236,72.832,34.481,116.888,34.481  s85.568-12.246,116.889-34.481c32.099-22.789,49.776-53.337,49.776-86.018s-17.678-63.23-49.776-86.019  c-31.321-22.236-72.832-34.482-116.889-34.482S170.432,112.437,139.112,134.673z M407.665,220.691  c0,58.173-68.037,105.499-151.665,105.499s-151.665-47.327-151.665-105.499c0-58.173,68.037-105.5,151.665-105.5  S407.665,162.519,407.665,220.691z"/>
<g>
</g>
<g>
</g>
<g>
</g>
<g>
</g>
<g>
</g>
<g>
</g>
<g>
</g>
<g>
</g>
<g>
</g>
<g>
</g>
<g>
</g>
<g>
</g>
<g>
</g>
<g>
</g>
<g>
</g>
</svg>
