<?xml version="1.0" encoding="iso-8859-1"?>
<!-- Generator: Adobe Illustrator 19.0.0, SVG Export Plug-In . SVG Version: 6.00 Build 0)  -->
<svg xmlns="http://www.w3.org/2000/svg" xmlns:xlink="http://www.w3.org/1999/xlink" version="1.1" id="Layer_1" x="0px" y="0px" viewBox="0 0 511.999 511.999" style="enable-background:new 0 0 511.999 511.999;" xml:space="preserve">
<path style="fill:#F9D7C3;" d="M94.871,260.911h-5.474c-39.407,0-71.352-31.945-71.352-71.352v-31.112  c0-8.736,7.082-15.817,15.817-15.817l0,0c15.958,0,30.603,8.84,38.037,22.961l37.507,71.243  C115.165,247.771,107.233,260.911,94.871,260.911z"/>
<path style="opacity:0.07;enable-background:new    ;" d="M109.406,236.833L71.899,165.59c-4.326-8.216-11.101-14.626-19.147-18.566  c-5.613,18.319-8.642,37.768-8.642,57.926c0,14.891,1.66,29.393,4.784,43.341c11.508,7.951,25.457,12.619,40.503,12.619h5.475  C107.233,260.911,115.165,247.771,109.406,236.833z"/>
<path style="fill:#F9D7C3;" d="M417.126,260.911h5.475c39.406,0,71.352-31.945,71.352-71.352v-31.112  c0-8.736-7.082-15.817-15.817-15.817l0,0c-15.958,0-30.603,8.84-38.037,22.961l-37.507,71.243  C396.833,247.771,404.765,260.911,417.126,260.911z"/>
<path style="opacity:0.07;enable-background:new    ;" d="M402.592,236.833l37.507-71.243c4.326-8.216,11.101-14.626,19.147-18.566  c5.613,18.319,8.642,37.768,8.642,57.926c0,14.891-1.66,29.393-4.784,43.341c-11.508,7.951-25.457,12.619-40.503,12.619h-5.475  C404.765,260.911,396.833,247.771,402.592,236.833z"/>
<path style="fill:#EC8087;" d="M456.246,320.042H55.752c-4.744,0-7.555,5.309-4.888,9.232l61.749,90.844h286.772l61.749-90.844  C463.801,325.351,460.99,320.042,456.246,320.042z"/>
<path style="fill:#394049;" d="M132.613,389.378c-71.617,11.45-81.75,75.497-82.772,102.795  c-0.252,6.739,5.157,12.327,11.901,12.327h70.871V389.378z"/>
<path style="opacity:0.3;enable-background:new    ;" d="M121.85,391.617C92.266,420.575,73.293,460.323,71.303,504.5h61.31V389.378  C128.853,389.979,125.279,390.739,121.85,391.617z"/>
<path style="fill:#394049;" d="M379.386,389.378c71.617,11.45,81.75,75.497,82.772,102.795c0.252,6.739-5.157,12.327-11.901,12.327  h-70.871V389.378z"/>
<path style="opacity:0.3;enable-background:new    ;" d="M390.148,391.617c29.584,28.958,48.557,68.706,50.547,112.883h-61.31  V389.378C383.145,389.979,386.719,390.739,390.148,391.617z"/>
<path style="fill:#394049;" d="M424.762,504.5c0-93.205-75.558-168.763-168.763-168.763S87.236,411.295,87.236,504.5H424.762z"/>
<path style="fill:#F4C53D;" d="M255.999,335.737c-25.648,0-49.954,5.732-71.723,15.968L199.612,504.5h112.774l15.336-152.795  C305.953,341.469,281.647,335.737,255.999,335.737z"/>
<polygon style="fill:#FFFFFF;" points="297.766,360.634 214.232,360.634 228.672,504.5 283.326,504.5 "/>
<path style="opacity:0.1;enable-background:new    ;" d="M255.999,335.737c-48.901,0-92.936,20.806-123.757,54.04  c33.858,27.272,76.897,43.607,123.757,43.607s89.899-16.335,123.757-43.607C348.934,356.543,304.9,335.737,255.999,335.737z"/>
<circle style="fill:#F9D7C3;" cx="255.999" cy="204.95" r="197.45"/>
<g>
	<path style="fill:#FFFFFF;" d="M224.661,247.077c-4.142,0-7.5-3.358-7.5-7.5v-23.688c0-4.142,3.358-7.5,7.5-7.5s7.5,3.358,7.5,7.5   v23.688C232.161,243.719,228.803,247.077,224.661,247.077z"/>
	<path style="fill:#FFFFFF;" d="M287.338,247.077c-4.142,0-7.5-3.358-7.5-7.5v-23.688c0-4.142,3.358-7.5,7.5-7.5s7.5,3.358,7.5,7.5   v23.688C294.838,243.719,291.48,247.077,287.338,247.077z"/>
</g>
<g>
	<path style="fill:#EC8087;" d="M152.397,227.308h-32.232c-4.142,0-7.5-3.358-7.5-7.5s3.358-7.5,7.5-7.5h32.232   c4.142,0,7.5,3.358,7.5,7.5S156.539,227.308,152.397,227.308z"/>
	<path style="fill:#EC8087;" d="M391.826,227.308h-32.232c-4.142,0-7.5-3.358-7.5-7.5s3.358-7.5,7.5-7.5h32.232   c4.142,0,7.5,3.358,7.5,7.5S395.968,227.308,391.826,227.308z"/>
</g>
<path style="fill:#394049;" d="M255.999,7.5c-88.417,0-163.254,58.117-188.41,138.232c67.96-86.911,149.04-53.503,181.141-13.997  c3.764,4.633,10.774,4.633,14.538,0c32.101-39.506,113.181-72.913,181.141,13.997C419.253,65.617,344.415,7.5,255.999,7.5z"/>
<path d="M478.136,135.129c-9.502,0-18.821,2.752-26.805,7.746C424.97,60.117,347.378,0,255.999,0S87.028,60.117,60.668,142.875  c-7.984-4.994-17.303-7.746-26.806-7.746c-12.857,0-23.317,10.46-23.317,23.317v31.112c0,31.948,19.424,60.739,48.717,72.861  c5.216,17.828,12.795,34.655,22.374,50.122H55.752c-4.98,0-9.521,2.734-11.852,7.135c-2.33,4.401-2.039,9.694,0.761,13.813  l43.851,64.513c-12.465,8.257-22.601,19.334-30.312,33.181c-12.035,21.613-15.265,44.943-15.855,60.708  c-0.199,5.306,1.721,10.335,5.407,14.161c3.694,3.835,8.662,5.947,13.989,5.947h388.516c5.327,0,10.294-2.112,13.988-5.946  c3.686-3.826,5.606-8.855,5.408-14.161c-0.59-15.766-3.82-39.096-15.855-60.708c-7.711-13.847-17.847-24.923-30.312-33.181  l43.851-64.513c2.8-4.119,3.091-9.411,0.761-13.813c-2.331-4.401-6.872-7.136-11.852-7.136h-25.883  c9.579-15.467,17.157-32.294,22.374-50.122c29.293-12.122,48.717-40.914,48.717-72.861v-31.112  C501.453,145.589,490.993,135.129,478.136,135.129z M54.626,243.112c-17.828-11.604-29.081-31.667-29.081-53.554v-31.112  c0-4.586,3.731-8.317,8.317-8.317c8.216,0,16.239,2.927,22.559,8.123c-3.51,15.006-5.372,30.638-5.372,46.698  C51.049,217.989,52.287,230.743,54.626,243.112z M255.999,15c70.629,0,132.373,38.752,165.101,96.107  c-27.131-21.773-53.189-27.369-72.337-27.548c-40.943-0.385-74.045,22.192-91.315,43.447c-0.473,0.582-1.049,0.704-1.449,0.704  s-0.976-0.122-1.449-0.704c-17.271-21.255-50.316-43.866-91.316-43.447c-29.161,0.272-53.348,12.31-72.373,27.612  C123.581,53.781,185.344,15,255.999,15z M58.755,327.542h33.097c13.102,17.498,28.939,32.831,46.86,45.382  c-3.423,3.048-6.702,6.219-9.852,9.49c-9.844,1.769-18.903,4.543-27.163,8.303L58.755,327.542z M61.741,497  c-1.214,0-2.345-0.48-3.186-1.353c-0.482-0.5-1.281-1.58-1.221-3.193c0.433-11.565,2.824-33.954,13.971-53.973  c9.341-16.774,23.01-28.74,40.741-35.799C92.59,430.094,81.345,462.659,79.91,497H61.741z M94.907,497  c2.052-44.919,22.492-86.464,56.941-115.604c9.325,5.525,19.117,10.343,29.312,14.356L191.321,497H94.907z M206.397,497  l-9.619-95.835c4.719,1.427,9.509,2.689,14.364,3.777L220.381,497H206.397z M276.541,497h-41.085l-8.956-89.231  c9.636,1.395,19.482,2.131,29.499,2.131s19.862-0.736,29.498-2.131L276.541,497z M305.601,497h-13.985l9.24-92.058  c4.855-1.088,9.645-2.351,14.364-3.777L305.601,497z M320.677,497l10.162-101.249c10.195-4.013,19.987-8.83,29.312-14.356  c34.448,29.141,54.888,70.686,56.94,115.605H320.677z M440.692,438.481c11.147,20.019,13.538,42.408,13.971,53.972  c0.06,1.613-0.739,2.693-1.221,3.194c-0.84,0.872-1.972,1.353-3.185,1.353h-18.169c-1.435-34.341-12.681-66.906-32.136-94.318  C417.683,409.742,431.352,421.707,440.692,438.481z M453.243,327.542l-42.942,63.175c-8.26-3.76-17.319-6.534-27.163-8.303  c-3.151-3.271-6.429-6.442-9.853-9.49c17.921-12.551,33.758-27.884,46.86-45.382H453.243z M255.999,394.9  c-104.739,0-189.95-85.211-189.95-189.95c0-19.382,2.925-38.093,8.345-55.721c26.068-32.849,56.808-50.37,88.981-50.671  c35.72-0.298,65.156,20.212,79.534,37.908c3.225,3.968,7.996,6.245,13.09,6.245s9.865-2.276,13.09-6.245  c14.379-17.695,43.837-38.211,79.534-37.907c32.172,0.301,62.913,17.822,88.98,50.67c5.42,17.629,8.345,36.339,8.345,55.722  C445.949,309.689,360.738,394.9,255.999,394.9z M486.453,189.559c0,21.887-11.253,41.95-29.082,53.554  c2.339-12.369,3.578-25.123,3.578-38.162c0-16.06-1.862-31.693-5.372-46.698c6.32-5.196,14.343-8.123,22.559-8.123  c4.586,0,8.317,3.731,8.317,8.317L486.453,189.559L486.453,189.559z M136.281,155.182c-4.142,0-7.5,3.358-7.5,7.5v23.979  c0,4.142,3.358,7.5,7.5,7.5s7.5-3.358,7.5-7.5v-23.979C143.781,158.54,140.423,155.182,136.281,155.182z M375.717,155.182  c-4.142,0-7.5,3.358-7.5,7.5v23.979c0,4.142,3.358,7.5,7.5,7.5s7.5-3.358,7.5-7.5v-23.979  C383.217,158.54,379.859,155.182,375.717,155.182z M302.234,198.159c-3.325-2.468-8.025-1.772-10.492,1.555  c-8.518,11.482-21.545,18.067-35.743,18.067c-14.198,0-27.226-6.585-35.743-18.067c-2.468-3.326-7.165-4.024-10.492-1.555  c-3.327,2.468-4.023,7.165-1.555,10.492c11.376,15.335,28.794,24.13,47.79,24.13s36.414-8.795,47.79-24.13  C306.257,205.324,305.56,200.627,302.234,198.159z"/>
<g>
</g>
<g>
</g>
<g>
</g>
<g>
</g>
<g>
</g>
<g>
</g>
<g>
</g>
<g>
</g>
<g>
</g>
<g>
</g>
<g>
</g>
<g>
</g>
<g>
</g>
<g>
</g>
<g>
</g>
</svg>
