<?xml version="1.0" encoding="iso-8859-1"?>
<!-- Generator: Adobe Illustrator 19.0.0, SVG Export Plug-In . SVG Version: 6.00 Build 0)  -->
<svg xmlns="http://www.w3.org/2000/svg" xmlns:xlink="http://www.w3.org/1999/xlink" version="1.1" id="Layer_1" x="0px" y="0px" viewBox="0 0 512.001 512.001" style="enable-background:new 0 0 512.001 512.001;" xml:space="preserve">
<path style="fill:#4DB1E0;" d="M132.613,389.378c-71.617,11.45-81.75,75.497-82.772,102.795  c-0.252,6.739,5.157,12.327,11.901,12.327h70.872V389.378H132.613z"/>
<path style="opacity:0.2;fill:#FFFFFF;enable-background:new    ;" d="M68.284,428.99h64.329v-16.027H81.712  C76.416,417.913,71.986,423.334,68.284,428.99z M51.713,473.588h80.9v-16.027H55.355C53.724,463.118,52.548,468.532,51.713,473.588z  "/>
<path style="opacity:0.1;enable-background:new    ;" d="M121.851,391.617C92.267,420.575,73.294,460.323,71.304,504.5h61.309  V389.378C128.854,389.979,125.28,390.739,121.851,391.617z"/>
<path style="fill:#4DB1E0;" d="M379.386,389.378c71.617,11.45,81.75,75.497,82.772,102.795c0.252,6.739-5.157,12.327-11.901,12.327  h-70.871V389.378z"/>
<path style="opacity:0.2;fill:#FFFFFF;enable-background:new    ;" d="M430.288,412.963h-50.901v16.027h64.329  C440.014,423.334,435.583,417.913,430.288,412.963z M456.645,457.561h-77.258v16.027h80.9  C459.452,468.532,458.276,463.118,456.645,457.561z"/>
<path style="opacity:0.1;enable-background:new    ;" d="M390.149,391.617c29.584,28.958,48.557,68.706,50.547,112.883h-61.31  V389.378C383.146,389.979,386.72,390.739,390.149,391.617z"/>
<path style="fill:#4DB1E0;" d="M424.763,504.5c0-93.205-75.558-168.763-168.763-168.763S87.237,411.295,87.237,504.5H424.763z"/>
<g>
	<path style="opacity:0.2;fill:#FFFFFF;enable-background:new    ;" d="M419.852,463.972H387.4v-45.666h13.708   c-3.308-5.557-6.925-10.907-10.829-16.027H387.4v-3.669c-4.939-6.121-10.295-11.889-16.027-17.262v20.931h-45.666v-51.514   c-5.206-2.364-10.555-4.47-16.027-6.305v57.82h-45.666v-66.347c-2.649-0.124-5.313-0.194-7.993-0.194h-0.041   c-2.68,0-5.344,0.07-7.993,0.194v66.347H202.32v-57.82c-5.473,1.835-10.821,3.941-16.027,6.305v51.514h-45.666v-20.931   c-5.733,5.373-11.089,11.141-16.027,17.262v3.669h-2.879c-3.904,5.121-7.521,10.47-10.829,16.027H124.6v45.666H92.148   c-1.294,5.25-2.344,10.596-3.134,16.027H124.6V504.5h16.027v-24.501h45.666V504.5h16.027v-24.501h45.666V504.5h16.027v-24.501   h45.666V504.5h16.027v-24.501h45.666V504.5H387.4v-24.501h35.587C422.197,474.568,421.147,469.222,419.852,463.972z    M186.293,463.972h-45.666v-45.666h45.666V463.972z M247.986,463.972H202.32v-45.666h45.666V463.972L247.986,463.972z    M309.679,463.972h-45.666v-45.666h45.666L309.679,463.972L309.679,463.972z M371.373,463.972h-45.666v-45.666h45.666V463.972z"/>
	<path style="fill:#FFFFFF;" d="M255.997,335.737c-38.291,0.001-73.596,12.761-101.915,34.251l11.612,63.742   c1.549,8.504,11.003,12.962,18.549,8.747L256,402.4L255.997,335.737z"/>
	<path style="fill:#FFFFFF;" d="M256.003,335.737c38.291,0.001,73.596,12.761,101.915,34.251l-11.612,63.742   c-1.549,8.504-11.003,12.962-18.549,8.747L256,402.4L256.003,335.737z"/>
</g>
<path style="opacity:0.1;enable-background:new    ;" d="M256,335.737c-48.901,0-92.936,20.806-123.758,54.04  c33.859,27.272,76.897,43.607,123.758,43.607c46.86,0,89.899-16.335,123.757-43.607C348.935,356.543,304.901,335.737,256,335.737z"/>
<circle style="fill:#8D6A59;" cx="68.991" cy="225.55" r="45.959"/>
<path style="opacity:0.1;enable-background:new    ;" d="M68.991,179.595c-8.345,0-16.163,2.236-22.909,6.123  c-0.612,6.329-0.934,12.743-0.934,19.232c0,22.659,3.828,44.421,10.854,64.69c4.12,1.212,8.476,1.874,12.989,1.874  c25.383,0,45.959-20.577,45.959-45.959C114.95,200.172,94.374,179.595,68.991,179.595z"/>
<circle style="fill:#8D6A59;" cx="443.01" cy="225.55" r="45.959"/>
<path style="opacity:0.1;enable-background:new    ;" d="M443.009,179.595c8.345,0,16.163,2.236,22.909,6.123  c0.612,6.329,0.934,12.743,0.934,19.232c0,22.659-3.828,44.421-10.854,64.69c-4.12,1.212-8.476,1.874-12.989,1.874  c-25.383,0-45.959-20.577-45.959-45.959C397.05,200.172,417.626,179.595,443.009,179.595z"/>
<circle style="fill:#8D6A59;" cx="256" cy="204.95" r="197.45"/>
<g>
	<path style="fill:#EC8087;" d="M152.398,250.795h-32.232c-4.142,0-7.5-3.358-7.5-7.5s3.358-7.5,7.5-7.5h32.232   c4.142,0,7.5,3.358,7.5,7.5S156.54,250.795,152.398,250.795z"/>
	<path style="fill:#EC8087;" d="M391.827,250.795h-32.232c-4.142,0-7.5-3.358-7.5-7.5s3.358-7.5,7.5-7.5h32.232   c4.142,0,7.5,3.358,7.5,7.5S395.969,250.795,391.827,250.795z"/>
</g>
<path style="fill:#394049;" d="M256,7.5c140.015,0,194.762,81.983,207.678,124.525c2.664,8.776-3.927,17.623-13.098,17.623H319.396  c-12.87,0-24.088-8.796-27.094-21.31c-3.656-15.219-10.907-36.272-25.117-55.234c-5.597-7.468-16.775-7.468-22.371,0  c-14.21,18.962-21.461,40.014-25.117,55.234c-3.006,12.514-14.224,21.31-27.094,21.31H61.42c-9.171,0-15.763-8.847-13.098-17.623  C61.238,89.483,115.985,7.5,256,7.5z"/>
<path d="M447.164,278.837c27.541-2.13,49.304-25.204,49.304-53.282c0-23.631-15.601-44.314-37.789-51.105  c-0.895-5.986-2.055-11.926-3.476-17.806c4.929-1.083,9.304-3.887,12.402-8.066c4.029-5.434,5.214-12.262,3.25-18.731  c-4.285-14.114-18.585-50.351-58.716-81.931C371.736,16.121,319.203,0,256,0S140.264,16.121,99.86,47.916  c-40.131,31.58-54.43,67.816-58.716,81.931c-1.964,6.47-0.779,13.297,3.251,18.732c3.098,4.178,7.472,6.982,12.402,8.065  c-1.421,5.879-2.581,11.82-3.476,17.806c-22.188,6.792-37.789,27.474-37.789,51.105c0,28.078,21.763,51.153,49.304,53.282  c14.82,38.212,40.781,70.908,73.878,94.088c-3.423,3.048-6.702,6.219-9.852,9.49c-32.074,5.763-55.841,22.159-70.659,48.77  c-12.035,21.613-15.265,44.943-15.855,60.708c-0.199,5.306,1.721,10.335,5.407,14.161c3.694,3.835,8.662,5.947,13.988,5.947h388.516  c5.327,0,10.294-2.112,13.988-5.947c3.686-3.826,5.605-8.855,5.407-14.16c-0.59-15.766-3.819-39.096-15.854-60.709  c-14.818-26.611-38.585-43.007-70.659-48.77c-3.151-3.271-6.429-6.442-9.853-9.49C406.384,349.745,432.344,317.049,447.164,278.837z   M460.951,204.95c0-4.562-0.156-9.113-0.456-13.648c12.585,6.439,20.974,19.551,20.974,34.252c0,17.888-12.275,32.962-28.844,37.242  C458.033,244.443,460.951,225.032,460.951,204.95z M30.532,225.554c0-14.701,8.389-27.813,20.974-34.252  c-0.3,4.535-0.456,9.086-0.456,13.648c0,20.082,2.917,39.493,8.326,57.846C42.807,258.516,30.532,243.442,30.532,225.554z   M61.42,142.148c-1.982,0-3.795-0.913-4.976-2.505c-1.171-1.58-1.517-3.563-0.947-5.439c3.022-9.954,15.821-44.741,53.639-74.501  C146.831,30.041,196.244,15,256,15s109.168,15.041,146.863,44.703c37.818,29.76,50.617,64.547,53.639,74.501  c0.57,1.877,0.225,3.86-0.946,5.439c-1.18,1.592-2.994,2.505-4.976,2.505H319.397c-9.458,0-17.601-6.399-19.802-15.563  c-3.667-15.268-11.226-37.721-26.408-57.98c-4.097-5.467-10.362-8.603-17.187-8.603s-13.09,3.136-17.188,8.604  c-15.181,20.258-22.74,42.711-26.408,57.98c-2.201,9.163-10.343,15.562-19.801,15.562H61.42z M61.742,497  c-1.213,0-2.345-0.48-3.185-1.353c-0.481-0.5-1.281-1.58-1.221-3.193c0.433-11.565,2.824-33.954,13.971-53.973  c9.341-16.774,23.01-28.74,40.741-35.799C92.591,430.094,81.346,462.659,79.911,497H61.742z M440.693,438.481  c11.147,20.019,13.538,42.408,13.971,53.973c0.06,1.613-0.739,2.693-1.221,3.193c-0.84,0.872-1.972,1.353-3.185,1.353h-18.169  c-1.435-34.341-12.68-66.906-32.136-94.318C417.684,409.742,431.352,421.708,440.693,438.481z M417.092,497H94.908  c1.995-43.664,21.36-84.143,54.079-113.136l9.329,51.209c1.16,6.37,5.35,11.821,11.206,14.583c2.713,1.28,5.645,1.915,8.572,1.915  c3.39,0,6.774-0.853,9.808-2.547L256,410.991l68.099,38.033c3.034,1.694,6.417,2.547,9.808,2.547c2.927,0,5.859-0.636,8.572-1.915  c5.856-2.762,10.045-8.213,11.205-14.583l9.329-51.209C395.733,412.857,415.098,453.336,417.092,497z M165.096,388.6  c20.044,9.962,41.932,16.748,65.011,19.671l-49.521,27.657c-1.457,0.814-3.158,0.873-4.668,0.16  c-1.51-0.712-2.547-2.062-2.846-3.704L165.096,388.6z M281.892,408.271c23.079-2.922,44.967-9.709,65.011-19.671l-7.977,43.785  c-0.299,1.642-1.336,2.991-2.846,3.703c-1.509,0.713-3.211,0.654-4.668-0.16L281.892,408.271z M256,394.9  c-104.739,0-189.95-85.211-189.95-189.95c0-16.192,2.049-32.244,6.082-47.802h120.471c16.419,0,30.56-11.127,34.386-27.059  c3.338-13.895,10.181-34.279,23.826-52.488c1.238-1.652,3.128-2.599,5.184-2.599c2.057,0,3.946,0.947,5.184,2.599  c13.646,18.21,20.489,38.594,23.826,52.488c3.827,15.932,17.968,27.059,34.387,27.059h120.471  c4.033,15.558,6.082,31.61,6.082,47.802C445.951,309.689,360.74,394.9,256,394.9z M375.718,180.249  c-14.628,0-26.53,11.901-26.53,26.529c0,4.142,3.358,7.5,7.5,7.5s7.5-3.358,7.5-7.5c0-6.357,5.172-11.529,11.53-11.529  c6.357,0,11.529,5.172,11.529,11.529c0,4.142,3.358,7.5,7.5,7.5s7.5-3.358,7.5-7.5C402.248,192.149,390.347,180.249,375.718,180.249  z M136.282,180.249c-14.628,0-26.529,11.901-26.529,26.529c0,4.142,3.358,7.5,7.5,7.5s7.5-3.358,7.5-7.5  c0-6.357,5.172-11.529,11.529-11.529s11.529,5.172,11.529,11.529c0,4.142,3.358,7.5,7.5,7.5s7.5-3.358,7.5-7.5  C162.811,192.149,150.91,180.249,136.282,180.249z M280.565,227.12c-3.325-2.467-8.024-1.772-10.492,1.555  c-3.357,4.525-8.486,7.12-14.073,7.12s-10.716-2.595-14.073-7.12c-2.468-3.326-7.165-4.023-10.492-1.555s-4.023,7.165-1.555,10.492  c6.124,8.255,15.888,13.184,26.12,13.184s19.996-4.928,26.12-13.184C284.589,234.285,283.892,229.587,280.565,227.12z"/>
<g>
</g>
<g>
</g>
<g>
</g>
<g>
</g>
<g>
</g>
<g>
</g>
<g>
</g>
<g>
</g>
<g>
</g>
<g>
</g>
<g>
</g>
<g>
</g>
<g>
</g>
<g>
</g>
<g>
</g>
</svg>
