<?xml version="1.0" encoding="iso-8859-1"?>
<!-- Generator: Adobe Illustrator 19.0.0, SVG Export Plug-In . SVG Version: 6.00 Build 0)  -->
<svg xmlns="http://www.w3.org/2000/svg" xmlns:xlink="http://www.w3.org/1999/xlink" version="1.1" id="Layer_1" x="0px" y="0px" viewBox="0 0 512 512" style="enable-background:new 0 0 512 512;" xml:space="preserve">
<path style="fill:#E8E8E8;" d="M105.556,27.885l-3.723-13.486C100.708,10.323,97,7.5,92.771,7.5l0,0  c-5.192,0-9.401,4.209-9.401,9.401v38.001c0,29.177,15.995,56.006,41.662,69.88l0,0l31.71-44.979l0,0  C131.831,72.544,112.46,52.897,105.556,27.885z"/>
<path style="fill:#F4C53D;" d="M108.84,131.541L108.84,131.541c-8.763-7.467-9.814-20.624-2.348-29.387l24.546-28.809  c7.467-8.763,20.624-9.815,29.387-2.348l0,0c8.763,7.467,9.814,20.624,2.348,29.387l-24.546,28.809  C130.76,137.956,117.603,139.007,108.84,131.541z"/>
<path style="fill:#E8E8E8;" d="M406.444,27.885l3.723-13.486C411.292,10.323,415,7.5,419.229,7.5l0,0  c5.192,0,9.401,4.209,9.401,9.401v38.001c0,29.177-15.995,56.006-41.662,69.88l0,0l-31.71-44.979l0,0  C380.169,72.544,399.54,52.897,406.444,27.885z"/>
<path style="fill:#F4C53D;" d="M403.16,131.541L403.16,131.541c8.763-7.467,9.814-20.624,2.348-29.387l-24.546-28.809  c-7.467-8.763-20.624-9.815-29.387-2.348l0,0c-8.763,7.467-9.814,20.624-2.348,29.387l24.546,28.809  C381.239,137.956,394.396,139.007,403.16,131.541z"/>
<circle style="fill:#F6CDB5;" cx="108.98" cy="226" r="31.968"/>
<circle style="opacity:0.15;fill:#EC8087;enable-background:new    ;" cx="108.98" cy="226" r="31.968"/>
<path style="opacity:0.07;enable-background:new    ;" d="M108.977,194.026c-3.807,0-7.458,0.669-10.845,1.89  c-0.002,0.302-0.011,0.602-0.011,0.904v59.249c3.39,1.224,7.044,1.894,10.856,1.894c17.656,0,31.969-14.313,31.969-31.968  C140.945,208.339,126.633,194.026,108.977,194.026z"/>
<circle style="fill:#F6CDB5;" cx="403.02" cy="226" r="31.968"/>
<circle style="opacity:0.15;fill:#EC8087;enable-background:new    ;" cx="403.02" cy="226" r="31.968"/>
<path style="opacity:0.07;enable-background:new    ;" d="M403.023,194.026c3.807,0,7.458,0.669,10.845,1.89  c0.002,0.302,0.011,0.602,0.011,0.904v59.249c-3.39,1.224-7.044,1.894-10.856,1.894c-17.656,0-31.969-14.313-31.969-31.968  C371.054,208.339,385.367,194.026,403.023,194.026z"/>
<path style="fill:#E8E8E8;" d="M138.235,394.623c-68.354,10.928-78.026,72.057-79.001,98.111  c-0.241,6.432,4.922,11.765,11.358,11.765h67.643V394.623z"/>
<path style="opacity:0.08;enable-background:new    ;" d="M127.963,396.76c-28.236,27.638-46.345,65.576-48.244,107.74h58.516  V394.623C134.646,395.197,131.235,395.922,127.963,396.76z"/>
<path style="fill:#E8E8E8;" d="M373.765,394.623c68.354,10.928,78.026,72.057,79.001,98.111c0.241,6.432-4.922,11.765-11.358,11.765  h-67.642V394.623H373.765z"/>
<path style="opacity:0.08;enable-background:new    ;" d="M384.037,396.76c28.236,27.638,46.345,65.576,48.244,107.74h-58.516  V394.623C377.353,395.197,380.764,395.922,384.037,396.76z"/>
<path style="fill:#8D6A59;" d="M417.074,504.5c0-88.959-72.115-161.074-161.074-161.074S94.926,415.541,94.926,504.5H417.074z"/>
<path style="fill:#394049;" d="M256,343.426c-52.418,0-98.98,25.044-128.394,63.813l92.869,51.245  c22.112,12.201,48.938,12.201,71.05,0l92.869-51.245C354.98,368.47,308.418,343.426,256,343.426z"/>
<path style="opacity:0.1;enable-background:new    ;" d="M256,343.426c-41.125,0-78.642,15.42-107.107,40.783  c26.941,28.279,64.966,45.903,107.107,45.903l0,0c42.141,0,80.166-17.624,107.107-45.903  C334.642,358.846,297.125,343.426,256,343.426z"/>
<path style="fill:#F6CDB5;" d="M256,48.91L256,48.91c-81.689,0-147.911,66.222-147.911,147.911v61.77  c0,81.689,66.222,147.911,147.911,147.911l0,0c81.689,0,147.911-66.222,147.911-147.911v-61.77  C403.911,115.132,337.689,48.91,256,48.91z"/>
<path style="opacity:0.15;enable-background:new    ;" d="M256,48.91L256,48.91c-81.689,0-147.911,66.222-147.911,147.911v16.488  H403.91V196.82C403.911,115.132,337.689,48.91,256,48.91z"/>
<path style="opacity:0.07;enable-background:new    ;" d="M108.32,266.809c4.265,77.866,68.749,139.693,147.68,139.693l0,0  c78.931,0,143.415-61.827,147.68-139.693H108.32z"/>
<path style="fill:#8D6A59;" d="M256,44.084L256,44.084c-82.891,0-150.906,63.641-157.879,144.726h315.758  C406.906,107.726,338.891,44.084,256,44.084z"/>
<g>
	<path style="fill:#EC8087;" d="M188.213,303.552H155.91c-4.143,0-7.5-3.358-7.5-7.5s3.357-7.5,7.5-7.5h32.303   c4.143,0,7.5,3.358,7.5,7.5C195.713,300.194,192.355,303.552,188.213,303.552z"/>
	<path style="fill:#EC8087;" d="M356.089,303.552h-32.302c-4.143,0-7.5-3.358-7.5-7.5s3.357-7.5,7.5-7.5h32.302   c4.143,0,7.5,3.358,7.5,7.5S360.231,303.552,356.089,303.552z"/>
</g>
<path style="fill:#F4C53D;" d="M408.716,150.269H103.284c-6.906,0-12.504,5.599-12.504,12.505v28.749  c0,6.906,5.598,12.505,12.504,12.505h305.432c6.906,0,12.504-5.599,12.504-12.505v-28.749  C421.22,155.868,415.622,150.269,408.716,150.269z"/>
<path style="fill:#E8E8E8;" d="M266.741,33.634h-21.483c-8.804,0-15.941,7.137-15.941,15.941v100.694h53.365V49.575  C282.682,40.771,275.545,33.634,266.741,33.634z"/>
<g style="opacity:0.2;">
	<circle cx="256" cy="116.55" r="8.151"/>
	<circle cx="256" cy="67.21" r="8.151"/>
</g>
<path d="M319.457,252.063c4.143,0,7.5-3.358,7.5-7.5c0-7.154,5.821-12.975,12.976-12.975c7.154,0,12.975,5.821,12.975,12.975  c0,4.142,3.357,7.5,7.5,7.5s7.5-3.358,7.5-7.5c0-15.425-12.55-27.975-27.975-27.975c-15.426,0-27.976,12.55-27.976,27.975  C311.957,248.705,315.315,252.063,319.457,252.063z M256,305.922c9.143,0,17.867-4.403,23.338-11.778  c2.468-3.327,1.772-8.025-1.556-10.492c-3.326-2.467-8.024-1.77-10.491,1.556c-2.694,3.632-6.81,5.715-11.291,5.715  c-4.48,0-8.597-2.083-11.291-5.715c-2.468-3.327-7.166-4.022-10.492-1.555c-3.326,2.468-4.022,7.165-1.555,10.492  C238.134,301.519,246.858,305.922,256,305.922z M445.085,434.358c-14.188-25.479-36.934-41.181-67.627-46.709  c-5.049-5.26-10.458-10.214-16.21-14.82c29.449-27.153,48.406-65.513,50.036-108.24c17.974-3.765,31.201-19.526,31.201-38.594  c0-11.752-5.33-22.852-14.213-30.286c0.289-1.351,0.448-2.749,0.448-4.185v-28.749c0-10.292-7.815-18.788-17.822-19.879  c-0.781-2.028-1.599-4.036-2.454-6.022c8.064-7.151,11.101-17.953,8.744-27.825c12.241-15.37,18.941-34.428,18.941-54.145V16.901  C436.13,7.582,428.548,0,419.228,0c-7.576,0-14.275,5.101-16.291,12.403l-3.724,13.487c-3.806,13.788-11.948,26.002-23.11,34.848  c-2.749-1.155-5.693-1.884-8.752-2.129c-7.023-0.561-13.868,1.461-19.433,5.708c-17.9-11.907-38.192-20.39-59.932-24.634  c-3.737-7.995-11.853-13.55-21.245-13.55h-21.483c-9.392,0-17.507,5.555-21.244,13.55c-21.74,4.243-42.032,12.726-59.932,24.633  c-5.564-4.248-12.404-6.271-19.433-5.709c-3.059,0.244-6.002,0.974-8.752,2.129c-11.162-8.845-19.304-21.059-23.111-34.848  L109.063,12.4C107.045,5.1,100.346,0,92.771,0c-9.319,0-16.9,7.582-16.9,16.901v38.001c0,19.716,6.701,38.774,18.941,54.144  c-2.357,9.872,0.679,20.674,8.744,27.826c-0.855,1.986-1.673,3.994-2.454,6.022c-10.007,1.092-17.822,9.587-17.822,19.879v28.749  c0,1.434,0.159,2.831,0.447,4.181c-8.886,7.434-14.218,18.537-14.218,30.291c0,19.07,13.23,34.832,31.207,38.595  c1.63,42.727,20.587,81.087,50.036,108.239c-5.752,4.606-11.161,9.561-16.21,14.82c-30.693,5.528-53.439,21.23-67.627,46.709  c-11.521,20.688-14.611,43.012-15.176,58.096c-0.193,5.158,1.674,10.046,5.256,13.766c3.591,3.728,8.42,5.781,13.598,5.781h370.814  c5.178,0,10.007-2.053,13.598-5.781c3.582-3.719,5.449-8.608,5.256-13.765C459.696,477.37,456.605,455.046,445.085,434.358z   M427.485,225.995c0,10.631-6.634,19.602-16.074,22.998v-37.669c3.053-0.414,5.892-1.504,8.349-3.137  C424.611,212.766,427.485,219.205,427.485,225.995z M413.673,29.882l3.724-13.487c0.226-0.821,0.98-1.395,1.832-1.395  c1.049,0,1.901,0.852,1.901,1.901v38.001c0,14.259-4.235,28.105-12.066,39.861l-20.909-24.54  C400.395,59.629,409.337,45.592,413.673,29.882z M366.157,73.561c3.554,0.284,6.784,1.935,9.096,4.649l24.546,28.808  c3.72,4.366,4.116,10.45,1.464,15.184c-10.271-18.586-23.94-34.853-40.097-48.09C362.76,73.621,364.447,73.425,366.157,73.561z   M290.183,55.484c46.702,10.795,85.494,43.232,104.471,87.285H290.183V55.484z M236.817,49.575c0-4.654,3.786-8.441,8.44-8.441  h21.483c4.654,0,8.441,3.787,8.441,8.441v93.194h-38.365V49.575H236.817z M221.817,55.485v87.284h-104.47  C136.323,98.717,175.115,66.28,221.817,55.485z M136.747,78.21c2.311-2.714,5.542-4.364,9.096-4.649  c1.709-0.136,3.396,0.06,4.991,0.551c-16.157,13.236-29.826,29.503-40.097,48.089c-2.652-4.734-2.255-10.818,1.464-15.183  L136.747,78.21z M102.936,94.763C95.105,83.007,90.87,69.161,90.87,54.902V16.901c0-1.048,0.853-1.901,1.9-1.901  c0.853,0,1.606,0.574,1.833,1.395l3.723,13.486c4.337,15.711,13.279,29.749,25.519,40.342L102.936,94.763z M100.589,248.995  c-9.443-3.394-16.08-12.367-16.08-23c0-6.79,2.875-13.231,7.727-17.81c2.457,1.635,5.298,2.725,8.353,3.139  C100.589,211.324,100.589,248.995,100.589,248.995z M98.279,191.523v-28.749c0-2.759,2.245-5.004,5.005-5.004h305.432  c2.76,0,5.005,2.245,5.005,5.004v28.749c0,2.759-2.245,5.004-5.005,5.004H103.284C100.524,196.527,98.279,194.282,98.279,191.523z   M115.589,258.591v-47.063h280.822v47.063c0,77.423-62.988,140.411-140.411,140.411S115.589,336.014,115.589,258.591z   M162.52,382.662c26.032,19.662,58.416,31.34,93.48,31.34s67.448-11.677,93.48-31.34c8.653,6.652,16.496,14.153,23.447,22.339  l-85.025,46.917c-19.976,11.023-43.826,11.022-63.804,0L139.073,405C146.025,396.814,153.867,389.314,162.52,382.662z M70.593,497  c-1.436,0-2.367-0.744-2.794-1.186c-0.423-0.439-1.123-1.385-1.069-2.798c0.411-11.007,2.686-32.315,13.29-51.359  c8.721-15.66,21.416-26.909,37.841-33.663C99.742,433.964,89.056,464.803,87.613,497H70.593z M102.61,497  c1.421-28.903,11.029-56.581,27.221-79.968l87.021,48.019c12.258,6.764,25.7,10.145,39.148,10.145  c13.444,0,26.894-3.382,39.148-10.145l87.021-48.018c16.191,23.387,25.8,51.064,27.221,79.967H102.61z M444.201,495.814  c-0.427,0.443-1.357,1.186-2.794,1.186h-17.02c-1.443-32.197-12.129-63.036-30.248-89.007c16.425,6.753,29.12,18.002,37.841,33.663  c10.604,19.044,12.879,40.352,13.29,51.36C445.324,494.429,444.624,495.375,444.201,495.814z M159.092,244.563  c0-7.154,5.821-12.975,12.976-12.975s12.976,5.821,12.976,12.975c0,4.142,3.357,7.5,7.5,7.5s7.5-3.358,7.5-7.5  c0-15.425-12.55-27.975-27.976-27.975s-27.976,12.55-27.976,27.975c0,4.142,3.357,7.5,7.5,7.5  C155.734,252.063,159.092,248.705,159.092,244.563z"/>
<g>
</g>
<g>
</g>
<g>
</g>
<g>
</g>
<g>
</g>
<g>
</g>
<g>
</g>
<g>
</g>
<g>
</g>
<g>
</g>
<g>
</g>
<g>
</g>
<g>
</g>
<g>
</g>
<g>
</g>
</svg>
