<?xml version="1.0" encoding="iso-8859-1"?>
<!-- Generator: Adobe Illustrator 19.0.0, SVG Export Plug-In . SVG Version: 6.00 Build 0)  -->
<svg xmlns="http://www.w3.org/2000/svg" xmlns:xlink="http://www.w3.org/1999/xlink" version="1.1" id="Layer_1" x="0px" y="0px" viewBox="0 0 512 512" style="enable-background:new 0 0 512 512;" xml:space="preserve">
<circle style="fill:#394049;" cx="256" cy="202.9" r="195.4"/>
<circle style="fill:#8D6A59;" cx="120.63" cy="262.61" r="32.556"/>
<circle style="opacity:0.07;enable-background:new    ;" cx="120.63" cy="262.61" r="32.556"/>
<path style="opacity:0.1;enable-background:new    ;" d="M120.631,230.054c-3.718,0-7.286,0.632-10.614,1.779  c-0.303,3.698-0.465,7.435-0.465,11.211v41.881c0,2.82,0.097,5.618,0.267,8.395c3.384,1.192,7.021,1.846,10.813,1.846  c17.98,0,32.556-14.576,32.556-32.556S138.612,230.054,120.631,230.054z"/>
<circle style="fill:#8D6A59;" cx="391.37" cy="262.61" r="32.556"/>
<circle style="opacity:0.07;enable-background:new    ;" cx="391.37" cy="262.61" r="32.556"/>
<path style="opacity:0.1;enable-background:new    ;" d="M391.369,230.054c3.718,0,7.286,0.632,10.614,1.779  c0.303,3.698,0.465,7.435,0.465,11.211v41.881c0,2.82-0.097,5.618-0.267,8.395c-3.384,1.192-7.021,1.846-10.813,1.846  c-17.98,0-32.556-14.576-32.556-32.556C358.813,244.63,373.389,230.054,391.369,230.054z"/>
<path style="fill:#AD82C6;" d="M153.188,408.574c-59.675,9.541-68.119,62.908-68.97,85.654c-0.21,5.615,4.297,10.271,9.916,10.271  h59.054V408.574z"/>
<path style="opacity:0.08;enable-background:new    ;" d="M144.22,410.44c-24.651,24.129-40.461,57.25-42.119,94.06h51.086v-95.926  C150.055,409.075,147.077,409.708,144.22,410.44z"/>
<path style="fill:#AD82C6;" d="M358.813,408.574c59.675,9.541,68.119,62.908,68.97,85.654c0.21,5.615-4.297,10.271-9.916,10.271  h-59.054V408.574z"/>
<path style="opacity:0.08;enable-background:new    ;" d="M367.78,410.44c24.651,24.129,40.461,57.25,42.119,94.06h-51.087v-95.926  C361.945,409.075,364.924,409.708,367.78,410.44z"/>
<path style="fill:#EC8087;" d="M396.623,504.5c0-77.664-62.959-140.623-140.623-140.623S115.377,426.836,115.377,504.5H396.623z"/>
<path style="opacity:0.1;enable-background:new    ;" d="M256,363.877c-35.903,0-68.657,13.462-93.508,35.605  c23.52,24.689,56.717,40.075,93.508,40.075l0,0c36.791,0,69.988-15.386,93.508-40.075C324.657,377.339,291.903,363.877,256,363.877z  "/>
<path style="fill:#8D6A59;" d="M256,107.675L256,107.675c-74.762,0-135.369,60.607-135.369,135.369v41.881  c0,74.762,60.607,135.369,135.369,135.369l0,0c74.762,0,135.369-60.607,135.369-135.369v-41.881  C391.369,168.282,330.762,107.675,256,107.675z"/>
<g>
	<path style="fill:#EC8087;" d="M177.741,294.1H150.52c-4.143,0-7.5-3.358-7.5-7.5s3.357-7.5,7.5-7.5h27.222   c4.143,0,7.5,3.358,7.5,7.5C185.241,290.742,181.884,294.1,177.741,294.1z"/>
	<path style="fill:#EC8087;" d="M361.481,294.1h-27.223c-4.143,0-7.5-3.358-7.5-7.5s3.357-7.5,7.5-7.5h27.223   c4.143,0,7.5,3.358,7.5,7.5S365.624,294.1,361.481,294.1z"/>
	<path style="fill:#EC8087;" d="M417.087,43.375L417.087,43.375c-8.085,0-14.639,6.554-14.639,14.639v34.311h34.31   c8.085,0,14.639-6.554,14.639-14.639l0,0C451.398,58.736,436.037,43.375,417.087,43.375z"/>
	<path style="fill:#EC8087;" d="M353.499,77.685L353.499,77.685c0,8.085,6.554,14.639,14.639,14.639h34.311v-34.31   c0-8.085-6.554-14.639-14.639-14.639l0,0C368.861,43.375,353.499,58.736,353.499,77.685z"/>
	<path style="fill:#EC8087;" d="M387.81,141.274L387.81,141.274c8.085,0,14.639-6.554,14.639-14.639v-34.31h-34.311   c-8.085,0-14.639,6.554-14.639,14.639l0,0C353.499,125.912,368.861,141.274,387.81,141.274z"/>
	<path style="fill:#EC8087;" d="M451.398,106.963L451.398,106.963c0-8.085-6.554-14.639-14.639-14.639h-34.31v34.31   c0,8.085,6.554,14.639,14.639,14.639l0,0C436.037,141.274,451.398,125.912,451.398,106.963z"/>
</g>
<circle style="fill:#F6D83E;" cx="402.45" cy="92.32" r="22.22"/>
<path d="M164.127,230.854c-4.143,0-7.5,3.358-7.5,7.5v20.251c0,4.142,3.357,7.5,7.5,7.5s7.5-3.358,7.5-7.5v-20.251  C171.627,234.211,168.27,230.854,164.127,230.854z M453.347,92.324c3.451-3.905,5.551-9.03,5.551-14.639  c0-23.054-18.757-41.811-41.811-41.811c-5.609,0-10.733,2.1-14.639,5.551c-3.905-3.451-9.03-5.551-14.639-5.551  c-4.698,0-9.213,0.791-13.431,2.226C339.748,13.16,298.912,0,256,0C144.121,0,53.102,91.02,53.102,202.898  c0,67.165,33.102,129.737,88.593,167.64c5.624,7.49,11.969,14.407,18.925,20.657c-3.894,3.286-7.619,6.773-11.158,10.441  c-26.912,4.934-46.893,18.756-59.372,41.165c-10.149,18.225-12.872,37.874-13.369,51.147c-0.178,4.764,1.547,9.279,4.855,12.714  c3.315,3.442,7.775,5.338,12.557,5.338h323.733c4.781,0,9.24-1.895,12.556-5.337c3.309-3.435,5.033-7.95,4.855-12.715  c-0.497-13.273-3.22-32.921-13.369-51.147c-12.479-22.41-32.46-36.231-59.372-41.165c-3.538-3.668-7.263-7.155-11.157-10.44  c6.956-6.25,13.301-13.167,18.925-20.657c55.491-37.904,88.593-100.476,88.593-167.64c0-23.072-3.847-45.67-11.433-67.251  c7.079-7.493,11.433-17.587,11.433-28.684C458.898,101.354,456.798,96.23,453.347,92.324z M417.17,92.324  c0,8.117-6.604,14.721-14.722,14.721c-8.117,0-14.721-6.604-14.721-14.721s6.604-14.721,14.721-14.721S417.17,84.207,417.17,92.324z   M387.81,50.875c3.936,0,7.139,3.202,7.139,7.139v5.55c-10.372,2.707-18.554,10.889-21.26,21.261h-5.55  c-3.936,0-7.139-3.202-7.139-7.139C360.999,62.902,373.026,50.875,387.81,50.875z M368.138,99.824h5.55  c2.707,10.372,10.889,18.554,21.26,21.261v5.55c0,3.936-3.202,7.139-7.139,7.139c-14.783,0-26.811-12.027-26.811-26.811  C360.999,103.026,364.201,99.824,368.138,99.824z M85.287,281.434c5.778,10.806,16.365,18.664,28.884,20.704  c1.363,11.3,4.049,22.198,7.9,32.534C106.743,319.098,94.323,301.074,85.287,281.434z M113.151,286.525  c-10.174-3.189-17.576-12.703-17.576-23.915c0-11.231,7.427-20.759,17.628-23.932c-0.044,1.451-0.073,2.905-0.073,4.366v41.881  C113.131,285.459,113.145,285.991,113.151,286.525z M94.134,497c-0.902,0-1.486-0.466-1.754-0.745  c-0.322-0.334-0.699-0.909-0.668-1.746c0.356-9.524,2.322-27.959,11.483-44.411c6.942-12.466,16.82-21.683,29.458-27.602  c-3.065,4.592-5.876,9.348-8.4,14.246c-9.574,18.578-15.101,39.267-16.171,60.258H94.134z M408.805,450.098  c9.161,16.452,11.127,34.887,11.483,44.411c0.031,0.838-0.346,1.413-0.668,1.747c-0.268,0.278-0.852,0.744-1.753,0.744h-13.949  c-1.07-20.991-6.597-41.68-16.171-60.258c-2.525-4.898-5.336-9.654-8.4-14.246C391.985,428.415,401.863,437.631,408.805,450.098z   M374.413,443.614c8.618,16.721,13.484,34.647,14.507,53.386H123.08c1.022-18.74,5.889-36.665,14.507-53.386  c8.478-16.452,20.505-31.147,34.954-42.805c23.495,16.969,52.327,26.984,83.459,26.984s59.964-10.015,83.459-26.984  C353.908,412.467,365.935,427.162,374.413,443.614z M383.869,284.924c0,70.507-57.362,127.869-127.869,127.869  s-127.869-57.362-127.869-127.869v-41.881c0-70.507,57.362-127.869,127.869-127.869s127.869,57.362,127.869,127.869V284.924z   M389.929,334.671c3.852-10.336,6.537-21.234,7.9-32.534c12.508-2.037,23.087-9.883,28.869-20.673  C417.664,301.092,405.249,319.106,389.929,334.671z M398.796,238.678c10.201,3.172,17.629,12.701,17.629,23.932  c0,11.212-7.403,20.727-17.577,23.915c0.006-0.534,0.02-1.066,0.02-1.601v-41.881C398.869,241.582,398.84,240.128,398.796,238.678z   M429.126,275.969c1.484-4.181,2.299-8.676,2.299-13.359c0-20.017-14.76-36.652-33.967-39.594  C387.69,153.687,327.981,100.175,256,100.175s-131.689,53.512-141.459,122.841c-19.207,2.943-33.966,19.577-33.966,39.594  c0,4.688,0.817,9.186,2.303,13.37c-9.622-22.793-14.777-47.58-14.777-73.082C68.102,99.291,152.393,15,256,15  c37.473,0,73.23,10.839,104.073,31.437c-8.625,7.665-14.074,18.83-14.074,31.249c0,5.609,2.101,10.734,5.551,14.639  c-3.45,3.905-5.551,9.03-5.551,14.639c0,23.054,18.756,41.81,41.811,41.81c5.609,0,10.733-2.1,14.639-5.551  c3.906,3.451,9.031,5.551,14.64,5.551c6.307,0,12.288-1.412,17.655-3.923c6.075,18.696,9.156,38.179,9.156,58.047  C443.898,228.395,438.745,253.179,429.126,275.969z M417.087,133.774c-3.937,0-7.139-3.203-7.139-7.139v-5.55  c10.372-2.707,18.555-10.889,21.261-21.261h5.549c3.937,0,7.14,3.202,7.14,7.139C443.898,121.747,431.871,133.774,417.087,133.774z   M436.759,84.824h-5.549c-2.707-10.372-10.889-18.554-21.261-21.261v-5.55c0-3.937,3.202-7.139,7.139-7.139  c14.784,0,26.811,12.027,26.811,26.811C443.898,81.622,440.695,84.824,436.759,84.824z M276.31,272.84  c-3.326-2.467-8.024-1.771-10.491,1.556c-2.344,3.159-5.922,4.971-9.818,4.971c-3.896,0-7.476-1.812-9.819-4.972  c-2.469-3.326-7.165-4.022-10.492-1.555c-3.326,2.468-4.023,7.166-1.555,10.492c5.126,6.909,13.301,11.034,21.866,11.034  c8.566,0,16.74-4.125,21.865-11.035C280.333,280.005,279.637,275.308,276.31,272.84z M340.373,238.354v20.251  c0,4.142,3.358,7.5,7.5,7.5c4.143,0,7.5-3.358,7.5-7.5v-20.251c0-4.142-3.357-7.5-7.5-7.5  C343.73,230.854,340.373,234.211,340.373,238.354z"/>
<g>
</g>
<g>
</g>
<g>
</g>
<g>
</g>
<g>
</g>
<g>
</g>
<g>
</g>
<g>
</g>
<g>
</g>
<g>
</g>
<g>
</g>
<g>
</g>
<g>
</g>
<g>
</g>
<g>
</g>
</svg>
