<?xml version="1.0" encoding="iso-8859-1"?>
<!-- Generator: Adobe Illustrator 19.0.0, SVG Export Plug-In . SVG Version: 6.00 Build 0)  -->
<svg xmlns="http://www.w3.org/2000/svg" xmlns:xlink="http://www.w3.org/1999/xlink" version="1.1" id="Layer_1" x="0px" y="0px" viewBox="0 0 512 512" style="enable-background:new 0 0 512 512;" xml:space="preserve">
<path style="fill:#F6CDB5;" d="M141.324,397.507c-66.56,10.642-75.978,70.166-76.928,95.537c-0.235,6.263,4.793,11.456,11.06,11.456  h65.868L141.324,397.507L141.324,397.507z"/>
<path style="opacity:0.1;enable-background:new    ;" d="M131.322,399.587C103.827,426.5,86.194,463.442,84.344,504.5h56.981  V397.507C137.83,398.065,134.508,398.771,131.322,399.587z"/>
<path style="fill:#F6CDB5;" d="M370.674,397.507c66.56,10.642,75.978,70.166,76.928,95.537c0.235,6.263-4.793,11.456-11.06,11.456  h-65.867V397.507H370.674z"/>
<path style="opacity:0.1;enable-background:new    ;" d="M380.677,399.587c27.495,26.913,45.129,63.855,46.978,104.913h-56.981  V397.507C374.169,398.065,377.491,398.771,380.677,399.587z"/>
<path style="fill:#4DB1E0;" d="M412.848,504.5c0-86.625-70.223-156.848-156.848-156.848c-86.624,0-156.848,70.223-156.848,156.848  H412.848z"/>
<path style="opacity:0.4;fill:#FFFFFF;enable-background:new    ;" d="M314.743,450.109H197.255  c-7.162,0-12.968,5.806-12.968,12.968V504.5h143.424v-41.423C327.712,455.915,321.906,450.109,314.743,450.109z"/>
<path style="opacity:0.1;enable-background:new    ;" d="M255.999,347.652c-45.448,0-86.374,19.337-115.019,50.225  c31.468,25.346,71.468,40.528,115.019,40.528c43.552,0,83.552-15.182,115.02-40.528C342.374,366.99,301.448,347.652,255.999,347.652  z"/>
<circle style="fill:#F6CDB5;" cx="72.49" cy="226.1" r="42.714"/>
<circle style="opacity:0.15;fill:#EC8087;enable-background:new    ;" cx="72.49" cy="226.1" r="42.714"/>
<path style="opacity:0.07;enable-background:new    ;" d="M72.491,183.386c-3.491,0-6.88,0.428-10.127,1.218  c-3.082,13.334-4.712,27.225-4.712,41.496s1.63,28.162,4.712,41.496c3.248,0.79,6.637,1.218,10.127,1.218  c23.59,0,42.714-19.124,42.714-42.714S96.081,183.386,72.491,183.386z"/>
<circle style="fill:#F6CDB5;" cx="439.51" cy="226.1" r="42.714"/>
<circle style="opacity:0.15;fill:#EC8087;enable-background:new    ;" cx="439.51" cy="226.1" r="42.714"/>
<path style="opacity:0.07;enable-background:new    ;" d="M439.509,183.386c3.491,0,6.88,0.428,10.127,1.218  c3.082,13.334,4.712,27.225,4.712,41.496s-1.63,28.162-4.712,41.496c-3.248,0.79-6.637,1.218-10.127,1.218  c-23.59,0-42.714-19.124-42.714-42.714S415.919,183.386,439.509,183.386z"/>
<circle style="fill:#F6CDB5;" cx="255.999" cy="226.1" r="183.51"/>
<path style="fill:#394049;" d="M377.215,24.99c-8.597,0-16.664,2.251-23.661,6.181c-8.852-9.703-21.598-15.793-35.767-15.793  c-9.66,0-18.652,2.841-26.206,7.717C282.734,13.509,270.071,7.5,255.999,7.5c-14.071,0-26.735,6.009-35.579,15.596  c-7.555-4.876-16.546-7.717-26.207-7.717c-14.169,0-26.915,6.09-35.767,15.793c-6.997-3.93-15.065-6.181-23.661-6.181  c-26.733,0-48.405,21.672-48.405,48.405s21.672,48.405,48.405,48.405c14.169,0,26.915-6.09,35.767-15.793  c6.998,3.93,15.065,6.181,23.661,6.181c14.071,0,26.735-6.009,35.579-15.595c7.555,4.876,16.546,7.717,26.206,7.717  c9.66,0,18.652-2.841,26.207-7.717c8.844,9.586,21.508,15.595,35.579,15.595c8.597,0,16.664-2.251,23.661-6.181  c8.852,9.703,21.598,15.793,35.767,15.793c26.733,0,48.405-21.672,48.405-48.405C425.62,46.662,403.948,24.99,377.215,24.99z"/>
<g>
	<path style="fill:#EC8087;" d="M159.712,247.409h-29.957c-4.142,0-7.5-3.358-7.5-7.5s3.358-7.5,7.5-7.5h29.957   c4.142,0,7.5,3.358,7.5,7.5S163.854,247.409,159.712,247.409z"/>
	<path style="fill:#EC8087;" d="M382.236,247.409h-29.957c-4.143,0-7.5-3.358-7.5-7.5s3.357-7.5,7.5-7.5h29.957   c4.143,0,7.5,3.358,7.5,7.5S386.379,247.409,382.236,247.409z"/>
</g>
<path style="fill:#4DB1E0;" d="M422.959,78.55H89.041c-13.009,0-23.555,10.546-23.555,23.555v5.306h381.028v-5.306  C446.514,89.096,435.967,78.55,422.959,78.55z"/>
<rect x="65.49" y="106.87" style="fill:#F6D83E;" width="381.03" height="28.86"/>
<path style="fill:#4DB1E0;" d="M446.514,135.733H65.486v5.306c0,13.009,10.546,23.555,23.555,23.555h333.918  c13.009,0,23.555-10.546,23.555-23.555L446.514,135.733L446.514,135.733z"/>
<path d="M440.303,276.294c27.323-0.427,49.421-22.772,49.421-50.194c0-27.414-22.085-49.754-49.396-50.194  c-0.705-2.593-1.465-5.173-2.281-7.738c9.515-5.313,15.968-15.48,15.968-27.13v-38.934c0-13.572-8.755-25.13-20.911-29.345  c-0.343-30.533-25.275-55.27-55.888-55.27c-7.643,0-15.217,1.578-22.196,4.597c-10.192-9.088-23.473-14.209-37.233-14.209  c-8.743,0-17.288,2.032-25.029,5.918C282.627,4.968,269.532,0,255.999,0c-13.533,0-26.627,4.968-36.757,13.796  c-7.742-3.886-16.287-5.918-25.029-5.918c-13.759,0-27.04,5.121-37.232,14.209c-6.979-3.019-14.552-4.597-22.196-4.597  c-30.613,0-55.546,24.737-55.889,55.27c-12.156,4.214-20.911,15.773-20.911,29.344v38.934c0,11.65,6.452,21.817,15.968,27.13  c-0.816,2.565-1.576,5.145-2.281,7.738c-27.311,0.441-49.396,22.78-49.396,50.194c0,27.422,22.098,49.766,49.42,50.194  c11.832,43.399,38.613,80.693,74.452,105.977c-2.968,2.664-5.823,5.425-8.569,8.27c-29.891,5.412-52.047,20.729-65.875,45.562  c-11.237,20.179-14.251,41.95-14.802,56.659c-0.19,5.077,1.646,9.888,5.172,13.549C65.609,509.98,70.361,512,75.457,512h361.085  c5.096,0,9.849-2.02,13.382-5.688c3.526-3.661,5.363-8.472,5.174-13.548c-0.551-14.711-3.566-36.481-14.802-56.66  c-13.829-24.833-35.985-40.15-65.875-45.562c-2.746-2.845-5.601-5.605-8.569-8.269C401.691,356.987,428.471,319.693,440.303,276.294  z M443.805,191.157c17.397,2.127,30.918,16.98,30.918,34.943c0,17.966-13.527,32.822-30.93,34.944  c2.104-11.333,3.215-23.011,3.215-34.944C447.009,214.3,445.928,202.623,443.805,191.157z M37.276,226.1  c0-17.962,13.521-32.816,30.918-34.943c-2.123,11.467-3.203,23.143-3.203,34.943c0,11.933,1.111,23.611,3.215,34.944  C50.803,258.922,37.276,244.066,37.276,226.1z M134.785,32.49c6.997,0,13.909,1.805,19.989,5.22  c3.043,1.709,6.862,1.094,9.213-1.484c7.739-8.482,18.756-13.348,30.227-13.348c7.876,0,15.532,2.254,22.14,6.519  c3.065,1.978,7.106,1.465,9.58-1.216C233.661,19.804,244.62,15,255.999,15c11.379,0,22.338,4.805,30.066,13.182  c2.474,2.681,6.519,3.194,9.58,1.215c6.607-4.265,14.263-6.519,22.14-6.519c11.471,0,22.487,4.865,30.226,13.348  c2.352,2.577,6.172,3.195,9.214,1.484c6.08-3.415,12.992-5.22,19.989-5.22c21.767,0,39.613,17.092,40.832,38.56H93.952  C95.172,49.583,113.017,32.49,134.785,32.49z M72.986,141.039v-38.934c0-8.853,7.202-16.055,16.055-16.055h333.918  c8.853,0,16.055,7.202,16.055,16.055v38.934c0,8.853-7.202,16.055-16.055,16.055H89.041  C80.188,157.093,72.986,149.891,72.986,141.039z M75.457,497c-1.326,0-2.185-0.686-2.579-1.095c-0.39-0.404-1.036-1.277-0.987-2.581  c0.4-10.7,2.611-31.414,12.917-49.923c8.328-14.956,20.386-25.776,35.957-32.37c-17.418,25.116-27.53,54.743-28.93,85.97H75.457V497  z M320.212,497H191.787v-33.923c0-3.015,2.453-5.468,5.468-5.468h117.488c3.015,0,5.468,2.453,5.468,5.468L320.212,497L320.212,497z   M427.19,443.4c10.307,18.509,12.517,39.223,12.917,49.923c0.049,1.304-0.597,2.177-0.986,2.581  c-0.395,0.409-1.253,1.095-2.579,1.095h-16.378c-1.4-31.227-11.512-60.854-28.93-85.97  C406.805,417.625,418.862,428.444,427.19,443.4z M405.163,497h-69.951v-33.923c0-11.286-9.182-20.468-20.468-20.468H197.255  c-11.286,0-20.468,9.182-20.468,20.468V497h-69.951c2.035-41.265,20.833-79.408,52.423-106.263  c28.391,16.746,61.46,26.372,96.74,26.372s68.349-9.626,96.74-26.372C384.329,417.592,403.127,455.735,405.163,497z   M255.999,402.109c-97.052,0-176.009-78.957-176.009-176.009c0-18.472,2.851-36.614,8.463-54.022  c0.196,0.004,0.39,0.015,0.587,0.015h333.918c0.197,0,0.391-0.011,0.587-0.015c5.611,17.406,8.463,35.549,8.463,54.022  C432.009,323.152,353.052,402.109,255.999,402.109z M279.146,224.45c-3.328-2.468-8.024-1.771-10.492,1.555  c-3.019,4.069-7.631,6.403-12.654,6.403c-5.023,0-9.635-2.334-12.654-6.403c-2.467-3.327-7.165-4.024-10.492-1.555  c-3.327,2.468-4.023,7.165-1.555,10.492c5.791,7.806,15.024,12.467,24.701,12.467s18.911-4.661,24.701-12.467  C283.169,231.615,282.473,226.918,279.146,224.45z M367.266,179.316c-4.143,0-7.5,3.358-7.5,7.5v22.286c0,4.142,3.357,7.5,7.5,7.5  s7.5-3.358,7.5-7.5v-22.286C374.766,182.674,371.408,179.316,367.266,179.316z M144.733,179.316c-4.142,0-7.5,3.358-7.5,7.5v22.286  c0,4.142,3.358,7.5,7.5,7.5s7.5-3.358,7.5-7.5v-22.286C152.233,182.674,148.876,179.316,144.733,179.316z"/>
<g>
</g>
<g>
</g>
<g>
</g>
<g>
</g>
<g>
</g>
<g>
</g>
<g>
</g>
<g>
</g>
<g>
</g>
<g>
</g>
<g>
</g>
<g>
</g>
<g>
</g>
<g>
</g>
<g>
</g>
</svg>
