<?xml version="1.0" encoding="iso-8859-1"?>
<!-- Generator: Adobe Illustrator 19.0.0, SVG Export Plug-In . SVG Version: 6.00 Build 0)  -->
<svg xmlns="http://www.w3.org/2000/svg" xmlns:xlink="http://www.w3.org/1999/xlink" version="1.1" id="Layer_1" x="0px" y="0px" viewBox="0 0 511.999 511.999" style="enable-background:new 0 0 511.999 511.999;" xml:space="preserve">
<rect x="67.41" y="218.39" style="fill:#F4C53D;" width="377.18" height="254.89"/>
<rect x="95.46" y="304.63" style="opacity:0.08;enable-background:new    ;" width="321.08" height="161.2"/>
<path style="fill:#FADDCC;" d="M138.149,394.544c-68.403,10.936-78.082,72.109-79.058,98.182  c-0.241,6.436,4.926,11.774,11.367,11.774h67.691V394.544z"/>
<path style="opacity:0.1;enable-background:new    ;" d="M127.871,396.683C99.614,424.341,81.493,462.306,79.592,504.5h58.558  V394.544C134.559,395.118,131.145,395.844,127.871,396.683z"/>
<path style="fill:#FADDCC;" d="M373.85,394.544c68.403,10.936,78.082,72.109,79.058,98.182c0.241,6.436-4.926,11.774-11.367,11.774  H373.85V394.544z"/>
<path style="opacity:0.1;enable-background:new    ;" d="M384.129,396.683c28.257,27.658,46.378,65.623,48.279,107.817H373.85  V394.544C377.441,395.118,380.854,395.844,384.129,396.683z"/>
<path style="fill:#AD82C6;" d="M417.19,504.5c0-89.023-72.167-161.19-161.19-161.19S94.81,415.477,94.81,504.5H417.19z"/>
<path style="fill:#FADDCC;" d="M335.447,364.226c-23.448-13.309-50.558-20.916-79.447-20.916s-55.998,7.607-79.447,20.916  c-0.014,0.619-0.047,1.233-0.047,1.855c0,43.903,35.591,79.494,79.494,79.494s79.494-35.591,79.494-79.494  C335.493,365.459,335.461,364.845,335.447,364.226z"/>
<path style="opacity:0.1;enable-background:new    ;" d="M255.999,343.31c-46.706,0-88.765,19.873-118.204,51.615  c32.339,26.048,73.446,41.65,118.204,41.65s85.865-15.602,118.204-41.65C344.765,363.183,302.707,343.31,255.999,343.31z"/>
<path style="fill:#FADDCC;" d="M96.254,228.266c0,15.93-12.914,28.844-28.844,28.844s-28.844-12.914-28.844-28.844v-16.635  c0-15.93,12.914-28.843,28.844-28.843s28.844,12.914,28.844,28.843V228.266z"/>
<path style="opacity:0.1;enable-background:new    ;" d="M67.41,182.788c-3.72,0-7.272,0.712-10.537,1.994v70.333  c3.265,1.282,6.817,1.994,10.537,1.994c15.93,0,28.844-12.914,28.844-28.844V211.63C96.254,195.702,83.34,182.788,67.41,182.788z"/>
<path style="fill:#FADDCC;" d="M415.746,228.266c0,15.93,12.914,28.844,28.844,28.844s28.844-12.914,28.844-28.844v-16.635  c0-15.93-12.914-28.843-28.844-28.843s-28.844,12.914-28.844,28.843V228.266z"/>
<path style="opacity:0.1;enable-background:new    ;" d="M444.59,182.788c3.72,0,7.272,0.712,10.537,1.994v70.333  c-3.265,1.282-6.817,1.994-10.537,1.994c-15.93,0-28.844-12.914-28.844-28.844V211.63  C415.746,195.702,428.66,182.788,444.59,182.788z"/>
<circle style="fill:#FADDCC;" cx="255.999" cy="218.39" r="188.59"/>
<path style="fill:#F4C53D;" d="M444.566,194.179c-0.337-33.873-9.599-65.605-25.554-92.961l0,0h0.001  C386.322,45.17,325.564,7.5,255.999,7.5S125.678,45.17,92.988,101.218h0.002l0,0c-15.955,27.356-25.218,59.088-25.554,92.961H67.41  v184.173h28.051V163.813c0-34.571,28.025-62.596,62.596-62.596H196.1c33.082,0,59.9-26.818,59.9-59.901  c0,33.082,26.818,59.901,59.901,59.901h38.042c34.571,0,62.596,28.025,62.596,62.596v214.538h28.051V194.179H444.566z"/>
<g>
	<path style="fill:#EC8087;" d="M157.046,258.935h-30.786c-4.142,0-7.5-3.358-7.5-7.5s3.358-7.5,7.5-7.5h30.786   c4.142,0,7.5,3.358,7.5,7.5S161.188,258.935,157.046,258.935z"/>
	<path style="fill:#EC8087;" d="M385.73,258.935h-30.786c-4.142,0-7.5-3.358-7.5-7.5s3.358-7.5,7.5-7.5h30.786   c4.142,0,7.5,3.358,7.5,7.5S389.874,258.935,385.73,258.935z"/>
	<path style="fill:#EC8087;" d="M255.999,257.58c-9.878,0-19.306-4.758-25.218-12.728c-2.468-3.327-1.772-8.024,1.555-10.492   c3.327-2.467,8.024-1.771,10.492,1.555c3.142,4.236,7.943,6.665,13.171,6.665s10.029-2.429,13.171-6.665   c2.469-3.326,7.167-4.022,10.492-1.555c3.327,2.468,4.022,7.165,1.555,10.492C275.306,252.822,265.878,257.58,255.999,257.58z"/>
</g>
<circle style="fill:#AD82C6;" cx="157.049" cy="188.56" r="45.38"/>
<path style="opacity:0.3;fill:#FFFFFF;enable-background:new    ;" d="M175.337,147.037l-59.816,59.816  c5.112,11.59,14.929,20.629,27.034,24.708l57.491-57.491C195.965,161.965,186.926,152.149,175.337,147.037z"/>
<circle style="fill:#AD82C6;" cx="354.95" cy="188.56" r="45.38"/>
<path style="opacity:0.3;fill:#FFFFFF;enable-background:new    ;" d="M373.242,147.037l-59.816,59.816  c5.112,11.59,14.928,20.629,27.034,24.708l57.491-57.491C393.872,161.965,384.832,152.149,373.242,147.037z"/>
<path d="M451.017,175.868c-2.858-27.637-11.539-54.446-25.526-78.43c-16.976-29.106-41.306-53.506-70.359-70.566  C325.189,9.292,290.91,0,255.999,0s-69.189,9.292-99.131,26.873c-29.054,17.059-53.383,41.461-70.358,70.566  c-13.987,23.982-22.668,50.792-25.527,78.429C44,178.913,31.066,193.785,31.066,211.631v16.635c0,17.469,12.39,32.095,28.844,35.561  v185.446c-5.973,15.977-7.882,31.676-8.313,43.173c-0.193,5.16,1.674,10.051,5.259,13.771c3.592,3.729,8.423,5.782,13.603,5.782  h371.082c5.18,0,10.011-2.054,13.603-5.782c3.584-3.721,5.452-8.612,5.259-13.772c-0.43-11.496-2.34-27.196-8.313-43.173V263.828  c16.453-3.466,28.844-18.092,28.844-35.561v-16.635C480.934,193.785,468,178.913,451.017,175.868z M59.942,193.482  c-0.021,0.229-0.032,0.462-0.032,0.697v54.045c-8.075-3.045-13.844-10.83-13.844-19.957v-16.635c0-9.155,5.804-16.959,13.929-19.983  C59.981,192.26,59.95,192.87,59.942,193.482z M437.066,194.253c0.001,0.179,0.01,0.357,0.024,0.532v227.197  c-3.912-5.046-8.265-9.579-13.051-13.594V187.645h12.831C436.971,189.844,437.044,192.047,437.066,194.253z M99.466,104.996  c15.682-26.888,38.158-49.429,64.997-65.188C192.104,23.579,223.757,15,255.999,15s63.895,8.579,91.536,24.808  c26.839,15.759,49.315,38.301,64.997,65.188c12.107,20.758,19.9,43.815,23.004,67.648h-11.498v-8.831  c0-38.651-31.445-70.096-70.096-70.096H315.9c-28.894,0-52.4-23.507-52.4-52.4c0-4.142-3.358-7.5-7.5-7.5  c-4.142,0-7.5,3.358-7.5,7.5c0,28.894-23.507,52.4-52.4,52.4h-38.042c-38.651,0-70.096,31.445-70.096,70.096v8.831H76.464  C79.567,148.812,87.361,125.754,99.466,104.996z M345.538,375.829c-27.141,15.474-58.103,23.653-89.538,23.653  s-62.397-8.179-89.538-23.653c-25.729-14.669-47.636-35.616-63.501-60.64V187.645h1.233c-0.005,0.307-0.023,0.61-0.023,0.918  c0,29.156,23.72,52.877,52.876,52.877s52.876-23.72,52.876-52.877c0-0.308-0.018-0.612-0.023-0.918h92.2  c-0.005,0.307-0.023,0.61-0.023,0.918c0,29.156,23.72,52.877,52.876,52.877s52.876-23.72,52.876-52.877  c0-0.308-0.018-0.612-0.023-0.918h1.233v127.544C393.173,340.214,371.266,361.16,345.538,375.829z M409.039,340.962v57.287  c-9.317-5.003-19.806-8.569-31.44-10.669c-2.875-2.981-5.865-5.873-8.978-8.66C383.797,368.243,397.424,355.435,409.039,340.962z   M316.657,404.866c-13.005,20.372-35.668,33.21-60.657,33.21s-47.652-12.837-60.657-33.21c19.493,6.326,39.978,9.616,60.657,9.616  C276.679,414.482,297.164,411.192,316.657,404.866z M143.378,378.919c-3.113,2.788-6.103,5.679-8.978,8.66  c-11.634,2.1-22.123,5.666-31.44,10.669v-57.287C114.575,355.435,128.202,368.243,143.378,378.919z M119.171,188.563  c0-20.885,16.991-37.876,37.876-37.876s37.876,16.991,37.876,37.876s-16.991,37.877-37.876,37.877  C136.161,226.44,119.171,209.448,119.171,188.563z M317.077,188.563c0-20.885,16.991-37.876,37.876-37.876  s37.876,16.991,37.876,37.876s-16.991,37.877-37.876,37.877C334.068,226.44,317.077,209.448,317.077,188.563z M405.376,172.645  c-6.771-21.4-26.812-36.958-50.423-36.958s-43.652,15.557-50.423,36.958h-97.06c-6.771-21.4-26.813-36.958-50.423-36.958  s-43.652,15.557-50.423,36.958h-3.663v-8.831c0-30.38,24.716-55.096,55.096-55.096H196.1c26.043,0,48.682-14.844,59.9-36.519  c11.218,21.674,33.857,36.519,59.9,36.519h38.043c30.38,0,55.096,24.716,55.096,55.096v8.831L405.376,172.645L405.376,172.645z   M74.91,194.788c0.014-0.177,0.022-0.355,0.024-0.534c0.022-2.206,0.094-4.409,0.197-6.609h12.83v220.744  c-4.786,4.015-9.139,8.548-13.051,13.594V194.788z M87.49,497H70.459c-1.439,0-2.372-0.745-2.8-1.189  c-0.423-0.439-1.125-1.388-1.072-2.804c0.413-11.016,2.689-32.341,13.302-51.399c8.697-15.618,21.344-26.853,37.699-33.619  C99.429,433.942,88.903,464.638,87.49,497z M102.489,497c2.041-42.577,21.422-81.944,54.025-109.629  c0.84,0.496,1.671,1.006,2.518,1.489c5.076,2.894,10.283,5.535,15.587,7.954c12.74,33.788,45.029,56.262,81.38,56.262  s68.64-22.474,81.38-56.262c5.304-2.418,10.511-5.06,15.587-7.954c0.848-0.483,1.678-0.993,2.518-1.489  c32.604,27.686,51.984,67.053,54.026,109.629H102.489z M444.341,495.811c-0.428,0.444-1.36,1.189-2.8,1.189H424.51  c-1.413-32.361-11.939-63.058-30.098-89.012c16.356,6.767,29.002,18.001,37.699,33.62c10.613,19.059,12.889,40.384,13.302,51.399  C445.466,494.423,444.764,495.372,444.341,495.811z M465.934,228.266c0,9.127-5.769,16.912-13.844,19.957v-54.045  c0-0.234-0.011-0.465-0.032-0.694c-0.008-0.615-0.04-1.228-0.054-1.842c8.119,3.022,13.929,10.829,13.929,19.988v16.636H465.934z"/>
<g>
</g>
<g>
</g>
<g>
</g>
<g>
</g>
<g>
</g>
<g>
</g>
<g>
</g>
<g>
</g>
<g>
</g>
<g>
</g>
<g>
</g>
<g>
</g>
<g>
</g>
<g>
</g>
<g>
</g>
</svg>
