<?xml version="1.0" encoding="iso-8859-1"?>
<!-- Generator: Adobe Illustrator 19.0.0, SVG Export Plug-In . SVG Version: 6.00 Build 0)  -->
<svg xmlns="http://www.w3.org/2000/svg" xmlns:xlink="http://www.w3.org/1999/xlink" version="1.1" id="Layer_1" x="0px" y="0px" viewBox="0 0 512 512" style="enable-background:new 0 0 512 512;" xml:space="preserve">
<circle style="fill:#F2BE89;" cx="86.46" cy="201.55" r="40.775"/>
<circle style="opacity:0.07;enable-background:new    ;" cx="86.46" cy="201.55" r="40.775"/>
<path style="opacity:0.1;enable-background:new    ;" d="M86.459,160.772c-4.656,0-9.126,0.791-13.294,2.228  c-0.38,4.631-0.583,9.312-0.583,14.041v52.453c0,3.532,0.121,7.036,0.334,10.515c4.238,1.492,8.794,2.313,13.543,2.313  c22.519,0,40.775-18.256,40.775-40.775S108.978,160.772,86.459,160.772z"/>
<circle style="fill:#F2BE89;" cx="425.54" cy="201.55" r="40.775"/>
<circle style="opacity:0.07;enable-background:new    ;" cx="425.54" cy="201.55" r="40.775"/>
<path style="opacity:0.1;enable-background:new    ;" d="M425.542,160.772c4.656,0,9.126,0.791,13.294,2.228  c0.38,4.631,0.583,9.312,0.583,14.041v52.453c0,3.532-0.121,7.036-0.334,10.515c-4.238,1.492-8.793,2.313-13.543,2.313  c-22.519,0-40.775-18.256-40.775-40.775S403.023,160.772,425.542,160.772z"/>
<path style="fill:#4EBF8C;" d="M127.234,384.359c-74.74,11.949-85.315,78.789-86.381,107.277  c-0.263,7.033,5.382,12.864,12.419,12.864h73.962V384.359z"/>
<path style="opacity:0.08;enable-background:new    ;" d="M116.002,386.695c-30.874,30.22-50.675,71.702-52.751,117.805h63.983  V384.359C123.31,384.986,119.58,385.779,116.002,386.695z"/>
<path style="fill:#4EBF8C;" d="M384.767,384.359c74.74,11.949,85.315,78.789,86.381,107.277c0.263,7.033-5.382,12.864-12.42,12.864  h-73.962V384.359H384.767z"/>
<path style="opacity:0.08;enable-background:new    ;" d="M395.998,386.695c30.874,30.22,50.675,71.702,52.751,117.805h-63.983  V384.359C388.691,384.986,392.42,385.779,395.998,386.695z"/>
<path style="fill:#4EBF8C;" d="M432.122,504.5c0-97.269-78.852-176.122-176.122-176.122S79.878,407.231,79.878,504.5H432.122z"/>
<path style="fill:#FFFFFF;" d="M256,328.378c-35.105,0-67.809,10.274-95.275,27.975c24.153,23.755,64.766,67.599,87.091,109.99  c2.947,5.596,10.902,5.602,13.849,0.006c22.63-42.975,64.059-87.445,88.079-110.963C322.596,338.282,290.457,328.378,256,328.378z"/>
<path style="opacity:0.1;enable-background:new    ;" d="M256,328.378c-44.967,0-85.989,16.861-117.113,44.593  c29.458,30.921,71.035,50.191,117.113,50.191l0,0c46.078,0,87.656-19.27,117.113-50.191  C341.989,345.239,300.967,328.378,256,328.378z"/>
<path style="fill:#F2BE89;" d="M256,7.5L256,7.5c-93.636,0-169.542,75.906-169.542,169.541v52.453  c0,93.635,75.906,169.541,169.541,169.541l0,0c93.635,0,169.541-75.906,169.541-169.541v-52.453C425.542,83.406,349.636,7.5,256,7.5  z"/>
<g>
	<path style="fill:#EC8087;" d="M157.986,252.795h-34.094c-4.142,0-7.5-3.358-7.5-7.5s3.358-7.5,7.5-7.5h34.094   c4.142,0,7.5,3.358,7.5,7.5S162.128,252.795,157.986,252.795z"/>
	<path style="fill:#EC8087;" d="M388.109,252.795h-34.094c-4.142,0-7.5-3.358-7.5-7.5s3.358-7.5,7.5-7.5h34.094   c4.142,0,7.5,3.358,7.5,7.5S392.251,252.795,388.109,252.795z"/>
	<path style="fill:#EC8087;" d="M256,7.5L256,7.5c-88.147,0-160.572,67.271-168.761,153.272h88.816   c61.893,0,119.234-32.521,151-85.641l0,0l16.345,25.448c17.239,26.839,46.946,43.065,78.844,43.065l0,0   C406.734,66.005,338.203,7.5,256,7.5z"/>
	<path style="fill:#EC8087;" d="M109.167,140.971c-3.553,0-6.848-0.021-9.863-0.041c-2.593-0.017-4.988-0.033-7.163-0.033   c-4.142,0-7.5-3.358-7.5-7.5s3.358-7.5,7.5-7.5c2.204,0,4.632,0.016,7.261,0.033c26.742,0.179,71.506,0.469,113.886-13.487   c50.429-16.606,82.004-49.049,93.849-96.428c1.004-4.019,5.081-6.462,9.095-5.457c4.019,1.004,6.462,5.077,5.457,9.095   C292.817,135.142,167.4,140.971,109.167,140.971z"/>
	<path style="fill:#EC8087;" d="M106.476,104.572c-4.142,0-7.5-3.358-7.5-7.5s3.358-7.5,7.5-7.5c35.75,0,65.511-4.215,90.983-12.886   c39.126-13.319,65.475-36.803,78.316-69.799c1.502-3.86,5.849-5.771,9.71-4.269c3.86,1.502,5.772,5.849,4.269,9.709   c-14.522,37.315-43.948,63.745-87.461,78.558C175.239,100.095,143.897,104.572,106.476,104.572z"/>
	<path style="fill:#EC8087;" d="M130.812,70.216c-4.142,0-7.501-3.357-7.501-7.499s3.357-7.5,7.499-7.501   c11.716-0.001,32.618-2.835,52.969-10.818c16.294-6.391,37.963-18.425,48.668-39.467c1.878-3.692,6.395-5.163,10.085-3.284   c3.692,1.878,5.162,6.393,3.284,10.085c-10.164,19.979-29.722,36.104-56.56,46.63C166.981,67.099,144.46,70.214,130.812,70.216z"/>
	<path style="fill:#EC8087;" d="M412.772,119.875c-0.262,0-0.525-0.014-0.791-0.041c-27.201-2.851-62.053-19.97-73.612-85.336   c-0.722-4.079,2-7.97,6.079-8.691c4.081-0.723,7.97,2,8.691,6.079c7.975,45.094,28.298,69.665,60.405,73.03   c4.12,0.432,7.109,4.121,6.677,8.241C419.818,117.01,416.562,119.875,412.772,119.875z"/>
</g>
<g style="opacity:0.1;">
	<path d="M109.167,140.971c-3.553,0-6.848-0.021-9.863-0.041c-2.593-0.017-4.988-0.033-7.163-0.033c-4.142,0-7.5-3.358-7.5-7.5   s3.358-7.5,7.5-7.5c2.204,0,4.632,0.016,7.261,0.033c26.742,0.179,71.506,0.469,113.886-13.487   c50.429-16.606,82.004-49.049,93.849-96.428c1.004-4.019,5.081-6.462,9.095-5.457c4.019,1.004,6.462,5.077,5.457,9.095   C292.817,135.142,167.4,140.971,109.167,140.971z"/>
	<path d="M106.476,104.572c-4.142,0-7.5-3.358-7.5-7.5s3.358-7.5,7.5-7.5c35.75,0,65.511-4.215,90.983-12.886   c39.126-13.319,65.475-36.803,78.316-69.799c1.502-3.86,5.849-5.771,9.71-4.269c3.86,1.502,5.772,5.849,4.269,9.709   c-14.522,37.315-43.948,63.745-87.461,78.558C175.239,100.095,143.897,104.572,106.476,104.572z"/>
	<path d="M130.812,70.216c-4.142,0-7.501-3.357-7.501-7.499s3.357-7.5,7.499-7.501c11.716-0.001,32.618-2.835,52.969-10.818   c16.294-6.391,37.963-18.425,48.668-39.467c1.878-3.692,6.395-5.163,10.085-3.284c3.692,1.878,5.162,6.393,3.284,10.085   c-10.164,19.979-29.722,36.104-56.56,46.63C166.981,67.099,144.46,70.214,130.812,70.216z"/>
	<path d="M412.772,119.875c-0.262,0-0.525-0.014-0.791-0.041c-27.201-2.851-62.053-19.97-73.612-85.336   c-0.722-4.079,2-7.97,6.079-8.691c4.081-0.723,7.97,2,8.691,6.079c7.975,45.094,28.298,69.665,60.405,73.03   c4.12,0.432,7.109,4.121,6.677,8.241C419.818,117.01,416.562,119.875,412.772,119.875z"/>
</g>
<path d="M462.137,428.147c-15.439-27.726-40.22-44.791-73.674-50.762c-5.008-5.223-10.325-10.148-15.908-14.747  c32.351-28.355,54.31-68.28,59.362-113.25c23.614-3.131,41.899-23.384,41.899-47.84c0-24.602-18.504-44.951-42.322-47.895  C420.013,67.047,345.693,0,256,0S91.987,67.047,80.506,153.653c-23.818,2.944-42.322,23.293-42.322,47.895  c0,24.456,18.284,44.709,41.899,47.84c5.052,44.97,27.011,84.895,59.362,113.25c-5.583,4.599-10.9,9.524-15.908,14.747  c-33.453,5.971-58.235,23.036-73.674,50.762c-12.528,22.498-15.891,46.791-16.505,63.209c-0.204,5.447,1.768,10.611,5.552,14.539  c3.792,3.937,8.893,6.105,14.362,6.105h405.456c5.469,0,10.57-2.168,14.362-6.105c3.784-3.928,5.756-9.092,5.552-14.539  C478.028,474.938,474.666,450.645,462.137,428.147z M458.817,201.547c0,15.789-11.057,29.035-25.832,32.424  c0.037-1.488,0.057-2.98,0.057-4.477v-52.453c0-2.665-0.07-5.313-0.187-7.95C447.695,172.434,458.817,185.712,458.817,201.547z   M79.016,233.972c-14.775-3.391-25.831-16.636-25.831-32.425c0-15.835,11.122-29.113,25.961-32.456  c-0.117,2.636-0.187,5.285-0.187,7.95v52.453C78.959,230.992,78.978,232.484,79.016,233.972z M256,15  c75.034,0,138.31,51.266,156.664,120.609c-25.702-2.835-48.763-16.989-62.953-39.082l-16.346-25.448  c-1.403-2.184-3.843-3.478-6.431-3.446c-2.595,0.042-4.984,1.422-6.317,3.65c-14.921,24.952-36.176,45.723-61.465,60.066  s-54.024,21.924-83.098,21.924H95.706C107.24,75.151,174.724,15,256,15z M93.959,229.495v-52.453c0-2.942,0.084-5.865,0.239-8.769  h81.857c31.663,0,62.956-8.256,90.497-23.877c24.082-13.658,44.806-32.67,60.496-55.397l10.042,15.634  c17.563,27.344,46.697,44.34,78.84,46.317c1.382,8.497,2.111,17.211,2.111,26.092v52.453c0,89.35-72.691,162.041-162.042,162.041  S93.959,318.844,93.959,229.495z M296.959,401.744c-17.97,21.843-32.04,42.332-41.929,61.11c-0.06,0.114-0.1,0.189-0.284,0.189  c-0.191,0-0.234-0.082-0.293-0.194c-11.474-21.788-27.552-43.63-42.591-61.883c14.115,3.635,28.905,5.57,44.139,5.57  C270.095,406.536,283.807,404.871,296.959,401.744z M53.272,497c-1.356,0-2.62-0.537-3.559-1.512  c-0.931-0.966-1.416-2.235-1.366-3.572c0.453-12.098,2.955-35.522,14.621-56.473c9.998-17.954,24.707-30.672,43.87-37.998  c-5.281,7.335-10.028,15.044-14.159,23.059C80.536,444.064,73.647,470.363,72.552,497H53.272z M87.538,497  c1.05-24.461,7.251-47.848,18.473-69.623c10.961-21.267,26.595-40.224,45.401-55.131c9.947,7.308,20.677,13.609,32.048,18.737  c18.055,20.068,42.352,49.676,57.72,78.856c2.665,5.061,7.863,8.205,13.565,8.205c5.698,0,10.893-3.142,13.556-8.199  c11.96-22.712,31.358-49.338,56.122-77.069c12.902-5.427,25.025-12.345,36.165-20.528c18.806,14.907,34.44,33.864,45.401,55.131  c11.222,21.775,17.423,45.162,18.473,69.623H87.538V497z M462.287,495.488c-0.939,0.975-2.203,1.512-3.559,1.512h-19.279  c-1.095-26.637-7.985-52.936-20.127-76.495c-4.131-8.015-8.878-15.724-14.159-23.059c19.162,7.326,33.872,20.044,43.869,37.998  c11.667,20.951,14.168,44.375,14.621,56.472C463.703,493.253,463.218,494.522,462.287,495.488z M371.066,217.733  c4.142,0,7.5-3.358,7.5-7.5V184.87c0-4.142-3.358-7.5-7.5-7.5s-7.5,3.358-7.5,7.5v25.364  C363.566,214.376,366.924,217.733,371.066,217.733z M148.434,210.233V184.87c0-4.142-3.358-7.5-7.5-7.5s-7.5,3.358-7.5,7.5v25.364  c0,4.142,3.358,7.5,7.5,7.5C145.076,217.733,148.434,214.376,148.434,210.233z M256,253.13c10.132,0,19.801-4.88,25.865-13.055  c2.468-3.327,1.771-8.024-1.555-10.492s-8.024-1.772-10.492,1.555c-3.296,4.443-8.332,6.991-13.818,6.991  c-5.485,0-10.522-2.548-13.818-6.992c-2.469-3.327-7.166-4.023-10.492-1.555c-3.327,2.468-4.023,7.165-1.555,10.492  C236.199,248.25,245.869,253.13,256,253.13z"/>
<g>
</g>
<g>
</g>
<g>
</g>
<g>
</g>
<g>
</g>
<g>
</g>
<g>
</g>
<g>
</g>
<g>
</g>
<g>
</g>
<g>
</g>
<g>
</g>
<g>
</g>
<g>
</g>
<g>
</g>
</svg>
