<?xml version="1.0" encoding="iso-8859-1"?>
<!-- Generator: Adobe Illustrator 19.0.0, SVG Export Plug-In . SVG Version: 6.00 Build 0)  -->
<svg xmlns="http://www.w3.org/2000/svg" xmlns:xlink="http://www.w3.org/1999/xlink" version="1.1" id="Layer_1" x="0px" y="0px" viewBox="0 0 512 512" style="enable-background:new 0 0 512 512;" xml:space="preserve">
<path style="fill:#F6CDB5;" d="M132.612,389.378c-71.617,11.45-81.75,75.497-82.772,102.795  c-0.252,6.739,5.157,12.327,11.901,12.327h70.871V389.378z"/>
<path style="opacity:0.1;enable-background:new    ;" d="M121.85,391.617C92.266,420.575,73.293,460.323,71.303,504.5h61.31V389.378  C128.853,389.979,125.279,390.739,121.85,391.617z"/>
<path style="fill:#F6CDB5;" d="M379.386,389.378c71.617,11.45,81.75,75.497,82.772,102.795c0.252,6.739-5.157,12.327-11.901,12.327  h-70.871V389.378z"/>
<path style="opacity:0.1;enable-background:new    ;" d="M390.148,391.617c29.584,28.958,48.557,68.706,50.547,112.883h-61.309  V389.378C383.145,389.979,386.719,390.739,390.148,391.617z"/>
<path style="fill:#F6CDB5;" d="M424.762,504.5c0-93.205-75.558-168.763-168.763-168.763S87.236,411.295,87.236,504.5H424.762z"/>
<path style="opacity:0.1;enable-background:new    ;" d="M255.999,335.737c-48.901,0-92.935,20.806-123.757,54.04  c33.858,27.272,76.897,43.607,123.757,43.607c46.861,0,89.899-16.335,123.758-43.607C348.934,356.543,304.9,335.737,255.999,335.737  z"/>
<circle style="fill:#4EBF8C;" cx="255.999" cy="204.95" r="197.45"/>
<g>
	<circle style="fill:#F6CDB5;" cx="136.279" cy="174.67" r="32.974"/>
	<circle style="fill:#F6CDB5;" cx="375.719" cy="174.67" r="32.974"/>
	<path style="fill:#F6CDB5;" d="M277.666,188.221h-43.333c-14.89,0-26.961,12.071-26.961,26.961l0,0   c0,14.89,12.071,26.961,26.961,26.961h43.333c14.89,0,26.961-12.071,26.961-26.961l0,0   C304.627,200.292,292.556,188.221,277.666,188.221z"/>
</g>
<g>
	<path style="fill:#F6D83E;" d="M152.397,237.717h-32.232c-4.143,0-7.5-3.358-7.5-7.5s3.357-7.5,7.5-7.5h32.232   c4.143,0,7.5,3.358,7.5,7.5S156.54,237.717,152.397,237.717z"/>
	<path style="fill:#F6D83E;" d="M391.825,237.717h-32.232c-4.143,0-7.5-3.358-7.5-7.5s3.357-7.5,7.5-7.5h32.232   c4.143,0,7.5,3.358,7.5,7.5S395.968,237.717,391.825,237.717z"/>
</g>
<g>
	<path style="fill:#FFFFFF;" d="M136.281,215.146c-22.317,0-40.475-18.157-40.475-40.475s18.157-40.475,40.475-40.475   s40.474,18.157,40.474,40.475S158.599,215.146,136.281,215.146z M136.281,149.197c-14.047,0-25.475,11.428-25.475,25.475   s11.428,25.475,25.475,25.475c14.046,0,25.474-11.428,25.474-25.475S150.327,149.197,136.281,149.197z"/>
	<path style="fill:#FFFFFF;" d="M375.717,215.146c-22.317,0-40.474-18.157-40.474-40.475s18.156-40.475,40.474-40.475   c22.317,0,40.475,18.157,40.475,40.475S398.034,215.146,375.717,215.146z M375.717,149.197c-14.046,0-25.474,11.428-25.474,25.475   s11.428,25.475,25.474,25.475c14.047,0,25.475-11.428,25.475-25.475S389.764,149.197,375.717,149.197z"/>
	<path style="fill:#FFFFFF;" d="M277.666,249.643h-43.334c-19.001,0-34.46-15.459-34.46-34.461s15.459-34.461,34.46-34.461h43.334   c19.002,0,34.461,15.459,34.461,34.461S296.668,249.643,277.666,249.643z M234.332,195.721c-10.73,0-19.46,8.73-19.46,19.461   s8.729,19.461,19.46,19.461h43.334c10.73,0,19.461-8.73,19.461-19.461s-8.73-19.461-19.461-19.461H234.332z"/>
</g>
<g>
	<path style="fill:#F6D83E;" d="M341.629,26.984c-23.522,25.015-37.002,58.312-37.002,93.366c0,7.549,8.256,12.194,14.708,8.275l0,0   c30.75-18.677,65.284-30.009,100.926-33.262C400.709,66.116,373.561,42.377,341.629,26.984z"/>
	<path style="fill:#F6D83E;" d="M170.369,26.984c23.522,25.015,37.002,58.312,37.002,93.366c0,7.549-8.256,12.194-14.708,8.275l0,0   c-30.75-18.677-65.284-30.009-100.926-33.262C111.289,66.116,138.437,42.377,170.369,26.984z"/>
	<path style="fill:#F6D83E;" d="M240.698,309.691c-49.65,33.301-117.953,16.815-169.117-34.086   C100.008,349.754,171.85,402.4,255.999,402.4c84.093,0,155.896-52.576,184.361-126.646   c-51.145,50.783-119.362,67.205-168.964,33.94C262.148,303.492,249.946,303.488,240.698,309.691z"/>
</g>
<path d="M136.281,155.182c-4.143,0-7.5,3.358-7.5,7.5v23.979c0,4.142,3.357,7.5,7.5,7.5s7.5-3.358,7.5-7.5v-23.979  C143.781,158.54,140.424,155.182,136.281,155.182z M255.999,359.252c4.143,0,7.5-3.358,7.5-7.5v-12.749c0-4.142-3.357-7.5-7.5-7.5  c-4.143,0-7.5,3.358-7.5,7.5v12.749C248.499,355.894,251.856,359.252,255.999,359.252z M375.717,194.161c4.143,0,7.5-3.358,7.5-7.5  v-23.979c0-4.142-3.357-7.5-7.5-7.5s-7.5,3.358-7.5,7.5v23.979C368.217,190.803,371.574,194.161,375.717,194.161z M453.798,431.184  c-14.818-26.611-38.585-43.006-70.659-48.77c-3.151-3.271-6.429-6.442-9.853-9.49c52.961-37.091,87.664-98.552,87.664-167.974  C460.949,91.94,369.009,0,255.999,0S51.049,91.94,51.049,204.95c0,69.422,34.703,130.883,87.664,167.974  c-3.424,3.048-6.702,6.219-9.853,9.49c-32.074,5.764-55.841,22.159-70.659,48.77c-12.035,21.613-15.265,44.943-15.854,60.708  c-0.199,5.306,1.721,10.335,5.406,14.161c3.694,3.836,8.662,5.947,13.989,5.947h388.516c5.327,0,10.295-2.112,13.989-5.947  c3.685-3.826,5.605-8.855,5.406-14.16C469.063,476.127,465.833,452.797,453.798,431.184z M406.679,89.437  c-32.175,4.706-63.48,15.919-91.237,32.779c-0.898,0.546-1.694,0.323-2.202,0.037c-0.508-0.286-1.112-0.847-1.112-1.902  c0-31.035,11.044-60.662,31.206-84.046C368.145,49.205,389.763,67.423,406.679,89.437z M168.665,36.304  c20.162,23.385,31.206,53.011,31.206,84.046c0,1.055-0.605,1.616-1.112,1.902c-0.509,0.286-1.304,0.51-2.202-0.037  c-27.758-16.86-59.062-28.073-91.238-32.779C122.235,67.423,143.853,49.205,168.665,36.304z M66.049,204.95  c0-37.358,10.847-72.228,29.548-101.637c32.835,3.674,64.958,14.586,93.173,31.723c2.773,1.685,5.84,2.529,8.912,2.529  c2.886,0,5.776-0.746,8.433-2.24c5.483-3.085,8.757-8.683,8.757-14.975c0-33.25-11.351-65.053-32.158-90.637  c20.379-8.555,42.554-13.645,65.786-14.552v4.025c0,4.142,3.357,7.5,7.5,7.5c4.143,0,7.5-3.358,7.5-7.5v-4.025  c23.232,0.907,45.407,5.997,65.786,14.552c-20.807,25.585-32.158,57.388-32.158,90.637c0,6.291,3.273,11.89,8.757,14.975  c2.656,1.495,5.547,2.24,8.433,2.24c3.072,0,6.14-0.845,8.912-2.529c28.215-17.137,60.337-28.049,93.173-31.723  c18.701,29.409,29.548,64.279,29.548,101.637c0,23.45-4.283,45.914-12.088,66.669c-50.152,48.997-113.583,61.825-158.287,31.846  c-11.865-7.956-27.194-7.957-39.054-0.002c-44.764,30.024-108.259,17.137-158.439-31.989  C70.311,250.76,66.049,228.345,66.049,204.95z M94.209,304.367c28.395,19.86,59.101,30.178,88.205,30.176  c22.36-0.002,43.78-6.093,62.462-18.623c6.679-4.48,15.658-4.479,22.343,0.003c42.938,28.794,100.328,23.561,150.505-11.453  c-32.254,52.223-89.078,87.725-154.225,90.269v-5.088c0-4.142-3.357-7.5-7.5-7.5c-4.143,0-7.5,3.358-7.5,7.5v5.088  C183.308,392.194,126.452,356.647,94.209,304.367z M61.741,497c-1.214,0-2.345-0.48-3.186-1.353c-0.481-0.5-1.28-1.58-1.22-3.193  c0.433-11.564,2.822-33.954,13.97-53.972c9.341-16.774,23.009-28.74,40.74-35.799C92.59,430.094,81.344,462.659,79.909,497H61.741z   M94.906,497c2.052-44.919,22.492-86.465,56.941-115.604c30.541,18.096,66.151,28.504,104.152,28.504s73.61-10.408,104.152-28.505  c34.448,29.14,54.888,70.685,56.941,115.605H94.906z M453.442,495.647c-0.841,0.872-1.972,1.353-3.186,1.353h-18.167  c-1.435-34.341-12.68-66.906-32.136-94.318c17.73,7.06,31.399,19.026,40.74,35.799c11.147,20.019,13.537,42.408,13.97,53.973  C454.723,494.067,453.924,495.147,453.442,495.647z M255.999,77.288c4.143,0,7.5-3.358,7.5-7.5V44.499c0-4.142-3.357-7.5-7.5-7.5  c-4.143,0-7.5,3.358-7.5,7.5v25.289C248.499,73.93,251.856,77.288,255.999,77.288z M255.999,227.308  c10.231,0,19.996-4.928,26.12-13.184c2.468-3.327,1.772-8.024-1.555-10.492c-3.328-2.468-8.024-1.771-10.492,1.555  c-3.357,4.525-8.486,7.12-14.073,7.12c-5.587,0-10.716-2.595-14.073-7.12c-2.468-3.327-7.166-4.023-10.492-1.555  s-4.023,7.165-1.555,10.492C236.003,222.38,245.768,227.308,255.999,227.308z M255.999,129.181c4.143,0,7.5-3.358,7.5-7.5v-25.29  c0-4.142-3.357-7.5-7.5-7.5c-4.143,0-7.5,3.358-7.5,7.5v25.29C248.499,125.823,251.856,129.181,255.999,129.181z M255.999,166.491  c4.143,0,7.5-3.358,7.5-7.5v-11.686c0-4.142-3.357-7.5-7.5-7.5c-4.143,0-7.5,3.358-7.5,7.5v11.686  C248.499,163.133,251.856,166.491,255.999,166.491z"/>
<g>
</g>
<g>
</g>
<g>
</g>
<g>
</g>
<g>
</g>
<g>
</g>
<g>
</g>
<g>
</g>
<g>
</g>
<g>
</g>
<g>
</g>
<g>
</g>
<g>
</g>
<g>
</g>
<g>
</g>
</svg>
