<?xml version="1.0" encoding="iso-8859-1"?>
<!-- Generator: Adobe Illustrator 19.0.0, SVG Export Plug-In . SVG Version: 6.00 Build 0)  -->
<svg xmlns="http://www.w3.org/2000/svg" xmlns:xlink="http://www.w3.org/1999/xlink" version="1.1" id="Layer_1" x="0px" y="0px" viewBox="0 0 512 512" style="enable-background:new 0 0 512 512;" xml:space="preserve">
<path style="fill:#394049;" d="M142.661,398.753c-65.785,10.518-75.093,69.349-76.032,94.424  c-0.232,6.19,4.737,11.323,10.932,11.323h65.1V398.753z"/>
<path style="opacity:0.2;enable-background:new    ;" d="M132.776,400.81c-27.175,26.599-44.603,63.111-46.431,103.69h56.317  V398.753C139.208,399.305,135.925,400.003,132.776,400.81z"/>
<path style="fill:#394049;" d="M369.339,398.753c65.785,10.518,75.093,69.349,76.031,94.424c0.232,6.19-4.737,11.323-10.931,11.323  h-65.1V398.753z"/>
<path style="opacity:0.2;enable-background:new    ;" d="M379.224,400.81c27.175,26.599,44.603,63.111,46.431,103.69h-56.317  V398.753C372.792,399.305,376.076,400.003,379.224,400.81z"/>
<path style="fill:#394049;" d="M411.02,504.5c0-85.615-69.405-155.02-155.02-155.02S100.98,418.885,100.98,504.5H411.02z"/>
<path style="fill:#FFFFFF;" d="M256,349.48c-34.807,0-66.934,11.472-92.808,30.841l42.399,51.384  c7.002,8.485,10.831,19.143,10.831,30.144V504.5h79.155v-42.651c0-11.001,3.829-21.659,10.831-30.144l42.399-51.384  C322.934,360.952,290.807,349.48,256,349.48z"/>
<g>
	<path style="fill:#EC8087;" d="M245.612,489.589c-4.143,0-7.5-3.358-7.5-7.5v-45.675c0-4.142,3.357-7.5,7.5-7.5s7.5,3.358,7.5,7.5   v45.675C253.112,486.231,249.755,489.589,245.612,489.589z"/>
	<path style="fill:#EC8087;" d="M266.388,489.589c-4.143,0-7.5-3.358-7.5-7.5v-45.675c0-4.142,3.357-7.5,7.5-7.5s7.5,3.358,7.5,7.5   v45.675C273.888,486.231,270.53,489.589,266.388,489.589z"/>
</g>
<circle style="fill:#F6D83E;" cx="256" cy="414.96" r="30.75"/>
<path style="opacity:0.1;enable-background:new    ;" d="M256,349.48c-44.919,0-85.367,19.112-113.679,49.639  c31.101,25.051,70.635,40.056,113.679,40.056s82.578-15.005,113.679-40.056C341.367,368.592,300.919,349.48,256,349.48z"/>
<circle style="fill:#F6CDB5;" cx="80.5" cy="238.72" r="42.22"/>
<circle style="opacity:0.15;fill:#EC8087;enable-background:new    ;" cx="80.5" cy="238.72" r="42.22"/>
<path style="opacity:0.07;enable-background:new    ;" d="M80.495,196.503c-5.084,0-9.957,0.9-14.47,2.546  c-1.657,9.853-2.533,19.971-2.533,30.295c0,17.495,2.484,34.408,7.107,50.414c3.175,0.763,6.486,1.178,9.896,1.178  c23.315,0,42.216-18.901,42.216-42.216C122.711,215.404,103.81,196.503,80.495,196.503z"/>
<circle style="fill:#F6CDB5;" cx="431.5" cy="238.72" r="42.22"/>
<circle style="opacity:0.15;fill:#EC8087;enable-background:new    ;" cx="431.5" cy="238.72" r="42.22"/>
<path style="opacity:0.07;enable-background:new    ;" d="M431.505,196.503c5.083,0,9.957,0.9,14.47,2.546  c1.657,9.853,2.533,19.971,2.533,30.295c0,17.495-2.484,34.408-7.107,50.414c-3.175,0.763-6.486,1.178-9.896,1.178  c-23.315,0-42.216-18.901-42.216-42.216C389.289,215.404,408.19,196.503,431.505,196.503z"/>
<circle style="fill:#F6CDB5;" cx="256" cy="229.34" r="181.37"/>
<path style="fill:#394049;" d="M256,47.973c-82.5,0-152.124,55.087-174.122,130.482C173.844,177.51,256,162.047,256,86.08  c0,75.967,82.156,91.431,174.122,92.375C408.124,103.06,338.5,47.973,256,47.973z"/>
<g>
	<path style="fill:#EC8087;" d="M160.835,263.248h-29.608c-4.142,0-7.5-3.358-7.5-7.5s3.357-7.5,7.5-7.5h29.608   c4.142,0,7.5,3.358,7.5,7.5C168.335,259.89,164.977,263.248,160.835,263.248z"/>
	<path style="fill:#EC8087;" d="M380.766,263.248h-29.607c-4.143,0-7.5-3.358-7.5-7.5s3.357-7.5,7.5-7.5h29.607   c4.143,0,7.5,3.358,7.5,7.5C388.266,259.89,384.908,263.248,380.766,263.248z"/>
</g>
<path style="opacity:0.15;enable-background:new    ;" d="M256,47.973c-74.293,0-138.142,44.676-166.177,108.622h332.353  C394.142,92.649,330.293,47.973,256,47.973z"/>
<path style="fill:#8D6A59;" d="M373.848,7.5H138.152c-13.815,0-25.015,11.2-25.015,25.015v72.777h285.726V32.515  C398.863,18.7,387.664,7.5,373.848,7.5z"/>
<rect x="113.14" y="66.868" style="opacity:0.3;fill:#FFFFFF;enable-background:new    ;" width="285.73" height="38.424"/>
<path style="fill:#8D6A59;" d="M444.988,71.228L444.988,71.228c-22.218,21.831-52.12,34.064-83.269,34.064H150.281  c-31.149,0-61.051-12.233-83.269-34.064l0,0c-6.848-6.729-16.064-10.499-25.665-10.499l0,0c-12.795,0-23.168,10.373-23.168,23.168  l0,0c0,30.307,24.568,54.875,54.875,54.875h365.892c30.307,0,54.875-24.568,54.875-54.875l0,0c0-12.796-10.373-23.168-23.168-23.168  l0,0C461.052,60.729,451.836,64.499,444.988,71.228z"/>
<path style="fill:#F6D83E;" d="M254.379,81.051l-12.771,4.542c-3.202,1.139-6.549-1.293-6.456-4.691l0.373-13.55  c0.031-1.112-0.323-2.201-1.002-3.083l-8.266-10.743c-2.073-2.694-0.794-6.629,2.466-7.59l13.002-3.833  c1.067-0.315,1.993-0.987,2.622-1.905l7.663-11.181c1.921-2.804,6.059-2.804,7.98,0l7.663,11.181  c0.629,0.918,1.555,1.591,2.622,1.905l13.002,3.833c3.26,0.961,4.539,4.896,2.466,7.59l-8.266,10.743  c-0.679,0.882-1.032,1.971-1.002,3.083l0.373,13.55c0.094,3.397-3.254,5.829-6.456,4.691l-12.772-4.542  C256.572,80.679,255.428,80.679,254.379,81.051z"/>
<path d="M365.969,195.774c-4.143,0-7.5,3.358-7.5,7.5V225.3c0,4.142,3.357,7.5,7.5,7.5c4.142,0,7.5-3.358,7.5-7.5v-22.026  C373.469,199.132,370.111,195.774,365.969,195.774z M501.32,83.897c0-16.911-13.758-30.668-30.668-30.668  c-11.638,0-22.619,4.492-30.921,12.649l-0.001,0.001c-9.813,9.642-21.111,17.255-33.367,22.623V32.515  C406.363,14.586,391.776,0,373.848,0H138.151c-17.929,0-32.515,14.586-32.515,32.515v55.986  c-12.257-5.368-23.554-12.98-33.368-22.623c-8.302-8.157-19.283-12.649-30.921-12.649c-16.91,0-30.668,13.758-30.668,30.668  c0,34.394,27.981,62.375,62.375,62.375h13.294c-6.789,13.862-11.821,28.521-15.036,43.606c-23.143,4.342-40.535,24.766-40.535,48.84  c0,26.085,20.198,47.527,45.773,49.546c12.806,38.904,37.926,72.264,70.737,95.44c-2.899,2.605-5.688,5.303-8.373,8.083  c-29.555,5.358-51.463,20.51-65.14,45.069c-11.113,19.959-14.096,41.491-14.641,56.04c-0.188,5.041,1.637,9.819,5.139,13.455  C67.781,509.994,72.5,512,77.561,512h356.877c5.06,0,9.779-2.006,13.288-5.649c3.502-3.635,5.327-8.413,5.139-13.455  c-0.545-14.549-3.527-36.081-14.641-56.04c-13.677-24.56-35.585-39.711-65.14-45.069c-2.685-2.78-5.474-5.478-8.373-8.083  c32.81-23.176,57.931-56.536,70.737-95.44c25.576-2.019,45.773-23.461,45.773-49.546c0-24.074-17.392-44.499-40.535-48.841  c-3.215-15.085-8.247-29.744-15.036-43.606h13.295C473.339,146.273,501.32,118.291,501.32,83.897z M45.778,238.719  c0-14.842,9.464-27.7,22.799-32.594c-0.949,7.681-1.448,15.434-1.448,23.219c0,14.808,1.718,29.221,4.956,43.056  C56.993,268.63,45.778,254.962,45.778,238.719z M444.871,229.344c0-7.785-0.499-15.538-1.448-23.219  c13.335,4.894,22.799,17.752,22.799,32.594c0,16.243-11.215,29.911-26.306,33.681C443.154,258.565,444.871,244.152,444.871,229.344z   M120.637,32.515c0-9.658,7.857-17.515,17.515-17.515h235.696c9.658,0,17.516,7.857,17.516,17.515v26.853H290.712l0.976-1.268  c2.482-3.226,3.213-7.464,1.955-11.335c-1.258-3.872-4.34-6.87-8.244-8.021l-12.094-3.565l-7.128-10.4  c-2.302-3.358-6.106-5.363-10.177-5.363c-4.07,0-7.875,2.005-10.177,5.363l-7.128,10.4l-12.094,3.565  c-3.904,1.151-6.986,4.149-8.244,8.021s-0.527,8.109,1.955,11.335l0.976,1.268H120.637V32.515z M269.244,77.225l-9.112-3.241  c-2.664-0.946-5.6-0.946-8.264,0c0,0-0.001,0-0.002,0.001l-9.11,3.24l0.266-9.668c0.077-2.828-0.83-5.62-2.555-7.86l-5.896-7.664  l9.273-2.734c2.715-0.8,5.091-2.526,6.689-4.859L256,36.462l5.466,7.975c1.6,2.335,3.976,4.061,6.689,4.86l9.275,2.734l-5.895,7.663  c-1.726,2.241-2.633,5.033-2.556,7.864L269.244,77.225z M120.637,74.368h107.192l-0.174,6.33c-0.111,4.07,1.789,7.928,5.083,10.32  c2.138,1.552,4.68,2.355,7.249,2.355c1.39,0,2.788-0.235,4.134-0.714L256,88.435l11.879,4.224c3.836,1.365,8.091,0.751,11.384-1.642  c3.294-2.392,5.194-6.25,5.083-10.322l-0.174-6.328h107.192v19.446c-9.543,2.622-19.495,3.979-29.645,3.979H150.281  c-10.15,0-20.101-1.356-29.645-3.979V74.368H120.637z M77.562,497c-1.278,0-2.105-0.661-2.485-1.056  c-0.376-0.39-0.998-1.231-0.951-2.487c0.396-10.567,2.578-31.025,12.756-49.302c8.174-14.677,19.982-25.323,35.222-31.844  C104.998,437.074,95.06,466.251,93.666,497H77.562z M208.923,497H108.666c2.034-40.701,20.581-78.327,51.73-104.831  c1.775,1.046,3.563,2.073,5.375,3.062l34.035,41.247c5.88,7.125,9.117,16.135,9.117,25.371V497z M288.077,461.848V497h-64.154  v-35.152c0-12.711-4.456-25.112-12.547-34.917l-15.213-18.436c7.029,2.354,14.238,4.309,21.605,5.829  c-0.004,0.213-0.018,0.427-0.018,0.641c0,21.091,17.159,38.25,38.25,38.25s38.25-17.159,38.25-38.25  c0-0.213-0.014-0.427-0.018-0.641c7.367-1.521,14.576-3.476,21.605-5.829l-15.213,18.436  C292.533,436.736,288.077,449.137,288.077,461.848z M232.829,416.792c7.596,0.933,15.327,1.423,23.171,1.423  c7.844,0,15.575-0.489,23.171-1.423c-0.936,11.968-10.967,21.422-23.171,21.422C243.795,438.214,233.765,428.76,232.829,416.792z   M425.119,444.155c10.178,18.277,12.36,38.735,12.756,49.302c0.047,1.256-0.575,2.098-0.951,2.487  c-0.38,0.395-1.207,1.056-2.485,1.056h-16.104c-1.394-30.749-11.332-59.927-28.438-84.69  C405.137,418.831,416.947,429.477,425.119,444.155z M403.333,497H303.077v-35.152c0-9.236,3.237-18.246,9.117-25.371l34.035-41.247  c1.812-0.989,3.6-2.015,5.375-3.062C382.753,418.673,401.299,456.299,403.333,497z M429.871,229.344  c0,95.873-77.998,173.871-173.871,173.871S82.129,325.217,82.129,229.344c0-14.73,1.886-29.339,5.526-43.472  c34.883-0.602,63.138-3.389,86.206-8.506c29.167-6.47,50.65-16.663,65.565-31.093h33.149c14.915,14.431,36.398,24.623,65.565,31.093  c23.068,5.118,51.323,7.905,86.206,8.506C427.985,200.005,429.871,214.614,429.871,229.344z M92.289,170.771  c3.008-8.425,6.663-16.619,10.955-24.499h111.822C195.887,157.979,161.333,169.075,92.289,170.771z M297.27,146.273h111.486  c4.294,7.884,7.95,16.082,10.959,24.511C379.342,169.874,329.339,165.538,297.27,146.273z M73.055,131.273  c-26.123,0-47.375-21.253-47.375-47.375c0-8.64,7.028-15.669,15.668-15.669c7.681,0,14.929,2.965,20.407,8.349  c23.768,23.353,55.207,36.214,88.526,36.214h211.438c33.319,0,64.758-12.861,88.524-36.214c5.48-5.384,12.729-8.349,20.409-8.349  c8.64,0,15.668,7.029,15.668,15.669c0,26.122-21.252,47.375-47.375,47.375L73.055,131.273L73.055,131.273z M146.031,195.774  c-4.143,0-7.5,3.358-7.5,7.5V225.3c0,4.142,3.357,7.5,7.5,7.5s7.5-3.358,7.5-7.5v-22.026  C153.531,199.132,150.174,195.774,146.031,195.774z M278.928,240.398c-3.326-2.467-8.025-1.77-10.491,1.556  c-2.967,3.999-7.5,6.293-12.436,6.293s-9.47-2.294-12.436-6.293c-2.467-3.328-7.164-4.024-10.491-1.556s-4.023,7.165-1.556,10.492  c5.738,7.738,14.892,12.357,24.483,12.357s18.745-4.62,24.483-12.357C282.951,247.564,282.255,242.866,278.928,240.398z"/>
<g>
</g>
<g>
</g>
<g>
</g>
<g>
</g>
<g>
</g>
<g>
</g>
<g>
</g>
<g>
</g>
<g>
</g>
<g>
</g>
<g>
</g>
<g>
</g>
<g>
</g>
<g>
</g>
<g>
</g>
</svg>
