<?xml version="1.0" encoding="iso-8859-1"?>
<!-- Generator: Adobe Illustrator 19.0.0, SVG Export Plug-In . SVG Version: 6.00 Build 0)  -->
<svg xmlns="http://www.w3.org/2000/svg" xmlns:xlink="http://www.w3.org/1999/xlink" version="1.1" id="Layer_1" x="0px" y="0px" viewBox="0 0 512.001 512.001" style="enable-background:new 0 0 512.001 512.001;" xml:space="preserve">
<circle style="fill:#8D6A59;" cx="98.33" cy="222.77" r="37.918"/>
<circle style="opacity:0.07;enable-background:new    ;" cx="98.33" cy="222.77" r="37.918"/>
<path style="opacity:0.1;enable-background:new    ;" d="M98.335,184.852c-4.33,0-8.486,0.736-12.362,2.072  c-0.353,4.307-0.542,8.66-0.542,13.057v48.779c0,3.285,0.113,6.543,0.311,9.778c3.941,1.388,8.177,2.151,12.594,2.151  c20.942,0,37.918-16.977,37.918-37.918C136.254,201.829,119.277,184.852,98.335,184.852z"/>
<circle style="fill:#8D6A59;" cx="413.66" cy="222.77" r="37.918"/>
<circle style="opacity:0.07;enable-background:new    ;" cx="413.66" cy="222.77" r="37.918"/>
<path style="opacity:0.1;enable-background:new    ;" d="M413.664,184.852c4.33,0,8.486,0.736,12.362,2.072  c0.353,4.307,0.542,8.66,0.542,13.057v48.779c0,3.285-0.112,6.543-0.31,9.778c-3.941,1.388-8.178,2.151-12.594,2.151  c-20.942,0-37.918-16.977-37.918-37.918C375.746,201.829,392.722,184.852,413.664,184.852z"/>
<path style="fill:#EC8087;" d="M136.254,392.775c-69.504,11.112-79.338,73.269-80.33,99.762c-0.245,6.54,5.005,11.963,11.55,11.963  h68.78V392.775z"/>
<path style="opacity:0.08;enable-background:new    ;" d="M125.809,394.948C97.097,423.051,78.684,461.627,76.753,504.5h59.5  V392.775C132.605,393.358,129.136,394.095,125.809,394.948z"/>
<path style="fill:#EC8087;" d="M375.745,392.775c69.504,11.112,79.338,73.269,80.33,99.762c0.245,6.54-5.005,11.963-11.549,11.963  h-68.78V392.775H375.745z"/>
<path style="opacity:0.08;enable-background:new    ;" d="M386.19,394.948c28.711,28.103,47.125,66.679,49.056,109.552h-59.5  V392.775C379.394,393.358,382.863,394.095,386.19,394.948z"/>
<path style="fill:#EC8087;" d="M419.783,504.5c0-90.455-73.328-163.784-163.784-163.784S92.216,414.045,92.216,504.5H419.783z"/>
<path style="fill:#FFFFFF;" d="M225.439,343.575L92.629,492.918c-0.267,3.827-0.413,7.688-0.413,11.582h11.429l145.516-163.631  C241.089,341.201,233.168,342.116,225.439,343.575z M331.342,359.046L201.99,504.5h21.316l122.066-137.261  C340.844,364.286,336.164,361.548,331.342,359.046z M396.513,420.319L321.652,504.5h21.316l61.519-69.177  C402.082,430.17,399.421,425.163,396.513,420.319z"/>
<path style="opacity:0.1;enable-background:new    ;" d="M255.999,340.716c-41.816,0-79.965,15.679-108.909,41.469  c27.394,28.755,66.058,46.675,108.909,46.675l0,0c42.85,0,81.515-17.92,108.909-46.675  C335.965,356.396,297.816,340.716,255.999,340.716z"/>
<path style="fill:#8D6A59;" d="M256,42.317L256,42.317c-87.076,0-157.664,70.589-157.664,157.664v48.779  c0,87.076,70.589,157.664,157.664,157.664l0,0c87.076,0,157.664-70.589,157.664-157.664v-48.779  C413.664,112.906,343.075,42.317,256,42.317z"/>
<g>
	<path style="fill:#EC8087;" d="M164.851,258.211h-31.705c-4.142,0-7.5-3.358-7.5-7.5s3.358-7.5,7.5-7.5h31.705   c4.142,0,7.5,3.358,7.5,7.5S168.993,258.211,164.851,258.211z"/>
	<path style="fill:#EC8087;" d="M378.853,258.211h-31.705c-4.142,0-7.5-3.358-7.5-7.5s3.358-7.5,7.5-7.5h31.705   c4.143,0,7.5,3.358,7.5,7.5S382.996,258.211,378.853,258.211z"/>
</g>
<g>
	<path style="fill:#4EBF8C;" d="M291.879,101.871c0,19.815-16.064,35.879-35.879,35.879c-19.816,0-35.879-16.064-35.879-35.879   V43.379C220.121,23.563,236.185,7.5,256,7.5s35.879,16.064,35.879,35.879V101.871z"/>
	<path style="fill:#4EBF8C;" d="M178.099,93.998c9.263,17.517,2.572,39.227-14.945,48.49s-39.227,2.572-48.49-14.945l-11.76-22.238   c-9.263-17.517-2.572-39.227,14.945-48.49s39.227-2.572,48.49,14.945L178.099,93.998z"/>
	<path style="fill:#4EBF8C;" d="M333.9,93.998c-9.263,17.517-2.572,39.227,14.945,48.49s39.227,2.572,48.49-14.945l11.76-22.238   c9.263-17.517,2.572-39.227-14.945-48.49s-39.227-2.572-48.49,14.945L333.9,93.998z"/>
</g>
<path d="M156.495,218.105v-23.587c0-4.142-3.358-7.5-7.5-7.5s-7.5,3.358-7.5,7.5v23.587c0,4.142,3.358,7.5,7.5,7.5  S156.495,222.248,156.495,218.105z M448.155,433.24c-14.413-25.884-37.525-41.832-68.716-47.439  c-4.494-4.677-9.248-9.103-14.238-13.243c29.826-26.341,50.091-63.26,54.867-104.829c22.021-3.123,39.014-22.089,39.014-44.958  c0-23.002-17.192-42.052-39.399-45.007c-2.262-16.949-7.133-33.308-14.576-48.871l10.619-20.081  c11.181-21.145,3.075-47.444-18.069-58.625c-10.244-5.417-21.984-6.521-33.056-3.108c-8.01,2.469-14.969,7.097-20.261,13.34  c-13.995-8.887-29.104-15.54-45.062-19.856C297.819,17.951,278.971,0,256,0c-22.972,0-41.82,17.952-43.278,40.562  c-15.958,4.316-31.067,10.969-45.062,19.856c-5.292-6.244-12.251-10.871-20.261-13.34c-11.072-3.412-22.812-2.309-33.055,3.108  C104.1,55.602,96.58,64.683,93.167,75.755c-3.413,11.073-2.31,22.813,3.107,33.055l10.619,20.082  c-7.444,15.563-12.314,31.921-14.577,48.871c-22.207,2.955-39.399,22.005-39.399,45.007c0,22.869,16.993,41.835,39.014,44.958  c4.775,41.569,25.041,78.489,54.867,104.83c-4.99,4.14-9.744,8.566-14.238,13.243c-31.19,5.607-54.303,21.555-68.716,47.439  c-11.701,21.014-14.841,43.692-15.414,59.017c-0.195,5.21,1.69,10.148,5.309,13.905c3.627,3.765,8.505,5.839,13.735,5.839h377.053  c5.23,0,10.107-2.073,13.734-5.838c3.619-3.757,5.505-8.695,5.311-13.906C462.997,476.932,459.856,454.253,448.155,433.24z   M444.082,222.77c0,14.204-9.787,26.161-22.962,29.492c0.024-1.165,0.044-2.332,0.044-3.502v-48.778c0-2.252-0.06-4.492-0.148-6.726  C434.247,196.553,444.082,208.532,444.082,222.77z M90.879,252.261c-13.18-3.334-22.962-15.29-22.962-29.491  c0-14.239,9.836-26.22,23.066-29.516c-0.088,2.235-0.148,4.475-0.148,6.727v48.778C90.835,249.93,90.855,251.096,90.879,252.261z   M340.53,97.504l11.759-22.236c0.121-0.229,0.25-0.45,0.378-0.672l0.093-0.162c0.014-0.025,0.025-0.052,0.04-0.077  c3.589-6.235,9.308-10.815,16.219-12.945c7.245-2.233,14.924-1.511,21.626,2.033c13.833,7.315,19.136,24.521,11.821,38.354  l-11.76,22.238c-7.316,13.834-24.521,19.136-38.355,11.822C338.518,128.544,333.215,111.338,340.53,97.504z M227.62,43.379  C227.62,27.731,240.351,15,256,15c15.648,0,28.379,12.731,28.379,28.379v58.492c0,15.648-12.73,28.379-28.379,28.379  c-15.648,0-28.379-12.731-28.379-28.379V43.379H227.62z M107.501,80.174c2.233-7.244,7.153-13.185,13.854-16.729  c4.147-2.193,8.669-3.305,13.231-3.305c2.809,0,5.633,0.422,8.394,1.273c6.912,2.131,12.633,6.712,16.222,12.949  c0.012,0.022,0.022,0.045,0.034,0.067l0.111,0.194c0.121,0.211,0.244,0.422,0.359,0.639l0,0c0.001,0.002,0.002,0.003,0.003,0.005  l11.76,22.238c7.315,13.833,2.012,31.039-11.821,38.354c-6.702,3.543-14.381,4.265-21.625,2.033  c-7.244-2.233-13.185-7.153-16.729-13.854l-11.76-22.238C105.99,95.098,105.269,87.418,107.501,80.174z M105.835,248.76v-48.778  c0-19.907,3.797-39.081,11.274-57.165c4.67,4.271,10.267,7.49,16.495,9.41c4.22,1.301,8.537,1.945,12.831,1.945  c6.973,0,13.885-1.7,20.225-5.053c10.243-5.416,17.764-14.498,21.177-25.57c3.413-11.073,2.31-22.813-3.107-33.055l-9.162-17.326  c11.574-7.366,23.986-13.05,37.053-16.981v45.685c0,23.919,19.46,43.379,43.379,43.379s43.379-19.46,43.379-43.379V56.186  c13.067,3.931,25.479,9.615,37.053,16.981l-9.162,17.326c-11.182,21.145-3.075,47.444,18.069,58.625  c6.447,3.41,13.374,5.026,20.205,5.026c10.767,0,21.292-4.019,29.335-11.354c7.484,18.092,11.285,37.276,11.285,57.192v48.778  c0,82.801-67.363,150.164-150.164,150.164S105.835,331.56,105.835,248.76z M67.473,497c-1.507,0-2.484-0.78-2.932-1.245  c-0.443-0.46-1.179-1.454-1.123-2.937c0.419-11.204,2.735-32.893,13.531-52.28c8.938-16.051,21.975-27.552,38.858-34.414  c-4.504,6.396-8.579,13.086-12.155,20.025C92.403,447.976,85.988,472.325,84.9,497H67.473z M99.889,497  c1.042-22.473,6.78-43.961,17.097-63.98c10.099-19.593,24.479-37.068,41.77-50.846c27.299,19.952,60.917,31.75,97.244,31.75  s69.945-11.798,97.244-31.75c17.291,13.778,31.672,31.253,41.77,50.847c10.317,20.018,16.055,41.507,17.097,63.979H99.889z   M447.458,495.755c-0.448,0.465-1.425,1.245-2.932,1.245h-17.427c-1.088-24.675-7.502-49.024-18.752-70.852  c-3.576-6.939-7.651-13.629-12.156-20.026c16.883,6.862,29.921,18.363,38.86,34.415c10.795,19.387,13.111,41.077,13.53,52.279  C448.636,494.301,447.901,495.295,447.458,495.755z M256,258.522c9.587,0,18.736-4.618,24.475-12.352  c2.468-3.327,1.772-8.024-1.555-10.492s-8.023-1.773-10.492,1.555c-2.966,3.997-7.495,6.29-12.428,6.29  c-4.933,0-9.463-2.293-12.428-6.289c-2.468-3.327-7.165-4.024-10.492-1.555c-3.327,2.468-4.023,7.165-1.555,10.492  C237.262,253.905,246.412,258.522,256,258.522z M363.004,225.605c4.143,0,7.5-3.358,7.5-7.5v-23.587c0-4.142-3.357-7.5-7.5-7.5  s-7.5,3.358-7.5,7.5v23.587C355.504,222.248,358.862,225.605,363.004,225.605z"/>
<g>
</g>
<g>
</g>
<g>
</g>
<g>
</g>
<g>
</g>
<g>
</g>
<g>
</g>
<g>
</g>
<g>
</g>
<g>
</g>
<g>
</g>
<g>
</g>
<g>
</g>
<g>
</g>
<g>
</g>
</svg>
