<?xml version="1.0" encoding="iso-8859-1"?>
<!-- Generator: Adobe Illustrator 19.0.0, SVG Export Plug-In . SVG Version: 6.00 Build 0)  -->
<svg xmlns="http://www.w3.org/2000/svg" xmlns:xlink="http://www.w3.org/1999/xlink" version="1.1" id="Layer_1" x="0px" y="0px" viewBox="0 0 511.998 511.998" style="enable-background:new 0 0 511.998 511.998;" xml:space="preserve">
<path style="fill:#4DB1E0;" d="M137.769,394.187c-68.625,10.972-78.334,72.342-79.314,98.5c-0.242,6.457,4.941,11.812,11.403,11.812  h67.91L137.769,394.187L137.769,394.187z"/>
<path style="opacity:0.1;enable-background:new    ;" d="M127.457,396.332c-28.349,27.747-46.529,65.835-48.436,108.166h58.748  V394.187C134.166,394.762,130.742,395.49,127.457,396.332z"/>
<path style="fill:#4DB1E0;" d="M374.23,394.187c68.625,10.972,78.334,72.342,79.314,98.5c0.242,6.457-4.941,11.812-11.403,11.812  h-67.91L374.23,394.187L374.23,394.187z"/>
<path style="opacity:0.1;enable-background:new    ;" d="M384.543,396.332c28.348,27.748,46.529,65.835,48.435,108.166h-58.748  V394.187C377.834,394.762,381.258,395.49,384.543,396.332z"/>
<path style="fill:#4DB1E0;" d="M417.712,504.498c0-89.311-72.401-161.712-161.712-161.712S94.288,415.187,94.288,504.498H417.712z"/>
<path style="opacity:0.2;fill:#FFFFFF;enable-background:new    ;" d="M256,342.786c-46.91,0-89.147,19.982-118.686,51.89  c27.702,35.019,70.568,57.491,118.686,57.491s90.984-22.473,118.686-57.491C345.148,362.768,302.91,342.786,256,342.786z"/>
<path style="opacity:0.2;enable-background:new    ;" d="M219.18,361.583c-3.764-2.286-8.67-1.085-10.955,2.68l-37.413,61.645  c4.382,2.993,8.935,5.753,13.631,8.28l37.416-61.651C224.145,368.773,222.945,363.868,219.18,361.583z M256,374.64  c-4.404,0-7.975,3.57-7.975,7.975v69.334c2.642,0.137,5.299,0.218,7.975,0.218c2.676,0,5.333-0.081,7.975-0.218v-69.334  C263.975,378.21,260.404,374.64,256,374.64z M303.775,364.263c-2.286-3.765-7.19-4.966-10.955-2.68  c-3.765,2.285-4.965,7.19-2.68,10.955l37.416,61.651c4.697-2.527,9.249-5.288,13.632-8.28L303.775,364.263z"/>
<path style="opacity:0.1;enable-background:new    ;" d="M256,342.786c-46.858,0-89.052,19.937-118.586,51.782  C169.858,420.7,211.098,436.353,256,436.353s86.143-15.652,118.586-41.785C345.052,362.723,302.858,342.786,256,342.786z"/>
<circle style="fill:#F6CDB5;" cx="66.8" cy="217.468" r="44.04"/>
<circle style="opacity:0.15;fill:#EC8087;enable-background:new    ;" cx="66.8" cy="217.468" r="44.04"/>
<path style="opacity:0.07;enable-background:new    ;" d="M66.8,173.426c-3.599,0-7.093,0.442-10.442,1.256  C53.18,188.43,51.5,202.751,51.5,217.465s1.68,29.035,4.858,42.783c3.349,0.814,6.843,1.256,10.442,1.256  c24.322,0,44.039-19.717,44.039-44.039C110.839,193.143,91.122,173.426,66.8,173.426z"/>
<circle style="fill:#F6CDB5;" cx="445.2" cy="217.468" r="44.04"/>
<circle style="opacity:0.15;fill:#EC8087;enable-background:new    ;" cx="445.2" cy="217.468" r="44.04"/>
<path style="opacity:0.07;enable-background:new    ;" d="M445.2,173.426c3.599,0,7.093,0.442,10.441,1.256  c3.178,13.748,4.858,28.069,4.858,42.783s-1.68,29.035-4.858,42.783c-3.348,0.814-6.842,1.256-10.441,1.256  c-24.322,0-44.039-19.717-44.039-44.039S420.878,173.426,445.2,173.426z"/>
<circle style="fill:#F6CDB5;" cx="256" cy="217.468" r="189.2"/>
<g>
	<path style="fill:#EC8087;" d="M156.727,248.929h-30.886c-4.142,0-7.5-3.358-7.5-7.5s3.358-7.5,7.5-7.5h30.886   c4.142,0,7.5,3.358,7.5,7.5S160.869,248.929,156.727,248.929z"/>
	<path style="fill:#EC8087;" d="M386.151,248.929h-30.886c-4.142,0-7.5-3.358-7.5-7.5s3.358-7.5,7.5-7.5h30.886   c4.142,0,7.5,3.358,7.5,7.5S390.293,248.929,386.151,248.929z"/>
</g>
<path style="fill:#8D6A59;" d="M311.857,16.642H200.143c-73.716,0-133.474,59.758-133.474,133.474l0,0c0,1.061,0.86,1.92,1.92,1.92  H443.41c1.061,0,1.92-0.86,1.92-1.92l0,0C445.331,76.4,385.572,16.642,311.857,16.642z"/>
<path style="opacity:0.1;enable-background:new    ;" d="M432.734,138.186H79.265c-16.718,0-30.271,13.553-30.271,30.271v27.96  c0,16.718,13.553,30.271,30.271,30.271h353.47c16.718,0,30.271-13.553,30.271-30.271v-27.96  C463.006,151.739,449.453,138.186,432.734,138.186z"/>
<path style="fill:#394049;" d="M432.734,124.33H79.265c-16.718,0-30.271,13.553-30.271,30.271v27.96  c0,16.718,13.553,30.271,30.271,30.271h353.47c16.718,0,30.271-13.553,30.271-30.271v-27.96  C463.006,137.883,449.453,124.33,432.734,124.33z"/>
<path style="fill:#4EBF8C;" d="M76.7,168.581L76.7,168.581c0-9.138,7.407-16.545,16.545-16.545h325.51  c9.137,0,16.545,7.407,16.545,16.545l0,0c0,9.137-7.408,16.545-16.545,16.545H93.245C84.108,185.126,76.7,177.719,76.7,168.581z"/>
<g>
	<polygon style="opacity:0.2;fill:#FFFFFF;enable-background:new    ;" points="197.957,152.036 164.868,185.126 260.341,185.126    293.431,152.036  "/>
	<path style="opacity:0.2;fill:#FFFFFF;enable-background:new    ;" d="M418.755,152.036h-34.517l-33.09,33.09h67.607   c9.137,0,16.545-7.407,16.545-16.545C435.299,159.444,427.892,152.036,418.755,152.036z"/>
	<path style="opacity:0.3;fill:#FFFFFF;enable-background:new    ;" d="M201.542,504.498c0-18.418-14.931-33.349-33.349-33.349   c-18.419,0-33.35,14.931-33.35,33.349H201.542z"/>
</g>
<g style="opacity:0.1;">
	<path d="M145.453,109.617c-4.142,0-7.5-3.358-7.5-7.5c0-9.819,5.318-41.291,22.44-55.831c3.158-2.681,7.891-2.294,10.571,0.862   c2.681,3.157,2.296,7.89-0.862,10.571c-12.048,10.231-17.149,35.906-17.149,44.397   C152.953,106.259,149.595,109.617,145.453,109.617z"/>
	<path d="M366.546,96.881c-4.142,0-7.5-3.358-7.5-7.5c0-6.079-4.014-28.625-13.341-36.545c-3.157-2.681-3.543-7.414-0.862-10.572   c2.681-3.157,7.414-3.542,10.572-0.862c15.392,13.071,18.631,42.689,18.631,47.979C374.046,93.523,370.689,96.881,366.546,96.881z"/>
	<path d="M270.121,109.617c-4.142,0-7.5-3.358-7.5-7.5v-40.51c0-4.142,3.358-7.5,7.5-7.5s7.5,3.358,7.5,7.5v40.51   C277.621,106.259,274.263,109.617,270.121,109.617z"/>
</g>
<path d="M445.839,268.987c28.124-0.345,50.899-23.318,50.899-51.522c0-18.7-10.151-35.814-26.233-44.886v-17.977  c0-14.691-8.437-27.441-20.715-33.684c-9.083-43.202-37.467-78.35-75.126-97.066c4.466-5.511,11.23-8.852,18.559-8.852  c4.142,0,7.5-3.358,7.5-7.5s-3.358-7.5-7.5-7.5c-13.357,0-25.564,6.816-32.649,17.782c-15.244-5.601-31.672-8.638-48.718-8.638  H200.144c-66.895,0-124.269,46.769-137.935,111.775c-12.278,6.243-20.715,18.993-20.715,33.684v17.977  c-16.081,9.073-26.233,26.187-26.233,44.886c0,28.204,22.775,51.177,50.899,51.522c12.188,44.859,39.881,83.394,76.953,109.466  c-3.154,2.821-6.182,5.749-9.093,8.768c-30.782,5.555-53.595,21.312-67.827,46.871c-11.563,20.765-14.666,43.172-15.232,58.313  c-0.194,5.17,1.678,10.07,5.269,13.798c3.599,3.736,8.439,5.794,13.629,5.794h372.282c5.19,0,10.03-2.058,13.629-5.794  c3.591-3.728,5.462-8.628,5.269-13.798c-0.566-15.142-3.669-37.549-15.232-58.314c-14.232-25.559-37.045-41.316-67.827-46.871  c-2.911-3.019-5.939-5.947-9.093-8.768C405.958,352.381,433.652,313.846,445.839,268.987z M469.687,190.384  c7.531,6.817,12.052,16.591,12.052,27.081c0,18.751-14.2,34.24-32.41,36.299c2.205-11.769,3.371-23.9,3.371-36.299  c0-0.92-0.01-1.868-0.027-2.844C461.247,209.269,467.53,200.581,469.687,190.384z M200.144,24.142h111.713  c57.292,0,106.77,38.382,121.536,92.704c-0.22-0.004-0.437-0.017-0.658-0.017H79.265c-0.221,0-0.438,0.013-0.658,0.017  C93.374,62.524,142.851,24.142,200.144,24.142z M30.261,217.465c0-10.49,4.521-20.264,12.052-27.081  c2.157,10.198,8.44,18.886,17.014,24.238c-0.017,0.981-0.027,1.933-0.027,2.844c0,12.399,1.166,24.53,3.371,36.299  C44.461,251.705,30.261,236.216,30.261,217.465z M56.494,182.561v-27.96c0-12.556,10.215-22.771,22.771-22.771h353.47  c12.556,0,22.771,10.215,22.771,22.771v27.96c0,12.556-10.215,22.771-22.771,22.771H79.265  C66.709,205.333,56.494,195.117,56.494,182.561z M69.859,496.998c-1.453,0-2.395-0.752-2.826-1.2  c-0.427-0.443-1.136-1.401-1.083-2.831c0.414-11.053,2.698-32.451,13.348-51.576c8.742-15.698,21.459-26.983,37.909-33.77  c-18.248,26.054-28.824,56.879-30.239,89.377H69.859z M432.702,441.391c10.65,19.125,12.934,40.523,13.348,51.577  c0.053,1.43-0.655,2.387-1.083,2.831c-0.432,0.448-1.373,1.2-2.826,1.2h-17.109c-1.415-32.498-11.991-63.322-30.238-89.377  C411.243,414.408,423.961,425.693,432.702,441.391z M374.834,406.179c21.182,25.507,33.591,57.164,35.199,90.819H101.967  c1.608-33.655,14.017-65.313,35.199-90.819c30.168,34.102,72.99,53.488,118.834,53.488S344.665,440.281,374.834,406.179z   M147.368,395.041c2.835-2.806,5.794-5.513,8.867-8.12c29.269,17.298,63.375,27.243,99.766,27.243s70.497-9.945,99.766-27.243  c3.073,2.607,6.031,5.313,8.866,8.12C337.26,426.656,298.036,444.667,256,444.667S174.74,426.655,147.368,395.041z M256,399.165  c-99.342,0-180.305-80.141-181.667-179.165c1.616,0.212,3.26,0.333,4.933,0.333h353.47c1.673,0,3.317-0.121,4.933-0.333  C436.305,319.024,355.342,399.165,256,399.165z M279.725,235.405c-3.326-2.466-8.023-1.77-10.492,1.556  c-3.156,4.255-7.98,6.696-13.233,6.696s-10.077-2.441-13.233-6.696c-2.468-3.327-7.165-4.023-10.492-1.556  c-3.327,2.468-4.023,7.166-1.556,10.492c5.927,7.99,15.377,12.76,25.281,12.76c9.903,0,19.354-4.77,25.281-12.76  C283.747,242.571,283.052,237.873,279.725,235.405z M418.755,192.626c13.258,0,24.044-10.787,24.044-24.045  s-10.786-24.044-24.044-24.044H93.245c-13.258,0-24.044,10.786-24.044,24.044c0,13.258,10.786,24.045,24.044,24.045H418.755z   M84.2,168.581c0-4.987,4.057-9.044,9.044-9.044h325.511c4.987,0,9.044,4.057,9.044,9.044s-4.057,9.045-9.044,9.045H93.245  C88.257,177.626,84.2,173.568,84.2,168.581z"/>
<g>
</g>
<g>
</g>
<g>
</g>
<g>
</g>
<g>
</g>
<g>
</g>
<g>
</g>
<g>
</g>
<g>
</g>
<g>
</g>
<g>
</g>
<g>
</g>
<g>
</g>
<g>
</g>
<g>
</g>
</svg>
