<?xml version="1.0" encoding="iso-8859-1"?>
<!-- Generator: Adobe Illustrator 19.0.0, SVG Export Plug-In . SVG Version: 6.00 Build 0)  -->
<svg xmlns="http://www.w3.org/2000/svg" xmlns:xlink="http://www.w3.org/1999/xlink" version="1.1" id="Layer_1" x="0px" y="0px" viewBox="0 0 512.001 512.001" style="enable-background:new 0 0 512.001 512.001;" xml:space="preserve">
<ellipse style="fill:#F9D7C3;" cx="73.527" cy="231.11" rx="36.478" ry="53.72"/>
<ellipse style="opacity:0.15;fill:#EC8087;enable-background:new    ;" cx="73.527" cy="231.11" rx="36.478" ry="53.72"/>
<path style="opacity:0.07;enable-background:new    ;" d="M73.525,177.387c-1.733,0-3.436,0.19-5.105,0.535  c-4.459,15.797-6.848,32.461-6.848,49.685c0,19.922,3.203,39.094,9.104,57.042c0.941,0.107,1.889,0.179,2.849,0.179  c20.146,0,36.478-24.051,36.478-53.72S93.671,177.387,73.525,177.387z"/>
<ellipse style="fill:#F9D7C3;" cx="438.467" cy="231.11" rx="36.477" ry="53.72"/>
<ellipse style="opacity:0.15;fill:#EC8087;enable-background:new    ;" cx="438.467" cy="231.11" rx="36.477" ry="53.72"/>
<path style="opacity:0.07;enable-background:new    ;" d="M438.469,177.387c1.733,0,3.436,0.19,5.105,0.535  c4.459,15.797,6.848,32.461,6.848,49.685c0,19.922-3.204,39.094-9.104,57.042c-0.941,0.107-1.889,0.179-2.849,0.179  c-20.146,0-36.478-24.051-36.478-53.72S418.323,177.387,438.469,177.387z"/>
<path style="fill:#394049;" d="M141.943,398.085c-66.2,10.584-75.567,69.787-76.512,95.02c-0.233,6.229,4.767,11.395,11.001,11.395  h65.511V398.085z"/>
<path style="opacity:0.1;enable-background:new    ;" d="M131.994,400.155c-27.347,26.767-44.885,63.51-46.724,104.345h56.672  V398.085C138.467,398.641,135.164,399.343,131.994,400.155z"/>
<path style="fill:#394049;" d="M370.051,398.085c66.201,10.584,75.567,69.787,76.512,95.02c0.233,6.229-4.767,11.395-11.001,11.395  h-65.511L370.051,398.085L370.051,398.085z"/>
<path style="opacity:0.1;enable-background:new    ;" d="M380,400.155c27.347,26.767,44.885,63.51,46.724,104.345h-56.672V398.085  C373.527,398.641,376.831,399.343,380,400.155z"/>
<path style="fill:#4DB1E0;" d="M411.996,504.5c0-86.156-69.843-155.999-155.999-155.999S99.998,418.344,99.998,504.5H411.996z"/>
<path style="fill:#394049;" d="M322.523,463.486v30.78c0,3.624,0.72,7.078,2.018,10.234h49.846c1.297-3.156,2.018-6.61,2.018-10.234  v-30.78H322.523z"/>
<rect x="143.427" y="461.8" style="fill:#FFFFFF;" width="35.752" height="15"/>
<path style="opacity:0.1;enable-background:new    ;" d="M255.997,348.501c-52.184,0-98.377,25.628-126.697,64.979  c7.241,7.251,16.91,12.077,27.684,13.153c4.549,20.39,22.738,35.635,44.499,35.635c3.116,0,6.159-0.315,9.099-0.91  c2.06,23.28,21.6,41.536,45.415,41.536s43.355-18.257,45.415-41.536c2.941,0.595,5.983,0.91,9.1,0.91  c21.761,0,39.95-15.245,44.499-35.635c10.774-1.076,20.443-5.902,27.684-13.153C354.375,374.129,308.181,348.501,255.997,348.501z"/>
<path style="fill:#EC8087;" d="M143.424,9.202c-25.931,0-46.953,21.022-46.953,46.953c0,0.662,0.023,1.319,0.05,1.975  C77.162,63.925,63.05,81.864,63.05,103.109c0,8.985,2.528,17.379,6.905,24.515c-13.359,8.278-22.261,23.063-22.261,39.934  c0,25.931,21.022,46.953,46.953,46.953s46.953-21.022,46.953-46.953c0-8.985-2.527-17.379-6.905-24.515  c13.359-8.278,22.261-23.064,22.261-39.934c0-0.662-0.023-1.319-0.05-1.975c19.359-5.795,33.471-23.734,33.471-44.979  C190.377,30.224,169.355,9.202,143.424,9.202z M442.039,127.623c4.378-7.136,6.905-15.53,6.905-24.515  c0-21.244-14.113-39.184-33.471-44.979c0.027-0.656,0.05-1.312,0.05-1.975c0-25.931-21.022-46.953-46.953-46.953  s-46.953,21.022-46.953,46.953c0,21.244,14.112,39.184,33.471,44.979c-0.027,0.656-0.05,1.312-0.05,1.975  c0,16.87,8.902,31.656,22.261,39.934c-4.378,7.136-6.905,15.529-6.905,24.515c0,25.931,21.022,46.953,46.953,46.953  s46.953-21.022,46.953-46.953C464.301,150.686,455.398,135.901,442.039,127.623z"/>
<circle style="fill:#F9D7C3;" cx="255.997" cy="227.61" r="182.52"/>
<g>
	<path style="fill:#EC8087;" d="M160.231,268.827h-29.795c-4.142,0-7.5-3.358-7.5-7.5s3.358-7.5,7.5-7.5h29.795   c4.142,0,7.5,3.358,7.5,7.5S164.373,268.827,160.231,268.827z"/>
	<path style="fill:#EC8087;" d="M381.551,268.827h-29.795c-4.142,0-7.5-3.358-7.5-7.5s3.358-7.5,7.5-7.5h29.795   c4.142,0,7.5,3.358,7.5,7.5S385.694,268.827,381.551,268.827z"/>
</g>
<path style="fill:#394049;" d="M398.388,208.082c0,17.522-14.205,31.727-31.727,31.727s-31.727-14.205-31.727-31.727v-36.248h63.454  L398.388,208.082L398.388,208.082z"/>
<g style="opacity:0.1;">
	<path d="M347.763,137.71c-1.919,0-3.839-0.732-5.303-2.197l-27.736-27.736c-2.929-2.929-2.929-7.678,0-10.606   c2.929-2.929,7.678-2.929,10.606,0l27.736,27.736c2.929,2.929,2.929,7.678,0,10.606C351.603,136.978,349.684,137.71,347.763,137.71   z"/>
	<path d="M320.027,137.71c-1.919,0-3.839-0.732-5.303-2.197c-2.929-2.929-2.929-7.678,0-10.606l27.736-27.736   c2.929-2.929,7.678-2.929,10.606,0c2.929,2.929,2.929,7.678,0,10.606l-27.736,27.736   C323.866,136.978,321.947,137.71,320.027,137.71z"/>
</g>
<path style="fill:#EC8087;" d="M350.426,314.631c-15.303,0-28.833,7.546-37.101,19.112c-9.625-22.119-31.665-37.591-57.327-37.591  s-47.701,15.472-57.327,37.591c-8.269-11.566-21.798-19.112-37.101-19.112c-25.187,0-45.605,20.418-45.605,45.605  c0,23.639,17.986,43.076,41.02,45.376c4.549,20.39,22.738,35.635,44.499,35.635c3.116,0,6.159-0.315,9.099-0.91  c2.06,23.279,21.6,41.536,45.415,41.536s43.355-18.257,45.415-41.536c2.941,0.595,5.983,0.91,9.1,0.91  c21.761,0,39.95-15.246,44.499-35.635c23.034-2.3,41.02-21.737,41.02-45.376C396.03,335.049,375.612,314.631,350.426,314.631z"/>
<path style="opacity:0.07;enable-background:new    ;" d="M255.997,45.09c-31.679,0-61.47,8.075-87.434,22.273  c2.802,17.991,18.361,31.758,37.137,31.758c4.198,0,8.23-0.698,12-1.968c8.718,11.65,22.627,19.19,38.297,19.19  c15.67,0,29.579-7.54,38.297-19.19c3.77,1.27,7.802,1.968,12,1.968c18.776,0,34.335-13.768,37.137-31.758  C317.467,53.165,287.676,45.09,255.997,45.09z"/>
<path style="fill:#EC8087;" d="M306.294,10.707c-7.904,0-15.234,2.444-21.286,6.611C276.962,11.164,266.91,7.5,255.997,7.5  c-10.912,0-20.965,3.664-29.011,9.819c-6.052-4.167-13.382-6.611-21.286-6.611c-20.76,0-37.59,16.83-37.59,37.59  s16.83,37.59,37.59,37.59c4.198,0,8.23-0.698,12-1.968c8.718,11.649,22.627,19.19,38.297,19.19c15.67,0,29.579-7.54,38.297-19.19  c3.77,1.27,7.802,1.968,12,1.968c20.76,0,37.59-16.829,37.59-37.59S327.055,10.707,306.294,10.707z"/>
<path d="M145.333,201.021c-4.142,0-7.5,3.358-7.5,7.5v22.165c0,4.142,3.358,7.5,7.5,7.5s7.5-3.358,7.5-7.5v-22.165  C152.833,204.379,149.476,201.021,145.333,201.021z M274.574,244.41h-37.161c-4.142,0-7.5,3.358-7.5,7.5s3.358,7.5,7.5,7.5h37.161  c4.142,0,7.5-3.358,7.5-7.5S278.716,244.41,274.574,244.41z M468.47,186.193c2.164-5.892,3.33-12.189,3.33-18.635  c0-16.62-7.396-31.959-20.083-42.241c3.107-6.954,4.728-14.515,4.728-22.208c0-21.98-13.533-41.907-33.521-50.268  c-1.718-28.489-25.44-51.138-54.354-51.138c-12.432,0-24.166,4.111-33.73,11.705c-8-6.549-18.063-10.199-28.546-10.199  c-7.386,0-14.554,1.78-21.003,5.186C276.521,2.887,266.492,0,255.997,0c-10.495,0-20.523,2.887-29.294,8.394  c-6.449-3.406-13.616-5.186-21.003-5.186c-10.482,0-20.546,3.65-28.546,10.199c-9.564-7.594-21.298-11.705-33.73-11.705  c-28.913,0-52.635,22.649-54.353,51.138C69.083,61.2,55.55,81.128,55.55,103.108c0,7.693,1.621,15.254,4.728,22.208  c-12.687,10.282-20.083,25.622-20.083,42.241c0,6.446,1.166,12.744,3.33,18.636c-8.922,11.511-13.976,27.57-13.976,44.913  c0,15.836,4.254,30.823,11.979,42.199c8.329,12.266,19.692,19.021,31.998,19.021c1.249,0,2.498-0.08,3.743-0.225  c7.402,20.521,18.324,39.754,32.435,56.766c-0.803,3.666-1.238,7.467-1.238,11.37c0,13.459,4.96,25.782,13.229,35.166  c-22.015,7.601-38.724,21.817-49.776,42.417c-10.593,19.745-13.449,40.811-13.98,55.006c-0.19,5.06,1.642,9.856,5.156,13.505  c3.522,3.657,8.259,5.67,13.339,5.67h359.131c5.079,0,9.816-2.014,13.339-5.67c3.515-3.649,5.346-8.445,5.157-13.505  c-0.531-14.196-3.389-35.262-13.981-55.006c-11.051-20.6-27.76-34.815-49.776-42.417c8.269-9.384,13.229-21.707,13.229-35.166  c0-3.903-0.435-7.704-1.238-11.37c14.111-17.011,25.033-36.245,32.435-56.766c1.245,0.145,2.493,0.225,3.743,0.225  c12.306,0,23.669-6.755,31.998-19.021c7.725-11.376,11.98-26.363,11.98-42.199C482.448,213.763,477.392,197.704,468.47,186.193z   M44.547,231.106c0-11.151,2.605-21.784,7.181-30.119c4.03,5.19,9.002,9.671,14.724,13.15c-0.312,4.459-0.472,8.95-0.472,13.469  c0,16.907,2.259,33.604,6.613,49.681C57.297,276.469,44.547,255.662,44.547,231.106z M76.432,497c-1.304,0-2.148-0.675-2.536-1.077  c-0.383-0.397-1.018-1.256-0.97-2.538c0.472-12.612,2.974-31.26,12.209-48.476c8.293-15.458,20.483-26.617,36.35-33.342  C104.094,436.709,94.073,466.252,92.67,497H76.432z M368.905,494.266c0,0.923-0.086,1.833-0.214,2.734h-38.454  c-0.127-0.902-0.214-1.811-0.214-2.734v-23.28h38.881L368.905,494.266L368.905,494.266z M426.859,444.91  c9.235,17.215,11.737,35.863,12.21,48.476c0.048,1.282-0.587,2.14-0.971,2.538c-0.387,0.402-1.232,1.077-2.536,1.077h-16.238  c-1.404-30.748-11.424-60.291-28.815-85.431C406.376,418.293,418.566,429.452,426.859,444.91z M404.309,497h-20.519  c0.071-0.906,0.117-1.817,0.117-2.734v-30.78c0-4.142-3.358-7.5-7.5-7.5h-53.881c-4.142,0-7.5,3.358-7.5,7.5v30.78  c0,0.917,0.045,1.828,0.117,2.734H107.686c1.613-32.096,13.559-62.712,34.131-87.43c2.954,1.173,6.042,2.098,9.246,2.734  c7.101,21.398,27.524,36.442,50.419,36.442c0.959,0,1.919-0.026,2.878-0.078c2.439,10.192,7.859,19.474,15.691,26.684  c9.822,9.042,22.587,14.021,35.945,14.021c13.358,0,26.124-4.979,35.945-14.021c7.832-7.209,13.253-16.491,15.691-26.684  c0.959,0.052,1.919,0.078,2.878,0.078c22.895,0,43.318-15.044,50.419-36.442c3.204-0.637,6.292-1.562,9.246-2.734  C390.749,434.288,402.694,464.904,404.309,497z M123.464,360.236c0-21.011,17.094-38.105,38.105-38.105  c12.26,0,23.849,5.972,31,15.974c1.57,2.198,4.204,3.378,6.888,3.097c2.686-0.283,5.012-1.989,6.09-4.466  c8.746-20.098,28.548-33.083,50.45-33.083s41.704,12.986,50.45,33.083c1.078,2.477,3.404,4.183,6.09,4.466  c2.686,0.284,5.317-0.9,6.888-3.097c7.151-10.003,18.74-15.974,31.001-15.974c21.011,0,38.105,17.094,38.105,38.105  c0,19.663-14.73,35.962-34.265,37.913c-3.22,0.321-5.87,2.671-6.575,5.83c-3.849,17.249-19.485,29.769-37.179,29.769  c-2.558,0-5.118-0.256-7.611-0.761c-2.093-0.423-4.265,0.064-5.976,1.341c-1.71,1.277-2.796,3.223-2.984,5.349  c-1.751,19.781-18.063,34.698-37.944,34.698s-36.194-14.917-37.944-34.698c-0.188-2.127-1.273-4.072-2.984-5.349  c-1.306-0.975-2.883-1.49-4.487-1.49c-0.496,0-0.995,0.049-1.489,0.149c-2.492,0.505-5.052,0.761-7.61,0.761  c-17.694,0-33.331-12.52-37.179-29.769c-0.705-3.158-3.355-5.508-6.575-5.83C138.194,396.198,123.464,379.899,123.464,360.236z   M395.878,332.801c-9.314-15.374-26.203-25.67-45.452-25.67c-13.218,0-25.873,4.975-35.538,13.674  c-12.743-19.831-34.821-32.153-58.89-32.153s-46.147,12.322-58.89,32.153c-9.665-8.7-22.32-13.674-35.538-13.674  c-19.25,0-36.139,10.296-45.453,25.67C93.382,302.588,80.98,265.672,80.98,227.606c0-5.829,0.299-11.607,0.861-17.324  c0.127-1.296,0.28-2.588,0.436-3.88c0.07-0.578,0.135-1.156,0.21-1.733c0.186-1.415,0.393-2.827,0.614-4.236  c0.06-0.385,0.118-0.769,0.18-1.153c0.265-1.623,0.551-3.242,0.862-4.856c0.019-0.097,0.037-0.194,0.056-0.292  c3.994-20.523,11.692-40.247,22.659-58.088c56.106,28.336,118.723,43.289,181.597,43.289h38.978v28.748  c0,21.63,17.597,39.227,39.227,39.227c21.63,0,39.227-17.597,39.227-39.227v-28.748h18.337c1.4,4.877,2.6,9.813,3.57,14.799  c0.019,0.097,0.037,0.194,0.056,0.292c0.311,1.614,0.596,3.233,0.862,4.856c0.062,0.384,0.12,0.769,0.18,1.153  c0.221,1.409,0.428,2.821,0.614,4.236c0.075,0.576,0.14,1.155,0.21,1.733c0.156,1.292,0.309,2.584,0.436,3.88  c0.561,5.717,0.861,11.495,0.861,17.324C431.014,265.672,418.612,302.587,395.878,332.801z M288.456,164.333  c-59.896,0-119.548-14.098-173.126-40.824c14.546-19.606,33.128-36.086,54.312-48.138c8.43,11.266,21.667,18.015,36.059,18.015  c3.131,0,6.239-0.324,9.288-0.967c10.473,11.62,25.152,18.189,41.009,18.189s30.537-6.569,41.009-18.189  c3.049,0.643,6.157,0.967,9.288,0.967c14.393,0,27.629-6.749,36.059-18.015c23.027,13.1,42.993,31.422,58.027,53.317  c7.642,11.129,13.929,23.114,18.789,35.645H288.456z M390.888,179.333v28.748c0,13.359-10.868,24.227-24.227,24.227  c-13.359,0-24.227-10.868-24.227-24.227v-28.748H390.888z M343.206,58.75l-0.008,0.016l0,0c-1.075-0.557-2.258-0.839-3.447-0.839  c-0.768,0-1.539,0.118-2.285,0.356c-1.899,0.608-3.478,1.946-4.388,3.72c-5.185,10.106-15.447,16.384-26.783,16.384  c-3.269,0-6.501-0.53-9.607-1.576c-3.068-1.032-6.457,0.02-8.398,2.614c-7.696,10.285-19.467,16.183-32.292,16.183  c-12.825,0-24.595-5.899-32.292-16.184c-1.941-2.594-5.329-3.648-8.398-2.614c-3.105,1.046-6.338,1.576-9.607,1.576  c-11.335,0-21.599-6.278-26.784-16.384c-0.91-1.773-2.489-3.112-4.388-3.72c-1.898-0.606-3.96-0.434-5.732,0.482l0,0l-0.008-0.016  c-28.428,14.711-52.024,35.833-69.413,61.086c-0.941,0.66-1.748,1.541-2.322,2.627c-0.321,0.607-0.542,1.238-0.685,1.877  c-14.117,21.815-23.711,46.502-27.937,72.679c-8.261-7.395-13.239-18.113-13.239-29.462c0-13.753,6.995-26.299,18.711-33.559  c3.51-2.175,4.602-6.777,2.443-10.297c-3.794-6.184-5.798-13.305-5.798-20.593c0-17.296,11.564-32.837,28.122-37.793  c3.286-0.983,5.486-4.071,5.343-7.498c-0.023-0.552-0.044-1.105-0.044-1.662c0-21.754,17.698-39.453,39.453-39.453  c10.842,0,20.954,4.319,28.474,12.163c1.458,1.521,3.476,2.357,5.599,2.307c2.107-0.052,4.096-0.989,5.478-2.581  c5.729-6.599,14.012-10.383,22.726-10.383c6.117,0,12.007,1.829,17.033,5.289c2.675,1.841,6.23,1.752,8.81-0.221  C238.621,17.862,247.077,15,255.997,15s17.376,2.862,24.455,8.275c2.58,1.974,6.135,2.062,8.81,0.221  c5.025-3.46,10.915-5.289,17.033-5.289c8.714,0,16.997,3.785,22.725,10.383c1.382,1.592,3.371,2.529,5.478,2.581  c2.117,0.047,4.141-0.786,5.6-2.307c7.519-7.843,17.631-12.163,28.473-12.163c21.754,0,39.453,17.699,39.453,39.453  c0,0.559-0.021,1.114-0.043,1.667c-0.14,3.425,2.059,6.509,5.343,7.492c16.558,4.956,28.122,20.497,28.122,37.793  c0,7.288-2.005,14.409-5.798,20.593c-2.159,3.52-1.067,8.122,2.443,10.297c11.716,7.26,18.711,19.805,18.711,33.559  c0,11.349-4.977,22.067-13.238,29.462C434.057,138.145,397.409,86.799,343.206,58.75z M439.401,277.287  c4.353-16.077,6.612-32.774,6.612-49.681c0-4.518-0.159-9.01-0.472-13.469c5.722-3.479,10.694-7.96,14.724-13.15  c4.576,8.336,7.181,18.969,7.181,30.12C467.448,255.662,454.698,276.469,439.401,277.287z"/>
<g>
</g>
<g>
</g>
<g>
</g>
<g>
</g>
<g>
</g>
<g>
</g>
<g>
</g>
<g>
</g>
<g>
</g>
<g>
</g>
<g>
</g>
<g>
</g>
<g>
</g>
<g>
</g>
<g>
</g>
</svg>
