<?xml version="1.0" encoding="iso-8859-1"?>
<!-- Generator: Adobe Illustrator 19.0.0, SVG Export Plug-In . SVG Version: 6.00 Build 0)  -->
<svg xmlns="http://www.w3.org/2000/svg" xmlns:xlink="http://www.w3.org/1999/xlink" version="1.1" id="Layer_1" x="0px" y="0px" viewBox="0 0 512 512" style="enable-background:new 0 0 512 512;" xml:space="preserve">
<circle style="fill:#F6CDB5;" cx="98.01" cy="222.18" r="37.997"/>
<circle style="opacity:0.15;fill:#EC8087;enable-background:new    ;" cx="98.01" cy="222.18" r="37.997"/>
<path style="opacity:0.07;enable-background:new    ;" d="M98.008,184.187c-4.339,0-8.504,0.737-12.388,2.077  c-0.354,4.316-0.543,8.677-0.543,13.084v48.88c0,3.292,0.113,6.557,0.311,9.798c3.95,1.391,8.195,2.155,12.62,2.155  c20.985,0,37.997-17.012,37.997-37.997C136.005,201.199,118.993,184.187,98.008,184.187z"/>
<circle style="fill:#F6CDB5;" cx="413.99" cy="222.18" r="37.997"/>
<circle style="opacity:0.15;fill:#EC8087;enable-background:new    ;" cx="413.99" cy="222.18" r="37.997"/>
<path style="opacity:0.07;enable-background:new    ;" d="M413.993,184.187c4.339,0,8.504,0.737,12.388,2.077  c0.354,4.316,0.543,8.677,0.543,13.084v48.88c0,3.292-0.113,6.557-0.311,9.798c-3.95,1.391-8.194,2.155-12.62,2.155  c-20.985,0-37.997-17.012-37.997-37.997C375.995,201.199,393.007,184.187,413.993,184.187z"/>
<path style="fill:#394049;" d="M136.005,392.543c-69.648,11.135-79.503,73.422-80.497,99.969  c-0.245,6.554,5.015,11.988,11.574,11.988h68.923V392.543z"/>
<path style="opacity:0.08;enable-background:new    ;" d="M125.539,394.72c-28.771,28.162-47.223,66.818-49.158,109.78h59.624  V392.543C132.349,393.127,128.873,393.866,125.539,394.72z"/>
<path style="fill:#394049;" d="M375.995,392.543c69.648,11.135,79.503,73.422,80.497,99.969c0.245,6.554-5.015,11.988-11.574,11.988  h-68.923V392.543z"/>
<path style="opacity:0.08;enable-background:new    ;" d="M386.461,394.72c28.771,28.162,47.223,66.818,49.158,109.78h-59.624  V392.543C379.651,393.127,383.127,393.866,386.461,394.72z"/>
<path style="fill:#AD82C6;" d="M420.125,504.5c0-90.643-73.481-164.125-164.125-164.125S91.876,413.857,91.876,504.5H420.125z"/>
<path style="fill:#F6D83E;" d="M307.269,348.554L151.324,504.5h158.434l86.029-86.029  C375.644,385.811,344.379,360.747,307.269,348.554z"/>
<g style="opacity:0.08;">
	<path d="M349.176,436.368c-17.654,0-31.966,14.312-31.966,31.966c0,7.999,2.945,15.306,7.801,20.913l45.077-45.077   C364.482,439.313,357.175,436.368,349.176,436.368z"/>
	<path d="M317.982,352.5c-5.984,6.487-9.644,15.151-9.644,24.672c0,20.104,16.298,36.402,36.402,36.402   c14.119,0,26.351-8.044,32.389-19.794C360.842,375.972,340.685,361.767,317.982,352.5z"/>
	<path d="M195.649,460.175L151.324,504.5h47.958c4.54-5.52,7.268-12.587,7.268-20.293   C206.549,474.625,202.327,466.033,195.649,460.175z"/>
	<circle cx="265.22" cy="448.52" r="19.813"/>
</g>
<path style="opacity:0.1;enable-background:new    ;" d="M256,340.375c-41.903,0-80.132,15.712-109.135,41.556  c27.451,28.815,66.196,46.772,109.135,46.772l0,0c42.939,0,81.684-17.958,109.135-46.772  C336.132,356.088,297.904,340.375,256,340.375z"/>
<path style="fill:#F6CDB5;" d="M256,41.356L256,41.356c-87.257,0-157.992,70.736-157.992,157.992v48.88  c0,87.257,70.735,157.992,157.992,157.992l0,0c87.257,0,157.992-70.736,157.992-157.992v-48.88  C413.992,112.091,343.257,41.356,256,41.356z"/>
<path style="fill:#8D6A59;" d="M166.223,161.23l61.634,43.021c10.831,7.561,25.691-0.189,25.691-13.398V180.66l42.88,29.931  c12.427,8.674,29.478-0.217,29.478-15.373V161.23H166.223z"/>
<g style="opacity:0.1;">
	<path d="M256,41.356L256,41.356c-81.093,0-147.904,61.098-156.94,139.77h313.88C403.904,102.454,337.093,41.356,256,41.356z"/>
</g>
<g>
	<circle style="fill:#EC8087;" cx="256" cy="259.52" r="19.813"/>
	<path style="fill:#EC8087;" d="M164.662,274.175h-31.771c-4.143,0-7.5-3.358-7.5-7.5s3.357-7.5,7.5-7.5h31.771   c4.143,0,7.5,3.358,7.5,7.5S168.805,274.175,164.662,274.175z"/>
	<path style="fill:#EC8087;" d="M379.109,274.175h-31.772c-4.143,0-7.5-3.358-7.5-7.5s3.357-7.5,7.5-7.5h31.772   c4.143,0,7.5,3.358,7.5,7.5S383.252,274.175,379.109,274.175z"/>
</g>
<path style="fill:#F6CDB5;" d="M255.997,286.833c-15.061,0-27.313-12.252-27.313-27.313c0-15.06,12.252-27.313,27.313-27.313  c15.06,0,27.313,12.252,27.313,27.313C283.31,274.581,271.058,286.833,255.997,286.833z M255.997,247.208  c-6.789,0-12.313,5.523-12.313,12.313c0,6.789,5.523,12.313,12.313,12.313c6.789,0,12.313-5.523,12.313-12.313  C268.31,252.731,262.786,247.208,255.997,247.208z"/>
<path style="opacity:0.4;fill:#EC8087;enable-background:new    ;" d="M255.997,286.833c-15.061,0-27.313-12.252-27.313-27.313  c0-15.06,12.252-27.313,27.313-27.313c15.06,0,27.313,12.252,27.313,27.313C283.31,274.581,271.058,286.833,255.997,286.833z   M255.997,247.208c-6.789,0-12.313,5.523-12.313,12.313c0,6.789,5.523,12.313,12.313,12.313c6.789,0,12.313-5.523,12.313-12.313  C268.31,252.731,262.786,247.208,255.997,247.208z"/>
<path style="fill:#F6D83E;" d="M450.796,7.5H61.204c-10.898,0-19.733,8.835-19.733,19.733v114.263  c0,10.898,8.835,19.733,19.733,19.733h389.592c10.899,0,19.733-8.835,19.733-19.733V27.233C470.53,16.335,461.695,7.5,450.796,7.5z"/>
<path style="opacity:0.1;enable-background:new    ;" d="M450.796,161.23h-94.935V7.5h94.935c10.899,0,19.733,8.835,19.733,19.733  v114.263C470.53,152.395,461.695,161.23,450.796,161.23z"/>
<g style="opacity:0.08;">
	<path d="M60.314,58.423c-6.867,0-13.299,1.845-18.844,5.053v65.281c5.545,3.208,11.977,5.053,18.844,5.053   c20.818,0,37.694-16.876,37.694-37.694C98.008,75.299,81.132,58.423,60.314,58.423z"/>
	<path d="M183.593,7.5c0,20.818-16.876,37.694-37.694,37.694S108.205,28.318,108.205,7.5H183.593z"/>
	<path d="M336.646,50.567c-15.367,0-27.824,12.457-27.824,27.824s12.457,27.824,27.824,27.824c7.455,0,14.219-2.937,19.215-7.711   V58.278C350.866,53.505,344.101,50.567,336.646,50.567z"/>
	<circle cx="231.81" cy="56.47" r="21.925"/>
	<path d="M183.593,161.23c0-20.818,16.876-37.694,37.694-37.694s37.694,16.876,37.694,37.694H183.593z"/>
	<path d="M414.992,7.5c-3.605,5.909-5.632,12.888-5.487,20.35c0.393,20.345,17.334,36.946,37.683,36.948   c8.818,0.001,16.922-3.034,23.343-8.106V27.234c0-10.899-8.835-19.734-19.733-19.734H414.992z"/>
	<path d="M355.861,118.204v43.025h43.025C398.886,137.467,379.623,118.204,355.861,118.204z"/>
</g>
<path d="M450.796,0H61.204C46.188,0,33.971,12.217,33.971,27.233v114.263c0,15.017,12.217,27.233,27.233,27.233h32.151  c-0.52,2.774-0.957,5.564-1.334,8.364c-22.266,2.942-39.51,22.034-39.51,45.091c0,22.913,17.029,41.915,39.094,45.038  c4.783,41.663,25.095,78.666,54.991,105.062c-5.006,4.152-9.776,8.592-14.283,13.284c-31.253,5.617-54.412,21.597-68.854,47.531  c-11.724,21.054-14.87,43.777-15.445,59.133c-0.194,5.216,1.693,10.161,5.316,13.922c3.632,3.77,8.516,5.846,13.753,5.846h377.83  c5.237,0,10.122-2.077,13.753-5.847c3.623-3.762,5.511-8.706,5.315-13.921c-0.575-15.355-3.721-38.078-15.444-59.133  c-14.441-25.933-37.597-41.912-68.846-47.53c-4.508-4.692-9.278-9.132-14.285-13.285c29.896-26.396,50.208-63.399,54.991-105.062  c22.065-3.123,39.093-22.124,39.093-45.038c0-23.057-17.243-42.149-39.509-45.091c-0.378-2.799-0.815-5.589-1.334-8.363h32.15  c15.017,0,27.233-12.217,27.233-27.233V27.233C478.029,12.217,465.813,0,450.796,0z M90.553,251.756  c-13.224-3.336-23.042-15.327-23.042-29.572c0-14.285,9.874-26.302,23.152-29.598c-0.092,2.252-0.155,4.506-0.155,6.762v48.88  C90.508,249.408,90.528,250.582,90.553,251.756z M444.489,222.184c0,14.247-9.822,26.241-23.042,29.573  c0.025-1.174,0.045-2.349,0.045-3.529v-48.88c0-2.256-0.063-4.509-0.154-6.761C434.616,195.883,444.489,207.9,444.489,222.184z   M61.204,153.73c-6.745,0-12.233-5.488-12.233-12.233V27.233C48.971,20.488,54.459,15,61.204,15h287.157v138.73H61.204z   M318.407,168.73v26.489c0,4.27-2.261,7.998-6.047,9.973c-3.785,1.974-8.136,1.695-11.638-0.75l-42.881-29.931  c-2.292-1.599-5.282-1.793-7.761-0.5c-2.479,1.292-4.032,3.855-4.032,6.65v10.193c0,3.356-1.776,6.286-4.752,7.838  c-2.977,1.552-6.396,1.331-9.146-0.59l-42.078-29.371L318.407,168.73L318.407,168.73z M67.082,497c-1.517,0-2.499-0.785-2.949-1.252  c-0.446-0.463-1.186-1.462-1.13-2.955c0.42-11.228,2.741-32.966,13.561-52.396c8.967-16.104,22.051-27.637,38.996-34.512  c-4.525,6.422-8.618,13.14-12.209,20.108C92.075,447.868,85.648,472.271,84.56,497H67.082z M99.549,497  c1.042-22.527,6.793-44.07,17.134-64.136c10.122-19.64,24.538-37.156,41.871-50.965c21.514,15.727,46.947,26.389,74.537,30.227  L148.216,497H99.549z M435.431,440.397c10.819,19.431,13.14,41.168,13.56,52.397c0.057,1.492-0.683,2.491-1.129,2.954  c-0.45,0.468-1.433,1.252-2.949,1.252h-17.471c-1.088-24.729-7.516-49.132-18.789-71.007c-3.591-6.967-7.683-13.684-12.208-20.105  C413.384,412.764,426.465,424.296,435.431,440.397z M395.317,432.864c10.342,20.066,16.093,41.609,17.135,64.136h-84.587  l66.298-66.298C394.549,431.422,394.943,432.138,395.317,432.864z M386.205,417.446L306.651,497H169.43l83.322-83.322  c1.081,0.021,2.162,0.041,3.248,0.041c36.403,0,70.092-11.824,97.447-31.82C366.099,391.979,377.199,404.03,386.205,417.446z   M406.492,248.228c0,82.982-67.511,150.492-150.492,150.492s-150.492-67.51-150.492-150.492v-48.88  c0-10.301,1.064-20.572,3.141-30.618h55.216l59.7,41.671c7.312,5.104,16.766,5.712,24.668,1.59  c6.716-3.502,11.27-9.873,12.489-17.178l31.415,21.928c4.503,3.144,9.745,4.738,15.014,4.738c4.148,0,8.312-0.988,12.146-2.988  c8.704-4.539,14.111-13.456,14.111-23.273V168.73h69.944c2.077,10.043,3.141,20.314,3.141,30.618L406.492,248.228L406.492,248.228z   M463.029,141.497c0,6.746-5.488,12.233-12.233,12.233h-87.435V15h87.435c6.745,0,12.233,5.488,12.233,12.233V141.497z   M363.228,202.866c-4.143,0-7.5,3.358-7.5,7.5v23.636c0,4.142,3.357,7.5,7.5,7.5s7.5-3.358,7.5-7.5v-23.636  C370.728,206.224,367.37,202.866,363.228,202.866z M148.773,202.866c-4.143,0-7.5,3.358-7.5,7.5v23.636c0,4.142,3.357,7.5,7.5,7.5  c4.142,0,7.5-3.358,7.5-7.5v-23.636C156.273,206.224,152.915,202.866,148.773,202.866z"/>
<g>
</g>
<g>
</g>
<g>
</g>
<g>
</g>
<g>
</g>
<g>
</g>
<g>
</g>
<g>
</g>
<g>
</g>
<g>
</g>
<g>
</g>
<g>
</g>
<g>
</g>
<g>
</g>
<g>
</g>
</svg>
