<?xml version="1.0" encoding="iso-8859-1"?>
<!-- Generator: Adobe Illustrator 19.0.0, SVG Export Plug-In . SVG Version: 6.00 Build 0)  -->
<svg xmlns="http://www.w3.org/2000/svg" xmlns:xlink="http://www.w3.org/1999/xlink" version="1.1" id="Layer_1" x="0px" y="0px" viewBox="0 0 511.999 511.999" style="enable-background:new 0 0 511.999 511.999;" xml:space="preserve">
<path style="fill:#4EBF8C;" d="M427.45,379.669H84.55c-14.36,0-26-11.641-26-26V204.95h394.9v148.718  C453.45,368.028,441.809,379.669,427.45,379.669z"/>
<path style="fill:#EC8087;" d="M132.613,389.379c-71.617,11.45-81.75,75.497-82.772,102.795  c-0.252,6.739,5.157,12.327,11.901,12.327h70.871V389.379z"/>
<path style="opacity:0.1;enable-background:new    ;" d="M121.851,391.617C92.267,420.575,73.294,460.323,71.304,504.5h61.31  V389.378C128.854,389.979,125.28,390.739,121.851,391.617z"/>
<path style="fill:#EC8087;" d="M379.387,389.379c71.617,11.45,81.75,75.497,82.772,102.795c0.252,6.739-5.157,12.327-11.901,12.327  h-70.871V389.379z"/>
<path style="opacity:0.1;enable-background:new    ;" d="M390.148,391.617c29.584,28.958,48.557,68.706,50.547,112.883h-61.309  V389.378C383.146,389.979,386.72,390.739,390.148,391.617z"/>
<path style="fill:#4EBF8C;" d="M424.763,504.5c0-93.205-75.558-168.763-168.763-168.763S87.237,411.295,87.237,504.5H424.763z"/>
<path style="fill:#F6D83E;" d="M256,335.737c-59.299,0-111.446,30.589-141.546,76.844L237.51,504.5h36.98l123.056-91.919  C367.447,366.327,315.299,335.737,256,335.737z"/>
<path style="fill:#FFFFFF;" d="M256,335.737c-48.901,0-92.936,20.806-123.757,54.04L256,482.221l123.757-92.444  C348.935,356.543,304.901,335.737,256,335.737z"/>
<path style="opacity:0.1;enable-background:new    ;" d="M256,335.737c-48.901,0-92.936,20.806-123.758,54.04  c33.859,27.272,76.897,43.607,123.758,43.607c46.86,0,89.899-16.335,123.757-43.607C348.935,356.543,304.901,335.737,256,335.737z"/>
<circle style="fill:#F9D7C3;" cx="68.991" cy="225.56" r="45.959"/>
<circle style="opacity:0.15;fill:#EC8087;enable-background:new    ;" cx="68.991" cy="225.56" r="45.959"/>
<path style="opacity:0.07;enable-background:new    ;" d="M68.991,179.595c-8.345,0-16.163,2.236-22.909,6.123  c-0.612,6.329-0.934,12.743-0.934,19.232c0,22.659,3.828,44.421,10.854,64.689c4.12,1.212,8.477,1.874,12.989,1.874  c25.383,0,45.959-20.577,45.959-45.959S94.374,179.595,68.991,179.595z"/>
<circle style="fill:#F9D7C3;" cx="443.01" cy="225.56" r="45.959"/>
<circle style="opacity:0.15;fill:#EC8087;enable-background:new    ;" cx="443.01" cy="225.56" r="45.959"/>
<path style="opacity:0.07;enable-background:new    ;" d="M443.009,179.595c8.345,0,16.163,2.236,22.909,6.123  c0.612,6.329,0.934,12.743,0.934,19.232c0,22.659-3.828,44.421-10.854,64.689c-4.12,1.212-8.477,1.874-12.989,1.874  c-25.383,0-45.959-20.577-45.959-45.959S417.626,179.595,443.009,179.595z"/>
<circle style="fill:#F9D7C3;" cx="256" cy="204.95" r="197.45"/>
<g>
	<path style="fill:#EC8087;" d="M152.398,250.795h-32.232c-4.143,0-7.5-3.358-7.5-7.5s3.357-7.5,7.5-7.5h32.232   c4.143,0,7.5,3.358,7.5,7.5C159.898,247.438,156.541,250.795,152.398,250.795z"/>
	<path style="fill:#EC8087;" d="M391.826,250.795h-32.232c-4.143,0-7.5-3.358-7.5-7.5s3.357-7.5,7.5-7.5h32.232   c4.143,0,7.5,3.358,7.5,7.5C399.326,247.438,395.969,250.795,391.826,250.795z"/>
</g>
<g>
	<path style="fill:#4EBF8C;" d="M256,250.795c-10.232,0-19.997-4.929-26.12-13.184c-2.468-3.327-1.771-8.024,1.556-10.492   s8.023-1.771,10.491,1.556c3.357,4.525,8.486,7.121,14.073,7.121s10.716-2.595,14.073-7.121c2.467-3.326,7.165-4.023,10.491-1.556   c3.327,2.468,4.023,7.166,1.556,10.492C275.997,245.867,266.232,250.795,256,250.795z"/>
	<path style="fill:#4EBF8C;" d="M256,7.5c-85.119,0-157.656,53.862-185.393,129.361h196.609c11.013,0,19.941-8.928,19.941-19.941   V83.123c0-3.926,4.804-5.829,7.492-2.967l47.358,50.416c3.769,4.012,9.03,6.288,14.535,6.288h84.851   C413.656,61.362,341.118,7.5,256,7.5z"/>
</g>
<path style="fill:#394049;" d="M131.43,136.861C131.43,110.958,158.706,28.967,256,7.5  c-57.829,49.211-53.317,129.361-53.317,129.361H131.43z"/>
<path d="M124.753,206.778c0-6.357,5.172-11.529,11.529-11.529s11.529,5.172,11.529,11.529c0,4.142,3.357,7.5,7.5,7.5  s7.5-3.358,7.5-7.5c0-14.628-11.901-26.529-26.529-26.529s-26.529,11.901-26.529,26.529c0,4.142,3.357,7.5,7.5,7.5  C121.396,214.278,124.753,210.92,124.753,206.778z M460.95,353.668v-77.761c20.677-7.39,35.518-27.167,35.518-50.352  c0-23.632-15.602-44.315-37.79-51.106C443.903,75.853,358.646,0,256,0S68.097,75.853,53.322,174.449  c-22.188,6.791-37.79,27.474-37.79,51.106c0,23.185,14.84,42.962,35.518,50.352v77.761c0,18.472,15.028,33.5,33.501,33.5h25.992  c-22.944,8.007-40.5,22.749-52.342,44.015c-12.035,21.613-15.265,44.943-15.854,60.708c-0.199,5.306,1.721,10.335,5.406,14.161  c3.694,3.836,8.662,5.947,13.989,5.947h388.516c5.327,0,10.295-2.112,13.989-5.947c3.685-3.826,5.605-8.855,5.406-14.16  c-0.59-15.766-3.819-39.096-15.854-60.709c-11.842-21.266-29.398-36.009-52.342-44.015h25.992  C445.922,387.168,460.95,372.141,460.95,353.668z M460.95,204.95c0-4.589-0.167-9.138-0.466-13.653  c12.59,6.438,20.983,19.553,20.983,34.257c0,17.887-12.275,32.961-28.843,37.242C458.033,244.443,460.95,225.032,460.95,204.95z   M30.532,225.555c0-14.704,8.393-27.82,20.983-34.257c-0.299,4.514-0.466,9.064-0.466,13.653c0,20.082,2.917,39.493,8.326,57.846  C42.807,258.516,30.532,243.442,30.532,225.555z M256,15c77.888,0,144.965,47.128,174.244,114.361h-73.702  c-3.421,0-6.726-1.43-9.067-3.923l-47.36-50.418c-3.345-3.56-8.441-4.697-12.982-2.899c-4.541,1.799-7.476,6.117-7.476,11.002  v33.796c0,6.86-5.581,12.442-12.441,12.442H81.756C111.035,62.128,178.112,15,256,15z M75.96,144.361h191.256  c15.131,0,27.441-12.311,27.441-27.442v-25.8l41.884,44.588c5.165,5.5,12.455,8.654,20.001,8.654h79.499  c6.424,19.037,9.91,39.413,9.91,60.589c0,104.739-85.211,189.95-189.95,189.95S66.05,309.689,66.05,204.95  C66.05,183.774,69.536,163.398,75.96,144.361z M368.415,388.887L256,472.86l-112.416-83.973c2.658-2.578,5.412-5.079,8.264-7.492  C182.389,399.492,217.999,409.9,256,409.9s73.611-10.408,104.152-28.505C363.005,383.809,365.758,386.309,368.415,388.887z   M84.551,372.168c-10.201,0-18.501-8.299-18.501-18.5v-71.783c14.833,36.488,39.874,67.777,71.575,90.284L84.551,372.168z   M61.742,497c-1.214,0-2.345-0.48-3.186-1.353c-0.481-0.5-1.28-1.58-1.22-3.193c0.433-11.564,2.822-33.954,13.97-53.972  c9.341-16.774,23.009-28.74,40.74-35.799c-19.454,27.411-30.7,59.975-32.135,94.317H61.742z M94.908,497  c1.65-36.117,15.191-70.051,38.338-97.112l118.266,88.342c1.331,0.994,2.909,1.491,4.488,1.491s3.157-0.497,4.488-1.491  l118.266-88.342c23.146,27.061,36.688,60.995,38.338,97.112H94.908z M440.693,438.481c11.147,20.019,13.537,42.408,13.97,53.973  c0.061,1.613-0.738,2.692-1.22,3.192c-0.841,0.872-1.972,1.353-3.186,1.353h-18.169c-1.434-34.342-12.68-66.906-32.135-94.318  C417.684,409.742,431.353,421.707,440.693,438.481z M374.375,372.169c31.701-22.507,56.743-53.796,71.575-90.284v71.783  c0,10.201-8.3,18.5-18.501,18.5L374.375,372.169z M375.717,217.648c4.143,0,7.5-3.358,7.5-7.5v-23.979c0-4.142-3.357-7.5-7.5-7.5  s-7.5,3.358-7.5,7.5v23.979C368.217,214.29,371.575,217.648,375.717,217.648z"/>
<g>
</g>
<g>
</g>
<g>
</g>
<g>
</g>
<g>
</g>
<g>
</g>
<g>
</g>
<g>
</g>
<g>
</g>
<g>
</g>
<g>
</g>
<g>
</g>
<g>
</g>
<g>
</g>
<g>
</g>
</svg>
