<?xml version="1.0" encoding="iso-8859-1"?>
<!-- Generator: Adobe Illustrator 19.0.0, SVG Export Plug-In . SVG Version: 6.00 Build 0)  -->
<svg xmlns="http://www.w3.org/2000/svg" xmlns:xlink="http://www.w3.org/1999/xlink" version="1.1" id="Layer_1" x="0px" y="0px" viewBox="0 0 512 512" style="enable-background:new 0 0 512 512;" xml:space="preserve">
<rect x="72.299" y="242.6" style="fill:#EC8087;" width="345.05" height="187.47"/>
<path style="fill:#F6CDB5;" d="M121.432,389.378c-71.617,11.45-81.75,75.497-82.772,102.795  c-0.252,6.739,5.157,12.327,11.901,12.327h70.871V389.378z"/>
<path style="opacity:0.1;enable-background:new    ;" d="M110.67,391.617C81.085,420.575,62.112,460.323,60.122,504.5h61.309  V389.378C117.672,389.979,114.098,390.739,110.67,391.617z"/>
<path style="fill:#F6CDB5;" d="M368.205,389.378c71.617,11.45,81.75,75.497,82.772,102.795c0.252,6.739-5.157,12.327-11.901,12.327  h-70.871V389.378z"/>
<path style="opacity:0.1;enable-background:new    ;" d="M378.967,391.617c29.584,28.957,48.557,68.706,50.547,112.883h-61.309  V389.378C371.965,389.979,375.539,390.739,378.967,391.617z"/>
<path style="fill:#394049;" d="M413.581,504.5c0-93.205-75.558-168.763-168.763-168.763S76.055,411.295,76.055,504.5H413.581z"/>
<path style="fill:#F6D83E;" d="M298.825,476.94l-26.428-7.79c-1.937-0.571-3.618-1.793-4.76-3.459l-15.576-22.727  c-3.488-5.089-10.998-5.089-14.486,0l-15.576,22.727c-1.142,1.666-2.823,2.888-4.76,3.459l-26.428,7.79  c-5.918,1.745-8.239,8.887-4.476,13.777l10.605,13.783h95.756l10.605-13.783C307.063,485.828,304.742,478.685,298.825,476.94z"/>
<path style="opacity:0.1;enable-background:new    ;" d="M244.818,335.737c-48.901,0-92.936,20.807-123.758,54.04  c33.859,27.272,76.897,43.607,123.758,43.607c46.86,0,89.899-16.335,123.757-43.607  C337.754,356.543,293.719,335.737,244.818,335.737z"/>
<path style="fill:#F6CDB5;" d="M14.163,199.475c0-25.382,20.577-45.959,45.959-45.959c25.383,0,45.959,20.577,45.959,45.959v28.679  c0,25.382-20.577,45.959-45.959,45.959s-45.959-20.577-45.959-45.959C14.163,228.154,14.163,199.475,14.163,199.475z"/>
<path style="opacity:0.07;enable-background:new    ;" d="M60.122,153.516c-5.469,0-10.712,0.96-15.577,2.712  c-6.388,19.422-9.856,40.17-9.856,61.73v48.474c7.284,4.849,16.026,7.68,25.432,7.68c25.383,0,45.959-20.577,45.959-45.959v-28.679  C106.082,174.093,85.505,153.516,60.122,153.516z"/>
<path style="fill:#F6CDB5;" d="M475.473,199.475c0-25.382-20.577-45.959-45.959-45.959c-25.383,0-45.959,20.577-45.959,45.959  v28.679c0,25.382,20.577,45.959,45.959,45.959s45.959-20.577,45.959-45.959V199.475z"/>
<path style="opacity:0.07;enable-background:new    ;" d="M429.514,153.516c5.469,0,10.712,0.96,15.577,2.712  c6.387,19.422,9.856,40.17,9.856,61.73v48.474c-7.284,4.849-16.026,7.68-25.432,7.68c-25.383,0-45.959-20.577-45.959-45.959v-28.679  C383.555,174.093,404.132,153.516,429.514,153.516z"/>
<circle style="fill:#F6CDB5;" cx="244.819" cy="204.95" r="197.45"/>
<path style="fill:#EC8087;" d="M244.818,113.565c0.008,104.397,84.641,189.024,189.039,189.024l0,0c4.645,0,8.41-3.766,8.41-8.411  V204.95c0-109.049-88.401-197.45-197.45-197.45S47.367,95.901,47.367,204.95v89.229c0,4.645,3.766,8.411,8.41,8.411l0,0  C160.178,302.59,244.81,217.962,244.818,113.565z"/>
<g style="opacity:0.1;">
	<path d="M128.822,248.923c-2.252,0-4.479-1.01-5.955-2.934c-2.521-3.286-1.902-7.994,1.384-10.516   c16.095-12.351,49.587-38.05,49.587-120.448c0-4.142,3.358-7.5,7.5-7.5s7.5,3.358,7.5,7.5c0,37.497-6.65,68.557-19.766,92.317   c-10.641,19.278-23.442,30.633-35.689,40.031C132.021,248.417,130.415,248.923,128.822,248.923z"/>
	<path d="M93.044,211.787c-2.154,0-4.291-0.922-5.774-2.709c-2.646-3.187-2.207-7.915,0.98-10.561   c12.677-10.525,29.676-37.818,27.251-59.637c-0.458-4.117,2.509-7.825,6.626-8.282c4.118-0.458,7.825,2.509,8.282,6.626   c2.877,25.893-14.67,57.966-32.578,72.835C96.43,211.22,94.732,211.787,93.044,211.787z"/>
	<path d="M183.851,87.836c-4.142,0-7.5-3.358-7.5-7.5v-22.5c0-4.142,3.358-7.5,7.5-7.5s7.5,3.358,7.5,7.5v22.501   C191.351,84.479,187.993,87.836,183.851,87.836z"/>
	<path d="M354.621,248.923c-1.593,0-3.198-0.505-4.56-1.55c-12.248-9.398-25.049-20.753-35.69-40.031   c-13.115-23.76-19.766-54.82-19.766-92.317V84.713c0-4.142,3.358-7.5,7.5-7.5c4.143,0,7.5,3.358,7.5,7.5v30.312   c0,82.397,33.492,108.097,49.587,120.448c3.286,2.522,3.906,7.23,1.385,10.516C359.1,247.913,356.873,248.923,354.621,248.923z"/>
	<path d="M409.589,226.155c-1.185,0-2.386-0.281-3.505-0.874c-40.203-21.308-48.068-48.119-48.068-87.229c0-4.142,3.357-7.5,7.5-7.5   s7.5,3.358,7.5,7.5c0,35.725,5.999,55.906,40.092,73.975c3.66,1.94,5.055,6.48,3.115,10.139   C414.876,224.706,412.277,226.155,409.589,226.155z"/>
	<path d="M362.725,110.714c-4.143,0-7.5-3.358-7.5-7.5V89.248c0-4.142,3.357-7.5,7.5-7.5s7.5,3.358,7.5,7.5v13.966   C370.225,107.356,366.868,110.714,362.725,110.714z"/>
</g>
<path d="M475.473,165.063c-1.634,0-3.235,0.137-4.798,0.391c-7.329-8.863-17.466-15.376-29.147-18.063  C416.592,62.313,337.851,0,244.818,0C151.786,0,73.045,62.313,48.109,147.39c-23.949,5.509-41.445,27.075-41.445,52.086v28.679  c0,21.747,13.402,41.326,33.205,49.458v16.566c0,8.773,7.138,15.911,15.911,15.911c3.022,0,6.028-0.074,9.017-0.21v98.126  c-6.901,6.584-12.839,14.31-17.776,23.178c-12.035,21.613-15.265,44.943-15.855,60.709c-0.199,5.306,1.722,10.335,5.408,14.161  c3.693,3.835,8.661,5.946,13.988,5.946h388.516c5.327,0,10.295-2.112,13.988-5.946c3.686-3.826,5.607-8.855,5.408-14.161  c-0.591-15.766-3.821-39.096-15.855-60.708c-4.938-8.868-10.875-16.594-17.776-23.178V309.88c2.99,0.136,5.995,0.21,9.018,0.21  c8.772,0,15.91-7.138,15.91-15.911v-16.567c19.803-8.133,33.205-27.711,33.205-49.458v-4.324  c12.847-3.335,22.361-15.03,22.361-28.906C505.335,178.458,491.939,165.063,475.473,165.063z M39.868,204.95v55.874  c-11.066-6.9-18.205-19.207-18.205-32.669v-28.679c0-15.216,9.002-28.651,22.195-34.834  C41.247,177.679,39.868,191.156,39.868,204.95z M50.56,497c-1.213,0-2.345-0.48-3.185-1.353c-0.482-0.5-1.281-1.581-1.221-3.193  c0.433-11.565,2.824-33.954,13.971-53.973c9.341-16.774,23.009-28.739,40.74-35.799C81.409,430.094,70.164,462.659,68.729,497H50.56  z M244.818,394.9c-64.626,0-124.774-33.072-159.63-87.011c76.547-11.534,138.774-67.373,159.63-140.486  c20.856,73.113,83.084,128.952,159.631,140.486C369.593,361.828,309.445,394.9,244.818,394.9z M409.841,326.481v69.946  c-10.939-6.759-23.584-11.444-37.883-14.014c-3.146-3.265-6.419-6.432-9.837-9.475C380.284,360.266,396.452,344.624,409.841,326.481  z M127.516,372.939c-3.418,3.043-6.691,6.21-9.837,9.475c-14.299,2.57-26.944,7.254-37.883,14.014v-69.947  C93.185,344.624,109.353,360.266,127.516,372.939z M83.726,497c2.052-44.922,22.495-86.469,56.946-115.609  c31.061,18.336,66.915,28.509,104.146,28.509s73.086-10.173,104.147-28.509c34.452,29.14,54.894,70.687,56.946,115.609H83.726z   M429.511,438.481c11.147,20.018,13.538,42.408,13.971,53.972c0.061,1.613-0.739,2.693-1.221,3.193  c-0.841,0.872-1.972,1.353-3.186,1.353h-18.168c-1.435-34.341-12.68-66.906-32.136-94.318  C406.502,409.742,420.171,421.708,429.511,438.481z M434.768,294.179c0,0.502-0.409,0.911-0.911,0.911  c-100.093,0-181.531-81.432-181.539-181.525c-0.001-4.142-3.358-7.5-7.5-7.5s-7.499,3.357-7.5,7.5  C237.311,213.658,155.872,295.09,55.779,295.09c-0.502,0-0.911-0.409-0.911-0.911V204.95C54.868,100.211,140.079,15,244.818,15  s189.95,85.211,189.95,189.95L434.768,294.179L434.768,294.179z M445.779,164.642c3.949,1.851,7.521,4.349,10.59,7.353  c-3.306,2.759-6.007,6.217-7.876,10.146C447.835,176.23,446.93,170.392,445.779,164.642z M467.973,228.154  c0,13.463-7.139,25.769-18.205,32.669V204.95c0-1.117-0.025-2.228-0.042-3.34c1.018,0.517,2.166,0.814,3.386,0.814  c4.143,0,7.5-3.358,7.5-7.5c0-4.065,1.643-7.751,4.297-10.437c1.972,4.629,3.064,9.701,3.064,14.989V228.154z M482.973,207.732  v-8.256c0-6.597-1.221-12.952-3.453-18.839c6.231,1.768,10.814,7.497,10.814,14.287  C490.335,200.381,487.369,205.148,482.973,207.732z M269.384,236.574c-3.329-2.469-8.023-1.771-10.492,1.555  c-3.357,4.525-8.487,7.121-14.073,7.121s-10.716-2.595-14.073-7.121c-2.468-3.327-7.165-4.023-10.492-1.555  c-3.327,2.468-4.023,7.165-1.555,10.492c6.124,8.255,15.889,13.184,26.12,13.184c10.232,0,19.996-4.929,26.12-13.184  C273.406,243.739,272.71,239.042,269.384,236.574z"/>
<g>
</g>
<g>
</g>
<g>
</g>
<g>
</g>
<g>
</g>
<g>
</g>
<g>
</g>
<g>
</g>
<g>
</g>
<g>
</g>
<g>
</g>
<g>
</g>
<g>
</g>
<g>
</g>
<g>
</g>
</svg>
