<?xml version="1.0" encoding="iso-8859-1"?>
<!-- Generator: Adobe Illustrator 19.0.0, SVG Export Plug-In . SVG Version: 6.00 Build 0)  -->
<svg xmlns="http://www.w3.org/2000/svg" xmlns:xlink="http://www.w3.org/1999/xlink" version="1.1" id="Layer_1" x="0px" y="0px" viewBox="0 0 512.001 512.001" style="enable-background:new 0 0 512.001 512.001;" xml:space="preserve">
<circle style="fill:#F6CDB5;" cx="109.87" cy="227.7" r="31.773"/>
<circle style="opacity:0.15;fill:#EC8087;enable-background:new    ;" cx="109.87" cy="227.7" r="31.773"/>
<path style="opacity:0.07;enable-background:new    ;" d="M109.875,195.924c-3.784,0-7.412,0.665-10.778,1.878  c-0.002,0.3-0.011,0.598-0.011,0.899v58.887c3.369,1.216,7.001,1.882,10.79,1.882c17.548,0,31.773-14.225,31.773-31.773  C141.648,210.149,127.423,195.924,109.875,195.924z"/>
<circle style="fill:#F6CDB5;" cx="402.12" cy="227.7" r="31.773"/>
<circle style="opacity:0.15;fill:#EC8087;enable-background:new    ;" cx="402.12" cy="227.7" r="31.773"/>
<path style="opacity:0.07;enable-background:new    ;" d="M402.124,195.924c3.784,0,7.413,0.665,10.778,1.878  c0.002,0.3,0.011,0.598,0.011,0.899v58.887c-3.369,1.216-7.001,1.882-10.79,1.882c-17.548,0-31.773-14.225-31.773-31.773  C370.351,210.149,384.576,195.924,402.124,195.924z"/>
<path style="fill:#F6D83E;" d="M138.955,395.295c-67.936,10.862-77.549,71.617-78.518,97.512  C60.198,499.2,65.329,504.5,71.726,504.5h67.229V395.295z"/>
<path style="opacity:0.08;enable-background:new    ;" d="M128.745,397.419c-28.064,27.469-46.062,65.175-47.949,107.081h58.159  V395.295C135.388,395.865,131.998,396.586,128.745,397.419z"/>
<path style="fill:#F6D83E;" d="M373.045,395.295c67.936,10.862,77.549,71.617,78.518,97.512c0.239,6.393-4.892,11.693-11.289,11.693  h-67.229V395.295z"/>
<path style="opacity:0.08;enable-background:new    ;" d="M383.254,397.419c28.064,27.469,46.062,65.175,47.949,107.081h-58.159  V395.295C376.611,395.865,380.002,396.586,383.254,397.419z"/>
<path style="fill:#4EBF8C;" d="M416.09,504.5c0-88.415-71.675-160.09-160.09-160.09S95.91,416.085,95.91,504.5H416.09z"/>
<path style="fill:#FFFFFF;" d="M141.648,392.478V504.5h52.911V356.634C174.544,364.96,156.586,377.232,141.648,392.478z"/>
<path style="opacity:0.1;enable-background:new    ;" d="M194.56,487.62h-52.911c-4.142,0-7.5-3.358-7.5-7.5V448.8  c0-4.142,3.358-7.5,7.5-7.5h52.911c4.142,0,7.5,3.358,7.5,7.5v31.319C202.06,484.262,198.702,487.62,194.56,487.62z M149.149,472.62  h37.911V456.3h-37.911V472.62z"/>
<path style="fill:#FFFFFF;" d="M317.44,356.634V504.5h52.911V392.478C355.414,377.232,337.456,364.96,317.44,356.634z"/>
<path style="opacity:0.1;enable-background:new    ;" d="M256,344.41c-40.873,0-78.162,15.326-106.453,40.534  c26.776,28.106,64.569,45.622,106.452,45.622l0,0c41.884,0,79.676-17.516,106.452-45.622C334.161,359.736,296.873,344.41,256,344.41  z"/>
<path style="fill:#F6CDB5;" d="M256,51.694L256,51.694c-81.19,0-147.007,65.817-147.007,147.007v61.393  c0,81.189,65.817,147.007,147.007,147.007l0,0c81.19,0,147.007-65.817,147.007-147.007v-61.393  C403.006,117.512,337.189,51.694,256,51.694z"/>
<g>
	<path style="fill:#EC8087;" d="M188.627,261.244h-32.105c-4.142,0-7.5-3.358-7.5-7.5s3.358-7.5,7.5-7.5h32.105   c4.142,0,7.5,3.358,7.5,7.5S192.769,261.244,188.627,261.244z"/>
	<path style="fill:#EC8087;" d="M355.477,261.244h-32.104c-4.142,0-7.5-3.358-7.5-7.5s3.358-7.5,7.5-7.5h32.104   c4.142,0,7.5,3.358,7.5,7.5S359.619,261.244,355.477,261.244z"/>
</g>
<path style="opacity:0.1;enable-background:new    ;" d="M370.351,487.62H317.44c-4.142,0-7.5-3.358-7.5-7.5V448.8  c0-4.142,3.358-7.5,7.5-7.5h52.911c4.142,0,7.5,3.358,7.5,7.5v31.319C377.851,484.262,374.493,487.62,370.351,487.62z   M324.94,472.62h37.911V456.3H324.94V472.62z"/>
<path style="fill:#8D6A59;" d="M359.398,36.359l-23.037-25.79c-3.656-4.092-10.059-4.092-13.715,0l-23.037,25.79  c-3.656,4.092-10.059,4.092-13.714,0l-23.037-25.79c-3.655-4.092-10.059-4.092-13.714,0l-23.037,25.79  c-3.656,4.092-10.059,4.092-13.714,0l-23.037-25.79c-3.656-4.092-10.059-4.092-13.714,0l-23.037,25.79  c-3.656,4.092-10.059,4.092-13.714,0L116.38,11.163c-2.577-2.885-7.353-1.049-7.334,2.819l0.829,168.609  c19.993-67.573,97.021-85.533,133.784-41.864c6.428,7.636,18.245,7.636,24.673,0c36.763-43.67,113.791-25.71,133.784,41.864  l0.836-168.608c0.019-3.868-4.757-5.704-7.334-2.819L373.111,36.36C369.456,40.451,363.053,40.451,359.398,36.359z"/>
<path d="M319.069,226.29c4.142,0,7.5-3.358,7.5-7.5c0-7.085,5.765-12.85,12.85-12.85s12.85,5.765,12.85,12.85  c0,4.142,3.358,7.5,7.5,7.5s7.5-3.358,7.5-7.5c0-15.356-12.494-27.85-27.85-27.85c-15.356,0-27.85,12.494-27.85,27.85  C311.569,222.932,314.927,226.29,319.069,226.29z M443.969,434.765c-14.106-25.332-36.719-40.945-67.231-46.444  c-5.005-5.212-10.365-10.123-16.063-14.69c29.247-26.986,48.075-65.094,49.704-107.54c17.704-3.803,31.019-19.569,31.019-38.393  c0-18.916-13.444-34.75-31.279-38.453c-0.203-3.207-0.424-5.995-0.501-6.943l0.835-168.282c0.023-4.908-2.921-9.217-7.502-10.979  c-4.581-1.76-9.655-0.534-12.925,3.127L367.52,31.364c-0.417,0.468-0.918,0.566-1.264,0.566s-0.846-0.098-1.264-0.566L341.954,5.573  C338.79,2.031,334.253,0,329.504,0c-0.001,0-0.001,0-0.001,0c-4.749,0-9.287,2.031-12.451,5.573l-23.037,25.79  c-0.418,0.468-0.918,0.566-1.264,0.566s-0.847-0.098-1.264-0.566L268.45,5.573C265.287,2.032,260.749,0.001,256,0l0,0  c-4.749,0-9.287,2.031-12.451,5.573l-23.037,25.79c-0.417,0.468-0.918,0.566-1.264,0.566c-0.346,0-0.846-0.098-1.264-0.566  l-23.037-25.79C191.783,2.031,187.245,0,182.496,0s-9.287,2.031-12.451,5.573l-23.037,25.79c-0.418,0.468-0.918,0.566-1.264,0.566  c-0.346,0-0.847-0.098-1.264-0.566L121.973,6.166c-3.271-3.661-8.344-4.888-12.924-3.126c-4.581,1.761-7.526,6.07-7.503,10.979  l0.827,168.24c-0.247,2.331-0.437,4.669-0.58,7.006c-17.791,3.737-31.191,19.547-31.191,38.433c0,18.824,13.314,34.59,31.018,38.393  c1.628,42.447,20.456,80.555,49.704,107.541c-5.699,4.567-11.059,9.478-16.063,14.69c-30.512,5.499-53.125,21.113-67.23,46.444  c-11.454,20.569-14.527,42.764-15.088,57.761c-0.193,5.139,1.667,10.01,5.236,13.715c3.577,3.714,8.388,5.759,13.547,5.759h368.549  c5.159,0,9.97-2.045,13.547-5.759c3.569-3.706,5.429-8.576,5.237-13.715C458.497,477.529,455.423,455.333,443.969,434.765z   M410.507,204.917c9.266,3.42,15.892,12.341,15.892,22.78c0,10.44-6.625,19.36-15.892,22.78V204.917z M101.493,250.477  c-9.266-3.42-15.891-12.34-15.891-22.78c0-10.439,6.625-19.359,15.891-22.78V250.477z M71.725,497c-1.411,0-2.324-0.73-2.744-1.165  c-0.414-0.431-1.102-1.36-1.05-2.748c0.41-10.936,2.669-32.106,13.204-51.025c8.637-15.509,21.197-26.663,37.443-33.378  c-17.951,25.781-28.54,56.375-29.98,88.316H71.725z M134.149,497h-30.553c1.522-30.729,12.355-60.065,30.553-84.27V497z   M133.294,41.355c3.164,3.542,7.702,5.573,12.451,5.573c4.749,0,9.287-2.031,12.45-5.573l23.037-25.79  C181.65,15.098,182.15,15,182.496,15c0.346,0,0.846,0.098,1.264,0.566l23.037,25.79c3.163,3.542,7.702,5.573,12.45,5.573  c4.749,0,9.287-2.031,12.451-5.573l23.037-25.79C255.153,15.098,255.654,15,256,15c0.346,0,0.846,0.098,1.264,0.566l23.038,25.79  c3.163,3.542,7.702,5.573,12.451,5.573c4.748,0,9.287-2.031,12.45-5.573l23.037-25.79c0.418-0.468,0.918-0.566,1.264-0.566  s0.846,0.098,1.264,0.566l23.038,25.79c3.164,3.542,7.702,5.573,12.45,5.573c4.749,0,9.287-2.031,12.451-5.573l16.705-18.701  l-0.632,127.369c-13.809-19.884-34.037-33.927-57.2-38.768c-5.833-1.219-11.628-1.816-17.317-1.816  c-22.477,0-43.245,9.328-57.666,26.458c-1.636,1.943-4.042,3.058-6.6,3.058c-2.558-0.001-4.963-1.115-6.599-3.057  c-18.071-21.466-46.104-30.678-74.983-24.642c-23.164,4.841-43.39,18.882-57.199,38.766L116.59,22.656L133.294,41.355z   M116.493,260.094v-61.393c0-4.825,0.265-9.74,0.774-14.622c9.237-30.467,31.7-52.182,60.215-58.141  c23.388-4.889,45.982,2.446,60.44,19.62c4.492,5.336,11.08,8.396,18.073,8.397h0.001c6.994,0,13.582-3.061,18.075-8.397  c14.457-17.173,37.05-24.509,60.439-19.62c28.498,5.956,50.951,27.648,60.198,58.086c0.201,2.533,0.799,10.417,0.799,14.677v61.393  c0,76.924-62.583,139.506-139.507,139.506S116.493,337.019,116.493,260.094z M187.06,497h-37.911v-16.085h37.911V497z   M187.06,465.915h-37.911v-16.319h37.911V465.915z M187.06,434.596h-37.911v-38.988c4.375-4.303,9.026-8.362,13.943-12.144  c7.49,5.654,15.51,10.639,23.968,14.875V434.596z M309.94,497H202.06v-92.121c16.801,6.28,34.975,9.722,53.94,9.722  s37.139-3.442,53.94-9.722V497z M362.851,497H324.94v-16.085h37.911V497z M362.851,465.915H324.94v-16.319h37.911V465.915z   M362.851,434.596H324.94v-36.258c8.459-4.235,16.478-9.22,23.968-14.874c4.917,3.782,9.568,7.841,13.943,12.144L362.851,434.596  L362.851,434.596z M377.851,497v-84.269c18.198,24.204,29.031,53.54,30.553,84.269H377.851z M443.018,495.835  c-0.419,0.435-1.333,1.165-2.744,1.165h-16.872c-1.44-31.941-12.029-62.535-29.981-88.317c16.246,6.715,28.807,17.869,37.443,33.379  c10.536,18.919,12.795,40.09,13.204,51.025C444.12,494.475,443.432,495.404,443.018,495.835z M159.73,218.79  c0-7.085,5.765-12.85,12.85-12.85s12.85,5.765,12.85,12.85c0,4.142,3.358,7.5,7.5,7.5s7.5-3.358,7.5-7.5  c0-15.356-12.494-27.85-27.85-27.85s-27.85,12.494-27.85,27.85c0,4.142,3.358,7.5,7.5,7.5S159.73,222.932,159.73,218.79z M256,263.6  c9.101,0,17.786-4.383,23.232-11.725c2.468-3.327,1.772-8.024-1.555-10.492c-3.326-2.468-8.024-1.772-10.492,1.555  c-2.669,3.598-6.746,5.661-11.185,5.661s-8.516-2.063-11.185-5.661c-2.468-3.327-7.165-4.024-10.492-1.555  c-3.327,2.468-4.023,7.165-1.555,10.492C238.214,259.217,246.899,263.6,256,263.6z"/>
<g>
</g>
<g>
</g>
<g>
</g>
<g>
</g>
<g>
</g>
<g>
</g>
<g>
</g>
<g>
</g>
<g>
</g>
<g>
</g>
<g>
</g>
<g>
</g>
<g>
</g>
<g>
</g>
<g>
</g>
</svg>
