<?xml version="1.0" encoding="iso-8859-1"?>
<!-- Generator: Adobe Illustrator 19.0.0, SVG Export Plug-In . SVG Version: 6.00 Build 0)  -->
<svg xmlns="http://www.w3.org/2000/svg" xmlns:xlink="http://www.w3.org/1999/xlink" version="1.1" id="Layer_1" x="0px" y="0px" viewBox="0 0 512.001 512.001" style="enable-background:new 0 0 512.001 512.001;" xml:space="preserve">
<path style="fill:#4DB1E0;" d="M142.831,398.911c-65.686,10.502-74.98,69.245-75.918,94.282c-0.231,6.181,4.73,11.306,10.915,11.306  h65.003V398.911z"/>
<path style="opacity:0.1;enable-background:new    ;" d="M132.96,400.965c-27.134,26.56-44.536,63.016-46.361,103.535h56.232  V398.911C139.383,399.463,136.105,400.159,132.96,400.965z"/>
<path style="fill:#4DB1E0;" d="M369.169,398.911c65.686,10.502,74.98,69.245,75.918,94.282c0.231,6.181-4.73,11.306-10.915,11.306  h-65.003V398.911z"/>
<path style="opacity:0.1;enable-background:new    ;" d="M379.04,400.965c27.135,26.56,44.536,63.016,46.361,103.535h-56.232  V398.911C372.617,399.463,375.895,400.159,379.04,400.965z"/>
<path style="fill:#F6D83E;" d="M410.788,504.5c0-85.487-69.301-154.788-154.788-154.788S101.212,419.013,101.212,504.5H410.788z"/>
<path style="fill:#EC8087;" d="M117.054,479.231c-5.56,0-10.641,2.023-14.571,5.36c-0.837,6.518-1.271,13.163-1.271,19.909h38.2  c0.108-0.896,0.181-1.804,0.181-2.73C139.593,489.322,129.502,479.231,117.054,479.231z M203.1,440.357  c-12.448,0-22.539,10.091-22.539,22.539s10.091,22.539,22.539,22.539s22.539-10.091,22.539-22.539S215.548,440.357,203.1,440.357z   M150.573,391.181c-10.855,10.103-20.254,21.745-27.854,34.582c4.13,4.67,10.149,7.632,16.874,7.632  c12.448,0,22.539-10.091,22.539-22.539C162.132,402.396,157.466,395.036,150.573,391.181z M388.208,423.963  c-10.122,2.215-17.703,11.22-17.703,22.006c0,12.448,10.091,22.539,22.539,22.539c4.652,0,8.974-1.411,12.564-3.827  C401.753,450.16,395.847,436.476,388.208,423.963z M311.509,417.031c0-12.448-10.091-22.539-22.539-22.539  s-22.539,10.091-22.539,22.539s10.091,22.539,22.539,22.539S311.509,429.479,311.509,417.031z M325.98,470.809  c-12.448,0-22.539,10.091-22.539,22.539c0,4.061,1.089,7.861,2.969,11.152h39.14c1.88-3.291,2.969-7.091,2.969-11.152  C348.519,480.899,338.428,470.809,325.98,470.809z"/>
<path style="opacity:0.1;enable-background:new    ;" d="M256,349.712c-44.851,0-85.239,19.083-113.509,49.565  C173.546,424.29,213.02,439.273,256,439.273s82.454-14.982,113.509-39.996C341.239,368.795,300.852,349.712,256,349.712z"/>
<circle style="fill:#F6CDB5;" cx="74.901" cy="229.76" r="42.15"/>
<circle style="opacity:0.15;fill:#EC8087;enable-background:new    ;" cx="74.901" cy="229.76" r="42.15"/>
<path style="opacity:0.07;enable-background:new    ;" d="M74.901,187.603c-3.445,0-6.79,0.423-9.994,1.202  c-3.042,13.159-4.65,26.867-4.65,40.951s1.608,27.792,4.65,40.951c3.205,0.78,6.549,1.202,9.994,1.202  c23.28,0,42.153-18.873,42.153-42.153S98.181,187.603,74.901,187.603z"/>
<circle style="fill:#F6CDB5;" cx="437.1" cy="229.76" r="42.15"/>
<circle style="opacity:0.15;fill:#EC8087;enable-background:new    ;" cx="437.1" cy="229.76" r="42.15"/>
<path style="opacity:0.07;enable-background:new    ;" d="M437.099,187.603c3.445,0,6.789,0.423,9.994,1.202  c3.042,13.159,4.65,26.867,4.65,40.951s-1.608,27.792-4.65,40.951c-3.205,0.78-6.549,1.202-9.994,1.202  c-23.281,0-42.153-18.873-42.153-42.153S413.819,187.603,437.099,187.603z"/>
<circle style="fill:#F6CDB5;" cx="256" cy="229.76" r="181.1"/>
<path style="opacity:0.07;enable-background:new    ;" d="M313.499,57.982c-12.559,4.814-26.013,7.364-39.743,7.364H256  l-45.13,28.438v16.689c0.46,24.048,20.098,43.401,44.256,43.401h22.313c42.821,0,79.949-24.363,98.287-59.982  C357.784,78.069,336.69,65.741,313.499,57.982z"/>
<path style="fill:#4DB1E0;" d="M273.756,48.657H256c-24.82,0-45.604,20.312-45.13,45.127c0.46,24.048,20.098,43.401,44.256,43.401  h22.313c61.016,0,110.479-49.463,110.479-110.479l0,0c0-17.386-21.276-25.803-33.171-13.123l0,0  C333.755,35.961,304.439,48.657,273.756,48.657z"/>
<g>
	<path style="fill:#EC8087;" d="M160.977,250.884h-29.563c-4.142,0-7.5-3.358-7.5-7.5s3.358-7.5,7.5-7.5h29.563   c4.142,0,7.5,3.358,7.5,7.5S165.119,250.884,160.977,250.884z"/>
	<path style="fill:#EC8087;" d="M380.579,250.884h-29.563c-4.142,0-7.5-3.358-7.5-7.5s3.358-7.5,7.5-7.5h29.563   c4.142,0,7.5,3.358,7.5,7.5S384.721,250.884,380.579,250.884z"/>
</g>
<g style="opacity:0.1;">
	<path d="M261.104,82.345c-4.142,0-7.5-3.358-7.5-7.5s3.358-7.5,7.5-7.5c15.561,0,38.117-0.882,54.283-8.512   c3.745-1.767,8.215-0.165,9.984,3.582c1.768,3.746,0.164,8.216-3.582,9.984C303.109,81.214,279.545,82.345,261.104,82.345z"/>
	<path d="M318.584,106.142c-3.276,0-6.286-2.163-7.216-5.471c-1.122-3.988,1.202-8.13,5.189-9.251   c7.397-2.081,23.579-11.312,31.875-31.362c1.585-3.828,5.971-5.646,9.798-4.063c3.828,1.584,5.646,5.971,4.063,9.798   c-9.17,22.16-27.538,36.09-41.674,40.066C319.939,106.051,319.256,106.142,318.584,106.142z"/>
	<path d="M271.942,109.84h-21.405c-4.142,0-7.5-3.358-7.5-7.5s3.358-7.5,7.5-7.5h21.405c4.142,0,7.5,3.358,7.5,7.5   C279.442,106.482,276.084,109.84,271.942,109.84z"/>
</g>
<path d="M437.959,279.387c26.983-0.462,48.794-22.541,48.794-49.631c0-27.078-21.79-49.148-48.755-49.631  c-9.765-35.998-30.095-68.47-59.051-93.359c10.456-17.605,16.471-38.142,16.471-60.061c0-11.018-6.62-20.757-16.866-24.81  c-10.247-4.055-21.737-1.48-29.275,6.556c-19.497,20.785-47.023,32.706-75.52,32.706H256c-86.821,0-160.116,58.976-181.959,138.968  c-26.983,0.462-48.794,22.541-48.794,49.632c0,27.09,21.811,49.169,48.794,49.631c11.682,42.78,38.075,79.549,73.392,104.499  c-2.89,2.597-5.671,5.287-8.347,8.059c-29.513,5.352-51.39,20.482-65.047,45.008c-11.099,19.931-14.077,41.432-14.62,55.96  c-0.188,5.037,1.634,9.81,5.132,13.442c3.506,3.64,8.221,5.645,13.278,5.645h356.342c5.056,0,9.771-2.004,13.278-5.645  c3.498-3.632,5.321-8.405,5.133-13.442c-0.544-14.528-3.522-36.03-14.62-55.961c-13.657-24.526-35.534-39.656-65.047-45.008  c-2.676-2.771-5.457-5.461-8.347-8.059C399.884,358.936,426.277,322.168,437.959,279.387z M441.462,195.387  c17.054,2.154,30.29,16.74,30.29,34.369c0,17.633-13.242,32.221-30.302,34.37c2.061-11.148,3.149-22.634,3.149-34.37  C444.599,218.101,443.523,206.61,441.462,195.387z M70.549,264.126c-17.06-2.148-30.302-16.737-30.302-34.37  s13.242-32.222,30.302-34.37c-2.061,11.148-3.149,22.634-3.149,34.37C67.401,241.492,68.488,252.978,70.549,264.126z M228.88,67.593  c7.131-7.268,17.016-11.436,27.12-11.436h17.756c32.626,0,64.139-13.647,86.461-37.443c5.041-5.374,11.085-3.555,12.816-2.87  c1.732,0.685,7.384,3.494,7.384,10.862c0,56.782-46.196,102.979-102.979,102.979h-22.313c-19.888,0-36.377-16.169-36.757-36.044  C218.184,83.941,221.917,74.691,228.88,67.593z M77.829,497c-1.272,0-2.096-0.658-2.474-1.051c-0.373-0.388-0.993-1.225-0.946-2.475  c0.395-10.551,2.575-30.976,12.736-49.224c8.153-14.642,19.93-25.266,35.129-31.777C105.206,437.191,95.291,466.311,93.898,497  H77.829z M424.856,444.251c10.161,18.248,12.341,38.672,12.736,49.224c0.047,1.25-0.573,2.086-0.946,2.474  c-0.378,0.392-1.202,1.051-2.474,1.051h-16.069c-1.393-30.688-11.309-59.808-28.375-84.526  C404.926,418.985,416.703,429.608,424.856,444.251z M403.1,497H108.9c2.033-40.632,20.547-78.189,51.642-104.648  c28.019,16.513,60.649,26.004,95.459,26.004s67.44-9.491,95.459-26.004C382.553,418.811,401.068,456.368,403.1,497z M256,403.355  c-95.722,0-173.599-77.876-173.599-173.599c0-81.445,56.383-149.959,132.162-168.588c-7.475,9.355-11.42,20.8-11.191,32.76  c0.26,13.616,5.76,26.374,15.484,35.926c9.738,9.564,22.619,14.831,36.27,14.831h22.313c37.729,0,71.375-17.804,92.986-45.448  c37.697,33.028,59.174,80.156,59.174,130.52C429.599,325.479,351.723,403.355,256,403.355z M365.804,183.488  c-4.142,0-7.5,3.358-7.5,7.5v21.993c0,4.142,3.358,7.5,7.5,7.5s7.5-3.358,7.5-7.5v-21.993  C373.305,186.846,369.947,183.488,365.804,183.488z M146.196,183.488c-4.142,0-7.5,3.358-7.5,7.5v21.993c0,4.142,3.358,7.5,7.5,7.5  s7.5-3.358,7.5-7.5v-21.993C153.696,186.846,150.338,183.488,146.196,183.488z M278.901,228.048  c-3.326-2.468-8.024-1.772-10.492,1.555c-2.961,3.991-7.484,6.28-12.409,6.28c-4.925,0-9.448-2.289-12.409-6.28  c-2.468-3.327-7.165-4.024-10.492-1.555c-3.327,2.468-4.023,7.165-1.555,10.492c5.733,7.729,14.876,12.343,24.456,12.343  c9.58,0,18.723-4.614,24.456-12.343C282.924,235.214,282.228,230.516,278.901,228.048z"/>
<g>
</g>
<g>
</g>
<g>
</g>
<g>
</g>
<g>
</g>
<g>
</g>
<g>
</g>
<g>
</g>
<g>
</g>
<g>
</g>
<g>
</g>
<g>
</g>
<g>
</g>
<g>
</g>
<g>
</g>
</svg>
