<svg width="41" height="41" viewBox="0 0 41 41" fill="none" xmlns="http://www.w3.org/2000/svg">
<path d="M20.5 0.800781C31.0967 0.800781 40.1992 9.90326 40.1992 20.5C40.1992 31.0967 31.0967 40.1992 20.5 40.1992C9.90326 40.1992 0.800781 31.0967 0.800781 20.5C0.800781 9.90326 9.90326 0.800781 20.5 0.800781Z" fill="#F59377"/>
<path d="M20.5 35.3945C12.5655 35.3945 5.60547 28.4345 5.60547 20.5C5.60547 12.5655 12.5655 5.60547 20.5 5.60547C28.4345 5.60547 35.3945 12.5655 35.3945 20.5C35.3945 28.4345 28.4345 35.3945 20.5 35.3945Z" fill="#FFCF32"/>
<path d="M16.4961 17.2969C16.4961 19.5046 18.2922 21.3008 20.5 21.3008C21.8247 21.3008 22.9023 22.3785 22.9023 23.7031C22.9023 25.0278 21.8247 26.1055 20.5 26.1055C19.1753 26.1055 18.0977 25.0278 18.0977 23.7031C18.0977 23.2609 17.7391 22.9023 17.2969 22.9023C16.8546 22.9023 16.4961 23.2609 16.4961 23.7031C16.4961 25.6367 17.8738 27.2544 19.6992 27.6265V29.3086C19.6992 29.7509 20.0578 30.1094 20.5 30.1094C20.9422 30.1094 21.3008 29.7509 21.3008 29.3086V27.6265C23.1262 27.2544 24.5039 25.6368 24.5039 23.7031C24.5039 21.4954 22.7078 19.6992 20.5 19.6992C19.1753 19.6992 18.0977 18.6215 18.0977 17.2969C18.0977 15.9722 19.1753 14.8945 20.5 14.8945C21.8247 14.8945 22.9023 15.9722 22.9023 17.2969C22.9023 17.7391 23.2609 18.0977 23.7031 18.0977C24.1453 18.0977 24.5039 17.7391 24.5039 17.2969C24.5039 15.3633 23.1262 13.7456 21.3008 13.3735V11.6914C21.3008 11.2491 20.9422 10.8906 20.5 10.8906C20.0578 10.8906 19.6992 11.2491 19.6992 11.6914V13.3735C17.8738 13.7456 16.4961 15.3633 16.4961 17.2969Z" fill="black"/>
<path d="M20.5 0C9.45899 0 0 9.45883 0 20.5C0 31.541 9.45883 41 20.5 41C31.5389 41 41 31.5431 41 20.5C41 9.47797 31.5599 0 20.5 0ZM20.5 39.3984C10.4326 39.3984 1.60156 30.5674 1.60156 20.5C1.60156 10.4326 10.4326 1.60156 20.5 1.60156C30.5674 1.60156 39.3984 10.4326 39.3984 20.5C39.3984 30.5674 30.5674 39.3984 20.5 39.3984Z" fill="black"/>
<path d="M23.8746 5.2026C23.4445 5.10058 23.0126 5.36636 22.9104 5.7967C22.8083 6.22696 23.0743 6.65866 23.5045 6.76084C29.8265 8.26191 34.5937 14.1685 34.5937 20.5C34.5937 28.0079 28.0079 34.5938 20.5 34.5938C12.9921 34.5938 6.40625 28.0079 6.40625 20.5C6.40625 14.1685 11.1735 8.26199 17.4954 6.76084C17.9257 6.65866 18.1917 6.22696 18.0895 5.7967C17.9873 5.36636 17.5558 5.10034 17.1253 5.2026C10.1627 6.85589 4.80469 13.3644 4.80469 20.5C4.80469 28.8441 12.0997 36.1953 20.5 36.1953C28.8441 36.1953 36.1953 28.9003 36.1953 20.5C36.1953 13.3706 30.843 6.85726 23.8746 5.2026Z" fill="black"/>
<path d="M20.5 6.48633C20.9423 6.48633 21.3008 6.12781 21.3008 5.68555C21.3008 5.24329 20.9423 4.88477 20.5 4.88477C20.0577 4.88477 19.6992 5.24329 19.6992 5.68555C19.6992 6.12781 20.0577 6.48633 20.5 6.48633Z" fill="black"/>
</svg>
