<svg width="48" height="46" viewBox="0 0 48 46" fill="none" xmlns="http://www.w3.org/2000/svg">
<path d="M42.75 18.4965V41.1859C42.75 42.7393 41.4909 43.9984 39.9375 43.9984H8.0625C6.50906 43.9984 5.25 42.7393 5.25 41.1859V18.4965V18.4961L16.5 7.24615L20.1551 3.59102C22.2786 1.46758 25.7214 1.46758 27.8449 3.59102L31.5 7.24605L42.75 18.4961V18.4965Z" fill="#EDE0F9"/>
<path d="M21.1875 27.4984H26.8125C28.5729 27.4984 30 28.9254 30 30.6859V43.9984H18V30.6859C18 28.9254 19.4272 27.4984 21.1875 27.4984Z" fill="#E2E0E0"/>
<path d="M42.75 18.4965V41.1859C42.75 42.7393 41.4909 43.9984 39.9375 43.9984H38.6747C38.8828 43.6065 39 43.1603 39 42.6859V19.9965L24.0947 5.09122C23.0325 4.02903 21.6412 3.4984 20.25 3.4984C22.38 1.46778 25.7522 1.49872 27.8447 3.59122L42.75 18.4965Z" fill="#EDE0F9"/>
<path d="M30 30.6859V43.9984H26.25V30.6859C26.25 28.9253 24.8231 27.4984 23.0625 27.4984H26.8125C28.5731 27.4984 30 28.9253 30 30.6859Z" fill="#CECCCC"/>
<path d="M47.5607 21.1854L28.9054 2.53024C26.2006 -0.174632 21.7993 -0.174632 19.0945 2.53024L0.439383 21.1854C-0.146461 21.7712 -0.146461 22.7209 0.439383 23.3067C1.02513 23.8925 1.97491 23.8925 2.56066 23.3067L3.74998 22.1173V41.1858C3.74998 43.5638 5.6846 45.4983 8.06248 45.4983H18H30H39.9375C42.3154 45.4983 44.25 43.5638 44.25 41.1858V22.1173L45.4394 23.3067C45.7323 23.5996 46.1162 23.7461 46.5 23.7461C46.8838 23.7461 47.2677 23.5996 47.5606 23.3067C48.1465 22.721 48.1465 21.7712 47.5607 21.1854ZM19.5 42.4984V30.6859C19.5 29.7554 20.257 28.9984 21.1875 28.9984H26.8125C27.7429 28.9984 28.5 29.7554 28.5 30.6859V42.4984H19.5ZM41.25 41.1859C41.25 41.9097 40.6612 42.4984 39.9375 42.4984H31.5V30.6859C31.5 28.1012 29.3972 25.9984 26.8125 25.9984H21.1875C18.6028 25.9984 16.5 28.1012 16.5 30.6859V42.4984H8.06248C7.33873 42.4984 6.74998 41.9097 6.74998 41.1859V19.1173L21.2158 4.65162C22.7511 3.11637 25.249 3.11637 26.7842 4.65162L41.25 19.1173V41.1859Z" fill="black"/>
</svg>
