<svg width="64" height="64" viewBox="0 0 64 64" fill="none" xmlns="http://www.w3.org/2000/svg">
<path d="M32 54C44.1503 54 54 44.1503 54 32C54 19.8497 44.1503 10 32 10C19.8497 10 10 19.8497 10 32C10 44.1503 19.8497 54 32 54Z" fill="#3AAFFF"/>
<path d="M36.396 22.567C35.605 21.796 34.337 21.813 33.568 22.604L27.167 29.175C25.609 30.732 25.609 33.266 27.148 34.805L33.568 41.395C33.959 41.798 34.479 42 35 42C35.503 42 36.007 41.812 36.396 41.433C37.187 40.662 37.204 39.396 36.433 38.605L30.013 31.986L36.433 25.396C37.203 24.604 37.187 23.338 36.396 22.567Z" fill="#012E52"/>
<path d="M53.508 27.02C52.414 27.176 51.654 28.188 51.81 29.282C51.937 30.167 52 31.081 52 32C52 32.919 51.937 33.833 51.81 34.718C51.655 35.812 52.414 36.824 53.508 36.98C53.604 36.994 53.698 37 53.793 37C54.772 37 55.628 36.279 55.771 35.282C55.923 34.211 56 33.107 56 32C56 30.893 55.923 29.789 55.771 28.718C55.613 27.624 54.593 26.865 53.508 27.02Z" fill="#012E52"/>
<path d="M32 56C41.061 56 49.253 50.984 53.381 42.91C53.883 41.927 53.493 40.722 52.51 40.219C51.527 39.716 50.322 40.107 49.819 41.09C46.379 47.819 39.551 52 32 52C20.972 52 12 43.028 12 32C12 20.972 20.972 12 32 12C39.551 12 46.379 16.181 49.818 22.91C50.321 23.893 51.526 24.284 52.509 23.781C53.492 23.278 53.882 22.073 53.38 21.09C49.253 13.016 41.061 8 32 8C18.767 8 8 18.766 8 32C8 45.234 18.767 56 32 56Z" fill="#012E52"/>
</svg>
