<svg width="150" height="153" viewBox="0 0 150 153" fill="none" xmlns="http://www.w3.org/2000/svg">
<g filter="url(#filter0_d)">
<path d="M122.454 133.516C148.466 112.034 159.497 173.085 102.045 183.153L122.454 133.516Z" fill="#73D676"/>
<path d="M31.4392 133.516C5.42666 112.034 -5.60362 173.085 51.8482 183.153L31.4392 133.516Z" fill="#73D676"/>
<path d="M77.3594 195.416C105.001 195.416 127.409 175.525 127.409 150.989C127.409 126.452 105.001 106.561 77.3594 106.561C49.718 106.561 27.3103 126.452 27.3103 150.989C27.3103 175.525 49.718 195.416 77.3594 195.416Z" fill="#33935E"/>
<path d="M68.0102 22.7405C67.3024 24.9063 58.8675 53.5587 58.8675 53.5587L51.1109 82.0062L66.3586 56.7195C66.3586 56.7195 81.3409 31.4621 82.2847 29.5597C87.4164 18.9943 87.0035 11.7361 83.0515 9.86301C79.0995 7.96065 71.3429 12.3214 68.0102 22.7405Z" fill="#73D676"/>
<path d="M76.5336 32.9254C75.5309 34.6521 62.849 57.656 62.849 57.656L50.816 80.6307L68.6886 61.7827C68.6886 61.7827 86.3252 42.9055 87.4754 41.4421C93.8754 33.3351 94.8781 27.0135 91.8698 24.6721C88.8616 22.3307 81.3704 24.6136 76.5336 32.9254Z" fill="#FFCF32"/>
<path d="M85.2635 39.891C83.8773 41.3543 66.3586 60.9632 66.3586 60.9632L49.4593 80.6892L71.1365 66.2898C71.1365 66.2898 92.5777 51.8026 94.0523 50.632C102.133 44.1347 104.522 38.2227 102.104 35.2668C99.6559 32.3108 91.8698 32.8669 85.2635 39.891Z" fill="#73D676"/>
<path d="M129.827 97.6641C129.827 124.648 106.174 146.54 77.0055 146.54C47.8372 146.54 24.184 124.648 24.184 97.6641C24.184 89.7912 26.219 83.7915 27.2808 81.1575C34.7129 62.7192 55.2399 48.4662 77.0055 48.7881C102.222 49.1393 129.827 69.0409 129.827 97.6641Z" fill="#73D676"/>
<path d="M110.332 82.6793L111.07 81.5672L107.383 80.016L106.97 79.8404C106.675 79.7234 106.38 79.5478 106.085 79.4014C104.345 78.4064 102.281 77.9381 100.098 78.1722C95.4974 78.6698 91.7814 82.3574 91.339 86.9231C90.7196 93.1277 95.9398 98.2787 102.192 97.6641C106.823 97.1958 110.568 93.4789 111.011 88.884C111.188 87.0401 110.863 85.2841 110.126 83.733C110.008 83.4696 110.008 83.1769 110.155 82.9427L110.332 82.6793Z" fill="#3D3F3E"/>
<path d="M97.9748 91.1668C100.304 91.1668 102.192 89.293 102.192 86.9816C102.192 84.6702 100.304 82.7964 97.9748 82.7964C95.6456 82.7964 93.7574 84.6702 93.7574 86.9816C93.7574 89.293 95.6456 91.1668 97.9748 91.1668Z" fill="white"/>
<path d="M104.227 94.035C105.025 94.035 105.672 93.3929 105.672 92.6009C105.672 91.8088 105.025 91.1668 104.227 91.1668C103.429 91.1668 102.782 91.8088 102.782 92.6009C102.782 93.3929 103.429 94.035 104.227 94.035Z" fill="white"/>
<path d="M44.416 82.6793L43.6787 81.5672L47.3653 80.016L47.7782 79.8404C48.0731 79.7234 48.3681 79.5478 48.663 79.4014C50.4031 78.4064 52.4676 77.9381 54.65 78.1722C59.2509 78.6698 62.967 82.3574 63.4094 86.9231C64.0287 93.1277 58.8085 98.2787 52.556 97.6641C47.9257 97.1958 44.1801 93.4789 43.7377 88.884C43.5608 87.0401 43.8852 85.2841 44.6225 83.733C44.7405 83.4696 44.7405 83.1769 44.593 82.9427L44.416 82.6793Z" fill="#3D3F3E"/>
<path d="M56.7735 91.1668C59.1027 91.1668 60.991 89.293 60.991 86.9816C60.991 84.6702 59.1027 82.7964 56.7735 82.7964C54.4443 82.7964 52.556 84.6702 52.556 86.9816C52.556 89.293 54.4443 91.1668 56.7735 91.1668Z" fill="white"/>
<path d="M50.521 94.035C51.3192 94.035 51.9662 93.3929 51.9662 92.6009C51.9662 91.8088 51.3192 91.1668 50.521 91.1668C49.7229 91.1668 49.0759 91.8088 49.0759 92.6009C49.0759 93.3929 49.7229 94.035 50.521 94.035Z" fill="white"/>
<path d="M89.186 114.902C88.4487 121.136 83.3169 125.995 77.0645 125.995C70.812 125.995 65.6508 121.136 64.943 114.902H89.186Z" fill="#EDBB19"/>
<path d="M93.315 111.302C93.315 112.532 92.6072 113.644 91.5454 114.258C86.6496 117.068 78.0672 120.873 77.035 120.873C75.9438 120.873 67.4204 117.097 62.5246 114.258C61.4628 113.644 60.7845 112.532 60.7845 111.302C60.7845 111.302 60.7845 111.303 60.7845 111.273C60.7845 102.2 68.0692 94.8837 77.035 94.8837C86.0303 94.8837 93.315 102.23 93.315 111.302Z" fill="#FFCF32"/>
<path d="M45.3598 109.868C50.8653 109.868 55.3284 108.479 55.3284 106.766C55.3284 105.053 50.8653 103.664 45.3598 103.664C39.8543 103.664 35.3913 105.053 35.3913 106.766C35.3913 108.479 39.8543 109.868 45.3598 109.868Z" fill="#F0B8D5"/>
<path d="M107.324 110.161C112.83 110.161 117.293 108.772 117.293 107.059C117.293 105.345 112.83 103.956 107.324 103.956C101.819 103.956 97.3555 105.345 97.3555 107.059C97.3555 108.772 101.819 110.161 107.324 110.161Z" fill="#F0B8D5"/>
<path d="M82.3142 85.4597C82.2847 85.8988 82.2552 86.367 82.2552 86.806V86.9231C81.0755 85.8402 79.3059 85.1378 77.3594 85.1378C75.3834 85.1378 73.6433 85.8402 72.4636 86.9231V86.806C72.4636 86.3378 72.4636 85.8988 72.4046 85.4597C73.7613 84.5817 75.4719 84.0549 77.3594 84.0549C79.2175 84.0549 80.9575 84.5817 82.3142 85.4597Z" fill="#913B8E"/>
<path d="M72.5816 85.4597C71.8738 75.0992 63.2029 66.9044 52.556 66.9044C41.4668 66.9044 32.501 75.8309 32.501 86.806C32.501 97.8104 41.4963 106.737 52.556 106.737C63.6158 106.737 72.5521 97.8689 72.6406 86.9231V86.806C72.6406 86.367 72.6111 85.8987 72.5816 85.4597ZM52.556 105.069C42.381 105.069 34.1526 96.9031 34.1526 86.806C34.1526 76.7089 42.381 68.5434 52.556 68.5434C62.731 68.5434 70.9595 76.7089 70.9595 86.806V86.9523C70.9595 87.9474 70.871 88.9132 70.6941 89.8498C69.2489 98.5128 61.6693 105.069 52.556 105.069Z" fill="#913B8E"/>
<path opacity="0.29" d="M52.556 105.069C62.72 105.069 70.9595 96.8921 70.9595 86.806C70.9595 76.7198 62.72 68.5433 52.556 68.5433C42.3921 68.5433 34.1526 76.7198 34.1526 86.806C34.1526 96.8921 42.3921 105.069 52.556 105.069Z" fill="#BCE1EA"/>
<path d="M102.163 66.9044C91.5454 66.9044 82.8451 75.0992 82.1667 85.4597C82.1372 85.8987 82.1077 86.367 82.1077 86.806V86.9231C82.1667 97.8689 91.1325 106.737 102.163 106.737C113.252 106.737 122.247 97.8104 122.247 86.806C122.247 75.8016 113.252 66.9044 102.163 66.9044ZM102.163 105.069C93.0495 105.069 85.4699 98.4835 84.0248 89.8498C83.8478 88.9132 83.7593 87.9181 83.7593 86.9231V86.7767C83.7593 76.6796 91.9878 68.5141 102.163 68.5141C112.338 68.5141 120.566 76.6796 120.566 86.7767C120.566 96.8738 112.338 105.069 102.163 105.069Z" fill="#913B8E"/>
<path opacity="0.29" d="M102.192 105.069C112.356 105.069 120.596 96.8921 120.596 86.806C120.596 76.7198 112.356 68.5433 102.192 68.5433C92.0283 68.5433 83.7888 76.7198 83.7888 86.806C83.7888 96.8921 92.0283 105.069 102.192 105.069Z" fill="#BCE1EA"/>
</g>
<defs>
<filter id="filter0_d" x="-1" y="0" width="152" height="229" filterUnits="userSpaceOnUse" color-interpolation-filters="sRGB">
<feFlood flood-opacity="0" result="BackgroundImageFix"/>
<feColorMatrix in="SourceAlpha" type="matrix" values="0 0 0 0 0 0 0 0 0 0 0 0 0 0 0 0 0 0 127 0"/>
<feOffset dy="2"/>
<feGaussianBlur stdDeviation="0.5"/>
<feColorMatrix type="matrix" values="0 0 0 0 0 0 0 0 0 0 0 0 0 0 0 0 0 0 0.25 0"/>
<feBlend mode="normal" in2="BackgroundImageFix" result="effect1_dropShadow"/>
<feBlend mode="normal" in="SourceGraphic" in2="effect1_dropShadow" result="shape"/>
</filter>
</defs>
</svg>
