<svg width="319" height="208" viewBox="0 0 319 208" fill="none" xmlns="http://www.w3.org/2000/svg">
<path d="M134.079 13.3308C133.379 15.5308 124.979 44.1308 124.979 44.1308L117.179 72.5308L132.379 47.3308C132.379 47.3308 147.379 22.0308 148.279 20.1308C153.379 9.5308 152.979 2.3308 149.079 0.430796C145.079 -1.4692 137.379 2.9308 134.079 13.3308Z" fill="#73D676"/>
<path d="M142.579 23.5308C141.579 25.2308 128.879 48.2308 128.879 48.2308L116.879 71.2308L134.779 52.4308C134.779 52.4308 152.379 33.5308 153.579 32.1308C159.979 24.0308 160.979 17.7308 157.979 15.3308C154.879 12.9308 147.379 15.2308 142.579 23.5308Z" fill="#FFCF35"/>
<path d="M151.279 30.5308C149.879 32.0308 132.379 51.6308 132.379 51.6308L115.479 71.3308L137.179 56.9308C137.179 56.9308 158.579 42.4308 160.079 41.2308C168.179 34.7308 170.579 28.8308 168.179 25.8308C165.679 22.9308 157.879 23.4308 151.279 30.5308Z" fill="#73D676"/>
<path d="M195.879 88.2308C195.879 115.231 172.179 137.131 143.079 137.131C113.879 137.131 90.2786 115.231 90.2786 88.2308C90.2786 80.3308 92.2786 74.3308 93.3786 71.7308C100.779 53.3308 121.379 39.0308 143.079 39.3308C168.279 39.7308 195.879 59.6308 195.879 88.2308Z" fill="#73D676"/>
<path d="M176.379 73.3308L177.079 72.2308L173.379 70.6308L172.979 70.4308C172.679 70.3308 172.379 70.1308 172.079 70.0308C170.379 69.0308 168.279 68.5308 166.079 68.8308C161.479 69.3308 157.779 73.0308 157.279 77.6308C156.679 83.8308 161.879 89.0308 168.179 88.3308C172.779 87.8308 176.579 84.1308 176.979 79.5308C177.179 77.7308 176.879 75.9308 176.079 74.3308C175.979 74.0308 175.979 73.7308 176.079 73.5308L176.379 73.3308Z" fill="#3D3F3E"/>
<path d="M163.979 81.7308C166.279 81.7308 168.179 79.8308 168.179 77.5308C168.179 75.2308 166.279 73.3308 163.979 73.3308C161.679 73.3308 159.779 75.2308 159.779 77.5308C159.779 79.8308 161.679 81.7308 163.979 81.7308Z" fill="white"/>
<path d="M170.279 84.6308C171.079 84.6308 171.679 84.0308 171.679 83.2308C171.679 82.4308 171.079 81.8308 170.279 81.8308C169.479 81.8308 168.879 82.4308 168.879 83.2308C168.779 84.0308 169.479 84.6308 170.279 84.6308Z" fill="white"/>
<path d="M110.479 73.3308L109.779 72.2308L113.479 70.6308L113.879 70.4308C114.179 70.3308 114.479 70.1308 114.779 70.0308C116.479 69.0308 118.579 68.5308 120.779 68.8308C125.379 69.3308 129.079 73.0308 129.579 77.6308C130.179 83.8308 124.979 89.0308 118.679 88.3308C114.079 87.8308 110.279 84.1308 109.879 79.5308C109.679 77.7308 109.979 75.9308 110.779 74.3308C110.879 74.0308 110.879 73.7308 110.779 73.5308L110.479 73.3308Z" fill="#3D3F3E"/>
<path d="M122.779 81.7308C125.079 81.7308 126.979 79.8308 126.979 77.5308C126.979 75.2308 125.079 73.3308 122.779 73.3308C120.479 73.3308 118.579 75.2308 118.579 77.5308C118.579 79.8308 120.479 81.7308 122.779 81.7308Z" fill="white"/>
<path d="M116.579 84.6308C117.379 84.6308 117.979 84.0308 117.979 83.2308C117.979 82.4308 117.379 81.8308 116.579 81.8308C115.779 81.8308 115.179 82.4308 115.179 83.2308C115.079 84.0308 115.779 84.6308 116.579 84.6308Z" fill="white"/>
<path d="M155.179 105.531C154.479 111.731 149.279 116.631 143.079 116.631C136.779 116.631 131.679 111.731 130.979 105.531C130.979 105.531 155.179 105.531 155.179 105.531Z" fill="#EDBB1B"/>
<path d="M159.379 101.931C159.379 103.131 158.679 104.231 157.579 104.931C152.679 107.731 144.079 111.531 143.079 111.531C141.979 111.531 133.479 107.731 128.579 104.931C127.479 104.331 126.879 103.231 126.879 101.931C126.879 92.8308 134.179 85.5308 143.179 85.5308C152.079 85.5308 159.379 92.8308 159.379 101.931Z" fill="#FFCF35"/>
<path d="M111.379 100.431C116.879 100.431 121.379 99.0308 121.379 97.3308C121.379 95.6308 116.879 94.2308 111.379 94.2308C105.879 94.2308 101.379 95.6308 101.379 97.3308C101.379 99.0308 105.879 100.431 111.379 100.431Z" fill="#F0B8D5"/>
<path d="M173.379 100.731C178.879 100.731 183.379 99.3308 183.379 97.6308C183.379 95.9308 178.879 94.5308 173.379 94.5308C167.879 94.5308 163.379 95.9308 163.379 97.6308C163.379 99.4308 167.879 100.731 173.379 100.731Z" fill="#F0B8D5"/>
<path d="M148.379 76.0308C148.379 76.4308 148.279 76.9308 148.279 77.3308V77.4308C147.079 76.3308 145.379 75.6308 143.379 75.6308C141.379 75.6308 139.679 76.3308 138.479 77.4308V77.3308C138.479 76.8308 138.479 76.4308 138.379 76.0308C139.779 75.1308 141.479 74.6308 143.379 74.6308C145.279 74.6308 146.979 75.2308 148.379 76.0308Z" fill="#913B8E"/>
<path d="M138.579 76.0308C137.879 65.6308 129.179 57.4308 118.579 57.4308C107.479 57.4308 98.4786 66.3308 98.4786 77.3308C98.4786 88.3308 107.479 97.2308 118.579 97.2308C129.679 97.2308 138.579 88.3308 138.679 77.4308V77.3308C138.679 76.9308 138.679 76.5308 138.579 76.0308ZM118.579 95.6308C108.379 95.6308 100.179 87.4308 100.179 77.3308C100.179 67.2308 108.379 59.0308 118.579 59.0308C128.779 59.0308 136.979 67.2308 136.979 77.3308V77.4308C136.979 78.4308 136.879 79.4308 136.679 80.3308C135.279 89.1308 127.679 95.6308 118.579 95.6308Z" fill="#913B8E"/>
<path opacity="0.29" d="M118.579 95.6308C128.779 95.6308 136.979 87.4308 136.979 77.3308C136.979 67.2308 128.779 59.0308 118.579 59.0308C108.379 59.0308 100.179 67.2308 100.179 77.3308C100.179 87.5308 108.379 95.6308 118.579 95.6308Z" fill="#BDE1EA"/>
<path d="M168.179 57.5308C157.579 57.5308 148.879 65.7308 148.179 76.1308C148.179 76.5308 148.079 77.0308 148.079 77.4308V77.5308C148.179 88.4308 157.079 97.3308 168.179 97.3308C179.279 97.3308 188.279 88.4308 188.279 77.4308C188.279 66.4308 179.279 57.5308 168.179 57.5308ZM168.179 95.6308C159.079 95.6308 151.479 89.0308 150.079 80.4308C149.879 79.5308 149.779 78.5308 149.779 77.5308V77.4308C149.779 67.3308 157.979 59.1308 168.179 59.1308C178.379 59.1308 186.579 67.3308 186.579 77.4308C186.579 87.5308 178.379 95.6308 168.179 95.6308Z" fill="#913B8E"/>
<path opacity="0.29" d="M168.179 95.6308C178.379 95.6308 186.579 87.4308 186.579 77.3308C186.579 67.2308 178.379 59.0308 168.179 59.0308C157.979 59.0308 149.779 67.2308 149.779 77.3308C149.779 87.5308 158.079 95.6308 168.179 95.6308Z" fill="#BDE1EA"/>
<path d="M66.1786 86.1309C36.0786 82.1309 3.77857 99.9309 0.278574 130.831C-3.32143 162.931 28.5786 192.631 60.7786 192.731C83.4786 192.831 92.2786 173.031 114.479 168.331C155.679 159.531 180.279 192.731 220.979 203.931C254.479 213.031 288.979 206.131 310.479 171.431C339.379 124.931 289.079 52.0309 234.379 53.6309C187.279 54.9309 203.979 116.731 156.979 120.631C115.579 124.131 96.3786 90.1309 66.1786 86.1309Z" fill="#A55FEE"/>
<path d="M78.9786 130.331L81.1786 130.731C81.5786 130.731 82.1786 131.031 83.0786 131.731H83.1786C83.1786 130.831 83.2786 130.431 83.3786 130.431C84.0786 130.631 84.4786 130.831 84.5786 130.831H85.2786H85.7786L85.8786 130.931V131.131V135.431C85.8786 135.631 85.7786 135.831 85.6786 136.031C85.8786 136.231 85.9786 136.331 85.9786 136.531C85.9786 136.731 85.8786 136.831 85.7786 137.131L85.8786 137.731C85.8786 138.031 85.7786 138.131 85.6786 138.131L84.7786 138.031L84.2786 138.131H84.1786C84.0786 138.131 83.9786 137.631 83.7786 136.731C83.7786 136.431 83.6786 136.131 83.3786 135.931C83.0786 135.531 82.9786 135.231 82.9786 135.031L83.1786 134.931C82.8786 134.631 82.6786 134.331 82.5786 134.031C81.6786 133.131 80.8786 132.631 80.2786 132.631H80.0786C79.8786 132.631 78.6786 132.831 76.6786 133.331C76.4786 133.431 76.1786 133.931 75.7786 134.631C75.3786 135.231 75.1786 135.731 75.1786 136.231C75.2786 137.631 75.4786 138.331 75.6786 138.331C75.9786 139.131 76.2786 139.531 76.6786 139.731C76.7786 139.831 76.9786 139.931 77.4786 140.031C77.7786 140.331 78.4786 140.631 79.4786 141.131C79.4786 141.231 79.5786 141.231 79.7786 141.331L80.1786 141.231C80.3786 141.231 80.4786 141.331 80.4786 141.331L80.3786 141.431V141.531C80.6786 141.931 81.0786 142.131 81.4786 142.131L80.8786 141.631C81.0786 141.631 81.7786 142.031 82.9786 142.831C84.8786 144.531 85.7786 145.631 85.7786 146.131C86.0786 147.531 86.2786 148.331 86.2786 148.631C86.0786 150.331 85.8786 151.131 85.6786 151.131L84.8786 152.531C83.3786 153.431 82.4786 153.931 82.1786 153.931C79.5786 153.331 77.8786 152.931 77.0786 152.631C75.3786 151.031 74.4786 150.031 74.4786 149.731L74.3786 149.631H74.2786V149.831V151.731C74.2786 151.931 73.8786 151.931 73.0786 151.931H72.4786L71.9786 152.131C71.7786 152.131 71.5786 152.031 71.3786 151.731L71.5786 151.431C71.7786 147.631 71.8786 145.831 72.1786 145.831H72.2786L72.8786 145.931C72.9786 145.931 73.0786 145.931 73.1786 145.831L73.5786 145.931L73.7786 145.831H73.8786C73.9786 145.831 74.1786 146.231 74.4786 146.831C75.2786 147.931 76.0786 148.931 76.7786 149.931C76.8786 149.931 77.1786 150.231 77.5786 150.831L79.6786 151.731H80.2786V151.831H80.3786L80.5786 151.731H80.6786C80.8786 151.831 80.9786 151.931 81.1786 151.931H81.3786C81.9786 151.931 82.2786 151.831 82.2786 151.731V151.631H81.5786H81.1786C81.1786 151.531 81.9786 151.331 83.5786 151.131C83.9786 151.131 84.2786 150.531 84.5786 149.231C84.5786 148.831 84.6786 148.531 84.8786 148.331V148.231C84.4786 147.031 84.0786 146.231 83.5786 145.931C83.2786 145.431 82.2786 144.931 80.5786 144.331C79.3786 143.931 78.4786 143.331 77.7786 142.731C76.6786 142.431 76.0786 142.031 75.9786 141.731C75.8786 141.431 75.3786 140.931 74.4786 140.331C74.0786 139.131 73.6786 138.131 73.1786 137.531C72.9786 136.531 72.7786 135.531 72.7786 134.431C72.9786 133.731 73.7786 132.631 75.1786 131.431C75.8786 130.631 77.1786 130.331 78.9786 130.331ZM72.3786 147.831H72.2786C72.1786 148.131 72.0786 148.631 72.0786 149.131L72.1786 149.531C72.3786 149.531 72.4786 149.431 72.4786 149.231C72.3786 148.731 72.3786 148.231 72.3786 147.831ZM72.1786 150.331L72.2786 150.431C72.3786 150.431 72.3786 150.231 72.4786 149.731L72.3786 149.631C72.2786 149.631 72.1786 149.931 72.1786 150.331ZM73.0786 148.731C72.9786 149.131 72.8786 149.331 72.6786 149.431L72.7786 149.831V150.731V150.931C72.7786 151.131 72.7786 151.131 72.8786 151.131H73.0786L73.1786 151.031V150.931C73.2786 149.531 73.1786 148.731 73.0786 148.731ZM73.4786 133.531L73.3786 133.631H73.5786L73.4786 133.531ZM74.2786 138.931V139.131L74.3786 139.231H74.6786V139.131C74.4786 138.931 74.3786 138.931 74.2786 138.931ZM74.3786 135.131C74.8786 134.831 75.0786 134.431 75.0786 134.131L74.9786 134.031C74.6786 134.031 74.4786 134.431 74.3786 135.131ZM74.8786 139.831V140.031C75.3786 140.331 75.6786 140.531 75.7786 140.531H75.8786V140.431C75.6786 140.131 75.2786 139.931 74.8786 139.831ZM74.8786 149.631C74.9786 150.031 75.0786 150.231 75.3786 150.231V150.131C75.1786 149.831 75.0786 149.631 74.8786 149.631ZM74.9786 133.831L75.1786 134.031H75.2786C75.5786 134.031 75.7786 133.831 75.9786 133.631L75.8786 133.531H75.4786C75.2786 133.531 75.0786 133.631 74.9786 133.831ZM74.9786 131.531H75.3786C75.5786 131.531 76.3786 131.331 77.8786 130.931C78.3786 130.831 78.6786 130.731 78.6786 130.631H78.5786C76.1786 130.831 74.9786 131.131 74.9786 131.531ZM75.1786 132.331C75.1786 132.431 75.1786 132.431 75.2786 132.431C75.3786 132.431 75.4786 132.331 75.4786 132.231V132.131C75.3786 132.131 75.1786 132.231 75.1786 132.331ZM75.9786 132.831C76.2786 132.831 76.7786 132.631 77.5786 132.231L78.4786 131.931L78.3786 132.131H78.6786L78.8786 132.031V131.931V131.731V131.531H78.7786C77.8786 131.831 77.1786 132.031 76.5786 132.331C76.1786 132.431 75.9786 132.631 75.9786 132.831ZM76.0786 149.931C76.1786 150.331 76.3786 150.431 76.5786 150.431V150.331C76.3786 150.131 76.1786 150.031 76.0786 149.931ZM76.4786 151.331H76.2786C76.4786 151.831 77.0786 152.231 77.9786 152.431C78.6786 152.731 79.7786 152.931 81.0786 153.231C81.3786 153.431 81.5786 153.531 81.7786 153.531H82.0786C82.6786 153.331 82.8786 153.131 82.8786 152.931L79.8786 152.731C78.0786 152.231 76.9786 151.731 76.4786 151.331ZM78.0786 151.231C78.0786 151.331 78.1786 151.431 78.2786 151.431C78.2786 151.331 78.1786 151.231 78.0786 151.231ZM79.0786 140.931H78.7786C78.7786 141.031 78.8786 141.031 79.0786 141.031H79.1786L79.0786 140.931ZM79.4786 141.431L79.3786 141.531C79.4786 141.631 79.8786 141.831 80.4786 142.131V142.031C80.0786 141.731 79.7786 141.531 79.4786 141.431ZM80.1786 143.431H79.9786V143.631C80.2786 143.731 80.5786 143.831 81.0786 143.831C81.0786 143.931 81.1786 143.931 81.2786 143.931H81.5786C81.5786 143.731 81.1786 143.531 80.1786 143.431ZM81.6786 131.831H81.0786C81.0786 131.831 81.3786 132.031 82.0786 132.131H82.2786H82.3786V132.031C82.2786 131.931 82.0786 131.831 81.6786 131.831ZM81.3786 153.131V153.031H81.4786C81.6786 153.031 81.6786 153.031 81.6786 153.131H81.5786H81.3786ZM82.4786 144.331H82.3786V144.431L82.4786 144.531H82.5786V144.431L82.4786 144.331ZM82.3786 152.331L82.4786 152.431H82.6786C83.4786 152.431 83.9786 152.331 83.9786 152.131L83.8786 152.031H83.6786C83.3786 152.031 82.9786 152.131 82.3786 152.331ZM82.7786 132.531L82.9786 132.731H83.1786L83.2786 132.631V132.531C83.2786 132.431 83.1786 132.431 82.9786 132.331C82.8786 132.331 82.7786 132.431 82.7786 132.531ZM83.8786 131.131V131.231V131.331C83.8786 131.431 83.9786 131.531 84.1786 131.531H84.7786C84.4786 131.231 84.1786 131.131 83.8786 131.131ZM83.9786 131.831L83.8786 131.931V132.031V132.231H83.9786L84.0786 132.131V131.931L83.9786 131.831ZM84.4786 134.531L84.3786 134.631L84.4786 134.731H84.5786L84.6786 134.631L84.5786 134.531H84.4786ZM84.3786 136.331V136.831L84.4786 136.931C84.6786 136.931 84.7786 136.831 84.7786 136.731C84.6786 136.431 84.5786 136.231 84.5786 136.031H84.4786C84.4786 136.131 84.3786 136.231 84.3786 136.331ZM84.4786 133.031L84.5786 133.131L84.4786 133.331V133.431C84.4786 133.431 84.5786 133.531 84.7786 133.631C84.7786 133.831 84.8786 133.931 84.9786 133.931H85.0786V133.731V133.631V133.531H85.1786L85.3786 133.631H85.4786V133.431V133.331C85.2786 132.731 85.1786 132.431 85.1786 132.431H84.9786C84.5786 132.431 84.4786 132.631 84.4786 133.031ZM84.4786 135.431V135.631H84.5786V135.531L84.4786 135.431ZM84.5786 137.431L84.4786 137.531L84.6786 137.631H84.7786V137.531L84.5786 137.431ZM84.7786 150.431L84.5786 150.631L84.6786 150.731H84.8786L84.9786 150.631V150.531L84.8786 150.431H84.7786ZM84.9786 134.431L84.8786 134.531H84.9786V134.431ZM85.2786 134.931L85.1786 135.031V135.231V135.431H85.2786L85.3786 134.831H85.2786V134.931ZM85.3786 134.131H85.1786V134.231C85.2786 134.331 85.2786 134.431 85.3786 134.431V134.331V134.131Z" fill="#EDE0F9"/>
<path d="M98.6786 136.631C99.5786 136.631 100.779 137.031 102.079 137.831C103.179 138.631 103.779 139.231 103.779 139.531C104.679 141.431 105.079 142.531 105.079 142.931V143.231C104.779 144.031 104.579 144.531 104.579 144.831H104.379H101.579C101.279 144.831 100.979 144.831 100.579 144.931C97.3786 144.631 95.0786 144.531 93.7786 144.531H93.0786C92.7786 144.931 92.6786 145.231 92.6786 145.431C92.8786 145.631 92.8786 146.031 92.8786 146.631C92.8786 147.431 92.9786 148.031 93.2786 148.131V148.331L93.0786 148.231V148.331L93.3786 148.631C93.3786 148.931 93.5786 149.331 93.9786 149.731C94.6786 151.031 95.4786 151.831 96.3786 152.131C97.0786 152.331 97.9786 152.531 98.8786 152.531C99.0786 152.531 99.3786 152.431 99.8786 152.131C100.279 152.031 101.179 151.331 102.379 149.931V149.831C102.379 149.831 102.179 149.731 101.879 149.731L101.779 149.531C102.279 148.531 102.879 147.931 103.579 147.631C103.779 147.831 104.179 148.131 104.779 148.531C105.279 149.331 105.979 150.231 106.779 151.231V151.331C106.079 152.231 105.579 152.731 105.279 152.731H105.179C105.179 152.231 104.879 151.931 104.279 151.931C104.179 151.931 103.679 152.331 102.779 153.031C102.279 153.431 101.379 153.831 100.179 154.131C98.6786 154.431 97.6786 154.531 97.0786 154.531L95.1786 153.831C94.0786 153.831 93.0786 153.231 92.2786 152.131C91.8786 151.731 91.5786 151.231 91.3786 150.731C91.3786 150.531 91.1786 149.631 90.6786 147.931C90.4786 147.331 90.4786 146.631 90.4786 146.031C90.4786 143.031 91.3786 140.431 93.1786 138.231C93.3786 137.631 93.8786 137.231 94.6786 137.031C95.1786 136.831 95.8786 136.731 96.5786 136.631C96.8786 136.531 97.5786 136.531 98.6786 136.631ZM91.0786 145.131V145.231C91.0786 145.331 91.0786 145.431 91.0786 145.731V145.831C91.0786 146.231 91.1786 146.631 91.3786 146.931C91.4786 145.931 91.3786 145.331 91.0786 145.131ZM91.5786 142.131C91.3786 142.331 91.2786 142.731 91.0786 143.431H91.1786C91.2786 143.431 91.4786 143.031 91.7786 142.231C91.7786 142.131 91.6786 142.131 91.5786 142.131ZM91.2786 143.831H91.0786V144.031C91.0786 144.131 91.0786 144.231 91.1786 144.231C91.2786 144.231 91.3786 144.131 91.3786 143.931L91.2786 143.831ZM91.6786 148.031H91.5786V148.131L91.6786 148.231H91.7786L91.6786 148.031ZM91.9786 148.631V148.731C92.0786 149.131 92.1786 149.231 92.3786 149.231V149.131C92.2786 149.031 92.1786 148.831 91.9786 148.631ZM92.8786 144.231H93.4786V144.131L93.3786 144.031H93.2786C93.0786 143.931 92.9786 144.031 92.8786 144.231ZM92.9786 140.031L92.8786 140.131H92.9786L93.0786 140.031H92.9786ZM92.9786 142.331V142.431L93.0786 142.531H93.1786C93.3786 142.431 93.4786 142.331 93.5786 142.131V142.031H93.3786C93.1786 142.031 93.0786 142.131 92.9786 142.331ZM93.2786 141.431V141.531C93.2786 141.731 95.2786 142.031 99.3786 142.331L99.6786 142.431H100.079C100.979 142.731 101.579 142.831 101.879 142.831C101.879 142.931 101.979 142.931 102.079 143.031C102.179 142.831 102.279 142.631 102.279 142.431V141.831C102.279 141.531 101.679 140.931 100.579 139.931C100.079 139.431 99.4786 139.131 98.8786 139.031L97.7786 138.831C95.8786 139.231 94.6786 139.631 94.0786 140.231C93.8786 140.631 93.5786 141.031 93.2786 141.431ZM93.2786 140.931C93.3786 140.931 93.4786 140.831 93.4786 140.631C93.3786 140.631 93.2786 140.731 93.2786 140.931ZM93.4786 152.431H93.3786V152.531C93.3786 152.631 93.5786 152.731 93.9786 152.931L94.0786 153.031C93.8786 152.631 93.6786 152.431 93.4786 152.431ZM93.6786 139.431C94.0786 139.431 94.1786 139.331 94.1786 139.231H93.9786C93.8786 139.231 93.7786 139.331 93.6786 139.431ZM93.9786 143.931H93.7786V144.131H93.9786V144.031V143.931ZM94.1786 137.831L94.2786 137.931C94.6786 137.831 94.9786 137.731 94.9786 137.631V137.431L94.8786 137.331H94.7786C94.3786 137.431 94.1786 137.631 94.1786 137.831ZM94.6786 143.631C95.0786 143.831 96.2786 143.931 98.2786 144.031L97.5786 144.131C97.5786 144.231 97.8786 144.231 98.4786 144.231C99.3786 144.231 99.8786 144.231 99.8786 144.131C99.7786 143.931 98.0786 143.731 94.6786 143.631ZM94.9786 142.531V142.631C95.3786 142.931 96.1786 143.031 97.2786 143.031H97.5786H97.9786V142.931C97.0786 142.631 96.0786 142.531 94.9786 142.531ZM95.0786 139.231C95.2786 139.031 95.7786 138.831 96.3786 138.631V138.531V138.431H96.0786C95.3786 138.731 95.0786 138.931 95.0786 139.231ZM95.5786 137.331C95.9786 137.331 96.6786 137.231 97.6786 137.031C97.8786 137.031 97.9786 136.931 97.9786 136.831L97.8786 136.731C97.1786 136.731 96.4786 136.931 95.5786 137.331ZM95.8786 152.531C95.8786 152.631 96.0786 152.731 96.5786 152.831V152.731C96.2786 152.631 96.0786 152.531 95.8786 152.531ZM96.9786 138.031C96.9786 138.131 97.4786 138.231 98.3786 138.431H98.4786V138.331C98.2786 138.131 97.9786 137.931 97.5786 137.931H97.4786C97.1786 137.931 96.9786 137.931 96.9786 138.031ZM97.8786 152.931H97.7786V153.031H97.8786V152.931ZM98.9786 153.731L98.2786 153.631H98.1786C97.9786 153.631 97.8786 153.631 97.8786 153.731V153.831L97.9786 153.931H98.5786C99.2786 153.931 100.079 153.831 100.979 153.531C100.979 153.431 100.779 153.331 100.579 153.331H100.379C99.8786 153.431 99.3786 153.531 98.9786 153.731ZM99.3786 137.531H98.3786V137.631C98.3786 137.731 98.8786 137.831 99.7786 137.831V137.731C99.7786 137.631 99.6786 137.631 99.3786 137.531ZM99.0786 138.231C100.379 139.031 101.079 139.331 101.079 139.331L101.379 139.231L101.579 139.331V139.231C101.479 139.131 101.279 139.131 100.979 139.031L100.279 138.731C100.079 138.331 99.7786 138.131 99.1786 138.131H99.0786V138.231ZM101.079 143.331H100.979V143.431H101.079V143.331ZM101.079 144.231C101.079 144.331 101.279 144.331 101.679 144.331H101.979V144.231C101.979 144.131 101.779 144.131 101.379 144.131C101.179 144.231 101.079 144.231 101.079 144.231ZM101.079 151.931C101.279 151.831 101.379 151.731 101.479 151.631C101.179 151.731 101.079 151.831 101.079 151.931ZM101.279 153.431C101.479 153.431 101.679 153.231 101.779 152.931H101.679C101.479 153.031 101.279 153.231 101.279 153.431ZM101.679 139.931C101.679 140.131 101.779 140.231 101.979 140.231H102.079L102.179 140.131V139.931L102.079 139.731C101.779 139.731 101.679 139.731 101.679 139.931ZM102.079 150.831H102.179C102.379 150.831 102.579 150.731 102.679 150.431V150.331C102.379 150.431 102.279 150.531 102.079 150.831ZM102.479 140.331H102.379C102.579 141.031 102.779 141.431 102.879 141.531H102.979L103.079 141.431C102.979 140.731 102.779 140.431 102.479 140.331ZM102.879 148.931L102.979 149.031H103.179C103.279 149.031 103.379 149.031 103.379 148.931L103.279 148.831C102.979 148.731 102.879 148.831 102.879 148.931ZM103.079 152.131H103.179C103.379 151.931 103.479 151.831 103.479 151.731C103.179 151.731 103.079 151.931 103.079 152.131ZM103.679 141.831L103.579 141.931V142.131L103.679 142.231C103.779 142.231 103.779 142.131 103.779 142.031V141.931V141.831H103.679ZM103.679 151.131L103.779 151.231C104.079 151.131 104.279 150.931 104.279 150.831V150.731C103.979 150.731 103.779 150.931 103.679 151.131ZM104.479 150.831H104.579C104.679 150.731 104.779 150.631 104.779 150.431H104.679C104.479 150.531 104.479 150.631 104.479 150.831ZM105.579 150.431C105.579 150.731 105.679 150.931 105.879 150.931L105.979 150.831C105.979 150.631 105.779 150.431 105.579 150.431Z" fill="#EDE0F9"/>
<path d="M119.379 136.631C120.279 136.631 121.479 137.031 122.779 137.831C123.879 138.631 124.479 139.231 124.479 139.531C125.379 141.431 125.779 142.531 125.779 142.931V143.231C125.479 144.031 125.279 144.531 125.279 144.831H125.079H122.279C121.979 144.831 121.679 144.831 121.279 144.931C118.079 144.631 115.779 144.531 114.479 144.531H113.879C113.579 144.931 113.479 145.231 113.479 145.431C113.679 145.631 113.679 146.031 113.679 146.631C113.679 147.431 113.779 148.031 114.079 148.131V148.331L113.879 148.231V148.331L114.179 148.631C114.179 148.931 114.379 149.331 114.779 149.731C115.479 151.031 116.279 151.831 117.179 152.131C117.879 152.331 118.779 152.531 119.679 152.531C119.879 152.531 120.179 152.431 120.679 152.131C121.079 152.031 121.979 151.331 123.179 149.931V149.831C123.179 149.831 122.979 149.731 122.679 149.731L122.579 149.531C123.079 148.531 123.679 147.931 124.379 147.631C124.579 147.831 124.979 148.131 125.579 148.531C126.079 149.331 126.779 150.231 127.579 151.231V151.331C126.879 152.231 126.379 152.731 126.079 152.731H125.979C125.979 152.231 125.679 151.931 125.079 151.931C124.979 151.931 124.479 152.331 123.579 153.031C123.079 153.431 122.179 153.831 120.979 154.131C119.479 154.431 118.479 154.531 117.879 154.531L115.979 153.831C114.879 153.831 113.879 153.231 113.079 152.131C112.679 151.731 112.379 151.231 112.179 150.731C112.179 150.531 111.979 149.631 111.479 147.931C111.279 147.331 111.279 146.631 111.279 146.031C111.279 143.031 112.179 140.431 113.979 138.231C114.179 137.631 114.679 137.231 115.479 137.031C115.979 136.831 116.679 136.731 117.379 136.631C117.679 136.531 118.279 136.531 119.379 136.631ZM111.879 145.131V145.231C111.879 145.331 111.879 145.431 111.879 145.731V145.831C111.879 146.231 111.979 146.631 112.179 146.931C112.179 145.931 112.079 145.331 111.879 145.131ZM112.379 142.131C112.179 142.331 112.079 142.731 111.879 143.431H111.979C112.079 143.431 112.279 143.031 112.579 142.231C112.479 142.131 112.379 142.131 112.379 142.131ZM112.079 143.831H111.879V144.031C111.879 144.131 111.879 144.231 111.979 144.231C112.079 144.231 112.179 144.131 112.179 143.931L112.079 143.831ZM112.479 148.031H112.379V148.131L112.479 148.231H112.579L112.479 148.031ZM112.679 148.631V148.731C112.779 149.131 112.879 149.231 113.079 149.231V149.131C113.079 149.031 112.979 148.831 112.679 148.631ZM113.679 144.231H114.279V144.131L114.179 144.031H114.079C113.879 143.931 113.779 144.031 113.679 144.231ZM113.779 140.031L113.679 140.131H113.779L113.879 140.031H113.779ZM113.679 142.331V142.431L113.779 142.531H113.879C114.079 142.431 114.179 142.331 114.279 142.131V142.031H114.079C113.979 142.031 113.779 142.131 113.679 142.331ZM114.079 141.431V141.531C114.079 141.731 116.079 142.031 120.179 142.331L120.479 142.431H120.879C121.779 142.731 122.379 142.831 122.679 142.831C122.679 142.931 122.779 142.931 122.879 143.031C122.979 142.831 123.079 142.631 123.079 142.431V141.831C123.079 141.531 122.479 140.931 121.379 139.931C120.879 139.431 120.279 139.131 119.679 139.031L118.579 138.831C116.679 139.231 115.479 139.631 114.879 140.231C114.679 140.631 114.379 141.031 114.079 141.431ZM114.079 140.931C114.179 140.931 114.279 140.831 114.279 140.631C114.179 140.631 114.079 140.731 114.079 140.931ZM114.279 152.431H114.179V152.531C114.179 152.631 114.379 152.731 114.779 152.931L114.879 153.031C114.679 152.631 114.479 152.431 114.279 152.431ZM114.379 139.431C114.779 139.431 114.879 139.331 114.879 139.231H114.679C114.679 139.231 114.479 139.331 114.379 139.431ZM114.779 143.931H114.579V144.131H114.779V144.031V143.931ZM114.979 137.831L115.079 137.931C115.479 137.831 115.779 137.731 115.779 137.631V137.431L115.679 137.331H115.579C115.179 137.431 114.979 137.631 114.979 137.831ZM115.379 143.631C115.779 143.831 116.979 143.931 118.979 144.031L118.279 144.131C118.279 144.231 118.579 144.231 119.179 144.231C120.079 144.231 120.579 144.231 120.579 144.131C120.579 143.931 118.879 143.731 115.379 143.631ZM115.779 142.531V142.631C116.179 142.931 116.979 143.031 118.079 143.031H118.379H118.779V142.931C117.879 142.631 116.879 142.531 115.779 142.531ZM115.779 139.231C115.979 139.031 116.479 138.831 117.079 138.631V138.531V138.431H116.779C116.179 138.731 115.779 138.931 115.779 139.231ZM116.279 137.331C116.679 137.331 117.379 137.231 118.379 137.031C118.579 137.031 118.679 136.931 118.679 136.831L118.579 136.731C117.879 136.731 117.179 136.931 116.279 137.331ZM116.579 152.531C116.579 152.631 116.779 152.731 117.279 152.831V152.731C117.079 152.631 116.779 152.531 116.579 152.531ZM117.779 138.031C117.779 138.131 118.279 138.231 119.179 138.431H119.279V138.331C119.079 138.131 118.779 137.931 118.379 137.931H118.279C117.879 137.931 117.779 137.931 117.779 138.031ZM118.579 152.931H118.479V153.031H118.579V152.931ZM119.779 153.731L119.079 153.631H118.879C118.679 153.631 118.579 153.631 118.579 153.731V153.831L118.679 153.931H119.279C119.979 153.931 120.779 153.831 121.679 153.531C121.679 153.431 121.479 153.331 121.279 153.331H121.079C120.679 153.431 120.179 153.531 119.779 153.731ZM120.179 137.531H119.179V137.631C119.179 137.731 119.679 137.831 120.579 137.831V137.731C120.579 137.631 120.379 137.631 120.179 137.531ZM119.779 138.231C121.079 139.031 121.779 139.331 121.779 139.331L122.079 139.231L122.279 139.331V139.231C122.179 139.131 121.979 139.131 121.679 139.031L120.979 138.731C120.779 138.331 120.479 138.131 119.879 138.131H119.779C119.879 138.131 119.779 138.231 119.779 138.231ZM121.879 143.331H121.779V143.431H121.879V143.331ZM121.779 144.231C121.779 144.331 121.979 144.331 122.379 144.331H122.679V144.231C122.679 144.131 122.479 144.131 122.079 144.131C121.879 144.231 121.779 144.231 121.779 144.231ZM121.779 151.931C121.979 151.831 122.079 151.731 122.179 151.631C121.879 151.731 121.779 151.831 121.779 151.931ZM122.079 153.431C122.279 153.431 122.479 153.231 122.579 152.931H122.479C122.279 153.031 122.079 153.231 122.079 153.431ZM122.379 139.931C122.379 140.131 122.479 140.231 122.679 140.231H122.779L122.879 140.131V139.931L122.779 139.731C122.479 139.731 122.379 139.731 122.379 139.931ZM122.879 150.831H122.979C123.179 150.831 123.379 150.731 123.479 150.431V150.331C123.179 150.431 122.979 150.531 122.879 150.831ZM123.279 140.331H123.179C123.379 141.031 123.579 141.431 123.679 141.531H123.779L123.879 141.431C123.679 140.731 123.479 140.431 123.279 140.331ZM123.579 148.931L123.679 149.031H123.879C123.979 149.031 124.079 149.031 124.079 148.931L123.979 148.831C123.779 148.731 123.679 148.831 123.579 148.931ZM123.779 152.131H123.879C124.079 151.931 124.179 151.831 124.179 151.731C123.979 151.731 123.779 151.931 123.779 152.131ZM124.379 141.831L124.279 141.931V142.131L124.379 142.231C124.479 142.231 124.479 142.131 124.479 142.031V141.931V141.831H124.379ZM124.479 151.131L124.579 151.231C124.879 151.131 125.079 150.931 125.079 150.831V150.731C124.679 150.731 124.479 150.931 124.479 151.131ZM125.179 150.831H125.279C125.379 150.731 125.479 150.631 125.479 150.431H125.379C125.279 150.531 125.179 150.631 125.179 150.831ZM126.379 150.431C126.379 150.731 126.479 150.931 126.679 150.931L126.779 150.831C126.679 150.631 126.579 150.431 126.379 150.431Z" fill="#EDE0F9"/>
<path d="M144.979 128.131H146.479C147.379 128.331 147.879 128.431 147.879 128.531C147.879 128.531 147.979 128.831 147.979 129.531C148.179 129.831 148.379 130.031 148.379 130.131C148.279 131.231 148.179 133.431 148.079 136.731C148.079 136.731 147.979 136.831 147.979 137.031C147.779 137.131 147.679 137.231 147.679 137.431V137.931C147.679 138.331 147.579 138.931 147.379 139.431V139.931C147.379 140.031 147.479 140.131 147.779 140.131V140.331C147.479 143.131 147.279 145.031 147.279 145.931C147.279 146.931 147.179 147.431 147.079 147.431V147.531C147.179 147.531 147.279 147.631 147.279 147.931V148.131V148.231C147.279 148.631 147.179 149.731 146.879 151.331V152.131C147.979 152.331 148.579 152.731 148.579 153.131L148.379 153.331V153.631L148.579 153.931C148.379 154.431 147.779 154.631 146.679 154.631H146.479L146.279 154.331H145.879L144.979 154.531H143.679C143.579 154.531 143.479 153.931 143.379 152.831L143.479 151.731C143.179 151.731 142.779 151.931 142.079 152.431C140.179 153.431 138.579 154.031 137.179 154.131C135.879 153.831 134.679 153.131 133.679 152.231C133.379 151.931 132.979 151.331 132.679 150.631C132.279 150.031 132.079 149.731 132.079 149.631V149.531H132.179C132.379 149.631 132.579 150.031 133.079 150.631H133.279V150.231C133.279 149.831 133.079 149.231 132.579 148.631H132.379C132.279 148.631 132.179 148.831 132.179 149.231H132.079L131.979 149.031C131.979 148.131 132.079 147.631 132.079 147.331H132.279V147.631H132.379C132.479 147.631 132.579 147.431 132.579 147.331V146.731L132.479 146.631C132.379 146.631 132.379 146.731 132.379 146.931L132.179 147.131C132.179 147.131 132.079 147.031 132.079 146.931C132.079 145.231 132.579 143.431 133.679 141.531C134.179 140.631 134.679 139.931 135.179 139.431C135.879 138.831 136.979 138.431 138.579 138.431H138.879C141.279 138.431 143.179 139.031 144.679 140.231L144.879 140.331H144.979C145.179 139.331 145.379 136.831 145.579 132.831C145.679 132.631 145.779 132.531 145.879 132.531C145.179 132.031 144.679 131.831 144.379 131.831C144.179 131.831 144.079 131.031 143.979 129.531C143.979 129.531 144.179 129.431 144.479 129.431V129.331C144.479 129.231 144.379 129.231 144.179 129.231C144.079 129.131 143.979 129.131 143.979 129.031C143.979 128.831 144.279 128.731 144.779 128.731V128.631L144.679 128.531V128.431L144.979 128.131ZM133.479 145.931C133.479 146.031 133.479 146.031 133.579 146.031C133.779 146.031 133.879 145.831 133.879 145.331V145.131H133.779C133.679 145.131 133.579 145.431 133.479 145.931ZM133.779 142.931V143.031H133.879C133.979 143.031 134.179 142.731 134.279 142.231C134.979 141.331 135.379 140.831 135.579 140.831L135.679 140.631H135.479C135.379 140.631 134.979 140.831 134.379 141.331C134.079 141.931 133.879 142.431 133.779 142.931ZM134.079 151.431H133.879V151.531C133.879 151.631 134.279 151.731 134.979 151.831V151.731C134.479 151.631 134.179 151.431 134.079 151.431ZM133.979 147.631V148.131C133.979 148.431 134.379 149.331 135.279 150.831C135.879 151.131 136.579 151.331 137.279 151.331C138.779 151.331 140.279 150.931 141.779 150.231C142.379 149.331 142.879 148.831 143.379 148.831C143.579 148.631 143.879 147.731 144.179 146.331C144.379 145.931 144.479 145.531 144.479 145.131V144.731C144.479 143.831 144.379 143.331 144.079 143.331C143.579 142.831 143.279 142.631 143.279 142.531L143.379 142.331C143.379 142.231 143.079 142.131 142.379 141.931L142.179 141.831V141.731H142.679C142.679 141.531 141.479 141.431 138.979 141.331L138.479 141.231C136.679 141.431 135.779 141.631 135.779 141.931C134.979 142.931 134.379 144.131 134.179 145.531C134.079 146.331 133.979 147.031 133.979 147.631ZM134.879 152.031L134.779 152.131C134.779 152.331 135.479 152.631 136.779 152.831H136.979L137.079 152.731C137.079 152.531 136.479 152.231 135.179 152.031H134.879ZM135.279 140.131V140.231H135.379H135.479C136.279 140.031 136.679 139.831 136.679 139.531C136.679 139.431 136.579 139.431 136.379 139.431H136.179C135.779 139.531 135.479 139.731 135.279 140.131ZM136.879 153.431V153.531V153.631H137.279C137.679 153.631 138.179 153.531 138.879 153.431V153.331L137.879 153.231C137.179 153.231 136.879 153.331 136.879 153.431ZM137.579 139.131L137.479 139.231V139.431L137.579 139.531H137.779L137.979 139.431V139.331L137.879 139.231H137.579V139.131ZM137.579 140.831L137.479 140.931H137.779L137.879 140.831H137.579ZM138.279 151.731V151.831H138.679C140.179 151.731 140.979 151.531 141.079 151.231V151.131H140.979C139.279 151.331 138.379 151.531 138.279 151.731ZM138.679 140.631V140.731H138.779L138.879 140.631H138.679ZM139.079 152.431L139.179 152.531H139.379C140.079 152.531 140.479 152.431 140.479 152.331L140.379 152.231H139.779C139.279 152.331 139.079 152.331 139.079 152.431ZM139.279 141.031H139.379L140.079 140.931V140.831H139.879C139.479 140.831 139.279 140.931 139.279 141.031ZM139.479 139.531L139.579 139.631H141.079V139.531C140.979 139.431 140.579 139.331 139.979 139.331H139.679C139.579 139.231 139.479 139.331 139.479 139.531ZM141.079 140.831L140.979 140.931L141.079 141.031H141.279L141.379 140.931C141.279 140.831 141.279 140.831 141.079 140.831ZM141.579 151.231V151.331C141.779 151.231 141.979 151.131 142.079 150.931V150.831L141.979 150.731H141.879C141.879 150.831 141.779 151.031 141.579 151.231ZM142.479 139.831H141.979H141.879V139.931C142.379 140.131 142.779 140.231 142.879 140.231C142.979 140.031 142.779 139.931 142.479 139.831ZM142.579 140.831H142.479L142.579 140.931V140.831ZM143.379 141.031H142.979C142.979 141.131 143.279 141.231 143.979 141.431V141.331C143.779 141.131 143.579 141.031 143.379 141.031ZM143.779 142.331L143.679 142.431V142.731L143.879 142.931H143.979C144.079 142.931 144.079 142.831 144.079 142.631C144.079 142.431 143.979 142.331 143.779 142.331ZM144.079 150.931V151.131C144.179 151.131 144.279 151.231 144.279 151.431H144.379L144.579 151.231V150.931C144.479 150.831 144.479 150.731 144.479 150.631H144.379C144.179 150.731 144.079 150.831 144.079 150.931ZM144.279 152.131L144.079 152.231V152.331H144.179L144.279 152.131ZM144.979 130.431L144.879 130.531V130.631L145.079 130.731C145.179 130.731 145.279 130.731 145.279 130.631L145.179 130.531H144.979V130.431ZM144.979 129.631V129.731H145.379L145.279 129.631H144.979ZM145.679 140.031H145.579C145.579 140.231 145.579 140.331 145.679 140.331V140.231V140.031ZM145.879 130.531L145.979 130.631C146.479 130.631 146.779 130.531 146.779 130.431L146.679 130.331H146.279C146.079 130.331 145.879 130.431 145.879 130.531ZM145.879 151.131L145.779 151.431V151.831L145.879 151.931H145.979L146.079 151.831V151.531C146.079 151.331 145.979 151.231 145.879 151.131ZM146.179 152.431H145.979V152.531L146.079 152.631H146.279V152.531L146.179 152.431ZM146.679 153.431C146.679 153.531 146.779 153.531 146.979 153.531H147.679L147.879 153.431V153.331C147.879 153.231 147.779 153.231 147.479 153.131C146.979 153.331 146.679 153.331 146.679 153.431ZM146.879 129.931L146.779 130.031H147.279V129.931H147.079H146.879ZM147.579 139.431V139.231H147.779V139.431H147.579Z" fill="#EDE0F9"/>
<path d="M154.079 132.231L154.479 132.331C155.579 132.231 158.279 132.231 162.379 132.231L163.979 132.731C164.979 132.831 165.679 133.031 166.079 133.331C167.779 134.831 168.579 136.031 168.579 137.131C168.479 137.731 168.279 138.631 167.879 139.831C167.079 140.631 166.379 141.331 165.679 141.831C165.679 142.031 165.879 142.231 166.279 142.331C166.479 142.531 166.879 142.631 167.379 142.831C167.679 143.131 168.079 143.631 168.679 144.431C169.479 145.231 169.979 146.231 170.079 147.331V147.731C170.079 147.931 169.979 148.031 169.879 148.031C169.879 148.131 169.979 148.431 170.279 148.931V149.231C170.279 149.431 170.079 149.831 169.779 150.531C169.779 150.831 169.579 151.031 169.079 151.131C168.779 151.131 168.479 151.331 168.179 151.731V151.831C168.179 151.831 168.279 151.931 168.479 151.931C168.479 152.031 168.379 152.131 168.279 152.131C168.279 152.031 168.279 151.931 168.179 151.931C168.179 151.931 168.079 152.031 168.079 152.231C167.679 152.231 167.179 152.431 166.679 152.731V152.831H166.779C166.879 152.831 167.279 152.731 167.779 152.531C167.479 152.831 166.779 153.131 165.779 153.331C164.379 153.931 161.479 154.331 157.179 154.331V154.231V154.031C156.179 154.031 155.179 154.231 154.379 154.631C153.979 154.631 153.879 154.031 153.879 152.831C153.879 152.631 154.579 152.331 155.879 152.031C156.879 151.931 157.379 151.831 157.379 151.731C157.279 151.731 157.079 150.831 156.879 148.931C156.879 148.231 156.779 147.731 156.679 147.431C156.679 147.231 156.779 146.831 156.979 146.431C156.979 144.831 156.779 144.031 156.579 144.031C156.479 144.031 156.379 142.231 156.279 138.531V135.131C155.779 134.931 155.479 134.831 155.279 134.831H155.079C154.879 134.831 154.779 134.931 154.779 135.031V135.131V135.431C154.779 135.431 154.579 135.831 154.279 136.531V136.631H153.779C153.679 136.531 153.479 136.431 153.179 136.431C152.979 136.431 152.879 135.731 152.779 134.431C152.679 134.031 152.579 133.631 152.379 133.131C152.679 132.631 153.079 132.431 153.479 132.431C153.079 132.331 153.379 132.331 154.079 132.231ZM154.979 153.631H154.879C154.879 153.731 154.979 153.831 155.179 153.831L155.279 153.631H155.179H154.979ZM155.679 133.231L156.579 133.531H156.679C156.779 133.531 156.879 133.431 156.979 133.331C156.979 133.231 156.679 133.131 156.179 133.131C155.879 133.131 155.679 133.131 155.679 133.231ZM156.279 138.131L156.179 138.231V138.531L156.279 138.631L156.379 138.531V138.431C156.379 138.231 156.379 138.131 156.279 138.131ZM156.479 153.131H156.279V153.331H156.479H156.679H156.879V153.131H156.679H156.479ZM157.379 151.931H157.179C157.179 152.031 157.279 152.031 157.379 152.031V151.931ZM157.179 133.331H158.179C158.979 133.331 159.479 133.231 159.479 133.031C159.479 133.031 159.379 132.931 159.279 132.931C157.979 133.031 157.279 133.131 157.179 133.331ZM157.779 134.331L157.879 134.531H157.979C159.079 134.431 159.779 134.331 159.779 134.131L159.679 134.031C158.479 134.131 157.779 134.231 157.779 134.331ZM158.079 135.231C158.279 140.031 158.379 142.431 158.579 142.431L158.679 142.531L161.679 141.831C162.979 141.631 163.679 141.431 163.679 141.331C165.279 140.031 166.079 139.231 166.079 138.731V138.531C165.879 137.231 165.679 136.531 165.679 136.431C165.679 135.831 165.279 135.331 164.479 134.831C164.179 134.731 163.679 134.731 162.879 134.731C159.679 134.731 158.079 135.031 158.079 135.231ZM158.379 144.631L158.279 144.831V145.531C158.379 149.331 158.579 151.531 158.779 152.031C158.879 152.431 159.179 152.631 159.579 152.631L162.579 152.731C163.779 152.631 165.279 152.131 166.979 151.231C167.779 150.431 168.279 149.831 168.279 149.531C168.379 149.531 168.379 149.431 168.479 149.231V149.131C168.479 148.131 168.179 147.031 167.579 145.931C166.979 145.231 166.479 144.931 166.079 144.931H165.779C165.679 144.931 165.579 144.831 165.579 144.831C165.579 144.731 165.679 144.731 165.779 144.731V144.631C165.579 144.431 165.379 144.331 165.079 144.331L165.279 144.531V144.631H165.179C164.179 144.331 163.279 144.131 162.679 144.131H162.479C160.879 144.031 159.579 144.231 158.379 144.631ZM158.479 144.131L158.579 144.231C159.179 144.131 159.379 144.031 159.379 143.931H159.279C159.079 143.931 158.779 144.031 158.479 144.131ZM159.579 153.431L159.679 153.531L159.579 153.431ZM160.179 143.731H160.079V143.831L160.179 143.731ZM160.379 133.131H160.179V133.231H160.379V133.131ZM160.379 142.631H160.479C161.879 142.531 162.579 142.431 162.579 142.231H162.379C161.179 142.331 160.479 142.431 160.379 142.631ZM160.579 143.831C160.579 143.831 160.579 143.931 160.679 143.931C161.279 143.931 161.879 143.831 162.579 143.631H163.779H164.179H164.379V143.531C164.379 143.431 164.079 143.331 163.379 143.331H162.779C161.579 143.331 160.879 143.531 160.579 143.831ZM163.979 142.631C164.479 142.731 165.079 142.831 165.779 143.031C165.879 143.031 165.879 143.031 165.879 142.931C165.779 142.631 165.479 142.431 164.979 142.431H164.579C164.179 142.431 163.979 142.431 163.979 142.631ZM165.279 141.131L165.179 141.231H165.279V141.131ZM165.279 143.731L165.179 143.831H165.279V143.731ZM165.779 134.931H165.479V135.031C165.879 135.431 166.079 135.931 166.079 136.531C166.279 137.131 166.379 137.531 166.479 137.631H166.579V137.331C166.379 135.731 166.079 134.931 165.779 134.931ZM165.779 133.931L165.679 134.031L165.779 134.231H165.979L166.079 134.131L165.979 133.931H165.779ZM165.979 152.531V152.631H166.079C166.279 152.631 166.379 152.531 166.479 152.331V152.231C166.179 152.331 165.979 152.431 165.979 152.531ZM166.379 143.131C166.679 143.431 166.879 143.631 167.079 143.631C167.079 143.331 166.879 143.231 166.379 143.131ZM166.879 152.131L166.979 152.231C167.279 152.231 167.479 152.031 167.679 151.731C167.079 151.831 166.879 152.031 166.879 152.131ZM167.079 136.431L166.979 136.531V136.631H167.079L167.279 136.431L167.179 136.331H167.079V136.431ZM167.279 137.231L167.179 137.131V137.331L167.279 137.431H167.379V137.231H167.279ZM167.279 144.231L167.179 144.331C167.279 144.631 167.579 145.031 167.979 145.331H168.079V145.231C168.079 144.931 167.779 144.631 167.279 144.231ZM167.679 135.631H167.579V135.731L167.779 135.831H167.879V135.731L167.679 135.631Z" fill="#EDE0F9"/>
<path d="M183.079 137.531L183.979 137.831H184.279C185.579 138.431 186.779 139.231 187.879 140.031C188.979 141.031 189.579 141.731 189.579 142.231H189.479C189.279 141.931 189.079 141.731 188.979 141.731C188.879 141.731 188.879 141.731 188.879 141.831C188.979 142.031 189.179 142.531 189.479 143.131H189.579C189.579 143.131 189.679 143.031 189.779 142.831C189.879 142.831 189.879 143.131 189.979 143.831L190.279 144.531L190.179 144.931L190.279 146.131C190.079 146.731 189.979 147.431 189.879 148.331C189.779 148.731 188.779 150.331 186.779 153.131C185.879 153.931 184.979 154.431 184.179 154.431C183.379 154.531 182.479 154.531 181.579 154.531H180.879C180.479 154.531 179.479 154.231 177.879 153.531C175.879 151.731 174.879 150.331 174.879 149.331C174.579 148.731 174.379 148.131 174.179 147.631C174.179 147.331 174.479 146.331 175.079 144.731C175.079 143.731 175.279 143.031 175.779 142.631C176.779 140.331 178.179 138.931 179.779 138.231C181.179 137.831 182.279 137.531 183.079 137.531ZM174.679 147.431L174.579 147.531C174.579 147.731 174.679 147.831 174.679 147.831H174.779V147.631L174.679 147.431ZM175.479 149.031L175.379 149.131V149.331C175.379 150.131 175.679 150.531 175.979 150.631C175.879 149.531 175.679 149.031 175.479 149.031ZM175.679 143.831C175.779 143.831 175.879 143.731 175.979 143.631V143.531C175.779 143.531 175.679 143.631 175.679 143.831ZM176.379 142.731C176.479 142.731 176.579 142.631 176.579 142.431H176.479C176.379 142.431 176.379 142.531 176.379 142.731ZM176.579 146.731L176.479 146.831V146.931H176.579L176.679 146.831L176.579 146.731ZM176.679 151.231L176.579 151.331V151.431L176.879 151.731H176.979C176.979 151.531 176.879 151.331 176.679 151.231ZM177.079 148.131V148.331C177.379 148.931 177.779 149.631 178.079 150.231C178.079 150.431 178.479 150.731 179.379 151.131C179.779 151.631 180.579 151.931 181.579 152.231L182.179 152.331C183.179 152.131 183.879 151.931 184.379 151.731L185.579 150.731C186.879 149.431 187.479 148.231 187.379 147.331V147.031C187.279 146.631 187.179 146.131 187.179 145.331C187.179 144.731 187.179 144.231 187.279 143.831C187.279 143.631 186.879 143.331 185.979 142.631C185.379 141.731 184.679 141.231 184.079 141.031H183.679C181.079 141.131 179.779 141.331 179.779 141.631C179.179 142.231 178.779 142.831 178.579 143.331C177.879 144.131 177.479 144.631 177.479 144.831C177.379 145.731 177.179 146.831 177.079 148.131ZM177.379 152.431H177.179V152.531C177.479 152.831 177.979 152.931 178.779 152.931H179.179C178.979 152.831 178.479 152.631 177.379 152.431ZM177.679 142.431V142.631H177.779C178.079 142.331 178.179 142.131 178.179 142.031H177.979C177.879 142.131 177.779 142.231 177.679 142.431ZM178.079 140.031L177.979 140.231V140.331C178.079 140.331 178.779 139.831 179.979 138.931L180.279 138.831H180.479C181.979 138.631 182.679 138.531 182.679 138.431L182.179 138.331C180.679 138.231 179.379 138.831 178.079 140.031ZM178.379 140.731C178.579 140.731 178.779 140.631 178.979 140.331V140.231C178.579 140.331 178.379 140.531 178.379 140.731ZM178.479 141.631H178.379V141.731H178.479V141.631ZM178.979 153.331H179.379L179.479 153.231L179.379 153.131H179.279C179.179 153.231 178.979 153.231 178.979 153.331ZM179.679 152.831V152.931C179.679 153.031 179.979 153.131 180.579 153.131V153.031C180.379 152.931 180.079 152.831 179.679 152.831ZM180.679 139.531V139.731C182.379 139.531 183.279 139.431 183.279 139.331L182.979 139.231C181.879 139.231 181.179 139.331 180.679 139.531ZM180.779 140.731L180.879 140.831H181.379L183.779 140.331V140.231L183.179 140.131C181.479 140.231 180.779 140.431 180.779 140.731ZM182.979 153.631C182.979 153.731 183.179 153.831 183.479 153.831C183.879 153.831 184.079 153.731 184.079 153.631V153.531C184.079 153.431 183.979 153.331 183.879 153.231H183.579C183.279 153.431 183.079 153.431 182.979 153.631ZM183.479 138.231C183.579 138.531 183.879 138.731 184.179 138.731H184.479H184.579V138.531C184.579 138.331 184.379 138.131 183.879 138.131C183.679 138.131 183.479 138.231 183.479 138.231ZM183.579 139.731L183.879 139.531H183.779C183.579 139.631 183.579 139.631 183.579 139.731ZM184.179 139.431C184.579 139.831 184.879 139.931 185.079 139.931V139.831C184.779 139.531 184.479 139.431 184.179 139.431ZM184.779 153.931C185.179 153.831 185.379 153.731 185.379 153.631L185.279 153.531C184.979 153.631 184.779 153.731 184.779 153.931ZM185.279 140.931C185.379 141.131 185.579 141.231 185.779 141.231V141.131V141.031C185.779 140.831 185.679 140.731 185.479 140.731C185.379 140.831 185.279 140.831 185.279 140.931ZM185.879 139.031L185.779 139.131C185.979 139.431 186.279 139.631 186.479 139.631C186.479 139.331 186.279 139.131 185.879 139.031ZM186.379 140.531C186.479 140.831 186.779 141.131 187.279 141.431H187.379L187.479 141.331C187.379 141.131 186.979 140.831 186.379 140.531ZM187.079 141.531H186.979C187.079 141.831 187.479 142.031 187.979 142.231H188.079L188.179 142.131C187.779 141.731 187.479 141.531 187.079 141.531ZM188.479 149.731C188.679 149.731 188.779 149.631 188.979 149.231V149.131H188.879C188.779 149.131 188.579 149.331 188.479 149.731ZM189.079 149.131H189.279L189.379 149.231C189.379 148.831 189.379 148.731 189.179 148.731H189.079V148.531V149.131ZM189.279 147.331C189.279 148.031 189.379 148.331 189.479 148.431H189.579C189.579 148.231 189.679 147.931 189.879 147.631V147.531L189.479 147.031H189.379C189.379 146.931 189.379 147.031 189.279 147.331ZM189.879 144.931L189.779 145.031V145.131L189.879 145.231L189.979 145.131V145.031L189.879 144.931Z" fill="#EDE0F9"/>
<path d="M203.479 137.531L204.379 137.831H204.679C205.979 138.431 207.179 139.231 208.279 140.031C209.379 141.031 209.979 141.731 209.979 142.231H209.879C209.679 141.931 209.479 141.731 209.379 141.731C209.279 141.731 209.279 141.731 209.279 141.831C209.379 142.031 209.579 142.531 209.879 143.131H209.979C209.979 143.131 210.079 143.031 210.179 142.831C210.279 142.831 210.279 143.131 210.379 143.831L210.679 144.531L210.579 144.931L210.679 146.131C210.479 146.731 210.379 147.431 210.279 148.331C210.179 148.731 209.179 150.331 207.179 153.131C206.279 153.931 205.379 154.431 204.579 154.431C203.779 154.531 202.879 154.531 201.979 154.531H201.379C200.979 154.531 199.979 154.231 198.379 153.531C196.379 151.731 195.379 150.331 195.379 149.331C195.079 148.731 194.879 148.131 194.679 147.631C194.679 147.331 194.979 146.331 195.579 144.731C195.579 143.731 195.779 143.031 196.279 142.631C197.279 140.331 198.679 138.931 200.279 138.231C201.479 137.831 202.579 137.531 203.479 137.531ZM194.979 147.431L194.879 147.531C194.879 147.731 194.979 147.831 194.979 147.831H195.079V147.631L194.979 147.431ZM195.779 149.031L195.679 149.131V149.331C195.679 150.131 195.979 150.531 196.279 150.631C196.179 149.531 195.979 149.031 195.779 149.031ZM195.979 143.831C196.079 143.831 196.179 143.731 196.279 143.631V143.531C196.079 143.531 195.979 143.631 195.979 143.831ZM196.679 142.731C196.779 142.731 196.879 142.631 196.879 142.431H196.779C196.679 142.431 196.679 142.531 196.679 142.731ZM196.879 146.731L196.779 146.831V146.931H196.879L196.979 146.831L196.879 146.731ZM197.079 151.231L196.979 151.331V151.431L197.279 151.731H197.379C197.279 151.531 197.179 151.331 197.079 151.231ZM197.379 148.131V148.331C197.679 148.931 198.079 149.631 198.379 150.231C198.379 150.431 198.779 150.731 199.679 151.131C200.079 151.631 200.879 151.931 201.879 152.231L202.479 152.331C203.479 152.131 204.179 151.931 204.679 151.731L205.879 150.731C207.179 149.431 207.779 148.231 207.679 147.331V147.031C207.579 146.631 207.479 146.131 207.479 145.331C207.479 144.731 207.479 144.231 207.579 143.831C207.579 143.631 207.179 143.331 206.279 142.631C205.679 141.731 204.979 141.231 204.379 141.031H203.979C201.379 141.131 200.079 141.331 200.079 141.631C199.479 142.231 199.079 142.831 198.879 143.331C198.179 144.131 197.779 144.631 197.779 144.831C197.679 145.731 197.479 146.831 197.379 148.131ZM197.779 152.431H197.579V152.531C197.879 152.831 198.379 152.931 199.179 152.931H199.579C199.379 152.831 198.779 152.631 197.779 152.431ZM197.979 142.431V142.631H198.079C198.379 142.331 198.479 142.131 198.479 142.031H198.279C198.279 142.131 198.079 142.231 197.979 142.431ZM198.479 140.031L198.379 140.231V140.331C198.479 140.331 199.179 139.831 200.379 138.931L200.679 138.831H200.879C202.379 138.631 203.079 138.531 203.079 138.431L202.579 138.331C201.079 138.231 199.679 138.831 198.479 140.031ZM198.679 140.731C198.879 140.731 199.079 140.631 199.279 140.331V140.231C198.879 140.331 198.679 140.531 198.679 140.731ZM198.879 141.631H198.779V141.731H198.879V141.631ZM199.279 153.331H199.679L199.779 153.231L199.679 153.131H199.579C199.479 153.231 199.379 153.231 199.279 153.331ZM199.979 152.831V152.931C199.979 153.031 200.279 153.131 200.879 153.131V153.031C200.679 152.931 200.379 152.831 199.979 152.831ZM200.979 139.531V139.731C202.679 139.531 203.579 139.431 203.579 139.331L203.279 139.231C202.179 139.231 201.479 139.331 200.979 139.531ZM201.079 140.731L201.179 140.831H201.679L204.079 140.331V140.231L203.479 140.131C201.779 140.231 201.079 140.431 201.079 140.731ZM203.279 153.631C203.279 153.731 203.479 153.831 203.779 153.831C204.179 153.831 204.379 153.731 204.379 153.631V153.531C204.379 153.431 204.279 153.331 204.179 153.231H203.879C203.579 153.431 203.379 153.431 203.279 153.631ZM203.879 138.231C203.979 138.531 204.279 138.731 204.579 138.731H204.879H204.979V138.531C204.979 138.331 204.779 138.131 204.279 138.131C203.979 138.131 203.879 138.231 203.879 138.231ZM203.879 139.731L204.179 139.531H204.079C203.979 139.631 203.879 139.631 203.879 139.731ZM204.479 139.431C204.879 139.831 205.179 139.931 205.379 139.931V139.831C205.079 139.531 204.779 139.431 204.479 139.431ZM205.079 153.931C205.479 153.831 205.679 153.731 205.679 153.631L205.579 153.531C205.379 153.631 205.179 153.731 205.079 153.931ZM205.579 140.931C205.679 141.131 205.879 141.231 206.079 141.231V141.131V141.031C206.079 140.831 205.979 140.731 205.779 140.731C205.679 140.831 205.579 140.831 205.579 140.931ZM206.179 139.031L206.079 139.131C206.279 139.431 206.579 139.631 206.779 139.631C206.779 139.331 206.579 139.131 206.179 139.031ZM206.679 140.531C206.779 140.831 207.079 141.131 207.579 141.431H207.679L207.779 141.331C207.679 141.131 207.279 140.831 206.679 140.531ZM207.379 141.531H207.279C207.379 141.831 207.779 142.031 208.279 142.231H208.379L208.479 142.131C208.079 141.731 207.779 141.531 207.379 141.531ZM208.779 149.731C208.979 149.731 209.079 149.631 209.279 149.231V149.131H209.179C209.079 149.131 208.979 149.331 208.779 149.731ZM209.379 149.131H209.579L209.679 149.231C209.679 148.831 209.679 148.731 209.479 148.731H209.379V148.531V149.131ZM209.679 147.331C209.679 148.031 209.779 148.331 209.879 148.431H209.979C209.979 148.231 210.079 147.931 210.279 147.631V147.531L209.879 147.031H209.779C209.679 146.931 209.679 147.031 209.679 147.331ZM210.179 144.931L210.079 145.031V145.131L210.179 145.231L210.279 145.131V145.031L210.179 144.931Z" fill="#EDE0F9"/>
<path d="M214.679 128.131H214.879H215.179C217.179 128.331 218.279 128.631 218.679 128.931C218.879 128.931 218.979 129.331 219.079 130.231L218.879 130.531V130.631C219.079 130.931 219.279 132.331 219.379 134.831C219.379 139.231 219.479 142.131 219.779 143.431H219.879C221.079 142.431 222.979 141.131 225.479 139.331C225.679 139.331 225.879 138.331 225.979 136.331C225.979 135.831 226.179 135.631 226.679 135.631L227.979 135.531C229.979 135.531 231.179 135.731 231.579 136.131V136.231L231.479 136.331C231.079 136.131 230.779 136.131 230.579 136.131L230.479 136.231C230.479 136.331 230.779 136.431 231.479 136.531C231.679 136.531 231.779 137.031 231.779 138.131C231.779 138.531 231.579 138.731 231.279 138.731C231.179 138.731 230.979 138.931 230.779 139.231H230.679H229.979H229.879C229.879 139.431 229.579 139.731 229.079 139.931C228.979 139.931 228.979 140.031 228.979 140.131L229.079 140.331L225.879 142.731V142.831C225.879 142.931 226.979 145.231 229.179 149.631C229.479 150.231 229.679 150.831 229.779 151.131H229.579L229.379 150.931H229.279C229.279 151.231 229.679 151.331 230.579 151.331C232.079 151.331 232.779 151.431 232.779 151.731L232.479 152.031C232.779 152.531 232.879 153.231 232.879 154.231C232.879 154.531 232.679 154.731 232.379 154.731H232.079C231.579 154.631 230.279 154.631 228.179 154.631H227.979C227.679 154.631 227.479 154.331 227.379 153.631C227.279 152.431 226.979 151.431 226.679 150.431C226.179 149.231 225.379 147.731 224.479 145.731C224.079 144.631 223.779 144.031 223.579 144.031C223.179 144.031 222.579 144.431 221.779 145.031C221.479 145.231 221.279 145.431 221.179 145.431C221.079 145.431 220.979 145.331 220.979 145.331L221.079 145.131H220.879C220.779 145.131 220.579 145.431 220.479 146.031V146.231C220.279 146.331 220.179 146.531 220.179 146.831L220.279 150.431C220.279 150.731 220.779 150.931 221.679 151.031C221.879 151.131 222.179 151.331 222.679 151.531L222.779 151.831V152.331V152.731L222.879 153.231V153.331C222.779 153.531 222.579 153.631 222.379 153.731H222.179V153.831C222.179 154.031 222.379 154.131 222.679 154.231V154.331C222.679 154.431 222.579 154.431 222.279 154.531L220.679 154.131C218.479 154.031 217.079 153.931 216.479 153.731L215.979 153.831C215.679 153.731 215.579 153.331 215.579 152.731V152.531C215.579 152.131 215.779 151.831 216.079 151.631H216.179V152.131L216.279 152.231H216.679L216.579 152.031V151.931H216.879H217.179L216.779 151.531L217.279 151.431V151.331C217.279 151.231 217.179 151.231 216.979 151.231H216.879L216.179 151.331V151.231C216.179 151.031 216.679 150.931 217.679 150.731C217.879 150.631 218.279 150.631 218.779 150.531L218.879 150.431C218.879 150.431 218.679 150.331 218.379 150.331C218.179 150.331 218.079 149.331 218.079 147.431C217.979 145.131 217.779 143.531 217.479 142.631C217.379 137.031 217.179 133.731 216.979 132.631C216.979 132.531 216.579 132.531 215.779 132.431L214.779 132.631C214.579 132.431 214.379 132.231 214.379 132.031L214.279 129.931V129.831C214.279 129.531 214.379 129.331 214.379 129.331L214.779 129.431V129.331C214.779 129.231 214.679 129.031 214.479 128.831V128.631C214.679 128.631 214.779 128.631 214.779 128.531L214.679 128.331V128.131ZM215.679 130.631C215.679 130.831 215.879 130.831 216.179 130.931V131.031C215.779 131.031 215.579 131.131 215.579 131.231V131.331L215.679 131.431H215.979C216.279 131.431 216.579 131.231 216.679 130.831L216.779 130.731C216.779 130.631 216.479 130.531 215.979 130.531H215.879C215.779 130.531 215.679 130.531 215.679 130.631ZM216.479 152.531V152.631H218.079H218.279C218.979 152.631 219.379 152.531 219.379 152.431V152.331C219.379 152.331 219.179 152.231 218.679 152.231C217.379 152.431 216.679 152.431 216.479 152.531ZM217.579 153.031L217.479 153.131L221.079 153.631V153.531C221.079 153.231 220.379 153.031 219.079 153.031H217.579ZM217.779 130.031C217.879 130.331 217.979 130.431 218.179 130.431C218.379 130.231 218.379 130.031 218.379 129.831H218.279C218.079 129.831 217.879 129.931 217.779 130.031ZM218.279 133.531L218.179 133.631V134.331C218.179 134.831 218.279 135.131 218.379 135.131L218.479 135.031V134.531C218.579 133.931 218.479 133.531 218.279 133.531ZM218.279 138.431L218.179 138.631L218.279 138.731L218.379 138.631L218.279 138.431ZM218.979 152.131L218.879 152.231H218.979V152.131ZM219.179 144.031L219.079 144.231H219.179L219.279 144.131L219.179 144.031ZM219.079 147.031V147.531L219.179 147.631C219.379 147.631 219.479 147.531 219.479 147.331V146.731L219.379 146.631H219.279C219.079 146.631 219.079 146.731 219.079 147.031ZM219.079 145.731V146.031L219.179 146.131H219.279C219.379 146.131 219.479 145.931 219.479 145.731V145.631C219.479 145.431 219.479 145.131 219.379 144.931C219.179 144.931 219.079 145.131 219.079 145.731ZM219.079 150.331L219.279 150.531C219.379 150.531 219.479 150.431 219.479 150.231C219.479 150.031 219.479 150.031 219.379 150.031C219.179 150.131 219.079 150.231 219.079 150.331ZM219.479 148.331H219.379V148.531V148.831C219.479 148.831 219.479 148.731 219.479 148.531V148.331ZM220.079 143.931V144.031H220.179C220.479 144.031 220.679 143.931 220.879 143.631V143.531C220.579 143.531 220.379 143.731 220.079 143.931ZM220.179 152.131L220.079 152.231H220.279L220.179 152.131ZM220.479 152.831L220.379 152.931V153.031H220.879H221.079C221.079 152.831 220.879 152.831 220.479 152.831ZM221.179 152.131C221.379 152.431 221.579 152.531 221.879 152.531L221.979 152.431C221.879 152.131 221.779 152.031 221.679 151.931H221.579C221.379 151.931 221.279 152.031 221.179 152.131ZM221.479 144.731C221.979 144.631 222.379 144.331 222.679 144.031V143.931C221.879 144.331 221.479 144.631 221.479 144.731ZM221.579 153.531H221.479V153.631L221.579 153.731H221.879L221.979 153.631C221.779 153.531 221.779 153.531 221.579 153.531ZM222.479 151.731H222.379V151.831L222.479 151.931V151.731ZM224.079 143.931C224.279 144.331 224.379 144.531 224.579 144.531C224.579 144.031 224.379 143.831 224.179 143.831C224.179 143.731 224.079 143.831 224.079 143.931ZM225.379 145.731H225.279C225.479 146.531 225.879 147.531 226.479 148.531H226.679V148.431C226.679 147.931 226.279 147.031 225.379 145.731ZM225.879 141.531V141.631H225.979C226.779 141.431 227.879 140.731 229.079 139.731L229.179 139.631H229.079C227.979 139.931 226.879 140.631 225.879 141.531ZM225.879 140.031C225.979 140.031 226.379 139.831 226.979 139.431C227.179 139.431 227.279 139.331 227.279 139.231V139.131H227.079C226.879 139.131 226.479 139.431 225.879 140.031ZM226.279 138.531L226.379 138.631C226.579 138.631 226.679 138.631 226.679 138.531V138.431H226.579C226.379 138.431 226.279 138.431 226.279 138.531ZM226.379 137.731C226.379 138.031 226.479 138.131 226.479 138.131H226.679C226.779 138.131 226.779 138.131 226.779 138.031L226.579 137.631L226.779 137.031V136.931H226.679C226.479 137.131 226.379 137.331 226.379 137.731ZM226.879 148.931C226.979 149.531 227.179 149.931 227.379 150.031H227.479C227.479 149.831 227.279 149.431 226.879 148.931ZM227.179 135.831H226.979V135.931V136.031H227.179L227.279 135.931L227.179 135.831ZM227.179 146.931H227.079V147.031L227.179 147.131V146.931ZM228.179 151.131L228.279 151.331H228.579L228.679 151.231C228.579 151.131 228.479 151.031 228.379 151.031C228.179 151.031 228.179 151.031 228.179 151.131ZM229.379 138.031C229.379 138.131 229.779 138.131 230.479 138.231C230.679 138.231 230.879 138.131 230.879 138.031V137.931H230.679H229.979C229.579 137.931 229.379 137.931 229.379 138.031ZM229.879 154.231H229.979L230.679 154.331L231.479 154.231H231.579L231.679 154.131H231.479H230.179C229.979 154.131 229.879 154.131 229.879 154.231ZM230.179 152.431L230.079 152.531L230.279 152.631H230.379L230.479 152.531L230.379 152.431H230.179ZM231.079 152.631H230.779L230.979 152.731H231.179V152.631H231.079ZM232.279 152.031H232.179V152.231L232.279 152.331H232.379V152.131L232.279 152.031ZM232.279 153.131V153.731C232.379 153.731 232.379 153.531 232.379 153.031V152.731C232.279 152.831 232.279 152.931 232.279 153.131Z" fill="#EDE0F9"/>
</svg>
