<svg width="319" height="226" viewBox="0 0 319 226" fill="none" xmlns="http://www.w3.org/2000/svg">
<g filter="url(#filter0_d)">
<path d="M134.01 22.7405C133.302 24.9063 124.867 53.5587 124.867 53.5587L117.111 82.0062L132.359 56.7195C132.359 56.7195 147.341 31.4621 148.285 29.5597C153.416 18.9943 153.004 11.7361 149.052 9.86301C145.099 7.96065 137.343 12.3214 134.01 22.7405Z" fill="#73D676"/>
<path d="M142.534 32.9254C141.531 34.6521 128.849 57.656 128.849 57.656L116.816 80.6307L134.689 61.7827C134.689 61.7827 152.325 42.9055 153.475 41.4421C159.875 33.3351 160.878 27.0135 157.87 24.6721C154.862 22.3307 147.37 24.6136 142.534 32.9254Z" fill="#FFCF32"/>
<path d="M151.263 39.891C149.877 41.3543 132.359 60.9632 132.359 60.9632L115.459 80.6892L137.136 66.2898C137.136 66.2898 158.578 51.8026 160.052 50.632C168.133 44.1347 170.522 38.2227 168.104 35.2668C165.656 32.3108 157.87 32.8669 151.263 39.891Z" fill="#73D676"/>
<path d="M195.827 97.6641C195.827 124.648 172.174 146.54 143.005 146.54C113.837 146.54 90.184 124.648 90.184 97.6641C90.184 89.7912 92.219 83.7915 93.2808 81.1575C100.713 62.7192 121.24 48.4662 143.005 48.7881C168.222 49.1393 195.827 69.0409 195.827 97.6641Z" fill="#73D676"/>
<path d="M176.332 82.6793L177.07 81.5672L173.383 80.016L172.97 79.8404C172.675 79.7234 172.38 79.5478 172.085 79.4014C170.345 78.4064 168.281 77.9381 166.098 78.1722C161.497 78.6698 157.781 82.3574 157.339 86.9231C156.72 93.1277 161.94 98.2787 168.192 97.6641C172.823 97.1958 176.568 93.4789 177.011 88.884C177.188 87.0401 176.863 85.2841 176.126 83.733C176.008 83.4696 176.008 83.1769 176.155 82.9427L176.332 82.6793Z" fill="#3D3F3E"/>
<path d="M163.975 91.1668C166.304 91.1668 168.192 89.293 168.192 86.9816C168.192 84.6702 166.304 82.7964 163.975 82.7964C161.646 82.7964 159.757 84.6702 159.757 86.9816C159.757 89.293 161.646 91.1668 163.975 91.1668Z" fill="white"/>
<path d="M170.227 94.035C171.025 94.035 171.672 93.3929 171.672 92.6009C171.672 91.8088 171.025 91.1668 170.227 91.1668C169.429 91.1668 168.782 91.8088 168.782 92.6009C168.782 93.3929 169.429 94.035 170.227 94.035Z" fill="white"/>
<path d="M110.416 82.6793L109.679 81.5672L113.365 80.016L113.778 79.8404C114.073 79.7234 114.368 79.5478 114.663 79.4014C116.403 78.4064 118.468 77.9381 120.65 78.1722C125.251 78.6698 128.967 82.3574 129.409 86.9231C130.029 93.1277 124.808 98.2787 118.556 97.6641C113.926 97.1958 110.18 93.4789 109.738 88.884C109.561 87.0401 109.885 85.2841 110.622 83.733C110.74 83.4696 110.74 83.1769 110.593 82.9427L110.416 82.6793Z" fill="#3D3F3E"/>
<path d="M122.773 91.1668C125.103 91.1668 126.991 89.293 126.991 86.9816C126.991 84.6702 125.103 82.7964 122.773 82.7964C120.444 82.7964 118.556 84.6702 118.556 86.9816C118.556 89.293 120.444 91.1668 122.773 91.1668Z" fill="white"/>
<path d="M116.521 94.035C117.319 94.035 117.966 93.3929 117.966 92.6009C117.966 91.8088 117.319 91.1668 116.521 91.1668C115.723 91.1668 115.076 91.8088 115.076 92.6009C115.076 93.3929 115.723 94.035 116.521 94.035Z" fill="white"/>
<path d="M155.186 114.902C154.449 121.136 149.317 125.995 143.064 125.995C136.812 125.995 131.651 121.136 130.943 114.902H155.186Z" fill="#EDBB19"/>
<path d="M159.315 111.302C159.315 112.532 158.607 113.644 157.545 114.258C152.65 117.068 144.067 120.873 143.035 120.873C141.944 120.873 133.42 117.097 128.525 114.258C127.463 113.644 126.785 112.532 126.785 111.302C126.785 111.302 126.785 111.303 126.785 111.273C126.785 102.2 134.069 94.8837 143.035 94.8837C152.03 94.8837 159.315 102.23 159.315 111.302Z" fill="#FFCF32"/>
<path d="M111.36 109.868C116.865 109.868 121.328 108.479 121.328 106.766C121.328 105.053 116.865 103.664 111.36 103.664C105.854 103.664 101.391 105.053 101.391 106.766C101.391 108.479 105.854 109.868 111.36 109.868Z" fill="#F0B8D5"/>
<path d="M173.324 110.161C178.83 110.161 183.293 108.772 183.293 107.059C183.293 105.345 178.83 103.956 173.324 103.956C167.819 103.956 163.355 105.345 163.355 107.059C163.355 108.772 167.819 110.161 173.324 110.161Z" fill="#F0B8D5"/>
<path d="M148.314 85.4597C148.285 85.8988 148.255 86.367 148.255 86.806V86.9231C147.075 85.8402 145.306 85.1378 143.359 85.1378C141.383 85.1378 139.643 85.8402 138.464 86.9231V86.806C138.464 86.3378 138.464 85.8988 138.405 85.4597C139.761 84.5817 141.472 84.0549 143.359 84.0549C145.217 84.0549 146.958 84.5817 148.314 85.4597Z" fill="#913B8E"/>
<path d="M138.582 85.4597C137.874 75.0992 129.203 66.9044 118.556 66.9044C107.467 66.9044 98.501 75.8309 98.501 86.806C98.501 97.8104 107.496 106.737 118.556 106.737C129.616 106.737 138.552 97.8689 138.641 86.9231V86.806C138.641 86.367 138.611 85.8987 138.582 85.4597ZM118.556 105.069C108.381 105.069 100.153 96.9031 100.153 86.806C100.153 76.7089 108.381 68.5434 118.556 68.5434C128.731 68.5434 136.959 76.7089 136.959 86.806V86.9523C136.959 87.9474 136.871 88.9132 136.694 89.8498C135.249 98.5128 127.669 105.069 118.556 105.069Z" fill="#913B8E"/>
<path opacity="0.29" d="M118.556 105.069C128.72 105.069 136.96 96.8921 136.96 86.806C136.96 76.7198 128.72 68.5433 118.556 68.5433C108.392 68.5433 100.153 76.7198 100.153 86.806C100.153 96.8921 108.392 105.069 118.556 105.069Z" fill="#BCE1EA"/>
<path d="M168.163 66.9044C157.545 66.9044 148.845 75.0992 148.167 85.4597C148.137 85.8987 148.108 86.367 148.108 86.806V86.9231C148.167 97.8689 157.133 106.737 168.163 106.737C179.252 106.737 188.247 97.8104 188.247 86.806C188.247 75.8016 179.252 66.9044 168.163 66.9044ZM168.163 105.069C159.05 105.069 151.47 98.4835 150.025 89.8498C149.848 88.9132 149.759 87.9181 149.759 86.9231V86.7767C149.759 76.6796 157.988 68.5141 168.163 68.5141C178.338 68.5141 186.566 76.6796 186.566 86.7767C186.566 96.8738 178.338 105.069 168.163 105.069Z" fill="#913B8E"/>
<path opacity="0.29" d="M168.192 105.069C178.356 105.069 186.596 96.8921 186.596 86.806C186.596 76.7198 178.356 68.5433 168.192 68.5433C158.028 68.5433 149.789 76.7198 149.789 86.806C149.789 96.8921 158.028 105.069 168.192 105.069Z" fill="#BCE1EA"/>
</g>
<path d="M66.1917 95.5298C36.0653 91.4908 3.76755 109.284 0.280069 140.225C-3.33307 172.281 28.6245 202.039 60.8272 202.165C83.5204 202.253 92.3706 182.5 114.571 177.785C155.791 169.031 180.391 202.232 221.043 213.338C254.506 222.481 289.066 215.521 310.572 180.857C339.446 134.316 289.199 61.48 234.52 63.0242C187.376 64.3555 204.158 126.101 157.16 130.043C115.569 133.531 96.3181 99.5688 66.1917 95.5298Z" fill="#A55FEE"/>
<path d="M46.8415 136.8H52.6735V157.248H65.3095V162H46.8415V136.8ZM77.2475 162.288C75.2075 162.288 73.3715 161.868 71.7395 161.028C70.1315 160.164 68.8715 158.976 67.9595 157.464C67.0475 155.952 66.5915 154.236 66.5915 152.316C66.5915 150.396 67.0475 148.68 67.9595 147.168C68.8715 145.656 70.1315 144.48 71.7395 143.64C73.3715 142.776 75.2075 142.344 77.2475 142.344C79.2875 142.344 81.1115 142.776 82.7195 143.64C84.3275 144.48 85.5875 145.656 86.4995 147.168C87.4115 148.68 87.8675 150.396 87.8675 152.316C87.8675 154.236 87.4115 155.952 86.4995 157.464C85.5875 158.976 84.3275 160.164 82.7195 161.028C81.1115 161.868 79.2875 162.288 77.2475 162.288ZM77.2475 157.68C78.6875 157.68 79.8635 157.2 80.7755 156.24C81.7115 155.256 82.1795 153.948 82.1795 152.316C82.1795 150.684 81.7115 149.388 80.7755 148.428C79.8635 147.444 78.6875 146.952 77.2475 146.952C75.8075 146.952 74.6195 147.444 73.6835 148.428C72.7475 149.388 72.2795 150.684 72.2795 152.316C72.2795 153.948 72.7475 155.256 73.6835 156.24C74.6195 157.2 75.8075 157.68 77.2475 157.68ZM96.9853 145.188C97.6573 144.252 98.5573 143.544 99.6853 143.064C100.837 142.584 102.157 142.344 103.645 142.344V147.528C103.021 147.48 102.601 147.456 102.385 147.456C100.777 147.456 99.5173 147.912 98.6053 148.824C97.6933 149.712 97.2373 151.056 97.2373 152.856V162H91.6213V142.632H96.9853V145.188ZM125.781 152.388C125.781 152.46 125.745 152.964 125.673 153.9H111.021C111.285 155.1 111.909 156.048 112.893 156.744C113.877 157.44 115.101 157.788 116.565 157.788C117.573 157.788 118.461 157.644 119.229 157.356C120.021 157.044 120.753 156.564 121.425 155.916L124.413 159.156C122.589 161.244 119.925 162.288 116.421 162.288C114.237 162.288 112.305 161.868 110.625 161.028C108.945 160.164 107.649 158.976 106.737 157.464C105.825 155.952 105.369 154.236 105.369 152.316C105.369 150.42 105.813 148.716 106.701 147.204C107.613 145.668 108.849 144.48 110.409 143.64C111.993 142.776 113.757 142.344 115.701 142.344C117.597 142.344 119.313 142.752 120.849 143.568C122.385 144.384 123.585 145.56 124.449 147.096C125.337 148.608 125.781 150.372 125.781 152.388ZM115.737 146.592C114.465 146.592 113.397 146.952 112.533 147.672C111.669 148.392 111.141 149.376 110.949 150.624H120.489C120.297 149.4 119.769 148.428 118.905 147.708C118.041 146.964 116.985 146.592 115.737 146.592ZM154.324 142.344C156.748 142.344 158.668 143.064 160.084 144.504C161.524 145.92 162.244 148.056 162.244 150.912V162H156.628V151.776C156.628 150.24 156.304 149.1 155.656 148.356C155.032 147.588 154.132 147.204 152.956 147.204C151.636 147.204 150.592 147.636 149.824 148.5C149.056 149.34 148.672 150.6 148.672 152.28V162H143.056V151.776C143.056 148.728 141.832 147.204 139.384 147.204C138.088 147.204 137.056 147.636 136.288 148.5C135.52 149.34 135.136 150.6 135.136 152.28V162H129.52V142.632H134.884V144.864C135.604 144.048 136.48 143.424 137.512 142.992C138.568 142.56 139.72 142.344 140.968 142.344C142.336 142.344 143.572 142.62 144.676 143.172C145.78 143.7 146.668 144.48 147.34 145.512C148.132 144.504 149.128 143.724 150.328 143.172C151.552 142.62 152.884 142.344 154.324 142.344ZM177.869 136.8H183.701V162H177.869V136.8ZM200.733 142.344C202.533 142.344 204.165 142.764 205.629 143.604C207.117 144.42 208.281 145.584 209.121 147.096C209.961 148.584 210.381 150.324 210.381 152.316C210.381 154.308 209.961 156.06 209.121 157.572C208.281 159.06 207.117 160.224 205.629 161.064C204.165 161.88 202.533 162.288 200.733 162.288C198.261 162.288 196.317 161.508 194.901 159.948V168.984H189.285V142.632H194.649V144.864C196.041 143.184 198.069 142.344 200.733 142.344ZM199.761 157.68C201.201 157.68 202.377 157.2 203.289 156.24C204.225 155.256 204.693 153.948 204.693 152.316C204.693 150.684 204.225 149.388 203.289 148.428C202.377 147.444 201.201 146.952 199.761 146.952C198.321 146.952 197.133 147.444 196.197 148.428C195.285 149.388 194.829 150.684 194.829 152.316C194.829 153.948 195.285 155.256 196.197 156.24C197.133 157.2 198.321 157.68 199.761 157.68ZM220.657 162.288C219.049 162.288 217.477 162.096 215.941 161.712C214.405 161.304 213.181 160.8 212.269 160.2L214.141 156.168C215.005 156.72 216.049 157.176 217.273 157.536C218.497 157.872 219.697 158.04 220.873 158.04C223.249 158.04 224.437 157.452 224.437 156.276C224.437 155.724 224.113 155.328 223.465 155.088C222.817 154.848 221.821 154.644 220.477 154.476C218.893 154.236 217.585 153.96 216.553 153.648C215.521 153.336 214.621 152.784 213.853 151.992C213.109 151.2 212.737 150.072 212.737 148.608C212.737 147.384 213.085 146.304 213.781 145.368C214.501 144.408 215.533 143.664 216.877 143.136C218.245 142.608 219.853 142.344 221.701 142.344C223.069 142.344 224.425 142.5 225.769 142.812C227.137 143.1 228.265 143.508 229.153 144.036L227.281 148.032C225.577 147.072 223.717 146.592 221.701 146.592C220.501 146.592 219.601 146.76 219.001 147.096C218.401 147.432 218.101 147.864 218.101 148.392C218.101 148.992 218.425 149.412 219.073 149.652C219.721 149.892 220.753 150.12 222.169 150.336C223.753 150.6 225.049 150.888 226.057 151.2C227.065 151.488 227.941 152.028 228.685 152.82C229.429 153.612 229.801 154.716 229.801 156.132C229.801 157.332 229.441 158.4 228.721 159.336C228.001 160.272 226.945 161.004 225.553 161.532C224.185 162.036 222.553 162.288 220.657 162.288ZM252.778 142.632V162H247.45V159.696C246.706 160.536 245.818 161.184 244.786 161.64C243.754 162.072 242.638 162.288 241.438 162.288C238.894 162.288 236.878 161.556 235.39 160.092C233.902 158.628 233.158 156.456 233.158 153.576V142.632H238.774V152.748C238.774 155.868 240.082 157.428 242.698 157.428C244.042 157.428 245.122 156.996 245.938 156.132C246.754 155.244 247.162 153.936 247.162 152.208V142.632H252.778ZM282.785 142.344C285.209 142.344 287.129 143.064 288.545 144.504C289.985 145.92 290.705 148.056 290.705 150.912V162H285.089V151.776C285.089 150.24 284.765 149.1 284.117 148.356C283.493 147.588 282.593 147.204 281.417 147.204C280.097 147.204 279.053 147.636 278.285 148.5C277.517 149.34 277.133 150.6 277.133 152.28V162H271.517V151.776C271.517 148.728 270.293 147.204 267.845 147.204C266.549 147.204 265.517 147.636 264.749 148.5C263.981 149.34 263.597 150.6 263.597 152.28V162H257.981V142.632H263.345V144.864C264.065 144.048 264.941 143.424 265.973 142.992C267.029 142.56 268.181 142.344 269.429 142.344C270.797 142.344 272.033 142.62 273.137 143.172C274.241 143.7 275.129 144.48 275.801 145.512C276.593 144.504 277.589 143.724 278.789 143.172C280.013 142.62 281.345 142.344 282.785 142.344Z" fill="#EDE0F9"/>
<defs>
<filter id="filter0_d" x="65" y="0" width="152" height="229" filterUnits="userSpaceOnUse" color-interpolation-filters="sRGB">
<feFlood flood-opacity="0" result="BackgroundImageFix"/>
<feColorMatrix in="SourceAlpha" type="matrix" values="0 0 0 0 0 0 0 0 0 0 0 0 0 0 0 0 0 0 127 0"/>
<feOffset dy="2"/>
<feGaussianBlur stdDeviation="0.5"/>
<feColorMatrix type="matrix" values="0 0 0 0 0 0 0 0 0 0 0 0 0 0 0 0 0 0 0.25 0"/>
<feBlend mode="normal" in2="BackgroundImageFix" result="effect1_dropShadow"/>
<feBlend mode="normal" in="SourceGraphic" in2="effect1_dropShadow" result="shape"/>
</filter>
</defs>
</svg>
