<svg width="76" height="113" viewBox="0 0 76 113" fill="none" xmlns="http://www.w3.org/2000/svg">
<rect x="0.5" y="0.5" width="75" height="112" rx="4.5" fill="white" stroke="#A55FEE"/>
<path d="M51.6045 56.5C51.6045 63.7374 45.7374 69.6045 38.5 69.6045C31.2626 69.6045 25.3955 63.7374 25.3955 56.5C25.3955 49.2626 31.2626 43.3955 38.5 43.3955C45.7374 43.3955 51.6045 49.2626 51.6045 56.5Z" fill="#EDE0F9"/>
<path d="M39.0873 67.7211C41.8874 65.5959 40.4357 62.6646 40.4357 62.6646C40.4357 62.6646 35.6157 54.5643 34.9631 54.5643C30.9394 51.895 33.2634 44.5215 33.2772 44.4776C28.6393 46.4955 25.3955 51.1192 25.3955 56.5C25.3955 63.4012 30.7301 69.0563 37.5007 69.567C37.8 68.962 38.2932 68.3238 39.0873 67.7211Z" fill="#D0A5FD"/>
<path d="M45.2749 54.5643H41.3845C40.8604 54.5643 40.4357 54.1395 40.4357 53.6157V49.7251C40.4357 48.6562 39.5691 47.7894 38.5 47.7894C37.4308 47.7894 36.5642 48.6562 36.5642 49.7251V53.6157C36.5642 54.1395 36.1395 54.5643 35.6156 54.5643H31.725C30.6561 54.5643 29.7893 55.4309 29.7893 56.5C29.7893 57.5691 30.6561 58.4357 31.725 58.4357H35.6156C36.1395 58.4357 36.5642 58.8605 36.5642 59.3843V63.2749C36.5642 64.344 37.4308 65.2106 38.5 65.2106C39.5691 65.2106 40.4357 64.3438 40.4357 63.2749V59.3843C40.4357 58.8605 40.8604 58.4357 41.3845 58.4357H45.2749C46.344 58.4357 47.2106 57.5691 47.2106 56.5C47.2106 55.4309 46.344 54.5643 45.2749 54.5643Z" fill="#F9F8F7"/>
<path d="M38.5 70C34.8941 70 31.5038 68.5957 28.954 66.046C26.4043 63.4962 25 60.1059 25 56.5C25 52.8941 26.4043 49.5038 28.954 46.954C31.5038 44.4043 34.8941 43 38.5 43C41.7755 43 44.9346 44.1878 47.395 46.3445C47.5592 46.4885 47.5757 46.7384 47.4317 46.9025C47.2877 47.0669 47.0378 47.0832 46.8736 46.9392C44.5574 44.9091 41.5837 43.791 38.5 43.791C35.1052 43.791 31.9138 45.1129 29.5133 47.5133C27.1129 49.9138 25.791 53.1052 25.791 56.5C25.791 59.8948 27.1129 63.0862 29.5133 65.4867C31.9138 67.8871 35.1052 69.209 38.5 69.209C41.8948 69.209 45.0862 67.8871 47.4867 65.4867C49.8871 63.0862 51.209 59.8948 51.209 56.5C51.209 53.3897 50.0738 50.3964 48.0126 48.0718C47.8676 47.9084 47.8826 47.6583 48.0462 47.5135C48.2095 47.3685 48.4596 47.3835 48.6044 47.5471C50.7941 50.0166 52 53.1961 52 56.5C52 60.1059 50.5957 63.4962 48.046 66.046C45.4962 68.5957 42.1059 70 38.5 70Z" fill="black"/>
<path d="M38.5 65.6062C37.2146 65.6062 36.1687 64.5603 36.1687 63.2749C36.1687 63.2749 36.0797 62.4598 36.5642 62.4598C37.0487 62.4598 36.9597 63.2749 36.9597 63.2749C36.9597 64.124 37.6506 64.8151 38.5 64.8151C39.3493 64.8151 40.0402 64.1242 40.0402 63.2749V59.3843C40.0402 58.6432 40.6431 58.0402 41.3843 58.0402H45.2749C46.124 58.0402 46.8151 57.3493 46.8151 56.5C46.8151 55.6507 46.124 54.9598 45.2749 54.9598H41.3843C40.6431 54.9598 40.0402 54.3568 40.0402 53.6155V49.7251C40.0402 48.8758 39.3493 48.1849 38.5 48.1849C37.6506 48.1849 36.9597 48.8758 36.9597 49.7251V53.6155C36.9597 54.3568 36.3568 54.9598 35.6156 54.9598H31.725C30.8759 54.9598 30.1848 55.6507 30.1848 56.5C30.1848 57.3491 30.8759 58.0402 31.725 58.0402H35.6156C36.3568 58.0402 36.9597 58.6432 36.9597 59.3843V61.2582C36.9597 61.4766 36.7828 61.6538 36.5642 61.6538C36.3457 61.6538 36.1687 61.4766 36.1687 61.2582V59.3843C36.1687 59.0792 35.9205 58.8312 35.6156 58.8312H31.725C30.4396 58.8312 29.3938 57.7854 29.3938 56.5C29.3938 55.2144 30.4396 54.1688 31.725 54.1688H35.6156C35.9205 54.1688 36.1687 53.9205 36.1687 53.6155V49.7251C36.1687 48.4397 37.2146 47.3938 38.5 47.3938C39.7854 47.3938 40.8312 48.4397 40.8312 49.7251V53.6155C40.8312 53.9205 41.0792 54.1688 41.3843 54.1688H45.2749C46.5603 54.1688 47.6061 55.2146 47.6061 56.5C47.6061 57.7854 46.5603 58.8312 45.2749 58.8312H41.3843C41.0792 58.8312 40.8312 59.0795 40.8312 59.3843V63.2749C40.8312 64.5603 39.7854 65.6062 38.5 65.6062Z" fill="black"/>
</svg>
