<svg width="57" height="57" viewBox="0 0 57 57" fill="none" xmlns="http://www.w3.org/2000/svg">
<g filter="url(#filter0_d)">
<path d="M53 26.5C53 40.031 42.031 51 28.5 51C14.969 51 4 40.031 4 26.5C4 12.9691 14.969 2.00004 28.5 2.00004C42.031 2.00004 53 12.9691 53 26.5Z" fill="#FDE6D1"/>
</g>
<path d="M32.642 26.2592C34.5953 25.3155 37.2703 24.0231 37.2703 19.2228C37.2703 16.5269 35.917 14.0303 33.4598 12.193C31.2144 10.5141 28.22 9.55123 25.2443 9.55123C25.0452 9.55123 24.8471 9.55547 24.6502 9.56382C21.3343 9.70501 20.5165 11.0285 18.325 13.3264C17.0154 14.6997 15.9985 16.4067 15.3028 18.4001C14.5568 20.5379 14.1785 23.0173 14.1785 25.7695C14.1785 32.8382 16.76 36.9925 18.9256 39.2327C21.0812 41.4625 21.6949 42.9033 24.6223 43.3294C25.2231 43.4169 25.8294 43.4616 26.4365 43.4616C28.7164 43.4616 30.817 42.8108 32.3512 41.6292C34.042 40.3271 34.973 38.4267 34.973 36.2783C34.973 32.3469 33.1331 31.5484 31.7896 30.9653C30.777 30.5258 30.3148 30.3253 30.3148 28.869C30.3147 27.4467 31.0702 27.0186 32.642 26.2592Z" fill="#8F4813"/>
<path d="M24.6312 9.56538C21.3229 9.71088 18.3259 11.0332 16.1386 13.3267C14.8289 14.6999 13.8121 16.4069 13.1164 18.4004C12.3704 20.5381 11.9921 23.0175 11.9921 25.7697C11.9921 32.8385 14.5736 36.9927 16.7392 39.233C18.8969 41.465 21.7007 42.9054 24.6312 43.3298V9.56538Z" fill="#BC5F19"/>
<path d="M31.5085 16.4124C31.2434 14.7899 29.7077 13.6855 28.0853 13.9506C26.4628 14.2157 25.3584 15.7514 25.6235 17.3739C25.8886 18.9964 27.4243 20.1007 29.0468 19.8356C30.6693 19.5705 31.7736 18.0349 31.5085 16.4124Z" fill="#FF9F22"/>
<path d="M20.2007 17.1966C18.5783 17.4617 17.4739 18.9974 17.739 20.6199C18.0041 22.2424 19.5398 23.3467 21.1623 23.0816C22.7847 22.8165 23.8891 21.2809 23.624 19.6584C23.3589 18.0359 21.8232 16.9316 20.2007 17.1966Z" fill="#046EFF"/>
<path d="M22.0339 28.1397C21.7688 26.5172 20.2331 25.4129 18.6107 25.6779C17.8288 25.8057 17.1331 26.228 16.6514 26.8671C16.1559 27.5242 15.9544 28.3213 16.0835 29.1119C16.2126 29.9024 16.6574 30.5939 17.3363 31.0591C17.9963 31.5117 18.7905 31.6906 19.5722 31.5629C21.1946 31.2978 22.299 29.7622 22.0339 28.1397Z" fill="#00FF94"/>
<path d="M23.1337 32.953C21.5113 33.2181 20.4069 34.7538 20.672 36.3763C20.9371 37.9988 22.4728 39.1031 24.0952 38.838C25.7177 38.573 26.8221 37.0373 26.557 35.4148C26.2919 33.7924 24.7562 32.688 23.1337 32.953Z" fill="#FF2828"/>
<path d="M26.557 35.4148C26.3771 34.3136 25.6116 33.4518 24.6312 33.094V38.6978C25.9526 38.219 26.7917 36.8513 26.557 35.4148Z" fill="#D20000"/>
<path d="M42.5679 9.8688C42.2757 9.54295 41.8049 9.44661 41.4081 9.63153C41.0115 9.81652 40.7827 10.2393 40.8446 10.6725C41.0277 11.953 40.3647 13.086 39.6627 14.2855C38.6916 15.9452 37.4828 18.0107 39.1859 20.4175C39.3721 20.6807 39.6745 20.8371 39.9969 20.8371H42.9119C43.1287 20.8371 43.3395 20.7663 43.5122 20.6353C44.3109 20.0296 44.8285 18.8844 44.9698 17.4104C45.1642 15.3843 44.6516 12.1935 42.5679 9.8688Z" fill="#8F4813"/>
<path d="M41.4081 9.63236C41.0115 9.81735 40.7827 10.2401 40.8446 10.6734C41.0277 11.9538 40.3647 13.0868 39.6627 14.2863C38.6916 15.946 37.4828 18.0115 39.1859 20.4183C39.3721 20.6815 39.6745 20.838 39.9969 20.838H41.6698V9.55272C41.5808 9.56703 41.4928 9.59294 41.4081 9.63236Z" fill="#BC5F19"/>
<path d="M40.7479 20.2418V24.2909C40.7479 24.8396 41.1927 25.2844 41.7414 25.2844H42.9337C43.4824 25.2844 43.9271 24.8396 43.9271 24.2909V20.2418H40.7479Z" fill="#CDD4E3"/>
<path d="M39.0251 20.2418V24.2909C39.0251 24.8396 39.4699 25.2844 40.0186 25.2844H41.6698V20.2418H39.0251Z" fill="#E8EDF5"/>
<path d="M39.0255 24.3194L39.4974 40.8176C39.5219 41.7549 40.3406 42.7992 41.4761 42.7992C42.6116 42.7992 43.4303 41.7549 43.4547 40.82L43.9267 24.3194H39.0255Z" fill="#8F4813"/>
<path d="M39.0255 24.3194L39.4974 40.8176C39.5219 41.7549 40.3406 42.7992 41.4761 42.7992C41.5418 42.7992 41.6063 42.7954 41.6697 42.7886V24.3194H39.0255Z" fill="#BC5F19"/>
<defs>
<filter id="filter0_d" x="0" y="4.19617e-05" width="57" height="57" filterUnits="userSpaceOnUse" color-interpolation-filters="sRGB">
<feFlood flood-opacity="0" result="BackgroundImageFix"/>
<feColorMatrix in="SourceAlpha" type="matrix" values="0 0 0 0 0 0 0 0 0 0 0 0 0 0 0 0 0 0 127 0"/>
<feOffset dy="2"/>
<feGaussianBlur stdDeviation="2"/>
<feColorMatrix type="matrix" values="0 0 0 0 0 0 0 0 0 0 0 0 0 0 0 0 0 0 0.25 0"/>
<feBlend mode="normal" in2="BackgroundImageFix" result="effect1_dropShadow"/>
<feBlend mode="normal" in="SourceGraphic" in2="effect1_dropShadow" result="shape"/>
</filter>
</defs>
</svg>
