<svg width="64" height="64" viewBox="0 0 64 64" fill="none" xmlns="http://www.w3.org/2000/svg">
<path d="M32 10C19.8497 10 10 19.8497 10 32C10 44.1503 19.8497 54 32 54C44.1503 54 54 44.1503 54 32C54 19.8497 44.1503 10 32 10Z" fill="#73D676"/>
<path d="M27.604 41.433C28.395 42.204 29.663 42.187 30.432 41.396L36.833 34.825C38.391 33.268 38.391 30.734 36.852 29.195L30.432 22.605C30.041 22.202 29.521 22 29 22C28.497 22 27.993 22.188 27.604 22.567C26.813 23.338 26.796 24.604 27.567 25.395L33.987 32.014L27.567 38.604C26.797 39.396 26.813 40.662 27.604 41.433Z" fill="#012E52"/>
<path d="M10.492 36.98C11.586 36.824 12.346 35.812 12.19 34.718C12.063 33.833 12 32.919 12 32C12 31.081 12.063 30.167 12.19 29.282C12.345 28.188 11.586 27.176 10.492 27.02C10.396 27.006 10.302 27 10.207 27C9.228 27 8.372 27.721 8.229 28.718C8.077 29.789 8 30.893 8 32C8 33.107 8.077 34.211 8.229 35.282C8.387 36.376 9.407 37.135 10.492 36.98Z" fill="#012E52"/>
<path d="M32 8C22.939 8 14.747 13.016 10.619 21.09C10.117 22.073 10.507 23.278 11.49 23.781C12.473 24.284 13.678 23.893 14.181 22.91C17.621 16.181 24.449 12 32 12C43.028 12 52 20.972 52 32C52 43.028 43.028 52 32 52C24.449 52 17.621 47.819 14.182 41.09C13.679 40.107 12.474 39.716 11.491 40.219C10.508 40.722 10.118 41.927 10.62 42.91C14.747 50.984 22.939 56 32 56C45.233 56 56 45.234 56 32C56 18.766 45.233 8 32 8Z" fill="#012E52"/>
</svg>
