<svg width="76" height="113" viewBox="0 0 76 113" fill="none" xmlns="http://www.w3.org/2000/svg">
<rect x="0.5" y="0.5" width="75" height="112" rx="4.5" fill="white" stroke="#A55FEE"/>
<g clip-path="url(#clip0)">
<path d="M49.4511 44.9202C46.0905 41.3977 40.9259 40.857 37.1054 42.9793C36.7753 43.1626 36.6564 43.579 36.8398 43.909C37.0231 44.2392 37.4394 44.3579 37.7695 44.1746C41.2639 42.2332 45.6606 42.928 48.4589 45.8611C51.3461 48.9244 51.6712 53.4905 49.4376 56.8757C46.3609 61.5489 39.7157 62.2531 35.7315 58.2682C33.0469 55.5845 32.2691 51.2565 34.2084 47.7345C34.3903 47.4037 34.2697 46.9879 33.9389 46.8059C33.6081 46.6241 33.1924 46.7446 33.0103 47.0754C32.9684 47.1516 32.8939 47.2937 32.822 47.4393H32.8221C30.8337 51.4926 31.7383 56.2099 34.7647 59.2351C39.3549 63.8263 47.0222 63.0311 50.5793 57.6282C53.1303 53.7619 52.8173 48.4917 49.4511 44.9202Z" fill="#A55FEE"/>
<path d="M51.202 42.7984C46.1372 37.7343 37.8958 37.7341 32.8308 42.7985C28.2761 47.3538 27.7858 54.4958 31.4949 59.605L29.3644 61.7351C28.6174 61.3776 27.6728 61.4929 27.0295 62.1363L21.0029 68.1636C19.6666 69.499 19.6655 71.6615 21.0025 72.9975C22.3382 74.3341 24.5006 74.3346 25.8365 72.9977L31.8641 66.9708C32.5071 66.3277 32.6229 65.3831 32.2653 64.6361L34.3955 62.5053C39.5059 66.2153 46.6474 65.7236 51.202 61.1696C56.2663 56.1047 56.2663 47.8634 51.202 42.7984ZM30.8972 66.004L24.8695 72.0309C24.0684 72.8326 22.7716 72.8334 21.9694 72.0306C21.1675 71.2294 21.1671 69.9326 21.9695 69.1307L27.9964 63.1031C28.2627 62.8367 28.6965 62.8365 28.9629 63.1031L30.8971 65.0374C31.1637 65.3038 31.1637 65.7375 30.8972 66.004ZM31.3806 63.587L30.4135 62.6199L32.3604 60.6734C32.5131 60.8429 32.67 61.009 32.8307 61.1696C32.9914 61.3303 33.1575 61.4873 33.3271 61.6401L31.3806 63.587ZM50.2351 60.2027C45.7044 64.7327 38.3655 64.7713 33.7975 60.2027C29.235 55.6407 29.2622 48.3015 33.7975 43.7653C38.329 39.2345 45.7028 39.2337 50.235 43.7653C54.7662 48.2972 54.7662 55.671 50.2351 60.2027Z" fill="#A55FEE"/>
<path d="M35.748 44.7495C35.7433 44.7434 35.7378 44.7379 35.7316 44.7318C35.4643 44.4651 35.0315 44.4651 34.7642 44.7318C34.4975 44.9991 34.4975 45.4319 34.7642 45.6992C34.7704 45.7053 34.7758 45.7108 34.782 45.7163C35.0507 45.9659 35.4705 45.9597 35.7316 45.6992C35.9921 45.438 35.9982 45.0182 35.748 44.7495Z" fill="#A55FEE"/>
</g>
<defs>
<clipPath id="clip0">
<rect width="35" height="35" fill="white" transform="translate(20 39)"/>
</clipPath>
</defs>
</svg>
