<svg width="117" height="96" viewBox="0 0 117 96" fill="none" xmlns="http://www.w3.org/2000/svg">
<mask id="mask0" mask-type="alpha" maskUnits="userSpaceOnUse" x="11" y="2" width="93" height="94">
<path d="M11.4055 2.13686H103.607V95.424H11.4055V2.13686Z" fill="white"/>
</mask>
<g mask="url(#mask0)">
<path fill-rule="evenodd" clip-rule="evenodd" d="M103.604 49.2866C103.88 23.5275 83.4656 2.41981 58.0061 2.13966C32.5466 1.86041 11.6843 22.5155 11.4083 48.2745C11.1314 74.0335 31.5463 95.1412 57.0058 95.4214C82.4653 95.7006 103.328 75.0456 103.604 49.2866Z" fill="#7E50E5"/>
</g>
<mask id="mask1" mask-type="alpha" maskUnits="userSpaceOnUse" x="11" y="2" width="93" height="94">
<path d="M11.4073 48.2743C11.1313 74.0334 31.5471 95.1411 57.0057 95.4204C82.4652 95.7005 103.328 75.0454 103.604 49.2864C103.88 23.5274 83.4655 2.41968 58.006 2.13953C57.8363 2.13775 57.6649 2.13686 57.4962 2.13686C32.267 2.13597 11.6816 22.687 11.4073 48.2743Z" fill="white"/>
</mask>
<g mask="url(#mask1)">
<path fill-rule="evenodd" clip-rule="evenodd" d="M81.9756 70.5338C83.1649 71.2275 84.283 71.9354 85.3272 72.6425C84.0536 71.7478 82.9152 71.055 81.9756 70.5338Z" fill="#BA8271"/>
</g>
<mask id="mask2" mask-type="alpha" maskUnits="userSpaceOnUse" x="11" y="2" width="93" height="94">
<path d="M11.4073 48.2743C11.1313 74.0334 31.5471 95.1411 57.0057 95.4204C82.4652 95.7005 103.328 75.0454 103.604 49.2864C103.88 23.5274 83.4655 2.41968 58.006 2.13953C57.8363 2.13775 57.6649 2.13686 57.4962 2.13686C32.267 2.13597 11.6816 22.687 11.4073 48.2743Z" fill="white"/>
</mask>
<g mask="url(#mask2)">
<path fill-rule="evenodd" clip-rule="evenodd" d="M68.6474 88.2112C68.2949 88.4914 67.8853 88.6328 67.4264 88.6328C67.3174 88.6328 67.2058 88.6248 67.0907 88.6088C64.4923 88.2459 61.1354 83.6187 60.993 83.4221C60.8568 83.2327 60.8981 82.9668 61.0853 82.8289C61.2725 82.6902 61.5345 82.7329 61.6707 82.9223C62.5787 84.1825 65.3414 87.5087 67.2067 87.7692C67.5724 87.8217 67.8747 87.747 68.1288 87.5442C69.8191 86.1978 67.9925 81.5874 67.146 79.9243C67.0406 79.7153 67.1214 79.4592 67.3271 79.3525C67.5337 79.2449 67.7868 79.3285 67.8923 79.5348C68.236 80.2116 71.1789 86.1951 68.6474 88.2112ZM53.5663 91.348C53.4424 91.3791 53.329 91.3933 53.2244 91.3933C52.8947 91.3933 52.6574 91.259 52.5045 91.1283C51.5894 90.3492 51.6808 88.0609 51.9085 84.9144C51.9823 83.8979 52.0799 82.5639 52.0034 82.0045C51.6457 82.3736 51.1314 83.3572 50.7051 84.1727C49.5361 86.4068 48.0778 89.1869 46.1642 88.1623C43.4595 86.718 46.0737 79.5117 46.3804 78.6944C46.4631 78.4756 46.7039 78.3662 46.9219 78.4489C47.1373 78.5325 47.2471 78.7771 47.1645 78.9958C46.1079 81.8115 45.0074 86.5855 46.5545 87.4117C47.7306 88.0405 48.9691 85.6766 49.9633 83.7761C50.7886 82.1993 51.2853 81.2966 51.9006 81.0689C52.108 80.9915 52.3216 81.0218 52.4886 81.1481C52.9738 81.5189 52.9176 82.5897 52.7453 84.9767C52.602 86.9448 52.3867 89.9188 53.0442 90.48C53.1004 90.528 53.1822 90.5698 53.3632 90.5253C55.8666 89.8939 58.1362 84.4529 58.0211 83.68C57.9859 83.4488 58.1433 83.2327 58.3727 83.1971C58.603 83.1607 58.8148 83.3216 58.8491 83.5529C59.0363 84.7997 56.467 90.6169 53.5663 91.348ZM66.9544 68.1698C64.2409 67.4504 61.0493 67.0128 57.3276 67.0724C53.0204 67.1418 49.1757 67.405 45.8574 68.1298C45.0241 67.0546 43.1615 66.6419 40.5517 67.1044C31.8004 70.2536 25.3124 75.2517 21.8606 78.3493C24.3974 81.4762 27.3306 84.259 30.5803 86.63C31.5587 84.9847 32.6214 83.5573 33.7711 82.3558L34.1341 77.4653C34.1508 77.2314 34.3627 77.0642 34.5833 77.074C34.8136 77.0909 34.9877 77.2954 34.9701 77.5284L34.121 88.9707C40.8392 92.9808 48.6474 95.3296 57.0058 95.4212C65.5287 95.5146 73.5294 93.253 80.4225 89.2491L79.9092 78.0185C79.8978 77.7846 80.0771 77.5862 80.3082 77.5756C80.5456 77.5604 80.7354 77.7454 80.746 77.9802L81.0176 83.9121C81.8439 84.9473 82.6174 86.1115 83.3373 87.4064C86.6749 85.1172 89.6987 82.3976 92.3348 79.324C88.8179 75.9916 81.8017 70.2811 72.1695 66.9176C69.8982 66.7398 67.9433 67.1604 66.9544 68.1698Z" fill="#BA8271"/>
</g>
<mask id="mask3" mask-type="alpha" maskUnits="userSpaceOnUse" x="11" y="2" width="93" height="94">
<path d="M11.4073 48.2743C11.1313 74.0334 31.5471 95.1411 57.0057 95.4204C82.4652 95.7005 103.328 75.0454 103.604 49.2864C103.88 23.5274 83.4655 2.41968 58.006 2.13953C57.8363 2.13775 57.6649 2.13686 57.4962 2.13686C32.267 2.13597 11.6816 22.687 11.4073 48.2743Z" fill="white"/>
</mask>
<g mask="url(#mask3)">
<path fill-rule="evenodd" clip-rule="evenodd" d="M81.9756 70.5337C77.8004 68.0968 72.7637 65.8477 66.9921 64.543C66.7706 64.4959 66.5421 64.6364 66.492 64.865C66.4419 65.0935 66.5843 65.3203 66.8102 65.3719C68.6772 65.7934 70.4624 66.3208 72.1695 66.9167C81.8025 70.2811 88.8178 75.9916 92.3347 79.324C92.5175 79.1105 92.7039 78.8997 92.8832 78.6836C91.1524 77.0463 88.5989 74.8559 85.3273 72.6423C84.283 71.9353 83.1649 71.2273 81.9756 70.5337Z" fill="#524666"/>
</g>
<mask id="mask4" mask-type="alpha" maskUnits="userSpaceOnUse" x="11" y="2" width="93" height="94">
<path d="M11.4073 48.2743C11.1313 74.0334 31.5471 95.1411 57.0057 95.4204C82.4652 95.7005 103.328 75.0454 103.604 49.2864C103.88 23.5274 83.4655 2.41968 58.006 2.13953C57.8363 2.13775 57.6649 2.13686 57.4962 2.13686C32.267 2.13597 11.6816 22.687 11.4073 48.2743Z" fill="white"/>
</mask>
<g mask="url(#mask4)">
<path fill-rule="evenodd" clip-rule="evenodd" d="M47.4598 65.1589C47.6866 65.1126 47.8334 64.8894 47.7886 64.66C47.7428 64.4296 47.5222 64.2802 47.2946 64.3273C34.8909 66.8469 25.7343 73.7517 21.3367 77.6889C21.5098 77.9112 21.6839 78.1318 21.8606 78.3497C25.3124 75.2512 31.8003 70.253 40.5517 67.1048C42.7211 66.3239 45.0241 65.6534 47.4598 65.1589Z" fill="#524666"/>
</g>
<mask id="mask5" mask-type="alpha" maskUnits="userSpaceOnUse" x="11" y="2" width="93" height="94">
<path d="M11.4073 48.2743C11.1313 74.0334 31.5471 95.1411 57.0057 95.4204C82.4652 95.7005 103.328 75.0454 103.604 49.2864C103.88 23.5274 83.4655 2.41968 58.006 2.13953C57.8363 2.13775 57.6649 2.13686 57.4962 2.13686C32.267 2.13597 11.6816 22.687 11.4073 48.2743Z" fill="white"/>
</mask>
<g mask="url(#mask5)">
<path fill-rule="evenodd" clip-rule="evenodd" d="M80.7463 77.9798C80.7358 77.7459 80.5459 77.56 80.3086 77.5751C80.0774 77.5858 79.8981 77.785 79.9086 78.018L80.422 89.2487C80.6962 89.0895 80.9696 88.9321 81.2395 88.7684L81.0874 85.4378C81.6289 86.2062 82.1378 87.0271 82.6151 87.8969C82.8586 87.7368 83.0977 87.5714 83.3376 87.4068C82.6177 86.1111 81.8442 84.9469 81.0179 83.9117L80.7463 77.9798Z" fill="#524666"/>
</g>
<mask id="mask6" mask-type="alpha" maskUnits="userSpaceOnUse" x="11" y="2" width="93" height="94">
<path d="M11.4073 48.2743C11.1313 74.0334 31.5471 95.1411 57.0057 95.4204C82.4652 95.7005 103.328 75.0454 103.604 49.2864C103.88 23.5274 83.4655 2.41968 58.006 2.13953C57.8363 2.13775 57.6649 2.13686 57.4962 2.13686C32.267 2.13597 11.6816 22.687 11.4073 48.2743Z" fill="white"/>
</mask>
<g mask="url(#mask6)">
<path fill-rule="evenodd" clip-rule="evenodd" d="M34.9701 77.528C34.9877 77.295 34.8136 77.0914 34.5833 77.0736C34.3627 77.0638 34.1508 77.2319 34.1341 77.4649L33.7711 82.3554C32.6214 83.5569 31.5587 84.9843 30.5803 86.6296C30.8141 86.8004 31.0427 86.9791 31.28 87.1454C32.0096 85.9021 32.8051 84.7673 33.6674 83.7517L33.3158 88.491C33.5812 88.6564 33.8529 88.8112 34.121 88.9713L34.9701 77.528Z" fill="#524666"/>
</g>
<mask id="mask7" mask-type="alpha" maskUnits="userSpaceOnUse" x="11" y="2" width="93" height="94">
<path d="M11.4073 48.2743C11.1313 74.0334 31.5471 95.1411 57.0057 95.4204C82.4652 95.7005 103.328 75.0454 103.604 49.2864C103.88 23.5274 83.4655 2.41968 58.006 2.13953C57.8363 2.13775 57.6649 2.13686 57.4962 2.13686C32.267 2.13597 11.6816 22.687 11.4073 48.2743Z" fill="white"/>
</mask>
<g mask="url(#mask7)">
<path fill-rule="evenodd" clip-rule="evenodd" d="M58.3724 83.1974C58.143 83.232 57.9857 83.449 58.0208 83.6803C58.1368 84.4531 55.8664 89.8941 53.363 90.5256C53.1819 90.57 53.101 90.5282 53.0439 90.4793C52.3864 89.919 52.6026 86.9451 52.745 84.976C52.9182 82.5899 52.9744 81.5192 52.4884 81.1474C52.3213 81.0211 52.1077 80.9918 51.9003 81.0691C51.285 81.2959 50.7884 82.1995 49.9639 83.7754C48.9688 85.6769 47.7312 88.0407 46.5551 87.412C45.0071 86.5849 46.1077 81.8109 47.1642 78.9961C47.2469 78.7764 47.1379 78.5318 46.9216 78.4482C46.7036 78.3655 46.4628 78.4749 46.3802 78.6946C46.0734 79.511 43.4592 86.7183 46.1639 88.1617C48.0775 89.1862 49.5367 86.4061 50.7049 84.173C51.1321 83.3565 51.6463 82.3738 52.0031 82.0047C52.0796 82.5641 51.9821 83.8982 51.9091 84.9138C51.6806 88.0612 51.5891 90.3495 52.5042 91.1285C52.6571 91.2584 52.8953 91.3927 53.225 91.3927C53.3287 91.3927 53.443 91.3793 53.566 91.3482C56.4676 90.6163 59.0369 84.8 58.8497 83.5531C58.8154 83.321 58.6027 83.16 58.3724 83.1974Z" fill="#524666"/>
</g>
<mask id="mask8" mask-type="alpha" maskUnits="userSpaceOnUse" x="11" y="2" width="93" height="94">
<path d="M11.4073 48.2743C11.1313 74.0334 31.5471 95.1411 57.0057 95.4204C82.4652 95.7005 103.328 75.0454 103.604 49.2864C103.88 23.5274 83.4655 2.41968 58.006 2.13953C57.8363 2.13775 57.6649 2.13686 57.4962 2.13686C32.267 2.13597 11.6816 22.687 11.4073 48.2743Z" fill="white"/>
</mask>
<g mask="url(#mask8)">
<path fill-rule="evenodd" clip-rule="evenodd" d="M67.3269 79.3523C67.1212 79.459 67.0403 79.7151 67.1458 79.9241C67.9931 81.5872 69.8197 86.1985 68.1285 87.5449C67.8745 87.7468 67.5721 87.8215 67.2064 87.7691C65.3412 87.5085 62.5785 84.1823 61.6713 82.9221C61.5342 82.7327 61.2723 82.69 61.0851 82.8287C60.8978 82.9675 60.8574 83.2325 60.9928 83.4219C61.1352 83.6185 64.4929 88.2457 67.0913 88.6086C67.2056 88.6246 67.3172 88.6335 67.4271 88.6335C67.885 88.6335 68.2946 88.4921 68.6471 88.2111C71.1787 86.1949 68.2358 80.2114 67.8921 79.5355C67.7866 79.3283 67.5334 79.2447 67.3269 79.3523Z" fill="#524666"/>
</g>
<path fill-rule="evenodd" clip-rule="evenodd" d="M56.7378 15.6359C56.7378 15.6359 51.391 1.75249 59.6951 0.504222C67.0225 -0.596929 67.6637 9.8377 65.9741 14.5856" fill="#BA8271"/>
<path fill-rule="evenodd" clip-rule="evenodd" d="M56.7379 16.0612C56.5719 16.0612 56.4146 15.9586 56.35 15.7919C56.2154 15.4415 53.0781 7.16814 55.6048 2.71807C56.44 1.246 57.7959 0.359731 59.634 0.0833286C61.8828 -0.253704 63.7664 0.43641 65.0804 2.07967C67.6935 5.34924 67.5057 11.5273 66.3656 14.7309C66.2869 14.9511 66.0467 15.0643 65.8318 14.985C65.6151 14.9047 65.5033 14.6604 65.5819 14.4402C66.6277 11.5032 66.8207 5.60246 64.4339 2.61731C63.3008 1.19875 61.7256 0.627217 59.7555 0.925018C58.1584 1.16486 57.0367 1.89064 56.3255 3.14426C53.999 7.24304 57.0943 15.3987 57.1258 15.4807C57.2097 15.6992 57.1048 15.9461 56.8899 16.0317C56.8401 16.0514 56.7886 16.0612 56.7379 16.0612Z" fill="#524666"/>
<path fill-rule="evenodd" clip-rule="evenodd" d="M116.324 46.7499C117.027 38.9447 111.927 32.0846 104.932 31.4283C97.9369 30.7712 91.6963 36.5668 90.993 44.372C90.2898 52.1772 95.3893 59.0374 102.385 59.6936C109.38 60.3507 115.621 54.5552 116.324 46.7499Z" fill="#EFD1C4"/>
<path fill-rule="evenodd" clip-rule="evenodd" d="M103.852 31.8026C97.5114 31.8026 92.0459 37.3404 91.4081 44.411C90.7275 51.9701 95.668 58.6368 102.422 59.2707C102.768 59.3028 103.119 59.3189 103.465 59.3189C109.806 59.3198 115.272 53.7819 115.909 46.7114C116.24 43.0415 115.272 39.4741 113.183 36.6655C111.103 33.8676 108.16 32.1583 104.895 31.8516C104.548 31.8195 104.198 31.8026 103.852 31.8026ZM103.465 60.1695C103.093 60.1695 102.717 60.1525 102.346 60.1178C95.1342 59.4401 89.8556 52.3598 90.5781 44.3334C91.2543 36.8295 97.0851 30.952 103.852 30.952C104.223 30.952 104.599 30.9698 104.971 31.0046C108.471 31.3336 111.624 33.1614 113.847 36.151C116.062 39.1299 117.089 42.9077 116.739 46.7889C116.063 54.2919 110.232 60.1695 103.465 60.1695Z" fill="#524666"/>
<path fill-rule="evenodd" clip-rule="evenodd" d="M111.634 46.1965C111.621 46.1965 111.609 46.1956 111.596 46.1947C111.366 46.1733 111.197 45.9664 111.218 45.7328C111.637 41.0884 108.608 36.994 104.466 36.6053C102.465 36.4154 100.505 37.1126 98.9459 38.5606C97.3751 40.0193 96.3983 42.0656 96.1948 44.3214C96.1738 44.5559 95.9641 44.7271 95.7422 44.7066C95.5124 44.6852 95.3438 44.4774 95.3648 44.2438C95.5876 41.7749 96.6604 39.5334 98.385 37.932C100.12 36.3209 102.307 35.5461 104.542 35.7583C109.141 36.1898 112.509 40.6996 112.048 45.8104C112.028 46.0306 111.846 46.1965 111.634 46.1965Z" fill="#524666"/>
<path fill-rule="evenodd" clip-rule="evenodd" d="M0.454365 45.4669C-0.0829335 37.6474 5.16162 30.9023 12.1692 30.4012C19.1768 29.8992 25.2924 35.8312 25.8297 43.6507C26.367 51.4693 21.1224 58.2153 14.1148 58.7164C7.10813 59.2184 0.991663 53.2855 0.454365 45.4669Z" fill="#EFD1C4"/>
<path fill-rule="evenodd" clip-rule="evenodd" d="M12.9958 30.7971C12.732 30.7971 12.4655 30.8069 12.1982 30.8257C5.43173 31.3098 0.349673 37.865 0.869498 45.4375C1.38758 52.9566 7.29698 58.7726 14.0862 58.292C17.3571 58.0584 20.3363 56.4143 22.475 53.6636C24.6224 50.9005 25.6665 47.3554 25.414 43.6802C24.9177 36.4562 19.4635 30.7971 12.9958 30.7971ZM13.2885 59.1712C6.38576 59.1712 0.56634 53.1652 0.0386515 45.4973C-0.513499 37.4566 4.9154 30.494 12.1397 29.9768C19.4181 29.4615 25.6962 35.6386 26.2448 43.6204C26.5122 47.5088 25.4052 51.2625 23.1276 54.1924C20.8421 57.132 17.6516 58.8894 14.1447 59.1409C13.8581 59.1614 13.5716 59.1712 13.2885 59.1712Z" fill="#524666"/>
<path fill-rule="evenodd" clip-rule="evenodd" d="M5.164 45.0174C4.94733 45.0174 4.76386 44.8462 4.74901 44.6224C4.39692 39.5018 7.85922 35.0687 12.4669 34.7379C14.7113 34.5774 16.8762 35.3977 18.5764 37.0481C20.2669 38.6878 21.2917 40.9525 21.4612 43.4258C21.4778 43.6594 21.3048 43.8627 21.075 43.8797C20.8304 43.8886 20.646 43.7192 20.6303 43.4856C20.4739 41.2244 19.5409 39.1568 18.0024 37.6642C16.4726 36.1814 14.5243 35.4476 12.5254 35.5867C8.37555 35.8836 5.26097 39.9102 5.57986 44.5627C5.59645 44.7963 5.42347 44.9996 5.1937 45.0165C5.18322 45.0165 5.17361 45.0174 5.164 45.0174Z" fill="#524666"/>
<path fill-rule="evenodd" clip-rule="evenodd" d="M97.3637 42.3766C97.1994 57.8159 80.8324 70.1532 57.317 69.8929C33.8026 69.6325 19.3384 56.9546 19.5026 41.5144C19.6669 26.0751 34.3967 13.7199 57.912 13.9802C81.4264 14.2406 97.5279 26.9373 97.3637 42.3766Z" fill="#BA8271"/>
<path fill-rule="evenodd" clip-rule="evenodd" d="M47.5895 69.4667C47.565 69.4667 47.5406 69.4649 47.5161 69.4605C45.8579 69.1573 44.7256 68.8551 44.6785 68.8426C28.999 65.1388 18.9493 54.409 19.0856 41.51C19.2324 27.771 30.4798 17.0849 47.7389 14.2852C47.9678 14.2469 48.1801 14.4056 48.2159 14.6374C48.2526 14.8692 48.0971 15.0877 47.8708 15.1242C31.032 17.8561 20.0606 28.2168 19.9191 41.5189C19.7845 54.195 29.3484 64.3479 44.8785 68.0169C44.9013 68.0232 46.0396 68.3272 47.662 68.6232C47.8892 68.6642 48.0394 68.8854 47.9992 69.1163C47.9634 69.3223 47.7878 69.4667 47.5895 69.4667Z" fill="#524666"/>
<path fill-rule="evenodd" clip-rule="evenodd" d="M66.4114 69.7683C66.207 69.7683 66.0288 69.6149 65.999 69.4027C65.9667 69.17 66.1257 68.9551 66.3538 68.9212C67.7848 68.7171 68.8725 68.5066 68.883 68.504C85.5366 65.4047 96.8138 54.9032 96.9466 42.3723C97.0986 28.1234 83.397 16.7543 63.6271 14.7259C63.3982 14.7027 63.2313 14.494 63.254 14.2604C63.2776 14.0268 63.4873 13.8548 63.7109 13.8797C83.9265 15.9545 97.9364 27.6749 97.78 42.3813C97.6429 55.3321 86.0914 66.1661 69.0359 69.3412C69.028 69.3421 67.9211 69.5561 66.47 69.7647C66.4507 69.7674 66.4306 69.7683 66.4114 69.7683Z" fill="#524666"/>
<path fill-rule="evenodd" clip-rule="evenodd" d="M46.3917 21.5044C46.3917 21.5044 49.7177 31.2114 53.2822 30.1932C56.8459 29.175 56.3907 20.43 56.3907 20.43C56.3907 20.43 61.6562 31.4727 65.495 31.4976C69.4737 31.5244 69.0587 20.2409 69.0587 20.2409C69.0587 20.2409 91.9598 22.1597 91.7318 43.613C91.5038 65.0654 59.1899 65.463 57.2329 65.4416C55.2759 65.4193 24.4953 64.1729 24.7259 42.4931C24.9565 20.8134 46.3917 21.5044 46.3917 21.5044Z" fill="#EFD1C4"/>
<path fill-rule="evenodd" clip-rule="evenodd" d="M43.4677 42.3594C43.493 39.9895 41.6304 38.0466 39.3074 38.0208C36.9852 37.9949 35.0815 39.8959 35.0561 42.2667C35.0317 44.6366 36.8943 46.5794 39.2165 46.6053C41.5387 46.6303 43.4424 44.7293 43.4677 42.3594Z" fill="#524666"/>
<path fill-rule="evenodd" clip-rule="evenodd" d="M32.606 34.4543C32.4296 34.4543 32.2505 34.4196 32.0775 34.3473C31.3681 34.0487 31.03 33.2203 31.3226 32.4963C31.4266 32.2369 33.9384 26.1623 39.9814 26.7579C41.9882 26.9531 43.7111 27.892 44.963 29.4746C45.4453 30.0836 45.3518 30.9761 44.7551 31.4683C44.1584 31.9596 43.2839 31.8651 42.8016 31.2552C42.0083 30.253 40.9992 29.7047 39.7176 29.5799C35.7075 29.1858 33.9078 33.5324 33.8912 33.5761C33.6701 34.1235 33.1521 34.4543 32.606 34.4543Z" fill="#524666"/>
<path fill-rule="evenodd" clip-rule="evenodd" d="M72.0613 42.6758C72.0866 40.3059 73.9903 38.4049 76.3125 38.4299C78.6347 38.4558 80.4973 40.3986 80.4728 42.7685C80.4475 45.1394 78.5438 47.0403 76.2216 47.0144C73.8986 46.9886 72.036 45.0457 72.0613 42.6758Z" fill="#524666"/>
<path fill-rule="evenodd" clip-rule="evenodd" d="M83.1188 35.0137C82.5632 35.0137 82.039 34.6713 81.8249 34.1114C81.7515 33.9223 80.0689 29.6871 76.0815 29.9832C74.799 30.0794 73.7785 30.6046 72.9626 31.5899C72.4672 32.189 71.5892 32.263 71.0056 31.7575C70.4193 31.2528 70.3451 30.3585 70.8404 29.7602C72.1273 28.207 73.8694 27.3056 75.8788 27.1558C81.9097 26.702 84.3148 32.823 84.4136 33.0842C84.6905 33.8136 84.3349 34.6347 83.6194 34.9174C83.4543 34.9825 83.2857 35.0137 83.1188 35.0137Z" fill="#524666"/>
<path fill-rule="evenodd" clip-rule="evenodd" d="M57.5494 46.4355H57.5451C55.8816 46.4177 54.4383 45.5288 53.1645 44.7441C51.7737 43.8882 50.8861 43.388 50.2352 43.8775C50.05 44.0166 49.7896 43.9755 49.6524 43.7874C49.5162 43.5993 49.5555 43.3327 49.7407 43.1927C50.8729 42.3394 52.1957 43.1544 53.5953 44.0166C54.7773 44.7441 56.1175 45.5689 57.5538 45.5849C57.7836 45.5876 57.9688 45.7802 57.9662 46.0147C57.9635 46.2483 57.7774 46.4355 57.5494 46.4355Z" fill="#524666"/>
<path fill-rule="evenodd" clip-rule="evenodd" d="M57.5976 46.4355H57.5452C57.3146 46.4328 57.1302 46.2402 57.1328 46.0057C57.1355 45.7721 57.3216 45.5849 57.5496 45.5849C57.5644 45.5866 57.581 45.5849 57.5967 45.5849C59.0173 45.5849 60.3592 44.7984 61.5457 44.1039C62.9636 43.2729 64.3038 42.4883 65.416 43.3665C65.5986 43.51 65.6326 43.7766 65.492 43.963C65.3513 44.1476 65.0901 44.1832 64.9075 44.0397C64.2671 43.535 63.3699 44.0165 61.9607 44.8421C60.6834 45.5893 59.2392 46.4355 57.5976 46.4355Z" fill="#524666"/>
<path fill-rule="evenodd" clip-rule="evenodd" d="M45.6239 16.3149C45.6239 16.3149 32.81 8.39904 38.3865 2.14879C43.1095 -3.14655 55.1843 6.30641 56.4039 14.1429" fill="#BA8271"/>
<path fill-rule="evenodd" clip-rule="evenodd" d="M45.6235 16.74C45.5501 16.74 45.4759 16.7204 45.4077 16.6785C45.0801 16.4761 37.3675 11.656 36.6222 6.4079C36.3846 4.74057 36.8747 3.21144 38.0786 1.86242C39.5612 0.200436 41.7803 -0.241807 44.5017 0.589183C50.1141 2.30109 55.9833 8.72968 56.815 14.0758C56.8517 14.3077 56.6962 14.5261 56.4699 14.5627C56.241 14.6055 56.0287 14.4414 55.9929 14.2105C55.2171 9.22988 49.5165 3.00726 44.2632 1.40412C42.5945 0.8959 40.2759 0.662296 38.6945 2.43484C37.6531 3.60286 37.2451 4.86272 37.447 6.28575C38.1354 11.1362 45.7633 15.9037 45.8402 15.9509C46.0367 16.0731 46.0996 16.3343 45.9808 16.5349C45.9022 16.6669 45.7642 16.74 45.6235 16.74Z" fill="#524666"/>
<path fill-rule="evenodd" clip-rule="evenodd" d="M57.6814 56.4183C54.8149 56.4183 52.3032 56.1062 50.2291 55.6916C44.0218 54.4513 40.3699 52.11 40.217 52.011C40.0231 51.8853 39.9663 51.6222 40.0895 51.4243C40.2118 51.2264 40.4695 51.1684 40.6643 51.2932C40.8085 51.3868 55.2736 60.5144 74.9702 51.7595C74.6723 51.5687 73.8143 51.1889 71.3768 50.7413C71.1497 50.6994 70.9994 50.4783 71.0405 50.2474C71.0815 50.0164 71.2956 49.8631 71.5245 49.9041C75.2498 50.588 75.8412 51.1951 75.9277 51.698C75.9836 52.0172 75.7993 52.2838 75.5922 52.4069C68.8319 55.458 62.7111 56.4183 57.6814 56.4183Z" fill="#524666"/>
</svg>
