<svg width="81" height="81" viewBox="0 0 81 81" fill="none" xmlns="http://www.w3.org/2000/svg">
<path d="M11.3906 30.375V25.3125C11.3906 19.6062 13.6574 14.1336 17.6924 10.0986C21.7274 6.06369 27.2 3.79687 32.9062 3.79687C38.6125 3.79687 44.0851 6.06369 48.1201 10.0986C52.1551 14.1336 54.4219 19.6062 54.4219 25.3125V31.6406L11.3906 30.375Z" fill="#734B39"/>
<path d="M49.3594 36.7031C52.1553 36.7031 54.4219 34.4366 54.4219 31.6406C54.4219 28.8447 52.1553 26.5781 49.3594 26.5781C46.5634 26.5781 44.2969 28.8447 44.2969 31.6406C44.2969 34.4366 46.5634 36.7031 49.3594 36.7031Z" fill="#F0C6A4"/>
<path d="M16.4531 36.7031C19.2491 36.7031 21.5156 34.4366 21.5156 31.6406C21.5156 28.8447 19.2491 26.5781 16.4531 26.5781C13.6572 26.5781 11.3906 28.8447 11.3906 31.6406C11.3906 34.4366 13.6572 36.7031 16.4531 36.7031Z" fill="#F0C6A4"/>
<path d="M16.4531 25.3125H27.8438C33.4356 25.3125 37.9688 20.2128 37.9688 13.9219C40.9897 13.9219 43.887 15.1219 46.0231 17.2581C48.1593 19.3943 49.3594 22.2915 49.3594 25.3125V30.375C49.3594 34.7386 47.6259 38.9235 44.5404 42.0091C41.4548 45.0947 37.2699 46.8281 32.9062 46.8281C28.5426 46.8281 24.3577 45.0947 21.2721 42.0091C18.1866 38.9235 16.4531 34.7386 16.4531 30.375V25.3125Z" fill="#F7CCA9"/>
<path d="M56.9531 51.8906V77.2031H8.85938V51.8906C8.85938 50.548 9.39274 49.2603 10.3421 48.3109C11.2915 47.3615 12.5792 46.8281 13.9219 46.8281H51.8906C53.2333 46.8281 54.521 47.3615 55.4704 48.3109C56.4198 49.2603 56.9531 50.548 56.9531 51.8906Z" fill="#E9EEF2"/>
<path d="M56.9531 54.4219H74.6719V77.2031H56.9531V54.4219Z" fill="#EB423F"/>
<path d="M77.2031 72.1406V74.6719C77.2031 75.3432 76.9364 75.987 76.4617 76.4617C75.987 76.9364 75.3432 77.2031 74.6719 77.2031H69.6094V69.6094H74.6719C75.3432 69.6094 75.987 69.8761 76.4617 70.3508C76.9364 70.8255 77.2031 71.4693 77.2031 72.1406Z" fill="#F7CCA9"/>
<path d="M16.4541 70.875C16.2189 70.8751 15.9883 70.8097 15.7882 70.6861C15.588 70.5625 15.4263 70.3855 15.3212 70.1751L2.66495 44.8626C2.58908 44.7138 2.54342 44.5514 2.53059 44.3849C2.51777 44.2183 2.53804 44.0509 2.59023 43.8922C2.64242 43.7336 2.72551 43.5868 2.8347 43.4604C2.94389 43.334 3.07702 43.2305 3.22641 43.1557C3.37581 43.081 3.53852 43.0366 3.70515 43.0251C3.87179 43.0136 4.03906 43.0352 4.19732 43.0886C4.35558 43.142 4.50169 43.2262 4.62724 43.3364C4.7528 43.4466 4.8553 43.5805 4.92884 43.7305L17.5851 69.043C17.6816 69.2359 17.7272 69.4503 17.7176 69.6657C17.708 69.8812 17.6435 70.0907 17.5302 70.2742C17.4169 70.4578 17.2585 70.6093 17.0702 70.7144C16.8819 70.8196 16.6698 70.8748 16.4541 70.875Z" fill="#C3C6C7"/>
<path d="M39.2344 54.4219H56.9531V77.2031H39.2344V54.4219Z" fill="#D13330"/>
<path d="M13.9219 74.6719V72.1406C13.9219 71.4693 14.1886 70.8255 14.6633 70.3508C15.138 69.8761 15.7818 69.6094 16.4531 69.6094H21.5156V77.2031H16.4531C15.7818 77.2031 15.138 76.9364 14.6633 76.4617C14.1886 75.987 13.9219 75.3432 13.9219 74.6719Z" fill="#F7CCA9"/>
<path d="M34.1719 46.8281L24.0469 54.4219V46.8281H34.1719Z" fill="#DADCDE"/>
<path d="M31.6406 46.8281L41.7656 54.4219V46.8281H31.6406Z" fill="#DADCDE"/>
<path d="M63.2812 60.75H68.3438C68.6794 60.75 69.0013 60.6167 69.2387 60.3793C69.476 60.1419 69.6094 59.82 69.6094 59.4844C69.6094 59.1487 69.476 58.8268 69.2387 58.5894C69.0013 58.3521 68.6794 58.2187 68.3438 58.2187H63.2812C62.9456 58.2187 62.6237 58.3521 62.3863 58.5894C62.149 58.8268 62.0156 59.1487 62.0156 59.4844C62.0156 59.82 62.149 60.1419 62.3863 60.3793C62.6237 60.6167 62.9456 60.75 63.2812 60.75Z" fill="black"/>
<path d="M69.6094 63.2812H62.1738C61.8382 63.2812 61.5162 63.4146 61.2789 63.6519C61.0415 63.8893 60.9082 64.2112 60.9082 64.5469C60.9082 64.8825 61.0415 65.2045 61.2789 65.4418C61.5162 65.6792 61.8382 65.8125 62.1738 65.8125H69.6094C69.945 65.8125 70.267 65.6792 70.5043 65.4418C70.7417 65.2045 70.875 64.8825 70.875 64.5469C70.875 64.2112 70.7417 63.8893 70.5043 63.6519C70.267 63.4146 69.945 63.2812 69.6094 63.2812Z" fill="black"/>
<path d="M36.001 38.1814C33.8898 39.5894 31.9227 39.5894 29.8115 38.1814C29.6732 38.0881 29.5179 38.0231 29.3544 37.9901C29.191 37.957 29.0226 37.9566 28.8589 37.9889C28.6953 38.0212 28.5397 38.0854 28.401 38.178C28.2623 38.2706 28.1433 38.3897 28.0507 38.5285C27.9582 38.6673 27.894 38.8229 27.8619 38.9866C27.8297 39.1502 27.8302 39.3186 27.8634 39.4821C27.8965 39.6455 27.9616 39.8008 28.0549 39.939C28.1483 40.0772 28.268 40.1956 28.4073 40.2874C29.8786 41.2682 31.3927 41.7587 32.9063 41.7587C34.4198 41.7587 35.9336 41.2682 37.4052 40.2874C37.6825 40.1003 37.8745 39.8111 37.9392 39.4829C38.0039 39.1547 37.9361 38.8143 37.7505 38.536C37.565 38.2577 37.2768 38.0642 36.9489 37.9977C36.6211 37.9313 36.2803 37.9973 36.001 38.1814Z" fill="black"/>
<path d="M26.5781 35.4375C29.3741 35.4375 31.6406 33.1709 31.6406 30.375C31.6406 27.5791 29.3741 25.3125 26.5781 25.3125C23.7822 25.3125 21.5156 27.5791 21.5156 30.375C21.5156 33.1709 23.7822 35.4375 26.5781 35.4375Z" fill="#E9EEF2"/>
<path d="M39.2344 35.4375C42.0303 35.4375 44.2969 33.1709 44.2969 30.375C44.2969 27.5791 42.0303 25.3125 39.2344 25.3125C36.4384 25.3125 34.1719 27.5791 34.1719 30.375C34.1719 33.1709 36.4384 35.4375 39.2344 35.4375Z" fill="#E9EEF2"/>
<path d="M75.9375 68.5614V54.4219C75.9375 54.0862 75.8042 53.7643 75.5668 53.5269C75.3295 53.2896 75.0075 53.1562 74.6719 53.1562H58.2187V51.8906C58.2169 50.2129 57.5495 48.6044 56.3632 47.418C55.1768 46.2317 53.5684 45.5644 51.8906 45.5625H42.0237C45.0137 43.7599 47.4091 41.1196 48.9131 37.9687H49.3594C51.0371 37.9669 52.6456 37.2995 53.8319 36.1132C55.0183 34.9268 55.6856 33.3184 55.6875 31.6406V25.3125C55.6875 12.7512 45.4676 2.53124 32.9062 2.53124C20.3449 2.53124 10.125 12.7512 10.125 25.3125V31.6406C10.1269 33.3184 10.7942 34.9268 11.9805 36.1132C13.1669 37.2995 14.7754 37.9669 16.4531 37.9687H16.8994C18.4034 41.1196 20.7988 43.7599 23.7888 45.5625H13.9219C12.6132 45.5642 11.3371 45.9709 10.2689 46.7268C9.2006 47.4827 8.39251 48.5507 7.95555 49.7843L4.92881 43.7308H4.92786C4.85359 43.5823 4.75079 43.4498 4.62532 43.341C4.49986 43.2322 4.35419 43.1491 4.19663 43.0966C4.03908 43.0441 3.87272 43.0231 3.70706 43.0349C3.5414 43.0467 3.37968 43.091 3.23113 43.1652C3.08259 43.2395 2.95013 43.3423 2.84131 43.4678C2.7325 43.5932 2.64946 43.7389 2.59694 43.8965C2.54442 44.054 2.52345 44.2204 2.53523 44.386C2.547 44.5517 2.59129 44.7134 2.66556 44.862H2.66461L7.59374 54.7206V77.2031C7.59374 77.5388 7.72709 77.8607 7.96444 78.0981C8.20179 78.3354 8.5237 78.4687 8.85937 78.4687H74.6719C75.6785 78.4676 76.6436 78.0672 77.3554 77.3554C78.0672 76.6436 78.4676 75.6785 78.4687 74.6719V72.1406C78.4677 71.3558 78.2239 70.5904 77.7707 69.9496C77.3175 69.3088 76.6772 68.8239 75.9375 68.5614ZM55.6875 51.8906V53.1562H43.0312V48.0937H51.8906C52.8973 48.0949 53.8624 48.4953 54.5742 49.2071C55.286 49.9189 55.6864 50.884 55.6875 51.8906ZM37.9687 54.4219V75.9375H34.1719V50.3086L38.3959 53.4761C38.2617 53.5945 38.1542 53.74 38.0806 53.903C38.0069 54.0661 37.9688 54.243 37.9687 54.4219ZM25.3125 48.0937H30.375L25.3125 51.8906V48.0937ZM35.4375 48.0937H40.5V51.8906L35.4375 48.0937ZM49.8985 35.3986C50.3813 33.7678 50.6259 32.0758 50.625 30.375V28.0614C51.4252 28.3448 52.1073 28.8882 52.5624 29.6048C53.0176 30.3214 53.2194 31.1698 53.1358 32.0146C53.0521 32.8593 52.6878 33.6517 52.101 34.2651C51.5142 34.8785 50.7388 35.2776 49.8985 35.3986ZM32.9062 5.06249C38.275 5.06856 43.4222 7.20399 47.2184 11.0003C51.0147 14.7966 53.1502 19.9437 53.1562 25.3125V26.5816C52.4079 26.0176 51.5431 25.6275 50.625 25.4398V25.3125C50.6212 21.957 49.2865 18.7401 46.9139 16.3674C44.5412 13.9947 41.3242 12.6601 37.9687 12.6562C37.6331 12.6562 37.3112 12.7896 37.0738 13.0269C36.8365 13.2643 36.7031 13.5862 36.7031 13.9219C36.7031 19.5049 32.7289 24.0469 27.8437 24.0469H16.4531C16.1175 24.0469 15.7955 24.1802 15.5582 24.4176C15.3208 24.6549 15.1875 24.9768 15.1875 25.3125V25.4398C14.2694 25.6275 13.4046 26.0176 12.6562 26.5816V25.3125C12.6623 19.9437 14.7977 14.7966 18.594 11.0003C22.3903 7.20399 27.5375 5.06856 32.9062 5.06249ZM20.3773 29.1094H17.7187V26.5781H21.5191C20.9551 27.3265 20.565 28.1912 20.3773 29.1094ZM26.5781 26.5781C27.3291 26.5781 28.0632 26.8008 28.6875 27.218C29.3119 27.6352 29.7986 28.2282 30.086 28.922C30.3734 29.6158 30.4485 30.3792 30.302 31.1157C30.1555 31.8522 29.7939 32.5288 29.2629 33.0598C28.7319 33.5908 28.0554 33.9524 27.3189 34.0989C26.5823 34.2454 25.8189 34.1702 25.1251 33.8828C24.4313 33.5955 23.8383 33.1088 23.4211 32.4844C23.0039 31.86 22.7812 31.1259 22.7812 30.375C22.7824 29.3684 23.1828 28.4033 23.8946 27.6915C24.6064 26.9797 25.5715 26.5793 26.5781 26.5781ZM12.6562 31.6406C12.6573 30.8557 12.9011 30.0904 13.3543 29.4496C13.8075 28.8088 14.4478 28.3239 15.1875 28.0614V30.375C15.1865 32.0758 15.4312 33.7678 15.914 35.3986C15.0102 35.2678 14.1837 34.8161 13.5855 34.1261C12.9874 33.436 12.6575 32.5538 12.6562 31.6406ZM17.7719 31.6406H20.3773C20.5721 32.6013 20.9874 33.5035 21.5904 34.2763C22.1934 35.049 22.9677 35.6711 23.8522 36.0935C24.7368 36.516 25.7073 36.7271 26.6873 36.7104C27.6674 36.6936 28.6302 36.4495 29.4997 35.9971C30.3693 35.5447 31.1219 34.8965 31.6982 34.1037C32.2745 33.3108 32.6587 32.3948 32.8205 31.4281C32.9824 30.4614 32.9175 29.4702 32.6309 28.5329C32.3443 27.5955 31.8438 26.7375 31.169 26.0266C35.462 24.5677 38.6849 20.362 39.17 15.2612C41.6283 15.5578 43.8931 16.7438 45.537 18.5954C47.1809 20.4471 48.0904 22.8364 48.0937 25.3125V29.1094H45.4359C45.1223 27.5728 44.2493 26.2075 42.9862 25.2781C41.7231 24.3486 40.1599 23.9213 38.5996 24.0789C37.0394 24.2365 35.5932 24.9679 34.5415 26.1312C33.4898 27.2944 32.9075 28.8068 32.9075 30.375C32.9075 31.9432 33.4898 33.4555 34.5415 34.6188C35.5932 35.7821 37.0394 36.5135 38.5996 36.6711C40.1599 36.8287 41.7231 36.4014 42.9862 35.4719C44.2493 34.5425 45.1223 33.1771 45.4359 31.6406H48.0414C47.723 35.4355 45.9907 38.9723 43.1876 41.5501C40.3845 44.1279 36.7152 45.5586 32.907 45.5586C29.0988 45.5586 25.4296 44.1279 22.6265 41.5501C19.8234 38.9723 18.091 35.4355 17.7727 31.6406H17.7719ZM43.0312 30.375C43.0312 31.1259 42.8086 31.86 42.3914 32.4844C41.9741 33.1088 41.3812 33.5955 40.6874 33.8828C39.9936 34.1702 39.2302 34.2454 38.4936 34.0989C37.7571 33.9524 37.0806 33.5908 36.5496 33.0598C36.0186 32.5288 35.657 31.8522 35.5104 31.1157C35.3639 30.3792 35.4391 29.6158 35.7265 28.922C36.0139 28.2282 36.5005 27.6352 37.1249 27.218C37.7493 26.8008 38.4834 26.5781 39.2344 26.5781C40.241 26.5793 41.2061 26.9797 41.9179 27.6915C42.6297 28.4033 43.0301 29.3684 43.0312 30.375ZM10.125 51.8906C10.1261 50.884 10.5265 49.9189 11.2383 49.2071C11.9501 48.4953 12.9152 48.0949 13.9219 48.0937H22.7812V54.4219C22.7812 54.6569 22.8467 54.8873 22.9703 55.0872C23.0938 55.2872 23.2706 55.4488 23.4809 55.5539C23.6911 55.659 23.9264 55.7035 24.1605 55.6824C24.3946 55.6613 24.6182 55.5754 24.8062 55.4344L31.6406 50.3086V75.9375H22.7812V69.6094C22.7812 69.2737 22.6479 68.9518 22.4106 68.7144C22.1732 68.4771 21.8513 68.3437 21.5156 68.3437H17.2353L10.125 54.1232V51.8906ZM10.125 59.7831L14.6371 68.8071C14.0381 69.1337 13.538 69.6156 13.1895 70.2022C12.8409 70.7887 12.6567 71.4583 12.6562 72.1406V74.6719C12.6561 75.1031 12.7297 75.5311 12.8739 75.9375H10.125V59.7831ZM16.4531 75.9375C16.1176 75.9371 15.7959 75.8037 15.5586 75.5664C15.3213 75.3291 15.1879 75.0074 15.1875 74.6719V72.1406C15.1879 71.8051 15.3213 71.4834 15.5586 71.2461C15.7959 71.0088 16.1176 70.8754 16.4531 70.875H20.25V75.9375H16.4531ZM40.5 75.9375V55.6875H55.6875V75.9375H40.5ZM68.3437 69.6094V75.9375H58.2187V55.6875H73.4062V68.3437H69.6094C69.2737 68.3437 68.9518 68.4771 68.7144 68.7144C68.4771 68.9518 68.3437 69.2737 68.3437 69.6094ZM75.9375 74.6719C75.9371 75.0074 75.8037 75.3291 75.5664 75.5664C75.3291 75.8037 75.0074 75.9371 74.6719 75.9375H70.875V70.875H74.6719C75.0074 70.8754 75.3291 71.0088 75.5664 71.2461C75.8037 71.4834 75.9371 71.8051 75.9375 72.1406V74.6719Z" fill="black"/>
<path d="M39.2344 31.6406C39.9334 31.6406 40.5 31.074 40.5 30.375C40.5 29.676 39.9334 29.1094 39.2344 29.1094C38.5354 29.1094 37.9688 29.676 37.9688 30.375C37.9688 31.074 38.5354 31.6406 39.2344 31.6406Z" fill="black"/>
<path d="M26.5781 31.6406C27.2771 31.6406 27.8438 31.074 27.8438 30.375C27.8438 29.676 27.2771 29.1094 26.5781 29.1094C25.8791 29.1094 25.3125 29.676 25.3125 30.375C25.3125 31.074 25.8791 31.6406 26.5781 31.6406Z" fill="black"/>
</svg>
