<svg width="72" height="72" viewBox="0 0 72 72" fill="none" xmlns="http://www.w3.org/2000/svg">
<g clip-path="url(#clip0)">
<path d="M41.3596 49.4736L13.9351 63.3947H1.40613C1.40613 66.8545 4.21081 69.6592 7.67061 69.6592H47.6241L41.3596 49.4736Z" fill="#FFD185"/>
<path d="M41.3596 49.4736V63.3947C41.3596 66.8545 44.1643 69.6592 47.6241 69.6592H51.8004V49.4736H41.3596Z" fill="#FFBA48"/>
<path d="M60.1531 0.471466C54.3868 0.471466 49.7123 5.14602 49.7123 13.1396V69.3013C50.3656 69.5322 51.0681 69.6592 51.8004 69.6592C55.2602 69.6592 58.0649 66.8545 58.0649 63.3947V59.2184L55.9768 57.1302L58.0649 55.042V6.73595L64.3294 0.471466H60.1531Z" fill="#FFD185"/>
<path d="M20.1995 0.471466C16.7397 0.471466 13.9351 3.27614 13.9351 6.73595V10.9123L16.0232 13.0004L13.9351 15.0886V19.2649L16.0232 21.3531L13.9351 23.4412V63.3947H45.5359C45.5359 66.1221 47.2794 68.4411 49.7122 69.3013C52.145 68.4411 53.8885 66.1221 53.8885 63.3947V59.2184L51.8004 57.1302L53.8885 55.0421V6.73595C53.8885 3.27614 56.6932 0.471466 60.153 0.471466H20.1995Z" fill="#FFE8C2"/>
<path d="M64.3294 0.471466C60.8696 0.471466 58.0649 3.27614 58.0649 6.73595H70.5939C70.5939 3.27614 67.7892 0.471466 64.3294 0.471466Z" fill="#FFBA48"/>
<path d="M55.9767 23.5804H51.8004V40.2857H55.9767C62.2228 40.2857 67.676 36.9262 70.5939 31.9331C67.676 26.94 62.2228 23.5804 55.9767 23.5804Z" fill="#DB2116"/>
<path d="M26.4641 23.5804C21.8511 23.5804 18.1115 27.3201 18.1115 31.9331H51.8004V23.5804H26.4641Z" fill="#FF9A42"/>
<path d="M18.1115 31.9331C18.1115 36.5461 21.8511 40.2857 26.4641 40.2857H51.8004V31.9331H18.1115Z" fill="#FF7A3C"/>
<path d="M51.8004 23.5804C47.1874 23.5804 43.4478 27.3201 43.4478 31.9331C43.4478 36.5461 47.1874 40.2857 51.8004 40.2857C58.0465 40.2857 63.4997 36.9262 66.4175 31.9331C63.4997 26.94 58.0465 23.5804 51.8004 23.5804Z" fill="#FF3A2F"/>
<path d="M9.75877 29.8449H5.06041C3.49888 29.8449 2.13559 30.6848 1.40613 31.9331C2.13559 33.1814 3.49888 34.0212 5.06041 34.0212H9.75877L13.9351 31.9331L9.75877 29.8449Z" fill="#696969"/>
<path d="M58.0649 29.8449H53.8885V34.0212H58.0649C59.2181 34.0212 60.153 33.0863 60.153 31.9331C60.153 30.7799 59.2181 29.8449 58.0649 29.8449Z" fill="#EBEBEB"/>
<path d="M55.9767 31.9331C55.9767 30.7799 55.0418 29.8449 53.8886 29.8449H9.75879V34.0212H53.8886C55.0418 34.0212 55.9767 33.0863 55.9767 31.9331Z" fill="white"/>
<path d="M14.9792 60.153V38.0881C14.9792 37.5114 14.5117 37.0441 13.9351 37.0441C13.3585 37.0441 12.891 37.5115 12.891 38.0881V60.153C12.891 60.7298 13.3585 61.1971 13.9351 61.1971C14.5117 61.1971 14.9792 60.7298 14.9792 60.153Z" fill="black"/>
<path d="M71.4949 32.341C68.8292 27.7792 64.2517 24.6602 59.1085 23.7488V8.7147H70.5934C71.1702 8.7147 71.6375 8.24737 71.6375 7.67062C71.6375 3.64075 68.3588 0.362061 64.3289 0.362061H20.1992C16.1693 0.362061 12.8906 3.64075 12.8906 7.67062V11.8469C12.8906 12.1238 13.0006 12.3893 13.1964 12.5853L14.5464 13.9351L13.1964 15.2849C13.0006 15.4809 12.8906 15.7464 12.8906 16.0233V20.1996C12.8906 20.4765 13.0006 20.7419 13.1964 20.938L14.5464 22.2877L13.1964 23.6375C13.0006 23.8335 12.8906 24.099 12.8906 24.3759V29.7355H5.06C3.18915 29.7355 1.44345 30.7339 0.504194 32.341C0.314032 32.6665 0.314032 33.069 0.504194 33.3945C1.44345 35.0016 3.18915 36 5.06 36H17.6019C18.9148 39.7264 22.4491 42.2645 26.4636 42.2645H55.9763C56.3259 42.2645 56.6737 42.2525 57.0204 42.2323V55.5443L55.2379 57.3266C54.8302 57.7345 54.8302 58.3955 55.2379 58.8033L57.0204 60.5856V64.3294C57.0204 67.208 54.6786 69.5498 51.8 69.5498C48.9214 69.5498 46.5796 67.208 46.5796 64.3294C46.5796 63.7526 46.1122 63.2853 45.5355 63.2853H1.40572C0.829111 63.2853 0.361642 63.7526 0.361642 64.3294C0.361642 68.3592 3.64033 71.6379 7.6702 71.6379H51.8C55.8298 71.6379 59.1085 68.3592 59.1085 64.3294V60.153C59.1085 59.8762 58.9986 59.6107 58.8028 59.4147L57.4529 58.0649L58.8028 56.7151C58.9986 56.5192 59.1085 56.2538 59.1085 55.9767V41.9869C64.2517 41.0753 68.8291 37.9565 71.4949 33.3947C71.6851 33.0692 71.6851 32.6665 71.4949 32.341ZM7.6702 69.5498C5.14924 69.5498 3.03978 67.7534 2.55463 65.3734H44.5658C44.7992 66.9985 45.5692 68.4525 46.69 69.5498H7.6702ZM69.4445 6.62654H59.2134C59.6985 4.24659 61.808 2.45022 64.3289 2.45022C66.8499 2.45022 68.9594 4.24673 69.4445 6.62654ZM14.9788 24.8084L16.7611 23.0261C17.1688 22.6182 17.1688 21.9573 16.7611 21.5495L14.9788 19.7672V16.4558L16.7611 14.6735C17.1688 14.2656 17.1688 13.6046 16.7611 13.1969L14.9788 11.4146V7.67062C14.9788 4.79202 17.3206 2.45022 20.1992 2.45022H59.221C57.8644 3.77787 57.0204 5.62715 57.0204 7.67062V23.5032C56.6737 23.483 56.3259 23.471 55.9763 23.471H26.4636C22.4492 23.471 18.9148 26.0091 17.6019 29.7355H14.9788V24.8084ZM10.8024 33.9118V31.8237H58.0645C58.6402 31.8237 59.1085 32.292 59.1085 32.8678C59.1085 33.4435 58.6402 33.9118 58.0645 33.9118H10.8024ZM42.9382 29.7355H19.8584C21.0478 27.2222 23.5979 25.5592 26.4638 25.5592H45.8926C44.5653 26.6308 43.5275 28.0629 42.9382 29.7355ZM2.69439 32.8678C3.29091 32.2123 4.15054 31.8237 5.06 31.8237H8.71428V33.9118H5.06C4.15068 33.9118 3.29091 33.5232 2.69439 32.8678ZM26.4636 40.1763C23.5978 40.1763 21.0478 38.5133 19.8582 36H42.9381C43.5274 37.6727 44.5652 39.1047 45.8923 40.1763H26.4636ZM55.9763 40.1763H51.8C48.934 40.1763 46.384 38.5133 45.1946 36H58.0645C59.7915 36 61.1967 34.5948 61.1967 32.8678C61.1967 31.1407 59.7915 29.7355 58.0645 29.7355H45.1947C46.3841 27.2222 48.9342 25.5592 51.8 25.5592H55.9763C61.4044 25.5592 66.4797 28.3445 69.3699 32.8678C66.4797 37.391 61.4044 40.1763 55.9763 40.1763Z" fill="black"/>
</g>
<defs>
<clipPath id="clip0">
<rect width="71.2759" height="71.2759" fill="white" transform="translate(0.362061 0.362061)"/>
</clipPath>
</defs>
</svg>
