<svg width="83" height="83" viewBox="0 0 83 83" fill="none" xmlns="http://www.w3.org/2000/svg">
<path d="M61.5649 14.013H71.1025C71.8829 14.013 72.5154 14.6456 72.5154 15.426V55.2953H60.152V15.426C60.152 14.6456 60.7845 14.013 61.5649 14.013Z" fill="#037E73"/>
<path d="M13.748 74.4033C11.9614 74.4033 10.5131 72.955 10.5131 71.1684V65.6632H16.9829V71.1684C16.9829 72.955 15.5346 74.4033 13.748 74.4033Z" fill="#7C4B37"/>
<path d="M69.4658 74.4033C67.6792 74.4033 66.231 72.955 66.231 71.1684V65.6632H72.7007V71.1684C72.7007 72.955 71.2525 74.4033 69.4658 74.4033Z" fill="#7C4B37"/>
<path d="M47.7886 55.2952H35.4252V10.0096C35.4252 9.22919 36.0577 8.59664 36.8381 8.59664H46.3757C47.1561 8.59664 47.7886 9.22919 47.7886 10.0096V55.2952Z" fill="#E53950"/>
<path d="M35.4253 55.2952H23.0619V10.0096C23.0619 9.22919 23.6944 8.59664 24.4748 8.59664H34.0124C34.7928 8.59664 35.4253 9.22919 35.4253 10.0096V55.2952Z" fill="#0078C8"/>
<path d="M23.0619 17.6837H35.4253V23.7266H23.0619V17.6837Z" fill="#7BACDF"/>
<path d="M23.0619 55.2952H10.6984V10.0096C10.6984 9.22919 11.331 8.59664 12.1114 8.59664H21.6489C22.4293 8.59664 23.0619 9.22919 23.0619 10.0096V55.2952Z" fill="#FEC165"/>
<path d="M49.2015 14.013H58.7391C59.5195 14.013 60.152 14.6456 60.152 15.426V55.2953H47.7886V15.426C47.7886 14.6456 48.4213 14.013 49.2015 14.013Z" fill="#0078C8"/>
<path d="M80.3252 66.8407H2.6748C1.86896 66.8407 1.21582 66.1876 1.21582 65.3818V56.7542C1.21582 55.9483 1.86896 55.2952 2.6748 55.2952H80.3252C81.131 55.2952 81.7842 55.9483 81.7842 56.7542V65.3818C81.7842 66.1876 81.131 66.8407 80.3252 66.8407Z" fill="#AA6A51"/>
<path d="M80.3252 55.2952H73.8918C74.6977 55.2952 75.3508 55.9485 75.3508 56.7542V65.3818C75.3508 66.1876 74.6977 66.8407 73.8918 66.8407H80.3252C81.131 66.8407 81.7841 66.1876 81.7841 65.3818V56.7542C81.7841 55.9485 81.131 55.2952 80.3252 55.2952Z" fill="#935B44"/>
<path d="M21.6488 8.59664H16.1345C16.9149 8.59664 17.5475 9.22919 17.5475 10.0096V55.2952H23.0618V10.0096C23.0618 9.22919 22.4292 8.59664 21.6488 8.59664Z" fill="#FDB441"/>
<path d="M58.739 14.013H53.2247C54.0051 14.013 54.6377 14.6456 54.6377 15.426V55.2952H60.152V15.426C60.152 14.6456 59.5194 14.013 58.739 14.013Z" fill="#0268B4"/>
<path d="M71.1024 14.013H65.5881C66.3685 14.013 67.0011 14.6456 67.0011 15.426V55.2952H72.5154V15.426C72.5154 14.6456 71.8827 14.013 71.1024 14.013Z" fill="#006E66"/>
<path d="M46.3756 8.59664H40.8613C41.6417 8.59664 42.2743 9.22919 42.2743 10.0096V55.2952H47.7886V10.0096C47.7886 9.22919 47.156 8.59664 46.3756 8.59664Z" fill="#CA2E43"/>
<path d="M35.4253 17.6837H47.7887V23.7266H35.4253V17.6837Z" fill="#FEE8C7"/>
<path d="M42.2744 17.6837H47.7887V23.7266H42.2744V17.6837Z" fill="#FEDBA6"/>
<path d="M60.1521 47.2622H47.7887V41.92H60.1521V47.2622Z" fill="#7BACDF"/>
<path d="M54.6377 41.9202H60.152V47.2622H54.6377V41.9202Z" fill="#5F99D7"/>
<path d="M72.5154 47.2622H60.1519V41.92H72.5154V47.2622Z" fill="#0AB69F"/>
<path d="M67.0011 41.9202H72.5154V47.2622H67.0011V41.9202Z" fill="#01998D"/>
<path d="M34.0124 8.59664H28.498C29.2784 8.59664 29.911 9.22919 29.911 10.0096V55.2952H35.4253V10.0096C35.4253 9.22919 34.7926 8.59664 34.0124 8.59664Z" fill="#0268B4"/>
<path d="M29.911 17.6837H35.4253V23.7266H29.911V17.6837Z" fill="#5F99D7"/>
<path d="M10.6984 17.6837H23.0619V23.7266H10.6984V17.6837Z" fill="#FEE8C7"/>
<path d="M17.5475 17.6837H23.0618V23.7266H17.5475V17.6837Z" fill="#FEDBA6"/>
<path d="M80.3252 54.0795H73.7312C73.7312 53.337 73.7312 16.0308 73.7312 15.4261C73.7312 13.9766 72.552 12.7972 71.1023 12.7972H61.5649C61.0447 12.7972 60.5605 12.9511 60.1518 13.2129C59.7433 12.9511 59.2591 12.7972 58.7389 12.7972H49.2015C49.1349 12.7972 49.0695 12.8022 49.0042 12.8073V10.0096C49.0042 8.56017 47.825 7.38082 46.3754 7.38082H36.8381C36.3179 7.38082 35.8338 7.53466 35.4251 7.79647C35.0164 7.53466 34.5324 7.38082 34.0122 7.38082H24.4748C23.9546 7.38082 23.4704 7.53466 23.0618 7.79647C22.6533 7.53466 22.1691 7.38082 21.6489 7.38082H12.1114C10.6618 7.38082 9.48259 8.56 9.48259 10.0096V35.3988C9.48259 36.0705 10.027 36.6147 10.6984 36.6147C11.3699 36.6147 11.9142 36.0705 11.9142 35.3988V24.9425H21.846V54.0793H11.9142V41.0727C11.9142 40.401 11.3699 39.8568 10.6984 39.8568C10.027 39.8568 9.48259 40.401 9.48259 41.0727V54.0793H2.6748C1.19993 54.0793 0 55.2791 0 56.7541V65.3818C0 66.8568 1.19993 68.0566 2.6748 68.0566H9.29746V71.1684C9.29746 73.6226 11.294 75.619 13.7482 75.619C16.2023 75.619 18.1989 73.6226 18.1989 71.1684V68.0566H53.5771C54.2488 68.0566 54.793 67.5124 54.793 66.8408C54.793 66.1691 54.2488 65.6249 53.5771 65.6249C53.15 65.6249 3.59024 65.6249 2.6748 65.6249C2.54074 65.6249 2.43164 65.5158 2.43164 65.3818V56.7541C2.43164 56.6201 2.54074 56.511 2.6748 56.511H80.3252C80.4593 56.511 80.5684 56.6201 80.5684 56.7541V65.3818C80.5684 65.5158 80.4593 65.6249 80.3252 65.6249C79.5659 65.6249 60.0272 65.6249 59.251 65.6249C58.5794 65.6249 58.0352 66.1691 58.0352 66.8408C58.0352 67.5124 58.5794 68.0566 59.251 68.0566H65.0151V71.1684C65.0151 73.6226 67.0116 75.619 69.4658 75.619C71.92 75.619 73.9165 73.6226 73.9165 71.1684V68.0566H80.3252C81.8002 68.0566 83 66.8568 83 65.3818V56.7541C83 55.2793 81.8002 54.0795 80.3252 54.0795ZM15.7671 68.0566V71.1684C15.7671 72.2816 14.8614 73.1873 13.748 73.1873C12.6346 73.1873 11.7289 72.2816 11.7289 71.1684V68.0566H15.7671ZM24.2777 18.8995H34.2095V22.5108H24.2777V18.8995ZM36.6411 18.8995H46.5727V22.5108H36.6411V18.8995ZM49.0044 43.136H58.9362V46.0463H49.0044V43.136ZM61.3678 43.136H71.2998V46.0463H61.3678V43.136ZM61.5649 15.2287H71.1023C71.2111 15.2287 71.2996 15.3172 71.2996 15.426V40.7043H61.3676V15.426C61.3678 15.3172 61.4563 15.2287 61.5649 15.2287ZM49.2017 15.2287H58.739C58.8476 15.2287 58.9362 15.3172 58.9362 15.426V40.7043H49.0044C49.0044 39.5143 49.0044 16.3571 49.0044 15.426C49.0044 15.3172 49.0929 15.2287 49.2017 15.2287ZM36.8382 9.81246H46.3756C46.4842 9.81246 46.5727 9.90081 46.5727 10.0096V15.426V16.4679H36.6411V10.0096C36.6411 9.90081 36.7294 9.81246 36.8382 9.81246ZM24.4748 9.81246H34.0122C34.1209 9.81246 34.2093 9.90081 34.2093 10.0096V16.4679H24.2775V10.0096C24.2777 9.90081 24.366 9.81246 24.4748 9.81246ZM12.1114 9.81246H21.6487C21.7573 9.81246 21.8459 9.90081 21.8459 10.0096V16.4679H11.9142V10.0096C11.9142 9.90081 12.0027 9.81246 12.1114 9.81246ZM11.9142 18.8995H21.846V22.5108H11.9142V18.8995ZM24.2777 24.9425H34.2095V54.0793H24.2777V24.9425ZM36.6411 24.9425H46.5727V54.0793H36.6411V24.9425ZM49.0044 48.478H58.9362V54.0795H49.0044V48.478ZM61.3678 54.0795V48.478H71.2998V54.0795H61.3678ZM71.4849 71.1686C71.4849 72.2818 70.5792 73.1875 69.4658 73.1875C68.3524 73.1875 67.4467 72.2818 67.4467 71.1686V68.0567H71.4849V71.1686Z" fill="black"/>
</svg>
