<svg width="74" height="74" viewBox="0 0 74 74" fill="none" xmlns="http://www.w3.org/2000/svg">
<g clip-path="url(#clip0)">
<path d="M55.6732 4.26376C45.6786 4.26376 37.5769 9.54706 37.5769 19.7393C37.5769 29.9316 45.6786 38.1925 55.6732 38.1925C65.6668 38.1925 73.7679 29.9316 73.7679 19.7393C73.7679 9.54706 65.6668 4.26376 55.6732 4.26376Z" fill="#FBC4AC"/>
<path d="M41.1501 19.7393C41.1501 10.1619 48.3038 2.29001 57.4595 1.3754C56.8718 1.31612 56.2762 1.28563 55.6732 1.28563C45.6786 1.28563 37.5769 9.54706 37.5769 19.7393C37.5769 29.9316 45.6786 38.1925 55.6732 38.1925C56.2762 38.1925 56.8718 38.162 57.4595 38.1033C48.3038 37.1881 41.1501 29.3162 41.1501 19.7393Z" fill="#E3B098"/>
<path d="M65.3184 23.6084C64.7013 23.6084 64.2017 23.1087 64.2017 22.4916V20.6161C64.2017 19.9996 64.7013 19.4994 65.3184 19.4994C65.9355 19.4994 66.4351 19.9996 66.4351 20.6161V22.4916C66.4351 23.1087 65.9355 23.6084 65.3184 23.6084Z" fill="#3A484A"/>
<path d="M66.5957 26.3652H64.0415C63.4245 26.3652 62.9248 25.865 62.9248 25.2485C62.9248 24.6319 63.4245 24.1317 64.0415 24.1317H66.5957C67.2128 24.1317 67.7124 24.6319 67.7124 25.2485C67.7124 25.865 67.2128 26.3652 66.5957 26.3652Z" fill="#F98084"/>
<path d="M46.0264 23.6084C45.4093 23.6084 44.9097 23.1087 44.9097 22.4916V20.6161C44.9097 19.9996 45.4093 19.4994 46.0264 19.4994C46.6435 19.4994 47.1431 19.9996 47.1431 20.6161V22.4916C47.1431 23.1087 46.6435 23.6084 46.0264 23.6084Z" fill="#3A484A"/>
<path d="M47.3034 26.3652H44.7493C44.1322 26.3652 43.6326 25.865 43.6326 25.2485C43.6326 24.6319 44.1322 24.1317 44.7493 24.1317H47.3034C47.9205 24.1317 48.4202 24.6319 48.4202 25.2485C48.4202 25.865 47.9205 26.3652 47.3034 26.3652Z" fill="#F98084"/>
<path d="M55.6723 26.2591C54.6775 26.2591 53.7426 25.8418 53.1063 25.1141C52.7004 24.6494 52.7484 23.9443 53.2124 23.5384C53.6771 23.1324 54.3822 23.1799 54.7882 23.6445C54.9999 23.8867 55.3223 24.0256 55.6723 24.0256C56.0223 24.0256 56.3453 23.8867 56.557 23.6439C56.9629 23.1799 57.6681 23.1324 58.1327 23.5384C58.5974 23.9443 58.6448 24.65 58.2383 25.1141C57.6026 25.8418 56.6671 26.2591 55.6723 26.2591Z" fill="#3A484A"/>
<path d="M72.9018 14.0846C71.6592 -1.0438 65.5589 1.28564 55.6732 1.28564C48.1994 1.28564 44.6104 0.537574 43.0815 0.0605079C42.4701 -0.130883 41.8118 0.14463 41.521 0.715415C40.3004 3.11091 37.5769 9.5911 37.5769 19.7393C37.5769 19.7393 41.9049 11.9454 55.6727 11.9454C62.0778 11.9454 61.542 14.0846 72.9018 14.0846Z" fill="#C86D5C"/>
<path d="M45.0948 0.715415C45.123 0.660087 45.1552 0.608146 45.1902 0.559028C44.2462 0.386832 43.562 0.21012 43.0815 0.0605079C42.4701 -0.130883 41.8118 0.14463 41.521 0.715415C40.3004 3.11091 37.5769 9.5911 37.5769 19.7393C37.5769 19.7393 38.6129 17.8757 41.28 15.9714C41.8338 7.97755 44.0323 2.79926 45.0948 0.715415Z" fill="#AD4F3D"/>
<path d="M0.446533 54.8316V66.7278C0.446533 69.6913 2.67491 72.1816 5.62086 72.509L14.1714 73.4604L0.446533 54.8316Z" fill="#3A484A"/>
<path d="M36.611 54.8316V66.7278C36.611 69.6913 34.3832 72.1816 31.4372 72.509L22.8867 73.4604L36.611 54.8316Z" fill="#3A484A"/>
<path d="M36.611 54.8316C36.6099 54.8333 36.6099 54.8333 36.6099 54.8333L18.1274 40.8607L0.448273 54.8333L0.446579 54.8316C0.43811 55.0693 0.433594 55.3064 0.433594 55.5458C0.433594 65.7381 8.53468 74.0001 18.5288 74.0001C28.5235 74.0001 36.6246 65.7381 36.6246 55.5458C36.6246 55.307 36.62 55.0693 36.611 54.8316Z" fill="#FBC4AC"/>
<path d="M3.43996 54.2439C2.46268 54.5172 1.46281 54.721 0.448273 54.8333L0.446579 54.8316C0.43811 55.0693 0.433594 55.3064 0.433594 55.5458C0.433594 65.7381 8.53468 74.0001 18.5288 74.0001C19.0454 74.0001 19.5563 73.9769 20.0616 73.9335C11.0753 73.1126 3.93791 64.7015 3.43996 54.2439Z" fill="#E3B098"/>
<path d="M8.88309 59.4149C8.26657 59.4149 7.76636 58.9152 7.76636 58.2981V56.4226C7.76636 55.8061 8.26657 55.3059 8.88309 55.3059C9.50017 55.3059 9.99982 55.8061 9.99982 56.4226V58.2981C9.99982 58.9152 9.50017 59.4149 8.88309 59.4149Z" fill="#3A484A"/>
<path d="M10.1601 62.1717H7.60599C6.98891 62.1717 6.48926 61.672 6.48926 61.0549C6.48926 60.4384 6.98891 59.9382 7.60599 59.9382H10.1601C10.7772 59.9382 11.2769 60.4384 11.2769 61.0549C11.2769 61.672 10.7772 62.1717 10.1601 62.1717Z" fill="#F98084"/>
<path d="M28.1751 59.4149C27.5586 59.4149 27.0583 58.9152 27.0583 58.2981V56.4226C27.0583 55.8061 27.5586 55.3059 28.1751 55.3059C28.7922 55.3059 29.2918 55.8061 29.2918 56.4226V58.2981C29.2918 58.9152 28.7922 59.4149 28.1751 59.4149Z" fill="#3A484A"/>
<path d="M29.4521 62.1717H26.898C26.2809 62.1717 25.7812 61.672 25.7812 61.0549C25.7812 60.4384 26.2809 59.9382 26.898 59.9382H29.4521C30.0692 59.9382 30.5688 60.4384 30.5688 61.0549C30.5688 61.672 30.0692 62.1717 29.4521 62.1717Z" fill="#F98084"/>
<path d="M18.5287 62.0661C17.534 62.0661 16.599 61.6489 15.9628 60.9206C15.5568 60.4565 15.6048 59.7508 16.0689 59.3448C16.533 58.9395 17.2387 58.9869 17.6446 59.451C17.8563 59.6938 18.1787 59.8326 18.5287 59.8326C18.8788 59.8326 19.2017 59.6938 19.4134 59.451C19.8194 58.9869 20.5251 58.9395 20.9892 59.3454C21.4538 59.7513 21.5012 60.4565 21.0953 60.9211C20.459 61.6489 19.5235 62.0661 18.5287 62.0661Z" fill="#3A484A"/>
<path d="M0.446533 54.8316L0.448227 54.8333C10.16 53.7589 18.5287 44.3785 18.5287 44.3785C18.5287 44.3785 26.898 53.7589 36.6098 54.8333C36.6098 54.8333 36.6098 54.8333 36.611 54.8316C36.2434 44.9708 28.2891 37.0927 18.5287 37.0927C8.76894 37.0927 0.814636 44.9708 0.446533 54.8316Z" fill="#3A484A"/>
<path d="M20.0926 37.1621C19.5772 37.117 19.0561 37.0927 18.5288 37.0927C8.76894 37.0927 0.814636 44.9708 0.446533 54.8322L0.448227 54.8333C1.52148 54.7148 2.409 54.5414 3.43991 54.2439C4.0807 45.2096 11.2655 37.9322 20.0926 37.1621Z" fill="#323E40"/>
<path d="M29.7356 25.1542V13.9999C29.7356 10.0151 26.5057 6.78459 22.5203 6.78459H7.64886C3.66409 6.78459 0.433594 10.0151 0.433594 13.9999V24.1933C0.433594 28.178 3.66409 31.408 7.64886 31.408H33.1914L29.7356 25.1542Z" fill="#58B78C"/>
<path d="M22.8731 15.1166H7.29593C6.67941 15.1166 6.1792 14.6164 6.1792 13.9999C6.1792 13.3828 6.67941 12.8831 7.29593 12.8831H22.8731C23.4902 12.8831 23.9899 13.3828 23.9899 13.9999C23.9899 14.6164 23.4902 15.1166 22.8731 15.1166Z" fill="#EFEDEE"/>
<path d="M22.8731 20.213H7.29593C6.67941 20.213 6.1792 19.7134 6.1792 19.0963C6.1792 18.4798 6.67941 17.9796 7.29593 17.9796H22.8731C23.4902 17.9796 23.9899 18.4798 23.9899 19.0963C23.9899 19.7134 23.4902 20.213 22.8731 20.213Z" fill="#EFEDEE"/>
<path d="M17.0106 25.31H7.29593C6.67941 25.31 6.1792 24.8098 6.1792 24.1933C6.1792 23.5762 6.67941 23.0765 7.29593 23.0765H17.0106C17.6271 23.0765 18.1273 23.5762 18.1273 24.1933C18.1273 24.8098 17.6271 25.31 17.0106 25.31Z" fill="#EFEDEE"/>
<path d="M44.466 61.6043V50.4494C44.466 46.4646 47.6965 43.2347 51.6813 43.2347H66.5528C70.5375 43.2347 73.768 46.4646 73.768 50.4494V60.6428C73.768 64.6276 70.5375 67.8581 66.5528 67.8581H41.0103L44.466 61.6043Z" fill="#F2C42C"/>
<path d="M66.9056 51.5667H51.3284C50.7113 51.5667 50.2117 51.0665 50.2117 50.45C50.2117 49.8329 50.7113 49.3332 51.3284 49.3332H66.9056C67.5227 49.3332 68.0223 49.8329 68.0223 50.45C68.0223 51.0665 67.5221 51.5667 66.9056 51.5667Z" fill="#EFEDEE"/>
<path d="M66.9056 56.6631H51.3284C50.7113 56.6631 50.2117 56.1629 50.2117 55.5464C50.2117 54.9299 50.7113 54.4297 51.3284 54.4297H66.9056C67.5227 54.4297 68.0223 54.9299 68.0223 55.5464C68.0223 56.1629 67.5221 56.6631 66.9056 56.6631Z" fill="#EFEDEE"/>
<path d="M66.9056 61.7601H57.1909C56.5744 61.7601 56.0742 61.2599 56.0742 60.6434C56.0742 60.0263 56.5744 59.5266 57.1909 59.5266H66.9056C67.5221 59.5266 68.0223 60.0263 68.0223 60.6434C68.0223 61.2599 67.5221 61.7601 66.9056 61.7601Z" fill="#EFEDEE"/>
</g>
<defs>
<clipPath id="clip0">
<rect width="74" height="74" fill="white"/>
</clipPath>
</defs>
</svg>
